G04 #@! TF.GenerationSoftware,KiCad,Pcbnew,8.0.8*
G04 #@! TF.CreationDate,2025-07-22T13:56:33-07:00*
G04 #@! TF.ProjectId,PBJ_EU,50424a5f-4555-42e6-9b69-6361645f7063,10.4*
G04 #@! TF.SameCoordinates,Original*
G04 #@! TF.FileFunction,Legend,Bot*
G04 #@! TF.FilePolarity,Positive*
%FSLAX46Y46*%
G04 Gerber Fmt 4.6, Leading zero omitted, Abs format (unit mm)*
G04 Created by KiCad (PCBNEW 8.0.8) date 2025-07-22 13:56:33*
%MOMM*%
%LPD*%
G01*
G04 APERTURE LIST*
%ADD10C,0.100000*%
%ADD11C,0.650000*%
%ADD12C,0.800000*%
%ADD13C,0.200000*%
%ADD14C,0.500000*%
%ADD15C,0.150000*%
%ADD16C,0.120000*%
%ADD17C,0.010000*%
G04 APERTURE END LIST*
D10*
X94886046Y-156457983D02*
X79343647Y-156499748D01*
X79353360Y-152081392D01*
X94895759Y-152039627D01*
X94886046Y-156457983D01*
G36*
X94886046Y-156457983D02*
G01*
X79343647Y-156499748D01*
X79353360Y-152081392D01*
X94895759Y-152039627D01*
X94886046Y-156457983D01*
G37*
D11*
X115890474Y-38007152D02*
X116271427Y-37816676D01*
X116271427Y-37816676D02*
X116842855Y-37816676D01*
X116842855Y-37816676D02*
X117414284Y-38007152D01*
X117414284Y-38007152D02*
X117795236Y-38388104D01*
X117795236Y-38388104D02*
X117985713Y-38769057D01*
X117985713Y-38769057D02*
X118176189Y-39530961D01*
X118176189Y-39530961D02*
X118176189Y-40102390D01*
X118176189Y-40102390D02*
X117985713Y-40864295D01*
X117985713Y-40864295D02*
X117795236Y-41245247D01*
X117795236Y-41245247D02*
X117414284Y-41626200D01*
X117414284Y-41626200D02*
X116842855Y-41816676D01*
X116842855Y-41816676D02*
X116461903Y-41816676D01*
X116461903Y-41816676D02*
X115890474Y-41626200D01*
X115890474Y-41626200D02*
X115699998Y-41435723D01*
X115699998Y-41435723D02*
X115699998Y-40102390D01*
X115699998Y-40102390D02*
X116461903Y-40102390D01*
X113985713Y-41816676D02*
X113985713Y-39150009D01*
X113985713Y-39911914D02*
X113795236Y-39530961D01*
X113795236Y-39530961D02*
X113604760Y-39340485D01*
X113604760Y-39340485D02*
X113223808Y-39150009D01*
X113223808Y-39150009D02*
X112842855Y-39150009D01*
X109985713Y-41626200D02*
X110366665Y-41816676D01*
X110366665Y-41816676D02*
X111128570Y-41816676D01*
X111128570Y-41816676D02*
X111509523Y-41626200D01*
X111509523Y-41626200D02*
X111699999Y-41245247D01*
X111699999Y-41245247D02*
X111699999Y-39721438D01*
X111699999Y-39721438D02*
X111509523Y-39340485D01*
X111509523Y-39340485D02*
X111128570Y-39150009D01*
X111128570Y-39150009D02*
X110366665Y-39150009D01*
X110366665Y-39150009D02*
X109985713Y-39340485D01*
X109985713Y-39340485D02*
X109795237Y-39721438D01*
X109795237Y-39721438D02*
X109795237Y-40102390D01*
X109795237Y-40102390D02*
X111699999Y-40483342D01*
X106557142Y-41626200D02*
X106938094Y-41816676D01*
X106938094Y-41816676D02*
X107699999Y-41816676D01*
X107699999Y-41816676D02*
X108080952Y-41626200D01*
X108080952Y-41626200D02*
X108271428Y-41245247D01*
X108271428Y-41245247D02*
X108271428Y-39721438D01*
X108271428Y-39721438D02*
X108080952Y-39340485D01*
X108080952Y-39340485D02*
X107699999Y-39150009D01*
X107699999Y-39150009D02*
X106938094Y-39150009D01*
X106938094Y-39150009D02*
X106557142Y-39340485D01*
X106557142Y-39340485D02*
X106366666Y-39721438D01*
X106366666Y-39721438D02*
X106366666Y-40102390D01*
X106366666Y-40102390D02*
X108271428Y-40483342D01*
X104652381Y-39150009D02*
X104652381Y-41816676D01*
X104652381Y-39530961D02*
X104461904Y-39340485D01*
X104461904Y-39340485D02*
X104080952Y-39150009D01*
X104080952Y-39150009D02*
X103509523Y-39150009D01*
X103509523Y-39150009D02*
X103128571Y-39340485D01*
X103128571Y-39340485D02*
X102938095Y-39721438D01*
X102938095Y-39721438D02*
X102938095Y-41816676D01*
X101604761Y-39150009D02*
X100080952Y-39150009D01*
X101033333Y-41816676D02*
X101033333Y-38388104D01*
X101033333Y-38388104D02*
X100842856Y-38007152D01*
X100842856Y-38007152D02*
X100461904Y-37816676D01*
X100461904Y-37816676D02*
X100080952Y-37816676D01*
X97033333Y-41816676D02*
X97033333Y-39721438D01*
X97033333Y-39721438D02*
X97223809Y-39340485D01*
X97223809Y-39340485D02*
X97604761Y-39150009D01*
X97604761Y-39150009D02*
X98366666Y-39150009D01*
X98366666Y-39150009D02*
X98747619Y-39340485D01*
X97033333Y-41626200D02*
X97414285Y-41816676D01*
X97414285Y-41816676D02*
X98366666Y-41816676D01*
X98366666Y-41816676D02*
X98747619Y-41626200D01*
X98747619Y-41626200D02*
X98938095Y-41245247D01*
X98938095Y-41245247D02*
X98938095Y-40864295D01*
X98938095Y-40864295D02*
X98747619Y-40483342D01*
X98747619Y-40483342D02*
X98366666Y-40292866D01*
X98366666Y-40292866D02*
X97414285Y-40292866D01*
X97414285Y-40292866D02*
X97033333Y-40102390D01*
X93414285Y-41626200D02*
X93795237Y-41816676D01*
X93795237Y-41816676D02*
X94557142Y-41816676D01*
X94557142Y-41816676D02*
X94938094Y-41626200D01*
X94938094Y-41626200D02*
X95128571Y-41435723D01*
X95128571Y-41435723D02*
X95319047Y-41054771D01*
X95319047Y-41054771D02*
X95319047Y-39911914D01*
X95319047Y-39911914D02*
X95128571Y-39530961D01*
X95128571Y-39530961D02*
X94938094Y-39340485D01*
X94938094Y-39340485D02*
X94557142Y-39150009D01*
X94557142Y-39150009D02*
X93795237Y-39150009D01*
X93795237Y-39150009D02*
X93414285Y-39340485D01*
X90176190Y-41626200D02*
X90557142Y-41816676D01*
X90557142Y-41816676D02*
X91319047Y-41816676D01*
X91319047Y-41816676D02*
X91700000Y-41626200D01*
X91700000Y-41626200D02*
X91890476Y-41245247D01*
X91890476Y-41245247D02*
X91890476Y-39721438D01*
X91890476Y-39721438D02*
X91700000Y-39340485D01*
X91700000Y-39340485D02*
X91319047Y-39150009D01*
X91319047Y-39150009D02*
X90557142Y-39150009D01*
X90557142Y-39150009D02*
X90176190Y-39340485D01*
X90176190Y-39340485D02*
X89985714Y-39721438D01*
X89985714Y-39721438D02*
X89985714Y-40102390D01*
X89985714Y-40102390D02*
X91890476Y-40483342D01*
X83319048Y-41816676D02*
X85223810Y-41816676D01*
X85223810Y-41816676D02*
X85223810Y-37816676D01*
X80271429Y-41816676D02*
X80271429Y-39721438D01*
X80271429Y-39721438D02*
X80461905Y-39340485D01*
X80461905Y-39340485D02*
X80842857Y-39150009D01*
X80842857Y-39150009D02*
X81604762Y-39150009D01*
X81604762Y-39150009D02*
X81985715Y-39340485D01*
X80271429Y-41626200D02*
X80652381Y-41816676D01*
X80652381Y-41816676D02*
X81604762Y-41816676D01*
X81604762Y-41816676D02*
X81985715Y-41626200D01*
X81985715Y-41626200D02*
X82176191Y-41245247D01*
X82176191Y-41245247D02*
X82176191Y-40864295D01*
X82176191Y-40864295D02*
X81985715Y-40483342D01*
X81985715Y-40483342D02*
X81604762Y-40292866D01*
X81604762Y-40292866D02*
X80652381Y-40292866D01*
X80652381Y-40292866D02*
X80271429Y-40102390D01*
X78366667Y-41816676D02*
X78366667Y-37816676D01*
X78366667Y-39340485D02*
X77985714Y-39150009D01*
X77985714Y-39150009D02*
X77223809Y-39150009D01*
X77223809Y-39150009D02*
X76842857Y-39340485D01*
X76842857Y-39340485D02*
X76652381Y-39530961D01*
X76652381Y-39530961D02*
X76461905Y-39911914D01*
X76461905Y-39911914D02*
X76461905Y-41054771D01*
X76461905Y-41054771D02*
X76652381Y-41435723D01*
X76652381Y-41435723D02*
X76842857Y-41626200D01*
X76842857Y-41626200D02*
X77223809Y-41816676D01*
X77223809Y-41816676D02*
X77985714Y-41816676D01*
X77985714Y-41816676D02*
X78366667Y-41626200D01*
X74938095Y-41626200D02*
X74557142Y-41816676D01*
X74557142Y-41816676D02*
X73795238Y-41816676D01*
X73795238Y-41816676D02*
X73414285Y-41626200D01*
X73414285Y-41626200D02*
X73223809Y-41245247D01*
X73223809Y-41245247D02*
X73223809Y-41054771D01*
X73223809Y-41054771D02*
X73414285Y-40673819D01*
X73414285Y-40673819D02*
X73795238Y-40483342D01*
X73795238Y-40483342D02*
X74366666Y-40483342D01*
X74366666Y-40483342D02*
X74747619Y-40292866D01*
X74747619Y-40292866D02*
X74938095Y-39911914D01*
X74938095Y-39911914D02*
X74938095Y-39721438D01*
X74938095Y-39721438D02*
X74747619Y-39340485D01*
X74747619Y-39340485D02*
X74366666Y-39150009D01*
X74366666Y-39150009D02*
X73795238Y-39150009D01*
X73795238Y-39150009D02*
X73414285Y-39340485D01*
D12*
X110699999Y-53234114D02*
X110699999Y-47234114D01*
X110699999Y-47234114D02*
X108414285Y-47234114D01*
X108414285Y-47234114D02*
X107842856Y-47519828D01*
X107842856Y-47519828D02*
X107557142Y-47805542D01*
X107557142Y-47805542D02*
X107271428Y-48376971D01*
X107271428Y-48376971D02*
X107271428Y-49234114D01*
X107271428Y-49234114D02*
X107557142Y-49805542D01*
X107557142Y-49805542D02*
X107842856Y-50091257D01*
X107842856Y-50091257D02*
X108414285Y-50376971D01*
X108414285Y-50376971D02*
X110699999Y-50376971D01*
X102699999Y-50091257D02*
X101842856Y-50376971D01*
X101842856Y-50376971D02*
X101557142Y-50662685D01*
X101557142Y-50662685D02*
X101271428Y-51234114D01*
X101271428Y-51234114D02*
X101271428Y-52091257D01*
X101271428Y-52091257D02*
X101557142Y-52662685D01*
X101557142Y-52662685D02*
X101842856Y-52948400D01*
X101842856Y-52948400D02*
X102414285Y-53234114D01*
X102414285Y-53234114D02*
X104699999Y-53234114D01*
X104699999Y-53234114D02*
X104699999Y-47234114D01*
X104699999Y-47234114D02*
X102699999Y-47234114D01*
X102699999Y-47234114D02*
X102128571Y-47519828D01*
X102128571Y-47519828D02*
X101842856Y-47805542D01*
X101842856Y-47805542D02*
X101557142Y-48376971D01*
X101557142Y-48376971D02*
X101557142Y-48948400D01*
X101557142Y-48948400D02*
X101842856Y-49519828D01*
X101842856Y-49519828D02*
X102128571Y-49805542D01*
X102128571Y-49805542D02*
X102699999Y-50091257D01*
X102699999Y-50091257D02*
X104699999Y-50091257D01*
X96985713Y-47234114D02*
X96985713Y-51519828D01*
X96985713Y-51519828D02*
X97271428Y-52376971D01*
X97271428Y-52376971D02*
X97842856Y-52948400D01*
X97842856Y-52948400D02*
X98699999Y-53234114D01*
X98699999Y-53234114D02*
X99271428Y-53234114D01*
X89557141Y-50091257D02*
X87557141Y-50091257D01*
X86699998Y-53234114D02*
X89557141Y-53234114D01*
X89557141Y-53234114D02*
X89557141Y-47234114D01*
X89557141Y-47234114D02*
X86699998Y-47234114D01*
X84128570Y-47234114D02*
X84128570Y-52091257D01*
X84128570Y-52091257D02*
X83842856Y-52662685D01*
X83842856Y-52662685D02*
X83557142Y-52948400D01*
X83557142Y-52948400D02*
X82985713Y-53234114D01*
X82985713Y-53234114D02*
X81842856Y-53234114D01*
X81842856Y-53234114D02*
X81271427Y-52948400D01*
X81271427Y-52948400D02*
X80985713Y-52662685D01*
X80985713Y-52662685D02*
X80699999Y-52091257D01*
X80699999Y-52091257D02*
X80699999Y-47234114D01*
D13*
X114866666Y-57824193D02*
X114033333Y-57824193D01*
X113676190Y-59133717D02*
X114866666Y-59133717D01*
X114866666Y-59133717D02*
X114866666Y-56633717D01*
X114866666Y-56633717D02*
X113676190Y-56633717D01*
X111533333Y-57467050D02*
X111533333Y-59133717D01*
X112604761Y-57467050D02*
X112604761Y-58776574D01*
X112604761Y-58776574D02*
X112485714Y-59014670D01*
X112485714Y-59014670D02*
X112247619Y-59133717D01*
X112247619Y-59133717D02*
X111890476Y-59133717D01*
X111890476Y-59133717D02*
X111652380Y-59014670D01*
X111652380Y-59014670D02*
X111533333Y-58895622D01*
X110342856Y-59133717D02*
X110342856Y-57467050D01*
X110342856Y-57943241D02*
X110223809Y-57705146D01*
X110223809Y-57705146D02*
X110104761Y-57586098D01*
X110104761Y-57586098D02*
X109866666Y-57467050D01*
X109866666Y-57467050D02*
X109628571Y-57467050D01*
X108438095Y-59133717D02*
X108676190Y-59014670D01*
X108676190Y-59014670D02*
X108795237Y-58895622D01*
X108795237Y-58895622D02*
X108914285Y-58657527D01*
X108914285Y-58657527D02*
X108914285Y-57943241D01*
X108914285Y-57943241D02*
X108795237Y-57705146D01*
X108795237Y-57705146D02*
X108676190Y-57586098D01*
X108676190Y-57586098D02*
X108438095Y-57467050D01*
X108438095Y-57467050D02*
X108080952Y-57467050D01*
X108080952Y-57467050D02*
X107842856Y-57586098D01*
X107842856Y-57586098D02*
X107723809Y-57705146D01*
X107723809Y-57705146D02*
X107604761Y-57943241D01*
X107604761Y-57943241D02*
X107604761Y-58657527D01*
X107604761Y-58657527D02*
X107723809Y-58895622D01*
X107723809Y-58895622D02*
X107842856Y-59014670D01*
X107842856Y-59014670D02*
X108080952Y-59133717D01*
X108080952Y-59133717D02*
X108438095Y-59133717D01*
X106533332Y-59133717D02*
X106533332Y-57467050D01*
X106533332Y-57943241D02*
X106414285Y-57705146D01*
X106414285Y-57705146D02*
X106295237Y-57586098D01*
X106295237Y-57586098D02*
X106057142Y-57467050D01*
X106057142Y-57467050D02*
X105819047Y-57467050D01*
X103914285Y-59133717D02*
X103914285Y-57824193D01*
X103914285Y-57824193D02*
X104033332Y-57586098D01*
X104033332Y-57586098D02*
X104271428Y-57467050D01*
X104271428Y-57467050D02*
X104747618Y-57467050D01*
X104747618Y-57467050D02*
X104985713Y-57586098D01*
X103914285Y-59014670D02*
X104152380Y-59133717D01*
X104152380Y-59133717D02*
X104747618Y-59133717D01*
X104747618Y-59133717D02*
X104985713Y-59014670D01*
X104985713Y-59014670D02*
X105104761Y-58776574D01*
X105104761Y-58776574D02*
X105104761Y-58538479D01*
X105104761Y-58538479D02*
X104985713Y-58300384D01*
X104985713Y-58300384D02*
X104747618Y-58181336D01*
X104747618Y-58181336D02*
X104152380Y-58181336D01*
X104152380Y-58181336D02*
X103914285Y-58062289D01*
X101652380Y-59014670D02*
X101890475Y-59133717D01*
X101890475Y-59133717D02*
X102366666Y-59133717D01*
X102366666Y-59133717D02*
X102604761Y-59014670D01*
X102604761Y-59014670D02*
X102723808Y-58895622D01*
X102723808Y-58895622D02*
X102842856Y-58657527D01*
X102842856Y-58657527D02*
X102842856Y-57943241D01*
X102842856Y-57943241D02*
X102723808Y-57705146D01*
X102723808Y-57705146D02*
X102604761Y-57586098D01*
X102604761Y-57586098D02*
X102366666Y-57467050D01*
X102366666Y-57467050D02*
X101890475Y-57467050D01*
X101890475Y-57467050D02*
X101652380Y-57586098D01*
X100580951Y-59133717D02*
X100580951Y-56633717D01*
X100342856Y-58181336D02*
X99628570Y-59133717D01*
X99628570Y-57467050D02*
X100580951Y-58419431D01*
X96771427Y-59014670D02*
X96414284Y-59133717D01*
X96414284Y-59133717D02*
X95819046Y-59133717D01*
X95819046Y-59133717D02*
X95580951Y-59014670D01*
X95580951Y-59014670D02*
X95461903Y-58895622D01*
X95461903Y-58895622D02*
X95342856Y-58657527D01*
X95342856Y-58657527D02*
X95342856Y-58419431D01*
X95342856Y-58419431D02*
X95461903Y-58181336D01*
X95461903Y-58181336D02*
X95580951Y-58062289D01*
X95580951Y-58062289D02*
X95819046Y-57943241D01*
X95819046Y-57943241D02*
X96295237Y-57824193D01*
X96295237Y-57824193D02*
X96533332Y-57705146D01*
X96533332Y-57705146D02*
X96652379Y-57586098D01*
X96652379Y-57586098D02*
X96771427Y-57348003D01*
X96771427Y-57348003D02*
X96771427Y-57109908D01*
X96771427Y-57109908D02*
X96652379Y-56871812D01*
X96652379Y-56871812D02*
X96533332Y-56752765D01*
X96533332Y-56752765D02*
X96295237Y-56633717D01*
X96295237Y-56633717D02*
X95699998Y-56633717D01*
X95699998Y-56633717D02*
X95342856Y-56752765D01*
X94509523Y-57467050D02*
X93914285Y-59133717D01*
X93319046Y-57467050D02*
X93914285Y-59133717D01*
X93914285Y-59133717D02*
X94152380Y-59728955D01*
X94152380Y-59728955D02*
X94271427Y-59848003D01*
X94271427Y-59848003D02*
X94509523Y-59967050D01*
X92366665Y-57467050D02*
X92366665Y-59133717D01*
X92366665Y-57705146D02*
X92247618Y-57586098D01*
X92247618Y-57586098D02*
X92009523Y-57467050D01*
X92009523Y-57467050D02*
X91652380Y-57467050D01*
X91652380Y-57467050D02*
X91414284Y-57586098D01*
X91414284Y-57586098D02*
X91295237Y-57824193D01*
X91295237Y-57824193D02*
X91295237Y-59133717D01*
X90461903Y-57467050D02*
X89509522Y-57467050D01*
X90104760Y-56633717D02*
X90104760Y-58776574D01*
X90104760Y-58776574D02*
X89985713Y-59014670D01*
X89985713Y-59014670D02*
X89747618Y-59133717D01*
X89747618Y-59133717D02*
X89509522Y-59133717D01*
X88676189Y-59133717D02*
X88676189Y-56633717D01*
X87604761Y-59133717D02*
X87604761Y-57824193D01*
X87604761Y-57824193D02*
X87723808Y-57586098D01*
X87723808Y-57586098D02*
X87961904Y-57467050D01*
X87961904Y-57467050D02*
X88319047Y-57467050D01*
X88319047Y-57467050D02*
X88557142Y-57586098D01*
X88557142Y-57586098D02*
X88676189Y-57705146D01*
X85461903Y-59014670D02*
X85699999Y-59133717D01*
X85699999Y-59133717D02*
X86176189Y-59133717D01*
X86176189Y-59133717D02*
X86414284Y-59014670D01*
X86414284Y-59014670D02*
X86533332Y-58776574D01*
X86533332Y-58776574D02*
X86533332Y-57824193D01*
X86533332Y-57824193D02*
X86414284Y-57586098D01*
X86414284Y-57586098D02*
X86176189Y-57467050D01*
X86176189Y-57467050D02*
X85699999Y-57467050D01*
X85699999Y-57467050D02*
X85461903Y-57586098D01*
X85461903Y-57586098D02*
X85342856Y-57824193D01*
X85342856Y-57824193D02*
X85342856Y-58062289D01*
X85342856Y-58062289D02*
X86533332Y-58300384D01*
X84390475Y-59014670D02*
X84152380Y-59133717D01*
X84152380Y-59133717D02*
X83676189Y-59133717D01*
X83676189Y-59133717D02*
X83438094Y-59014670D01*
X83438094Y-59014670D02*
X83319046Y-58776574D01*
X83319046Y-58776574D02*
X83319046Y-58657527D01*
X83319046Y-58657527D02*
X83438094Y-58419431D01*
X83438094Y-58419431D02*
X83676189Y-58300384D01*
X83676189Y-58300384D02*
X84033332Y-58300384D01*
X84033332Y-58300384D02*
X84271427Y-58181336D01*
X84271427Y-58181336D02*
X84390475Y-57943241D01*
X84390475Y-57943241D02*
X84390475Y-57824193D01*
X84390475Y-57824193D02*
X84271427Y-57586098D01*
X84271427Y-57586098D02*
X84033332Y-57467050D01*
X84033332Y-57467050D02*
X83676189Y-57467050D01*
X83676189Y-57467050D02*
X83438094Y-57586098D01*
X82247617Y-59133717D02*
X82247617Y-57467050D01*
X82247617Y-56633717D02*
X82366665Y-56752765D01*
X82366665Y-56752765D02*
X82247617Y-56871812D01*
X82247617Y-56871812D02*
X82128570Y-56752765D01*
X82128570Y-56752765D02*
X82247617Y-56633717D01*
X82247617Y-56633717D02*
X82247617Y-56871812D01*
X81295237Y-57467050D02*
X79985713Y-57467050D01*
X79985713Y-57467050D02*
X81295237Y-59133717D01*
X81295237Y-59133717D02*
X79985713Y-59133717D01*
X78080950Y-59014670D02*
X78319046Y-59133717D01*
X78319046Y-59133717D02*
X78795236Y-59133717D01*
X78795236Y-59133717D02*
X79033331Y-59014670D01*
X79033331Y-59014670D02*
X79152379Y-58776574D01*
X79152379Y-58776574D02*
X79152379Y-57824193D01*
X79152379Y-57824193D02*
X79033331Y-57586098D01*
X79033331Y-57586098D02*
X78795236Y-57467050D01*
X78795236Y-57467050D02*
X78319046Y-57467050D01*
X78319046Y-57467050D02*
X78080950Y-57586098D01*
X78080950Y-57586098D02*
X77961903Y-57824193D01*
X77961903Y-57824193D02*
X77961903Y-58062289D01*
X77961903Y-58062289D02*
X79152379Y-58300384D01*
X76890474Y-59133717D02*
X76890474Y-57467050D01*
X76890474Y-57943241D02*
X76771427Y-57705146D01*
X76771427Y-57705146D02*
X76652379Y-57586098D01*
X76652379Y-57586098D02*
X76414284Y-57467050D01*
X76414284Y-57467050D02*
X76176189Y-57467050D01*
X113319046Y-63158577D02*
X113319046Y-60658577D01*
X113319046Y-60658577D02*
X112366665Y-60658577D01*
X112366665Y-60658577D02*
X112128570Y-60777625D01*
X112128570Y-60777625D02*
X112009523Y-60896672D01*
X112009523Y-60896672D02*
X111890475Y-61134768D01*
X111890475Y-61134768D02*
X111890475Y-61491910D01*
X111890475Y-61491910D02*
X112009523Y-61730006D01*
X112009523Y-61730006D02*
X112128570Y-61849053D01*
X112128570Y-61849053D02*
X112366665Y-61968101D01*
X112366665Y-61968101D02*
X113319046Y-61968101D01*
X110819046Y-63158577D02*
X110819046Y-61491910D01*
X110819046Y-61968101D02*
X110699999Y-61730006D01*
X110699999Y-61730006D02*
X110580951Y-61610958D01*
X110580951Y-61610958D02*
X110342856Y-61491910D01*
X110342856Y-61491910D02*
X110104761Y-61491910D01*
X108914285Y-63158577D02*
X109152380Y-63039530D01*
X109152380Y-63039530D02*
X109271427Y-62920482D01*
X109271427Y-62920482D02*
X109390475Y-62682387D01*
X109390475Y-62682387D02*
X109390475Y-61968101D01*
X109390475Y-61968101D02*
X109271427Y-61730006D01*
X109271427Y-61730006D02*
X109152380Y-61610958D01*
X109152380Y-61610958D02*
X108914285Y-61491910D01*
X108914285Y-61491910D02*
X108557142Y-61491910D01*
X108557142Y-61491910D02*
X108319046Y-61610958D01*
X108319046Y-61610958D02*
X108199999Y-61730006D01*
X108199999Y-61730006D02*
X108080951Y-61968101D01*
X108080951Y-61968101D02*
X108080951Y-62682387D01*
X108080951Y-62682387D02*
X108199999Y-62920482D01*
X108199999Y-62920482D02*
X108319046Y-63039530D01*
X108319046Y-63039530D02*
X108557142Y-63158577D01*
X108557142Y-63158577D02*
X108914285Y-63158577D01*
X107366665Y-61491910D02*
X106414284Y-61491910D01*
X107009522Y-60658577D02*
X107009522Y-62801434D01*
X107009522Y-62801434D02*
X106890475Y-63039530D01*
X106890475Y-63039530D02*
X106652380Y-63158577D01*
X106652380Y-63158577D02*
X106414284Y-63158577D01*
X105223809Y-63158577D02*
X105461904Y-63039530D01*
X105461904Y-63039530D02*
X105580951Y-62920482D01*
X105580951Y-62920482D02*
X105699999Y-62682387D01*
X105699999Y-62682387D02*
X105699999Y-61968101D01*
X105699999Y-61968101D02*
X105580951Y-61730006D01*
X105580951Y-61730006D02*
X105461904Y-61610958D01*
X105461904Y-61610958D02*
X105223809Y-61491910D01*
X105223809Y-61491910D02*
X104866666Y-61491910D01*
X104866666Y-61491910D02*
X104628570Y-61610958D01*
X104628570Y-61610958D02*
X104509523Y-61730006D01*
X104509523Y-61730006D02*
X104390475Y-61968101D01*
X104390475Y-61968101D02*
X104390475Y-62682387D01*
X104390475Y-62682387D02*
X104509523Y-62920482D01*
X104509523Y-62920482D02*
X104628570Y-63039530D01*
X104628570Y-63039530D02*
X104866666Y-63158577D01*
X104866666Y-63158577D02*
X105223809Y-63158577D01*
X103676189Y-61491910D02*
X102723808Y-61491910D01*
X103319046Y-60658577D02*
X103319046Y-62801434D01*
X103319046Y-62801434D02*
X103199999Y-63039530D01*
X103199999Y-63039530D02*
X102961904Y-63158577D01*
X102961904Y-63158577D02*
X102723808Y-63158577D01*
X102128571Y-61491910D02*
X101533333Y-63158577D01*
X100938094Y-61491910D02*
X101533333Y-63158577D01*
X101533333Y-63158577D02*
X101771428Y-63753815D01*
X101771428Y-63753815D02*
X101890475Y-63872863D01*
X101890475Y-63872863D02*
X102128571Y-63991910D01*
X99985713Y-61491910D02*
X99985713Y-63991910D01*
X99985713Y-61610958D02*
X99747618Y-61491910D01*
X99747618Y-61491910D02*
X99271428Y-61491910D01*
X99271428Y-61491910D02*
X99033332Y-61610958D01*
X99033332Y-61610958D02*
X98914285Y-61730006D01*
X98914285Y-61730006D02*
X98795237Y-61968101D01*
X98795237Y-61968101D02*
X98795237Y-62682387D01*
X98795237Y-62682387D02*
X98914285Y-62920482D01*
X98914285Y-62920482D02*
X99033332Y-63039530D01*
X99033332Y-63039530D02*
X99271428Y-63158577D01*
X99271428Y-63158577D02*
X99747618Y-63158577D01*
X99747618Y-63158577D02*
X99985713Y-63039530D01*
X97723808Y-63158577D02*
X97723808Y-61491910D01*
X97723808Y-60658577D02*
X97842856Y-60777625D01*
X97842856Y-60777625D02*
X97723808Y-60896672D01*
X97723808Y-60896672D02*
X97604761Y-60777625D01*
X97604761Y-60777625D02*
X97723808Y-60658577D01*
X97723808Y-60658577D02*
X97723808Y-60896672D01*
X96533332Y-61491910D02*
X96533332Y-63158577D01*
X96533332Y-61730006D02*
X96414285Y-61610958D01*
X96414285Y-61610958D02*
X96176190Y-61491910D01*
X96176190Y-61491910D02*
X95819047Y-61491910D01*
X95819047Y-61491910D02*
X95580951Y-61610958D01*
X95580951Y-61610958D02*
X95461904Y-61849053D01*
X95461904Y-61849053D02*
X95461904Y-63158577D01*
X93199999Y-61491910D02*
X93199999Y-63515720D01*
X93199999Y-63515720D02*
X93319046Y-63753815D01*
X93319046Y-63753815D02*
X93438094Y-63872863D01*
X93438094Y-63872863D02*
X93676189Y-63991910D01*
X93676189Y-63991910D02*
X94033332Y-63991910D01*
X94033332Y-63991910D02*
X94271427Y-63872863D01*
X93199999Y-63039530D02*
X93438094Y-63158577D01*
X93438094Y-63158577D02*
X93914285Y-63158577D01*
X93914285Y-63158577D02*
X94152380Y-63039530D01*
X94152380Y-63039530D02*
X94271427Y-62920482D01*
X94271427Y-62920482D02*
X94390475Y-62682387D01*
X94390475Y-62682387D02*
X94390475Y-61968101D01*
X94390475Y-61968101D02*
X94271427Y-61730006D01*
X94271427Y-61730006D02*
X94152380Y-61610958D01*
X94152380Y-61610958D02*
X93914285Y-61491910D01*
X93914285Y-61491910D02*
X93438094Y-61491910D01*
X93438094Y-61491910D02*
X93199999Y-61610958D01*
X90223808Y-63039530D02*
X89866665Y-63158577D01*
X89866665Y-63158577D02*
X89271427Y-63158577D01*
X89271427Y-63158577D02*
X89033332Y-63039530D01*
X89033332Y-63039530D02*
X88914284Y-62920482D01*
X88914284Y-62920482D02*
X88795237Y-62682387D01*
X88795237Y-62682387D02*
X88795237Y-62444291D01*
X88795237Y-62444291D02*
X88914284Y-62206196D01*
X88914284Y-62206196D02*
X89033332Y-62087149D01*
X89033332Y-62087149D02*
X89271427Y-61968101D01*
X89271427Y-61968101D02*
X89747618Y-61849053D01*
X89747618Y-61849053D02*
X89985713Y-61730006D01*
X89985713Y-61730006D02*
X90104760Y-61610958D01*
X90104760Y-61610958D02*
X90223808Y-61372863D01*
X90223808Y-61372863D02*
X90223808Y-61134768D01*
X90223808Y-61134768D02*
X90104760Y-60896672D01*
X90104760Y-60896672D02*
X89985713Y-60777625D01*
X89985713Y-60777625D02*
X89747618Y-60658577D01*
X89747618Y-60658577D02*
X89152379Y-60658577D01*
X89152379Y-60658577D02*
X88795237Y-60777625D01*
X87961904Y-61491910D02*
X87366666Y-63158577D01*
X86771427Y-61491910D02*
X87366666Y-63158577D01*
X87366666Y-63158577D02*
X87604761Y-63753815D01*
X87604761Y-63753815D02*
X87723808Y-63872863D01*
X87723808Y-63872863D02*
X87961904Y-63991910D01*
X85938094Y-63039530D02*
X85699999Y-63158577D01*
X85699999Y-63158577D02*
X85223808Y-63158577D01*
X85223808Y-63158577D02*
X84985713Y-63039530D01*
X84985713Y-63039530D02*
X84866665Y-62801434D01*
X84866665Y-62801434D02*
X84866665Y-62682387D01*
X84866665Y-62682387D02*
X84985713Y-62444291D01*
X84985713Y-62444291D02*
X85223808Y-62325244D01*
X85223808Y-62325244D02*
X85580951Y-62325244D01*
X85580951Y-62325244D02*
X85819046Y-62206196D01*
X85819046Y-62206196D02*
X85938094Y-61968101D01*
X85938094Y-61968101D02*
X85938094Y-61849053D01*
X85938094Y-61849053D02*
X85819046Y-61610958D01*
X85819046Y-61610958D02*
X85580951Y-61491910D01*
X85580951Y-61491910D02*
X85223808Y-61491910D01*
X85223808Y-61491910D02*
X84985713Y-61610958D01*
X84152379Y-61491910D02*
X83199998Y-61491910D01*
X83795236Y-60658577D02*
X83795236Y-62801434D01*
X83795236Y-62801434D02*
X83676189Y-63039530D01*
X83676189Y-63039530D02*
X83438094Y-63158577D01*
X83438094Y-63158577D02*
X83199998Y-63158577D01*
X81414284Y-63039530D02*
X81652380Y-63158577D01*
X81652380Y-63158577D02*
X82128570Y-63158577D01*
X82128570Y-63158577D02*
X82366665Y-63039530D01*
X82366665Y-63039530D02*
X82485713Y-62801434D01*
X82485713Y-62801434D02*
X82485713Y-61849053D01*
X82485713Y-61849053D02*
X82366665Y-61610958D01*
X82366665Y-61610958D02*
X82128570Y-61491910D01*
X82128570Y-61491910D02*
X81652380Y-61491910D01*
X81652380Y-61491910D02*
X81414284Y-61610958D01*
X81414284Y-61610958D02*
X81295237Y-61849053D01*
X81295237Y-61849053D02*
X81295237Y-62087149D01*
X81295237Y-62087149D02*
X82485713Y-62325244D01*
X80223808Y-63158577D02*
X80223808Y-61491910D01*
X80223808Y-61730006D02*
X80104761Y-61610958D01*
X80104761Y-61610958D02*
X79866666Y-61491910D01*
X79866666Y-61491910D02*
X79509523Y-61491910D01*
X79509523Y-61491910D02*
X79271427Y-61610958D01*
X79271427Y-61610958D02*
X79152380Y-61849053D01*
X79152380Y-61849053D02*
X79152380Y-63158577D01*
X79152380Y-61849053D02*
X79033332Y-61610958D01*
X79033332Y-61610958D02*
X78795237Y-61491910D01*
X78795237Y-61491910D02*
X78438094Y-61491910D01*
X78438094Y-61491910D02*
X78199999Y-61610958D01*
X78199999Y-61610958D02*
X78080951Y-61849053D01*
X78080951Y-61849053D02*
X78080951Y-63158577D01*
D14*
X112352380Y-155361500D02*
X111995237Y-155480547D01*
X111995237Y-155480547D02*
X111399999Y-155480547D01*
X111399999Y-155480547D02*
X111161904Y-155361500D01*
X111161904Y-155361500D02*
X111042856Y-155242452D01*
X111042856Y-155242452D02*
X110923809Y-155004357D01*
X110923809Y-155004357D02*
X110923809Y-154766261D01*
X110923809Y-154766261D02*
X111042856Y-154528166D01*
X111042856Y-154528166D02*
X111161904Y-154409119D01*
X111161904Y-154409119D02*
X111399999Y-154290071D01*
X111399999Y-154290071D02*
X111876190Y-154171023D01*
X111876190Y-154171023D02*
X112114285Y-154051976D01*
X112114285Y-154051976D02*
X112233332Y-153932928D01*
X112233332Y-153932928D02*
X112352380Y-153694833D01*
X112352380Y-153694833D02*
X112352380Y-153456738D01*
X112352380Y-153456738D02*
X112233332Y-153218642D01*
X112233332Y-153218642D02*
X112114285Y-153099595D01*
X112114285Y-153099595D02*
X111876190Y-152980547D01*
X111876190Y-152980547D02*
X111280951Y-152980547D01*
X111280951Y-152980547D02*
X110923809Y-153099595D01*
X108066666Y-152861500D02*
X110209523Y-156075785D01*
X107233332Y-155480547D02*
X107233332Y-152980547D01*
X107233332Y-152980547D02*
X105804761Y-155480547D01*
X105804761Y-155480547D02*
X105804761Y-152980547D01*
X101399999Y-155480547D02*
X102828570Y-155480547D01*
X102114284Y-155480547D02*
X102114284Y-152980547D01*
X102114284Y-152980547D02*
X102352380Y-153337690D01*
X102352380Y-153337690D02*
X102590475Y-153575785D01*
X102590475Y-153575785D02*
X102828570Y-153694833D01*
X99852380Y-152980547D02*
X99614285Y-152980547D01*
X99614285Y-152980547D02*
X99376189Y-153099595D01*
X99376189Y-153099595D02*
X99257142Y-153218642D01*
X99257142Y-153218642D02*
X99138094Y-153456738D01*
X99138094Y-153456738D02*
X99019047Y-153932928D01*
X99019047Y-153932928D02*
X99019047Y-154528166D01*
X99019047Y-154528166D02*
X99138094Y-155004357D01*
X99138094Y-155004357D02*
X99257142Y-155242452D01*
X99257142Y-155242452D02*
X99376189Y-155361500D01*
X99376189Y-155361500D02*
X99614285Y-155480547D01*
X99614285Y-155480547D02*
X99852380Y-155480547D01*
X99852380Y-155480547D02*
X100090475Y-155361500D01*
X100090475Y-155361500D02*
X100209523Y-155242452D01*
X100209523Y-155242452D02*
X100328570Y-155004357D01*
X100328570Y-155004357D02*
X100447618Y-154528166D01*
X100447618Y-154528166D02*
X100447618Y-153932928D01*
X100447618Y-153932928D02*
X100328570Y-153456738D01*
X100328570Y-153456738D02*
X100209523Y-153218642D01*
X100209523Y-153218642D02*
X100090475Y-153099595D01*
X100090475Y-153099595D02*
X99852380Y-152980547D01*
X97947618Y-155242452D02*
X97828571Y-155361500D01*
X97828571Y-155361500D02*
X97947618Y-155480547D01*
X97947618Y-155480547D02*
X98066666Y-155361500D01*
X98066666Y-155361500D02*
X97947618Y-155242452D01*
X97947618Y-155242452D02*
X97947618Y-155480547D01*
X95685714Y-153813880D02*
X95685714Y-155480547D01*
X96280952Y-152861500D02*
X96876190Y-154647214D01*
X96876190Y-154647214D02*
X95328571Y-154647214D01*
D15*
X89124819Y-132136666D02*
X89839104Y-132136666D01*
X89839104Y-132136666D02*
X89981961Y-132089047D01*
X89981961Y-132089047D02*
X90077200Y-131993809D01*
X90077200Y-131993809D02*
X90124819Y-131850952D01*
X90124819Y-131850952D02*
X90124819Y-131755714D01*
X90124819Y-133136666D02*
X90124819Y-132565238D01*
X90124819Y-132850952D02*
X89124819Y-132850952D01*
X89124819Y-132850952D02*
X89267676Y-132755714D01*
X89267676Y-132755714D02*
X89362914Y-132660476D01*
X89362914Y-132660476D02*
X89410533Y-132565238D01*
D16*
X91110000Y-135070000D02*
X91110000Y-129870000D01*
X91680000Y-129870000D02*
X91110000Y-129870000D01*
X91680000Y-135070000D02*
X91110000Y-135070000D01*
X91680000Y-136430000D02*
X91680000Y-135070000D01*
X94220000Y-129870000D02*
X93200000Y-129870000D01*
X94220000Y-135070000D02*
X93200000Y-135070000D01*
X96760000Y-129870000D02*
X95740000Y-129870000D01*
X96760000Y-135070000D02*
X95740000Y-135070000D01*
X99300000Y-129870000D02*
X98280000Y-129870000D01*
X99300000Y-135070000D02*
X98280000Y-135070000D01*
X101840000Y-129870000D02*
X100820000Y-129870000D01*
X101840000Y-135070000D02*
X100820000Y-135070000D01*
X104380000Y-129870000D02*
X103360000Y-129870000D01*
X104380000Y-135070000D02*
X103360000Y-135070000D01*
X106470000Y-129870000D02*
X105900000Y-129870000D01*
X106470000Y-135070000D02*
X105900000Y-135070000D01*
X106470000Y-135070000D02*
X106470000Y-129870000D01*
D17*
X92311501Y-73626476D02*
X92392167Y-73656440D01*
X92425714Y-73678954D01*
X92459687Y-73711212D01*
X92483919Y-73752246D01*
X92500001Y-73808108D01*
X92509521Y-73884851D01*
X92514068Y-73988525D01*
X92515231Y-74125184D01*
X92515003Y-74195805D01*
X92513860Y-74292308D01*
X92511919Y-74369323D01*
X92509365Y-74420319D01*
X92506381Y-74438769D01*
X92486962Y-74432667D01*
X92447766Y-74416095D01*
X92446589Y-74415558D01*
X92426235Y-74404903D01*
X92412546Y-74390282D01*
X92404199Y-74364673D01*
X92399874Y-74321054D01*
X92398248Y-74252403D01*
X92398000Y-74151698D01*
X92397500Y-74087813D01*
X92392164Y-73967751D01*
X92379945Y-73879809D01*
X92359552Y-73819375D01*
X92329695Y-73781836D01*
X92289082Y-73762581D01*
X92283448Y-73761239D01*
X92207378Y-73760191D01*
X92148052Y-73794271D01*
X92107077Y-73862598D01*
X92099770Y-73882351D01*
X92083114Y-73926066D01*
X92074679Y-73946155D01*
X92057356Y-73943387D01*
X92019525Y-73928365D01*
X91984240Y-73903556D01*
X91968154Y-73856670D01*
X91972952Y-73823087D01*
X92002431Y-73754967D01*
X92050098Y-73691134D01*
X92105839Y-73646988D01*
X92129193Y-73636782D01*
X92217619Y-73619718D01*
X92311501Y-73626476D01*
G36*
X92311501Y-73626476D02*
G01*
X92392167Y-73656440D01*
X92425714Y-73678954D01*
X92459687Y-73711212D01*
X92483919Y-73752246D01*
X92500001Y-73808108D01*
X92509521Y-73884851D01*
X92514068Y-73988525D01*
X92515231Y-74125184D01*
X92515003Y-74195805D01*
X92513860Y-74292308D01*
X92511919Y-74369323D01*
X92509365Y-74420319D01*
X92506381Y-74438769D01*
X92486962Y-74432667D01*
X92447766Y-74416095D01*
X92446589Y-74415558D01*
X92426235Y-74404903D01*
X92412546Y-74390282D01*
X92404199Y-74364673D01*
X92399874Y-74321054D01*
X92398248Y-74252403D01*
X92398000Y-74151698D01*
X92397500Y-74087813D01*
X92392164Y-73967751D01*
X92379945Y-73879809D01*
X92359552Y-73819375D01*
X92329695Y-73781836D01*
X92289082Y-73762581D01*
X92283448Y-73761239D01*
X92207378Y-73760191D01*
X92148052Y-73794271D01*
X92107077Y-73862598D01*
X92099770Y-73882351D01*
X92083114Y-73926066D01*
X92074679Y-73946155D01*
X92057356Y-73943387D01*
X92019525Y-73928365D01*
X91984240Y-73903556D01*
X91968154Y-73856670D01*
X91972952Y-73823087D01*
X92002431Y-73754967D01*
X92050098Y-73691134D01*
X92105839Y-73646988D01*
X92129193Y-73636782D01*
X92217619Y-73619718D01*
X92311501Y-73626476D01*
G37*
X97626372Y-73581684D02*
X97717629Y-73624569D01*
X97792416Y-73698729D01*
X97807917Y-73721944D01*
X97820774Y-73748256D01*
X97829893Y-73781420D01*
X97836102Y-73827881D01*
X97840233Y-73894082D01*
X97843116Y-73986468D01*
X97845579Y-74111485D01*
X97851697Y-74458278D01*
X97800303Y-74438738D01*
X97753246Y-74420787D01*
X97718015Y-74403511D01*
X97695017Y-74381242D01*
X97681655Y-74347165D01*
X97675328Y-74294463D01*
X97673437Y-74216323D01*
X97673385Y-74105928D01*
X97673117Y-74017935D01*
X97671521Y-73933502D01*
X97667712Y-73875834D01*
X97660820Y-73837988D01*
X97649975Y-73813024D01*
X97634308Y-73794000D01*
X97595792Y-73767153D01*
X97531091Y-73757034D01*
X97467081Y-73782606D01*
X97462856Y-73785880D01*
X97449689Y-73801007D01*
X97439975Y-73825268D01*
X97432903Y-73864650D01*
X97427656Y-73925141D01*
X97423421Y-74012729D01*
X97419385Y-74133402D01*
X97409615Y-74456515D01*
X97243539Y-74382065D01*
X97243539Y-74087062D01*
X97243883Y-74006919D01*
X97246847Y-73895431D01*
X97254351Y-73812421D01*
X97268190Y-73751199D01*
X97290155Y-73705075D01*
X97322039Y-73667358D01*
X97365633Y-73631358D01*
X97428336Y-73595089D01*
X97527117Y-73571412D01*
X97626372Y-73581684D01*
G36*
X97626372Y-73581684D02*
G01*
X97717629Y-73624569D01*
X97792416Y-73698729D01*
X97807917Y-73721944D01*
X97820774Y-73748256D01*
X97829893Y-73781420D01*
X97836102Y-73827881D01*
X97840233Y-73894082D01*
X97843116Y-73986468D01*
X97845579Y-74111485D01*
X97851697Y-74458278D01*
X97800303Y-74438738D01*
X97753246Y-74420787D01*
X97718015Y-74403511D01*
X97695017Y-74381242D01*
X97681655Y-74347165D01*
X97675328Y-74294463D01*
X97673437Y-74216323D01*
X97673385Y-74105928D01*
X97673117Y-74017935D01*
X97671521Y-73933502D01*
X97667712Y-73875834D01*
X97660820Y-73837988D01*
X97649975Y-73813024D01*
X97634308Y-73794000D01*
X97595792Y-73767153D01*
X97531091Y-73757034D01*
X97467081Y-73782606D01*
X97462856Y-73785880D01*
X97449689Y-73801007D01*
X97439975Y-73825268D01*
X97432903Y-73864650D01*
X97427656Y-73925141D01*
X97423421Y-74012729D01*
X97419385Y-74133402D01*
X97409615Y-74456515D01*
X97243539Y-74382065D01*
X97243539Y-74087062D01*
X97243883Y-74006919D01*
X97246847Y-73895431D01*
X97254351Y-73812421D01*
X97268190Y-73751199D01*
X97290155Y-73705075D01*
X97322039Y-73667358D01*
X97365633Y-73631358D01*
X97428336Y-73595089D01*
X97527117Y-73571412D01*
X97626372Y-73581684D01*
G37*
X95171892Y-73647167D02*
X95178060Y-73650581D01*
X95228447Y-73689692D01*
X95273498Y-73739975D01*
X95281355Y-73751339D01*
X95296376Y-73777860D01*
X95307107Y-73809336D01*
X95314486Y-73852591D01*
X95319452Y-73914449D01*
X95322942Y-74001733D01*
X95325893Y-74121269D01*
X95326311Y-74141478D01*
X95327654Y-74272499D01*
X95325761Y-74365296D01*
X95320605Y-74420507D01*
X95312158Y-74438769D01*
X95286594Y-74433301D01*
X95243166Y-74416733D01*
X95232940Y-74411888D01*
X95216967Y-74400920D01*
X95205954Y-74382890D01*
X95198750Y-74351396D01*
X95194208Y-74300036D01*
X95191180Y-74222410D01*
X95188516Y-74112115D01*
X95187785Y-74079875D01*
X95184965Y-73978050D01*
X95181304Y-73906788D01*
X95175694Y-73859332D01*
X95167029Y-73828925D01*
X95154202Y-73808810D01*
X95136105Y-73792229D01*
X95082525Y-73763161D01*
X95016612Y-73757564D01*
X94957635Y-73779807D01*
X94915203Y-73825859D01*
X94898923Y-73891692D01*
X94898470Y-73909587D01*
X94889578Y-73941982D01*
X94863325Y-73946925D01*
X94811919Y-73927633D01*
X94800013Y-73921446D01*
X94767835Y-73885058D01*
X94767198Y-73830954D01*
X94797856Y-73756128D01*
X94825978Y-73715350D01*
X94897883Y-73657421D01*
X94986638Y-73624670D01*
X95081542Y-73620212D01*
X95171892Y-73647167D01*
G36*
X95171892Y-73647167D02*
G01*
X95178060Y-73650581D01*
X95228447Y-73689692D01*
X95273498Y-73739975D01*
X95281355Y-73751339D01*
X95296376Y-73777860D01*
X95307107Y-73809336D01*
X95314486Y-73852591D01*
X95319452Y-73914449D01*
X95322942Y-74001733D01*
X95325893Y-74121269D01*
X95326311Y-74141478D01*
X95327654Y-74272499D01*
X95325761Y-74365296D01*
X95320605Y-74420507D01*
X95312158Y-74438769D01*
X95286594Y-74433301D01*
X95243166Y-74416733D01*
X95232940Y-74411888D01*
X95216967Y-74400920D01*
X95205954Y-74382890D01*
X95198750Y-74351396D01*
X95194208Y-74300036D01*
X95191180Y-74222410D01*
X95188516Y-74112115D01*
X95187785Y-74079875D01*
X95184965Y-73978050D01*
X95181304Y-73906788D01*
X95175694Y-73859332D01*
X95167029Y-73828925D01*
X95154202Y-73808810D01*
X95136105Y-73792229D01*
X95082525Y-73763161D01*
X95016612Y-73757564D01*
X94957635Y-73779807D01*
X94915203Y-73825859D01*
X94898923Y-73891692D01*
X94898470Y-73909587D01*
X94889578Y-73941982D01*
X94863325Y-73946925D01*
X94811919Y-73927633D01*
X94800013Y-73921446D01*
X94767835Y-73885058D01*
X94767198Y-73830954D01*
X94797856Y-73756128D01*
X94825978Y-73715350D01*
X94897883Y-73657421D01*
X94986638Y-73624670D01*
X95081542Y-73620212D01*
X95171892Y-73647167D01*
G37*
X96676923Y-73381806D02*
X96676923Y-73916455D01*
X96676660Y-74055094D01*
X96675958Y-74179805D01*
X96674883Y-74285557D01*
X96673500Y-74367322D01*
X96671874Y-74420069D01*
X96670070Y-74438769D01*
X96669364Y-74438706D01*
X96645387Y-74431912D01*
X96601685Y-74417320D01*
X96540154Y-74395870D01*
X96540154Y-74120617D01*
X96539763Y-74012466D01*
X96537946Y-73934026D01*
X96533767Y-73880647D01*
X96526286Y-73845256D01*
X96514567Y-73820779D01*
X96497671Y-73800144D01*
X96486152Y-73789170D01*
X96423864Y-73758775D01*
X96355211Y-73761466D01*
X96292298Y-73797406D01*
X96283139Y-73806325D01*
X96268471Y-73824844D01*
X96258433Y-73849326D01*
X96252151Y-73886393D01*
X96248748Y-73942667D01*
X96247349Y-74024771D01*
X96247077Y-74139329D01*
X96246947Y-74197430D01*
X96246099Y-74292993D01*
X96244594Y-74369526D01*
X96242585Y-74420345D01*
X96240223Y-74438769D01*
X96239518Y-74438706D01*
X96215541Y-74431912D01*
X96171839Y-74417320D01*
X96110308Y-74395870D01*
X96110338Y-74119358D01*
X96110384Y-74094742D01*
X96112970Y-73966419D01*
X96120913Y-73869384D01*
X96136155Y-73797057D01*
X96160636Y-73742855D01*
X96196298Y-73700198D01*
X96245082Y-73662505D01*
X96292661Y-73638910D01*
X96368732Y-73620672D01*
X96443556Y-73619636D01*
X96501077Y-73637378D01*
X96505402Y-73639829D01*
X96518738Y-73639566D01*
X96527851Y-73619039D01*
X96534428Y-73571980D01*
X96540154Y-73492120D01*
X96549923Y-73328236D01*
X96676923Y-73381806D01*
G36*
X96676923Y-73381806D02*
G01*
X96676923Y-73916455D01*
X96676660Y-74055094D01*
X96675958Y-74179805D01*
X96674883Y-74285557D01*
X96673500Y-74367322D01*
X96671874Y-74420069D01*
X96670070Y-74438769D01*
X96669364Y-74438706D01*
X96645387Y-74431912D01*
X96601685Y-74417320D01*
X96540154Y-74395870D01*
X96540154Y-74120617D01*
X96539763Y-74012466D01*
X96537946Y-73934026D01*
X96533767Y-73880647D01*
X96526286Y-73845256D01*
X96514567Y-73820779D01*
X96497671Y-73800144D01*
X96486152Y-73789170D01*
X96423864Y-73758775D01*
X96355211Y-73761466D01*
X96292298Y-73797406D01*
X96283139Y-73806325D01*
X96268471Y-73824844D01*
X96258433Y-73849326D01*
X96252151Y-73886393D01*
X96248748Y-73942667D01*
X96247349Y-74024771D01*
X96247077Y-74139329D01*
X96246947Y-74197430D01*
X96246099Y-74292993D01*
X96244594Y-74369526D01*
X96242585Y-74420345D01*
X96240223Y-74438769D01*
X96239518Y-74438706D01*
X96215541Y-74431912D01*
X96171839Y-74417320D01*
X96110308Y-74395870D01*
X96110338Y-74119358D01*
X96110384Y-74094742D01*
X96112970Y-73966419D01*
X96120913Y-73869384D01*
X96136155Y-73797057D01*
X96160636Y-73742855D01*
X96196298Y-73700198D01*
X96245082Y-73662505D01*
X96292661Y-73638910D01*
X96368732Y-73620672D01*
X96443556Y-73619636D01*
X96501077Y-73637378D01*
X96505402Y-73639829D01*
X96518738Y-73639566D01*
X96527851Y-73619039D01*
X96534428Y-73571980D01*
X96540154Y-73492120D01*
X96549923Y-73328236D01*
X96676923Y-73381806D01*
G37*
X93887998Y-73624034D02*
X93930850Y-73640829D01*
X93980615Y-73663503D01*
X93980615Y-74318533D01*
X93918785Y-74380363D01*
X93904662Y-74394228D01*
X93865536Y-74425046D01*
X93826078Y-74435028D01*
X93767362Y-74430433D01*
X93743456Y-74427462D01*
X93681801Y-74421176D01*
X93638692Y-74418672D01*
X93625905Y-74419055D01*
X93573446Y-74423200D01*
X93510022Y-74430433D01*
X93489730Y-74432918D01*
X93438610Y-74433895D01*
X93401207Y-74418462D01*
X93358599Y-74380363D01*
X93296769Y-74318533D01*
X93296769Y-73968343D01*
X93297251Y-73864857D01*
X93298753Y-73766192D01*
X93301089Y-73688068D01*
X93304071Y-73636662D01*
X93307509Y-73618154D01*
X93308230Y-73618204D01*
X93333203Y-73627413D01*
X93375399Y-73647707D01*
X93432549Y-73677261D01*
X93437928Y-73984746D01*
X93443308Y-74292231D01*
X93560539Y-74292231D01*
X93565885Y-73955192D01*
X93567579Y-73863574D01*
X93570005Y-73765649D01*
X93572634Y-73687906D01*
X93575246Y-73636642D01*
X93577623Y-73618154D01*
X93578306Y-73618219D01*
X93601996Y-73625020D01*
X93645546Y-73639604D01*
X93707077Y-73661054D01*
X93707376Y-73957104D01*
X93707676Y-74008532D01*
X93709754Y-74108466D01*
X93713470Y-74191925D01*
X93718430Y-74251377D01*
X93724240Y-74279287D01*
X93745024Y-74294214D01*
X93787440Y-74298825D01*
X93834077Y-74292231D01*
X93839423Y-73955192D01*
X93841336Y-73869546D01*
X93845303Y-73768172D01*
X93850491Y-73688655D01*
X93856499Y-73636736D01*
X93862927Y-73618154D01*
X93887998Y-73624034D01*
G36*
X93887998Y-73624034D02*
G01*
X93930850Y-73640829D01*
X93980615Y-73663503D01*
X93980615Y-74318533D01*
X93918785Y-74380363D01*
X93904662Y-74394228D01*
X93865536Y-74425046D01*
X93826078Y-74435028D01*
X93767362Y-74430433D01*
X93743456Y-74427462D01*
X93681801Y-74421176D01*
X93638692Y-74418672D01*
X93625905Y-74419055D01*
X93573446Y-74423200D01*
X93510022Y-74430433D01*
X93489730Y-74432918D01*
X93438610Y-74433895D01*
X93401207Y-74418462D01*
X93358599Y-74380363D01*
X93296769Y-74318533D01*
X93296769Y-73968343D01*
X93297251Y-73864857D01*
X93298753Y-73766192D01*
X93301089Y-73688068D01*
X93304071Y-73636662D01*
X93307509Y-73618154D01*
X93308230Y-73618204D01*
X93333203Y-73627413D01*
X93375399Y-73647707D01*
X93432549Y-73677261D01*
X93437928Y-73984746D01*
X93443308Y-74292231D01*
X93560539Y-74292231D01*
X93565885Y-73955192D01*
X93567579Y-73863574D01*
X93570005Y-73765649D01*
X93572634Y-73687906D01*
X93575246Y-73636642D01*
X93577623Y-73618154D01*
X93578306Y-73618219D01*
X93601996Y-73625020D01*
X93645546Y-73639604D01*
X93707077Y-73661054D01*
X93707376Y-73957104D01*
X93707676Y-74008532D01*
X93709754Y-74108466D01*
X93713470Y-74191925D01*
X93718430Y-74251377D01*
X93724240Y-74279287D01*
X93745024Y-74294214D01*
X93787440Y-74298825D01*
X93834077Y-74292231D01*
X93839423Y-73955192D01*
X93841336Y-73869546D01*
X93845303Y-73768172D01*
X93850491Y-73688655D01*
X93856499Y-73636736D01*
X93862927Y-73618154D01*
X93887998Y-73624034D01*
G37*
X100096154Y-74008923D02*
X100096135Y-74030105D01*
X100095076Y-74124584D01*
X100091436Y-74190414D01*
X100083892Y-74236394D01*
X100071122Y-74271321D01*
X100051803Y-74303995D01*
X100047050Y-74310775D01*
X99996759Y-74364231D01*
X99939457Y-74404547D01*
X99910032Y-74417629D01*
X99804299Y-74439450D01*
X99699734Y-74425336D01*
X99603368Y-74377105D01*
X99522235Y-74296579D01*
X99515385Y-74285791D01*
X99493097Y-74223153D01*
X99478079Y-74135935D01*
X99470792Y-74035210D01*
X99471611Y-73942037D01*
X99668796Y-73942037D01*
X99670349Y-74071114D01*
X99670974Y-74079420D01*
X99680077Y-74150643D01*
X99696288Y-74195809D01*
X99723660Y-74226752D01*
X99769553Y-74255737D01*
X99814942Y-74257261D01*
X99861692Y-74223846D01*
X99869824Y-74215053D01*
X99885754Y-74188741D01*
X99895159Y-74150520D01*
X99899632Y-74091349D01*
X99900769Y-74002182D01*
X99898822Y-73918664D01*
X99889105Y-73839095D01*
X99869047Y-73788808D01*
X99836240Y-73762513D01*
X99788280Y-73754923D01*
X99770016Y-73756432D01*
X99718848Y-73784107D01*
X99685035Y-73846172D01*
X99668796Y-73942037D01*
X99471611Y-73942037D01*
X99471699Y-73932052D01*
X99481262Y-73837533D01*
X99499943Y-73762727D01*
X99523951Y-73712905D01*
X99591536Y-73635409D01*
X99683114Y-73587256D01*
X99795213Y-73570703D01*
X99825151Y-73571599D01*
X99913315Y-73589929D01*
X99985733Y-73636104D01*
X100052192Y-73715648D01*
X100056147Y-73721548D01*
X100074040Y-73753288D01*
X100085678Y-73789163D01*
X100092371Y-73837906D01*
X100095426Y-73908249D01*
X100096106Y-74002182D01*
X100096154Y-74008923D01*
G36*
X100096154Y-74008923D02*
G01*
X100096135Y-74030105D01*
X100095076Y-74124584D01*
X100091436Y-74190414D01*
X100083892Y-74236394D01*
X100071122Y-74271321D01*
X100051803Y-74303995D01*
X100047050Y-74310775D01*
X99996759Y-74364231D01*
X99939457Y-74404547D01*
X99910032Y-74417629D01*
X99804299Y-74439450D01*
X99699734Y-74425336D01*
X99603368Y-74377105D01*
X99522235Y-74296579D01*
X99515385Y-74285791D01*
X99493097Y-74223153D01*
X99478079Y-74135935D01*
X99470792Y-74035210D01*
X99471611Y-73942037D01*
X99668796Y-73942037D01*
X99670349Y-74071114D01*
X99670974Y-74079420D01*
X99680077Y-74150643D01*
X99696288Y-74195809D01*
X99723660Y-74226752D01*
X99769553Y-74255737D01*
X99814942Y-74257261D01*
X99861692Y-74223846D01*
X99869824Y-74215053D01*
X99885754Y-74188741D01*
X99895159Y-74150520D01*
X99899632Y-74091349D01*
X99900769Y-74002182D01*
X99898822Y-73918664D01*
X99889105Y-73839095D01*
X99869047Y-73788808D01*
X99836240Y-73762513D01*
X99788280Y-73754923D01*
X99770016Y-73756432D01*
X99718848Y-73784107D01*
X99685035Y-73846172D01*
X99668796Y-73942037D01*
X99471611Y-73942037D01*
X99471699Y-73932052D01*
X99481262Y-73837533D01*
X99499943Y-73762727D01*
X99523951Y-73712905D01*
X99591536Y-73635409D01*
X99683114Y-73587256D01*
X99795213Y-73570703D01*
X99825151Y-73571599D01*
X99913315Y-73589929D01*
X99985733Y-73636104D01*
X100052192Y-73715648D01*
X100056147Y-73721548D01*
X100074040Y-73753288D01*
X100085678Y-73789163D01*
X100092371Y-73837906D01*
X100095426Y-73908249D01*
X100096106Y-74002182D01*
X100096154Y-74008923D01*
G37*
X91850794Y-74032376D02*
X91850413Y-74084449D01*
X91845641Y-74187047D01*
X91833150Y-74262126D01*
X91810121Y-74317748D01*
X91773732Y-74361975D01*
X91721162Y-74402869D01*
X91687714Y-74421466D01*
X91634098Y-74433991D01*
X91558780Y-74433003D01*
X91516672Y-74429035D01*
X91465879Y-74416920D01*
X91425280Y-74390585D01*
X91378049Y-74341514D01*
X91371738Y-74334346D01*
X91329277Y-74279189D01*
X91309018Y-74231150D01*
X91303846Y-74174184D01*
X91303846Y-74090471D01*
X91362346Y-74112552D01*
X91404994Y-74138364D01*
X91442064Y-74198928D01*
X91449803Y-74218320D01*
X91493074Y-74273235D01*
X91551976Y-74300879D01*
X91616111Y-74298393D01*
X91675077Y-74262923D01*
X91695342Y-74240805D01*
X91713720Y-74207436D01*
X91707971Y-74177117D01*
X91674887Y-74145913D01*
X91611261Y-74109887D01*
X91513885Y-74065103D01*
X91313615Y-73977445D01*
X91308301Y-73890607D01*
X91310299Y-73835296D01*
X91440783Y-73835296D01*
X91450688Y-73869538D01*
X91495756Y-73906096D01*
X91577557Y-73947692D01*
X91591092Y-73953718D01*
X91655818Y-73981753D01*
X91704247Y-74001472D01*
X91726751Y-74008923D01*
X91730161Y-74003438D01*
X91731529Y-73969948D01*
X91726651Y-73916116D01*
X91714364Y-73863473D01*
X91676041Y-73797151D01*
X91620720Y-73759780D01*
X91554640Y-73754721D01*
X91484040Y-73785339D01*
X91464474Y-73800648D01*
X91440783Y-73835296D01*
X91310299Y-73835296D01*
X91310647Y-73825663D01*
X91340186Y-73743590D01*
X91377472Y-73698361D01*
X91454776Y-73647838D01*
X91546478Y-73622316D01*
X91641274Y-73624336D01*
X91727859Y-73656440D01*
X91746920Y-73668767D01*
X91790640Y-73706912D01*
X91820540Y-73755167D01*
X91838968Y-73820710D01*
X91848270Y-73910720D01*
X91849499Y-73969948D01*
X91850794Y-74032376D01*
G36*
X91850794Y-74032376D02*
G01*
X91850413Y-74084449D01*
X91845641Y-74187047D01*
X91833150Y-74262126D01*
X91810121Y-74317748D01*
X91773732Y-74361975D01*
X91721162Y-74402869D01*
X91687714Y-74421466D01*
X91634098Y-74433991D01*
X91558780Y-74433003D01*
X91516672Y-74429035D01*
X91465879Y-74416920D01*
X91425280Y-74390585D01*
X91378049Y-74341514D01*
X91371738Y-74334346D01*
X91329277Y-74279189D01*
X91309018Y-74231150D01*
X91303846Y-74174184D01*
X91303846Y-74090471D01*
X91362346Y-74112552D01*
X91404994Y-74138364D01*
X91442064Y-74198928D01*
X91449803Y-74218320D01*
X91493074Y-74273235D01*
X91551976Y-74300879D01*
X91616111Y-74298393D01*
X91675077Y-74262923D01*
X91695342Y-74240805D01*
X91713720Y-74207436D01*
X91707971Y-74177117D01*
X91674887Y-74145913D01*
X91611261Y-74109887D01*
X91513885Y-74065103D01*
X91313615Y-73977445D01*
X91308301Y-73890607D01*
X91310299Y-73835296D01*
X91440783Y-73835296D01*
X91450688Y-73869538D01*
X91495756Y-73906096D01*
X91577557Y-73947692D01*
X91591092Y-73953718D01*
X91655818Y-73981753D01*
X91704247Y-74001472D01*
X91726751Y-74008923D01*
X91730161Y-74003438D01*
X91731529Y-73969948D01*
X91726651Y-73916116D01*
X91714364Y-73863473D01*
X91676041Y-73797151D01*
X91620720Y-73759780D01*
X91554640Y-73754721D01*
X91484040Y-73785339D01*
X91464474Y-73800648D01*
X91440783Y-73835296D01*
X91310299Y-73835296D01*
X91310647Y-73825663D01*
X91340186Y-73743590D01*
X91377472Y-73698361D01*
X91454776Y-73647838D01*
X91546478Y-73622316D01*
X91641274Y-73624336D01*
X91727859Y-73656440D01*
X91746920Y-73668767D01*
X91790640Y-73706912D01*
X91820540Y-73755167D01*
X91838968Y-73820710D01*
X91848270Y-73910720D01*
X91849499Y-73969948D01*
X91850794Y-74032376D01*
G37*
X94664401Y-74028462D02*
X94662839Y-74104652D01*
X94651810Y-74208507D01*
X94627814Y-74286333D01*
X94588043Y-74345760D01*
X94529688Y-74394418D01*
X94474100Y-74422546D01*
X94380751Y-74438199D01*
X94287530Y-74421084D01*
X94203272Y-74373388D01*
X94136818Y-74297294D01*
X94128793Y-74283262D01*
X94118196Y-74258679D01*
X94110335Y-74227309D01*
X94104807Y-74183769D01*
X94101206Y-74122678D01*
X94099128Y-74038655D01*
X94099064Y-74031200D01*
X94234615Y-74031200D01*
X94235077Y-74102316D01*
X94237999Y-74166641D01*
X94245221Y-74208166D01*
X94258561Y-74236067D01*
X94279836Y-74259517D01*
X94284821Y-74264025D01*
X94348863Y-74297295D01*
X94416625Y-74293890D01*
X94479734Y-74254042D01*
X94498526Y-74233398D01*
X94514254Y-74206029D01*
X94523039Y-74168192D01*
X94526859Y-74110355D01*
X94527692Y-74022986D01*
X94527281Y-73956319D01*
X94524434Y-73891245D01*
X94517256Y-73849251D01*
X94503889Y-73821063D01*
X94482472Y-73797406D01*
X94469890Y-73786753D01*
X94404699Y-73758057D01*
X94336400Y-73762575D01*
X94277098Y-73800144D01*
X94264333Y-73815040D01*
X94248764Y-73843089D01*
X94239762Y-73882258D01*
X94235617Y-73941858D01*
X94234615Y-74031200D01*
X94099064Y-74031200D01*
X94098167Y-73926320D01*
X94097919Y-73780289D01*
X94097846Y-73326963D01*
X94161346Y-73353564D01*
X94178136Y-73360845D01*
X94204859Y-73377287D01*
X94220156Y-73402187D01*
X94228563Y-73445732D01*
X94234615Y-73518106D01*
X94240144Y-73583089D01*
X94247450Y-73625750D01*
X94257918Y-73641670D01*
X94273692Y-73637400D01*
X94313890Y-73622397D01*
X94385728Y-73618678D01*
X94463010Y-73632572D01*
X94529688Y-73662505D01*
X94566371Y-73690211D01*
X94613472Y-73744269D01*
X94643638Y-73813577D01*
X94659678Y-73905765D01*
X94664191Y-74022986D01*
X94664401Y-74028462D01*
G36*
X94664401Y-74028462D02*
G01*
X94662839Y-74104652D01*
X94651810Y-74208507D01*
X94627814Y-74286333D01*
X94588043Y-74345760D01*
X94529688Y-74394418D01*
X94474100Y-74422546D01*
X94380751Y-74438199D01*
X94287530Y-74421084D01*
X94203272Y-74373388D01*
X94136818Y-74297294D01*
X94128793Y-74283262D01*
X94118196Y-74258679D01*
X94110335Y-74227309D01*
X94104807Y-74183769D01*
X94101206Y-74122678D01*
X94099128Y-74038655D01*
X94099064Y-74031200D01*
X94234615Y-74031200D01*
X94235077Y-74102316D01*
X94237999Y-74166641D01*
X94245221Y-74208166D01*
X94258561Y-74236067D01*
X94279836Y-74259517D01*
X94284821Y-74264025D01*
X94348863Y-74297295D01*
X94416625Y-74293890D01*
X94479734Y-74254042D01*
X94498526Y-74233398D01*
X94514254Y-74206029D01*
X94523039Y-74168192D01*
X94526859Y-74110355D01*
X94527692Y-74022986D01*
X94527281Y-73956319D01*
X94524434Y-73891245D01*
X94517256Y-73849251D01*
X94503889Y-73821063D01*
X94482472Y-73797406D01*
X94469890Y-73786753D01*
X94404699Y-73758057D01*
X94336400Y-73762575D01*
X94277098Y-73800144D01*
X94264333Y-73815040D01*
X94248764Y-73843089D01*
X94239762Y-73882258D01*
X94235617Y-73941858D01*
X94234615Y-74031200D01*
X94099064Y-74031200D01*
X94098167Y-73926320D01*
X94097919Y-73780289D01*
X94097846Y-73326963D01*
X94161346Y-73353564D01*
X94178136Y-73360845D01*
X94204859Y-73377287D01*
X94220156Y-73402187D01*
X94228563Y-73445732D01*
X94234615Y-73518106D01*
X94240144Y-73583089D01*
X94247450Y-73625750D01*
X94257918Y-73641670D01*
X94273692Y-73637400D01*
X94313890Y-73622397D01*
X94385728Y-73618678D01*
X94463010Y-73632572D01*
X94529688Y-73662505D01*
X94566371Y-73690211D01*
X94613472Y-73744269D01*
X94643638Y-73813577D01*
X94659678Y-73905765D01*
X94664191Y-74022986D01*
X94664401Y-74028462D01*
G37*
X98610787Y-73953536D02*
X98604574Y-74101643D01*
X98601066Y-74133021D01*
X98574927Y-74244705D01*
X98527694Y-74329642D01*
X98455862Y-74394741D01*
X98451802Y-74397428D01*
X98360487Y-74435634D01*
X98265144Y-74439034D01*
X98173274Y-74409939D01*
X98092379Y-74350660D01*
X98029962Y-74263510D01*
X98028914Y-74261409D01*
X98008173Y-74207289D01*
X97992980Y-74145781D01*
X97984921Y-74088039D01*
X97985582Y-74045215D01*
X97996548Y-74028462D01*
X98006290Y-74029480D01*
X98052877Y-74048009D01*
X98105682Y-74082081D01*
X98150603Y-74121522D01*
X98173535Y-74156155D01*
X98197373Y-74203133D01*
X98246230Y-74245862D01*
X98302963Y-74262923D01*
X98323758Y-74257990D01*
X98364804Y-74233157D01*
X98400557Y-74198685D01*
X98415846Y-74167411D01*
X98415842Y-74167295D01*
X98398495Y-74152933D01*
X98352247Y-74127025D01*
X98284067Y-74093210D01*
X98200923Y-74055129D01*
X98200466Y-74054927D01*
X98110138Y-74014709D01*
X98049592Y-73985733D01*
X98012888Y-73963474D01*
X97994086Y-73943407D01*
X97987246Y-73921009D01*
X97986429Y-73891756D01*
X97992113Y-73836363D01*
X98185000Y-73836363D01*
X98204911Y-73853777D01*
X98254521Y-73879872D01*
X98255976Y-73880610D01*
X98314506Y-73908483D01*
X98366868Y-73930719D01*
X98400086Y-73940126D01*
X98413410Y-73927552D01*
X98415846Y-73884468D01*
X98405724Y-73830847D01*
X98370631Y-73782119D01*
X98319823Y-73756856D01*
X98263181Y-73759406D01*
X98210584Y-73794120D01*
X98189910Y-73818107D01*
X98185000Y-73836363D01*
X97992113Y-73836363D01*
X97993622Y-73821654D01*
X98029184Y-73726412D01*
X98088714Y-73651567D01*
X98165746Y-73599745D01*
X98253815Y-73573573D01*
X98346454Y-73575676D01*
X98437198Y-73608681D01*
X98519579Y-73675215D01*
X98565222Y-73741055D01*
X98598008Y-73835036D01*
X98603339Y-73884468D01*
X98610787Y-73953536D01*
G36*
X98610787Y-73953536D02*
G01*
X98604574Y-74101643D01*
X98601066Y-74133021D01*
X98574927Y-74244705D01*
X98527694Y-74329642D01*
X98455862Y-74394741D01*
X98451802Y-74397428D01*
X98360487Y-74435634D01*
X98265144Y-74439034D01*
X98173274Y-74409939D01*
X98092379Y-74350660D01*
X98029962Y-74263510D01*
X98028914Y-74261409D01*
X98008173Y-74207289D01*
X97992980Y-74145781D01*
X97984921Y-74088039D01*
X97985582Y-74045215D01*
X97996548Y-74028462D01*
X98006290Y-74029480D01*
X98052877Y-74048009D01*
X98105682Y-74082081D01*
X98150603Y-74121522D01*
X98173535Y-74156155D01*
X98197373Y-74203133D01*
X98246230Y-74245862D01*
X98302963Y-74262923D01*
X98323758Y-74257990D01*
X98364804Y-74233157D01*
X98400557Y-74198685D01*
X98415846Y-74167411D01*
X98415842Y-74167295D01*
X98398495Y-74152933D01*
X98352247Y-74127025D01*
X98284067Y-74093210D01*
X98200923Y-74055129D01*
X98200466Y-74054927D01*
X98110138Y-74014709D01*
X98049592Y-73985733D01*
X98012888Y-73963474D01*
X97994086Y-73943407D01*
X97987246Y-73921009D01*
X97986429Y-73891756D01*
X97992113Y-73836363D01*
X98185000Y-73836363D01*
X98204911Y-73853777D01*
X98254521Y-73879872D01*
X98255976Y-73880610D01*
X98314506Y-73908483D01*
X98366868Y-73930719D01*
X98400086Y-73940126D01*
X98413410Y-73927552D01*
X98415846Y-73884468D01*
X98405724Y-73830847D01*
X98370631Y-73782119D01*
X98319823Y-73756856D01*
X98263181Y-73759406D01*
X98210584Y-73794120D01*
X98189910Y-73818107D01*
X98185000Y-73836363D01*
X97992113Y-73836363D01*
X97993622Y-73821654D01*
X98029184Y-73726412D01*
X98088714Y-73651567D01*
X98165746Y-73599745D01*
X98253815Y-73573573D01*
X98346454Y-73575676D01*
X98437198Y-73608681D01*
X98519579Y-73675215D01*
X98565222Y-73741055D01*
X98598008Y-73835036D01*
X98603339Y-73884468D01*
X98610787Y-73953536D01*
G37*
X95820458Y-73639228D02*
X95887622Y-73678389D01*
X95917169Y-73708902D01*
X95973948Y-73800110D01*
X95993077Y-73899548D01*
X95993077Y-73967960D01*
X95930191Y-73941518D01*
X95886700Y-73914837D01*
X95852426Y-73859446D01*
X95848907Y-73848024D01*
X95811028Y-73789838D01*
X95753936Y-73758407D01*
X95688383Y-73757058D01*
X95625117Y-73789116D01*
X95615672Y-73797383D01*
X95584087Y-73833311D01*
X95578871Y-73864635D01*
X95602765Y-73895391D01*
X95658510Y-73929617D01*
X95748846Y-73971350D01*
X95754956Y-73973993D01*
X95855241Y-74020755D01*
X95923735Y-74062181D01*
X95965899Y-74103542D01*
X95987193Y-74150111D01*
X95993077Y-74207160D01*
X95985366Y-74270408D01*
X95946430Y-74351364D01*
X95877932Y-74409522D01*
X95828388Y-74426983D01*
X95758469Y-74436537D01*
X95690575Y-74434496D01*
X95642093Y-74420082D01*
X95636943Y-74416493D01*
X95623267Y-74391416D01*
X95632757Y-74347218D01*
X95649246Y-74312527D01*
X95675687Y-74298084D01*
X95725834Y-74298803D01*
X95795453Y-74294660D01*
X95840943Y-74266054D01*
X95856308Y-74213104D01*
X95856294Y-74211582D01*
X95846983Y-74180845D01*
X95815311Y-74152643D01*
X95753731Y-74120136D01*
X95669986Y-74080998D01*
X95614518Y-74059706D01*
X95582497Y-74061079D01*
X95567534Y-74089203D01*
X95563242Y-74148170D01*
X95563231Y-74242068D01*
X95562752Y-74300031D01*
X95560556Y-74371612D01*
X95556986Y-74420606D01*
X95552491Y-74438769D01*
X95551290Y-74438646D01*
X95525319Y-74428802D01*
X95482305Y-74408028D01*
X95422859Y-74377287D01*
X95429923Y-74100298D01*
X95430414Y-74081928D01*
X95436025Y-73952992D01*
X95445938Y-73855814D01*
X95462175Y-73783925D01*
X95486759Y-73730852D01*
X95521715Y-73690127D01*
X95569064Y-73655279D01*
X95569940Y-73654733D01*
X95646499Y-73626303D01*
X95735044Y-73621500D01*
X95820458Y-73639228D01*
G36*
X95820458Y-73639228D02*
G01*
X95887622Y-73678389D01*
X95917169Y-73708902D01*
X95973948Y-73800110D01*
X95993077Y-73899548D01*
X95993077Y-73967960D01*
X95930191Y-73941518D01*
X95886700Y-73914837D01*
X95852426Y-73859446D01*
X95848907Y-73848024D01*
X95811028Y-73789838D01*
X95753936Y-73758407D01*
X95688383Y-73757058D01*
X95625117Y-73789116D01*
X95615672Y-73797383D01*
X95584087Y-73833311D01*
X95578871Y-73864635D01*
X95602765Y-73895391D01*
X95658510Y-73929617D01*
X95748846Y-73971350D01*
X95754956Y-73973993D01*
X95855241Y-74020755D01*
X95923735Y-74062181D01*
X95965899Y-74103542D01*
X95987193Y-74150111D01*
X95993077Y-74207160D01*
X95985366Y-74270408D01*
X95946430Y-74351364D01*
X95877932Y-74409522D01*
X95828388Y-74426983D01*
X95758469Y-74436537D01*
X95690575Y-74434496D01*
X95642093Y-74420082D01*
X95636943Y-74416493D01*
X95623267Y-74391416D01*
X95632757Y-74347218D01*
X95649246Y-74312527D01*
X95675687Y-74298084D01*
X95725834Y-74298803D01*
X95795453Y-74294660D01*
X95840943Y-74266054D01*
X95856308Y-74213104D01*
X95856294Y-74211582D01*
X95846983Y-74180845D01*
X95815311Y-74152643D01*
X95753731Y-74120136D01*
X95669986Y-74080998D01*
X95614518Y-74059706D01*
X95582497Y-74061079D01*
X95567534Y-74089203D01*
X95563242Y-74148170D01*
X95563231Y-74242068D01*
X95562752Y-74300031D01*
X95560556Y-74371612D01*
X95556986Y-74420606D01*
X95552491Y-74438769D01*
X95551290Y-74438646D01*
X95525319Y-74428802D01*
X95482305Y-74408028D01*
X95422859Y-74377287D01*
X95429923Y-74100298D01*
X95430414Y-74081928D01*
X95436025Y-73952992D01*
X95445938Y-73855814D01*
X95462175Y-73783925D01*
X95486759Y-73730852D01*
X95521715Y-73690127D01*
X95569064Y-73655279D01*
X95569940Y-73654733D01*
X95646499Y-73626303D01*
X95735044Y-73621500D01*
X95820458Y-73639228D01*
G37*
X92963936Y-73619911D02*
X93005807Y-73630547D01*
X93044791Y-73657062D01*
X93094965Y-73706420D01*
X93127232Y-73741279D01*
X93160844Y-73786534D01*
X93176003Y-73828951D01*
X93179539Y-73882768D01*
X93179539Y-73970850D01*
X93119470Y-73939787D01*
X93071867Y-73901936D01*
X93039261Y-73850950D01*
X93033661Y-73837088D01*
X92990992Y-73783358D01*
X92931707Y-73756417D01*
X92867061Y-73759039D01*
X92808308Y-73794000D01*
X92783450Y-73822394D01*
X92768970Y-73858718D01*
X92784470Y-73891046D01*
X92832667Y-73923565D01*
X92916274Y-73960461D01*
X92928962Y-73965557D01*
X93005078Y-73998907D01*
X93070396Y-74031793D01*
X93111953Y-74057769D01*
X93153576Y-74104167D01*
X93181247Y-74178211D01*
X93178310Y-74257670D01*
X93145571Y-74332868D01*
X93083841Y-74394131D01*
X93033858Y-74420210D01*
X92937303Y-74438470D01*
X92883647Y-74436007D01*
X92833976Y-74422687D01*
X92814919Y-74394739D01*
X92822045Y-74348710D01*
X92824118Y-74342624D01*
X92840556Y-74310349D01*
X92867926Y-74298133D01*
X92920068Y-74298950D01*
X92956884Y-74300061D01*
X92999961Y-74290528D01*
X93029475Y-74262026D01*
X93046286Y-74226935D01*
X93048161Y-74190175D01*
X93048074Y-74189961D01*
X93026279Y-74170098D01*
X92979632Y-74141192D01*
X92919278Y-74108886D01*
X92856360Y-74078823D01*
X92802023Y-74056646D01*
X92767410Y-74048000D01*
X92762260Y-74056467D01*
X92755778Y-74096309D01*
X92751339Y-74161371D01*
X92749692Y-74243385D01*
X92749309Y-74300153D01*
X92747505Y-74371648D01*
X92744558Y-74420610D01*
X92740843Y-74438769D01*
X92721424Y-74432667D01*
X92682227Y-74416095D01*
X92632462Y-74393420D01*
X92632462Y-74102509D01*
X92632780Y-74027940D01*
X92635789Y-73914701D01*
X92643454Y-73830692D01*
X92657562Y-73769520D01*
X92679899Y-73724795D01*
X92712253Y-73690124D01*
X92756410Y-73659117D01*
X92812667Y-73633528D01*
X92916540Y-73618154D01*
X92963936Y-73619911D01*
G36*
X92963936Y-73619911D02*
G01*
X93005807Y-73630547D01*
X93044791Y-73657062D01*
X93094965Y-73706420D01*
X93127232Y-73741279D01*
X93160844Y-73786534D01*
X93176003Y-73828951D01*
X93179539Y-73882768D01*
X93179539Y-73970850D01*
X93119470Y-73939787D01*
X93071867Y-73901936D01*
X93039261Y-73850950D01*
X93033661Y-73837088D01*
X92990992Y-73783358D01*
X92931707Y-73756417D01*
X92867061Y-73759039D01*
X92808308Y-73794000D01*
X92783450Y-73822394D01*
X92768970Y-73858718D01*
X92784470Y-73891046D01*
X92832667Y-73923565D01*
X92916274Y-73960461D01*
X92928962Y-73965557D01*
X93005078Y-73998907D01*
X93070396Y-74031793D01*
X93111953Y-74057769D01*
X93153576Y-74104167D01*
X93181247Y-74178211D01*
X93178310Y-74257670D01*
X93145571Y-74332868D01*
X93083841Y-74394131D01*
X93033858Y-74420210D01*
X92937303Y-74438470D01*
X92883647Y-74436007D01*
X92833976Y-74422687D01*
X92814919Y-74394739D01*
X92822045Y-74348710D01*
X92824118Y-74342624D01*
X92840556Y-74310349D01*
X92867926Y-74298133D01*
X92920068Y-74298950D01*
X92956884Y-74300061D01*
X92999961Y-74290528D01*
X93029475Y-74262026D01*
X93046286Y-74226935D01*
X93048161Y-74190175D01*
X93048074Y-74189961D01*
X93026279Y-74170098D01*
X92979632Y-74141192D01*
X92919278Y-74108886D01*
X92856360Y-74078823D01*
X92802023Y-74056646D01*
X92767410Y-74048000D01*
X92762260Y-74056467D01*
X92755778Y-74096309D01*
X92751339Y-74161371D01*
X92749692Y-74243385D01*
X92749309Y-74300153D01*
X92747505Y-74371648D01*
X92744558Y-74420610D01*
X92740843Y-74438769D01*
X92721424Y-74432667D01*
X92682227Y-74416095D01*
X92632462Y-74393420D01*
X92632462Y-74102509D01*
X92632780Y-74027940D01*
X92635789Y-73914701D01*
X92643454Y-73830692D01*
X92657562Y-73769520D01*
X92679899Y-73724795D01*
X92712253Y-73690124D01*
X92756410Y-73659117D01*
X92812667Y-73633528D01*
X92916540Y-73618154D01*
X92963936Y-73619911D01*
G37*
X99347828Y-74098205D02*
X99349763Y-74248269D01*
X99350300Y-74291802D01*
X99352019Y-74437344D01*
X99352365Y-74548711D01*
X99350277Y-74629804D01*
X99344698Y-74684522D01*
X99334567Y-74716761D01*
X99318826Y-74730422D01*
X99296417Y-74729403D01*
X99266280Y-74717603D01*
X99227355Y-74698920D01*
X99219038Y-74694933D01*
X99184402Y-74675419D01*
X99166314Y-74652202D01*
X99159392Y-74613492D01*
X99158256Y-74547497D01*
X99158205Y-74429000D01*
X99036141Y-74429000D01*
X98961055Y-74425712D01*
X98902015Y-74412377D01*
X98852986Y-74385423D01*
X98849330Y-74382788D01*
X98799581Y-74338286D01*
X98764959Y-74284523D01*
X98743123Y-74214154D01*
X98731737Y-74119830D01*
X98728959Y-74013271D01*
X98923846Y-74013271D01*
X98923880Y-74031131D01*
X98925735Y-74111748D01*
X98931693Y-74164447D01*
X98943506Y-74198668D01*
X98962923Y-74223846D01*
X98964133Y-74225049D01*
X99011858Y-74257628D01*
X99058110Y-74254417D01*
X99110350Y-74214965D01*
X99123128Y-74201482D01*
X99141949Y-74173837D01*
X99152562Y-74137880D01*
X99157252Y-74083364D01*
X99158308Y-74000042D01*
X99157394Y-73949598D01*
X99147477Y-73857857D01*
X99124842Y-73797752D01*
X99087238Y-73764900D01*
X99032416Y-73754923D01*
X99009317Y-73757050D01*
X98969350Y-73778147D01*
X98942926Y-73825161D01*
X98928330Y-73902175D01*
X98923846Y-74013271D01*
X98728959Y-74013271D01*
X98728462Y-73994206D01*
X98729187Y-73902536D01*
X98732490Y-73833098D01*
X98739828Y-73784945D01*
X98752655Y-73748866D01*
X98772423Y-73715648D01*
X98790569Y-73690261D01*
X98856461Y-73621727D01*
X98931114Y-73584505D01*
X99024904Y-73572722D01*
X99132240Y-73584467D01*
X99225031Y-73626595D01*
X99298421Y-73700898D01*
X99303954Y-73708764D01*
X99316857Y-73729668D01*
X99326742Y-73753555D01*
X99334093Y-73785582D01*
X99339394Y-73830905D01*
X99343127Y-73894679D01*
X99345778Y-73982060D01*
X99346096Y-74000042D01*
X99347828Y-74098205D01*
G36*
X99347828Y-74098205D02*
G01*
X99349763Y-74248269D01*
X99350300Y-74291802D01*
X99352019Y-74437344D01*
X99352365Y-74548711D01*
X99350277Y-74629804D01*
X99344698Y-74684522D01*
X99334567Y-74716761D01*
X99318826Y-74730422D01*
X99296417Y-74729403D01*
X99266280Y-74717603D01*
X99227355Y-74698920D01*
X99219038Y-74694933D01*
X99184402Y-74675419D01*
X99166314Y-74652202D01*
X99159392Y-74613492D01*
X99158256Y-74547497D01*
X99158205Y-74429000D01*
X99036141Y-74429000D01*
X98961055Y-74425712D01*
X98902015Y-74412377D01*
X98852986Y-74385423D01*
X98849330Y-74382788D01*
X98799581Y-74338286D01*
X98764959Y-74284523D01*
X98743123Y-74214154D01*
X98731737Y-74119830D01*
X98728959Y-74013271D01*
X98923846Y-74013271D01*
X98923880Y-74031131D01*
X98925735Y-74111748D01*
X98931693Y-74164447D01*
X98943506Y-74198668D01*
X98962923Y-74223846D01*
X98964133Y-74225049D01*
X99011858Y-74257628D01*
X99058110Y-74254417D01*
X99110350Y-74214965D01*
X99123128Y-74201482D01*
X99141949Y-74173837D01*
X99152562Y-74137880D01*
X99157252Y-74083364D01*
X99158308Y-74000042D01*
X99157394Y-73949598D01*
X99147477Y-73857857D01*
X99124842Y-73797752D01*
X99087238Y-73764900D01*
X99032416Y-73754923D01*
X99009317Y-73757050D01*
X98969350Y-73778147D01*
X98942926Y-73825161D01*
X98928330Y-73902175D01*
X98923846Y-74013271D01*
X98728959Y-74013271D01*
X98728462Y-73994206D01*
X98729187Y-73902536D01*
X98732490Y-73833098D01*
X98739828Y-73784945D01*
X98752655Y-73748866D01*
X98772423Y-73715648D01*
X98790569Y-73690261D01*
X98856461Y-73621727D01*
X98931114Y-73584505D01*
X99024904Y-73572722D01*
X99132240Y-73584467D01*
X99225031Y-73626595D01*
X99298421Y-73700898D01*
X99303954Y-73708764D01*
X99316857Y-73729668D01*
X99326742Y-73753555D01*
X99334093Y-73785582D01*
X99339394Y-73830905D01*
X99343127Y-73894679D01*
X99345778Y-73982060D01*
X99346096Y-74000042D01*
X99347828Y-74098205D01*
G37*
X95717575Y-67287693D02*
X95853371Y-67287807D01*
X95955576Y-67288472D01*
X96029122Y-67290182D01*
X96078942Y-67293429D01*
X96109967Y-67298706D01*
X96127129Y-67306507D01*
X96135361Y-67317325D01*
X96139594Y-67331654D01*
X96139716Y-67332168D01*
X96146672Y-67365851D01*
X96159320Y-67430917D01*
X96176360Y-67520542D01*
X96196496Y-67627904D01*
X96218429Y-67746178D01*
X96220218Y-67755856D01*
X96242083Y-67870650D01*
X96262430Y-67971480D01*
X96279934Y-68052217D01*
X96293271Y-68106734D01*
X96301116Y-68128901D01*
X96301158Y-68128936D01*
X96325884Y-68141200D01*
X96376631Y-68161576D01*
X96442462Y-68185674D01*
X96446169Y-68186983D01*
X96530331Y-68218791D01*
X96628230Y-68258685D01*
X96719435Y-68298353D01*
X96869407Y-68366420D01*
X97201499Y-68139639D01*
X97224889Y-68123688D01*
X97325080Y-68055890D01*
X97414480Y-67996208D01*
X97487745Y-67948156D01*
X97539527Y-67915250D01*
X97564480Y-67901004D01*
X97581577Y-67904270D01*
X97620395Y-67929571D01*
X97680385Y-67979675D01*
X97763210Y-68055989D01*
X97870535Y-68159922D01*
X97880139Y-68169382D01*
X97965302Y-68254145D01*
X98040949Y-68330937D01*
X98102449Y-68394947D01*
X98145173Y-68441361D01*
X98164489Y-68465369D01*
X98164552Y-68465485D01*
X98167006Y-68483763D01*
X98157956Y-68513411D01*
X98135119Y-68558486D01*
X98096213Y-68623044D01*
X98038954Y-68711140D01*
X97961059Y-68826830D01*
X97947785Y-68846357D01*
X97880652Y-68945278D01*
X97821410Y-69032848D01*
X97773588Y-69103831D01*
X97740715Y-69152991D01*
X97726318Y-69175095D01*
X97725232Y-69179777D01*
X97732044Y-69214710D01*
X97752450Y-69271753D01*
X97783123Y-69341172D01*
X97824808Y-69431959D01*
X97871352Y-69539686D01*
X97910877Y-69637192D01*
X97920676Y-69662430D01*
X97946340Y-69726870D01*
X97965193Y-69771763D01*
X97973710Y-69788616D01*
X97983111Y-69789875D01*
X98025363Y-69797159D01*
X98094521Y-69809739D01*
X98183387Y-69826246D01*
X98284768Y-69845312D01*
X98391467Y-69865569D01*
X98496288Y-69885647D01*
X98592036Y-69904179D01*
X98671516Y-69919795D01*
X98727530Y-69931127D01*
X98752885Y-69936807D01*
X98757088Y-69938408D01*
X98767334Y-69947045D01*
X98774957Y-69965433D01*
X98780338Y-69998460D01*
X98783859Y-70051013D01*
X98785901Y-70127979D01*
X98786847Y-70234246D01*
X98787077Y-70374701D01*
X98787077Y-70801845D01*
X98684500Y-70822091D01*
X98672092Y-70824518D01*
X98606199Y-70837088D01*
X98515084Y-70854170D01*
X98409104Y-70873829D01*
X98298615Y-70894132D01*
X98255105Y-70902299D01*
X98157882Y-70922167D01*
X98076858Y-70940954D01*
X98019477Y-70956859D01*
X97993187Y-70968079D01*
X97981273Y-70986411D01*
X97959583Y-71034916D01*
X97937395Y-71097692D01*
X97929585Y-71121200D01*
X97900835Y-71198366D01*
X97863752Y-71289694D01*
X97824375Y-71380093D01*
X97803315Y-71427310D01*
X97773311Y-71497837D01*
X97752692Y-71550655D01*
X97745026Y-71576912D01*
X97745452Y-71578894D01*
X97759993Y-71606751D01*
X97792783Y-71660510D01*
X97840493Y-71734963D01*
X97899798Y-71824897D01*
X97967369Y-71925104D01*
X98189713Y-72251416D01*
X97897601Y-72544016D01*
X97869349Y-72572171D01*
X97782961Y-72656449D01*
X97705756Y-72729128D01*
X97642258Y-72786112D01*
X97596990Y-72823307D01*
X97574474Y-72836616D01*
X97550023Y-72826490D01*
X97498819Y-72797421D01*
X97426747Y-72752896D01*
X97339460Y-72696411D01*
X97242612Y-72631462D01*
X97147486Y-72567314D01*
X97061669Y-72510827D01*
X96991652Y-72466184D01*
X96942876Y-72436855D01*
X96920783Y-72426308D01*
X96919488Y-72426404D01*
X96890139Y-72436802D01*
X96838093Y-72461012D01*
X96773708Y-72494249D01*
X96773032Y-72494613D01*
X96687521Y-72537441D01*
X96628926Y-72558365D01*
X96592571Y-72558423D01*
X96573775Y-72538654D01*
X96565819Y-72519195D01*
X96544347Y-72467080D01*
X96511273Y-72386964D01*
X96468356Y-72283107D01*
X96417356Y-72159767D01*
X96360033Y-72021201D01*
X96298146Y-71871670D01*
X96242052Y-71735636D01*
X96184977Y-71596050D01*
X96134479Y-71471315D01*
X96092254Y-71365672D01*
X96059995Y-71283365D01*
X96039397Y-71228635D01*
X96032154Y-71205726D01*
X96045986Y-71184718D01*
X96084412Y-71149642D01*
X96138807Y-71108887D01*
X96269395Y-71002267D01*
X96386260Y-70866025D01*
X96471780Y-70716118D01*
X96525431Y-70556971D01*
X96546684Y-70393012D01*
X96535014Y-70228667D01*
X96489894Y-70068361D01*
X96410797Y-69916520D01*
X96297197Y-69777572D01*
X96237965Y-69723460D01*
X96096054Y-69627782D01*
X95944206Y-69565405D01*
X95786861Y-69534844D01*
X95628456Y-69534615D01*
X95473429Y-69563232D01*
X95326220Y-69619210D01*
X95191266Y-69701064D01*
X95073005Y-69807309D01*
X94975877Y-69936459D01*
X94904318Y-70087031D01*
X94862769Y-70257539D01*
X94855143Y-70339722D01*
X94865634Y-70517775D01*
X94912882Y-70686704D01*
X94995489Y-70843522D01*
X95112059Y-70985245D01*
X95261193Y-71108887D01*
X95313561Y-71147982D01*
X95352832Y-71183443D01*
X95367846Y-71205692D01*
X95361859Y-71225088D01*
X95342432Y-71277059D01*
X95311194Y-71357002D01*
X95269839Y-71460673D01*
X95220061Y-71583832D01*
X95163553Y-71722234D01*
X95102009Y-71871637D01*
X95046008Y-72007020D01*
X94988184Y-72146852D01*
X94936500Y-72271872D01*
X94892718Y-72377822D01*
X94858597Y-72460441D01*
X94835898Y-72515472D01*
X94826380Y-72538654D01*
X94826269Y-72538928D01*
X94807228Y-72558503D01*
X94770694Y-72558279D01*
X94711954Y-72537210D01*
X94626292Y-72494249D01*
X94619549Y-72490631D01*
X94555938Y-72458087D01*
X94505707Y-72435050D01*
X94479218Y-72426308D01*
X94457506Y-72436639D01*
X94408984Y-72465788D01*
X94339163Y-72510287D01*
X94253484Y-72566668D01*
X94157388Y-72631462D01*
X94062706Y-72694984D01*
X93975132Y-72751705D01*
X93902642Y-72796547D01*
X93850889Y-72826016D01*
X93825526Y-72836616D01*
X93821206Y-72835270D01*
X93791092Y-72814056D01*
X93739640Y-72770237D01*
X93671375Y-72707909D01*
X93590820Y-72631170D01*
X93502500Y-72544116D01*
X93210488Y-72251617D01*
X93665360Y-71582525D01*
X93596208Y-71432916D01*
X93596003Y-71432473D01*
X93554477Y-71337101D01*
X93512044Y-71230896D01*
X93477858Y-71136769D01*
X93472684Y-71121588D01*
X93446601Y-71051109D01*
X93423081Y-70996342D01*
X93406677Y-70968079D01*
X93399996Y-70964088D01*
X93359892Y-70950697D01*
X93291795Y-70933373D01*
X93203145Y-70913917D01*
X93101385Y-70894132D01*
X93070904Y-70888551D01*
X92960628Y-70868233D01*
X92857731Y-70849095D01*
X92772569Y-70833070D01*
X92715500Y-70822091D01*
X92612923Y-70801845D01*
X92612923Y-70374701D01*
X92612946Y-70322180D01*
X92613379Y-70194047D01*
X92614659Y-70098420D01*
X92617168Y-70030411D01*
X92621286Y-69985133D01*
X92627395Y-69957697D01*
X92635878Y-69943218D01*
X92647115Y-69936807D01*
X92657994Y-69934209D01*
X92702347Y-69925022D01*
X92773106Y-69910991D01*
X92863074Y-69893486D01*
X92965056Y-69873874D01*
X93071857Y-69853525D01*
X93176281Y-69833807D01*
X93271132Y-69816089D01*
X93349214Y-69801738D01*
X93403332Y-69792124D01*
X93426291Y-69788616D01*
X93427842Y-69786497D01*
X93440325Y-69759006D01*
X93461927Y-69706406D01*
X93489123Y-69637192D01*
X93526866Y-69543937D01*
X93573328Y-69436159D01*
X93616878Y-69341172D01*
X93626858Y-69319851D01*
X93654862Y-69253086D01*
X93671641Y-69201590D01*
X93673854Y-69175095D01*
X93672713Y-69173218D01*
X93654584Y-69145565D01*
X93618644Y-69091849D01*
X93568418Y-69017303D01*
X93507430Y-68927162D01*
X93439205Y-68826657D01*
X93362330Y-68712470D01*
X93304663Y-68623770D01*
X93265426Y-68558721D01*
X93242350Y-68513295D01*
X93233166Y-68483463D01*
X93235604Y-68465195D01*
X93236424Y-68463825D01*
X93258477Y-68437205D01*
X93303436Y-68388697D01*
X93366673Y-68323108D01*
X93443559Y-68245247D01*
X93529465Y-68159922D01*
X93618579Y-68073334D01*
X93705872Y-67991947D01*
X93770018Y-67937035D01*
X93812679Y-67907190D01*
X93835521Y-67901004D01*
X93838505Y-67902394D01*
X93869936Y-67921127D01*
X93926997Y-67957733D01*
X94004343Y-68008697D01*
X94096626Y-68070504D01*
X94198502Y-68139639D01*
X94530593Y-68366420D01*
X94680566Y-68298353D01*
X94684923Y-68296381D01*
X94777000Y-68256491D01*
X94874683Y-68216818D01*
X94957539Y-68185674D01*
X94957905Y-68185545D01*
X95023685Y-68161456D01*
X95074323Y-68141110D01*
X95098884Y-68128901D01*
X95099282Y-68128458D01*
X95107619Y-68103456D01*
X95121341Y-68046598D01*
X95139123Y-67964014D01*
X95159641Y-67861831D01*
X95181571Y-67746178D01*
X95182336Y-67742033D01*
X95204229Y-67624019D01*
X95224281Y-67517151D01*
X95241192Y-67428252D01*
X95253667Y-67364145D01*
X95260406Y-67331654D01*
X95260837Y-67329853D01*
X95265273Y-67315944D01*
X95274263Y-67305489D01*
X95292737Y-67297996D01*
X95325628Y-67292972D01*
X95377868Y-67289922D01*
X95454388Y-67288355D01*
X95560122Y-67287776D01*
X95700000Y-67287692D01*
X95717575Y-67287693D01*
G36*
X95717575Y-67287693D02*
G01*
X95853371Y-67287807D01*
X95955576Y-67288472D01*
X96029122Y-67290182D01*
X96078942Y-67293429D01*
X96109967Y-67298706D01*
X96127129Y-67306507D01*
X96135361Y-67317325D01*
X96139594Y-67331654D01*
X96139716Y-67332168D01*
X96146672Y-67365851D01*
X96159320Y-67430917D01*
X96176360Y-67520542D01*
X96196496Y-67627904D01*
X96218429Y-67746178D01*
X96220218Y-67755856D01*
X96242083Y-67870650D01*
X96262430Y-67971480D01*
X96279934Y-68052217D01*
X96293271Y-68106734D01*
X96301116Y-68128901D01*
X96301158Y-68128936D01*
X96325884Y-68141200D01*
X96376631Y-68161576D01*
X96442462Y-68185674D01*
X96446169Y-68186983D01*
X96530331Y-68218791D01*
X96628230Y-68258685D01*
X96719435Y-68298353D01*
X96869407Y-68366420D01*
X97201499Y-68139639D01*
X97224889Y-68123688D01*
X97325080Y-68055890D01*
X97414480Y-67996208D01*
X97487745Y-67948156D01*
X97539527Y-67915250D01*
X97564480Y-67901004D01*
X97581577Y-67904270D01*
X97620395Y-67929571D01*
X97680385Y-67979675D01*
X97763210Y-68055989D01*
X97870535Y-68159922D01*
X97880139Y-68169382D01*
X97965302Y-68254145D01*
X98040949Y-68330937D01*
X98102449Y-68394947D01*
X98145173Y-68441361D01*
X98164489Y-68465369D01*
X98164552Y-68465485D01*
X98167006Y-68483763D01*
X98157956Y-68513411D01*
X98135119Y-68558486D01*
X98096213Y-68623044D01*
X98038954Y-68711140D01*
X97961059Y-68826830D01*
X97947785Y-68846357D01*
X97880652Y-68945278D01*
X97821410Y-69032848D01*
X97773588Y-69103831D01*
X97740715Y-69152991D01*
X97726318Y-69175095D01*
X97725232Y-69179777D01*
X97732044Y-69214710D01*
X97752450Y-69271753D01*
X97783123Y-69341172D01*
X97824808Y-69431959D01*
X97871352Y-69539686D01*
X97910877Y-69637192D01*
X97920676Y-69662430D01*
X97946340Y-69726870D01*
X97965193Y-69771763D01*
X97973710Y-69788616D01*
X97983111Y-69789875D01*
X98025363Y-69797159D01*
X98094521Y-69809739D01*
X98183387Y-69826246D01*
X98284768Y-69845312D01*
X98391467Y-69865569D01*
X98496288Y-69885647D01*
X98592036Y-69904179D01*
X98671516Y-69919795D01*
X98727530Y-69931127D01*
X98752885Y-69936807D01*
X98757088Y-69938408D01*
X98767334Y-69947045D01*
X98774957Y-69965433D01*
X98780338Y-69998460D01*
X98783859Y-70051013D01*
X98785901Y-70127979D01*
X98786847Y-70234246D01*
X98787077Y-70374701D01*
X98787077Y-70801845D01*
X98684500Y-70822091D01*
X98672092Y-70824518D01*
X98606199Y-70837088D01*
X98515084Y-70854170D01*
X98409104Y-70873829D01*
X98298615Y-70894132D01*
X98255105Y-70902299D01*
X98157882Y-70922167D01*
X98076858Y-70940954D01*
X98019477Y-70956859D01*
X97993187Y-70968079D01*
X97981273Y-70986411D01*
X97959583Y-71034916D01*
X97937395Y-71097692D01*
X97929585Y-71121200D01*
X97900835Y-71198366D01*
X97863752Y-71289694D01*
X97824375Y-71380093D01*
X97803315Y-71427310D01*
X97773311Y-71497837D01*
X97752692Y-71550655D01*
X97745026Y-71576912D01*
X97745452Y-71578894D01*
X97759993Y-71606751D01*
X97792783Y-71660510D01*
X97840493Y-71734963D01*
X97899798Y-71824897D01*
X97967369Y-71925104D01*
X98189713Y-72251416D01*
X97897601Y-72544016D01*
X97869349Y-72572171D01*
X97782961Y-72656449D01*
X97705756Y-72729128D01*
X97642258Y-72786112D01*
X97596990Y-72823307D01*
X97574474Y-72836616D01*
X97550023Y-72826490D01*
X97498819Y-72797421D01*
X97426747Y-72752896D01*
X97339460Y-72696411D01*
X97242612Y-72631462D01*
X97147486Y-72567314D01*
X97061669Y-72510827D01*
X96991652Y-72466184D01*
X96942876Y-72436855D01*
X96920783Y-72426308D01*
X96919488Y-72426404D01*
X96890139Y-72436802D01*
X96838093Y-72461012D01*
X96773708Y-72494249D01*
X96773032Y-72494613D01*
X96687521Y-72537441D01*
X96628926Y-72558365D01*
X96592571Y-72558423D01*
X96573775Y-72538654D01*
X96565819Y-72519195D01*
X96544347Y-72467080D01*
X96511273Y-72386964D01*
X96468356Y-72283107D01*
X96417356Y-72159767D01*
X96360033Y-72021201D01*
X96298146Y-71871670D01*
X96242052Y-71735636D01*
X96184977Y-71596050D01*
X96134479Y-71471315D01*
X96092254Y-71365672D01*
X96059995Y-71283365D01*
X96039397Y-71228635D01*
X96032154Y-71205726D01*
X96045986Y-71184718D01*
X96084412Y-71149642D01*
X96138807Y-71108887D01*
X96269395Y-71002267D01*
X96386260Y-70866025D01*
X96471780Y-70716118D01*
X96525431Y-70556971D01*
X96546684Y-70393012D01*
X96535014Y-70228667D01*
X96489894Y-70068361D01*
X96410797Y-69916520D01*
X96297197Y-69777572D01*
X96237965Y-69723460D01*
X96096054Y-69627782D01*
X95944206Y-69565405D01*
X95786861Y-69534844D01*
X95628456Y-69534615D01*
X95473429Y-69563232D01*
X95326220Y-69619210D01*
X95191266Y-69701064D01*
X95073005Y-69807309D01*
X94975877Y-69936459D01*
X94904318Y-70087031D01*
X94862769Y-70257539D01*
X94855143Y-70339722D01*
X94865634Y-70517775D01*
X94912882Y-70686704D01*
X94995489Y-70843522D01*
X95112059Y-70985245D01*
X95261193Y-71108887D01*
X95313561Y-71147982D01*
X95352832Y-71183443D01*
X95367846Y-71205692D01*
X95361859Y-71225088D01*
X95342432Y-71277059D01*
X95311194Y-71357002D01*
X95269839Y-71460673D01*
X95220061Y-71583832D01*
X95163553Y-71722234D01*
X95102009Y-71871637D01*
X95046008Y-72007020D01*
X94988184Y-72146852D01*
X94936500Y-72271872D01*
X94892718Y-72377822D01*
X94858597Y-72460441D01*
X94835898Y-72515472D01*
X94826380Y-72538654D01*
X94826269Y-72538928D01*
X94807228Y-72558503D01*
X94770694Y-72558279D01*
X94711954Y-72537210D01*
X94626292Y-72494249D01*
X94619549Y-72490631D01*
X94555938Y-72458087D01*
X94505707Y-72435050D01*
X94479218Y-72426308D01*
X94457506Y-72436639D01*
X94408984Y-72465788D01*
X94339163Y-72510287D01*
X94253484Y-72566668D01*
X94157388Y-72631462D01*
X94062706Y-72694984D01*
X93975132Y-72751705D01*
X93902642Y-72796547D01*
X93850889Y-72826016D01*
X93825526Y-72836616D01*
X93821206Y-72835270D01*
X93791092Y-72814056D01*
X93739640Y-72770237D01*
X93671375Y-72707909D01*
X93590820Y-72631170D01*
X93502500Y-72544116D01*
X93210488Y-72251617D01*
X93665360Y-71582525D01*
X93596208Y-71432916D01*
X93596003Y-71432473D01*
X93554477Y-71337101D01*
X93512044Y-71230896D01*
X93477858Y-71136769D01*
X93472684Y-71121588D01*
X93446601Y-71051109D01*
X93423081Y-70996342D01*
X93406677Y-70968079D01*
X93399996Y-70964088D01*
X93359892Y-70950697D01*
X93291795Y-70933373D01*
X93203145Y-70913917D01*
X93101385Y-70894132D01*
X93070904Y-70888551D01*
X92960628Y-70868233D01*
X92857731Y-70849095D01*
X92772569Y-70833070D01*
X92715500Y-70822091D01*
X92612923Y-70801845D01*
X92612923Y-70374701D01*
X92612946Y-70322180D01*
X92613379Y-70194047D01*
X92614659Y-70098420D01*
X92617168Y-70030411D01*
X92621286Y-69985133D01*
X92627395Y-69957697D01*
X92635878Y-69943218D01*
X92647115Y-69936807D01*
X92657994Y-69934209D01*
X92702347Y-69925022D01*
X92773106Y-69910991D01*
X92863074Y-69893486D01*
X92965056Y-69873874D01*
X93071857Y-69853525D01*
X93176281Y-69833807D01*
X93271132Y-69816089D01*
X93349214Y-69801738D01*
X93403332Y-69792124D01*
X93426291Y-69788616D01*
X93427842Y-69786497D01*
X93440325Y-69759006D01*
X93461927Y-69706406D01*
X93489123Y-69637192D01*
X93526866Y-69543937D01*
X93573328Y-69436159D01*
X93616878Y-69341172D01*
X93626858Y-69319851D01*
X93654862Y-69253086D01*
X93671641Y-69201590D01*
X93673854Y-69175095D01*
X93672713Y-69173218D01*
X93654584Y-69145565D01*
X93618644Y-69091849D01*
X93568418Y-69017303D01*
X93507430Y-68927162D01*
X93439205Y-68826657D01*
X93362330Y-68712470D01*
X93304663Y-68623770D01*
X93265426Y-68558721D01*
X93242350Y-68513295D01*
X93233166Y-68483463D01*
X93235604Y-68465195D01*
X93236424Y-68463825D01*
X93258477Y-68437205D01*
X93303436Y-68388697D01*
X93366673Y-68323108D01*
X93443559Y-68245247D01*
X93529465Y-68159922D01*
X93618579Y-68073334D01*
X93705872Y-67991947D01*
X93770018Y-67937035D01*
X93812679Y-67907190D01*
X93835521Y-67901004D01*
X93838505Y-67902394D01*
X93869936Y-67921127D01*
X93926997Y-67957733D01*
X94004343Y-68008697D01*
X94096626Y-68070504D01*
X94198502Y-68139639D01*
X94530593Y-68366420D01*
X94680566Y-68298353D01*
X94684923Y-68296381D01*
X94777000Y-68256491D01*
X94874683Y-68216818D01*
X94957539Y-68185674D01*
X94957905Y-68185545D01*
X95023685Y-68161456D01*
X95074323Y-68141110D01*
X95098884Y-68128901D01*
X95099282Y-68128458D01*
X95107619Y-68103456D01*
X95121341Y-68046598D01*
X95139123Y-67964014D01*
X95159641Y-67861831D01*
X95181571Y-67746178D01*
X95182336Y-67742033D01*
X95204229Y-67624019D01*
X95224281Y-67517151D01*
X95241192Y-67428252D01*
X95253667Y-67364145D01*
X95260406Y-67331654D01*
X95260837Y-67329853D01*
X95265273Y-67315944D01*
X95274263Y-67305489D01*
X95292737Y-67297996D01*
X95325628Y-67292972D01*
X95377868Y-67289922D01*
X95454388Y-67288355D01*
X95560122Y-67287776D01*
X95700000Y-67287692D01*
X95717575Y-67287693D01*
G37*
M02*
