M48
; DRILL file {KiCad 8.0.8} date 2025-07-22T13:56:29-0700
; FORMAT={-:-/ absolute / inch / decimal}
; #@! TF.CreationDate,2025-07-22T13:56:29-07:00
; #@! TF.GenerationSoftware,Kicad,Pcbnew,8.0.8
; #@! TF.FileFunction,Plated,1,2,PTH
FMAT,2
INCH
; #@! TA.AperFunction,Plated,PTH,ViaDrill
T1C0.0098
; #@! TA.AperFunction,Plated,PTH,ViaDrill
T2C0.0118
; #@! TA.AperFunction,Plated,PTH,ComponentDrill
T3C0.0394
; #@! TA.AperFunction,Plated,PTH,ComponentDrill
T4C0.0630
; #@! TA.AperFunction,Plated,PTH,ComponentDrill
T5C0.1260
; #@! TA.AperFunction,Plated,PTH,ComponentDrill
T6C0.2559
%
G90
G05
T1
X3.6634Y-4.9846
X3.7626Y-4.9843
X3.8626Y-4.9843
X3.9626Y-4.9846
T2
X3.5657Y-4.9957
T3
X3.4173Y-4.8425
X3.4173Y-4.9425
X3.5173Y-4.8425
X3.5173Y-4.9425
X3.6173Y-4.8425
X3.6173Y-4.9425
X3.7173Y-4.8425
X3.7173Y-4.9425
X3.8173Y-4.8425
X3.8173Y-4.9425
X3.9173Y-4.8425
X3.9173Y-4.9425
X4.0173Y-4.8425
X4.0173Y-4.9425
X4.1173Y-4.8425
X4.1173Y-4.9425
T4
X1.7087Y-5.8051
X2.185Y-6.122
X2.3996Y-5.8051
X2.6575Y-6.122
X2.8295Y-5.8051
X3.5236Y-5.8051
X4.0236Y-5.8051
X4.7047Y-5.8051
X4.8425Y-6.122
X5.1378Y-5.8051
X5.315Y-6.122
X5.8189Y-5.8051
T5
X1.8701Y-1.2992
X1.8701Y-6.122
X5.6701Y-1.2992
X5.6701Y-6.122
T6
X2.063Y-5.5413
X3.1772Y-5.5413
X4.3583Y-5.5413
X5.4724Y-5.5413
M30
