G04 #@! TF.GenerationSoftware,KiCad,Pcbnew,8.0.5*
G04 #@! TF.CreationDate,2025-01-25T12:56:40-08:00*
G04 #@! TF.ProjectId,PBJ_EU,50424a5f-4555-42e6-9b69-6361645f7063,10.3*
G04 #@! TF.SameCoordinates,Original*
G04 #@! TF.FileFunction,Copper,L1,Top*
G04 #@! TF.FilePolarity,Positive*
%FSLAX46Y46*%
G04 Gerber Fmt 4.6, Leading zero omitted, Abs format (unit mm)*
G04 Created by KiCad (PCBNEW 8.0.5) date 2025-01-25 12:56:40*
%MOMM*%
%LPD*%
G01*
G04 APERTURE LIST*
G04 #@! TA.AperFunction,ComponentPad*
%ADD10C,5.000000*%
G04 #@! TD*
G04 #@! TA.AperFunction,ComponentPad*
%ADD11C,2.800000*%
G04 #@! TD*
G04 #@! TA.AperFunction,ComponentPad*
%ADD12C,7.500000*%
G04 #@! TD*
G04 #@! TA.AperFunction,ComponentPad*
%ADD13R,1.700000X1.700000*%
G04 #@! TD*
G04 #@! TA.AperFunction,ComponentPad*
%ADD14O,1.700000X1.700000*%
G04 #@! TD*
G04 #@! TA.AperFunction,ViaPad*
%ADD15C,0.400000*%
G04 #@! TD*
G04 #@! TA.AperFunction,ViaPad*
%ADD16C,0.600000*%
G04 #@! TD*
G04 #@! TA.AperFunction,Conductor*
%ADD17C,0.200000*%
G04 #@! TD*
G04 #@! TA.AperFunction,Conductor*
%ADD18C,0.600000*%
G04 #@! TD*
G04 APERTURE END LIST*
D10*
X47500000Y-155500000D03*
X144020000Y-155500000D03*
X144020000Y-33000000D03*
X47500000Y-33000000D03*
D11*
X60950000Y-147450000D03*
X119500000Y-147450000D03*
X130500000Y-147450000D03*
X147800000Y-147450000D03*
X43400000Y-147450000D03*
X102200000Y-147450000D03*
D12*
X52400000Y-140750000D03*
X139000000Y-140750000D03*
X110700000Y-140750000D03*
D13*
X86800000Y-125540000D03*
D14*
X86800000Y-123000000D03*
X89340000Y-125540000D03*
X89340000Y-123000000D03*
X91880000Y-125540000D03*
X91880000Y-123000000D03*
X94420000Y-125540000D03*
X94420000Y-123000000D03*
X96960000Y-125540000D03*
X96960000Y-123000000D03*
X99500000Y-125540000D03*
X99500000Y-123000000D03*
X102040000Y-125540000D03*
X102040000Y-123000000D03*
X104580000Y-125540000D03*
X104580000Y-123000000D03*
D11*
X123000000Y-155500000D03*
X135000000Y-155500000D03*
D12*
X80700000Y-140750000D03*
D11*
X55500000Y-155500000D03*
X89500000Y-147450000D03*
X67500000Y-155500000D03*
X71870000Y-147450000D03*
D15*
X93050000Y-126610000D03*
X95570000Y-126600000D03*
X98110000Y-126600000D03*
X100650000Y-126610000D03*
D16*
X90570000Y-126890000D03*
D17*
X91880000Y-123000000D02*
X93050000Y-124170000D01*
X93050000Y-124170000D02*
X93050000Y-126610000D01*
X94420000Y-123000000D02*
X95570000Y-124150000D01*
X95570000Y-124150000D02*
X95570000Y-126600000D01*
X98110000Y-126600000D02*
X98110000Y-124150000D01*
X98110000Y-124150000D02*
X96960000Y-123000000D01*
X100650000Y-124150000D02*
X99500000Y-123000000D01*
X100650000Y-124150000D02*
X100650000Y-126610000D01*
D18*
X89340000Y-123000000D02*
X89340000Y-125540000D01*
X88150000Y-126890000D02*
X90570000Y-126890000D01*
X86800000Y-125540000D02*
X88150000Y-126890000D01*
X86800000Y-123000000D02*
X86800000Y-125540000D01*
G04 #@! TA.AperFunction,Conductor*
G36*
X104834000Y-125109297D02*
G01*
X104772993Y-125074075D01*
X104645826Y-125040000D01*
X104514174Y-125040000D01*
X104387007Y-125074075D01*
X104326000Y-125109297D01*
X104326000Y-123430702D01*
X104387007Y-123465925D01*
X104514174Y-123500000D01*
X104645826Y-123500000D01*
X104772993Y-123465925D01*
X104834000Y-123430702D01*
X104834000Y-125109297D01*
G37*
G04 #@! TD.AperFunction*
G04 #@! TA.AperFunction,Conductor*
G36*
X45569980Y-30402379D02*
G01*
X45638092Y-30422412D01*
X45684560Y-30476088D01*
X45694632Y-30546367D01*
X45665110Y-30610934D01*
X45650914Y-30624901D01*
X45560215Y-30701005D01*
X46562577Y-31703368D01*
X46457670Y-31779588D01*
X46279588Y-31957670D01*
X46203368Y-32062577D01*
X45197744Y-31056953D01*
X45197743Y-31056953D01*
X45191831Y-31063220D01*
X45191827Y-31063224D01*
X44982604Y-31344260D01*
X44982586Y-31344287D01*
X44807398Y-31647721D01*
X44807395Y-31647726D01*
X44668617Y-31969452D01*
X44668615Y-31969458D01*
X44568120Y-32305131D01*
X44507274Y-32650205D01*
X44507274Y-32650211D01*
X44486902Y-33000000D01*
X44507274Y-33349788D01*
X44507274Y-33349794D01*
X44568120Y-33694868D01*
X44668615Y-34030541D01*
X44668617Y-34030547D01*
X44807395Y-34352273D01*
X44807398Y-34352278D01*
X44982586Y-34655712D01*
X44982596Y-34655728D01*
X45191836Y-34936785D01*
X45191840Y-34936790D01*
X45197741Y-34943045D01*
X45197744Y-34943045D01*
X46203367Y-33937421D01*
X46279588Y-34042330D01*
X46457670Y-34220412D01*
X46562576Y-34296631D01*
X45560215Y-35298992D01*
X45560216Y-35298993D01*
X45700696Y-35416871D01*
X45993449Y-35609417D01*
X46306577Y-35766676D01*
X46306582Y-35766678D01*
X46635825Y-35886513D01*
X46635830Y-35886514D01*
X46976779Y-35967321D01*
X46976785Y-35967322D01*
X47324801Y-36008000D01*
X47675199Y-36008000D01*
X48023214Y-35967322D01*
X48023220Y-35967321D01*
X48364169Y-35886514D01*
X48364174Y-35886513D01*
X48693417Y-35766678D01*
X48693422Y-35766676D01*
X49006550Y-35609417D01*
X49299299Y-35416874D01*
X49439783Y-35298992D01*
X48437422Y-34296631D01*
X48542330Y-34220412D01*
X48720412Y-34042330D01*
X48796631Y-33937422D01*
X49802255Y-34943046D01*
X49802256Y-34943045D01*
X49808164Y-34936785D01*
X49808166Y-34936782D01*
X50017395Y-34655739D01*
X50017413Y-34655712D01*
X50192601Y-34352278D01*
X50192604Y-34352273D01*
X50331382Y-34030547D01*
X50331384Y-34030541D01*
X50431879Y-33694868D01*
X50492725Y-33349794D01*
X50492725Y-33349788D01*
X50513097Y-33000000D01*
X50492725Y-32650211D01*
X50492725Y-32650205D01*
X50431879Y-32305131D01*
X50331384Y-31969458D01*
X50331382Y-31969452D01*
X50192604Y-31647726D01*
X50192601Y-31647721D01*
X50017413Y-31344287D01*
X50017403Y-31344271D01*
X49808165Y-31063216D01*
X49802255Y-31056952D01*
X48796631Y-32062576D01*
X48720412Y-31957670D01*
X48542330Y-31779588D01*
X48437422Y-31703367D01*
X49439783Y-30701006D01*
X49439783Y-30701005D01*
X49351162Y-30626644D01*
X49311835Y-30567534D01*
X49310709Y-30496546D01*
X49348140Y-30436219D01*
X49412245Y-30405705D01*
X49432198Y-30404122D01*
X142038081Y-30445931D01*
X142106189Y-30465963D01*
X142152657Y-30519639D01*
X142162729Y-30589918D01*
X142133207Y-30654485D01*
X142119012Y-30668451D01*
X142080215Y-30701005D01*
X143082577Y-31703368D01*
X142977670Y-31779588D01*
X142799588Y-31957670D01*
X142723368Y-32062577D01*
X141717744Y-31056953D01*
X141717743Y-31056953D01*
X141711831Y-31063220D01*
X141711827Y-31063224D01*
X141502604Y-31344260D01*
X141502586Y-31344287D01*
X141327398Y-31647721D01*
X141327395Y-31647726D01*
X141188617Y-31969452D01*
X141188615Y-31969458D01*
X141088120Y-32305131D01*
X141027274Y-32650205D01*
X141027274Y-32650211D01*
X141006902Y-33000000D01*
X141027274Y-33349788D01*
X141027274Y-33349794D01*
X141088120Y-33694868D01*
X141188615Y-34030541D01*
X141188617Y-34030547D01*
X141327395Y-34352273D01*
X141327398Y-34352278D01*
X141502586Y-34655712D01*
X141502596Y-34655728D01*
X141711836Y-34936785D01*
X141711840Y-34936790D01*
X141717741Y-34943045D01*
X141717744Y-34943045D01*
X142723367Y-33937421D01*
X142799588Y-34042330D01*
X142977670Y-34220412D01*
X143082576Y-34296631D01*
X142080215Y-35298992D01*
X142080216Y-35298993D01*
X142220696Y-35416871D01*
X142513449Y-35609417D01*
X142826577Y-35766676D01*
X142826582Y-35766678D01*
X143155825Y-35886513D01*
X143155830Y-35886514D01*
X143496779Y-35967321D01*
X143496785Y-35967322D01*
X143844801Y-36008000D01*
X144195199Y-36008000D01*
X144543214Y-35967322D01*
X144543220Y-35967321D01*
X144884169Y-35886514D01*
X144884174Y-35886513D01*
X145213417Y-35766678D01*
X145213422Y-35766676D01*
X145526550Y-35609417D01*
X145819299Y-35416874D01*
X145959783Y-35298992D01*
X144957422Y-34296631D01*
X145062330Y-34220412D01*
X145240412Y-34042330D01*
X145316631Y-33937422D01*
X146322255Y-34943046D01*
X146322256Y-34943045D01*
X146328164Y-34936785D01*
X146328166Y-34936782D01*
X146537395Y-34655739D01*
X146537413Y-34655712D01*
X146712601Y-34352278D01*
X146712604Y-34352273D01*
X146851382Y-34030547D01*
X146851384Y-34030541D01*
X146951879Y-33694868D01*
X147012725Y-33349794D01*
X147012725Y-33349788D01*
X147033097Y-33000000D01*
X147012725Y-32650211D01*
X147012725Y-32650205D01*
X146951879Y-32305131D01*
X146851384Y-31969458D01*
X146851382Y-31969452D01*
X146712604Y-31647726D01*
X146712601Y-31647721D01*
X146537413Y-31344287D01*
X146537403Y-31344271D01*
X146328165Y-31063216D01*
X146322255Y-31056952D01*
X145316631Y-32062576D01*
X145240412Y-31957670D01*
X145062330Y-31779588D01*
X144957422Y-31703367D01*
X145959783Y-30701006D01*
X145959783Y-30701005D01*
X145923121Y-30670242D01*
X145883795Y-30611133D01*
X145882669Y-30540145D01*
X145920100Y-30479817D01*
X145984205Y-30449304D01*
X146004157Y-30447721D01*
X150924106Y-30449943D01*
X150992218Y-30469976D01*
X151038686Y-30523652D01*
X151050049Y-30575894D01*
X151099950Y-158174007D01*
X151079975Y-158242135D01*
X151026337Y-158288649D01*
X150974007Y-158300056D01*
X145653981Y-158302452D01*
X145585851Y-158282481D01*
X145539334Y-158228846D01*
X145529198Y-158158577D01*
X145558662Y-158093982D01*
X145584686Y-158071180D01*
X145819299Y-157916874D01*
X145959783Y-157798992D01*
X144957422Y-156796631D01*
X145062330Y-156720412D01*
X145240412Y-156542330D01*
X145316631Y-156437422D01*
X146322255Y-157443046D01*
X146322256Y-157443045D01*
X146328164Y-157436785D01*
X146328166Y-157436782D01*
X146537395Y-157155739D01*
X146537413Y-157155712D01*
X146712601Y-156852278D01*
X146712604Y-156852273D01*
X146851382Y-156530547D01*
X146851384Y-156530541D01*
X146951879Y-156194868D01*
X147012725Y-155849794D01*
X147012725Y-155849788D01*
X147033097Y-155500000D01*
X147012725Y-155150211D01*
X147012725Y-155150205D01*
X146951879Y-154805131D01*
X146851384Y-154469458D01*
X146851382Y-154469452D01*
X146712604Y-154147726D01*
X146712601Y-154147721D01*
X146537413Y-153844287D01*
X146537403Y-153844271D01*
X146328165Y-153563216D01*
X146322255Y-153556952D01*
X145316631Y-154562576D01*
X145240412Y-154457670D01*
X145062330Y-154279588D01*
X144957422Y-154203367D01*
X145959783Y-153201006D01*
X145959783Y-153201005D01*
X145819298Y-153083125D01*
X145526550Y-152890582D01*
X145213422Y-152733323D01*
X145213417Y-152733321D01*
X144884174Y-152613486D01*
X144884169Y-152613485D01*
X144543220Y-152532678D01*
X144543214Y-152532677D01*
X144195199Y-152492000D01*
X143844801Y-152492000D01*
X143496785Y-152532677D01*
X143496779Y-152532678D01*
X143155830Y-152613485D01*
X143155825Y-152613486D01*
X142826582Y-152733321D01*
X142826577Y-152733323D01*
X142513449Y-152890582D01*
X142220701Y-153083125D01*
X142080215Y-153201005D01*
X143082577Y-154203368D01*
X142977670Y-154279588D01*
X142799588Y-154457670D01*
X142723368Y-154562577D01*
X141717744Y-153556953D01*
X141717743Y-153556953D01*
X141711831Y-153563220D01*
X141711827Y-153563224D01*
X141502604Y-153844260D01*
X141502586Y-153844287D01*
X141327398Y-154147721D01*
X141327395Y-154147726D01*
X141188617Y-154469452D01*
X141188615Y-154469458D01*
X141088120Y-154805131D01*
X141027274Y-155150205D01*
X141027274Y-155150211D01*
X141006902Y-155500000D01*
X141027274Y-155849788D01*
X141027274Y-155849794D01*
X141088120Y-156194868D01*
X141188615Y-156530541D01*
X141188617Y-156530547D01*
X141327395Y-156852273D01*
X141327398Y-156852278D01*
X141502586Y-157155712D01*
X141502596Y-157155728D01*
X141711836Y-157436785D01*
X141711840Y-157436790D01*
X141717741Y-157443045D01*
X141717744Y-157443045D01*
X142723367Y-156437421D01*
X142799588Y-156542330D01*
X142977670Y-156720412D01*
X143082576Y-156796631D01*
X142080215Y-157798992D01*
X142080216Y-157798993D01*
X142220699Y-157916874D01*
X142220703Y-157916877D01*
X142457548Y-158072652D01*
X142503471Y-158126796D01*
X142512831Y-158197173D01*
X142482656Y-158261438D01*
X142422528Y-158299188D01*
X142388367Y-158303923D01*
X49067142Y-158345960D01*
X48999012Y-158325989D01*
X48952495Y-158272354D01*
X48942359Y-158202085D01*
X48971823Y-158137490D01*
X49004095Y-158110835D01*
X49006548Y-158109418D01*
X49299299Y-157916874D01*
X49439783Y-157798992D01*
X48437422Y-156796631D01*
X48542330Y-156720412D01*
X48720412Y-156542330D01*
X48796631Y-156437422D01*
X49802255Y-157443046D01*
X49802256Y-157443045D01*
X49808164Y-157436785D01*
X49808166Y-157436782D01*
X50017395Y-157155739D01*
X50017413Y-157155712D01*
X50192601Y-156852278D01*
X50192604Y-156852273D01*
X50331382Y-156530547D01*
X50331384Y-156530541D01*
X50431879Y-156194868D01*
X50492725Y-155849794D01*
X50492725Y-155849788D01*
X50513097Y-155500000D01*
X53587126Y-155500000D01*
X53606596Y-155772233D01*
X53664608Y-156038910D01*
X53664608Y-156038911D01*
X53759988Y-156294636D01*
X53890785Y-156534173D01*
X53983184Y-156657605D01*
X54782496Y-155858293D01*
X54791049Y-155878942D01*
X54878599Y-156009970D01*
X54990030Y-156121401D01*
X55121058Y-156208951D01*
X55141705Y-156217503D01*
X54342393Y-157016814D01*
X54465822Y-157109211D01*
X54705364Y-157240011D01*
X54705363Y-157240011D01*
X54961088Y-157335391D01*
X55227767Y-157393403D01*
X55227765Y-157393403D01*
X55500000Y-157412873D01*
X55772233Y-157393403D01*
X56038910Y-157335391D01*
X56038911Y-157335391D01*
X56294636Y-157240011D01*
X56534177Y-157109212D01*
X56657605Y-157016814D01*
X55858294Y-156217503D01*
X55878942Y-156208951D01*
X56009970Y-156121401D01*
X56121401Y-156009970D01*
X56208951Y-155878942D01*
X56217503Y-155858294D01*
X57016814Y-156657605D01*
X57109212Y-156534177D01*
X57240011Y-156294636D01*
X57335391Y-156038911D01*
X57335391Y-156038910D01*
X57393403Y-155772233D01*
X57412873Y-155500000D01*
X65587126Y-155500000D01*
X65606596Y-155772233D01*
X65664608Y-156038910D01*
X65664608Y-156038911D01*
X65759988Y-156294636D01*
X65890785Y-156534173D01*
X65983184Y-156657605D01*
X66782496Y-155858293D01*
X66791049Y-155878942D01*
X66878599Y-156009970D01*
X66990030Y-156121401D01*
X67121058Y-156208951D01*
X67141705Y-156217503D01*
X66342393Y-157016814D01*
X66465822Y-157109211D01*
X66705364Y-157240011D01*
X66705363Y-157240011D01*
X66961088Y-157335391D01*
X67227767Y-157393403D01*
X67227765Y-157393403D01*
X67500000Y-157412873D01*
X67772233Y-157393403D01*
X68038910Y-157335391D01*
X68038911Y-157335391D01*
X68294636Y-157240011D01*
X68534177Y-157109212D01*
X68657605Y-157016814D01*
X67858294Y-156217503D01*
X67878942Y-156208951D01*
X68009970Y-156121401D01*
X68121401Y-156009970D01*
X68208951Y-155878942D01*
X68217503Y-155858294D01*
X69016814Y-156657605D01*
X69109212Y-156534177D01*
X69240011Y-156294636D01*
X69335391Y-156038911D01*
X69335391Y-156038910D01*
X69393403Y-155772233D01*
X69412873Y-155500000D01*
X121087126Y-155500000D01*
X121106596Y-155772233D01*
X121164608Y-156038910D01*
X121164608Y-156038911D01*
X121259988Y-156294636D01*
X121390785Y-156534173D01*
X121483184Y-156657605D01*
X122282496Y-155858293D01*
X122291049Y-155878942D01*
X122378599Y-156009970D01*
X122490030Y-156121401D01*
X122621058Y-156208951D01*
X122641705Y-156217503D01*
X121842393Y-157016814D01*
X121965822Y-157109211D01*
X122205364Y-157240011D01*
X122205363Y-157240011D01*
X122461088Y-157335391D01*
X122727767Y-157393403D01*
X122727765Y-157393403D01*
X123000000Y-157412873D01*
X123272233Y-157393403D01*
X123538910Y-157335391D01*
X123538911Y-157335391D01*
X123794636Y-157240011D01*
X124034177Y-157109212D01*
X124157605Y-157016814D01*
X123358294Y-156217503D01*
X123378942Y-156208951D01*
X123509970Y-156121401D01*
X123621401Y-156009970D01*
X123708951Y-155878942D01*
X123717503Y-155858294D01*
X124516814Y-156657605D01*
X124609212Y-156534177D01*
X124740011Y-156294636D01*
X124835391Y-156038911D01*
X124835391Y-156038910D01*
X124893403Y-155772233D01*
X124912873Y-155500000D01*
X133087126Y-155500000D01*
X133106596Y-155772233D01*
X133164608Y-156038910D01*
X133164608Y-156038911D01*
X133259988Y-156294636D01*
X133390785Y-156534173D01*
X133483184Y-156657605D01*
X134282496Y-155858293D01*
X134291049Y-155878942D01*
X134378599Y-156009970D01*
X134490030Y-156121401D01*
X134621058Y-156208951D01*
X134641705Y-156217503D01*
X133842393Y-157016814D01*
X133965822Y-157109211D01*
X134205364Y-157240011D01*
X134205363Y-157240011D01*
X134461088Y-157335391D01*
X134727767Y-157393403D01*
X134727765Y-157393403D01*
X135000000Y-157412873D01*
X135272233Y-157393403D01*
X135538910Y-157335391D01*
X135538911Y-157335391D01*
X135794636Y-157240011D01*
X136034177Y-157109212D01*
X136157605Y-157016814D01*
X135358294Y-156217503D01*
X135378942Y-156208951D01*
X135509970Y-156121401D01*
X135621401Y-156009970D01*
X135708951Y-155878942D01*
X135717503Y-155858294D01*
X136516814Y-156657605D01*
X136609212Y-156534177D01*
X136740011Y-156294636D01*
X136835391Y-156038911D01*
X136835391Y-156038910D01*
X136893403Y-155772233D01*
X136912873Y-155500000D01*
X136893403Y-155227766D01*
X136835391Y-154961089D01*
X136835391Y-154961088D01*
X136740011Y-154705363D01*
X136609211Y-154465822D01*
X136516814Y-154342394D01*
X136516814Y-154342393D01*
X135717503Y-155141704D01*
X135708951Y-155121058D01*
X135621401Y-154990030D01*
X135509970Y-154878599D01*
X135378942Y-154791049D01*
X135358294Y-154782496D01*
X136157605Y-153983184D01*
X136034173Y-153890785D01*
X135794635Y-153759988D01*
X135794636Y-153759988D01*
X135538911Y-153664608D01*
X135272232Y-153606596D01*
X135272234Y-153606596D01*
X135000000Y-153587126D01*
X134727766Y-153606596D01*
X134461089Y-153664608D01*
X134461088Y-153664608D01*
X134205363Y-153759988D01*
X133965823Y-153890787D01*
X133842394Y-153983183D01*
X133842393Y-153983184D01*
X134641705Y-154782496D01*
X134621058Y-154791049D01*
X134490030Y-154878599D01*
X134378599Y-154990030D01*
X134291049Y-155121058D01*
X134282496Y-155141705D01*
X133483184Y-154342393D01*
X133483183Y-154342394D01*
X133390787Y-154465823D01*
X133259988Y-154705363D01*
X133164608Y-154961088D01*
X133164608Y-154961089D01*
X133106596Y-155227766D01*
X133087126Y-155500000D01*
X124912873Y-155500000D01*
X124893403Y-155227766D01*
X124835391Y-154961089D01*
X124835391Y-154961088D01*
X124740011Y-154705363D01*
X124609211Y-154465822D01*
X124516814Y-154342394D01*
X124516814Y-154342393D01*
X123717503Y-155141704D01*
X123708951Y-155121058D01*
X123621401Y-154990030D01*
X123509970Y-154878599D01*
X123378942Y-154791049D01*
X123358294Y-154782496D01*
X124157605Y-153983184D01*
X124034173Y-153890785D01*
X123794635Y-153759988D01*
X123794636Y-153759988D01*
X123538911Y-153664608D01*
X123272232Y-153606596D01*
X123272234Y-153606596D01*
X123000000Y-153587126D01*
X122727766Y-153606596D01*
X122461089Y-153664608D01*
X122461088Y-153664608D01*
X122205363Y-153759988D01*
X121965823Y-153890787D01*
X121842394Y-153983183D01*
X121842393Y-153983184D01*
X122641705Y-154782496D01*
X122621058Y-154791049D01*
X122490030Y-154878599D01*
X122378599Y-154990030D01*
X122291049Y-155121058D01*
X122282496Y-155141705D01*
X121483184Y-154342393D01*
X121483183Y-154342394D01*
X121390787Y-154465823D01*
X121259988Y-154705363D01*
X121164608Y-154961088D01*
X121164608Y-154961089D01*
X121106596Y-155227766D01*
X121087126Y-155500000D01*
X69412873Y-155500000D01*
X69393403Y-155227766D01*
X69335391Y-154961089D01*
X69335391Y-154961088D01*
X69240011Y-154705363D01*
X69109211Y-154465822D01*
X69016814Y-154342394D01*
X69016814Y-154342393D01*
X68217503Y-155141704D01*
X68208951Y-155121058D01*
X68121401Y-154990030D01*
X68009970Y-154878599D01*
X67878942Y-154791049D01*
X67858294Y-154782496D01*
X68657605Y-153983184D01*
X68534173Y-153890785D01*
X68294635Y-153759988D01*
X68294636Y-153759988D01*
X68038911Y-153664608D01*
X67772232Y-153606596D01*
X67772234Y-153606596D01*
X67500000Y-153587126D01*
X67227766Y-153606596D01*
X66961089Y-153664608D01*
X66961088Y-153664608D01*
X66705363Y-153759988D01*
X66465823Y-153890787D01*
X66342394Y-153983183D01*
X66342393Y-153983184D01*
X67141705Y-154782496D01*
X67121058Y-154791049D01*
X66990030Y-154878599D01*
X66878599Y-154990030D01*
X66791049Y-155121058D01*
X66782496Y-155141705D01*
X65983184Y-154342393D01*
X65983183Y-154342394D01*
X65890787Y-154465823D01*
X65759988Y-154705363D01*
X65664608Y-154961088D01*
X65664608Y-154961089D01*
X65606596Y-155227766D01*
X65587126Y-155500000D01*
X57412873Y-155500000D01*
X57393403Y-155227766D01*
X57335391Y-154961089D01*
X57335391Y-154961088D01*
X57240011Y-154705363D01*
X57109211Y-154465822D01*
X57016814Y-154342394D01*
X57016814Y-154342393D01*
X56217503Y-155141704D01*
X56208951Y-155121058D01*
X56121401Y-154990030D01*
X56009970Y-154878599D01*
X55878942Y-154791049D01*
X55858294Y-154782496D01*
X56657605Y-153983184D01*
X56534173Y-153890785D01*
X56294635Y-153759988D01*
X56294636Y-153759988D01*
X56038911Y-153664608D01*
X55772232Y-153606596D01*
X55772234Y-153606596D01*
X55500000Y-153587126D01*
X55227766Y-153606596D01*
X54961089Y-153664608D01*
X54961088Y-153664608D01*
X54705363Y-153759988D01*
X54465823Y-153890787D01*
X54342394Y-153983183D01*
X54342393Y-153983184D01*
X55141705Y-154782496D01*
X55121058Y-154791049D01*
X54990030Y-154878599D01*
X54878599Y-154990030D01*
X54791049Y-155121058D01*
X54782496Y-155141705D01*
X53983184Y-154342393D01*
X53983183Y-154342394D01*
X53890787Y-154465823D01*
X53759988Y-154705363D01*
X53664608Y-154961088D01*
X53664608Y-154961089D01*
X53606596Y-155227766D01*
X53587126Y-155500000D01*
X50513097Y-155500000D01*
X50492725Y-155150211D01*
X50492725Y-155150205D01*
X50431879Y-154805131D01*
X50331384Y-154469458D01*
X50331382Y-154469452D01*
X50192604Y-154147726D01*
X50192601Y-154147721D01*
X50017413Y-153844287D01*
X50017403Y-153844271D01*
X49808165Y-153563216D01*
X49802255Y-153556952D01*
X48796631Y-154562576D01*
X48720412Y-154457670D01*
X48542330Y-154279588D01*
X48437422Y-154203367D01*
X49439783Y-153201006D01*
X49439783Y-153201005D01*
X49299298Y-153083125D01*
X49006550Y-152890582D01*
X48693422Y-152733323D01*
X48693417Y-152733321D01*
X48364174Y-152613486D01*
X48364169Y-152613485D01*
X48023220Y-152532678D01*
X48023214Y-152532677D01*
X47675199Y-152492000D01*
X47324801Y-152492000D01*
X46976785Y-152532677D01*
X46976779Y-152532678D01*
X46635830Y-152613485D01*
X46635825Y-152613486D01*
X46306582Y-152733321D01*
X46306577Y-152733323D01*
X45993449Y-152890582D01*
X45700701Y-153083125D01*
X45560215Y-153201005D01*
X46562577Y-154203368D01*
X46457670Y-154279588D01*
X46279588Y-154457670D01*
X46203368Y-154562577D01*
X45197744Y-153556953D01*
X45197743Y-153556953D01*
X45191831Y-153563220D01*
X45191827Y-153563224D01*
X44982604Y-153844260D01*
X44982586Y-153844287D01*
X44807398Y-154147721D01*
X44807395Y-154147726D01*
X44668617Y-154469452D01*
X44668615Y-154469458D01*
X44568120Y-154805131D01*
X44507274Y-155150205D01*
X44507274Y-155150211D01*
X44486902Y-155500000D01*
X44507274Y-155849788D01*
X44507274Y-155849794D01*
X44568120Y-156194868D01*
X44668615Y-156530541D01*
X44668617Y-156530547D01*
X44807395Y-156852273D01*
X44807398Y-156852278D01*
X44982586Y-157155712D01*
X44982596Y-157155728D01*
X45191836Y-157436785D01*
X45191840Y-157436790D01*
X45197741Y-157443045D01*
X45197744Y-157443045D01*
X46203367Y-156437421D01*
X46279588Y-156542330D01*
X46457670Y-156720412D01*
X46562576Y-156796631D01*
X45560215Y-157798992D01*
X45560216Y-157798993D01*
X45700696Y-157916871D01*
X45993459Y-158109424D01*
X45996624Y-158111251D01*
X45995989Y-158112349D01*
X46044052Y-158157201D01*
X46061530Y-158226013D01*
X46039032Y-158293350D01*
X45983700Y-158337834D01*
X45935673Y-158347370D01*
X40226254Y-158349943D01*
X40158124Y-158329972D01*
X40111607Y-158276337D01*
X40100197Y-158223746D01*
X40100374Y-158110835D01*
X40117038Y-147450000D01*
X41486625Y-147450000D01*
X41506100Y-147722305D01*
X41564127Y-147989051D01*
X41564127Y-147989052D01*
X41659532Y-148244843D01*
X41790369Y-148484452D01*
X41953963Y-148702988D01*
X41953966Y-148702991D01*
X41953968Y-148702994D01*
X42147006Y-148896032D01*
X42365551Y-149059633D01*
X42605155Y-149190467D01*
X42860940Y-149285870D01*
X42860943Y-149285870D01*
X42860947Y-149285872D01*
X43015322Y-149319454D01*
X43127698Y-149343900D01*
X43400000Y-149363375D01*
X43672302Y-149343900D01*
X43939051Y-149285872D01*
X43939052Y-149285872D01*
X43939053Y-149285871D01*
X43939060Y-149285870D01*
X44194845Y-149190467D01*
X44434449Y-149059633D01*
X44652994Y-148896032D01*
X44846032Y-148702994D01*
X45009633Y-148484449D01*
X45140467Y-148244845D01*
X45235870Y-147989060D01*
X45293900Y-147722302D01*
X45313375Y-147450000D01*
X45293900Y-147177698D01*
X45235870Y-146910940D01*
X45140467Y-146655155D01*
X45009633Y-146415551D01*
X44846032Y-146197006D01*
X44652994Y-146003968D01*
X44652991Y-146003966D01*
X44652988Y-146003963D01*
X44634334Y-145989999D01*
X50940000Y-145989999D01*
X50940000Y-148959999D01*
X50940000Y-148960000D01*
X53820000Y-148940000D01*
X53825017Y-147450000D01*
X59036625Y-147450000D01*
X59056100Y-147722305D01*
X59114127Y-147989051D01*
X59114127Y-147989052D01*
X59209532Y-148244843D01*
X59340369Y-148484452D01*
X59503963Y-148702988D01*
X59503966Y-148702991D01*
X59503968Y-148702994D01*
X59697006Y-148896032D01*
X59915551Y-149059633D01*
X60155155Y-149190467D01*
X60410940Y-149285870D01*
X60410943Y-149285870D01*
X60410947Y-149285872D01*
X60565322Y-149319454D01*
X60677698Y-149343900D01*
X60950000Y-149363375D01*
X61222302Y-149343900D01*
X61489051Y-149285872D01*
X61489052Y-149285872D01*
X61489053Y-149285871D01*
X61489060Y-149285870D01*
X61744845Y-149190467D01*
X61984449Y-149059633D01*
X62202994Y-148896032D01*
X62396032Y-148702994D01*
X62559633Y-148484449D01*
X62690467Y-148244845D01*
X62785870Y-147989060D01*
X62843900Y-147722302D01*
X62863375Y-147450000D01*
X69956625Y-147450000D01*
X69976100Y-147722305D01*
X70034127Y-147989051D01*
X70034127Y-147989052D01*
X70129532Y-148244843D01*
X70260369Y-148484452D01*
X70423963Y-148702988D01*
X70423966Y-148702991D01*
X70423968Y-148702994D01*
X70617006Y-148896032D01*
X70835551Y-149059633D01*
X71075155Y-149190467D01*
X71330940Y-149285870D01*
X71330943Y-149285870D01*
X71330947Y-149285872D01*
X71485322Y-149319454D01*
X71597698Y-149343900D01*
X71870000Y-149363375D01*
X72142302Y-149343900D01*
X72409051Y-149285872D01*
X72409052Y-149285872D01*
X72409053Y-149285871D01*
X72409060Y-149285870D01*
X72664845Y-149190467D01*
X72904449Y-149059633D01*
X73122994Y-148896032D01*
X73316032Y-148702994D01*
X73479633Y-148484449D01*
X73610467Y-148244845D01*
X73705870Y-147989060D01*
X73763900Y-147722302D01*
X73783375Y-147450000D01*
X73763900Y-147177698D01*
X73705870Y-146910940D01*
X73610467Y-146655155D01*
X73479633Y-146415551D01*
X73316032Y-146197006D01*
X73122994Y-146003968D01*
X73122991Y-146003966D01*
X73122988Y-146003963D01*
X73104334Y-145989999D01*
X79240000Y-145989999D01*
X79240000Y-148959999D01*
X79240000Y-148960000D01*
X82120000Y-148940000D01*
X82125017Y-147450000D01*
X87586625Y-147450000D01*
X87606100Y-147722305D01*
X87664127Y-147989051D01*
X87664127Y-147989052D01*
X87759532Y-148244843D01*
X87890369Y-148484452D01*
X88053963Y-148702988D01*
X88053966Y-148702991D01*
X88053968Y-148702994D01*
X88247006Y-148896032D01*
X88465551Y-149059633D01*
X88705155Y-149190467D01*
X88960940Y-149285870D01*
X88960943Y-149285870D01*
X88960947Y-149285872D01*
X89115322Y-149319454D01*
X89227698Y-149343900D01*
X89500000Y-149363375D01*
X89772302Y-149343900D01*
X90039051Y-149285872D01*
X90039052Y-149285872D01*
X90039053Y-149285871D01*
X90039060Y-149285870D01*
X90294845Y-149190467D01*
X90534449Y-149059633D01*
X90752994Y-148896032D01*
X90946032Y-148702994D01*
X91109633Y-148484449D01*
X91240467Y-148244845D01*
X91335870Y-147989060D01*
X91393900Y-147722302D01*
X91413375Y-147450000D01*
X100286625Y-147450000D01*
X100306100Y-147722305D01*
X100364127Y-147989051D01*
X100364127Y-147989052D01*
X100459532Y-148244843D01*
X100590369Y-148484452D01*
X100753963Y-148702988D01*
X100753966Y-148702991D01*
X100753968Y-148702994D01*
X100947006Y-148896032D01*
X101165551Y-149059633D01*
X101405155Y-149190467D01*
X101660940Y-149285870D01*
X101660943Y-149285870D01*
X101660947Y-149285872D01*
X101815322Y-149319454D01*
X101927698Y-149343900D01*
X102200000Y-149363375D01*
X102472302Y-149343900D01*
X102739051Y-149285872D01*
X102739052Y-149285872D01*
X102739053Y-149285871D01*
X102739060Y-149285870D01*
X102994845Y-149190467D01*
X103234449Y-149059633D01*
X103452994Y-148896032D01*
X103646032Y-148702994D01*
X103809633Y-148484449D01*
X103940467Y-148244845D01*
X104035870Y-147989060D01*
X104093900Y-147722302D01*
X104113375Y-147450000D01*
X104093900Y-147177698D01*
X104035870Y-146910940D01*
X103940467Y-146655155D01*
X103809633Y-146415551D01*
X103646032Y-146197006D01*
X103452994Y-146003968D01*
X103452991Y-146003966D01*
X103452988Y-146003963D01*
X103434334Y-145989999D01*
X109240000Y-145989999D01*
X109240000Y-148959999D01*
X109240000Y-148960000D01*
X112120000Y-148940000D01*
X112125017Y-147450000D01*
X117586625Y-147450000D01*
X117606100Y-147722305D01*
X117664127Y-147989051D01*
X117664127Y-147989052D01*
X117759532Y-148244843D01*
X117890369Y-148484452D01*
X118053963Y-148702988D01*
X118053966Y-148702991D01*
X118053968Y-148702994D01*
X118247006Y-148896032D01*
X118465551Y-149059633D01*
X118705155Y-149190467D01*
X118960940Y-149285870D01*
X118960943Y-149285870D01*
X118960947Y-149285872D01*
X119115322Y-149319454D01*
X119227698Y-149343900D01*
X119500000Y-149363375D01*
X119772302Y-149343900D01*
X120039051Y-149285872D01*
X120039052Y-149285872D01*
X120039053Y-149285871D01*
X120039060Y-149285870D01*
X120294845Y-149190467D01*
X120534449Y-149059633D01*
X120752994Y-148896032D01*
X120946032Y-148702994D01*
X121109633Y-148484449D01*
X121240467Y-148244845D01*
X121335870Y-147989060D01*
X121393900Y-147722302D01*
X121413375Y-147450000D01*
X128586625Y-147450000D01*
X128606100Y-147722305D01*
X128664127Y-147989051D01*
X128664127Y-147989052D01*
X128759532Y-148244843D01*
X128890369Y-148484452D01*
X129053963Y-148702988D01*
X129053966Y-148702991D01*
X129053968Y-148702994D01*
X129247006Y-148896032D01*
X129465551Y-149059633D01*
X129705155Y-149190467D01*
X129960940Y-149285870D01*
X129960943Y-149285870D01*
X129960947Y-149285872D01*
X130115322Y-149319454D01*
X130227698Y-149343900D01*
X130500000Y-149363375D01*
X130772302Y-149343900D01*
X131039051Y-149285872D01*
X131039052Y-149285872D01*
X131039053Y-149285871D01*
X131039060Y-149285870D01*
X131294845Y-149190467D01*
X131534449Y-149059633D01*
X131752994Y-148896032D01*
X131946032Y-148702994D01*
X132109633Y-148484449D01*
X132240467Y-148244845D01*
X132335870Y-147989060D01*
X132393900Y-147722302D01*
X132413375Y-147450000D01*
X132393900Y-147177698D01*
X132335870Y-146910940D01*
X132240467Y-146655155D01*
X132109633Y-146415551D01*
X131946032Y-146197006D01*
X131752994Y-146003968D01*
X131752991Y-146003966D01*
X131752988Y-146003963D01*
X131734334Y-145989999D01*
X137540000Y-145989999D01*
X137540000Y-148959999D01*
X137540000Y-148960000D01*
X140420000Y-148940000D01*
X140425017Y-147450000D01*
X145886625Y-147450000D01*
X145906100Y-147722305D01*
X145964127Y-147989051D01*
X145964127Y-147989052D01*
X146059532Y-148244843D01*
X146190369Y-148484452D01*
X146353963Y-148702988D01*
X146353966Y-148702991D01*
X146353968Y-148702994D01*
X146547006Y-148896032D01*
X146765551Y-149059633D01*
X147005155Y-149190467D01*
X147260940Y-149285870D01*
X147260943Y-149285870D01*
X147260947Y-149285872D01*
X147415322Y-149319454D01*
X147527698Y-149343900D01*
X147800000Y-149363375D01*
X148072302Y-149343900D01*
X148339051Y-149285872D01*
X148339052Y-149285872D01*
X148339053Y-149285871D01*
X148339060Y-149285870D01*
X148594845Y-149190467D01*
X148834449Y-149059633D01*
X149052994Y-148896032D01*
X149246032Y-148702994D01*
X149409633Y-148484449D01*
X149540467Y-148244845D01*
X149635870Y-147989060D01*
X149693900Y-147722302D01*
X149713375Y-147450000D01*
X149693900Y-147177698D01*
X149635870Y-146910940D01*
X149540467Y-146655155D01*
X149409633Y-146415551D01*
X149246032Y-146197006D01*
X149052994Y-146003968D01*
X149052991Y-146003966D01*
X149052988Y-146003963D01*
X148834452Y-145840369D01*
X148834450Y-145840368D01*
X148834449Y-145840367D01*
X148594845Y-145709533D01*
X148594844Y-145709532D01*
X148339052Y-145614127D01*
X148072304Y-145556100D01*
X148072306Y-145556100D01*
X147800000Y-145536625D01*
X147527694Y-145556100D01*
X147260948Y-145614127D01*
X147260947Y-145614127D01*
X147005156Y-145709532D01*
X146765547Y-145840369D01*
X146547011Y-146003963D01*
X146547002Y-146003971D01*
X146353971Y-146197002D01*
X146353963Y-146197011D01*
X146190369Y-146415547D01*
X146059532Y-146655156D01*
X145964127Y-146910947D01*
X145964127Y-146910948D01*
X145906100Y-147177694D01*
X145886625Y-147450000D01*
X140425017Y-147450000D01*
X140430000Y-145970000D01*
X140429999Y-145969999D01*
X137540000Y-145989999D01*
X131734334Y-145989999D01*
X131534452Y-145840369D01*
X131534450Y-145840368D01*
X131534449Y-145840367D01*
X131294845Y-145709533D01*
X131294844Y-145709532D01*
X131039052Y-145614127D01*
X130772304Y-145556100D01*
X130772306Y-145556100D01*
X130500000Y-145536625D01*
X130227694Y-145556100D01*
X129960948Y-145614127D01*
X129960947Y-145614127D01*
X129705156Y-145709532D01*
X129465547Y-145840369D01*
X129247011Y-146003963D01*
X129247002Y-146003971D01*
X129053971Y-146197002D01*
X129053963Y-146197011D01*
X128890369Y-146415547D01*
X128759532Y-146655156D01*
X128664127Y-146910947D01*
X128664127Y-146910948D01*
X128606100Y-147177694D01*
X128586625Y-147450000D01*
X121413375Y-147450000D01*
X121393900Y-147177698D01*
X121335870Y-146910940D01*
X121240467Y-146655155D01*
X121109633Y-146415551D01*
X120946032Y-146197006D01*
X120752994Y-146003968D01*
X120752991Y-146003966D01*
X120752988Y-146003963D01*
X120534452Y-145840369D01*
X120534450Y-145840368D01*
X120534449Y-145840367D01*
X120294845Y-145709533D01*
X120294844Y-145709532D01*
X120039052Y-145614127D01*
X119772304Y-145556100D01*
X119772306Y-145556100D01*
X119500000Y-145536625D01*
X119227694Y-145556100D01*
X118960948Y-145614127D01*
X118960947Y-145614127D01*
X118705156Y-145709532D01*
X118465547Y-145840369D01*
X118247011Y-146003963D01*
X118247002Y-146003971D01*
X118053971Y-146197002D01*
X118053963Y-146197011D01*
X117890369Y-146415547D01*
X117759532Y-146655156D01*
X117664127Y-146910947D01*
X117664127Y-146910948D01*
X117606100Y-147177694D01*
X117586625Y-147450000D01*
X112125017Y-147450000D01*
X112130000Y-145970000D01*
X112129999Y-145969999D01*
X109240000Y-145989999D01*
X103434334Y-145989999D01*
X103234452Y-145840369D01*
X103234450Y-145840368D01*
X103234449Y-145840367D01*
X102994845Y-145709533D01*
X102994844Y-145709532D01*
X102739052Y-145614127D01*
X102472304Y-145556100D01*
X102472306Y-145556100D01*
X102200000Y-145536625D01*
X101927694Y-145556100D01*
X101660948Y-145614127D01*
X101660947Y-145614127D01*
X101405156Y-145709532D01*
X101165547Y-145840369D01*
X100947011Y-146003963D01*
X100947002Y-146003971D01*
X100753971Y-146197002D01*
X100753963Y-146197011D01*
X100590369Y-146415547D01*
X100459532Y-146655156D01*
X100364127Y-146910947D01*
X100364127Y-146910948D01*
X100306100Y-147177694D01*
X100286625Y-147450000D01*
X91413375Y-147450000D01*
X91393900Y-147177698D01*
X91335870Y-146910940D01*
X91240467Y-146655155D01*
X91109633Y-146415551D01*
X90946032Y-146197006D01*
X90752994Y-146003968D01*
X90752991Y-146003966D01*
X90752988Y-146003963D01*
X90534452Y-145840369D01*
X90534450Y-145840368D01*
X90534449Y-145840367D01*
X90294845Y-145709533D01*
X90294844Y-145709532D01*
X90039052Y-145614127D01*
X89772304Y-145556100D01*
X89772306Y-145556100D01*
X89500000Y-145536625D01*
X89227694Y-145556100D01*
X88960948Y-145614127D01*
X88960947Y-145614127D01*
X88705156Y-145709532D01*
X88465547Y-145840369D01*
X88247011Y-146003963D01*
X88247002Y-146003971D01*
X88053971Y-146197002D01*
X88053963Y-146197011D01*
X87890369Y-146415547D01*
X87759532Y-146655156D01*
X87664127Y-146910947D01*
X87664127Y-146910948D01*
X87606100Y-147177694D01*
X87586625Y-147450000D01*
X82125017Y-147450000D01*
X82130000Y-145970000D01*
X82129999Y-145969999D01*
X79240000Y-145989999D01*
X73104334Y-145989999D01*
X72904452Y-145840369D01*
X72904450Y-145840368D01*
X72904449Y-145840367D01*
X72664845Y-145709533D01*
X72664844Y-145709532D01*
X72409052Y-145614127D01*
X72142304Y-145556100D01*
X72142306Y-145556100D01*
X71870000Y-145536625D01*
X71597694Y-145556100D01*
X71330948Y-145614127D01*
X71330947Y-145614127D01*
X71075156Y-145709532D01*
X70835547Y-145840369D01*
X70617011Y-146003963D01*
X70617002Y-146003971D01*
X70423971Y-146197002D01*
X70423963Y-146197011D01*
X70260369Y-146415547D01*
X70129532Y-146655156D01*
X70034127Y-146910947D01*
X70034127Y-146910948D01*
X69976100Y-147177694D01*
X69956625Y-147450000D01*
X62863375Y-147450000D01*
X62843900Y-147177698D01*
X62785870Y-146910940D01*
X62690467Y-146655155D01*
X62559633Y-146415551D01*
X62396032Y-146197006D01*
X62202994Y-146003968D01*
X62202991Y-146003966D01*
X62202988Y-146003963D01*
X61984452Y-145840369D01*
X61984450Y-145840368D01*
X61984449Y-145840367D01*
X61744845Y-145709533D01*
X61744844Y-145709532D01*
X61489052Y-145614127D01*
X61222304Y-145556100D01*
X61222306Y-145556100D01*
X60950000Y-145536625D01*
X60677694Y-145556100D01*
X60410948Y-145614127D01*
X60410947Y-145614127D01*
X60155156Y-145709532D01*
X59915547Y-145840369D01*
X59697011Y-146003963D01*
X59697002Y-146003971D01*
X59503971Y-146197002D01*
X59503963Y-146197011D01*
X59340369Y-146415547D01*
X59209532Y-146655156D01*
X59114127Y-146910947D01*
X59114127Y-146910948D01*
X59056100Y-147177694D01*
X59036625Y-147450000D01*
X53825017Y-147450000D01*
X53830000Y-145970000D01*
X53829999Y-145969999D01*
X50940000Y-145989999D01*
X44634334Y-145989999D01*
X44434452Y-145840369D01*
X44434450Y-145840368D01*
X44434449Y-145840367D01*
X44194845Y-145709533D01*
X44194844Y-145709532D01*
X43939052Y-145614127D01*
X43672304Y-145556100D01*
X43672306Y-145556100D01*
X43400000Y-145536625D01*
X43127694Y-145556100D01*
X42860948Y-145614127D01*
X42860947Y-145614127D01*
X42605156Y-145709532D01*
X42365547Y-145840369D01*
X42147011Y-146003963D01*
X42147002Y-146003971D01*
X41953971Y-146197002D01*
X41953963Y-146197011D01*
X41790369Y-146415547D01*
X41659532Y-146655156D01*
X41564127Y-146910947D01*
X41564127Y-146910948D01*
X41506100Y-147177694D01*
X41486625Y-147450000D01*
X40117038Y-147450000D01*
X40127511Y-140749993D01*
X48137172Y-140749993D01*
X48137172Y-140750006D01*
X48156472Y-141155191D01*
X48214207Y-141556746D01*
X48214207Y-141556749D01*
X48309843Y-141950965D01*
X48309847Y-141950980D01*
X48442527Y-142334333D01*
X48442528Y-142334337D01*
X48611047Y-142703343D01*
X48813874Y-143054647D01*
X48813883Y-143054660D01*
X49049195Y-143385110D01*
X49049196Y-143385111D01*
X49214688Y-143576099D01*
X49214690Y-143576099D01*
X49928868Y-142861921D01*
X49989005Y-142935198D01*
X50214802Y-143160995D01*
X50288077Y-143221130D01*
X49572166Y-143937041D01*
X49572167Y-143937042D01*
X49608428Y-143971618D01*
X49608435Y-143971625D01*
X49927313Y-144222393D01*
X49927318Y-144222397D01*
X50268584Y-144441716D01*
X50629149Y-144627601D01*
X50629171Y-144627611D01*
X51005759Y-144778373D01*
X51394995Y-144892664D01*
X51394998Y-144892665D01*
X51793335Y-144969439D01*
X52197146Y-145007998D01*
X52197168Y-145008000D01*
X52602832Y-145008000D01*
X52602853Y-145007998D01*
X53006664Y-144969439D01*
X53405001Y-144892665D01*
X53405004Y-144892664D01*
X53794240Y-144778373D01*
X54170828Y-144627611D01*
X54170850Y-144627601D01*
X54531415Y-144441716D01*
X54872681Y-144222397D01*
X54872686Y-144222393D01*
X55191562Y-143971626D01*
X55227832Y-143937041D01*
X54511922Y-143221131D01*
X54585198Y-143160995D01*
X54810995Y-142935198D01*
X54871131Y-142861922D01*
X55585308Y-143576099D01*
X55585310Y-143576099D01*
X55750811Y-143385101D01*
X55750813Y-143385098D01*
X55986116Y-143054660D01*
X55986125Y-143054647D01*
X56188952Y-142703343D01*
X56357471Y-142334337D01*
X56357472Y-142334333D01*
X56490152Y-141950980D01*
X56490156Y-141950965D01*
X56585792Y-141556749D01*
X56585792Y-141556746D01*
X56643527Y-141155191D01*
X56662828Y-140750006D01*
X56662828Y-140749993D01*
X56643527Y-140344808D01*
X56585792Y-139943253D01*
X56585792Y-139943250D01*
X56490156Y-139549034D01*
X56490152Y-139549019D01*
X56486835Y-139539436D01*
X65724500Y-139539436D01*
X65724500Y-144460563D01*
X65739436Y-144475499D01*
X65739438Y-144475500D01*
X68260562Y-144475500D01*
X68275500Y-144460562D01*
X68275500Y-140749993D01*
X76437172Y-140749993D01*
X76437172Y-140750006D01*
X76456472Y-141155191D01*
X76514207Y-141556746D01*
X76514207Y-141556749D01*
X76609843Y-141950965D01*
X76609847Y-141950980D01*
X76742527Y-142334333D01*
X76742528Y-142334337D01*
X76911047Y-142703343D01*
X77113874Y-143054647D01*
X77113883Y-143054660D01*
X77349195Y-143385110D01*
X77349196Y-143385111D01*
X77514688Y-143576099D01*
X77514690Y-143576099D01*
X78228868Y-142861921D01*
X78289005Y-142935198D01*
X78514802Y-143160995D01*
X78588077Y-143221130D01*
X77872166Y-143937041D01*
X77872167Y-143937042D01*
X77908428Y-143971618D01*
X77908435Y-143971625D01*
X78227313Y-144222393D01*
X78227318Y-144222397D01*
X78568584Y-144441716D01*
X78929149Y-144627601D01*
X78929171Y-144627611D01*
X79305759Y-144778373D01*
X79694995Y-144892664D01*
X79694998Y-144892665D01*
X80093335Y-144969439D01*
X80497146Y-145007998D01*
X80497168Y-145008000D01*
X80902832Y-145008000D01*
X80902853Y-145007998D01*
X81306664Y-144969439D01*
X81705001Y-144892665D01*
X81705004Y-144892664D01*
X82094240Y-144778373D01*
X82470828Y-144627611D01*
X82470850Y-144627601D01*
X82831415Y-144441716D01*
X83172681Y-144222397D01*
X83172686Y-144222393D01*
X83491562Y-143971626D01*
X83527832Y-143937041D01*
X82811922Y-143221131D01*
X82885198Y-143160995D01*
X83110995Y-142935198D01*
X83171131Y-142861922D01*
X83885308Y-143576099D01*
X83885310Y-143576099D01*
X84050811Y-143385101D01*
X84050813Y-143385098D01*
X84286116Y-143054660D01*
X84286125Y-143054647D01*
X84488952Y-142703343D01*
X84657471Y-142334337D01*
X84657472Y-142334333D01*
X84790152Y-141950980D01*
X84790156Y-141950965D01*
X84885792Y-141556749D01*
X84885792Y-141556746D01*
X84943527Y-141155191D01*
X84962828Y-140750006D01*
X84962828Y-140749993D01*
X84943527Y-140344808D01*
X84885792Y-139943253D01*
X84885792Y-139943250D01*
X84790156Y-139549034D01*
X84790152Y-139549019D01*
X84786835Y-139539436D01*
X94424500Y-139539436D01*
X94424500Y-144460563D01*
X94439436Y-144475499D01*
X94439438Y-144475500D01*
X96960562Y-144475500D01*
X96975500Y-144460562D01*
X96975500Y-140749993D01*
X106437172Y-140749993D01*
X106437172Y-140750006D01*
X106456472Y-141155191D01*
X106514207Y-141556746D01*
X106514207Y-141556749D01*
X106609843Y-141950965D01*
X106609847Y-141950980D01*
X106742527Y-142334333D01*
X106742528Y-142334337D01*
X106911047Y-142703343D01*
X107113874Y-143054647D01*
X107113883Y-143054660D01*
X107349195Y-143385110D01*
X107349196Y-143385111D01*
X107514688Y-143576099D01*
X107514690Y-143576099D01*
X108228868Y-142861921D01*
X108289005Y-142935198D01*
X108514802Y-143160995D01*
X108588077Y-143221130D01*
X107872166Y-143937041D01*
X107872167Y-143937042D01*
X107908428Y-143971618D01*
X107908435Y-143971625D01*
X108227313Y-144222393D01*
X108227318Y-144222397D01*
X108568584Y-144441716D01*
X108929149Y-144627601D01*
X108929171Y-144627611D01*
X109305759Y-144778373D01*
X109694995Y-144892664D01*
X109694998Y-144892665D01*
X110093335Y-144969439D01*
X110497146Y-145007998D01*
X110497168Y-145008000D01*
X110902832Y-145008000D01*
X110902853Y-145007998D01*
X111306664Y-144969439D01*
X111705001Y-144892665D01*
X111705004Y-144892664D01*
X112094240Y-144778373D01*
X112470828Y-144627611D01*
X112470850Y-144627601D01*
X112831415Y-144441716D01*
X113172681Y-144222397D01*
X113172686Y-144222393D01*
X113491562Y-143971626D01*
X113527832Y-143937041D01*
X112811922Y-143221131D01*
X112885198Y-143160995D01*
X113110995Y-142935198D01*
X113171131Y-142861922D01*
X113885308Y-143576099D01*
X113885310Y-143576099D01*
X114050811Y-143385101D01*
X114050813Y-143385098D01*
X114286116Y-143054660D01*
X114286125Y-143054647D01*
X114488952Y-142703343D01*
X114657471Y-142334337D01*
X114657472Y-142334333D01*
X114790152Y-141950980D01*
X114790156Y-141950965D01*
X114885792Y-141556749D01*
X114885792Y-141556746D01*
X114943527Y-141155191D01*
X114962828Y-140750006D01*
X114962828Y-140749993D01*
X114943527Y-140344808D01*
X114885792Y-139943253D01*
X114885792Y-139943250D01*
X114790156Y-139549034D01*
X114790152Y-139549019D01*
X114786835Y-139539436D01*
X123124500Y-139539436D01*
X123124500Y-144460563D01*
X123139436Y-144475499D01*
X123139438Y-144475500D01*
X125660562Y-144475500D01*
X125675500Y-144460562D01*
X125675500Y-140749993D01*
X134737172Y-140749993D01*
X134737172Y-140750006D01*
X134756472Y-141155191D01*
X134814207Y-141556746D01*
X134814207Y-141556749D01*
X134909843Y-141950965D01*
X134909847Y-141950980D01*
X135042527Y-142334333D01*
X135042528Y-142334337D01*
X135211047Y-142703343D01*
X135413874Y-143054647D01*
X135413883Y-143054660D01*
X135649195Y-143385110D01*
X135649196Y-143385111D01*
X135814688Y-143576099D01*
X135814690Y-143576099D01*
X136528868Y-142861921D01*
X136589005Y-142935198D01*
X136814802Y-143160995D01*
X136888077Y-143221130D01*
X136172166Y-143937041D01*
X136172167Y-143937042D01*
X136208428Y-143971618D01*
X136208435Y-143971625D01*
X136527313Y-144222393D01*
X136527318Y-144222397D01*
X136868584Y-144441716D01*
X137229149Y-144627601D01*
X137229171Y-144627611D01*
X137605759Y-144778373D01*
X137994995Y-144892664D01*
X137994998Y-144892665D01*
X138393335Y-144969439D01*
X138797146Y-145007998D01*
X138797168Y-145008000D01*
X139202832Y-145008000D01*
X139202853Y-145007998D01*
X139606664Y-144969439D01*
X140005001Y-144892665D01*
X140005004Y-144892664D01*
X140394240Y-144778373D01*
X140770828Y-144627611D01*
X140770850Y-144627601D01*
X141131415Y-144441716D01*
X141472681Y-144222397D01*
X141472686Y-144222393D01*
X141791562Y-143971626D01*
X141827832Y-143937041D01*
X141111922Y-143221131D01*
X141185198Y-143160995D01*
X141410995Y-142935198D01*
X141471131Y-142861922D01*
X142185308Y-143576099D01*
X142185310Y-143576099D01*
X142350811Y-143385101D01*
X142350813Y-143385098D01*
X142586116Y-143054660D01*
X142586125Y-143054647D01*
X142788952Y-142703343D01*
X142957471Y-142334337D01*
X142957472Y-142334333D01*
X143090152Y-141950980D01*
X143090156Y-141950965D01*
X143185792Y-141556749D01*
X143185792Y-141556746D01*
X143243527Y-141155191D01*
X143262828Y-140750006D01*
X143262828Y-140749993D01*
X143243527Y-140344808D01*
X143185792Y-139943253D01*
X143185792Y-139943250D01*
X143090156Y-139549034D01*
X143090152Y-139549019D01*
X142957472Y-139165666D01*
X142957471Y-139165662D01*
X142788952Y-138796656D01*
X142586125Y-138445352D01*
X142586116Y-138445339D01*
X142350804Y-138114889D01*
X142350803Y-138114888D01*
X142185310Y-137923899D01*
X142185308Y-137923899D01*
X141471130Y-138638077D01*
X141410995Y-138564802D01*
X141185198Y-138339005D01*
X141111921Y-138278868D01*
X141827832Y-137562957D01*
X141827831Y-137562956D01*
X141791571Y-137528381D01*
X141791564Y-137528374D01*
X141472686Y-137277606D01*
X141472681Y-137277602D01*
X141131415Y-137058283D01*
X140770850Y-136872398D01*
X140770828Y-136872388D01*
X140394240Y-136721626D01*
X140005004Y-136607335D01*
X140005001Y-136607334D01*
X139606664Y-136530560D01*
X139202853Y-136492001D01*
X139202832Y-136492000D01*
X138797168Y-136492000D01*
X138797146Y-136492001D01*
X138393335Y-136530560D01*
X137994998Y-136607334D01*
X137994995Y-136607335D01*
X137605759Y-136721626D01*
X137229171Y-136872388D01*
X137229149Y-136872398D01*
X136868584Y-137058283D01*
X136527318Y-137277602D01*
X136527312Y-137277606D01*
X136208449Y-137528363D01*
X136172167Y-137562958D01*
X136888077Y-138278868D01*
X136814802Y-138339005D01*
X136589005Y-138564802D01*
X136528868Y-138638077D01*
X135814690Y-137923899D01*
X135814689Y-137923899D01*
X135649191Y-138114895D01*
X135413883Y-138445339D01*
X135413874Y-138445352D01*
X135211047Y-138796656D01*
X135042528Y-139165662D01*
X135042527Y-139165666D01*
X134909847Y-139549019D01*
X134909843Y-139549034D01*
X134814207Y-139943250D01*
X134814207Y-139943253D01*
X134756472Y-140344808D01*
X134737172Y-140749993D01*
X125675500Y-140749993D01*
X125675500Y-139539438D01*
X125675499Y-139539436D01*
X125660563Y-139524500D01*
X125660562Y-139524500D01*
X123160562Y-139524500D01*
X123139438Y-139524500D01*
X123139436Y-139524500D01*
X123124500Y-139539436D01*
X114786835Y-139539436D01*
X114657472Y-139165666D01*
X114657471Y-139165662D01*
X114488952Y-138796656D01*
X114286125Y-138445352D01*
X114286116Y-138445339D01*
X114050804Y-138114889D01*
X114050803Y-138114888D01*
X113885310Y-137923899D01*
X113885308Y-137923899D01*
X113171130Y-138638077D01*
X113110995Y-138564802D01*
X112885198Y-138339005D01*
X112811921Y-138278868D01*
X113527832Y-137562957D01*
X113527831Y-137562956D01*
X113491571Y-137528381D01*
X113491564Y-137528374D01*
X113172686Y-137277606D01*
X113172681Y-137277602D01*
X112831415Y-137058283D01*
X112470850Y-136872398D01*
X112470828Y-136872388D01*
X112094240Y-136721626D01*
X111705004Y-136607335D01*
X111705001Y-136607334D01*
X111306664Y-136530560D01*
X110902853Y-136492001D01*
X110902832Y-136492000D01*
X110497168Y-136492000D01*
X110497146Y-136492001D01*
X110093335Y-136530560D01*
X109694998Y-136607334D01*
X109694995Y-136607335D01*
X109305759Y-136721626D01*
X108929171Y-136872388D01*
X108929149Y-136872398D01*
X108568584Y-137058283D01*
X108227318Y-137277602D01*
X108227312Y-137277606D01*
X107908449Y-137528363D01*
X107872167Y-137562958D01*
X108588077Y-138278868D01*
X108514802Y-138339005D01*
X108289005Y-138564802D01*
X108228868Y-138638077D01*
X107514690Y-137923899D01*
X107514689Y-137923899D01*
X107349191Y-138114895D01*
X107113883Y-138445339D01*
X107113874Y-138445352D01*
X106911047Y-138796656D01*
X106742528Y-139165662D01*
X106742527Y-139165666D01*
X106609847Y-139549019D01*
X106609843Y-139549034D01*
X106514207Y-139943250D01*
X106514207Y-139943253D01*
X106456472Y-140344808D01*
X106437172Y-140749993D01*
X96975500Y-140749993D01*
X96975500Y-139539438D01*
X96975499Y-139539436D01*
X96960563Y-139524500D01*
X96960562Y-139524500D01*
X94460562Y-139524500D01*
X94439438Y-139524500D01*
X94439436Y-139524500D01*
X94424500Y-139539436D01*
X84786835Y-139539436D01*
X84657472Y-139165666D01*
X84657471Y-139165662D01*
X84488952Y-138796656D01*
X84286125Y-138445352D01*
X84286116Y-138445339D01*
X84050804Y-138114889D01*
X84050803Y-138114888D01*
X83885310Y-137923899D01*
X83885308Y-137923899D01*
X83171130Y-138638077D01*
X83110995Y-138564802D01*
X82885198Y-138339005D01*
X82811921Y-138278868D01*
X83527832Y-137562957D01*
X83527831Y-137562956D01*
X83491571Y-137528381D01*
X83491564Y-137528374D01*
X83172686Y-137277606D01*
X83172681Y-137277602D01*
X82831415Y-137058283D01*
X82470850Y-136872398D01*
X82470828Y-136872388D01*
X82094240Y-136721626D01*
X81705004Y-136607335D01*
X81705001Y-136607334D01*
X81306664Y-136530560D01*
X80902853Y-136492001D01*
X80902832Y-136492000D01*
X80497168Y-136492000D01*
X80497146Y-136492001D01*
X80093335Y-136530560D01*
X79694998Y-136607334D01*
X79694995Y-136607335D01*
X79305759Y-136721626D01*
X78929171Y-136872388D01*
X78929149Y-136872398D01*
X78568584Y-137058283D01*
X78227318Y-137277602D01*
X78227312Y-137277606D01*
X77908449Y-137528363D01*
X77872167Y-137562958D01*
X78588077Y-138278868D01*
X78514802Y-138339005D01*
X78289005Y-138564802D01*
X78228868Y-138638077D01*
X77514690Y-137923899D01*
X77514689Y-137923899D01*
X77349191Y-138114895D01*
X77113883Y-138445339D01*
X77113874Y-138445352D01*
X76911047Y-138796656D01*
X76742528Y-139165662D01*
X76742527Y-139165666D01*
X76609847Y-139549019D01*
X76609843Y-139549034D01*
X76514207Y-139943250D01*
X76514207Y-139943253D01*
X76456472Y-140344808D01*
X76437172Y-140749993D01*
X68275500Y-140749993D01*
X68275500Y-139539438D01*
X68275499Y-139539436D01*
X68260563Y-139524500D01*
X68260562Y-139524500D01*
X65760562Y-139524500D01*
X65739438Y-139524500D01*
X65739436Y-139524500D01*
X65724500Y-139539436D01*
X56486835Y-139539436D01*
X56357472Y-139165666D01*
X56357471Y-139165662D01*
X56188952Y-138796656D01*
X55986125Y-138445352D01*
X55986116Y-138445339D01*
X55750804Y-138114889D01*
X55750803Y-138114888D01*
X55585310Y-137923899D01*
X55585308Y-137923899D01*
X54871130Y-138638077D01*
X54810995Y-138564802D01*
X54585198Y-138339005D01*
X54511921Y-138278868D01*
X55227832Y-137562957D01*
X55227831Y-137562956D01*
X55191571Y-137528381D01*
X55191564Y-137528374D01*
X54872686Y-137277606D01*
X54872681Y-137277602D01*
X54531415Y-137058283D01*
X54170850Y-136872398D01*
X54170828Y-136872388D01*
X53794240Y-136721626D01*
X53405004Y-136607335D01*
X53405001Y-136607334D01*
X53006664Y-136530560D01*
X52602853Y-136492001D01*
X52602832Y-136492000D01*
X52197168Y-136492000D01*
X52197146Y-136492001D01*
X51793335Y-136530560D01*
X51394998Y-136607334D01*
X51394995Y-136607335D01*
X51005759Y-136721626D01*
X50629171Y-136872388D01*
X50629149Y-136872398D01*
X50268584Y-137058283D01*
X49927318Y-137277602D01*
X49927312Y-137277606D01*
X49608449Y-137528363D01*
X49572167Y-137562958D01*
X50288077Y-138278868D01*
X50214802Y-138339005D01*
X49989005Y-138564802D01*
X49928868Y-138638077D01*
X49214690Y-137923899D01*
X49214689Y-137923899D01*
X49049191Y-138114895D01*
X48813883Y-138445339D01*
X48813874Y-138445352D01*
X48611047Y-138796656D01*
X48442528Y-139165662D01*
X48442527Y-139165666D01*
X48309847Y-139549019D01*
X48309843Y-139549034D01*
X48214207Y-139943250D01*
X48214207Y-139943253D01*
X48156472Y-140344808D01*
X48137172Y-140749993D01*
X40127511Y-140749993D01*
X40147143Y-128189999D01*
X43275000Y-128189999D01*
X43275000Y-131159999D01*
X43275000Y-131160000D01*
X46155000Y-131140000D01*
X46164933Y-128189999D01*
X48360000Y-128189999D01*
X48360000Y-131159999D01*
X48360000Y-131160000D01*
X51240000Y-131140000D01*
X51247754Y-128836986D01*
X120980500Y-128836986D01*
X120980500Y-129073013D01*
X121011305Y-129307007D01*
X121011307Y-129307014D01*
X121072394Y-129534993D01*
X121162716Y-129753049D01*
X121162717Y-129753050D01*
X121162722Y-129753061D01*
X121280724Y-129957446D01*
X121280726Y-129957449D01*
X121280727Y-129957450D01*
X121424408Y-130144699D01*
X121424412Y-130144703D01*
X121424417Y-130144709D01*
X121591290Y-130311582D01*
X121591295Y-130311586D01*
X121591301Y-130311592D01*
X121778550Y-130455273D01*
X121778553Y-130455275D01*
X121982938Y-130573277D01*
X121982942Y-130573278D01*
X121982951Y-130573284D01*
X122201007Y-130663606D01*
X122428986Y-130724693D01*
X122428990Y-130724693D01*
X122428992Y-130724694D01*
X122489300Y-130732633D01*
X122662989Y-130755500D01*
X122662996Y-130755500D01*
X122899004Y-130755500D01*
X122899011Y-130755500D01*
X123110491Y-130727658D01*
X123133007Y-130724694D01*
X123133007Y-130724693D01*
X123133014Y-130724693D01*
X123360993Y-130663606D01*
X123579049Y-130573284D01*
X123783450Y-130455273D01*
X123970699Y-130311592D01*
X124137592Y-130144699D01*
X124281273Y-129957450D01*
X124399284Y-129753049D01*
X124489606Y-129534993D01*
X124550693Y-129307014D01*
X124581500Y-129073011D01*
X124581500Y-128836989D01*
X124581500Y-128836986D01*
X143130500Y-128836986D01*
X143130500Y-129073013D01*
X143161305Y-129307007D01*
X143161307Y-129307014D01*
X143222394Y-129534993D01*
X143312716Y-129753049D01*
X143312717Y-129753050D01*
X143312722Y-129753061D01*
X143430724Y-129957446D01*
X143430726Y-129957449D01*
X143430727Y-129957450D01*
X143574408Y-130144699D01*
X143574412Y-130144703D01*
X143574417Y-130144709D01*
X143741290Y-130311582D01*
X143741295Y-130311586D01*
X143741301Y-130311592D01*
X143928550Y-130455273D01*
X143928553Y-130455275D01*
X144132938Y-130573277D01*
X144132942Y-130573278D01*
X144132951Y-130573284D01*
X144351007Y-130663606D01*
X144578986Y-130724693D01*
X144578990Y-130724693D01*
X144578992Y-130724694D01*
X144639300Y-130732633D01*
X144812989Y-130755500D01*
X144812996Y-130755500D01*
X145049004Y-130755500D01*
X145049011Y-130755500D01*
X145260491Y-130727658D01*
X145283007Y-130724694D01*
X145283007Y-130724693D01*
X145283014Y-130724693D01*
X145510993Y-130663606D01*
X145729049Y-130573284D01*
X145933450Y-130455273D01*
X146120699Y-130311592D01*
X146287592Y-130144699D01*
X146431273Y-129957450D01*
X146549284Y-129753049D01*
X146639606Y-129534993D01*
X146700693Y-129307014D01*
X146731500Y-129073011D01*
X146731500Y-128836989D01*
X146700693Y-128602986D01*
X146639606Y-128375007D01*
X146549284Y-128156951D01*
X146549278Y-128156942D01*
X146549277Y-128156938D01*
X146431275Y-127952553D01*
X146431273Y-127952550D01*
X146287592Y-127765301D01*
X146287586Y-127765295D01*
X146287582Y-127765290D01*
X146120709Y-127598417D01*
X146120703Y-127598412D01*
X146120699Y-127598408D01*
X145933450Y-127454727D01*
X145933449Y-127454726D01*
X145933446Y-127454724D01*
X145729061Y-127336722D01*
X145729053Y-127336718D01*
X145729049Y-127336716D01*
X145510993Y-127246394D01*
X145328015Y-127197365D01*
X145283007Y-127185305D01*
X145049013Y-127154500D01*
X145049011Y-127154500D01*
X144812989Y-127154500D01*
X144812986Y-127154500D01*
X144578992Y-127185305D01*
X144386281Y-127236942D01*
X144351007Y-127246394D01*
X144153359Y-127328263D01*
X144132949Y-127336717D01*
X144132938Y-127336722D01*
X143928553Y-127454724D01*
X143741301Y-127598408D01*
X143741290Y-127598417D01*
X143574417Y-127765290D01*
X143574408Y-127765301D01*
X143430724Y-127952553D01*
X143312722Y-128156938D01*
X143312717Y-128156949D01*
X143222394Y-128375007D01*
X143222393Y-128375011D01*
X143161305Y-128602992D01*
X143130500Y-128836986D01*
X124581500Y-128836986D01*
X124550693Y-128602986D01*
X124489606Y-128375007D01*
X124399284Y-128156951D01*
X124399278Y-128156942D01*
X124399277Y-128156938D01*
X124281275Y-127952553D01*
X124281273Y-127952550D01*
X124137592Y-127765301D01*
X124137586Y-127765295D01*
X124137582Y-127765290D01*
X123970709Y-127598417D01*
X123970703Y-127598412D01*
X123970699Y-127598408D01*
X123783450Y-127454727D01*
X123783449Y-127454726D01*
X123783446Y-127454724D01*
X123579061Y-127336722D01*
X123579053Y-127336718D01*
X123579049Y-127336716D01*
X123360993Y-127246394D01*
X123178015Y-127197365D01*
X123133007Y-127185305D01*
X122899013Y-127154500D01*
X122899011Y-127154500D01*
X122662989Y-127154500D01*
X122662986Y-127154500D01*
X122428992Y-127185305D01*
X122236281Y-127236942D01*
X122201007Y-127246394D01*
X122003359Y-127328263D01*
X121982949Y-127336717D01*
X121982938Y-127336722D01*
X121778553Y-127454724D01*
X121591301Y-127598408D01*
X121591290Y-127598417D01*
X121424417Y-127765290D01*
X121424408Y-127765301D01*
X121280724Y-127952553D01*
X121162722Y-128156938D01*
X121162717Y-128156949D01*
X121072394Y-128375007D01*
X121072393Y-128375011D01*
X121011305Y-128602992D01*
X120980500Y-128836986D01*
X51247754Y-128836986D01*
X51250000Y-128170000D01*
X51249999Y-128169999D01*
X48360000Y-128189999D01*
X46164933Y-128189999D01*
X46165000Y-128170000D01*
X46164999Y-128169999D01*
X43275000Y-128189999D01*
X40147143Y-128189999D01*
X40155975Y-122539999D01*
X43230000Y-122539999D01*
X43230000Y-125509999D01*
X43230000Y-125510000D01*
X46110000Y-125490000D01*
X46119933Y-122539999D01*
X48335000Y-122539999D01*
X48335000Y-125509999D01*
X48335000Y-125510000D01*
X51215000Y-125490000D01*
X51220389Y-123889436D01*
X59524500Y-123889436D01*
X59524500Y-128110563D01*
X59539436Y-128125499D01*
X59539438Y-128125500D01*
X67960562Y-128125500D01*
X67975500Y-128110562D01*
X67975500Y-123889438D01*
X67975499Y-123889436D01*
X67960563Y-123874500D01*
X67960562Y-123874500D01*
X59560562Y-123874500D01*
X59539438Y-123874500D01*
X59539436Y-123874500D01*
X59524500Y-123889436D01*
X51220389Y-123889436D01*
X51223384Y-123000000D01*
X85436844Y-123000000D01*
X85452836Y-123192993D01*
X85455437Y-123224375D01*
X85510702Y-123442612D01*
X85510703Y-123442613D01*
X85510704Y-123442616D01*
X85601140Y-123648791D01*
X85601141Y-123648793D01*
X85724275Y-123837265D01*
X85724278Y-123837268D01*
X85772304Y-123889438D01*
X85867475Y-123992820D01*
X85898896Y-124056485D01*
X85890909Y-124127031D01*
X85846051Y-124182060D01*
X85818807Y-124196213D01*
X85703797Y-124239110D01*
X85703792Y-124239112D01*
X85586738Y-124326738D01*
X85499112Y-124443792D01*
X85499110Y-124443797D01*
X85448011Y-124580795D01*
X85448009Y-124580803D01*
X85441500Y-124641350D01*
X85441500Y-126438649D01*
X85448009Y-126499196D01*
X85448011Y-126499204D01*
X85499110Y-126636202D01*
X85499112Y-126636207D01*
X85586738Y-126753261D01*
X85703792Y-126840887D01*
X85703794Y-126840888D01*
X85703796Y-126840889D01*
X85757600Y-126860957D01*
X85840795Y-126891988D01*
X85840803Y-126891990D01*
X85901350Y-126898499D01*
X85901355Y-126898499D01*
X85901362Y-126898500D01*
X86962918Y-126898500D01*
X87031039Y-126918502D01*
X87052008Y-126935400D01*
X87634611Y-127518003D01*
X87767031Y-127606484D01*
X87853222Y-127642184D01*
X87914169Y-127667430D01*
X88070370Y-127698500D01*
X88229630Y-127698500D01*
X90517516Y-127698500D01*
X90531623Y-127699292D01*
X90570000Y-127703616D01*
X90608377Y-127699292D01*
X90622484Y-127698500D01*
X90649626Y-127698500D01*
X90649630Y-127698500D01*
X90689154Y-127690637D01*
X90699616Y-127689011D01*
X90751047Y-127683217D01*
X90775079Y-127674806D01*
X90792100Y-127670160D01*
X90805831Y-127667430D01*
X90855166Y-127646993D01*
X90861754Y-127644478D01*
X90923015Y-127623043D01*
X90933407Y-127616513D01*
X90952234Y-127606786D01*
X90952968Y-127606483D01*
X91008324Y-127569495D01*
X91011120Y-127567682D01*
X91077281Y-127526111D01*
X91206111Y-127397281D01*
X91247682Y-127331120D01*
X91249495Y-127328324D01*
X91286483Y-127272968D01*
X91286786Y-127272234D01*
X91296513Y-127253407D01*
X91298615Y-127250060D01*
X91303043Y-127243015D01*
X91324478Y-127181754D01*
X91326996Y-127175160D01*
X91347427Y-127125838D01*
X91347426Y-127125838D01*
X91347430Y-127125831D01*
X91350160Y-127112100D01*
X91354806Y-127095079D01*
X91363217Y-127071047D01*
X91369011Y-127019616D01*
X91370639Y-127009144D01*
X91378500Y-126969630D01*
X91378500Y-126969623D01*
X91378648Y-126968127D01*
X91378944Y-126967393D01*
X91379707Y-126963559D01*
X91380434Y-126963703D01*
X91405229Y-126902294D01*
X91463183Y-126861284D01*
X91534109Y-126858115D01*
X91544948Y-126861301D01*
X91545365Y-126861444D01*
X91767431Y-126898500D01*
X91767435Y-126898500D01*
X91992565Y-126898500D01*
X91992569Y-126898500D01*
X92214635Y-126861444D01*
X92252249Y-126848530D01*
X92323169Y-126845329D01*
X92384566Y-126880979D01*
X92410971Y-126923021D01*
X92418046Y-126941675D01*
X92515785Y-127083273D01*
X92644570Y-127197367D01*
X92644571Y-127197367D01*
X92644573Y-127197369D01*
X92725465Y-127239824D01*
X92796917Y-127277325D01*
X92796918Y-127277325D01*
X92796920Y-127277326D01*
X92923396Y-127308499D01*
X92963972Y-127318500D01*
X92963975Y-127318500D01*
X93136025Y-127318500D01*
X93136028Y-127318500D01*
X93303083Y-127277325D01*
X93455430Y-127197367D01*
X93584215Y-127083273D01*
X93681954Y-126941675D01*
X93712067Y-126862272D01*
X93754923Y-126805672D01*
X93821579Y-126781227D01*
X93870790Y-126787780D01*
X93872424Y-126788341D01*
X93872426Y-126788342D01*
X94085365Y-126861444D01*
X94307431Y-126898500D01*
X94307435Y-126898500D01*
X94532565Y-126898500D01*
X94532569Y-126898500D01*
X94754635Y-126861444D01*
X94764332Y-126858115D01*
X94777906Y-126853455D01*
X94848830Y-126850253D01*
X94910226Y-126885904D01*
X94936631Y-126927944D01*
X94938046Y-126931675D01*
X95035785Y-127073273D01*
X95164570Y-127187367D01*
X95164571Y-127187367D01*
X95164573Y-127187369D01*
X95183623Y-127197367D01*
X95316917Y-127267325D01*
X95316918Y-127267325D01*
X95316920Y-127267326D01*
X95475394Y-127306385D01*
X95483972Y-127308500D01*
X95483975Y-127308500D01*
X95656025Y-127308500D01*
X95656028Y-127308500D01*
X95823083Y-127267325D01*
X95975430Y-127187367D01*
X96104215Y-127073273D01*
X96201954Y-126931675D01*
X96231813Y-126852942D01*
X96274669Y-126796342D01*
X96341325Y-126771897D01*
X96407600Y-126786372D01*
X96407655Y-126786249D01*
X96408270Y-126786519D01*
X96409589Y-126786807D01*
X96412422Y-126788340D01*
X96412428Y-126788343D01*
X96490002Y-126814974D01*
X96625365Y-126861444D01*
X96847431Y-126898500D01*
X96847435Y-126898500D01*
X97072565Y-126898500D01*
X97072569Y-126898500D01*
X97294635Y-126861444D01*
X97304332Y-126858115D01*
X97317906Y-126853455D01*
X97388830Y-126850253D01*
X97450226Y-126885904D01*
X97476631Y-126927944D01*
X97478046Y-126931675D01*
X97575785Y-127073273D01*
X97704570Y-127187367D01*
X97704571Y-127187367D01*
X97704573Y-127187369D01*
X97723623Y-127197367D01*
X97856917Y-127267325D01*
X97856918Y-127267325D01*
X97856920Y-127267326D01*
X98015394Y-127306385D01*
X98023972Y-127308500D01*
X98023975Y-127308500D01*
X98196025Y-127308500D01*
X98196028Y-127308500D01*
X98363083Y-127267325D01*
X98515430Y-127187367D01*
X98644215Y-127073273D01*
X98741954Y-126931675D01*
X98771813Y-126852942D01*
X98814669Y-126796342D01*
X98881325Y-126771897D01*
X98947600Y-126786372D01*
X98947655Y-126786249D01*
X98948270Y-126786519D01*
X98949589Y-126786807D01*
X98952422Y-126788340D01*
X98952428Y-126788343D01*
X99030002Y-126814974D01*
X99165365Y-126861444D01*
X99387431Y-126898500D01*
X99387435Y-126898500D01*
X99612565Y-126898500D01*
X99612569Y-126898500D01*
X99834635Y-126861444D01*
X99836054Y-126860957D01*
X99854551Y-126854607D01*
X99925476Y-126851405D01*
X99986872Y-126887057D01*
X100013275Y-126929097D01*
X100018046Y-126941675D01*
X100115785Y-127083273D01*
X100244570Y-127197367D01*
X100244571Y-127197367D01*
X100244573Y-127197369D01*
X100325465Y-127239824D01*
X100396917Y-127277325D01*
X100396918Y-127277325D01*
X100396920Y-127277326D01*
X100523396Y-127308499D01*
X100563972Y-127318500D01*
X100563975Y-127318500D01*
X100736025Y-127318500D01*
X100736028Y-127318500D01*
X100903083Y-127277325D01*
X101055430Y-127197367D01*
X101184215Y-127083273D01*
X101281954Y-126941675D01*
X101314959Y-126854644D01*
X101357817Y-126798045D01*
X101424472Y-126773600D01*
X101487194Y-126787298D01*
X101487655Y-126786249D01*
X101492428Y-126788343D01*
X101570002Y-126814974D01*
X101705365Y-126861444D01*
X101927431Y-126898500D01*
X101927435Y-126898500D01*
X102152565Y-126898500D01*
X102152569Y-126898500D01*
X102374635Y-126861444D01*
X102587574Y-126788342D01*
X102785576Y-126681189D01*
X102963240Y-126542906D01*
X103115722Y-126377268D01*
X103204816Y-126240898D01*
X103258819Y-126194810D01*
X103329167Y-126185235D01*
X103393524Y-126215212D01*
X103415782Y-126240898D01*
X103504674Y-126376958D01*
X103657097Y-126542534D01*
X103834698Y-126680767D01*
X103834699Y-126680768D01*
X104032628Y-126787882D01*
X104032630Y-126787883D01*
X104245483Y-126860955D01*
X104245492Y-126860957D01*
X104326000Y-126874391D01*
X104326000Y-125970702D01*
X104387007Y-126005925D01*
X104514174Y-126040000D01*
X104645826Y-126040000D01*
X104772993Y-126005925D01*
X104834000Y-125970702D01*
X104834000Y-126874390D01*
X104914507Y-126860957D01*
X104914516Y-126860955D01*
X105127369Y-126787883D01*
X105127371Y-126787882D01*
X105325300Y-126680768D01*
X105325301Y-126680767D01*
X105502902Y-126542534D01*
X105655325Y-126376958D01*
X105778419Y-126188548D01*
X105868820Y-125982456D01*
X105868823Y-125982449D01*
X105916544Y-125794000D01*
X105010703Y-125794000D01*
X105045925Y-125732993D01*
X105080000Y-125605826D01*
X105080000Y-125474174D01*
X105045925Y-125347007D01*
X105010703Y-125286000D01*
X105916544Y-125286000D01*
X105916544Y-125285999D01*
X105868823Y-125097550D01*
X105868820Y-125097543D01*
X105778419Y-124891451D01*
X105655325Y-124703041D01*
X105502902Y-124537465D01*
X105325301Y-124399232D01*
X105325300Y-124399231D01*
X105291267Y-124380814D01*
X105240876Y-124330801D01*
X105225524Y-124261484D01*
X105250085Y-124194871D01*
X105291267Y-124159186D01*
X105325300Y-124140768D01*
X105325301Y-124140767D01*
X105502902Y-124002534D01*
X105655325Y-123836958D01*
X105778419Y-123648548D01*
X105868820Y-123442456D01*
X105868823Y-123442449D01*
X105916544Y-123254000D01*
X105010703Y-123254000D01*
X105045925Y-123192993D01*
X105080000Y-123065826D01*
X105080000Y-122934174D01*
X105045925Y-122807007D01*
X105010703Y-122746000D01*
X105916544Y-122746000D01*
X105916544Y-122745999D01*
X105868823Y-122557550D01*
X105868820Y-122557543D01*
X105778419Y-122351451D01*
X105655325Y-122163041D01*
X105502902Y-121997465D01*
X105325301Y-121859232D01*
X105325300Y-121859231D01*
X105127371Y-121752117D01*
X105127369Y-121752116D01*
X104914512Y-121679043D01*
X104914501Y-121679040D01*
X104834000Y-121665606D01*
X104834000Y-122569297D01*
X104772993Y-122534075D01*
X104645826Y-122500000D01*
X104514174Y-122500000D01*
X104387007Y-122534075D01*
X104326000Y-122569297D01*
X104326000Y-121665607D01*
X104325999Y-121665606D01*
X104245498Y-121679040D01*
X104245487Y-121679043D01*
X104032630Y-121752116D01*
X104032628Y-121752117D01*
X103834699Y-121859231D01*
X103834698Y-121859232D01*
X103657097Y-121997465D01*
X103504670Y-122163045D01*
X103415780Y-122299101D01*
X103361776Y-122345189D01*
X103291428Y-122354764D01*
X103227071Y-122324786D01*
X103204816Y-122299101D01*
X103165884Y-122239511D01*
X103115724Y-122162734D01*
X103115720Y-122162729D01*
X102999570Y-122036559D01*
X102963240Y-121997094D01*
X102963239Y-121997093D01*
X102963237Y-121997091D01*
X102881382Y-121933381D01*
X102785576Y-121858811D01*
X102587574Y-121751658D01*
X102587572Y-121751657D01*
X102587571Y-121751656D01*
X102374639Y-121678557D01*
X102374630Y-121678555D01*
X102297029Y-121665606D01*
X102152569Y-121641500D01*
X101927431Y-121641500D01*
X101782971Y-121665606D01*
X101705369Y-121678555D01*
X101705360Y-121678557D01*
X101492428Y-121751656D01*
X101492426Y-121751658D01*
X101294426Y-121858810D01*
X101294424Y-121858811D01*
X101116762Y-121997091D01*
X100964279Y-122162729D01*
X100875483Y-122298643D01*
X100821479Y-122344731D01*
X100751131Y-122354306D01*
X100686774Y-122324329D01*
X100664517Y-122298643D01*
X100575720Y-122162729D01*
X100459570Y-122036559D01*
X100423240Y-121997094D01*
X100423239Y-121997093D01*
X100423237Y-121997091D01*
X100341382Y-121933381D01*
X100245576Y-121858811D01*
X100047574Y-121751658D01*
X100047572Y-121751657D01*
X100047571Y-121751656D01*
X99834639Y-121678557D01*
X99834630Y-121678555D01*
X99757029Y-121665606D01*
X99612569Y-121641500D01*
X99387431Y-121641500D01*
X99242971Y-121665606D01*
X99165369Y-121678555D01*
X99165360Y-121678557D01*
X98952428Y-121751656D01*
X98952426Y-121751658D01*
X98754426Y-121858810D01*
X98754424Y-121858811D01*
X98576762Y-121997091D01*
X98424279Y-122162729D01*
X98335483Y-122298643D01*
X98281479Y-122344731D01*
X98211131Y-122354306D01*
X98146774Y-122324329D01*
X98124517Y-122298643D01*
X98035720Y-122162729D01*
X97919570Y-122036559D01*
X97883240Y-121997094D01*
X97883239Y-121997093D01*
X97883237Y-121997091D01*
X97801382Y-121933381D01*
X97705576Y-121858811D01*
X97507574Y-121751658D01*
X97507572Y-121751657D01*
X97507571Y-121751656D01*
X97294639Y-121678557D01*
X97294630Y-121678555D01*
X97217029Y-121665606D01*
X97072569Y-121641500D01*
X96847431Y-121641500D01*
X96702971Y-121665606D01*
X96625369Y-121678555D01*
X96625360Y-121678557D01*
X96412428Y-121751656D01*
X96412426Y-121751658D01*
X96214426Y-121858810D01*
X96214424Y-121858811D01*
X96036762Y-121997091D01*
X95884279Y-122162729D01*
X95795483Y-122298643D01*
X95741479Y-122344731D01*
X95671131Y-122354306D01*
X95606774Y-122324329D01*
X95584517Y-122298643D01*
X95495720Y-122162729D01*
X95379570Y-122036559D01*
X95343240Y-121997094D01*
X95343239Y-121997093D01*
X95343237Y-121997091D01*
X95261382Y-121933381D01*
X95165576Y-121858811D01*
X94967574Y-121751658D01*
X94967572Y-121751657D01*
X94967571Y-121751656D01*
X94754639Y-121678557D01*
X94754630Y-121678555D01*
X94677029Y-121665606D01*
X94532569Y-121641500D01*
X94307431Y-121641500D01*
X94162971Y-121665606D01*
X94085369Y-121678555D01*
X94085360Y-121678557D01*
X93872428Y-121751656D01*
X93872426Y-121751658D01*
X93674426Y-121858810D01*
X93674424Y-121858811D01*
X93496762Y-121997091D01*
X93344279Y-122162729D01*
X93255483Y-122298643D01*
X93201479Y-122344731D01*
X93131131Y-122354306D01*
X93066774Y-122324329D01*
X93044517Y-122298643D01*
X92955720Y-122162729D01*
X92839570Y-122036559D01*
X92803240Y-121997094D01*
X92803239Y-121997093D01*
X92803237Y-121997091D01*
X92721382Y-121933381D01*
X92625576Y-121858811D01*
X92427574Y-121751658D01*
X92427572Y-121751657D01*
X92427571Y-121751656D01*
X92214639Y-121678557D01*
X92214630Y-121678555D01*
X92137029Y-121665606D01*
X91992569Y-121641500D01*
X91767431Y-121641500D01*
X91622971Y-121665606D01*
X91545369Y-121678555D01*
X91545360Y-121678557D01*
X91332428Y-121751656D01*
X91332426Y-121751658D01*
X91134426Y-121858810D01*
X91134424Y-121858811D01*
X90956762Y-121997091D01*
X90804279Y-122162729D01*
X90715483Y-122298643D01*
X90661479Y-122344731D01*
X90591131Y-122354306D01*
X90526774Y-122324329D01*
X90504517Y-122298643D01*
X90415720Y-122162729D01*
X90299570Y-122036559D01*
X90263240Y-121997094D01*
X90263239Y-121997093D01*
X90263237Y-121997091D01*
X90181382Y-121933381D01*
X90085576Y-121858811D01*
X89887574Y-121751658D01*
X89887572Y-121751657D01*
X89887571Y-121751656D01*
X89674639Y-121678557D01*
X89674630Y-121678555D01*
X89597029Y-121665606D01*
X89452569Y-121641500D01*
X89227431Y-121641500D01*
X89082971Y-121665606D01*
X89005369Y-121678555D01*
X89005360Y-121678557D01*
X88792428Y-121751656D01*
X88792426Y-121751658D01*
X88594426Y-121858810D01*
X88594424Y-121858811D01*
X88416762Y-121997091D01*
X88264279Y-122162729D01*
X88175483Y-122298643D01*
X88121479Y-122344731D01*
X88051131Y-122354306D01*
X87986774Y-122324329D01*
X87964517Y-122298643D01*
X87875720Y-122162729D01*
X87759570Y-122036559D01*
X87723240Y-121997094D01*
X87723239Y-121997093D01*
X87723237Y-121997091D01*
X87641382Y-121933381D01*
X87545576Y-121858811D01*
X87347574Y-121751658D01*
X87347572Y-121751657D01*
X87347571Y-121751656D01*
X87134639Y-121678557D01*
X87134630Y-121678555D01*
X87057029Y-121665606D01*
X86912569Y-121641500D01*
X86687431Y-121641500D01*
X86542971Y-121665606D01*
X86465369Y-121678555D01*
X86465360Y-121678557D01*
X86252428Y-121751656D01*
X86252426Y-121751658D01*
X86054426Y-121858810D01*
X86054424Y-121858811D01*
X85876762Y-121997091D01*
X85724279Y-122162729D01*
X85724275Y-122162734D01*
X85601141Y-122351206D01*
X85510703Y-122557386D01*
X85510702Y-122557387D01*
X85455437Y-122775624D01*
X85455436Y-122775630D01*
X85455436Y-122775632D01*
X85436844Y-123000000D01*
X51223384Y-123000000D01*
X51225000Y-122520000D01*
X51224999Y-122519999D01*
X48335000Y-122539999D01*
X46119933Y-122539999D01*
X46120000Y-122520000D01*
X46119999Y-122519999D01*
X43230000Y-122539999D01*
X40155975Y-122539999D01*
X40299803Y-30525858D01*
X40319912Y-30457770D01*
X40373640Y-30411361D01*
X40425856Y-30400056D01*
X45569980Y-30402379D01*
G37*
G04 #@! TD.AperFunction*
M02*
