G04 #@! TF.GenerationSoftware,KiCad,Pcbnew,8.0.5*
G04 #@! TF.CreationDate,2025-01-25T12:56:40-08:00*
G04 #@! TF.ProjectId,PBJ_EU,50424a5f-4555-42e6-9b69-6361645f7063,10.3*
G04 #@! TF.SameCoordinates,Original*
G04 #@! TF.FileFunction,Legend,Top*
G04 #@! TF.FilePolarity,Positive*
%FSLAX46Y46*%
G04 Gerber Fmt 4.6, Leading zero omitted, Abs format (unit mm)*
G04 Created by KiCad (PCBNEW 8.0.5) date 2025-01-25 12:56:40*
%MOMM*%
%LPD*%
G01*
G04 APERTURE LIST*
%ADD10C,3.000000*%
%ADD11C,0.250000*%
%ADD12C,0.500000*%
%ADD13C,0.150000*%
%ADD14C,0.200000*%
%ADD15C,0.400000*%
%ADD16C,0.300000*%
%ADD17C,0.120000*%
G04 APERTURE END LIST*
D10*
X122960000Y-175540000D02*
X135080000Y-175540000D01*
D11*
X90850000Y-120975000D02*
X100650000Y-120975000D01*
D12*
X104140000Y-147450000D02*
X109000000Y-147450000D01*
X140656663Y-147450000D02*
X145850000Y-147450000D01*
X45350000Y-147450000D02*
X50700000Y-147450000D01*
D11*
X100650000Y-120975000D02*
X100650000Y-121675000D01*
D12*
X82419500Y-147450000D02*
X87600000Y-147450000D01*
D10*
X55420000Y-175460000D02*
X67540000Y-175460000D01*
D12*
X112387000Y-147450000D02*
X117602000Y-147450000D01*
X54221000Y-147450000D02*
X59000000Y-147450000D01*
X132400000Y-147450000D02*
X137295000Y-147450000D01*
D11*
X90850000Y-120975000D02*
X90850000Y-121675000D01*
D12*
X73779000Y-147450000D02*
X79000000Y-147450000D01*
D13*
X106773810Y-122554819D02*
X107345238Y-122554819D01*
X107059524Y-123554819D02*
X107059524Y-122554819D01*
X107678572Y-123554819D02*
X107678572Y-122888152D01*
X107678572Y-122554819D02*
X107630953Y-122602438D01*
X107630953Y-122602438D02*
X107678572Y-122650057D01*
X107678572Y-122650057D02*
X107726191Y-122602438D01*
X107726191Y-122602438D02*
X107678572Y-122554819D01*
X107678572Y-122554819D02*
X107678572Y-122650057D01*
X108154762Y-122888152D02*
X108154762Y-123888152D01*
X108154762Y-122935771D02*
X108250000Y-122888152D01*
X108250000Y-122888152D02*
X108440476Y-122888152D01*
X108440476Y-122888152D02*
X108535714Y-122935771D01*
X108535714Y-122935771D02*
X108583333Y-122983390D01*
X108583333Y-122983390D02*
X108630952Y-123078628D01*
X108630952Y-123078628D02*
X108630952Y-123364342D01*
X108630952Y-123364342D02*
X108583333Y-123459580D01*
X108583333Y-123459580D02*
X108535714Y-123507200D01*
X108535714Y-123507200D02*
X108440476Y-123554819D01*
X108440476Y-123554819D02*
X108250000Y-123554819D01*
X108250000Y-123554819D02*
X108154762Y-123507200D01*
X106692857Y-126107200D02*
X106835714Y-126154819D01*
X106835714Y-126154819D02*
X107073809Y-126154819D01*
X107073809Y-126154819D02*
X107169047Y-126107200D01*
X107169047Y-126107200D02*
X107216666Y-126059580D01*
X107216666Y-126059580D02*
X107264285Y-125964342D01*
X107264285Y-125964342D02*
X107264285Y-125869104D01*
X107264285Y-125869104D02*
X107216666Y-125773866D01*
X107216666Y-125773866D02*
X107169047Y-125726247D01*
X107169047Y-125726247D02*
X107073809Y-125678628D01*
X107073809Y-125678628D02*
X106883333Y-125631009D01*
X106883333Y-125631009D02*
X106788095Y-125583390D01*
X106788095Y-125583390D02*
X106740476Y-125535771D01*
X106740476Y-125535771D02*
X106692857Y-125440533D01*
X106692857Y-125440533D02*
X106692857Y-125345295D01*
X106692857Y-125345295D02*
X106740476Y-125250057D01*
X106740476Y-125250057D02*
X106788095Y-125202438D01*
X106788095Y-125202438D02*
X106883333Y-125154819D01*
X106883333Y-125154819D02*
X107121428Y-125154819D01*
X107121428Y-125154819D02*
X107264285Y-125202438D01*
X107597619Y-125154819D02*
X107835714Y-126154819D01*
X107835714Y-126154819D02*
X108026190Y-125440533D01*
X108026190Y-125440533D02*
X108216666Y-126154819D01*
X108216666Y-126154819D02*
X108454762Y-125154819D01*
D14*
X70821429Y-155826385D02*
X70892857Y-155754957D01*
X70892857Y-155754957D02*
X71035715Y-155683528D01*
X71035715Y-155683528D02*
X71392857Y-155683528D01*
X71392857Y-155683528D02*
X71535715Y-155754957D01*
X71535715Y-155754957D02*
X71607143Y-155826385D01*
X71607143Y-155826385D02*
X71678572Y-155969242D01*
X71678572Y-155969242D02*
X71678572Y-156112100D01*
X71678572Y-156112100D02*
X71607143Y-156326385D01*
X71607143Y-156326385D02*
X70750000Y-157183528D01*
X70750000Y-157183528D02*
X71678572Y-157183528D01*
X72250000Y-155826385D02*
X72321428Y-155754957D01*
X72321428Y-155754957D02*
X72464286Y-155683528D01*
X72464286Y-155683528D02*
X72821428Y-155683528D01*
X72821428Y-155683528D02*
X72964286Y-155754957D01*
X72964286Y-155754957D02*
X73035714Y-155826385D01*
X73035714Y-155826385D02*
X73107143Y-155969242D01*
X73107143Y-155969242D02*
X73107143Y-156112100D01*
X73107143Y-156112100D02*
X73035714Y-156326385D01*
X73035714Y-156326385D02*
X72178571Y-157183528D01*
X72178571Y-157183528D02*
X73107143Y-157183528D01*
X73749999Y-157183528D02*
X73749999Y-155683528D01*
X73749999Y-156397814D02*
X74607142Y-156397814D01*
X74607142Y-157183528D02*
X74607142Y-155683528D01*
X75321428Y-157183528D02*
X75321428Y-155683528D01*
X75321428Y-155683528D02*
X75892857Y-155683528D01*
X75892857Y-155683528D02*
X76035714Y-155754957D01*
X76035714Y-155754957D02*
X76107143Y-155826385D01*
X76107143Y-155826385D02*
X76178571Y-155969242D01*
X76178571Y-155969242D02*
X76178571Y-156183528D01*
X76178571Y-156183528D02*
X76107143Y-156326385D01*
X76107143Y-156326385D02*
X76035714Y-156397814D01*
X76035714Y-156397814D02*
X75892857Y-156469242D01*
X75892857Y-156469242D02*
X75321428Y-156469242D01*
D13*
X93964286Y-127850057D02*
X94011905Y-127802438D01*
X94011905Y-127802438D02*
X94107143Y-127754819D01*
X94107143Y-127754819D02*
X94345238Y-127754819D01*
X94345238Y-127754819D02*
X94440476Y-127802438D01*
X94440476Y-127802438D02*
X94488095Y-127850057D01*
X94488095Y-127850057D02*
X94535714Y-127945295D01*
X94535714Y-127945295D02*
X94535714Y-128040533D01*
X94535714Y-128040533D02*
X94488095Y-128183390D01*
X94488095Y-128183390D02*
X93916667Y-128754819D01*
X93916667Y-128754819D02*
X94535714Y-128754819D01*
X96516667Y-127754819D02*
X97135714Y-127754819D01*
X97135714Y-127754819D02*
X96802381Y-128135771D01*
X96802381Y-128135771D02*
X96945238Y-128135771D01*
X96945238Y-128135771D02*
X97040476Y-128183390D01*
X97040476Y-128183390D02*
X97088095Y-128231009D01*
X97088095Y-128231009D02*
X97135714Y-128326247D01*
X97135714Y-128326247D02*
X97135714Y-128564342D01*
X97135714Y-128564342D02*
X97088095Y-128659580D01*
X97088095Y-128659580D02*
X97040476Y-128707200D01*
X97040476Y-128707200D02*
X96945238Y-128754819D01*
X96945238Y-128754819D02*
X96659524Y-128754819D01*
X96659524Y-128754819D02*
X96564286Y-128707200D01*
X96564286Y-128707200D02*
X96516667Y-128659580D01*
X99490476Y-128088152D02*
X99490476Y-128754819D01*
X99252381Y-127707200D02*
X99014286Y-128421485D01*
X99014286Y-128421485D02*
X99633333Y-128421485D01*
X102100000Y-128074366D02*
X102200000Y-128107700D01*
X102200000Y-128107700D02*
X102233333Y-128141033D01*
X102233333Y-128141033D02*
X102266666Y-128207700D01*
X102266666Y-128207700D02*
X102266666Y-128307700D01*
X102266666Y-128307700D02*
X102233333Y-128374366D01*
X102233333Y-128374366D02*
X102200000Y-128407700D01*
X102200000Y-128407700D02*
X102133333Y-128441033D01*
X102133333Y-128441033D02*
X101866666Y-128441033D01*
X101866666Y-128441033D02*
X101866666Y-127741033D01*
X101866666Y-127741033D02*
X102100000Y-127741033D01*
X102100000Y-127741033D02*
X102166666Y-127774366D01*
X102166666Y-127774366D02*
X102200000Y-127807700D01*
X102200000Y-127807700D02*
X102233333Y-127874366D01*
X102233333Y-127874366D02*
X102233333Y-127941033D01*
X102233333Y-127941033D02*
X102200000Y-128007700D01*
X102200000Y-128007700D02*
X102166666Y-128041033D01*
X102166666Y-128041033D02*
X102100000Y-128074366D01*
X102100000Y-128074366D02*
X101866666Y-128074366D01*
X103966667Y-127799366D02*
X103900000Y-127766033D01*
X103900000Y-127766033D02*
X103800000Y-127766033D01*
X103800000Y-127766033D02*
X103700000Y-127799366D01*
X103700000Y-127799366D02*
X103633334Y-127866033D01*
X103633334Y-127866033D02*
X103600000Y-127932700D01*
X103600000Y-127932700D02*
X103566667Y-128066033D01*
X103566667Y-128066033D02*
X103566667Y-128166033D01*
X103566667Y-128166033D02*
X103600000Y-128299366D01*
X103600000Y-128299366D02*
X103633334Y-128366033D01*
X103633334Y-128366033D02*
X103700000Y-128432700D01*
X103700000Y-128432700D02*
X103800000Y-128466033D01*
X103800000Y-128466033D02*
X103866667Y-128466033D01*
X103866667Y-128466033D02*
X103966667Y-128432700D01*
X103966667Y-128432700D02*
X104000000Y-128399366D01*
X104000000Y-128399366D02*
X104000000Y-128166033D01*
X104000000Y-128166033D02*
X103866667Y-128166033D01*
X104300000Y-128466033D02*
X104300000Y-127766033D01*
X104300000Y-127766033D02*
X104700000Y-128466033D01*
X104700000Y-128466033D02*
X104700000Y-127766033D01*
X105033333Y-128466033D02*
X105033333Y-127766033D01*
X105033333Y-127766033D02*
X105200000Y-127766033D01*
X105200000Y-127766033D02*
X105300000Y-127799366D01*
X105300000Y-127799366D02*
X105366667Y-127866033D01*
X105366667Y-127866033D02*
X105400000Y-127932700D01*
X105400000Y-127932700D02*
X105433333Y-128066033D01*
X105433333Y-128066033D02*
X105433333Y-128166033D01*
X105433333Y-128166033D02*
X105400000Y-128299366D01*
X105400000Y-128299366D02*
X105366667Y-128366033D01*
X105366667Y-128366033D02*
X105300000Y-128432700D01*
X105300000Y-128432700D02*
X105200000Y-128466033D01*
X105200000Y-128466033D02*
X105033333Y-128466033D01*
D15*
X127476190Y-154499676D02*
X127285714Y-154404438D01*
X127285714Y-154404438D02*
X127000000Y-154404438D01*
X127000000Y-154404438D02*
X126714285Y-154499676D01*
X126714285Y-154499676D02*
X126523809Y-154690152D01*
X126523809Y-154690152D02*
X126428571Y-154880628D01*
X126428571Y-154880628D02*
X126333333Y-155261580D01*
X126333333Y-155261580D02*
X126333333Y-155547295D01*
X126333333Y-155547295D02*
X126428571Y-155928247D01*
X126428571Y-155928247D02*
X126523809Y-156118723D01*
X126523809Y-156118723D02*
X126714285Y-156309200D01*
X126714285Y-156309200D02*
X127000000Y-156404438D01*
X127000000Y-156404438D02*
X127190476Y-156404438D01*
X127190476Y-156404438D02*
X127476190Y-156309200D01*
X127476190Y-156309200D02*
X127571428Y-156213961D01*
X127571428Y-156213961D02*
X127571428Y-155547295D01*
X127571428Y-155547295D02*
X127190476Y-155547295D01*
X128428571Y-156404438D02*
X128428571Y-154404438D01*
X128428571Y-154404438D02*
X129571428Y-156404438D01*
X129571428Y-156404438D02*
X129571428Y-154404438D01*
X130523809Y-156404438D02*
X130523809Y-154404438D01*
X130523809Y-154404438D02*
X130999999Y-154404438D01*
X130999999Y-154404438D02*
X131285714Y-154499676D01*
X131285714Y-154499676D02*
X131476190Y-154690152D01*
X131476190Y-154690152D02*
X131571428Y-154880628D01*
X131571428Y-154880628D02*
X131666666Y-155261580D01*
X131666666Y-155261580D02*
X131666666Y-155547295D01*
X131666666Y-155547295D02*
X131571428Y-155928247D01*
X131571428Y-155928247D02*
X131476190Y-156118723D01*
X131476190Y-156118723D02*
X131285714Y-156309200D01*
X131285714Y-156309200D02*
X130999999Y-156404438D01*
X130999999Y-156404438D02*
X130523809Y-156404438D01*
D16*
X122399999Y-139028328D02*
X122399999Y-137528328D01*
X122399999Y-137528328D02*
X122899999Y-138599757D01*
X122899999Y-138599757D02*
X123399999Y-137528328D01*
X123399999Y-137528328D02*
X123399999Y-139028328D01*
X124757143Y-138028328D02*
X124757143Y-139028328D01*
X124114285Y-138028328D02*
X124114285Y-138814042D01*
X124114285Y-138814042D02*
X124185714Y-138956900D01*
X124185714Y-138956900D02*
X124328571Y-139028328D01*
X124328571Y-139028328D02*
X124542857Y-139028328D01*
X124542857Y-139028328D02*
X124685714Y-138956900D01*
X124685714Y-138956900D02*
X124757143Y-138885471D01*
X125685714Y-139028328D02*
X125542857Y-138956900D01*
X125542857Y-138956900D02*
X125471428Y-138814042D01*
X125471428Y-138814042D02*
X125471428Y-137528328D01*
X126042857Y-138028328D02*
X126614285Y-138028328D01*
X126257142Y-137528328D02*
X126257142Y-138814042D01*
X126257142Y-138814042D02*
X126328571Y-138956900D01*
X126328571Y-138956900D02*
X126471428Y-139028328D01*
X126471428Y-139028328D02*
X126614285Y-139028328D01*
D13*
X143522112Y-132204009D02*
X143664969Y-132251628D01*
X143664969Y-132251628D02*
X143712588Y-132299247D01*
X143712588Y-132299247D02*
X143760207Y-132394485D01*
X143760207Y-132394485D02*
X143760207Y-132537342D01*
X143760207Y-132537342D02*
X143712588Y-132632580D01*
X143712588Y-132632580D02*
X143664969Y-132680200D01*
X143664969Y-132680200D02*
X143569731Y-132727819D01*
X143569731Y-132727819D02*
X143188779Y-132727819D01*
X143188779Y-132727819D02*
X143188779Y-131727819D01*
X143188779Y-131727819D02*
X143522112Y-131727819D01*
X143522112Y-131727819D02*
X143617350Y-131775438D01*
X143617350Y-131775438D02*
X143664969Y-131823057D01*
X143664969Y-131823057D02*
X143712588Y-131918295D01*
X143712588Y-131918295D02*
X143712588Y-132013533D01*
X143712588Y-132013533D02*
X143664969Y-132108771D01*
X143664969Y-132108771D02*
X143617350Y-132156390D01*
X143617350Y-132156390D02*
X143522112Y-132204009D01*
X143522112Y-132204009D02*
X143188779Y-132204009D01*
X144903065Y-132442104D02*
X145379255Y-132442104D01*
X144807827Y-132727819D02*
X145141160Y-131727819D01*
X145141160Y-131727819D02*
X145474493Y-132727819D01*
X146236398Y-132727819D02*
X146236398Y-131727819D01*
X146236398Y-132680200D02*
X146141160Y-132727819D01*
X146141160Y-132727819D02*
X145950684Y-132727819D01*
X145950684Y-132727819D02*
X145855446Y-132680200D01*
X145855446Y-132680200D02*
X145807827Y-132632580D01*
X145807827Y-132632580D02*
X145760208Y-132537342D01*
X145760208Y-132537342D02*
X145760208Y-132251628D01*
X145760208Y-132251628D02*
X145807827Y-132156390D01*
X145807827Y-132156390D02*
X145855446Y-132108771D01*
X145855446Y-132108771D02*
X145950684Y-132061152D01*
X145950684Y-132061152D02*
X146141160Y-132061152D01*
X146141160Y-132061152D02*
X146236398Y-132108771D01*
X146712589Y-132061152D02*
X146712589Y-132918295D01*
X146712589Y-132918295D02*
X146664970Y-133013533D01*
X146664970Y-133013533D02*
X146569732Y-133061152D01*
X146569732Y-133061152D02*
X146522113Y-133061152D01*
X146712589Y-131727819D02*
X146664970Y-131775438D01*
X146664970Y-131775438D02*
X146712589Y-131823057D01*
X146712589Y-131823057D02*
X146760208Y-131775438D01*
X146760208Y-131775438D02*
X146712589Y-131727819D01*
X146712589Y-131727819D02*
X146712589Y-131823057D01*
X147188779Y-132632580D02*
X147236398Y-132680200D01*
X147236398Y-132680200D02*
X147188779Y-132727819D01*
X147188779Y-132727819D02*
X147141160Y-132680200D01*
X147141160Y-132680200D02*
X147188779Y-132632580D01*
X147188779Y-132632580D02*
X147188779Y-132727819D01*
X84916666Y-128349366D02*
X85450000Y-128349366D01*
X85183333Y-128616033D02*
X85183333Y-128082700D01*
X86150000Y-128616033D02*
X85750000Y-128616033D01*
X85950000Y-128616033D02*
X85950000Y-127916033D01*
X85950000Y-127916033D02*
X85883333Y-128016033D01*
X85883333Y-128016033D02*
X85816667Y-128082700D01*
X85816667Y-128082700D02*
X85750000Y-128116033D01*
X86416667Y-127982700D02*
X86450000Y-127949366D01*
X86450000Y-127949366D02*
X86516667Y-127916033D01*
X86516667Y-127916033D02*
X86683334Y-127916033D01*
X86683334Y-127916033D02*
X86750000Y-127949366D01*
X86750000Y-127949366D02*
X86783334Y-127982700D01*
X86783334Y-127982700D02*
X86816667Y-128049366D01*
X86816667Y-128049366D02*
X86816667Y-128116033D01*
X86816667Y-128116033D02*
X86783334Y-128216033D01*
X86783334Y-128216033D02*
X86383334Y-128616033D01*
X86383334Y-128616033D02*
X86816667Y-128616033D01*
D15*
X59976190Y-154499676D02*
X59785714Y-154404438D01*
X59785714Y-154404438D02*
X59500000Y-154404438D01*
X59500000Y-154404438D02*
X59214285Y-154499676D01*
X59214285Y-154499676D02*
X59023809Y-154690152D01*
X59023809Y-154690152D02*
X58928571Y-154880628D01*
X58928571Y-154880628D02*
X58833333Y-155261580D01*
X58833333Y-155261580D02*
X58833333Y-155547295D01*
X58833333Y-155547295D02*
X58928571Y-155928247D01*
X58928571Y-155928247D02*
X59023809Y-156118723D01*
X59023809Y-156118723D02*
X59214285Y-156309200D01*
X59214285Y-156309200D02*
X59500000Y-156404438D01*
X59500000Y-156404438D02*
X59690476Y-156404438D01*
X59690476Y-156404438D02*
X59976190Y-156309200D01*
X59976190Y-156309200D02*
X60071428Y-156213961D01*
X60071428Y-156213961D02*
X60071428Y-155547295D01*
X60071428Y-155547295D02*
X59690476Y-155547295D01*
X60928571Y-156404438D02*
X60928571Y-154404438D01*
X60928571Y-154404438D02*
X62071428Y-156404438D01*
X62071428Y-156404438D02*
X62071428Y-154404438D01*
X63023809Y-156404438D02*
X63023809Y-154404438D01*
X63023809Y-154404438D02*
X63499999Y-154404438D01*
X63499999Y-154404438D02*
X63785714Y-154499676D01*
X63785714Y-154499676D02*
X63976190Y-154690152D01*
X63976190Y-154690152D02*
X64071428Y-154880628D01*
X64071428Y-154880628D02*
X64166666Y-155261580D01*
X64166666Y-155261580D02*
X64166666Y-155547295D01*
X64166666Y-155547295D02*
X64071428Y-155928247D01*
X64071428Y-155928247D02*
X63976190Y-156118723D01*
X63976190Y-156118723D02*
X63785714Y-156309200D01*
X63785714Y-156309200D02*
X63499999Y-156404438D01*
X63499999Y-156404438D02*
X63023809Y-156404438D01*
D14*
X114542857Y-156183528D02*
X114900000Y-157183528D01*
X114900000Y-157183528D02*
X115257143Y-156183528D01*
X116614286Y-157183528D02*
X115757143Y-157183528D01*
X116185714Y-157183528D02*
X116185714Y-155683528D01*
X116185714Y-155683528D02*
X116042857Y-155897814D01*
X116042857Y-155897814D02*
X115900000Y-156040671D01*
X115900000Y-156040671D02*
X115757143Y-156112100D01*
X117542857Y-155683528D02*
X117685714Y-155683528D01*
X117685714Y-155683528D02*
X117828571Y-155754957D01*
X117828571Y-155754957D02*
X117900000Y-155826385D01*
X117900000Y-155826385D02*
X117971428Y-155969242D01*
X117971428Y-155969242D02*
X118042857Y-156254957D01*
X118042857Y-156254957D02*
X118042857Y-156612100D01*
X118042857Y-156612100D02*
X117971428Y-156897814D01*
X117971428Y-156897814D02*
X117900000Y-157040671D01*
X117900000Y-157040671D02*
X117828571Y-157112100D01*
X117828571Y-157112100D02*
X117685714Y-157183528D01*
X117685714Y-157183528D02*
X117542857Y-157183528D01*
X117542857Y-157183528D02*
X117400000Y-157112100D01*
X117400000Y-157112100D02*
X117328571Y-157040671D01*
X117328571Y-157040671D02*
X117257142Y-156897814D01*
X117257142Y-156897814D02*
X117185714Y-156612100D01*
X117185714Y-156612100D02*
X117185714Y-156254957D01*
X117185714Y-156254957D02*
X117257142Y-155969242D01*
X117257142Y-155969242D02*
X117328571Y-155826385D01*
X117328571Y-155826385D02*
X117400000Y-155754957D01*
X117400000Y-155754957D02*
X117542857Y-155683528D01*
X118685713Y-157040671D02*
X118757142Y-157112100D01*
X118757142Y-157112100D02*
X118685713Y-157183528D01*
X118685713Y-157183528D02*
X118614285Y-157112100D01*
X118614285Y-157112100D02*
X118685713Y-157040671D01*
X118685713Y-157040671D02*
X118685713Y-157183528D01*
X119257142Y-155683528D02*
X120185714Y-155683528D01*
X120185714Y-155683528D02*
X119685714Y-156254957D01*
X119685714Y-156254957D02*
X119899999Y-156254957D01*
X119899999Y-156254957D02*
X120042857Y-156326385D01*
X120042857Y-156326385D02*
X120114285Y-156397814D01*
X120114285Y-156397814D02*
X120185714Y-156540671D01*
X120185714Y-156540671D02*
X120185714Y-156897814D01*
X120185714Y-156897814D02*
X120114285Y-157040671D01*
X120114285Y-157040671D02*
X120042857Y-157112100D01*
X120042857Y-157112100D02*
X119899999Y-157183528D01*
X119899999Y-157183528D02*
X119471428Y-157183528D01*
X119471428Y-157183528D02*
X119328571Y-157112100D01*
X119328571Y-157112100D02*
X119257142Y-157040671D01*
D16*
X93649999Y-139028328D02*
X93649999Y-137528328D01*
X93649999Y-137528328D02*
X94149999Y-138599757D01*
X94149999Y-138599757D02*
X94649999Y-137528328D01*
X94649999Y-137528328D02*
X94649999Y-139028328D01*
X96007143Y-138028328D02*
X96007143Y-139028328D01*
X95364285Y-138028328D02*
X95364285Y-138814042D01*
X95364285Y-138814042D02*
X95435714Y-138956900D01*
X95435714Y-138956900D02*
X95578571Y-139028328D01*
X95578571Y-139028328D02*
X95792857Y-139028328D01*
X95792857Y-139028328D02*
X95935714Y-138956900D01*
X95935714Y-138956900D02*
X96007143Y-138885471D01*
X96935714Y-139028328D02*
X96792857Y-138956900D01*
X96792857Y-138956900D02*
X96721428Y-138814042D01*
X96721428Y-138814042D02*
X96721428Y-137528328D01*
X97292857Y-138028328D02*
X97864285Y-138028328D01*
X97507142Y-137528328D02*
X97507142Y-138814042D01*
X97507142Y-138814042D02*
X97578571Y-138956900D01*
X97578571Y-138956900D02*
X97721428Y-139028328D01*
X97721428Y-139028328D02*
X97864285Y-139028328D01*
D12*
X80850000Y-157018404D02*
X80850000Y-151518404D01*
X80850000Y-151518404D02*
X83135714Y-151518404D01*
X83135714Y-151518404D02*
X83707143Y-151780309D01*
X83707143Y-151780309D02*
X83992857Y-152042214D01*
X83992857Y-152042214D02*
X84278571Y-152566023D01*
X84278571Y-152566023D02*
X84278571Y-153351738D01*
X84278571Y-153351738D02*
X83992857Y-153875547D01*
X83992857Y-153875547D02*
X83707143Y-154137452D01*
X83707143Y-154137452D02*
X83135714Y-154399357D01*
X83135714Y-154399357D02*
X80850000Y-154399357D01*
X88850000Y-154137452D02*
X89707143Y-154399357D01*
X89707143Y-154399357D02*
X89992857Y-154661261D01*
X89992857Y-154661261D02*
X90278571Y-155185071D01*
X90278571Y-155185071D02*
X90278571Y-155970785D01*
X90278571Y-155970785D02*
X89992857Y-156494595D01*
X89992857Y-156494595D02*
X89707143Y-156756500D01*
X89707143Y-156756500D02*
X89135714Y-157018404D01*
X89135714Y-157018404D02*
X86850000Y-157018404D01*
X86850000Y-157018404D02*
X86850000Y-151518404D01*
X86850000Y-151518404D02*
X88850000Y-151518404D01*
X88850000Y-151518404D02*
X89421429Y-151780309D01*
X89421429Y-151780309D02*
X89707143Y-152042214D01*
X89707143Y-152042214D02*
X89992857Y-152566023D01*
X89992857Y-152566023D02*
X89992857Y-153089833D01*
X89992857Y-153089833D02*
X89707143Y-153613642D01*
X89707143Y-153613642D02*
X89421429Y-153875547D01*
X89421429Y-153875547D02*
X88850000Y-154137452D01*
X88850000Y-154137452D02*
X86850000Y-154137452D01*
X94564286Y-151518404D02*
X94564286Y-155446976D01*
X94564286Y-155446976D02*
X94278571Y-156232690D01*
X94278571Y-156232690D02*
X93707143Y-156756500D01*
X93707143Y-156756500D02*
X92850000Y-157018404D01*
X92850000Y-157018404D02*
X92278571Y-157018404D01*
X101992858Y-154137452D02*
X103992858Y-154137452D01*
X104850001Y-157018404D02*
X101992858Y-157018404D01*
X101992858Y-157018404D02*
X101992858Y-151518404D01*
X101992858Y-151518404D02*
X104850001Y-151518404D01*
X107421429Y-151518404D02*
X107421429Y-155970785D01*
X107421429Y-155970785D02*
X107707143Y-156494595D01*
X107707143Y-156494595D02*
X107992858Y-156756500D01*
X107992858Y-156756500D02*
X108564286Y-157018404D01*
X108564286Y-157018404D02*
X109707143Y-157018404D01*
X109707143Y-157018404D02*
X110278572Y-156756500D01*
X110278572Y-156756500D02*
X110564286Y-156494595D01*
X110564286Y-156494595D02*
X110850000Y-155970785D01*
X110850000Y-155970785D02*
X110850000Y-151518404D01*
D15*
X139380952Y-134971104D02*
X139380952Y-136304438D01*
X138904761Y-134209200D02*
X138428571Y-135637771D01*
X138428571Y-135637771D02*
X139666666Y-135637771D01*
D13*
X92135714Y-128754819D02*
X91564286Y-128754819D01*
X91850000Y-128754819D02*
X91850000Y-127754819D01*
X91850000Y-127754819D02*
X91754762Y-127897676D01*
X91754762Y-127897676D02*
X91659524Y-127992914D01*
X91659524Y-127992914D02*
X91564286Y-128040533D01*
D14*
X49953006Y-126628409D02*
X50095863Y-126676028D01*
X50095863Y-126676028D02*
X50143482Y-126723647D01*
X50143482Y-126723647D02*
X50191101Y-126818885D01*
X50191101Y-126818885D02*
X50191101Y-126961742D01*
X50191101Y-126961742D02*
X50143482Y-127056980D01*
X50143482Y-127056980D02*
X50095863Y-127104600D01*
X50095863Y-127104600D02*
X50000625Y-127152219D01*
X50000625Y-127152219D02*
X49619673Y-127152219D01*
X49619673Y-127152219D02*
X49619673Y-126152219D01*
X49619673Y-126152219D02*
X49953006Y-126152219D01*
X49953006Y-126152219D02*
X50048244Y-126199838D01*
X50048244Y-126199838D02*
X50095863Y-126247457D01*
X50095863Y-126247457D02*
X50143482Y-126342695D01*
X50143482Y-126342695D02*
X50143482Y-126437933D01*
X50143482Y-126437933D02*
X50095863Y-126533171D01*
X50095863Y-126533171D02*
X50048244Y-126580790D01*
X50048244Y-126580790D02*
X49953006Y-126628409D01*
X49953006Y-126628409D02*
X49619673Y-126628409D01*
X32771428Y-140833528D02*
X33057142Y-140833528D01*
X33057142Y-140833528D02*
X33199999Y-140904957D01*
X33199999Y-140904957D02*
X33342856Y-141047814D01*
X33342856Y-141047814D02*
X33414285Y-141333528D01*
X33414285Y-141333528D02*
X33414285Y-141833528D01*
X33414285Y-141833528D02*
X33342856Y-142119242D01*
X33342856Y-142119242D02*
X33199999Y-142262100D01*
X33199999Y-142262100D02*
X33057142Y-142333528D01*
X33057142Y-142333528D02*
X32771428Y-142333528D01*
X32771428Y-142333528D02*
X32628571Y-142262100D01*
X32628571Y-142262100D02*
X32485713Y-142119242D01*
X32485713Y-142119242D02*
X32414285Y-141833528D01*
X32414285Y-141833528D02*
X32414285Y-141333528D01*
X32414285Y-141333528D02*
X32485713Y-141047814D01*
X32485713Y-141047814D02*
X32628571Y-140904957D01*
X32628571Y-140904957D02*
X32771428Y-140833528D01*
X34057142Y-142333528D02*
X34057142Y-140833528D01*
X34057142Y-140833528D02*
X34914285Y-142333528D01*
X34914285Y-142333528D02*
X34914285Y-140833528D01*
D13*
X120785160Y-132442104D02*
X121261350Y-132442104D01*
X120689922Y-132727819D02*
X121023255Y-131727819D01*
X121023255Y-131727819D02*
X121356588Y-132727819D01*
X122404208Y-132442104D02*
X122880398Y-132442104D01*
X122308970Y-132727819D02*
X122642303Y-131727819D01*
X122642303Y-131727819D02*
X122975636Y-132727819D01*
X123737541Y-132727819D02*
X123737541Y-131727819D01*
X123737541Y-132680200D02*
X123642303Y-132727819D01*
X123642303Y-132727819D02*
X123451827Y-132727819D01*
X123451827Y-132727819D02*
X123356589Y-132680200D01*
X123356589Y-132680200D02*
X123308970Y-132632580D01*
X123308970Y-132632580D02*
X123261351Y-132537342D01*
X123261351Y-132537342D02*
X123261351Y-132251628D01*
X123261351Y-132251628D02*
X123308970Y-132156390D01*
X123308970Y-132156390D02*
X123356589Y-132108771D01*
X123356589Y-132108771D02*
X123451827Y-132061152D01*
X123451827Y-132061152D02*
X123642303Y-132061152D01*
X123642303Y-132061152D02*
X123737541Y-132108771D01*
X124213732Y-132061152D02*
X124213732Y-132918295D01*
X124213732Y-132918295D02*
X124166113Y-133013533D01*
X124166113Y-133013533D02*
X124070875Y-133061152D01*
X124070875Y-133061152D02*
X124023256Y-133061152D01*
X124213732Y-131727819D02*
X124166113Y-131775438D01*
X124166113Y-131775438D02*
X124213732Y-131823057D01*
X124213732Y-131823057D02*
X124261351Y-131775438D01*
X124261351Y-131775438D02*
X124213732Y-131727819D01*
X124213732Y-131727819D02*
X124213732Y-131823057D01*
X124689922Y-132632580D02*
X124737541Y-132680200D01*
X124737541Y-132680200D02*
X124689922Y-132727819D01*
X124689922Y-132727819D02*
X124642303Y-132680200D01*
X124642303Y-132680200D02*
X124689922Y-132632580D01*
X124689922Y-132632580D02*
X124689922Y-132727819D01*
X101883333Y-121066033D02*
X102216666Y-121066033D01*
X101816666Y-121266033D02*
X102050000Y-120566033D01*
X102050000Y-120566033D02*
X102283333Y-121266033D01*
D14*
X47969673Y-132321266D02*
X48731578Y-132321266D01*
X49731577Y-132702219D02*
X49160149Y-132702219D01*
X49445863Y-132702219D02*
X49445863Y-131702219D01*
X49445863Y-131702219D02*
X49350625Y-131845076D01*
X49350625Y-131845076D02*
X49255387Y-131940314D01*
X49255387Y-131940314D02*
X49160149Y-131987933D01*
X50112530Y-131797457D02*
X50160149Y-131749838D01*
X50160149Y-131749838D02*
X50255387Y-131702219D01*
X50255387Y-131702219D02*
X50493482Y-131702219D01*
X50493482Y-131702219D02*
X50588720Y-131749838D01*
X50588720Y-131749838D02*
X50636339Y-131797457D01*
X50636339Y-131797457D02*
X50683958Y-131892695D01*
X50683958Y-131892695D02*
X50683958Y-131987933D01*
X50683958Y-131987933D02*
X50636339Y-132130790D01*
X50636339Y-132130790D02*
X50064911Y-132702219D01*
X50064911Y-132702219D02*
X50683958Y-132702219D01*
D15*
X52971428Y-136304438D02*
X51828571Y-136304438D01*
X52399999Y-136304438D02*
X52399999Y-134304438D01*
X52399999Y-134304438D02*
X52209523Y-134590152D01*
X52209523Y-134590152D02*
X52019047Y-134780628D01*
X52019047Y-134780628D02*
X51828571Y-134875866D01*
D12*
X115413142Y-122202714D02*
X115127428Y-122059857D01*
X115127428Y-122059857D02*
X114698856Y-122059857D01*
X114698856Y-122059857D02*
X114270285Y-122202714D01*
X114270285Y-122202714D02*
X113984570Y-122488428D01*
X113984570Y-122488428D02*
X113841713Y-122774142D01*
X113841713Y-122774142D02*
X113698856Y-123345571D01*
X113698856Y-123345571D02*
X113698856Y-123774142D01*
X113698856Y-123774142D02*
X113841713Y-124345571D01*
X113841713Y-124345571D02*
X113984570Y-124631285D01*
X113984570Y-124631285D02*
X114270285Y-124917000D01*
X114270285Y-124917000D02*
X114698856Y-125059857D01*
X114698856Y-125059857D02*
X114984570Y-125059857D01*
X114984570Y-125059857D02*
X115413142Y-124917000D01*
X115413142Y-124917000D02*
X115555999Y-124774142D01*
X115555999Y-124774142D02*
X115555999Y-123774142D01*
X115555999Y-123774142D02*
X114984570Y-123774142D01*
X116841713Y-125059857D02*
X116841713Y-123059857D01*
X116841713Y-123631285D02*
X116984570Y-123345571D01*
X116984570Y-123345571D02*
X117127428Y-123202714D01*
X117127428Y-123202714D02*
X117413142Y-123059857D01*
X117413142Y-123059857D02*
X117698856Y-123059857D01*
X119841713Y-124917000D02*
X119555999Y-125059857D01*
X119555999Y-125059857D02*
X118984571Y-125059857D01*
X118984571Y-125059857D02*
X118698856Y-124917000D01*
X118698856Y-124917000D02*
X118555999Y-124631285D01*
X118555999Y-124631285D02*
X118555999Y-123488428D01*
X118555999Y-123488428D02*
X118698856Y-123202714D01*
X118698856Y-123202714D02*
X118984571Y-123059857D01*
X118984571Y-123059857D02*
X119555999Y-123059857D01*
X119555999Y-123059857D02*
X119841713Y-123202714D01*
X119841713Y-123202714D02*
X119984571Y-123488428D01*
X119984571Y-123488428D02*
X119984571Y-123774142D01*
X119984571Y-123774142D02*
X118555999Y-124059857D01*
X122413142Y-124917000D02*
X122127428Y-125059857D01*
X122127428Y-125059857D02*
X121556000Y-125059857D01*
X121556000Y-125059857D02*
X121270285Y-124917000D01*
X121270285Y-124917000D02*
X121127428Y-124631285D01*
X121127428Y-124631285D02*
X121127428Y-123488428D01*
X121127428Y-123488428D02*
X121270285Y-123202714D01*
X121270285Y-123202714D02*
X121556000Y-123059857D01*
X121556000Y-123059857D02*
X122127428Y-123059857D01*
X122127428Y-123059857D02*
X122413142Y-123202714D01*
X122413142Y-123202714D02*
X122556000Y-123488428D01*
X122556000Y-123488428D02*
X122556000Y-123774142D01*
X122556000Y-123774142D02*
X121127428Y-124059857D01*
X123841714Y-123059857D02*
X123841714Y-125059857D01*
X123841714Y-123345571D02*
X123984571Y-123202714D01*
X123984571Y-123202714D02*
X124270286Y-123059857D01*
X124270286Y-123059857D02*
X124698857Y-123059857D01*
X124698857Y-123059857D02*
X124984571Y-123202714D01*
X124984571Y-123202714D02*
X125127429Y-123488428D01*
X125127429Y-123488428D02*
X125127429Y-125059857D01*
X126127429Y-123059857D02*
X127270286Y-123059857D01*
X126556000Y-125059857D02*
X126556000Y-122488428D01*
X126556000Y-122488428D02*
X126698857Y-122202714D01*
X126698857Y-122202714D02*
X126984572Y-122059857D01*
X126984572Y-122059857D02*
X127270286Y-122059857D01*
X129556001Y-125059857D02*
X129556001Y-123488428D01*
X129556001Y-123488428D02*
X129413143Y-123202714D01*
X129413143Y-123202714D02*
X129127429Y-123059857D01*
X129127429Y-123059857D02*
X128556001Y-123059857D01*
X128556001Y-123059857D02*
X128270286Y-123202714D01*
X129556001Y-124917000D02*
X129270286Y-125059857D01*
X129270286Y-125059857D02*
X128556001Y-125059857D01*
X128556001Y-125059857D02*
X128270286Y-124917000D01*
X128270286Y-124917000D02*
X128127429Y-124631285D01*
X128127429Y-124631285D02*
X128127429Y-124345571D01*
X128127429Y-124345571D02*
X128270286Y-124059857D01*
X128270286Y-124059857D02*
X128556001Y-123917000D01*
X128556001Y-123917000D02*
X129270286Y-123917000D01*
X129270286Y-123917000D02*
X129556001Y-123774142D01*
X132270287Y-124917000D02*
X131984572Y-125059857D01*
X131984572Y-125059857D02*
X131413144Y-125059857D01*
X131413144Y-125059857D02*
X131127429Y-124917000D01*
X131127429Y-124917000D02*
X130984572Y-124774142D01*
X130984572Y-124774142D02*
X130841715Y-124488428D01*
X130841715Y-124488428D02*
X130841715Y-123631285D01*
X130841715Y-123631285D02*
X130984572Y-123345571D01*
X130984572Y-123345571D02*
X131127429Y-123202714D01*
X131127429Y-123202714D02*
X131413144Y-123059857D01*
X131413144Y-123059857D02*
X131984572Y-123059857D01*
X131984572Y-123059857D02*
X132270287Y-123202714D01*
X134698858Y-124917000D02*
X134413144Y-125059857D01*
X134413144Y-125059857D02*
X133841716Y-125059857D01*
X133841716Y-125059857D02*
X133556001Y-124917000D01*
X133556001Y-124917000D02*
X133413144Y-124631285D01*
X133413144Y-124631285D02*
X133413144Y-123488428D01*
X133413144Y-123488428D02*
X133556001Y-123202714D01*
X133556001Y-123202714D02*
X133841716Y-123059857D01*
X133841716Y-123059857D02*
X134413144Y-123059857D01*
X134413144Y-123059857D02*
X134698858Y-123202714D01*
X134698858Y-123202714D02*
X134841716Y-123488428D01*
X134841716Y-123488428D02*
X134841716Y-123774142D01*
X134841716Y-123774142D02*
X133413144Y-124059857D01*
X139841716Y-125059857D02*
X138413144Y-125059857D01*
X138413144Y-125059857D02*
X138413144Y-122059857D01*
X142127430Y-125059857D02*
X142127430Y-123488428D01*
X142127430Y-123488428D02*
X141984572Y-123202714D01*
X141984572Y-123202714D02*
X141698858Y-123059857D01*
X141698858Y-123059857D02*
X141127430Y-123059857D01*
X141127430Y-123059857D02*
X140841715Y-123202714D01*
X142127430Y-124917000D02*
X141841715Y-125059857D01*
X141841715Y-125059857D02*
X141127430Y-125059857D01*
X141127430Y-125059857D02*
X140841715Y-124917000D01*
X140841715Y-124917000D02*
X140698858Y-124631285D01*
X140698858Y-124631285D02*
X140698858Y-124345571D01*
X140698858Y-124345571D02*
X140841715Y-124059857D01*
X140841715Y-124059857D02*
X141127430Y-123917000D01*
X141127430Y-123917000D02*
X141841715Y-123917000D01*
X141841715Y-123917000D02*
X142127430Y-123774142D01*
X143556001Y-125059857D02*
X143556001Y-122059857D01*
X143556001Y-123202714D02*
X143841716Y-123059857D01*
X143841716Y-123059857D02*
X144413144Y-123059857D01*
X144413144Y-123059857D02*
X144698858Y-123202714D01*
X144698858Y-123202714D02*
X144841716Y-123345571D01*
X144841716Y-123345571D02*
X144984573Y-123631285D01*
X144984573Y-123631285D02*
X144984573Y-124488428D01*
X144984573Y-124488428D02*
X144841716Y-124774142D01*
X144841716Y-124774142D02*
X144698858Y-124917000D01*
X144698858Y-124917000D02*
X144413144Y-125059857D01*
X144413144Y-125059857D02*
X143841716Y-125059857D01*
X143841716Y-125059857D02*
X143556001Y-124917000D01*
X146127430Y-124917000D02*
X146413144Y-125059857D01*
X146413144Y-125059857D02*
X146984573Y-125059857D01*
X146984573Y-125059857D02*
X147270287Y-124917000D01*
X147270287Y-124917000D02*
X147413144Y-124631285D01*
X147413144Y-124631285D02*
X147413144Y-124488428D01*
X147413144Y-124488428D02*
X147270287Y-124202714D01*
X147270287Y-124202714D02*
X146984573Y-124059857D01*
X146984573Y-124059857D02*
X146556002Y-124059857D01*
X146556002Y-124059857D02*
X146270287Y-123917000D01*
X146270287Y-123917000D02*
X146127430Y-123631285D01*
X146127430Y-123631285D02*
X146127430Y-123488428D01*
X146127430Y-123488428D02*
X146270287Y-123202714D01*
X146270287Y-123202714D02*
X146556002Y-123059857D01*
X146556002Y-123059857D02*
X146984573Y-123059857D01*
X146984573Y-123059857D02*
X147270287Y-123202714D01*
D16*
X69571428Y-125328328D02*
X69857142Y-125328328D01*
X69857142Y-125328328D02*
X69999999Y-125399757D01*
X69999999Y-125399757D02*
X70142856Y-125542614D01*
X70142856Y-125542614D02*
X70214285Y-125828328D01*
X70214285Y-125828328D02*
X70214285Y-126328328D01*
X70214285Y-126328328D02*
X70142856Y-126614042D01*
X70142856Y-126614042D02*
X69999999Y-126756900D01*
X69999999Y-126756900D02*
X69857142Y-126828328D01*
X69857142Y-126828328D02*
X69571428Y-126828328D01*
X69571428Y-126828328D02*
X69428571Y-126756900D01*
X69428571Y-126756900D02*
X69285713Y-126614042D01*
X69285713Y-126614042D02*
X69214285Y-126328328D01*
X69214285Y-126328328D02*
X69214285Y-125828328D01*
X69214285Y-125828328D02*
X69285713Y-125542614D01*
X69285713Y-125542614D02*
X69428571Y-125399757D01*
X69428571Y-125399757D02*
X69571428Y-125328328D01*
X70857142Y-126828328D02*
X70857142Y-125328328D01*
X70857142Y-125328328D02*
X71714285Y-126828328D01*
X71714285Y-126828328D02*
X71714285Y-125328328D01*
X60435713Y-130678328D02*
X60435713Y-129178328D01*
X60435713Y-129178328D02*
X61007142Y-129178328D01*
X61007142Y-129178328D02*
X61149999Y-129249757D01*
X61149999Y-129249757D02*
X61221428Y-129321185D01*
X61221428Y-129321185D02*
X61292856Y-129464042D01*
X61292856Y-129464042D02*
X61292856Y-129678328D01*
X61292856Y-129678328D02*
X61221428Y-129821185D01*
X61221428Y-129821185D02*
X61149999Y-129892614D01*
X61149999Y-129892614D02*
X61007142Y-129964042D01*
X61007142Y-129964042D02*
X60435713Y-129964042D01*
X62221428Y-129178328D02*
X62507142Y-129178328D01*
X62507142Y-129178328D02*
X62649999Y-129249757D01*
X62649999Y-129249757D02*
X62792856Y-129392614D01*
X62792856Y-129392614D02*
X62864285Y-129678328D01*
X62864285Y-129678328D02*
X62864285Y-130178328D01*
X62864285Y-130178328D02*
X62792856Y-130464042D01*
X62792856Y-130464042D02*
X62649999Y-130606900D01*
X62649999Y-130606900D02*
X62507142Y-130678328D01*
X62507142Y-130678328D02*
X62221428Y-130678328D01*
X62221428Y-130678328D02*
X62078571Y-130606900D01*
X62078571Y-130606900D02*
X61935713Y-130464042D01*
X61935713Y-130464042D02*
X61864285Y-130178328D01*
X61864285Y-130178328D02*
X61864285Y-129678328D01*
X61864285Y-129678328D02*
X61935713Y-129392614D01*
X61935713Y-129392614D02*
X62078571Y-129249757D01*
X62078571Y-129249757D02*
X62221428Y-129178328D01*
X63364285Y-129178328D02*
X63721428Y-130678328D01*
X63721428Y-130678328D02*
X64007142Y-129606900D01*
X64007142Y-129606900D02*
X64292857Y-130678328D01*
X64292857Y-130678328D02*
X64650000Y-129178328D01*
X65221428Y-129892614D02*
X65721428Y-129892614D01*
X65935714Y-130678328D02*
X65221428Y-130678328D01*
X65221428Y-130678328D02*
X65221428Y-129178328D01*
X65221428Y-129178328D02*
X65935714Y-129178328D01*
X67435714Y-130678328D02*
X66935714Y-129964042D01*
X66578571Y-130678328D02*
X66578571Y-129178328D01*
X66578571Y-129178328D02*
X67150000Y-129178328D01*
X67150000Y-129178328D02*
X67292857Y-129249757D01*
X67292857Y-129249757D02*
X67364286Y-129321185D01*
X67364286Y-129321185D02*
X67435714Y-129464042D01*
X67435714Y-129464042D02*
X67435714Y-129678328D01*
X67435714Y-129678328D02*
X67364286Y-129821185D01*
X67364286Y-129821185D02*
X67292857Y-129892614D01*
X67292857Y-129892614D02*
X67150000Y-129964042D01*
X67150000Y-129964042D02*
X66578571Y-129964042D01*
X64999999Y-138428328D02*
X64999999Y-136928328D01*
X64999999Y-136928328D02*
X65499999Y-137999757D01*
X65499999Y-137999757D02*
X65999999Y-136928328D01*
X65999999Y-136928328D02*
X65999999Y-138428328D01*
X67357143Y-137428328D02*
X67357143Y-138428328D01*
X66714285Y-137428328D02*
X66714285Y-138214042D01*
X66714285Y-138214042D02*
X66785714Y-138356900D01*
X66785714Y-138356900D02*
X66928571Y-138428328D01*
X66928571Y-138428328D02*
X67142857Y-138428328D01*
X67142857Y-138428328D02*
X67285714Y-138356900D01*
X67285714Y-138356900D02*
X67357143Y-138285471D01*
X68285714Y-138428328D02*
X68142857Y-138356900D01*
X68142857Y-138356900D02*
X68071428Y-138214042D01*
X68071428Y-138214042D02*
X68071428Y-136928328D01*
X68642857Y-137428328D02*
X69214285Y-137428328D01*
X68857142Y-136928328D02*
X68857142Y-138214042D01*
X68857142Y-138214042D02*
X68928571Y-138356900D01*
X68928571Y-138356900D02*
X69071428Y-138428328D01*
X69071428Y-138428328D02*
X69214285Y-138428328D01*
D13*
X88166666Y-128349366D02*
X88700000Y-128349366D01*
X89400000Y-128616033D02*
X89000000Y-128616033D01*
X89200000Y-128616033D02*
X89200000Y-127916033D01*
X89200000Y-127916033D02*
X89133333Y-128016033D01*
X89133333Y-128016033D02*
X89066667Y-128082700D01*
X89066667Y-128082700D02*
X89000000Y-128116033D01*
X89666667Y-127982700D02*
X89700000Y-127949366D01*
X89700000Y-127949366D02*
X89766667Y-127916033D01*
X89766667Y-127916033D02*
X89933334Y-127916033D01*
X89933334Y-127916033D02*
X90000000Y-127949366D01*
X90000000Y-127949366D02*
X90033334Y-127982700D01*
X90033334Y-127982700D02*
X90066667Y-128049366D01*
X90066667Y-128049366D02*
X90066667Y-128116033D01*
X90066667Y-128116033D02*
X90033334Y-128216033D01*
X90033334Y-128216033D02*
X89633334Y-128616033D01*
X89633334Y-128616033D02*
X90066667Y-128616033D01*
D15*
X80128571Y-134494914D02*
X80223809Y-134399676D01*
X80223809Y-134399676D02*
X80414285Y-134304438D01*
X80414285Y-134304438D02*
X80890476Y-134304438D01*
X80890476Y-134304438D02*
X81080952Y-134399676D01*
X81080952Y-134399676D02*
X81176190Y-134494914D01*
X81176190Y-134494914D02*
X81271428Y-134685390D01*
X81271428Y-134685390D02*
X81271428Y-134875866D01*
X81271428Y-134875866D02*
X81176190Y-135161580D01*
X81176190Y-135161580D02*
X80033333Y-136304438D01*
X80033333Y-136304438D02*
X81271428Y-136304438D01*
D14*
X42919673Y-132321266D02*
X43681578Y-132321266D01*
X43300625Y-132702219D02*
X43300625Y-131940314D01*
X44681577Y-132702219D02*
X44110149Y-132702219D01*
X44395863Y-132702219D02*
X44395863Y-131702219D01*
X44395863Y-131702219D02*
X44300625Y-131845076D01*
X44300625Y-131845076D02*
X44205387Y-131940314D01*
X44205387Y-131940314D02*
X44110149Y-131987933D01*
X45062530Y-131797457D02*
X45110149Y-131749838D01*
X45110149Y-131749838D02*
X45205387Y-131702219D01*
X45205387Y-131702219D02*
X45443482Y-131702219D01*
X45443482Y-131702219D02*
X45538720Y-131749838D01*
X45538720Y-131749838D02*
X45586339Y-131797457D01*
X45586339Y-131797457D02*
X45633958Y-131892695D01*
X45633958Y-131892695D02*
X45633958Y-131987933D01*
X45633958Y-131987933D02*
X45586339Y-132130790D01*
X45586339Y-132130790D02*
X45014911Y-132702219D01*
X45014911Y-132702219D02*
X45633958Y-132702219D01*
D16*
X32178328Y-135978570D02*
X32178328Y-135692856D01*
X32178328Y-135692856D02*
X32249757Y-135549999D01*
X32249757Y-135549999D02*
X32392614Y-135407142D01*
X32392614Y-135407142D02*
X32678328Y-135335713D01*
X32678328Y-135335713D02*
X33178328Y-135335713D01*
X33178328Y-135335713D02*
X33464042Y-135407142D01*
X33464042Y-135407142D02*
X33606900Y-135549999D01*
X33606900Y-135549999D02*
X33678328Y-135692856D01*
X33678328Y-135692856D02*
X33678328Y-135978570D01*
X33678328Y-135978570D02*
X33606900Y-136121428D01*
X33606900Y-136121428D02*
X33464042Y-136264285D01*
X33464042Y-136264285D02*
X33178328Y-136335713D01*
X33178328Y-136335713D02*
X32678328Y-136335713D01*
X32678328Y-136335713D02*
X32392614Y-136264285D01*
X32392614Y-136264285D02*
X32249757Y-136121428D01*
X32249757Y-136121428D02*
X32178328Y-135978570D01*
X32892614Y-134192856D02*
X32892614Y-134692856D01*
X33678328Y-134692856D02*
X32178328Y-134692856D01*
X32178328Y-134692856D02*
X32178328Y-133978570D01*
X32892614Y-132907142D02*
X32892614Y-133407142D01*
X33678328Y-133407142D02*
X32178328Y-133407142D01*
X32178328Y-133407142D02*
X32178328Y-132692856D01*
D13*
X104091667Y-120574366D02*
X104025000Y-120541033D01*
X104025000Y-120541033D02*
X103925000Y-120541033D01*
X103925000Y-120541033D02*
X103825000Y-120574366D01*
X103825000Y-120574366D02*
X103758334Y-120641033D01*
X103758334Y-120641033D02*
X103725000Y-120707700D01*
X103725000Y-120707700D02*
X103691667Y-120841033D01*
X103691667Y-120841033D02*
X103691667Y-120941033D01*
X103691667Y-120941033D02*
X103725000Y-121074366D01*
X103725000Y-121074366D02*
X103758334Y-121141033D01*
X103758334Y-121141033D02*
X103825000Y-121207700D01*
X103825000Y-121207700D02*
X103925000Y-121241033D01*
X103925000Y-121241033D02*
X103991667Y-121241033D01*
X103991667Y-121241033D02*
X104091667Y-121207700D01*
X104091667Y-121207700D02*
X104125000Y-121174366D01*
X104125000Y-121174366D02*
X104125000Y-120941033D01*
X104125000Y-120941033D02*
X103991667Y-120941033D01*
X104425000Y-121241033D02*
X104425000Y-120541033D01*
X104425000Y-120541033D02*
X104825000Y-121241033D01*
X104825000Y-121241033D02*
X104825000Y-120541033D01*
X105158333Y-121241033D02*
X105158333Y-120541033D01*
X105158333Y-120541033D02*
X105325000Y-120541033D01*
X105325000Y-120541033D02*
X105425000Y-120574366D01*
X105425000Y-120574366D02*
X105491667Y-120641033D01*
X105491667Y-120641033D02*
X105525000Y-120707700D01*
X105525000Y-120707700D02*
X105558333Y-120841033D01*
X105558333Y-120841033D02*
X105558333Y-120941033D01*
X105558333Y-120941033D02*
X105525000Y-121074366D01*
X105525000Y-121074366D02*
X105491667Y-121141033D01*
X105491667Y-121141033D02*
X105425000Y-121207700D01*
X105425000Y-121207700D02*
X105325000Y-121241033D01*
X105325000Y-121241033D02*
X105158333Y-121241033D01*
D14*
X44472054Y-126866504D02*
X44948244Y-126866504D01*
X44376816Y-127152219D02*
X44710149Y-126152219D01*
X44710149Y-126152219D02*
X45043482Y-127152219D01*
D13*
X88016666Y-120649366D02*
X88550000Y-120649366D01*
X89250000Y-120916033D02*
X88850000Y-120916033D01*
X89050000Y-120916033D02*
X89050000Y-120216033D01*
X89050000Y-120216033D02*
X88983333Y-120316033D01*
X88983333Y-120316033D02*
X88916667Y-120382700D01*
X88916667Y-120382700D02*
X88850000Y-120416033D01*
X89516667Y-120282700D02*
X89550000Y-120249366D01*
X89550000Y-120249366D02*
X89616667Y-120216033D01*
X89616667Y-120216033D02*
X89783334Y-120216033D01*
X89783334Y-120216033D02*
X89850000Y-120249366D01*
X89850000Y-120249366D02*
X89883334Y-120282700D01*
X89883334Y-120282700D02*
X89916667Y-120349366D01*
X89916667Y-120349366D02*
X89916667Y-120416033D01*
X89916667Y-120416033D02*
X89883334Y-120516033D01*
X89883334Y-120516033D02*
X89483334Y-120916033D01*
X89483334Y-120916033D02*
X89916667Y-120916033D01*
D14*
X31871428Y-137883528D02*
X32157142Y-137883528D01*
X32157142Y-137883528D02*
X32299999Y-137954957D01*
X32299999Y-137954957D02*
X32442856Y-138097814D01*
X32442856Y-138097814D02*
X32514285Y-138383528D01*
X32514285Y-138383528D02*
X32514285Y-138883528D01*
X32514285Y-138883528D02*
X32442856Y-139169242D01*
X32442856Y-139169242D02*
X32299999Y-139312100D01*
X32299999Y-139312100D02*
X32157142Y-139383528D01*
X32157142Y-139383528D02*
X31871428Y-139383528D01*
X31871428Y-139383528D02*
X31728571Y-139312100D01*
X31728571Y-139312100D02*
X31585713Y-139169242D01*
X31585713Y-139169242D02*
X31514285Y-138883528D01*
X31514285Y-138883528D02*
X31514285Y-138383528D01*
X31514285Y-138383528D02*
X31585713Y-138097814D01*
X31585713Y-138097814D02*
X31728571Y-137954957D01*
X31728571Y-137954957D02*
X31871428Y-137883528D01*
X33157142Y-139383528D02*
X33157142Y-137883528D01*
X33157142Y-137883528D02*
X34014285Y-139383528D01*
X34014285Y-139383528D02*
X34014285Y-137883528D01*
D13*
X85466666Y-120674366D02*
X86000000Y-120674366D01*
X85733333Y-120941033D02*
X85733333Y-120407700D01*
X86700000Y-120941033D02*
X86300000Y-120941033D01*
X86500000Y-120941033D02*
X86500000Y-120241033D01*
X86500000Y-120241033D02*
X86433333Y-120341033D01*
X86433333Y-120341033D02*
X86366667Y-120407700D01*
X86366667Y-120407700D02*
X86300000Y-120441033D01*
X86966667Y-120307700D02*
X87000000Y-120274366D01*
X87000000Y-120274366D02*
X87066667Y-120241033D01*
X87066667Y-120241033D02*
X87233334Y-120241033D01*
X87233334Y-120241033D02*
X87300000Y-120274366D01*
X87300000Y-120274366D02*
X87333334Y-120307700D01*
X87333334Y-120307700D02*
X87366667Y-120374366D01*
X87366667Y-120374366D02*
X87366667Y-120441033D01*
X87366667Y-120441033D02*
X87333334Y-120541033D01*
X87333334Y-120541033D02*
X86933334Y-120941033D01*
X86933334Y-120941033D02*
X87366667Y-120941033D01*
D15*
X110033333Y-134304438D02*
X111271428Y-134304438D01*
X111271428Y-134304438D02*
X110604761Y-135066342D01*
X110604761Y-135066342D02*
X110890476Y-135066342D01*
X110890476Y-135066342D02*
X111080952Y-135161580D01*
X111080952Y-135161580D02*
X111176190Y-135256819D01*
X111176190Y-135256819D02*
X111271428Y-135447295D01*
X111271428Y-135447295D02*
X111271428Y-135923485D01*
X111271428Y-135923485D02*
X111176190Y-136113961D01*
X111176190Y-136113961D02*
X111080952Y-136209200D01*
X111080952Y-136209200D02*
X110890476Y-136304438D01*
X110890476Y-136304438D02*
X110319047Y-136304438D01*
X110319047Y-136304438D02*
X110128571Y-136209200D01*
X110128571Y-136209200D02*
X110033333Y-136113961D01*
D13*
X97505238Y-37671009D02*
X97648095Y-37718628D01*
X97648095Y-37718628D02*
X97695714Y-37766247D01*
X97695714Y-37766247D02*
X97743333Y-37861485D01*
X97743333Y-37861485D02*
X97743333Y-38004342D01*
X97743333Y-38004342D02*
X97695714Y-38099580D01*
X97695714Y-38099580D02*
X97648095Y-38147200D01*
X97648095Y-38147200D02*
X97552857Y-38194819D01*
X97552857Y-38194819D02*
X97171905Y-38194819D01*
X97171905Y-38194819D02*
X97171905Y-37194819D01*
X97171905Y-37194819D02*
X97505238Y-37194819D01*
X97505238Y-37194819D02*
X97600476Y-37242438D01*
X97600476Y-37242438D02*
X97648095Y-37290057D01*
X97648095Y-37290057D02*
X97695714Y-37385295D01*
X97695714Y-37385295D02*
X97695714Y-37480533D01*
X97695714Y-37480533D02*
X97648095Y-37575771D01*
X97648095Y-37575771D02*
X97600476Y-37623390D01*
X97600476Y-37623390D02*
X97505238Y-37671009D01*
X97505238Y-37671009D02*
X97171905Y-37671009D01*
X98124286Y-37290057D02*
X98171905Y-37242438D01*
X98171905Y-37242438D02*
X98267143Y-37194819D01*
X98267143Y-37194819D02*
X98505238Y-37194819D01*
X98505238Y-37194819D02*
X98600476Y-37242438D01*
X98600476Y-37242438D02*
X98648095Y-37290057D01*
X98648095Y-37290057D02*
X98695714Y-37385295D01*
X98695714Y-37385295D02*
X98695714Y-37480533D01*
X98695714Y-37480533D02*
X98648095Y-37623390D01*
X98648095Y-37623390D02*
X98076667Y-38194819D01*
X98076667Y-38194819D02*
X98695714Y-38194819D01*
X42095238Y-37331009D02*
X42238095Y-37378628D01*
X42238095Y-37378628D02*
X42285714Y-37426247D01*
X42285714Y-37426247D02*
X42333333Y-37521485D01*
X42333333Y-37521485D02*
X42333333Y-37664342D01*
X42333333Y-37664342D02*
X42285714Y-37759580D01*
X42285714Y-37759580D02*
X42238095Y-37807200D01*
X42238095Y-37807200D02*
X42142857Y-37854819D01*
X42142857Y-37854819D02*
X41761905Y-37854819D01*
X41761905Y-37854819D02*
X41761905Y-36854819D01*
X41761905Y-36854819D02*
X42095238Y-36854819D01*
X42095238Y-36854819D02*
X42190476Y-36902438D01*
X42190476Y-36902438D02*
X42238095Y-36950057D01*
X42238095Y-36950057D02*
X42285714Y-37045295D01*
X42285714Y-37045295D02*
X42285714Y-37140533D01*
X42285714Y-37140533D02*
X42238095Y-37235771D01*
X42238095Y-37235771D02*
X42190476Y-37283390D01*
X42190476Y-37283390D02*
X42095238Y-37331009D01*
X42095238Y-37331009D02*
X41761905Y-37331009D01*
X43285714Y-37854819D02*
X42714286Y-37854819D01*
X43000000Y-37854819D02*
X43000000Y-36854819D01*
X43000000Y-36854819D02*
X42904762Y-36997676D01*
X42904762Y-36997676D02*
X42809524Y-37092914D01*
X42809524Y-37092914D02*
X42714286Y-37140533D01*
X62700000Y-147450000D02*
G75*
G02*
X59200000Y-147450000I-1750000J0D01*
G01*
X59200000Y-147450000D02*
G75*
G02*
X62700000Y-147450000I1750000J0D01*
G01*
X121250000Y-147450000D02*
G75*
G02*
X117750000Y-147450000I-1750000J0D01*
G01*
X117750000Y-147450000D02*
G75*
G02*
X121250000Y-147450000I1750000J0D01*
G01*
X132250000Y-147450000D02*
G75*
G02*
X128750000Y-147450000I-1750000J0D01*
G01*
X128750000Y-147450000D02*
G75*
G02*
X132250000Y-147450000I1750000J0D01*
G01*
X149550000Y-147450000D02*
G75*
G02*
X146050000Y-147450000I-1750000J0D01*
G01*
X146050000Y-147450000D02*
G75*
G02*
X149550000Y-147450000I1750000J0D01*
G01*
D17*
X96300000Y-36200000D02*
X150900000Y-36200000D01*
X96300000Y-119800000D02*
X96300000Y-36200000D01*
X96300000Y-119800000D02*
X150900000Y-119800000D01*
X150900000Y-119800000D02*
X150900000Y-36200000D01*
D13*
X45150000Y-147450000D02*
G75*
G02*
X41650000Y-147450000I-1750000J0D01*
G01*
X41650000Y-147450000D02*
G75*
G02*
X45150000Y-147450000I1750000J0D01*
G01*
X103950000Y-147450000D02*
G75*
G02*
X100450000Y-147450000I-1750000J0D01*
G01*
X100450000Y-147450000D02*
G75*
G02*
X103950000Y-147450000I1750000J0D01*
G01*
D15*
X82356663Y-147450000D02*
G75*
G02*
X79043337Y-147450000I-1656663J0D01*
G01*
X79043337Y-147450000D02*
G75*
G02*
X82356663Y-147450000I1656663J0D01*
G01*
X51451663Y-124000000D02*
G75*
G02*
X48138337Y-124000000I-1656663J0D01*
G01*
X48138337Y-124000000D02*
G75*
G02*
X51451663Y-124000000I1656663J0D01*
G01*
X140656663Y-147450000D02*
G75*
G02*
X137343337Y-147450000I-1656663J0D01*
G01*
X137343337Y-147450000D02*
G75*
G02*
X140656663Y-147450000I1656663J0D01*
G01*
D17*
X59350000Y-128200000D02*
X59350000Y-123800000D01*
X68150000Y-123800000D02*
X59350000Y-123800000D01*
X68150000Y-128200000D02*
X59350000Y-128200000D01*
X68150000Y-128200000D02*
X68150000Y-123800000D01*
D15*
X112356663Y-147450000D02*
G75*
G02*
X109043337Y-147450000I-1656663J0D01*
G01*
X109043337Y-147450000D02*
G75*
G02*
X112356663Y-147450000I1656663J0D01*
G01*
D17*
X85470000Y-121670000D02*
X105910000Y-121670000D01*
X85470000Y-124270000D02*
X85470000Y-121670000D01*
X85470000Y-126870000D02*
X85470000Y-125540000D01*
X86800000Y-126870000D02*
X85470000Y-126870000D01*
X88070000Y-124270000D02*
X85470000Y-124270000D01*
X88070000Y-126870000D02*
X88070000Y-124270000D01*
X88070000Y-126870000D02*
X105910000Y-126870000D01*
X105910000Y-126870000D02*
X105910000Y-121670000D01*
D13*
X124750000Y-155500000D02*
G75*
G02*
X121250000Y-155500000I-1750000J0D01*
G01*
X121250000Y-155500000D02*
G75*
G02*
X124750000Y-155500000I1750000J0D01*
G01*
D15*
X54056663Y-147450000D02*
G75*
G02*
X50743337Y-147450000I-1656663J0D01*
G01*
X50743337Y-147450000D02*
G75*
G02*
X54056663Y-147450000I1656663J0D01*
G01*
X46391663Y-129650000D02*
G75*
G02*
X43078337Y-129650000I-1656663J0D01*
G01*
X43078337Y-129650000D02*
G75*
G02*
X46391663Y-129650000I1656663J0D01*
G01*
D13*
X136750000Y-155500000D02*
G75*
G02*
X133250000Y-155500000I-1750000J0D01*
G01*
X133250000Y-155500000D02*
G75*
G02*
X136750000Y-155500000I1750000J0D01*
G01*
D17*
X40450000Y-36200000D02*
X95050000Y-36200000D01*
X40450000Y-119800000D02*
X40450000Y-36200000D01*
X40450000Y-119800000D02*
X95050000Y-119800000D01*
X95050000Y-119800000D02*
X95050000Y-36200000D01*
D15*
X51476663Y-129650000D02*
G75*
G02*
X48163337Y-129650000I-1656663J0D01*
G01*
X48163337Y-129650000D02*
G75*
G02*
X51476663Y-129650000I1656663J0D01*
G01*
X46346663Y-124000000D02*
G75*
G02*
X43033337Y-124000000I-1656663J0D01*
G01*
X43033337Y-124000000D02*
G75*
G02*
X46346663Y-124000000I1656663J0D01*
G01*
D13*
X57250000Y-155500000D02*
G75*
G02*
X53750000Y-155500000I-1750000J0D01*
G01*
X53750000Y-155500000D02*
G75*
G02*
X57250000Y-155500000I1750000J0D01*
G01*
X91250000Y-147450000D02*
G75*
G02*
X87750000Y-147450000I-1750000J0D01*
G01*
X87750000Y-147450000D02*
G75*
G02*
X91250000Y-147450000I1750000J0D01*
G01*
X69250000Y-155500000D02*
G75*
G02*
X65750000Y-155500000I-1750000J0D01*
G01*
X65750000Y-155500000D02*
G75*
G02*
X69250000Y-155500000I1750000J0D01*
G01*
X73620000Y-147450000D02*
G75*
G02*
X70120000Y-147450000I-1750000J0D01*
G01*
X70120000Y-147450000D02*
G75*
G02*
X73620000Y-147450000I1750000J0D01*
G01*
M02*
