M48
; DRILL file {KiCad 8.0.5} date 2025-02-12T17:57:18-0800
; FORMAT={-:-/ absolute / inch / decimal}
; #@! TF.CreationDate,2025-02-12T17:57:18-08:00
; #@! TF.GenerationSoftware,Kicad,Pcbnew,8.0.5
; #@! TF.FileFunction,Plated,1,2,PTH
FMAT,2
INCH
; #@! TA.AperFunction,Plated,PTH,ViaDrill
T1C0.0098
; #@! TA.AperFunction,Plated,PTH,ViaDrill
T2C0.0118
; #@! TA.AperFunction,Plated,PTH,ViaDrill
T3C0.0157
; #@! TA.AperFunction,Plated,PTH,ComponentDrill
T4C0.0236
; #@! TA.AperFunction,Plated,PTH,ComponentDrill
T5C0.0315
; #@! TA.AperFunction,Plated,PTH,ComponentDrill
T6C0.0354
; #@! TA.AperFunction,Plated,PTH,ComponentDrill
T7C0.0394
; #@! TA.AperFunction,Plated,PTH,ComponentDrill
T8C0.0433
; #@! TA.AperFunction,Plated,PTH,ComponentDrill
T9C0.0551
; #@! TA.AperFunction,Plated,PTH,ComponentDrill
T10C0.0906
%
G90
G05
T1
X1.63Y-4.99
X1.63Y-5.21
X1.8112Y-5.1988
X1.9114Y-5.2386
X1.96Y-5.17
X2.0104Y-4.7904
X2.0525Y-4.7575
X2.1275Y-5.1725
X2.3875Y-5.3775
X2.42Y-5.28
X2.42Y-5.73
X2.48Y-5.2195
X2.48Y-5.8
X2.63Y-5.1981
X2.73Y-5.75
X2.77Y-5.37
X2.78Y-5.275
X2.84Y-5.25
X2.84Y-5.8
X4.19Y-4.76
X4.19Y-4.93
X4.49Y-5.22
X4.551Y-5.219
X4.551Y-5.809
X4.68Y-5.74
X4.72Y-5.31
X4.7975Y-5.4075
X4.8041Y-5.3459
X4.9447Y-5.325
X4.9449Y-5.4636
X4.98Y-5.37
X4.98Y-5.5906
X5.03Y-5.5
X5.05Y-5.175
X5.05Y-5.85
X5.11Y-5.2205
X5.11Y-5.8
X5.17Y-5.28
X5.23Y-5.22
T2
X3.1433Y-5.1969
X3.65Y-5.4326
X3.6713Y-5.4587
X4.15Y-4.82
X4.15Y-4.85
X4.15Y-4.88
X4.19Y-5.05
X4.24Y-4.76
X4.29Y-4.82
X4.29Y-4.85
X4.29Y-4.88
X4.3Y-5.05
X4.35Y-4.9292
X4.35Y-5.26
X4.62Y-5.16
X4.625Y-5.34
X4.7005Y-5.0805
X4.75Y-5.16
X4.7795Y-5.0195
X5.03Y-5.06
X5.18Y-5.05
X5.61Y-5.12
X5.9011Y-5.0689
T3
X2.35Y-5.16
X2.91Y-5.32
X3.64Y-5.0843
X4.0409Y-5.6988
T5
X2.6378Y-5.5118
X2.6378Y-5.5906
X2.6378Y-5.6693
X3.7677Y-5.5118
X3.7677Y-5.5906
X3.7677Y-5.6693
X4.8791Y-4.8394
X4.8791Y-4.9394
X4.8791Y-5.0394
X4.8976Y-5.5118
X4.8976Y-5.5906
X4.8976Y-5.6693
X5.7511Y-4.8394
X5.7511Y-4.9394
X5.7511Y-5.0394
T6
X1.7094Y-4.8819
X1.7112Y-5.1043
X1.8094Y-4.8819
X1.8112Y-5.1043
X1.9104Y-4.8819
X1.9114Y-5.1043
X2.0104Y-4.8819
X2.0114Y-5.1043
X2.013Y-5.8051
X2.113Y-5.8051
X3.1272Y-5.8051
X3.2272Y-5.8051
X4.3083Y-5.8051
X4.4083Y-5.8051
X5.4224Y-5.8051
X5.5224Y-5.8051
T7
X3.2394Y-4.8803
X3.2394Y-4.9803
X3.3394Y-4.8803
X3.3394Y-4.9803
X3.4394Y-4.8803
X3.4394Y-4.9803
X3.5394Y-4.8803
X3.5394Y-4.9803
X3.6394Y-4.8803
X3.6394Y-4.9803
X3.6394Y-5.1654
X3.6394Y-5.2654
X3.7394Y-5.1654
X3.7394Y-5.2654
X3.8394Y-5.1654
X3.8394Y-5.2654
X3.9394Y-5.1654
X3.9394Y-5.2654
X4.0394Y-5.1654
X4.0394Y-5.2654
X4.1394Y-5.1654
X4.1394Y-5.2654
T9
X2.3524Y-4.9114
X2.3524Y-5.0098
X2.5098Y-4.9114
X2.5098Y-5.0098
X2.6673Y-4.9114
X2.6673Y-5.0098
T10
X2.185Y-4.9606
X2.8346Y-4.9606
T4
G00X1.8079Y-5.5217
M15
G01X1.8079Y-5.561
M16
G05
G00X1.9299Y-5.5217
M15
G01X1.9299Y-5.561
M16
G05
G00X2.2567Y-5.5217
M15
G01X2.2567Y-5.561
M16
G05
G00X2.922Y-5.5217
M15
G01X2.922Y-5.561
M16
G05
G00X3.0441Y-5.5217
M15
G01X3.0441Y-5.561
M16
G05
G00X3.3709Y-5.5217
M15
G01X3.3709Y-5.561
M16
G05
G00X4.1646Y-5.561
M15
G01X4.1646Y-5.5217
M16
G05
G00X4.4913Y-5.561
M15
G01X4.4913Y-5.5217
M16
G05
G00X4.6134Y-5.561
M15
G01X4.6134Y-5.5217
M16
G05
G00X5.2787Y-5.561
M15
G01X5.2787Y-5.5217
M16
G05
G00X5.6055Y-5.561
M15
G01X5.6055Y-5.5217
M16
G05
G00X5.7276Y-5.561
M15
G01X5.7276Y-5.5217
M16
G05
T8
G00X2.6378Y-5.4085
M15
G01X2.6378Y-5.4301
M16
G05
G00X2.6378Y-5.751
M15
G01X2.6378Y-5.7726
M16
G05
G00X3.7677Y-5.4085
M15
G01X3.7677Y-5.4301
M16
G05
G00X3.7677Y-5.751
M15
G01X3.7677Y-5.7726
M16
G05
G00X4.8976Y-5.4085
M15
G01X4.8976Y-5.4301
M16
G05
G00X4.8976Y-5.751
M15
G01X4.8976Y-5.7726
M16
G05
M30
