%TF.GenerationSoftware,KiCad,Pcbnew,8.0.5*%
%TF.CreationDate,2025-01-25T11:58:12-08:00*%
%TF.ProjectId,sub,7375622e-6b69-4636-9164-5f7063625858,3.1*%
%TF.SameCoordinates,Original*%
%TF.FileFunction,Copper,L1,Top*%
%TF.FilePolarity,Positive*%
%FSLAX46Y46*%
G04 Gerber Fmt 4.6, Leading zero omitted, Abs format (unit mm)*
G04 Created by KiCad (PCBNEW 8.0.5) date 2025-01-25 11:58:12*
%MOMM*%
%LPD*%
G01*
G04 APERTURE LIST*
G04 Aperture macros list*
%AMRoundRect*
0 Rectangle with rounded corners*
0 $1 Rounding radius*
0 $2 $3 $4 $5 $6 $7 $8 $9 X,Y pos of 4 corners*
0 Add a 4 corners polygon primitive as box body*
4,1,4,$2,$3,$4,$5,$6,$7,$8,$9,$2,$3,0*
0 Add four circle primitives for the rounded corners*
1,1,$1+$1,$2,$3*
1,1,$1+$1,$4,$5*
1,1,$1+$1,$6,$7*
1,1,$1+$1,$8,$9*
0 Add four rect primitives between the rounded corners*
20,1,$1+$1,$2,$3,$4,$5,0*
20,1,$1+$1,$4,$5,$6,$7,0*
20,1,$1+$1,$6,$7,$8,$9,0*
20,1,$1+$1,$8,$9,$2,$3,0*%
G04 Aperture macros list end*
%TA.AperFunction,ComponentPad*%
%ADD10O,1.200000X2.200000*%
%TD*%
%TA.AperFunction,ComponentPad*%
%ADD11RoundRect,0.300000X-0.300000X0.700000X-0.300000X-0.700000X0.300000X-0.700000X0.300000X0.700000X0*%
%TD*%
%TA.AperFunction,ComponentPad*%
%ADD12R,1.000000X1.100000*%
%TD*%
%TA.AperFunction,ComponentPad*%
%ADD13R,2.500000X1.500000*%
%TD*%
%TA.AperFunction,ComponentPad*%
%ADD14O,2.500000X1.500000*%
%TD*%
%TA.AperFunction,ComponentPad*%
%ADD15R,1.700000X1.700000*%
%TD*%
%TA.AperFunction,ComponentPad*%
%ADD16O,1.700000X1.700000*%
%TD*%
%TA.AperFunction,ComponentPad*%
%ADD17R,1.800000X1.800000*%
%TD*%
%TA.AperFunction,ComponentPad*%
%ADD18C,1.800000*%
%TD*%
%TA.AperFunction,ComponentPad*%
%ADD19C,1.440000*%
%TD*%
%TA.AperFunction,ComponentPad*%
%ADD20RoundRect,0.300000X0.300000X-0.700000X0.300000X0.700000X-0.300000X0.700000X-0.300000X-0.700000X0*%
%TD*%
%TA.AperFunction,ComponentPad*%
%ADD21O,3.000000X2.000000*%
%TD*%
%TA.AperFunction,ComponentPad*%
%ADD22C,3.500000*%
%TD*%
%TA.AperFunction,ViaPad*%
%ADD23C,0.400000*%
%TD*%
%TA.AperFunction,ViaPad*%
%ADD24C,0.600000*%
%TD*%
%TA.AperFunction,ViaPad*%
%ADD25C,0.800000*%
%TD*%
%TA.AperFunction,Conductor*%
%ADD26C,0.400000*%
%TD*%
%TA.AperFunction,Conductor*%
%ADD27C,0.200000*%
%TD*%
%TA.AperFunction,Conductor*%
%ADD28C,0.600000*%
%TD*%
%TA.AperFunction,Conductor*%
%ADD29C,0.100000*%
%TD*%
G04 APERTURE END LIST*
D10*
%TO.P,J1,S*%
%TO.N,GND*%
X45920000Y-140750000D03*
D11*
%TO.P,J1,T*%
%TO.N,Tip1*%
X57320000Y-140750000D03*
%TO.P,J1,TN*%
%TO.N,SW1*%
X49020000Y-140750000D03*
%TD*%
D12*
%TO.P,SW2,*%
%TO.N,*%
X67000000Y-137650000D03*
X67000000Y-146350000D03*
D13*
%TO.P,SW2,1,A*%
%TO.N,Tip1*%
X67000000Y-140000000D03*
D14*
%TO.P,SW2,2,B*%
%TO.N,Tip2*%
X67000000Y-142000000D03*
%TO.P,SW2,3,C*%
%TO.N,unconnected-(SW2-C-Pad3)*%
X67000000Y-144000000D03*
%TD*%
D15*
%TO.P,J5,1,Pin_1*%
%TO.N,-12V*%
X92440000Y-133740000D03*
D16*
%TO.P,J5,2,Pin_2*%
%TO.N,+12V*%
X92440000Y-131200000D03*
%TO.P,J5,3,Pin_3*%
%TO.N,Tip1*%
X94980000Y-133740000D03*
%TO.P,J5,4,Pin_4*%
%TO.N,SW1*%
X94980000Y-131200000D03*
%TO.P,J5,5,Pin_5*%
%TO.N,Tip2*%
X97520000Y-133740000D03*
%TO.P,J5,6,Pin_6*%
%TO.N,SW2*%
X97520000Y-131200000D03*
%TO.P,J5,7,Pin_7*%
%TO.N,Tip3*%
X100060000Y-133740000D03*
%TO.P,J5,8,Pin_8*%
%TO.N,SW3*%
X100060000Y-131200000D03*
%TO.P,J5,9,Pin_9*%
%TO.N,Tip4*%
X102600000Y-133740000D03*
%TO.P,J5,10,Pin_10*%
%TO.N,SW4*%
X102600000Y-131200000D03*
%TO.P,J5,11,Pin_11*%
%TO.N,A Rail*%
X105140000Y-133740000D03*
%TO.P,J5,12,Pin_12*%
%TO.N,B Rail*%
X105140000Y-131200000D03*
%TD*%
D17*
%TO.P,D1,1,KA*%
%TO.N,Net-(D1-KA)*%
X51130000Y-147450000D03*
D18*
%TO.P,D1,2,AK*%
%TO.N,Net-(D1-AK)*%
X53670000Y-147450000D03*
%TD*%
D19*
%TO.P,RV2,1,1*%
%TO.N,GND*%
X146078000Y-128000000D03*
%TO.P,RV2,2,2*%
%TO.N,Net-(U3-ADJ)*%
X146078000Y-125460000D03*
%TO.P,RV2,3,3*%
X146078000Y-122920000D03*
%TD*%
D17*
%TO.P,D12,1,K*%
%TO.N,-12V*%
X48550000Y-129650000D03*
D18*
%TO.P,D12,2,A*%
%TO.N,Net-(D12-A)*%
X51090000Y-129650000D03*
%TD*%
D17*
%TO.P,D10,1,K*%
%TO.N,Net-(D10-K)*%
X48525000Y-124000000D03*
D18*
%TO.P,D10,2,A*%
%TO.N,B Rail*%
X51065000Y-124000000D03*
%TD*%
D17*
%TO.P,D11,1,K*%
%TO.N,Net-(D11-K)*%
X43465000Y-129650000D03*
D18*
%TO.P,D11,2,A*%
%TO.N,+12V*%
X46005000Y-129650000D03*
%TD*%
D10*
%TO.P,J3,S*%
%TO.N,GND*%
X117180000Y-140750000D03*
D20*
%TO.P,J3,T*%
%TO.N,Tip3*%
X105780000Y-140750000D03*
%TO.P,J3,TN*%
%TO.N,SW3*%
X114080000Y-140750000D03*
%TD*%
D10*
%TO.P,J2,S*%
%TO.N,GND*%
X74220000Y-140750000D03*
D11*
%TO.P,J2,T*%
%TO.N,Tip2*%
X85620000Y-140750000D03*
%TO.P,J2,TN*%
%TO.N,SW2*%
X77320000Y-140750000D03*
%TD*%
D12*
%TO.P,SW3,*%
%TO.N,*%
X124400000Y-137650000D03*
X124400000Y-146350000D03*
D13*
%TO.P,SW3,1,A*%
%TO.N,Tip3*%
X124400000Y-140000000D03*
D14*
%TO.P,SW3,2,B*%
%TO.N,Tip4*%
X124400000Y-142000000D03*
%TO.P,SW3,3,C*%
%TO.N,unconnected-(SW3-C-Pad3)*%
X124400000Y-144000000D03*
%TD*%
D10*
%TO.P,J4,S*%
%TO.N,GND*%
X145480000Y-140750000D03*
D20*
%TO.P,J4,T*%
%TO.N,Tip4*%
X134080000Y-140750000D03*
%TO.P,J4,TN*%
%TO.N,SW4*%
X142380000Y-140750000D03*
%TD*%
D19*
%TO.P,RV1,1,1*%
%TO.N,GND*%
X123928000Y-128000000D03*
%TO.P,RV1,2,2*%
%TO.N,Net-(U1-ADJ)*%
X123928000Y-125460000D03*
%TO.P,RV1,3,3*%
X123928000Y-122920000D03*
%TD*%
D12*
%TO.P,SW1,*%
%TO.N,*%
X95700000Y-137650000D03*
X95700000Y-146350000D03*
D13*
%TO.P,SW1,1,A*%
%TO.N,Tip2*%
X95700000Y-140000000D03*
D14*
%TO.P,SW1,2,B*%
%TO.N,Tip3*%
X95700000Y-142000000D03*
%TO.P,SW1,3,C*%
%TO.N,unconnected-(SW1-C-Pad3)*%
X95700000Y-144000000D03*
%TD*%
D17*
%TO.P,D9,1,K*%
%TO.N,Net-(D9-K)*%
X43420000Y-124000000D03*
D18*
%TO.P,D9,2,A*%
%TO.N,A Rail*%
X45960000Y-124000000D03*
%TD*%
D17*
%TO.P,D7,1,KA*%
%TO.N,Net-(D7-KA)*%
X137730000Y-147450000D03*
D18*
%TO.P,D7,2,AK*%
%TO.N,Net-(D7-AK)*%
X140270000Y-147450000D03*
%TD*%
D21*
%TO.P,SW4,1,A*%
%TO.N,unconnected-(SW4A-A-Pad1)*%
X59750000Y-124750000D03*
%TO.P,SW4,2,B*%
%TO.N,Net-(Q1-D)*%
X63750000Y-124750000D03*
%TO.P,SW4,3,C*%
%TO.N,Net-(J6-Pin_1)*%
X67750000Y-124750000D03*
%TO.P,SW4,4,A*%
%TO.N,unconnected-(SW4B-A-Pad4)*%
X59750000Y-127250000D03*
%TO.P,SW4,5,B*%
%TO.N,Net-(Q2-D)*%
X63750000Y-127250000D03*
%TO.P,SW4,6,C*%
%TO.N,Net-(J6-Pin_10)*%
X67750000Y-127250000D03*
D22*
%TO.P,SW4,7*%
%TO.N,N/C*%
X55500000Y-126000000D03*
%TO.P,SW4,8*%
X72000000Y-126000000D03*
%TD*%
D17*
%TO.P,D3,1,KA*%
%TO.N,Net-(D3-KA)*%
X79430000Y-147450000D03*
D18*
%TO.P,D3,2,AK*%
%TO.N,Net-(D3-AK)*%
X81970000Y-147450000D03*
%TD*%
D17*
%TO.P,D5,1,KA*%
%TO.N,Net-(D5-KA)*%
X109430000Y-147450000D03*
D18*
%TO.P,D5,2,AK*%
%TO.N,Net-(D5-AK)*%
X111970000Y-147450000D03*
%TD*%
D15*
%TO.P,J6,1,Pin_1*%
%TO.N,Net-(J6-Pin_1)*%
X103870000Y-126500000D03*
D16*
%TO.P,J6,2,Pin_2*%
X103870000Y-123960000D03*
%TO.P,J6,3,Pin_3*%
%TO.N,GND*%
X101330000Y-126500000D03*
%TO.P,J6,4,Pin_4*%
X101330000Y-123960000D03*
%TO.P,J6,5,Pin_5*%
X98790000Y-126500000D03*
%TO.P,J6,6,Pin_6*%
X98790000Y-123960000D03*
%TO.P,J6,7,Pin_7*%
X96250000Y-126500000D03*
%TO.P,J6,8,Pin_8*%
X96250000Y-123960000D03*
%TO.P,J6,9,Pin_9*%
%TO.N,Net-(J6-Pin_10)*%
X93710000Y-126500000D03*
%TO.P,J6,10,Pin_10*%
X93710000Y-123960000D03*
%TD*%
D23*
%TO.N,GND*%
X131318000Y-134112000D03*
D24*
X108966000Y-123190000D03*
X142494000Y-130048000D03*
D23*
X41402000Y-132334000D03*
D24*
X119393000Y-129045000D03*
D23*
X41402000Y-126746000D03*
D25*
X73914000Y-135128000D03*
D23*
X54039000Y-131381000D03*
X77960000Y-126900000D03*
D25*
X59690000Y-131064000D03*
D23*
X86300000Y-127340000D03*
D24*
X105410000Y-122428000D03*
X117348000Y-131064000D03*
X105410000Y-123952000D03*
X117475000Y-135636000D03*
D23*
X127762000Y-139700000D03*
D24*
X131572000Y-128270000D03*
X149888000Y-128750000D03*
D23*
X60643000Y-136589000D03*
D24*
X109220000Y-128270000D03*
X127762000Y-128524000D03*
X105410000Y-123190000D03*
X108966000Y-123952000D03*
X106426000Y-128270000D03*
D23*
X52133000Y-120841000D03*
X132842000Y-132588000D03*
D24*
X108966000Y-122428000D03*
%TO.N,Tip1*%
X92710000Y-137988000D03*
D23*
%TO.N,SW1*%
X49784000Y-131318000D03*
D24*
%TO.N,SW2*%
X93250000Y-138650000D03*
D23*
%TO.N,SW3*%
X114046000Y-132588000D03*
%TO.N,Tip4*%
X126492000Y-136398000D03*
X126492000Y-142000000D03*
D25*
X102640000Y-144750000D03*
D23*
%TO.N,Net-(D1-KA)*%
X61468000Y-134112000D03*
X61468000Y-145542000D03*
%TO.N,Net-(D1-AK)*%
X62992000Y-132575000D03*
X62992000Y-147320000D03*
D24*
%TO.N,A Rail*%
X110490000Y-133604000D03*
X110490000Y-125200500D03*
D23*
X106426000Y-125222000D03*
X106426000Y-120904000D03*
%TO.N,Net-(D5-AK)*%
X115596000Y-132562000D03*
X115596000Y-147548000D03*
D24*
%TO.N,B Rail*%
X107696000Y-120904000D03*
D23*
X51065000Y-121677000D03*
%TO.N,Net-(D5-KA)*%
X118872000Y-145796000D03*
X119888000Y-134874000D03*
%TO.N,+12V*%
X46005000Y-132049000D03*
D24*
X75950000Y-131230000D03*
X120650000Y-131064000D03*
D25*
X92456000Y-129140000D03*
D24*
X75940000Y-125860000D03*
X121399000Y-127495000D03*
X86165000Y-124005000D03*
X87180000Y-131200000D03*
D23*
%TO.N,-12V*%
X125600000Y-138775000D03*
X125595000Y-135255000D03*
D24*
X79840000Y-125820000D03*
X91100000Y-124000000D03*
D23*
X48550000Y-133060000D03*
D24*
X79840000Y-132000000D03*
D23*
%TO.N,Net-(D3-KA)*%
X72136000Y-147320000D03*
X72136000Y-133350000D03*
%TO.N,Net-(D3-AK)*%
X69342000Y-146050000D03*
X66802000Y-132031471D03*
%TO.N,Net-(D7-AK)*%
X128270000Y-131445000D03*
X128270000Y-148590000D03*
%TO.N,Net-(D7-KA)*%
X129794000Y-132601000D03*
X129794000Y-147320000D03*
%TO.N,Net-(U4B-+)*%
X122025000Y-135785000D03*
X121857000Y-137351000D03*
%TO.N,Net-(U2A-+)*%
X70612000Y-133985000D03*
X70358000Y-136398000D03*
D25*
%TO.N,Net-(Q1-D)*%
X77970000Y-124185000D03*
D24*
%TO.N,Net-(Q2-D)*%
X85080000Y-125880000D03*
X85090000Y-129050000D03*
D23*
X83752529Y-127550000D03*
%TO.N,Net-(Q4-G)*%
X87830000Y-126780000D03*
X87550000Y-125080000D03*
%TD*%
D26*
%TO.N,Tip1*%
X92710000Y-137988000D02*
X92710000Y-136010000D01*
X92710000Y-136010000D02*
X94980000Y-133740000D01*
D27*
%TO.N,SW1*%
X49784000Y-139986000D02*
X49784000Y-131318000D01*
X49020000Y-140750000D02*
X49784000Y-139986000D01*
D26*
%TO.N,Tip2*%
X97520000Y-138180000D02*
X97520000Y-133740000D01*
X95700000Y-140000000D02*
X97520000Y-138180000D01*
D27*
%TO.N,SW2*%
X96370000Y-135502918D02*
X93250000Y-138622918D01*
X96370000Y-132350000D02*
X96370000Y-135502918D01*
X97520000Y-131200000D02*
X96370000Y-132350000D01*
X93250000Y-138622918D02*
X93250000Y-138650000D01*
%TO.N,Tip3*%
X105780000Y-140020000D02*
X105780000Y-140750000D01*
D26*
X95700000Y-142000000D02*
X96500000Y-142000000D01*
X100060000Y-138440000D02*
X100060000Y-133740000D01*
X96500000Y-142000000D02*
X100060000Y-138440000D01*
D27*
%TO.N,SW3*%
X114046000Y-132588000D02*
X114050000Y-140720000D01*
%TO.N,Tip4*%
X126492000Y-136398000D02*
X126492000Y-142000000D01*
D26*
X102600000Y-133740000D02*
X102600000Y-144710000D01*
X102600000Y-144710000D02*
X102640000Y-144750000D01*
D27*
%TO.N,Net-(D1-KA)*%
X61468000Y-134112000D02*
X61468000Y-145542000D01*
%TO.N,Net-(D1-AK)*%
X62992000Y-132575000D02*
X62992000Y-147320000D01*
%TO.N,A Rail*%
X106426000Y-120904000D02*
X106426000Y-125222000D01*
D28*
X110490000Y-125200500D02*
X110490000Y-133604000D01*
D27*
%TO.N,Net-(D5-AK)*%
X115596000Y-132562000D02*
X115596000Y-147548000D01*
%TO.N,B Rail*%
X51065000Y-124000000D02*
X51065000Y-121677000D01*
D28*
X107696000Y-128644000D02*
X107696000Y-120904000D01*
X105140000Y-131200000D02*
X107696000Y-128644000D01*
D27*
%TO.N,Net-(D5-KA)*%
X118872000Y-135890000D02*
X118872000Y-145796000D01*
X119888000Y-134874000D02*
X118872000Y-135890000D01*
D28*
%TO.N,+12V*%
X121399000Y-130569000D02*
X121399000Y-127495000D01*
X75950000Y-125870000D02*
X75940000Y-125860000D01*
X75950000Y-131230000D02*
X75950000Y-125870000D01*
X92456000Y-131184000D02*
X92440000Y-131200000D01*
X87180000Y-131200000D02*
X87190000Y-127129950D01*
X86165000Y-126104950D02*
X86165000Y-124005000D01*
X120650000Y-131064000D02*
X121399000Y-130569000D01*
X92456000Y-129140000D02*
X92456000Y-131184000D01*
D27*
X46005000Y-129650000D02*
X46005000Y-132049000D01*
D28*
X87190000Y-127129950D02*
X86165000Y-126104950D01*
D27*
%TO.N,-12V*%
X125595000Y-135255000D02*
X125595000Y-138770000D01*
D28*
X91090000Y-124010000D02*
X91100000Y-124000000D01*
X92440000Y-133740000D02*
X91090000Y-132390000D01*
D27*
X125595000Y-138770000D02*
X125600000Y-138775000D01*
D28*
X79840000Y-132000000D02*
X79840000Y-125820000D01*
D27*
X48550000Y-129650000D02*
X48550000Y-133060000D01*
D28*
X91090000Y-132390000D02*
X91090000Y-124010000D01*
D27*
%TO.N,Net-(D3-KA)*%
X72136000Y-133350000D02*
X72136000Y-147320000D01*
%TO.N,Net-(D3-AK)*%
X66802000Y-135974918D02*
X69342000Y-138514918D01*
X69342000Y-138514918D02*
X69342000Y-146050000D01*
X66802000Y-132031471D02*
X66802000Y-135974918D01*
%TO.N,Net-(D7-AK)*%
X128270000Y-131445000D02*
X128270000Y-148590000D01*
%TO.N,Net-(D7-KA)*%
X129794000Y-132601000D02*
X129794000Y-147320000D01*
D28*
%TO.N,Net-(J6-Pin_10)*%
X93710000Y-126500000D02*
X93710000Y-123960000D01*
%TO.N,Net-(J6-Pin_1)*%
X103870000Y-123960000D02*
X103870000Y-126500000D01*
D27*
%TO.N,Net-(U4B-+)*%
X122025000Y-135785000D02*
X122025000Y-137183000D01*
X122025000Y-137183000D02*
X121857000Y-137351000D01*
%TO.N,Net-(U2A-+)*%
X70612000Y-133985000D02*
X70358000Y-134239000D01*
X70358000Y-134239000D02*
X70358000Y-136398000D01*
D28*
%TO.N,Net-(Q1-D)*%
X63750000Y-124750000D02*
X65249520Y-123250480D01*
X65249520Y-123250480D02*
X77035480Y-123250480D01*
X77035480Y-123250480D02*
X77970000Y-124185000D01*
%TO.N,Net-(Q2-D)*%
X85090000Y-125890000D02*
X85080000Y-125880000D01*
X85090000Y-129050000D02*
X85090000Y-127570000D01*
D29*
X83752529Y-127550000D02*
X85070000Y-127550000D01*
D28*
X85090000Y-127570000D02*
X85090000Y-125890000D01*
D29*
X85070000Y-127550000D02*
X85090000Y-127570000D01*
D27*
%TO.N,Net-(Q4-G)*%
X87830000Y-126780000D02*
X87830000Y-125360000D01*
X87830000Y-125360000D02*
X87550000Y-125080000D01*
%TD*%
%TA.AperFunction,Conductor*%
%TO.N,GND*%
G36*
X98324075Y-126307007D02*
G01*
X98290000Y-126434174D01*
X98290000Y-126565826D01*
X98324075Y-126692993D01*
X98359297Y-126754000D01*
X96680703Y-126754000D01*
X96715925Y-126692993D01*
X96750000Y-126565826D01*
X96750000Y-126434174D01*
X96715925Y-126307007D01*
X96680703Y-126246000D01*
X98359297Y-126246000D01*
X98324075Y-126307007D01*
G37*
%TD.AperFunction*%
%TA.AperFunction,Conductor*%
G36*
X100864075Y-126307007D02*
G01*
X100830000Y-126434174D01*
X100830000Y-126565826D01*
X100864075Y-126692993D01*
X100899297Y-126754000D01*
X99220703Y-126754000D01*
X99255925Y-126692993D01*
X99290000Y-126565826D01*
X99290000Y-126434174D01*
X99255925Y-126307007D01*
X99220703Y-126246000D01*
X100899297Y-126246000D01*
X100864075Y-126307007D01*
G37*
%TD.AperFunction*%
%TA.AperFunction,Conductor*%
G36*
X96504000Y-126069297D02*
G01*
X96442993Y-126034075D01*
X96315826Y-126000000D01*
X96184174Y-126000000D01*
X96057007Y-126034075D01*
X95996000Y-126069297D01*
X95996000Y-124390702D01*
X96057007Y-124425925D01*
X96184174Y-124460000D01*
X96315826Y-124460000D01*
X96442993Y-124425925D01*
X96504000Y-124390702D01*
X96504000Y-126069297D01*
G37*
%TD.AperFunction*%
%TA.AperFunction,Conductor*%
G36*
X99044000Y-126069297D02*
G01*
X98982993Y-126034075D01*
X98855826Y-126000000D01*
X98724174Y-126000000D01*
X98597007Y-126034075D01*
X98536000Y-126069297D01*
X98536000Y-124390702D01*
X98597007Y-124425925D01*
X98724174Y-124460000D01*
X98855826Y-124460000D01*
X98982993Y-124425925D01*
X99044000Y-124390702D01*
X99044000Y-126069297D01*
G37*
%TD.AperFunction*%
%TA.AperFunction,Conductor*%
G36*
X101584000Y-126069297D02*
G01*
X101522993Y-126034075D01*
X101395826Y-126000000D01*
X101264174Y-126000000D01*
X101137007Y-126034075D01*
X101076000Y-126069297D01*
X101076000Y-124390702D01*
X101137007Y-124425925D01*
X101264174Y-124460000D01*
X101395826Y-124460000D01*
X101522993Y-124425925D01*
X101584000Y-124390702D01*
X101584000Y-126069297D01*
G37*
%TD.AperFunction*%
%TA.AperFunction,Conductor*%
G36*
X98324075Y-123767007D02*
G01*
X98290000Y-123894174D01*
X98290000Y-124025826D01*
X98324075Y-124152993D01*
X98359297Y-124214000D01*
X96680703Y-124214000D01*
X96715925Y-124152993D01*
X96750000Y-124025826D01*
X96750000Y-123894174D01*
X96715925Y-123767007D01*
X96680703Y-123706000D01*
X98359297Y-123706000D01*
X98324075Y-123767007D01*
G37*
%TD.AperFunction*%
%TA.AperFunction,Conductor*%
G36*
X100864075Y-123767007D02*
G01*
X100830000Y-123894174D01*
X100830000Y-124025826D01*
X100864075Y-124152993D01*
X100899297Y-124214000D01*
X99220703Y-124214000D01*
X99255925Y-124152993D01*
X99290000Y-124025826D01*
X99290000Y-123894174D01*
X99255925Y-123767007D01*
X99220703Y-123706000D01*
X100899297Y-123706000D01*
X100864075Y-123767007D01*
G37*
%TD.AperFunction*%
%TA.AperFunction,Conductor*%
G36*
X151292287Y-120070027D02*
G01*
X151338804Y-120123662D01*
X151350214Y-120175842D01*
X151374500Y-134456000D01*
X151374500Y-149298500D01*
X151354498Y-149366621D01*
X151300842Y-149413114D01*
X151248500Y-149424500D01*
X128715759Y-149424500D01*
X128647638Y-149404498D01*
X128601145Y-149350842D01*
X128591041Y-149280568D01*
X128620535Y-149215988D01*
X128657201Y-149186933D01*
X128675430Y-149177367D01*
X128804215Y-149063273D01*
X128901954Y-148921675D01*
X128962965Y-148760801D01*
X128978460Y-148633189D01*
X128983704Y-148590003D01*
X128983704Y-148589996D01*
X128962965Y-148419200D01*
X128915221Y-148293308D01*
X128901954Y-148258325D01*
X128901951Y-148258321D01*
X128901949Y-148258317D01*
X128900805Y-148256659D01*
X128900340Y-148255250D01*
X128898408Y-148251568D01*
X128899020Y-148251246D01*
X128878568Y-148189235D01*
X128878500Y-148185082D01*
X128878500Y-147591584D01*
X128898502Y-147523463D01*
X128952158Y-147476970D01*
X129022432Y-147466866D01*
X129087012Y-147496360D01*
X129122312Y-147546904D01*
X129158688Y-147642822D01*
X129162046Y-147651675D01*
X129259785Y-147793273D01*
X129388570Y-147907367D01*
X129388571Y-147907367D01*
X129388573Y-147907369D01*
X129469465Y-147949824D01*
X129540917Y-147987325D01*
X129540918Y-147987325D01*
X129540920Y-147987326D01*
X129678651Y-148021273D01*
X129707972Y-148028500D01*
X129707975Y-148028500D01*
X129880025Y-148028500D01*
X129880028Y-148028500D01*
X130047083Y-147987325D01*
X130199430Y-147907367D01*
X130328215Y-147793273D01*
X130425954Y-147651675D01*
X130486965Y-147490801D01*
X130507704Y-147320000D01*
X130504867Y-147296638D01*
X130490990Y-147182346D01*
X130486965Y-147149199D01*
X130425954Y-146988325D01*
X130425951Y-146988321D01*
X130425949Y-146988317D01*
X130424805Y-146986659D01*
X130424340Y-146985250D01*
X130422408Y-146981568D01*
X130423020Y-146981246D01*
X130402568Y-146919235D01*
X130402500Y-146915082D01*
X130402500Y-146501350D01*
X136321500Y-146501350D01*
X136321500Y-148398649D01*
X136328009Y-148459196D01*
X136328011Y-148459204D01*
X136379110Y-148596202D01*
X136379112Y-148596207D01*
X136466738Y-148713261D01*
X136583792Y-148800887D01*
X136583794Y-148800888D01*
X136583796Y-148800889D01*
X136635243Y-148820078D01*
X136720795Y-148851988D01*
X136720803Y-148851990D01*
X136781350Y-148858499D01*
X136781355Y-148858499D01*
X136781362Y-148858500D01*
X136781368Y-148858500D01*
X138678632Y-148858500D01*
X138678638Y-148858500D01*
X138678645Y-148858499D01*
X138678649Y-148858499D01*
X138739196Y-148851990D01*
X138739199Y-148851989D01*
X138739201Y-148851989D01*
X138876204Y-148800889D01*
X138993261Y-148713261D01*
X139080889Y-148596204D01*
X139104258Y-148533547D01*
X139146804Y-148476715D01*
X139213325Y-148451904D01*
X139282699Y-148466996D01*
X139308294Y-148486996D01*
X139308946Y-148486289D01*
X139312778Y-148489817D01*
X139368966Y-148533550D01*
X139496983Y-148633190D01*
X139702273Y-148744287D01*
X139923049Y-148820080D01*
X140153288Y-148858500D01*
X140153292Y-148858500D01*
X140386708Y-148858500D01*
X140386712Y-148858500D01*
X140616951Y-148820080D01*
X140837727Y-148744287D01*
X141043017Y-148633190D01*
X141227220Y-148489818D01*
X141239283Y-148476715D01*
X141385314Y-148318083D01*
X141428770Y-148251568D01*
X141512984Y-148122669D01*
X141606749Y-147908907D01*
X141664051Y-147682626D01*
X141683327Y-147450000D01*
X141664051Y-147217374D01*
X141646787Y-147149199D01*
X141606750Y-146991096D01*
X141606747Y-146991089D01*
X141602429Y-146981246D01*
X141512984Y-146777331D01*
X141500681Y-146758500D01*
X141385314Y-146581916D01*
X141227225Y-146410186D01*
X141227221Y-146410182D01*
X141135118Y-146338496D01*
X141043017Y-146266810D01*
X140837727Y-146155713D01*
X140837724Y-146155712D01*
X140837723Y-146155711D01*
X140616955Y-146079921D01*
X140616948Y-146079919D01*
X140518411Y-146063476D01*
X140386712Y-146041500D01*
X140153288Y-146041500D01*
X140038066Y-146060727D01*
X139923051Y-146079919D01*
X139923044Y-146079921D01*
X139702276Y-146155711D01*
X139702273Y-146155713D01*
X139582001Y-146220801D01*
X139496985Y-146266809D01*
X139496983Y-146266810D01*
X139312778Y-146410182D01*
X139308946Y-146413711D01*
X139307581Y-146412228D01*
X139254129Y-146444333D01*
X139183165Y-146442180D01*
X139124630Y-146402003D01*
X139104258Y-146366449D01*
X139080889Y-146303797D01*
X139080887Y-146303792D01*
X138993261Y-146186738D01*
X138876207Y-146099112D01*
X138876202Y-146099110D01*
X138739204Y-146048011D01*
X138739196Y-146048009D01*
X138678649Y-146041500D01*
X138678638Y-146041500D01*
X136781362Y-146041500D01*
X136781350Y-146041500D01*
X136720803Y-146048009D01*
X136720795Y-146048011D01*
X136583797Y-146099110D01*
X136583792Y-146099112D01*
X136466738Y-146186738D01*
X136379112Y-146303792D01*
X136379110Y-146303797D01*
X136328011Y-146440795D01*
X136328009Y-146440803D01*
X136321500Y-146501350D01*
X130402500Y-146501350D01*
X130402500Y-140004594D01*
X132971500Y-140004594D01*
X132971500Y-141495406D01*
X132986783Y-141631047D01*
X133012764Y-141705296D01*
X133046957Y-141803015D01*
X133046958Y-141803018D01*
X133143887Y-141957279D01*
X133143888Y-141957281D01*
X133272718Y-142086111D01*
X133272720Y-142086112D01*
X133426981Y-142183041D01*
X133426982Y-142183041D01*
X133426985Y-142183043D01*
X133598953Y-142243217D01*
X133734594Y-142258500D01*
X134425406Y-142258500D01*
X134561047Y-142243217D01*
X134733015Y-142183043D01*
X134887281Y-142086111D01*
X135016111Y-141957281D01*
X135113043Y-141803015D01*
X135173217Y-141631047D01*
X135188500Y-141495406D01*
X135188500Y-140004594D01*
X141271500Y-140004594D01*
X141271500Y-141495406D01*
X141286783Y-141631047D01*
X141312764Y-141705296D01*
X141346957Y-141803015D01*
X141346958Y-141803018D01*
X141443887Y-141957279D01*
X141443888Y-141957281D01*
X141572718Y-142086111D01*
X141572720Y-142086112D01*
X141726981Y-142183041D01*
X141726982Y-142183041D01*
X141726985Y-142183043D01*
X141898953Y-142243217D01*
X142034594Y-142258500D01*
X142725406Y-142258500D01*
X142861047Y-142243217D01*
X143033015Y-142183043D01*
X143187281Y-142086111D01*
X143316111Y-141957281D01*
X143413043Y-141803015D01*
X143473217Y-141631047D01*
X143488500Y-141495406D01*
X143488500Y-140162802D01*
X144372000Y-140162802D01*
X144372000Y-140496000D01*
X145180000Y-140496000D01*
X145180000Y-141004000D01*
X144372000Y-141004000D01*
X144372000Y-141337197D01*
X144399284Y-141509462D01*
X144453174Y-141675319D01*
X144453177Y-141675325D01*
X144532356Y-141830721D01*
X144634867Y-141971815D01*
X144634869Y-141971818D01*
X144758181Y-142095130D01*
X144758184Y-142095132D01*
X144899278Y-142197643D01*
X145054674Y-142276822D01*
X145054680Y-142276825D01*
X145220534Y-142330714D01*
X145226000Y-142331580D01*
X145226000Y-141410060D01*
X145239940Y-141434205D01*
X145295795Y-141490060D01*
X145364204Y-141529556D01*
X145440504Y-141550000D01*
X145519496Y-141550000D01*
X145595796Y-141529556D01*
X145664205Y-141490060D01*
X145720060Y-141434205D01*
X145734000Y-141410060D01*
X145734000Y-142331580D01*
X145739465Y-142330714D01*
X145905319Y-142276825D01*
X145905325Y-142276822D01*
X146060721Y-142197643D01*
X146201815Y-142095132D01*
X146201818Y-142095130D01*
X146325130Y-141971818D01*
X146325132Y-141971815D01*
X146427643Y-141830721D01*
X146506822Y-141675325D01*
X146506825Y-141675319D01*
X146560715Y-141509462D01*
X146588000Y-141337197D01*
X146588000Y-141004000D01*
X145780000Y-141004000D01*
X145780000Y-140496000D01*
X146588000Y-140496000D01*
X146588000Y-140162802D01*
X146560715Y-139990537D01*
X146506825Y-139824680D01*
X146506822Y-139824674D01*
X146427643Y-139669278D01*
X146325132Y-139528184D01*
X146325130Y-139528181D01*
X146201818Y-139404869D01*
X146201815Y-139404867D01*
X146060721Y-139302356D01*
X145905325Y-139223177D01*
X145905319Y-139223174D01*
X145739461Y-139169284D01*
X145739449Y-139169281D01*
X145734000Y-139168417D01*
X145734000Y-140089939D01*
X145720060Y-140065795D01*
X145664205Y-140009940D01*
X145595796Y-139970444D01*
X145519496Y-139950000D01*
X145440504Y-139950000D01*
X145364204Y-139970444D01*
X145295795Y-140009940D01*
X145239940Y-140065795D01*
X145226000Y-140089939D01*
X145226000Y-139168417D01*
X145220550Y-139169281D01*
X145220538Y-139169284D01*
X145054680Y-139223174D01*
X145054674Y-139223177D01*
X144899278Y-139302356D01*
X144758184Y-139404867D01*
X144758181Y-139404869D01*
X144634869Y-139528181D01*
X144634867Y-139528184D01*
X144532356Y-139669278D01*
X144453177Y-139824674D01*
X144453174Y-139824680D01*
X144399284Y-139990537D01*
X144372000Y-140162802D01*
X143488500Y-140162802D01*
X143488500Y-140004594D01*
X143473217Y-139868953D01*
X143413043Y-139696985D01*
X143413041Y-139696982D01*
X143413041Y-139696981D01*
X143316112Y-139542720D01*
X143316111Y-139542718D01*
X143187281Y-139413888D01*
X143187279Y-139413887D01*
X143033018Y-139316958D01*
X143033015Y-139316957D01*
X143019192Y-139312120D01*
X142861047Y-139256783D01*
X142725406Y-139241500D01*
X142034594Y-139241500D01*
X141898953Y-139256783D01*
X141898950Y-139256783D01*
X141898950Y-139256784D01*
X141726984Y-139316957D01*
X141726981Y-139316958D01*
X141572720Y-139413887D01*
X141572718Y-139413888D01*
X141443888Y-139542718D01*
X141443887Y-139542720D01*
X141346958Y-139696981D01*
X141346957Y-139696984D01*
X141346957Y-139696985D01*
X141286783Y-139868953D01*
X141271500Y-140004594D01*
X135188500Y-140004594D01*
X135173217Y-139868953D01*
X135113043Y-139696985D01*
X135113041Y-139696982D01*
X135113041Y-139696981D01*
X135016112Y-139542720D01*
X135016111Y-139542718D01*
X134887281Y-139413888D01*
X134887279Y-139413887D01*
X134733018Y-139316958D01*
X134733015Y-139316957D01*
X134719192Y-139312120D01*
X134561047Y-139256783D01*
X134425406Y-139241500D01*
X133734594Y-139241500D01*
X133598953Y-139256783D01*
X133598950Y-139256783D01*
X133598950Y-139256784D01*
X133426984Y-139316957D01*
X133426981Y-139316958D01*
X133272720Y-139413887D01*
X133272718Y-139413888D01*
X133143888Y-139542718D01*
X133143887Y-139542720D01*
X133046958Y-139696981D01*
X133046957Y-139696984D01*
X133046957Y-139696985D01*
X132986783Y-139868953D01*
X132971500Y-140004594D01*
X130402500Y-140004594D01*
X130402500Y-133005917D01*
X130422502Y-132937796D01*
X130424807Y-132934337D01*
X130425953Y-132932676D01*
X130425952Y-132932676D01*
X130425954Y-132932675D01*
X130486965Y-132771801D01*
X130502508Y-132643792D01*
X130507704Y-132601003D01*
X130507704Y-132600996D01*
X130490764Y-132461485D01*
X130486965Y-132430199D01*
X130425954Y-132269325D01*
X130328215Y-132127727D01*
X130199430Y-132013633D01*
X130199429Y-132013632D01*
X130199426Y-132013630D01*
X130047087Y-131933677D01*
X130047079Y-131933673D01*
X129880031Y-131892500D01*
X129880028Y-131892500D01*
X129707972Y-131892500D01*
X129707968Y-131892500D01*
X129540920Y-131933673D01*
X129540912Y-131933677D01*
X129388573Y-132013630D01*
X129388568Y-132013634D01*
X129289133Y-132101727D01*
X129259785Y-132127727D01*
X129162046Y-132269325D01*
X129127967Y-132359186D01*
X129122312Y-132374096D01*
X129079454Y-132430697D01*
X129012798Y-132455141D01*
X128943508Y-132439669D01*
X128893582Y-132389192D01*
X128878500Y-132329415D01*
X128878500Y-131849917D01*
X128898502Y-131781796D01*
X128900807Y-131778337D01*
X128901953Y-131776676D01*
X128901952Y-131776676D01*
X128901954Y-131776675D01*
X128962965Y-131615801D01*
X128971260Y-131547480D01*
X128983704Y-131445003D01*
X128983704Y-131444996D01*
X128963866Y-131281619D01*
X128962965Y-131274199D01*
X128901954Y-131113325D01*
X128804215Y-130971727D01*
X128675430Y-130857633D01*
X128675429Y-130857632D01*
X128675426Y-130857630D01*
X128523087Y-130777677D01*
X128523079Y-130777673D01*
X128356031Y-130736500D01*
X128356028Y-130736500D01*
X128183972Y-130736500D01*
X128183968Y-130736500D01*
X128016920Y-130777673D01*
X128016912Y-130777677D01*
X127864573Y-130857630D01*
X127864568Y-130857634D01*
X127735785Y-130971727D01*
X127638045Y-131113326D01*
X127577034Y-131274200D01*
X127556296Y-131444996D01*
X127556296Y-131445003D01*
X127577034Y-131615799D01*
X127638046Y-131776676D01*
X127639193Y-131778337D01*
X127639658Y-131779748D01*
X127641589Y-131783427D01*
X127640977Y-131783747D01*
X127661431Y-131845760D01*
X127661500Y-131849917D01*
X127661500Y-148185082D01*
X127641498Y-148253203D01*
X127639195Y-148256659D01*
X127638050Y-148258317D01*
X127638046Y-148258324D01*
X127577034Y-148419200D01*
X127556296Y-148589996D01*
X127556296Y-148590003D01*
X127577034Y-148760799D01*
X127614087Y-148858499D01*
X127638046Y-148921675D01*
X127735785Y-149063273D01*
X127864570Y-149177367D01*
X127882797Y-149186933D01*
X127933819Y-149236301D01*
X127950051Y-149305417D01*
X127926339Y-149372337D01*
X127870212Y-149415814D01*
X127824241Y-149424500D01*
X40151500Y-149424500D01*
X40083379Y-149404498D01*
X40036886Y-149350842D01*
X40025500Y-149298500D01*
X40025500Y-146501350D01*
X49721500Y-146501350D01*
X49721500Y-148398649D01*
X49728009Y-148459196D01*
X49728011Y-148459204D01*
X49779110Y-148596202D01*
X49779112Y-148596207D01*
X49866738Y-148713261D01*
X49983792Y-148800887D01*
X49983794Y-148800888D01*
X49983796Y-148800889D01*
X50035243Y-148820078D01*
X50120795Y-148851988D01*
X50120803Y-148851990D01*
X50181350Y-148858499D01*
X50181355Y-148858499D01*
X50181362Y-148858500D01*
X50181368Y-148858500D01*
X52078632Y-148858500D01*
X52078638Y-148858500D01*
X52078645Y-148858499D01*
X52078649Y-148858499D01*
X52139196Y-148851990D01*
X52139199Y-148851989D01*
X52139201Y-148851989D01*
X52276204Y-148800889D01*
X52393261Y-148713261D01*
X52480889Y-148596204D01*
X52504258Y-148533547D01*
X52546804Y-148476715D01*
X52613325Y-148451904D01*
X52682699Y-148466996D01*
X52708294Y-148486996D01*
X52708946Y-148486289D01*
X52712778Y-148489817D01*
X52768966Y-148533550D01*
X52896983Y-148633190D01*
X53102273Y-148744287D01*
X53323049Y-148820080D01*
X53553288Y-148858500D01*
X53553292Y-148858500D01*
X53786708Y-148858500D01*
X53786712Y-148858500D01*
X54016951Y-148820080D01*
X54237727Y-148744287D01*
X54443017Y-148633190D01*
X54627220Y-148489818D01*
X54639283Y-148476715D01*
X54785314Y-148318083D01*
X54828770Y-148251568D01*
X54912984Y-148122669D01*
X55006749Y-147908907D01*
X55064051Y-147682626D01*
X55083327Y-147450000D01*
X55064051Y-147217374D01*
X55046787Y-147149199D01*
X55006750Y-146991096D01*
X55006747Y-146991089D01*
X55002429Y-146981246D01*
X54912984Y-146777331D01*
X54900681Y-146758500D01*
X54785314Y-146581916D01*
X54627225Y-146410186D01*
X54627221Y-146410182D01*
X54535118Y-146338496D01*
X54443017Y-146266810D01*
X54237727Y-146155713D01*
X54237724Y-146155712D01*
X54237723Y-146155711D01*
X54016955Y-146079921D01*
X54016948Y-146079919D01*
X53918411Y-146063476D01*
X53786712Y-146041500D01*
X53553288Y-146041500D01*
X53438066Y-146060727D01*
X53323051Y-146079919D01*
X53323044Y-146079921D01*
X53102276Y-146155711D01*
X53102273Y-146155713D01*
X52982001Y-146220801D01*
X52896985Y-146266809D01*
X52896983Y-146266810D01*
X52712778Y-146410182D01*
X52708946Y-146413711D01*
X52707581Y-146412228D01*
X52654129Y-146444333D01*
X52583165Y-146442180D01*
X52524630Y-146402003D01*
X52504258Y-146366449D01*
X52480889Y-146303797D01*
X52480887Y-146303792D01*
X52393261Y-146186738D01*
X52276207Y-146099112D01*
X52276202Y-146099110D01*
X52139204Y-146048011D01*
X52139196Y-146048009D01*
X52078649Y-146041500D01*
X52078638Y-146041500D01*
X50181362Y-146041500D01*
X50181350Y-146041500D01*
X50120803Y-146048009D01*
X50120795Y-146048011D01*
X49983797Y-146099110D01*
X49983792Y-146099112D01*
X49866738Y-146186738D01*
X49779112Y-146303792D01*
X49779110Y-146303797D01*
X49728011Y-146440795D01*
X49728009Y-146440803D01*
X49721500Y-146501350D01*
X40025500Y-146501350D01*
X40025500Y-140162802D01*
X44812000Y-140162802D01*
X44812000Y-140496000D01*
X45620000Y-140496000D01*
X45620000Y-141004000D01*
X44812000Y-141004000D01*
X44812000Y-141337197D01*
X44839284Y-141509462D01*
X44893174Y-141675319D01*
X44893177Y-141675325D01*
X44972356Y-141830721D01*
X45074867Y-141971815D01*
X45074869Y-141971818D01*
X45198181Y-142095130D01*
X45198184Y-142095132D01*
X45339278Y-142197643D01*
X45494674Y-142276822D01*
X45494680Y-142276825D01*
X45660534Y-142330714D01*
X45666000Y-142331580D01*
X45666000Y-141410060D01*
X45679940Y-141434205D01*
X45735795Y-141490060D01*
X45804204Y-141529556D01*
X45880504Y-141550000D01*
X45959496Y-141550000D01*
X46035796Y-141529556D01*
X46104205Y-141490060D01*
X46160060Y-141434205D01*
X46174000Y-141410060D01*
X46174000Y-142331580D01*
X46179465Y-142330714D01*
X46345319Y-142276825D01*
X46345325Y-142276822D01*
X46500721Y-142197643D01*
X46641815Y-142095132D01*
X46641818Y-142095130D01*
X46765130Y-141971818D01*
X46765132Y-141971815D01*
X46867643Y-141830721D01*
X46946822Y-141675325D01*
X46946825Y-141675319D01*
X47000715Y-141509462D01*
X47028000Y-141337197D01*
X47028000Y-141004000D01*
X46220000Y-141004000D01*
X46220000Y-140496000D01*
X47028000Y-140496000D01*
X47028000Y-140162802D01*
X47000715Y-139990537D01*
X46946825Y-139824680D01*
X46946822Y-139824674D01*
X46867643Y-139669278D01*
X46765132Y-139528184D01*
X46765130Y-139528181D01*
X46641818Y-139404869D01*
X46641815Y-139404867D01*
X46500721Y-139302356D01*
X46345325Y-139223177D01*
X46345319Y-139223174D01*
X46179461Y-139169284D01*
X46179449Y-139169281D01*
X46174000Y-139168417D01*
X46174000Y-140089939D01*
X46160060Y-140065795D01*
X46104205Y-140009940D01*
X46035796Y-139970444D01*
X45959496Y-139950000D01*
X45880504Y-139950000D01*
X45804204Y-139970444D01*
X45735795Y-140009940D01*
X45679940Y-140065795D01*
X45666000Y-140089939D01*
X45666000Y-139168417D01*
X45660550Y-139169281D01*
X45660538Y-139169284D01*
X45494680Y-139223174D01*
X45494674Y-139223177D01*
X45339278Y-139302356D01*
X45198184Y-139404867D01*
X45198181Y-139404869D01*
X45074869Y-139528181D01*
X45074867Y-139528184D01*
X44972356Y-139669278D01*
X44893177Y-139824674D01*
X44893174Y-139824680D01*
X44839284Y-139990537D01*
X44812000Y-140162802D01*
X40025500Y-140162802D01*
X40025500Y-134481500D01*
X40025837Y-134283535D01*
X40035346Y-128701350D01*
X42056500Y-128701350D01*
X42056500Y-130598649D01*
X42063009Y-130659196D01*
X42063011Y-130659204D01*
X42114110Y-130796202D01*
X42114112Y-130796207D01*
X42201738Y-130913261D01*
X42318792Y-131000887D01*
X42318794Y-131000888D01*
X42318796Y-131000889D01*
X42377875Y-131022924D01*
X42455795Y-131051988D01*
X42455803Y-131051990D01*
X42516350Y-131058499D01*
X42516355Y-131058499D01*
X42516362Y-131058500D01*
X42516368Y-131058500D01*
X44413632Y-131058500D01*
X44413638Y-131058500D01*
X44413645Y-131058499D01*
X44413649Y-131058499D01*
X44474196Y-131051990D01*
X44474199Y-131051989D01*
X44474201Y-131051989D01*
X44611204Y-131000889D01*
X44634829Y-130983204D01*
X44728261Y-130913261D01*
X44815886Y-130796208D01*
X44815885Y-130796208D01*
X44815889Y-130796204D01*
X44839258Y-130733547D01*
X44881804Y-130676715D01*
X44948325Y-130651904D01*
X45017699Y-130666996D01*
X45043294Y-130686996D01*
X45043946Y-130686289D01*
X45047778Y-130689817D01*
X45124588Y-130749600D01*
X45231983Y-130833190D01*
X45231988Y-130833192D01*
X45231990Y-130833194D01*
X45330468Y-130886487D01*
X45380859Y-130936500D01*
X45396500Y-130997301D01*
X45396500Y-131644082D01*
X45376498Y-131712203D01*
X45374195Y-131715659D01*
X45373050Y-131717317D01*
X45373046Y-131717324D01*
X45312034Y-131878200D01*
X45291296Y-132048996D01*
X45291296Y-132049003D01*
X45312034Y-132219799D01*
X45367657Y-132366464D01*
X45373046Y-132380675D01*
X45470785Y-132522273D01*
X45599570Y-132636367D01*
X45599571Y-132636367D01*
X45599573Y-132636369D01*
X45635228Y-132655082D01*
X45751917Y-132716325D01*
X45751918Y-132716325D01*
X45751920Y-132716326D01*
X45871499Y-132745799D01*
X45918972Y-132757500D01*
X45918975Y-132757500D01*
X46091025Y-132757500D01*
X46091028Y-132757500D01*
X46258083Y-132716325D01*
X46410430Y-132636367D01*
X46539215Y-132522273D01*
X46636954Y-132380675D01*
X46697965Y-132219801D01*
X46714985Y-132079630D01*
X46718704Y-132049003D01*
X46718704Y-132048996D01*
X46699966Y-131894677D01*
X46697965Y-131878199D01*
X46636954Y-131717325D01*
X46636951Y-131717321D01*
X46636949Y-131717317D01*
X46635805Y-131715659D01*
X46635340Y-131714250D01*
X46633408Y-131710568D01*
X46634020Y-131710246D01*
X46613568Y-131648235D01*
X46613500Y-131644082D01*
X46613500Y-130997301D01*
X46633502Y-130929180D01*
X46679532Y-130886487D01*
X46732855Y-130857630D01*
X46778017Y-130833190D01*
X46962220Y-130689818D01*
X46962763Y-130689227D01*
X46963542Y-130688383D01*
X46964225Y-130687972D01*
X46966054Y-130686289D01*
X46966400Y-130686665D01*
X47024394Y-130651810D01*
X47095359Y-130653943D01*
X47153905Y-130694103D01*
X47174300Y-130729685D01*
X47199110Y-130796202D01*
X47199112Y-130796207D01*
X47286738Y-130913261D01*
X47403792Y-131000887D01*
X47403794Y-131000888D01*
X47403796Y-131000889D01*
X47462875Y-131022924D01*
X47540795Y-131051988D01*
X47540803Y-131051990D01*
X47601350Y-131058499D01*
X47601355Y-131058499D01*
X47601362Y-131058500D01*
X47815500Y-131058500D01*
X47883621Y-131078502D01*
X47930114Y-131132158D01*
X47941500Y-131184500D01*
X47941500Y-132655082D01*
X47921498Y-132723203D01*
X47919195Y-132726659D01*
X47918050Y-132728317D01*
X47918046Y-132728324D01*
X47857034Y-132889200D01*
X47836296Y-133059996D01*
X47836296Y-133060003D01*
X47857034Y-133230799D01*
X47889982Y-133317675D01*
X47918046Y-133391675D01*
X48015785Y-133533273D01*
X48144570Y-133647367D01*
X48144571Y-133647367D01*
X48144573Y-133647369D01*
X48178702Y-133665281D01*
X48296917Y-133727325D01*
X48296918Y-133727325D01*
X48296920Y-133727326D01*
X48408863Y-133754917D01*
X48463972Y-133768500D01*
X48463975Y-133768500D01*
X48636025Y-133768500D01*
X48636028Y-133768500D01*
X48803083Y-133727325D01*
X48955430Y-133647367D01*
X48965946Y-133638050D01*
X49030198Y-133607849D01*
X49100578Y-133617180D01*
X49154742Y-133663079D01*
X49175492Y-133730976D01*
X49175500Y-133732362D01*
X49175500Y-139115500D01*
X49155498Y-139183621D01*
X49101842Y-139230114D01*
X49049500Y-139241500D01*
X48674594Y-139241500D01*
X48538953Y-139256783D01*
X48538950Y-139256783D01*
X48538950Y-139256784D01*
X48366984Y-139316957D01*
X48366981Y-139316958D01*
X48212720Y-139413887D01*
X48212718Y-139413888D01*
X48083888Y-139542718D01*
X48083887Y-139542720D01*
X47986958Y-139696981D01*
X47986957Y-139696984D01*
X47986957Y-139696985D01*
X47926783Y-139868953D01*
X47911500Y-140004594D01*
X47911500Y-141495406D01*
X47926783Y-141631047D01*
X47952764Y-141705296D01*
X47986957Y-141803015D01*
X47986958Y-141803018D01*
X48083887Y-141957279D01*
X48083888Y-141957281D01*
X48212718Y-142086111D01*
X48212720Y-142086112D01*
X48366981Y-142183041D01*
X48366982Y-142183041D01*
X48366985Y-142183043D01*
X48538953Y-142243217D01*
X48674594Y-142258500D01*
X49365406Y-142258500D01*
X49501047Y-142243217D01*
X49673015Y-142183043D01*
X49827281Y-142086111D01*
X49956111Y-141957281D01*
X50053043Y-141803015D01*
X50113217Y-141631047D01*
X50128500Y-141495406D01*
X50128500Y-140554239D01*
X50148502Y-140486118D01*
X50165400Y-140465148D01*
X50270921Y-140359628D01*
X50351032Y-140220873D01*
X50371766Y-140143491D01*
X50392500Y-140066111D01*
X50392500Y-140004594D01*
X56211500Y-140004594D01*
X56211500Y-141495406D01*
X56226783Y-141631047D01*
X56252764Y-141705296D01*
X56286957Y-141803015D01*
X56286958Y-141803018D01*
X56383887Y-141957279D01*
X56383888Y-141957281D01*
X56512718Y-142086111D01*
X56512720Y-142086112D01*
X56666981Y-142183041D01*
X56666982Y-142183041D01*
X56666985Y-142183043D01*
X56838953Y-142243217D01*
X56974594Y-142258500D01*
X57665406Y-142258500D01*
X57801047Y-142243217D01*
X57973015Y-142183043D01*
X58127281Y-142086111D01*
X58256111Y-141957281D01*
X58353043Y-141803015D01*
X58413217Y-141631047D01*
X58428500Y-141495406D01*
X58428500Y-140004594D01*
X58413217Y-139868953D01*
X58353043Y-139696985D01*
X58353041Y-139696982D01*
X58353041Y-139696981D01*
X58256112Y-139542720D01*
X58256111Y-139542718D01*
X58127281Y-139413888D01*
X58127279Y-139413887D01*
X57973018Y-139316958D01*
X57973015Y-139316957D01*
X57959192Y-139312120D01*
X57801047Y-139256783D01*
X57665406Y-139241500D01*
X56974594Y-139241500D01*
X56838953Y-139256783D01*
X56838950Y-139256783D01*
X56838950Y-139256784D01*
X56666984Y-139316957D01*
X56666981Y-139316958D01*
X56512720Y-139413887D01*
X56512718Y-139413888D01*
X56383888Y-139542718D01*
X56383887Y-139542720D01*
X56286958Y-139696981D01*
X56286957Y-139696984D01*
X56286957Y-139696985D01*
X56226783Y-139868953D01*
X56211500Y-140004594D01*
X50392500Y-140004594D01*
X50392500Y-134111996D01*
X60754296Y-134111996D01*
X60754296Y-134112003D01*
X60775034Y-134282799D01*
X60836046Y-134443676D01*
X60837193Y-134445337D01*
X60837658Y-134446748D01*
X60839589Y-134450427D01*
X60838977Y-134450747D01*
X60859431Y-134512760D01*
X60859500Y-134516917D01*
X60859500Y-145137082D01*
X60839498Y-145205203D01*
X60837195Y-145208659D01*
X60836050Y-145210317D01*
X60836046Y-145210324D01*
X60775034Y-145371200D01*
X60754296Y-145541996D01*
X60754296Y-145542003D01*
X60775034Y-145712799D01*
X60813257Y-145813584D01*
X60836046Y-145873675D01*
X60933785Y-146015273D01*
X61062570Y-146129367D01*
X61062571Y-146129367D01*
X61062573Y-146129369D01*
X61112764Y-146155711D01*
X61214917Y-146209325D01*
X61214918Y-146209325D01*
X61214920Y-146209326D01*
X61261469Y-146220799D01*
X61381972Y-146250500D01*
X61381975Y-146250500D01*
X61554025Y-146250500D01*
X61554028Y-146250500D01*
X61721083Y-146209325D01*
X61873430Y-146129367D01*
X62002215Y-146015273D01*
X62099954Y-145873675D01*
X62139688Y-145768903D01*
X62182546Y-145712303D01*
X62249202Y-145687858D01*
X62318492Y-145703330D01*
X62368418Y-145753807D01*
X62383500Y-145813584D01*
X62383500Y-146915082D01*
X62363498Y-146983203D01*
X62361195Y-146986659D01*
X62360050Y-146988317D01*
X62360046Y-146988324D01*
X62299034Y-147149200D01*
X62278296Y-147319996D01*
X62278296Y-147320003D01*
X62299034Y-147490799D01*
X62356689Y-147642822D01*
X62360046Y-147651675D01*
X62457785Y-147793273D01*
X62586570Y-147907367D01*
X62586571Y-147907367D01*
X62586573Y-147907369D01*
X62667465Y-147949824D01*
X62738917Y-147987325D01*
X62738918Y-147987325D01*
X62738920Y-147987326D01*
X62876651Y-148021273D01*
X62905972Y-148028500D01*
X62905975Y-148028500D01*
X63078025Y-148028500D01*
X63078028Y-148028500D01*
X63245083Y-147987325D01*
X63397430Y-147907367D01*
X63526215Y-147793273D01*
X63623954Y-147651675D01*
X63684965Y-147490801D01*
X63705704Y-147320000D01*
X63702867Y-147296638D01*
X63688990Y-147182346D01*
X63684965Y-147149199D01*
X63623954Y-146988325D01*
X63623951Y-146988321D01*
X63623949Y-146988317D01*
X63622805Y-146986659D01*
X63622340Y-146985250D01*
X63620408Y-146981568D01*
X63621020Y-146981246D01*
X63600568Y-146919235D01*
X63600500Y-146915082D01*
X63600500Y-139201350D01*
X65241500Y-139201350D01*
X65241500Y-140798649D01*
X65248009Y-140859196D01*
X65248011Y-140859204D01*
X65299110Y-140996202D01*
X65299112Y-140996207D01*
X65386737Y-141113259D01*
X65386738Y-141113259D01*
X65386739Y-141113261D01*
X65418090Y-141136730D01*
X65460636Y-141193566D01*
X65465700Y-141264382D01*
X65444517Y-141311657D01*
X65423637Y-141340396D01*
X65333703Y-141516901D01*
X65333702Y-141516903D01*
X65284505Y-141668317D01*
X65272488Y-141705300D01*
X65241500Y-141900954D01*
X65241500Y-142099046D01*
X65272488Y-142294700D01*
X65333702Y-142483097D01*
X65422119Y-142656624D01*
X65423636Y-142659601D01*
X65540071Y-142819860D01*
X65631116Y-142910905D01*
X65665142Y-142973217D01*
X65660077Y-143044032D01*
X65631116Y-143089095D01*
X65540074Y-143180136D01*
X65540071Y-143180139D01*
X65423636Y-143340398D01*
X65423634Y-143340402D01*
X65333702Y-143516903D01*
X65272488Y-143705300D01*
X65241500Y-143900954D01*
X65241500Y-144099046D01*
X65272488Y-144294700D01*
X65333702Y-144483097D01*
X65333703Y-144483098D01*
X65423636Y-144659601D01*
X65540071Y-144819860D01*
X65680139Y-144959928D01*
X65680142Y-144959930D01*
X65840402Y-145076366D01*
X66016903Y-145166298D01*
X66119926Y-145199772D01*
X66178531Y-145239846D01*
X66206168Y-145305243D01*
X66194061Y-145375199D01*
X66178386Y-145399541D01*
X66175250Y-145403362D01*
X66153365Y-145424292D01*
X66136738Y-145436739D01*
X66049112Y-145553792D01*
X66049110Y-145553797D01*
X65998011Y-145690795D01*
X65994542Y-145723059D01*
X65985675Y-145757798D01*
X65982179Y-145766237D01*
X65982176Y-145766249D01*
X65941500Y-145970741D01*
X65941500Y-146729258D01*
X65982175Y-146933749D01*
X65982177Y-146933755D01*
X65985676Y-146942203D01*
X65994542Y-146976940D01*
X65998011Y-147009204D01*
X66049110Y-147146202D01*
X66049112Y-147146207D01*
X66136738Y-147263260D01*
X66153360Y-147275703D01*
X66175251Y-147296638D01*
X66177809Y-147299755D01*
X66325245Y-147447191D01*
X66498612Y-147563031D01*
X66691247Y-147642823D01*
X66895747Y-147683500D01*
X66895748Y-147683500D01*
X67104252Y-147683500D01*
X67104253Y-147683500D01*
X67308753Y-147642823D01*
X67501388Y-147563031D01*
X67674755Y-147447191D01*
X67822191Y-147299755D01*
X67822201Y-147299739D01*
X67824745Y-147296641D01*
X67846642Y-147275701D01*
X67863261Y-147263261D01*
X67950886Y-147146208D01*
X67950885Y-147146208D01*
X67950889Y-147146204D01*
X68001989Y-147009201D01*
X68005457Y-146976940D01*
X68014329Y-146942187D01*
X68017821Y-146933758D01*
X68017822Y-146933755D01*
X68017823Y-146933753D01*
X68058500Y-146729253D01*
X68058500Y-145970747D01*
X68017823Y-145766247D01*
X68014327Y-145757806D01*
X68005456Y-145723049D01*
X68001990Y-145690805D01*
X68001990Y-145690804D01*
X68001989Y-145690802D01*
X68001989Y-145690799D01*
X67950889Y-145553796D01*
X67950886Y-145553792D01*
X67950886Y-145553791D01*
X67863261Y-145436738D01*
X67846637Y-145424294D01*
X67824749Y-145403362D01*
X67821613Y-145399541D01*
X67793858Y-145334195D01*
X67805837Y-145264216D01*
X67853748Y-145211823D01*
X67880072Y-145199772D01*
X67983097Y-145166298D01*
X68159598Y-145076366D01*
X68319858Y-144959930D01*
X68459930Y-144819858D01*
X68505564Y-144757047D01*
X68561786Y-144713694D01*
X68632522Y-144707619D01*
X68695314Y-144740750D01*
X68730226Y-144802570D01*
X68733500Y-144831109D01*
X68733500Y-145645082D01*
X68713498Y-145713203D01*
X68711195Y-145716659D01*
X68710050Y-145718317D01*
X68710046Y-145718324D01*
X68649034Y-145879200D01*
X68628296Y-146049996D01*
X68628296Y-146050003D01*
X68649034Y-146220799D01*
X68704272Y-146366449D01*
X68710046Y-146381675D01*
X68807785Y-146523273D01*
X68936570Y-146637367D01*
X68936571Y-146637367D01*
X68936573Y-146637369D01*
X69017465Y-146679824D01*
X69088917Y-146717325D01*
X69088918Y-146717325D01*
X69088920Y-146717326D01*
X69247394Y-146756385D01*
X69255972Y-146758500D01*
X69255975Y-146758500D01*
X69428025Y-146758500D01*
X69428028Y-146758500D01*
X69595083Y-146717325D01*
X69747430Y-146637367D01*
X69876215Y-146523273D01*
X69973954Y-146381675D01*
X70034965Y-146220801D01*
X70055704Y-146050000D01*
X70055462Y-146048011D01*
X70034965Y-145879200D01*
X70032869Y-145873673D01*
X69973954Y-145718325D01*
X69973951Y-145718321D01*
X69973949Y-145718317D01*
X69972805Y-145716659D01*
X69972340Y-145715250D01*
X69970408Y-145711568D01*
X69971020Y-145711246D01*
X69950568Y-145649235D01*
X69950500Y-145645082D01*
X69950500Y-138434808D01*
X69950500Y-138434807D01*
X69909032Y-138280046D01*
X69828921Y-138141290D01*
X69715628Y-138027997D01*
X68085627Y-136397996D01*
X69644296Y-136397996D01*
X69644296Y-136398003D01*
X69665034Y-136568799D01*
X69724005Y-136724292D01*
X69726046Y-136729675D01*
X69823785Y-136871273D01*
X69952570Y-136985367D01*
X69952571Y-136985367D01*
X69952573Y-136985369D01*
X70017271Y-137019325D01*
X70104917Y-137065325D01*
X70104918Y-137065325D01*
X70104920Y-137065326D01*
X70263394Y-137104385D01*
X70271972Y-137106500D01*
X70271975Y-137106500D01*
X70444025Y-137106500D01*
X70444028Y-137106500D01*
X70611083Y-137065325D01*
X70763430Y-136985367D01*
X70892215Y-136871273D01*
X70989954Y-136729675D01*
X71050965Y-136568801D01*
X71062347Y-136475064D01*
X71071704Y-136398003D01*
X71071704Y-136397996D01*
X71050965Y-136227200D01*
X71050965Y-136227199D01*
X70989954Y-136066325D01*
X70989951Y-136066321D01*
X70989949Y-136066317D01*
X70988805Y-136064659D01*
X70988340Y-136063250D01*
X70986408Y-136059568D01*
X70987020Y-136059246D01*
X70966568Y-135997235D01*
X70966500Y-135993082D01*
X70966500Y-134673651D01*
X70986502Y-134605530D01*
X71012669Y-134578486D01*
X71011725Y-134577421D01*
X71017430Y-134572367D01*
X71146215Y-134458273D01*
X71243954Y-134316675D01*
X71283688Y-134211903D01*
X71326546Y-134155303D01*
X71393202Y-134130858D01*
X71462492Y-134146330D01*
X71512418Y-134196807D01*
X71527500Y-134256584D01*
X71527500Y-146915082D01*
X71507498Y-146983203D01*
X71505195Y-146986659D01*
X71504050Y-146988317D01*
X71504046Y-146988324D01*
X71443034Y-147149200D01*
X71422296Y-147319996D01*
X71422296Y-147320003D01*
X71443034Y-147490799D01*
X71500689Y-147642822D01*
X71504046Y-147651675D01*
X71601785Y-147793273D01*
X71730570Y-147907367D01*
X71730571Y-147907367D01*
X71730573Y-147907369D01*
X71811465Y-147949824D01*
X71882917Y-147987325D01*
X71882918Y-147987325D01*
X71882920Y-147987326D01*
X72020651Y-148021273D01*
X72049972Y-148028500D01*
X72049975Y-148028500D01*
X72222025Y-148028500D01*
X72222028Y-148028500D01*
X72389083Y-147987325D01*
X72541430Y-147907367D01*
X72670215Y-147793273D01*
X72767954Y-147651675D01*
X72828965Y-147490801D01*
X72849704Y-147320000D01*
X72846867Y-147296638D01*
X72832990Y-147182346D01*
X72828965Y-147149199D01*
X72767954Y-146988325D01*
X72767951Y-146988321D01*
X72767949Y-146988317D01*
X72766805Y-146986659D01*
X72766340Y-146985250D01*
X72764408Y-146981568D01*
X72765020Y-146981246D01*
X72744568Y-146919235D01*
X72744500Y-146915082D01*
X72744500Y-146501350D01*
X78021500Y-146501350D01*
X78021500Y-148398649D01*
X78028009Y-148459196D01*
X78028011Y-148459204D01*
X78079110Y-148596202D01*
X78079112Y-148596207D01*
X78166738Y-148713261D01*
X78283792Y-148800887D01*
X78283794Y-148800888D01*
X78283796Y-148800889D01*
X78335243Y-148820078D01*
X78420795Y-148851988D01*
X78420803Y-148851990D01*
X78481350Y-148858499D01*
X78481355Y-148858499D01*
X78481362Y-148858500D01*
X78481368Y-148858500D01*
X80378632Y-148858500D01*
X80378638Y-148858500D01*
X80378645Y-148858499D01*
X80378649Y-148858499D01*
X80439196Y-148851990D01*
X80439199Y-148851989D01*
X80439201Y-148851989D01*
X80576204Y-148800889D01*
X80693261Y-148713261D01*
X80780889Y-148596204D01*
X80804258Y-148533547D01*
X80846804Y-148476715D01*
X80913325Y-148451904D01*
X80982699Y-148466996D01*
X81008294Y-148486996D01*
X81008946Y-148486289D01*
X81012778Y-148489817D01*
X81068966Y-148533550D01*
X81196983Y-148633190D01*
X81402273Y-148744287D01*
X81623049Y-148820080D01*
X81853288Y-148858500D01*
X81853292Y-148858500D01*
X82086708Y-148858500D01*
X82086712Y-148858500D01*
X82316951Y-148820080D01*
X82537727Y-148744287D01*
X82743017Y-148633190D01*
X82927220Y-148489818D01*
X82939283Y-148476715D01*
X83085314Y-148318083D01*
X83128770Y-148251568D01*
X83212984Y-148122669D01*
X83306749Y-147908907D01*
X83364051Y-147682626D01*
X83383327Y-147450000D01*
X83364051Y-147217374D01*
X83346787Y-147149199D01*
X83306750Y-146991096D01*
X83306747Y-146991089D01*
X83302429Y-146981246D01*
X83212984Y-146777331D01*
X83200681Y-146758500D01*
X83085314Y-146581916D01*
X82927225Y-146410186D01*
X82927221Y-146410182D01*
X82835118Y-146338496D01*
X82743017Y-146266810D01*
X82537727Y-146155713D01*
X82537724Y-146155712D01*
X82537723Y-146155711D01*
X82316955Y-146079921D01*
X82316948Y-146079919D01*
X82218411Y-146063476D01*
X82086712Y-146041500D01*
X81853288Y-146041500D01*
X81738066Y-146060727D01*
X81623051Y-146079919D01*
X81623044Y-146079921D01*
X81402276Y-146155711D01*
X81402273Y-146155713D01*
X81282001Y-146220801D01*
X81196985Y-146266809D01*
X81196983Y-146266810D01*
X81012778Y-146410182D01*
X81008946Y-146413711D01*
X81007581Y-146412228D01*
X80954129Y-146444333D01*
X80883165Y-146442180D01*
X80824630Y-146402003D01*
X80804258Y-146366449D01*
X80780889Y-146303797D01*
X80780887Y-146303792D01*
X80693261Y-146186738D01*
X80576207Y-146099112D01*
X80576202Y-146099110D01*
X80439204Y-146048011D01*
X80439196Y-146048009D01*
X80378649Y-146041500D01*
X80378638Y-146041500D01*
X78481362Y-146041500D01*
X78481350Y-146041500D01*
X78420803Y-146048009D01*
X78420795Y-146048011D01*
X78283797Y-146099110D01*
X78283792Y-146099112D01*
X78166738Y-146186738D01*
X78079112Y-146303792D01*
X78079110Y-146303797D01*
X78028011Y-146440795D01*
X78028009Y-146440803D01*
X78021500Y-146501350D01*
X72744500Y-146501350D01*
X72744500Y-140162802D01*
X73112000Y-140162802D01*
X73112000Y-140496000D01*
X73920000Y-140496000D01*
X73920000Y-141004000D01*
X73112000Y-141004000D01*
X73112000Y-141337197D01*
X73139284Y-141509462D01*
X73193174Y-141675319D01*
X73193177Y-141675325D01*
X73272356Y-141830721D01*
X73374867Y-141971815D01*
X73374869Y-141971818D01*
X73498181Y-142095130D01*
X73498184Y-142095132D01*
X73639278Y-142197643D01*
X73794674Y-142276822D01*
X73794680Y-142276825D01*
X73960534Y-142330714D01*
X73966000Y-142331580D01*
X73966000Y-141410060D01*
X73979940Y-141434205D01*
X74035795Y-141490060D01*
X74104204Y-141529556D01*
X74180504Y-141550000D01*
X74259496Y-141550000D01*
X74335796Y-141529556D01*
X74404205Y-141490060D01*
X74460060Y-141434205D01*
X74474000Y-141410060D01*
X74474000Y-142331580D01*
X74479465Y-142330714D01*
X74645319Y-142276825D01*
X74645325Y-142276822D01*
X74800721Y-142197643D01*
X74941815Y-142095132D01*
X74941818Y-142095130D01*
X75065130Y-141971818D01*
X75065132Y-141971815D01*
X75167643Y-141830721D01*
X75246822Y-141675325D01*
X75246825Y-141675319D01*
X75300715Y-141509462D01*
X75328000Y-141337197D01*
X75328000Y-141004000D01*
X74520000Y-141004000D01*
X74520000Y-140496000D01*
X75328000Y-140496000D01*
X75328000Y-140162802D01*
X75302941Y-140004594D01*
X76211500Y-140004594D01*
X76211500Y-141495406D01*
X76226783Y-141631047D01*
X76252764Y-141705296D01*
X76286957Y-141803015D01*
X76286958Y-141803018D01*
X76383887Y-141957279D01*
X76383888Y-141957281D01*
X76512718Y-142086111D01*
X76512720Y-142086112D01*
X76666981Y-142183041D01*
X76666982Y-142183041D01*
X76666985Y-142183043D01*
X76838953Y-142243217D01*
X76974594Y-142258500D01*
X77665406Y-142258500D01*
X77801047Y-142243217D01*
X77973015Y-142183043D01*
X78127281Y-142086111D01*
X78256111Y-141957281D01*
X78353043Y-141803015D01*
X78413217Y-141631047D01*
X78428500Y-141495406D01*
X78428500Y-140004594D01*
X84511500Y-140004594D01*
X84511500Y-141495406D01*
X84526783Y-141631047D01*
X84552764Y-141705296D01*
X84586957Y-141803015D01*
X84586958Y-141803018D01*
X84683887Y-141957279D01*
X84683888Y-141957281D01*
X84812718Y-142086111D01*
X84812720Y-142086112D01*
X84966981Y-142183041D01*
X84966982Y-142183041D01*
X84966985Y-142183043D01*
X85138953Y-142243217D01*
X85274594Y-142258500D01*
X85965406Y-142258500D01*
X86101047Y-142243217D01*
X86273015Y-142183043D01*
X86427281Y-142086111D01*
X86556111Y-141957281D01*
X86653043Y-141803015D01*
X86713217Y-141631047D01*
X86728500Y-141495406D01*
X86728500Y-140004594D01*
X86713217Y-139868953D01*
X86653043Y-139696985D01*
X86653041Y-139696982D01*
X86653041Y-139696981D01*
X86556112Y-139542720D01*
X86556111Y-139542718D01*
X86427281Y-139413888D01*
X86427279Y-139413887D01*
X86273018Y-139316958D01*
X86273015Y-139316957D01*
X86259192Y-139312120D01*
X86101047Y-139256783D01*
X85965406Y-139241500D01*
X85274594Y-139241500D01*
X85138953Y-139256783D01*
X85138950Y-139256783D01*
X85138950Y-139256784D01*
X84966984Y-139316957D01*
X84966981Y-139316958D01*
X84812720Y-139413887D01*
X84812718Y-139413888D01*
X84683888Y-139542718D01*
X84683887Y-139542720D01*
X84586958Y-139696981D01*
X84586957Y-139696984D01*
X84586957Y-139696985D01*
X84526783Y-139868953D01*
X84511500Y-140004594D01*
X78428500Y-140004594D01*
X78413217Y-139868953D01*
X78353043Y-139696985D01*
X78353041Y-139696982D01*
X78353041Y-139696981D01*
X78256112Y-139542720D01*
X78256111Y-139542718D01*
X78127281Y-139413888D01*
X78127279Y-139413887D01*
X77973018Y-139316958D01*
X77973015Y-139316957D01*
X77959192Y-139312120D01*
X77801047Y-139256783D01*
X77665406Y-139241500D01*
X76974594Y-139241500D01*
X76838953Y-139256783D01*
X76838950Y-139256783D01*
X76838950Y-139256784D01*
X76666984Y-139316957D01*
X76666981Y-139316958D01*
X76512720Y-139413887D01*
X76512718Y-139413888D01*
X76383888Y-139542718D01*
X76383887Y-139542720D01*
X76286958Y-139696981D01*
X76286957Y-139696984D01*
X76286957Y-139696985D01*
X76226783Y-139868953D01*
X76211500Y-140004594D01*
X75302941Y-140004594D01*
X75300715Y-139990537D01*
X75246825Y-139824680D01*
X75246822Y-139824674D01*
X75167643Y-139669278D01*
X75065132Y-139528184D01*
X75065130Y-139528181D01*
X74941818Y-139404869D01*
X74941815Y-139404867D01*
X74800721Y-139302356D01*
X74645325Y-139223177D01*
X74645319Y-139223174D01*
X74479461Y-139169284D01*
X74479449Y-139169281D01*
X74474000Y-139168417D01*
X74474000Y-140089939D01*
X74460060Y-140065795D01*
X74404205Y-140009940D01*
X74335796Y-139970444D01*
X74259496Y-139950000D01*
X74180504Y-139950000D01*
X74104204Y-139970444D01*
X74035795Y-140009940D01*
X73979940Y-140065795D01*
X73966000Y-140089939D01*
X73966000Y-139168417D01*
X73960550Y-139169281D01*
X73960538Y-139169284D01*
X73794680Y-139223174D01*
X73794674Y-139223177D01*
X73639278Y-139302356D01*
X73498184Y-139404867D01*
X73498181Y-139404869D01*
X73374869Y-139528181D01*
X73374867Y-139528184D01*
X73272356Y-139669278D01*
X73193177Y-139824674D01*
X73193174Y-139824680D01*
X73139284Y-139990537D01*
X73112000Y-140162802D01*
X72744500Y-140162802D01*
X72744500Y-133754917D01*
X72764502Y-133686796D01*
X72766807Y-133683337D01*
X72767953Y-133681676D01*
X72767952Y-133681676D01*
X72767954Y-133681675D01*
X72828965Y-133520801D01*
X72843208Y-133403500D01*
X72849704Y-133350003D01*
X72849704Y-133349996D01*
X72828965Y-133179200D01*
X72796770Y-133094306D01*
X72767954Y-133018325D01*
X72670215Y-132876727D01*
X72541430Y-132762633D01*
X72541429Y-132762632D01*
X72541426Y-132762630D01*
X72389087Y-132682677D01*
X72389079Y-132682673D01*
X72222031Y-132641500D01*
X72222028Y-132641500D01*
X72049972Y-132641500D01*
X72049968Y-132641500D01*
X71882920Y-132682673D01*
X71882912Y-132682677D01*
X71730573Y-132762630D01*
X71730568Y-132762634D01*
X71601785Y-132876727D01*
X71504045Y-133018326D01*
X71443034Y-133179200D01*
X71422296Y-133349996D01*
X71422296Y-133350004D01*
X71443437Y-133524124D01*
X71431792Y-133594159D01*
X71384131Y-133646780D01*
X71315587Y-133665281D01*
X71247923Y-133643787D01*
X71214662Y-133610889D01*
X71146215Y-133511727D01*
X71017430Y-133397633D01*
X71017429Y-133397632D01*
X71017426Y-133397630D01*
X70865087Y-133317677D01*
X70865079Y-133317673D01*
X70698031Y-133276500D01*
X70698028Y-133276500D01*
X70525972Y-133276500D01*
X70525968Y-133276500D01*
X70358920Y-133317673D01*
X70358912Y-133317677D01*
X70206573Y-133397630D01*
X70206568Y-133397634D01*
X70077785Y-133511727D01*
X69980046Y-133653325D01*
X69926661Y-133794090D01*
X69897947Y-133838502D01*
X69871081Y-133865368D01*
X69871075Y-133865377D01*
X69790966Y-134004129D01*
X69780317Y-134043871D01*
X69780318Y-134043872D01*
X69749500Y-134158888D01*
X69749500Y-135993082D01*
X69729498Y-136061203D01*
X69727195Y-136064659D01*
X69726050Y-136066317D01*
X69726046Y-136066324D01*
X69665034Y-136227200D01*
X69644296Y-136397996D01*
X68085627Y-136397996D01*
X67447405Y-135759774D01*
X67413379Y-135697462D01*
X67410500Y-135670679D01*
X67410500Y-132436388D01*
X67430502Y-132368267D01*
X67432807Y-132364808D01*
X67433953Y-132363147D01*
X67433952Y-132363147D01*
X67433954Y-132363146D01*
X67494965Y-132202272D01*
X67509856Y-132079635D01*
X67515704Y-132031474D01*
X67515704Y-132031467D01*
X67497097Y-131878227D01*
X67494965Y-131860670D01*
X67433954Y-131699796D01*
X67336215Y-131558198D01*
X67207430Y-131444104D01*
X67207429Y-131444103D01*
X67207426Y-131444101D01*
X67055087Y-131364148D01*
X67055079Y-131364144D01*
X66888031Y-131322971D01*
X66888028Y-131322971D01*
X66715972Y-131322971D01*
X66715968Y-131322971D01*
X66548920Y-131364144D01*
X66548912Y-131364148D01*
X66396573Y-131444101D01*
X66396568Y-131444105D01*
X66267785Y-131558198D01*
X66170045Y-131699797D01*
X66109034Y-131860671D01*
X66088296Y-132031467D01*
X66088296Y-132031474D01*
X66109034Y-132202270D01*
X66170046Y-132363147D01*
X66171193Y-132364808D01*
X66171658Y-132366219D01*
X66173589Y-132369898D01*
X66172977Y-132370218D01*
X66193431Y-132432231D01*
X66193500Y-132436388D01*
X66193500Y-135894808D01*
X66193500Y-136055028D01*
X66234968Y-136209791D01*
X66234969Y-136209793D01*
X66234970Y-136209795D01*
X66315075Y-136348541D01*
X66315083Y-136348551D01*
X66333549Y-136367017D01*
X66367575Y-136429329D01*
X66362510Y-136500144D01*
X66328689Y-136547500D01*
X66329621Y-136548432D01*
X66177811Y-136700241D01*
X66175247Y-136703366D01*
X66153365Y-136724292D01*
X66136738Y-136736739D01*
X66049112Y-136853792D01*
X66049110Y-136853797D01*
X65998011Y-136990795D01*
X65994542Y-137023059D01*
X65985675Y-137057798D01*
X65982179Y-137066237D01*
X65982176Y-137066249D01*
X65941500Y-137270741D01*
X65941500Y-138029258D01*
X65982175Y-138233749D01*
X65982177Y-138233755D01*
X65985676Y-138242203D01*
X65994542Y-138276940D01*
X65998011Y-138309204D01*
X66049110Y-138446202D01*
X66049112Y-138446207D01*
X66119319Y-138539991D01*
X66144130Y-138606511D01*
X66129039Y-138675885D01*
X66078837Y-138726087D01*
X66018451Y-138741500D01*
X65701350Y-138741500D01*
X65640803Y-138748009D01*
X65640795Y-138748011D01*
X65503797Y-138799110D01*
X65503792Y-138799112D01*
X65386738Y-138886738D01*
X65299112Y-139003792D01*
X65299110Y-139003797D01*
X65248011Y-139140795D01*
X65248009Y-139140803D01*
X65241500Y-139201350D01*
X63600500Y-139201350D01*
X63600500Y-132979917D01*
X63620502Y-132911796D01*
X63622807Y-132908337D01*
X63623953Y-132906676D01*
X63623952Y-132906676D01*
X63623954Y-132906675D01*
X63684965Y-132745801D01*
X63697351Y-132643792D01*
X63705704Y-132575003D01*
X63705704Y-132574996D01*
X63684965Y-132404200D01*
X63682282Y-132397124D01*
X63623954Y-132243325D01*
X63526215Y-132101727D01*
X63397430Y-131987633D01*
X63397429Y-131987632D01*
X63397426Y-131987630D01*
X63245087Y-131907677D01*
X63245079Y-131907673D01*
X63078031Y-131866500D01*
X63078028Y-131866500D01*
X62905972Y-131866500D01*
X62905968Y-131866500D01*
X62738920Y-131907673D01*
X62738912Y-131907677D01*
X62586573Y-131987630D01*
X62586568Y-131987634D01*
X62457785Y-132101727D01*
X62360045Y-132243326D01*
X62299034Y-132404200D01*
X62278296Y-132574996D01*
X62278296Y-132575003D01*
X62299034Y-132745799D01*
X62360046Y-132906676D01*
X62361193Y-132908337D01*
X62361658Y-132909748D01*
X62363589Y-132913427D01*
X62362977Y-132913747D01*
X62383431Y-132975760D01*
X62383500Y-132979917D01*
X62383500Y-133840415D01*
X62363498Y-133908536D01*
X62309842Y-133955029D01*
X62239568Y-133965133D01*
X62174988Y-133935639D01*
X62139688Y-133885096D01*
X62099954Y-133780325D01*
X62002215Y-133638727D01*
X61873430Y-133524633D01*
X61873429Y-133524632D01*
X61873426Y-133524630D01*
X61721087Y-133444677D01*
X61721079Y-133444673D01*
X61554031Y-133403500D01*
X61554028Y-133403500D01*
X61381972Y-133403500D01*
X61381968Y-133403500D01*
X61214920Y-133444673D01*
X61214912Y-133444677D01*
X61062573Y-133524630D01*
X61062568Y-133524634D01*
X60933785Y-133638727D01*
X60836045Y-133780326D01*
X60775034Y-133941200D01*
X60754296Y-134111996D01*
X50392500Y-134111996D01*
X50392500Y-131722917D01*
X50412502Y-131654796D01*
X50414807Y-131651337D01*
X50415953Y-131649676D01*
X50415952Y-131649676D01*
X50415954Y-131649675D01*
X50476965Y-131488801D01*
X50493757Y-131350505D01*
X50497704Y-131318003D01*
X50497704Y-131317996D01*
X50476966Y-131147204D01*
X50476965Y-131147202D01*
X50476965Y-131147199D01*
X50476913Y-131147064D01*
X50476905Y-131146953D01*
X50475142Y-131139800D01*
X50476331Y-131139506D01*
X50471455Y-131076279D01*
X50505133Y-131013779D01*
X50567255Y-130979407D01*
X50635633Y-130983203D01*
X50743049Y-131020080D01*
X50973288Y-131058500D01*
X50973292Y-131058500D01*
X51206708Y-131058500D01*
X51206712Y-131058500D01*
X51436951Y-131020080D01*
X51657727Y-130944287D01*
X51863017Y-130833190D01*
X52047220Y-130689818D01*
X52048920Y-130687972D01*
X52205314Y-130518083D01*
X52264240Y-130427890D01*
X52332984Y-130322669D01*
X52426749Y-130108907D01*
X52484051Y-129882626D01*
X52503327Y-129650000D01*
X52484051Y-129417374D01*
X52464061Y-129338434D01*
X52426750Y-129191096D01*
X52426747Y-129191089D01*
X52421711Y-129179609D01*
X52332984Y-128977331D01*
X52269289Y-128879838D01*
X52205314Y-128781916D01*
X52047225Y-128610186D01*
X52047221Y-128610182D01*
X51955118Y-128538496D01*
X51863017Y-128466810D01*
X51657727Y-128355713D01*
X51657724Y-128355712D01*
X51657723Y-128355711D01*
X51436955Y-128279921D01*
X51436948Y-128279919D01*
X51337628Y-128263346D01*
X51206712Y-128241500D01*
X50973288Y-128241500D01*
X50858066Y-128260727D01*
X50743051Y-128279919D01*
X50743044Y-128279921D01*
X50522276Y-128355711D01*
X50522273Y-128355713D01*
X50327472Y-128461134D01*
X50316985Y-128466809D01*
X50316983Y-128466810D01*
X50132778Y-128610182D01*
X50128946Y-128613711D01*
X50127581Y-128612228D01*
X50074129Y-128644333D01*
X50003165Y-128642180D01*
X49944630Y-128602003D01*
X49924258Y-128566449D01*
X49900889Y-128503797D01*
X49900887Y-128503792D01*
X49813261Y-128386738D01*
X49696207Y-128299112D01*
X49696202Y-128299110D01*
X49559204Y-128248011D01*
X49559196Y-128248009D01*
X49498649Y-128241500D01*
X49498638Y-128241500D01*
X47601362Y-128241500D01*
X47601350Y-128241500D01*
X47540803Y-128248009D01*
X47540795Y-128248011D01*
X47403797Y-128299110D01*
X47403792Y-128299112D01*
X47286738Y-128386738D01*
X47199112Y-128503792D01*
X47199111Y-128503795D01*
X47174300Y-128570315D01*
X47131753Y-128627150D01*
X47065232Y-128651960D01*
X46995858Y-128636868D01*
X46966123Y-128613635D01*
X46966054Y-128613711D01*
X46965123Y-128612854D01*
X46963550Y-128611625D01*
X46962226Y-128610187D01*
X46962221Y-128610182D01*
X46870118Y-128538496D01*
X46778017Y-128466810D01*
X46572727Y-128355713D01*
X46572724Y-128355712D01*
X46572723Y-128355711D01*
X46351955Y-128279921D01*
X46351948Y-128279919D01*
X46252628Y-128263346D01*
X46121712Y-128241500D01*
X45888288Y-128241500D01*
X45773066Y-128260727D01*
X45658051Y-128279919D01*
X45658044Y-128279921D01*
X45437276Y-128355711D01*
X45437273Y-128355713D01*
X45242472Y-128461134D01*
X45231985Y-128466809D01*
X45231983Y-128466810D01*
X45047778Y-128610182D01*
X45043946Y-128613711D01*
X45042581Y-128612228D01*
X44989129Y-128644333D01*
X44918165Y-128642180D01*
X44859630Y-128602003D01*
X44839258Y-128566449D01*
X44815889Y-128503797D01*
X44815887Y-128503792D01*
X44728261Y-128386738D01*
X44611207Y-128299112D01*
X44611202Y-128299110D01*
X44474204Y-128248011D01*
X44474196Y-128248009D01*
X44413649Y-128241500D01*
X44413638Y-128241500D01*
X42516362Y-128241500D01*
X42516350Y-128241500D01*
X42455803Y-128248009D01*
X42455795Y-128248011D01*
X42318797Y-128299110D01*
X42318792Y-128299112D01*
X42201738Y-128386738D01*
X42114112Y-128503792D01*
X42114110Y-128503797D01*
X42063011Y-128640795D01*
X42063009Y-128640803D01*
X42056500Y-128701350D01*
X40035346Y-128701350D01*
X40039948Y-125999996D01*
X53236654Y-125999996D01*
X53236654Y-126000003D01*
X53256016Y-126295421D01*
X53256018Y-126295435D01*
X53286431Y-126448325D01*
X53309803Y-126565826D01*
X53313776Y-126585795D01*
X53313778Y-126585805D01*
X53408938Y-126866137D01*
X53408944Y-126866151D01*
X53539883Y-127131670D01*
X53704359Y-127377827D01*
X53704361Y-127377830D01*
X53704367Y-127377838D01*
X53899573Y-127600427D01*
X54122162Y-127795633D01*
X54122170Y-127795638D01*
X54122172Y-127795640D01*
X54196952Y-127845606D01*
X54368327Y-127960115D01*
X54633855Y-128091059D01*
X54914203Y-128186224D01*
X55204574Y-128243983D01*
X55373388Y-128255047D01*
X55499997Y-128263346D01*
X55500000Y-128263346D01*
X55500003Y-128263346D01*
X55610784Y-128256084D01*
X55795426Y-128243983D01*
X56085797Y-128186224D01*
X56366145Y-128091059D01*
X56631673Y-127960115D01*
X56877838Y-127795633D01*
X57100427Y-127600427D01*
X57295633Y-127377838D01*
X57460115Y-127131673D01*
X57460115Y-127131671D01*
X57460118Y-127131668D01*
X57460118Y-127131667D01*
X57507136Y-127036324D01*
X57555203Y-126984074D01*
X57623889Y-126966107D01*
X57691385Y-126988126D01*
X57736261Y-127043140D01*
X57744591Y-127111759D01*
X57742876Y-127122590D01*
X57741500Y-127131278D01*
X57741500Y-127368722D01*
X57778644Y-127603241D01*
X57778645Y-127603246D01*
X57849542Y-127821444D01*
X57852018Y-127829063D01*
X57959815Y-128040627D01*
X58099380Y-128232722D01*
X58099382Y-128232724D01*
X58099384Y-128232727D01*
X58267272Y-128400615D01*
X58267275Y-128400617D01*
X58267278Y-128400620D01*
X58459373Y-128540185D01*
X58670937Y-128647982D01*
X58896759Y-128721356D01*
X59131278Y-128758500D01*
X59131281Y-128758500D01*
X60368719Y-128758500D01*
X60368722Y-128758500D01*
X60603241Y-128721356D01*
X60829063Y-128647982D01*
X61040627Y-128540185D01*
X61232722Y-128400620D01*
X61400620Y-128232722D01*
X61540185Y-128040627D01*
X61637733Y-127849176D01*
X61686481Y-127797561D01*
X61755396Y-127780495D01*
X61822598Y-127803396D01*
X61862265Y-127849175D01*
X61959815Y-128040627D01*
X62099380Y-128232722D01*
X62099382Y-128232724D01*
X62099384Y-128232727D01*
X62267272Y-128400615D01*
X62267275Y-128400617D01*
X62267278Y-128400620D01*
X62459373Y-128540185D01*
X62670937Y-128647982D01*
X62896759Y-128721356D01*
X63131278Y-128758500D01*
X63131281Y-128758500D01*
X64368719Y-128758500D01*
X64368722Y-128758500D01*
X64603241Y-128721356D01*
X64829063Y-128647982D01*
X65040627Y-128540185D01*
X65232722Y-128400620D01*
X65400620Y-128232722D01*
X65540185Y-128040627D01*
X65637733Y-127849176D01*
X65686481Y-127797561D01*
X65755396Y-127780495D01*
X65822598Y-127803396D01*
X65862265Y-127849175D01*
X65959815Y-128040627D01*
X66099380Y-128232722D01*
X66099382Y-128232724D01*
X66099384Y-128232727D01*
X66267272Y-128400615D01*
X66267275Y-128400617D01*
X66267278Y-128400620D01*
X66459373Y-128540185D01*
X66670937Y-128647982D01*
X66896759Y-128721356D01*
X67131278Y-128758500D01*
X67131281Y-128758500D01*
X68368719Y-128758500D01*
X68368722Y-128758500D01*
X68603241Y-128721356D01*
X68829063Y-128647982D01*
X69040627Y-128540185D01*
X69232722Y-128400620D01*
X69400620Y-128232722D01*
X69540185Y-128040627D01*
X69647982Y-127829063D01*
X69721356Y-127603241D01*
X69758500Y-127368722D01*
X69758500Y-127131278D01*
X69755409Y-127111762D01*
X69764507Y-127041353D01*
X69810228Y-126987038D01*
X69878055Y-126966064D01*
X69946455Y-126985090D01*
X69992863Y-127036323D01*
X70039883Y-127131670D01*
X70204359Y-127377827D01*
X70204361Y-127377830D01*
X70204367Y-127377838D01*
X70399573Y-127600427D01*
X70622162Y-127795633D01*
X70622170Y-127795638D01*
X70622172Y-127795640D01*
X70696952Y-127845606D01*
X70868327Y-127960115D01*
X71133855Y-128091059D01*
X71414203Y-128186224D01*
X71704574Y-128243983D01*
X71873388Y-128255047D01*
X71999997Y-128263346D01*
X72000000Y-128263346D01*
X72000003Y-128263346D01*
X72110784Y-128256084D01*
X72295426Y-128243983D01*
X72585797Y-128186224D01*
X72866145Y-128091059D01*
X73131673Y-127960115D01*
X73377838Y-127795633D01*
X73600427Y-127600427D01*
X73795633Y-127377838D01*
X73960115Y-127131673D01*
X74091059Y-126866145D01*
X74186224Y-126585797D01*
X74243983Y-126295426D01*
X74261704Y-126025051D01*
X74263346Y-126000003D01*
X74263346Y-125999996D01*
X74254170Y-125860000D01*
X75126384Y-125860000D01*
X75128837Y-125881774D01*
X75130708Y-125898376D01*
X75131500Y-125912483D01*
X75131500Y-125939632D01*
X75134421Y-125954314D01*
X75139079Y-125977737D01*
X75141500Y-126002314D01*
X75141500Y-131177516D01*
X75140708Y-131191623D01*
X75136384Y-131229999D01*
X75140708Y-131268376D01*
X75141500Y-131282483D01*
X75141500Y-131309635D01*
X75149358Y-131349138D01*
X75150986Y-131359609D01*
X75156782Y-131411042D01*
X75156783Y-131411047D01*
X75165191Y-131435076D01*
X75169839Y-131452103D01*
X75172569Y-131465827D01*
X75172572Y-131465836D01*
X75193009Y-131515175D01*
X75195529Y-131521778D01*
X75216956Y-131583014D01*
X75223488Y-131593409D01*
X75233208Y-131612221D01*
X75233518Y-131612971D01*
X75270449Y-131668243D01*
X75272369Y-131671205D01*
X75313889Y-131737281D01*
X75313892Y-131737285D01*
X75442715Y-131866108D01*
X75442717Y-131866109D01*
X75442719Y-131866111D01*
X75508775Y-131907617D01*
X75511728Y-131909531D01*
X75528404Y-131920673D01*
X75567032Y-131946483D01*
X75567773Y-131946790D01*
X75586594Y-131956514D01*
X75596981Y-131963041D01*
X75596982Y-131963041D01*
X75596985Y-131963043D01*
X75658252Y-131984481D01*
X75664836Y-131986995D01*
X75689896Y-131997375D01*
X75714166Y-132007429D01*
X75714167Y-132007429D01*
X75714169Y-132007430D01*
X75727884Y-132010157D01*
X75744921Y-132014807D01*
X75768953Y-132023217D01*
X75820385Y-132029011D01*
X75830841Y-132030636D01*
X75870370Y-132038500D01*
X75897516Y-132038500D01*
X75911623Y-132039292D01*
X75950000Y-132043616D01*
X75988377Y-132039292D01*
X76002484Y-132038500D01*
X76029626Y-132038500D01*
X76029630Y-132038500D01*
X76069154Y-132030637D01*
X76079616Y-132029011D01*
X76131047Y-132023217D01*
X76155079Y-132014806D01*
X76172100Y-132010160D01*
X76185831Y-132007430D01*
X76235166Y-131986993D01*
X76241754Y-131984478D01*
X76303015Y-131963043D01*
X76312221Y-131957258D01*
X76313407Y-131956513D01*
X76332234Y-131946786D01*
X76332968Y-131946483D01*
X76388324Y-131909495D01*
X76391135Y-131907673D01*
X76457281Y-131866111D01*
X76586111Y-131737281D01*
X76627682Y-131671120D01*
X76629495Y-131668324D01*
X76666483Y-131612968D01*
X76666786Y-131612234D01*
X76676513Y-131593407D01*
X76683040Y-131583019D01*
X76683043Y-131583015D01*
X76704478Y-131521754D01*
X76706996Y-131515160D01*
X76716239Y-131492848D01*
X76727430Y-131465831D01*
X76730160Y-131452100D01*
X76734808Y-131435076D01*
X76743217Y-131411047D01*
X76749012Y-131359609D01*
X76750639Y-131349144D01*
X76758500Y-131309630D01*
X76758500Y-131282483D01*
X76759292Y-131268376D01*
X76759466Y-131266832D01*
X76763616Y-131230000D01*
X76759292Y-131191623D01*
X76758500Y-131177516D01*
X76758500Y-125819999D01*
X79026384Y-125819999D01*
X79030708Y-125858376D01*
X79031500Y-125872483D01*
X79031500Y-131947516D01*
X79030708Y-131961623D01*
X79028139Y-131984428D01*
X79026384Y-132000000D01*
X79027723Y-132011885D01*
X79030708Y-132038376D01*
X79031500Y-132052483D01*
X79031500Y-132079635D01*
X79039358Y-132119138D01*
X79040986Y-132129609D01*
X79046782Y-132181042D01*
X79046783Y-132181047D01*
X79055191Y-132205076D01*
X79059839Y-132222103D01*
X79062569Y-132235827D01*
X79062572Y-132235836D01*
X79083009Y-132285175D01*
X79085529Y-132291778D01*
X79106956Y-132353014D01*
X79113488Y-132363409D01*
X79123208Y-132382221D01*
X79123518Y-132382971D01*
X79160449Y-132438243D01*
X79162369Y-132441205D01*
X79203889Y-132507281D01*
X79203892Y-132507285D01*
X79332715Y-132636108D01*
X79332717Y-132636109D01*
X79332719Y-132636111D01*
X79398775Y-132677617D01*
X79401739Y-132679538D01*
X79457032Y-132716483D01*
X79457773Y-132716790D01*
X79476594Y-132726514D01*
X79486981Y-132733041D01*
X79486982Y-132733041D01*
X79486985Y-132733043D01*
X79548252Y-132754481D01*
X79554836Y-132756995D01*
X79579896Y-132767375D01*
X79604166Y-132777429D01*
X79604167Y-132777429D01*
X79604169Y-132777430D01*
X79617884Y-132780157D01*
X79634921Y-132784807D01*
X79658953Y-132793217D01*
X79710385Y-132799011D01*
X79720841Y-132800636D01*
X79760370Y-132808500D01*
X79787516Y-132808500D01*
X79801623Y-132809292D01*
X79840000Y-132813616D01*
X79878377Y-132809292D01*
X79892484Y-132808500D01*
X79919626Y-132808500D01*
X79919630Y-132808500D01*
X79959154Y-132800637D01*
X79969616Y-132799011D01*
X80021047Y-132793217D01*
X80045079Y-132784806D01*
X80062100Y-132780160D01*
X80075831Y-132777430D01*
X80125166Y-132756993D01*
X80131754Y-132754478D01*
X80193015Y-132733043D01*
X80200536Y-132728317D01*
X80203407Y-132726513D01*
X80222234Y-132716786D01*
X80222968Y-132716483D01*
X80278324Y-132679495D01*
X80281120Y-132677682D01*
X80347281Y-132636111D01*
X80476111Y-132507281D01*
X80517682Y-132441120D01*
X80519495Y-132438324D01*
X80556483Y-132382968D01*
X80556786Y-132382234D01*
X80566513Y-132363407D01*
X80573040Y-132353019D01*
X80573043Y-132353015D01*
X80594478Y-132291754D01*
X80596996Y-132285160D01*
X80603556Y-132269325D01*
X80617430Y-132235831D01*
X80620160Y-132222100D01*
X80624808Y-132205076D01*
X80633217Y-132181047D01*
X80639012Y-132129609D01*
X80640639Y-132119144D01*
X80648500Y-132079630D01*
X80648500Y-132052483D01*
X80649292Y-132038376D01*
X80649417Y-132037265D01*
X80653616Y-132000000D01*
X80649292Y-131961623D01*
X80648500Y-131947516D01*
X80648500Y-127549996D01*
X83038825Y-127549996D01*
X83038825Y-127550003D01*
X83059563Y-127720799D01*
X83111786Y-127858499D01*
X83120575Y-127881675D01*
X83218314Y-128023273D01*
X83347099Y-128137367D01*
X83347100Y-128137367D01*
X83347102Y-128137369D01*
X83379541Y-128154394D01*
X83499446Y-128217325D01*
X83499447Y-128217325D01*
X83499449Y-128217326D01*
X83623937Y-128248009D01*
X83666501Y-128258500D01*
X83666504Y-128258500D01*
X83838554Y-128258500D01*
X83838557Y-128258500D01*
X84005612Y-128217325D01*
X84096947Y-128169388D01*
X84166557Y-128155442D01*
X84232660Y-128181345D01*
X84274265Y-128238874D01*
X84281500Y-128280956D01*
X84281500Y-128997516D01*
X84280708Y-129011623D01*
X84276384Y-129049999D01*
X84280708Y-129088376D01*
X84281500Y-129102483D01*
X84281500Y-129129635D01*
X84289358Y-129169138D01*
X84290986Y-129179609D01*
X84296782Y-129231042D01*
X84296783Y-129231047D01*
X84305191Y-129255076D01*
X84309839Y-129272103D01*
X84312569Y-129285827D01*
X84312572Y-129285836D01*
X84333009Y-129335175D01*
X84335529Y-129341778D01*
X84356956Y-129403014D01*
X84363488Y-129413409D01*
X84373208Y-129432221D01*
X84373518Y-129432971D01*
X84410449Y-129488243D01*
X84412369Y-129491205D01*
X84453889Y-129557281D01*
X84453892Y-129557285D01*
X84582715Y-129686108D01*
X84582717Y-129686109D01*
X84582719Y-129686111D01*
X84648775Y-129727617D01*
X84651739Y-129729538D01*
X84707032Y-129766483D01*
X84707773Y-129766790D01*
X84726594Y-129776514D01*
X84736981Y-129783041D01*
X84736982Y-129783041D01*
X84736985Y-129783043D01*
X84798252Y-129804481D01*
X84804836Y-129806995D01*
X84829896Y-129817375D01*
X84854166Y-129827429D01*
X84854167Y-129827429D01*
X84854169Y-129827430D01*
X84867884Y-129830157D01*
X84884921Y-129834807D01*
X84908953Y-129843217D01*
X84960385Y-129849011D01*
X84970841Y-129850636D01*
X85010370Y-129858500D01*
X85037516Y-129858500D01*
X85051623Y-129859292D01*
X85090000Y-129863616D01*
X85128377Y-129859292D01*
X85142484Y-129858500D01*
X85169626Y-129858500D01*
X85169630Y-129858500D01*
X85209154Y-129850637D01*
X85219616Y-129849011D01*
X85271047Y-129843217D01*
X85295079Y-129834806D01*
X85312100Y-129830160D01*
X85325831Y-129827430D01*
X85375166Y-129806993D01*
X85381754Y-129804478D01*
X85443015Y-129783043D01*
X85453407Y-129776513D01*
X85472234Y-129766786D01*
X85472968Y-129766483D01*
X85528324Y-129729495D01*
X85531120Y-129727682D01*
X85597281Y-129686111D01*
X85726111Y-129557281D01*
X85767682Y-129491120D01*
X85769495Y-129488324D01*
X85806483Y-129432968D01*
X85806786Y-129432234D01*
X85816513Y-129413407D01*
X85823040Y-129403019D01*
X85823043Y-129403015D01*
X85844478Y-129341754D01*
X85846996Y-129335160D01*
X85867427Y-129285838D01*
X85867426Y-129285838D01*
X85867430Y-129285831D01*
X85870160Y-129272100D01*
X85874808Y-129255076D01*
X85883217Y-129231047D01*
X85889012Y-129179609D01*
X85890639Y-129169144D01*
X85898500Y-129129630D01*
X85898500Y-129102483D01*
X85899292Y-129088376D01*
X85901639Y-129067542D01*
X85903616Y-129050000D01*
X85899292Y-129011623D01*
X85898500Y-128997516D01*
X85898500Y-127286032D01*
X85918502Y-127217911D01*
X85972158Y-127171418D01*
X86042432Y-127161314D01*
X86107012Y-127190808D01*
X86113595Y-127196937D01*
X86343642Y-127426984D01*
X86377668Y-127489296D01*
X86380547Y-127516389D01*
X86371627Y-131146686D01*
X86370835Y-131160479D01*
X86366384Y-131199996D01*
X86366384Y-131200000D01*
X86370578Y-131237231D01*
X86371370Y-131251641D01*
X86371306Y-131277647D01*
X86379288Y-131318296D01*
X86380856Y-131328459D01*
X86386782Y-131381043D01*
X86386784Y-131381052D01*
X86394811Y-131403993D01*
X86399518Y-131421320D01*
X86401992Y-131433918D01*
X86422744Y-131484369D01*
X86425146Y-131490684D01*
X86446956Y-131553014D01*
X86452875Y-131562434D01*
X86461490Y-131579158D01*
X86462577Y-131581205D01*
X86500020Y-131637541D01*
X86501738Y-131640198D01*
X86543889Y-131707281D01*
X86607712Y-131771104D01*
X86655624Y-131819252D01*
X86665777Y-131829455D01*
X86668895Y-131832287D01*
X86672719Y-131836111D01*
X86737839Y-131877029D01*
X86741015Y-131879093D01*
X86783564Y-131907675D01*
X86795273Y-131915540D01*
X86797084Y-131916295D01*
X86815604Y-131925892D01*
X86826985Y-131933043D01*
X86862678Y-131945532D01*
X86887150Y-131954096D01*
X86894038Y-131956735D01*
X86930511Y-131971947D01*
X86942260Y-131976848D01*
X86957106Y-131979838D01*
X86973833Y-131984427D01*
X86998953Y-131993217D01*
X86998958Y-131993217D01*
X86998960Y-131993218D01*
X87014880Y-131995011D01*
X87049249Y-131998883D01*
X87060016Y-132000571D01*
X87073191Y-132003226D01*
X87098381Y-132008302D01*
X87100397Y-132008306D01*
X87126682Y-132008371D01*
X87140481Y-132009162D01*
X87180000Y-132013616D01*
X87180000Y-132013615D01*
X87180002Y-132013616D01*
X87180004Y-132013616D01*
X87212132Y-132009995D01*
X87217229Y-132009420D01*
X87231636Y-132008628D01*
X87257643Y-132008693D01*
X87298309Y-132000707D01*
X87308474Y-131999140D01*
X87310764Y-131998882D01*
X87361047Y-131993217D01*
X87384000Y-131985184D01*
X87401325Y-131980479D01*
X87413920Y-131978007D01*
X87464378Y-131957250D01*
X87470660Y-131954860D01*
X87533015Y-131933043D01*
X87542423Y-131927130D01*
X87558955Y-131918617D01*
X87561199Y-131917424D01*
X87561206Y-131917422D01*
X87617538Y-131879981D01*
X87620178Y-131878272D01*
X87687281Y-131836111D01*
X87751104Y-131772287D01*
X87806735Y-131716930D01*
X87806735Y-131716928D01*
X87809467Y-131714211D01*
X87812303Y-131711088D01*
X87816111Y-131707281D01*
X87857022Y-131642170D01*
X87859104Y-131638967D01*
X87895540Y-131584727D01*
X87896288Y-131582931D01*
X87905895Y-131564389D01*
X87913043Y-131553015D01*
X87934102Y-131492827D01*
X87936727Y-131485978D01*
X87956848Y-131437740D01*
X87959840Y-131422885D01*
X87964425Y-131406168D01*
X87973217Y-131381047D01*
X87978882Y-131330756D01*
X87980573Y-131319977D01*
X87988302Y-131281619D01*
X87988371Y-131253317D01*
X87989163Y-131239515D01*
X87993616Y-131200000D01*
X87993571Y-131199604D01*
X87989421Y-131162771D01*
X87988628Y-131148364D01*
X87997429Y-127566466D01*
X88017598Y-127498399D01*
X88071367Y-127452038D01*
X88078753Y-127448966D01*
X88083069Y-127447328D01*
X88083083Y-127447325D01*
X88235430Y-127367367D01*
X88364215Y-127253273D01*
X88461954Y-127111675D01*
X88522965Y-126950801D01*
X88536237Y-126841500D01*
X88543704Y-126780003D01*
X88543704Y-126779996D01*
X88524133Y-126618822D01*
X88522965Y-126609199D01*
X88461954Y-126448325D01*
X88461951Y-126448321D01*
X88461949Y-126448317D01*
X88460805Y-126446659D01*
X88460340Y-126445250D01*
X88458408Y-126441568D01*
X88459020Y-126441246D01*
X88438568Y-126379235D01*
X88438500Y-126375082D01*
X88438500Y-125279890D01*
X88438500Y-125279889D01*
X88397032Y-125125128D01*
X88374994Y-125086957D01*
X88371546Y-125080985D01*
X88316924Y-124986376D01*
X88316920Y-124986371D01*
X88293083Y-124962534D01*
X88264053Y-124933504D01*
X88235339Y-124889092D01*
X88181954Y-124748325D01*
X88084215Y-124606727D01*
X87955430Y-124492633D01*
X87955429Y-124492632D01*
X87955426Y-124492630D01*
X87803087Y-124412677D01*
X87803079Y-124412673D01*
X87636031Y-124371500D01*
X87636028Y-124371500D01*
X87463972Y-124371500D01*
X87463968Y-124371500D01*
X87296920Y-124412673D01*
X87296912Y-124412677D01*
X87158055Y-124485555D01*
X87088442Y-124499502D01*
X87022339Y-124473598D01*
X86980735Y-124416069D01*
X86973500Y-124373988D01*
X86973500Y-124057483D01*
X86974292Y-124043376D01*
X86974685Y-124039885D01*
X86978616Y-124005000D01*
X86974292Y-123966623D01*
X86973500Y-123952516D01*
X86973500Y-123925373D01*
X86973500Y-123925370D01*
X86965636Y-123885841D01*
X86964010Y-123875377D01*
X86962805Y-123864683D01*
X86958217Y-123823953D01*
X86949807Y-123799920D01*
X86945157Y-123782882D01*
X86944162Y-123777877D01*
X86942430Y-123769169D01*
X86941686Y-123767374D01*
X86921998Y-123719844D01*
X86919481Y-123713252D01*
X86898043Y-123651985D01*
X86898041Y-123651982D01*
X86898041Y-123651981D01*
X86891514Y-123641594D01*
X86881790Y-123622773D01*
X86881483Y-123622032D01*
X86878145Y-123617036D01*
X86844526Y-123566721D01*
X86842617Y-123563775D01*
X86840183Y-123559901D01*
X86801111Y-123497719D01*
X86801109Y-123497717D01*
X86801108Y-123497715D01*
X86672285Y-123368892D01*
X86672281Y-123368889D01*
X86606205Y-123327369D01*
X86603243Y-123325449D01*
X86547970Y-123288518D01*
X86547971Y-123288518D01*
X86547704Y-123288407D01*
X86547216Y-123288205D01*
X86528409Y-123278488D01*
X86518014Y-123271956D01*
X86456778Y-123250529D01*
X86450175Y-123248009D01*
X86400836Y-123227572D01*
X86400835Y-123227571D01*
X86400831Y-123227570D01*
X86400828Y-123227569D01*
X86400827Y-123227569D01*
X86387103Y-123224839D01*
X86370076Y-123220191D01*
X86346047Y-123211783D01*
X86346042Y-123211782D01*
X86294609Y-123205986D01*
X86284138Y-123204358D01*
X86244635Y-123196500D01*
X86244630Y-123196500D01*
X86217484Y-123196500D01*
X86203377Y-123195708D01*
X86165000Y-123191384D01*
X86126623Y-123195708D01*
X86112516Y-123196500D01*
X86085364Y-123196500D01*
X86045862Y-123204358D01*
X86035391Y-123205986D01*
X85983954Y-123211782D01*
X85983949Y-123211783D01*
X85959920Y-123220192D01*
X85942891Y-123224840D01*
X85929173Y-123227568D01*
X85929161Y-123227572D01*
X85879827Y-123248007D01*
X85873225Y-123250527D01*
X85811985Y-123271957D01*
X85811983Y-123271957D01*
X85811983Y-123271958D01*
X85801582Y-123278493D01*
X85782787Y-123288203D01*
X85782045Y-123288510D01*
X85782027Y-123288520D01*
X85726721Y-123325472D01*
X85723759Y-123327391D01*
X85657722Y-123368885D01*
X85657716Y-123368890D01*
X85528890Y-123497716D01*
X85528885Y-123497722D01*
X85487391Y-123563759D01*
X85485472Y-123566721D01*
X85448520Y-123622027D01*
X85448510Y-123622045D01*
X85448203Y-123622787D01*
X85438493Y-123641582D01*
X85431958Y-123651983D01*
X85431957Y-123651985D01*
X85425790Y-123669610D01*
X85410527Y-123713227D01*
X85408007Y-123719827D01*
X85387572Y-123769161D01*
X85387568Y-123769173D01*
X85384840Y-123782891D01*
X85380192Y-123799920D01*
X85371783Y-123823949D01*
X85371782Y-123823954D01*
X85365986Y-123875391D01*
X85364358Y-123885862D01*
X85356500Y-123925364D01*
X85356500Y-123952516D01*
X85355708Y-123966623D01*
X85351384Y-124004999D01*
X85355708Y-124043376D01*
X85356500Y-124057483D01*
X85356500Y-124956543D01*
X85336498Y-125024664D01*
X85282842Y-125071157D01*
X85216387Y-125081750D01*
X85209600Y-125080985D01*
X85199132Y-125079357D01*
X85159634Y-125071500D01*
X85159630Y-125071500D01*
X85132484Y-125071500D01*
X85118377Y-125070708D01*
X85080000Y-125066384D01*
X85041623Y-125070708D01*
X85027516Y-125071500D01*
X85000368Y-125071500D01*
X84960865Y-125079357D01*
X84950400Y-125080984D01*
X84898959Y-125086782D01*
X84898954Y-125086782D01*
X84898953Y-125086783D01*
X84898952Y-125086783D01*
X84898943Y-125086785D01*
X84874911Y-125095194D01*
X84857891Y-125099840D01*
X84844178Y-125102568D01*
X84844169Y-125102571D01*
X84794828Y-125123007D01*
X84788231Y-125125525D01*
X84726986Y-125146956D01*
X84716589Y-125153489D01*
X84697791Y-125163201D01*
X84697035Y-125163514D01*
X84641732Y-125200465D01*
X84638770Y-125202384D01*
X84572719Y-125243888D01*
X84572716Y-125243890D01*
X84443890Y-125372716D01*
X84443888Y-125372719D01*
X84402384Y-125438770D01*
X84400465Y-125441732D01*
X84363514Y-125497035D01*
X84363201Y-125497791D01*
X84353489Y-125516589D01*
X84346956Y-125526986D01*
X84325525Y-125588231D01*
X84323007Y-125594828D01*
X84302571Y-125644169D01*
X84302568Y-125644178D01*
X84299840Y-125657891D01*
X84295194Y-125674911D01*
X84286785Y-125698943D01*
X84286782Y-125698959D01*
X84280984Y-125750400D01*
X84279357Y-125760865D01*
X84271500Y-125800368D01*
X84271500Y-125827516D01*
X84270708Y-125841623D01*
X84266384Y-125879999D01*
X84270708Y-125918376D01*
X84271500Y-125932483D01*
X84271500Y-125959630D01*
X84279079Y-125997737D01*
X84281500Y-126022314D01*
X84281500Y-126819043D01*
X84261498Y-126887164D01*
X84207842Y-126933657D01*
X84137568Y-126943761D01*
X84096945Y-126930610D01*
X84005616Y-126882677D01*
X84005608Y-126882673D01*
X83838560Y-126841500D01*
X83838557Y-126841500D01*
X83666501Y-126841500D01*
X83666497Y-126841500D01*
X83499449Y-126882673D01*
X83499441Y-126882677D01*
X83347102Y-126962630D01*
X83347097Y-126962634D01*
X83218314Y-127076727D01*
X83120574Y-127218326D01*
X83059563Y-127379200D01*
X83038825Y-127549996D01*
X80648500Y-127549996D01*
X80648500Y-125872483D01*
X80649292Y-125858376D01*
X80649699Y-125854764D01*
X80653616Y-125820000D01*
X80649292Y-125781623D01*
X80648500Y-125767516D01*
X80648500Y-125740373D01*
X80648500Y-125740370D01*
X80640636Y-125700841D01*
X80639010Y-125690377D01*
X80636327Y-125666564D01*
X80633217Y-125638953D01*
X80624807Y-125614920D01*
X80620157Y-125597882D01*
X80618418Y-125589137D01*
X80617430Y-125584169D01*
X80615462Y-125579419D01*
X80607375Y-125559896D01*
X80596995Y-125534836D01*
X80594481Y-125528252D01*
X80573043Y-125466985D01*
X80573041Y-125466982D01*
X80573041Y-125466981D01*
X80566514Y-125456594D01*
X80556790Y-125437773D01*
X80556483Y-125437032D01*
X80537418Y-125408499D01*
X80519526Y-125381721D01*
X80517617Y-125378775D01*
X80513810Y-125372716D01*
X80476111Y-125312719D01*
X80476109Y-125312717D01*
X80476108Y-125312715D01*
X80347285Y-125183892D01*
X80347281Y-125183889D01*
X80281205Y-125142369D01*
X80278243Y-125140449D01*
X80222970Y-125103518D01*
X80222971Y-125103518D01*
X80222704Y-125103407D01*
X80222216Y-125103205D01*
X80203409Y-125093488D01*
X80193014Y-125086956D01*
X80131778Y-125065529D01*
X80125175Y-125063009D01*
X80075836Y-125042572D01*
X80075835Y-125042571D01*
X80075831Y-125042570D01*
X80075828Y-125042569D01*
X80075827Y-125042569D01*
X80062103Y-125039839D01*
X80045076Y-125035191D01*
X80021047Y-125026783D01*
X80021042Y-125026782D01*
X79969609Y-125020986D01*
X79959138Y-125019358D01*
X79919635Y-125011500D01*
X79919630Y-125011500D01*
X79892484Y-125011500D01*
X79878377Y-125010708D01*
X79840000Y-125006384D01*
X79801623Y-125010708D01*
X79787516Y-125011500D01*
X79760364Y-125011500D01*
X79720862Y-125019358D01*
X79710391Y-125020986D01*
X79658954Y-125026782D01*
X79658949Y-125026783D01*
X79634920Y-125035192D01*
X79617891Y-125039840D01*
X79604173Y-125042568D01*
X79604161Y-125042572D01*
X79554827Y-125063007D01*
X79548225Y-125065527D01*
X79486985Y-125086957D01*
X79486983Y-125086957D01*
X79486983Y-125086958D01*
X79476582Y-125093493D01*
X79457787Y-125103203D01*
X79457045Y-125103510D01*
X79457027Y-125103520D01*
X79401721Y-125140472D01*
X79398759Y-125142391D01*
X79332722Y-125183885D01*
X79332716Y-125183890D01*
X79203890Y-125312716D01*
X79203885Y-125312722D01*
X79162391Y-125378759D01*
X79160472Y-125381721D01*
X79123520Y-125437027D01*
X79123510Y-125437045D01*
X79123203Y-125437787D01*
X79113493Y-125456582D01*
X79106958Y-125466983D01*
X79106957Y-125466985D01*
X79098199Y-125492013D01*
X79085527Y-125528227D01*
X79083007Y-125534827D01*
X79062572Y-125584161D01*
X79062568Y-125584173D01*
X79059840Y-125597891D01*
X79055192Y-125614920D01*
X79046783Y-125638949D01*
X79046782Y-125638954D01*
X79040986Y-125690391D01*
X79039358Y-125700862D01*
X79031500Y-125740364D01*
X79031500Y-125767516D01*
X79030708Y-125781623D01*
X79026384Y-125819999D01*
X76758500Y-125819999D01*
X76758500Y-125790371D01*
X76758499Y-125790367D01*
X76756760Y-125781623D01*
X76727430Y-125634169D01*
X76692350Y-125549479D01*
X76666484Y-125487032D01*
X76578003Y-125354611D01*
X76455389Y-125231997D01*
X76447281Y-125223889D01*
X76447280Y-125223888D01*
X76381236Y-125182389D01*
X76378273Y-125180469D01*
X76322970Y-125143517D01*
X76322968Y-125143516D01*
X76322963Y-125143514D01*
X76322217Y-125143205D01*
X76303405Y-125133486D01*
X76293015Y-125126957D01*
X76293013Y-125126956D01*
X76293011Y-125126955D01*
X76231759Y-125105522D01*
X76225160Y-125103003D01*
X76175831Y-125082571D01*
X76175826Y-125082569D01*
X76162109Y-125079841D01*
X76145080Y-125075192D01*
X76121047Y-125066783D01*
X76121044Y-125066782D01*
X76069602Y-125060985D01*
X76059132Y-125059357D01*
X76019634Y-125051500D01*
X76019630Y-125051500D01*
X75992484Y-125051500D01*
X75978377Y-125050708D01*
X75940000Y-125046384D01*
X75901623Y-125050708D01*
X75887516Y-125051500D01*
X75860368Y-125051500D01*
X75820865Y-125059357D01*
X75810400Y-125060984D01*
X75758959Y-125066782D01*
X75758954Y-125066782D01*
X75758953Y-125066783D01*
X75758952Y-125066783D01*
X75758943Y-125066785D01*
X75734911Y-125075194D01*
X75717891Y-125079840D01*
X75704178Y-125082568D01*
X75704169Y-125082571D01*
X75654828Y-125103007D01*
X75648231Y-125105525D01*
X75586986Y-125126956D01*
X75576589Y-125133489D01*
X75557791Y-125143201D01*
X75557035Y-125143514D01*
X75501732Y-125180465D01*
X75498770Y-125182384D01*
X75432719Y-125223888D01*
X75432716Y-125223890D01*
X75303890Y-125352716D01*
X75303888Y-125352719D01*
X75262384Y-125418770D01*
X75260465Y-125421732D01*
X75223514Y-125477035D01*
X75223201Y-125477791D01*
X75213489Y-125496589D01*
X75206956Y-125506986D01*
X75185525Y-125568231D01*
X75183007Y-125574828D01*
X75162571Y-125624169D01*
X75162568Y-125624178D01*
X75159840Y-125637891D01*
X75155194Y-125654911D01*
X75146785Y-125678943D01*
X75146782Y-125678959D01*
X75140984Y-125730400D01*
X75139357Y-125740865D01*
X75131500Y-125780368D01*
X75131500Y-125807516D01*
X75130708Y-125821623D01*
X75127375Y-125851209D01*
X75126384Y-125860000D01*
X74254170Y-125860000D01*
X74251194Y-125814594D01*
X74243983Y-125704574D01*
X74186224Y-125414203D01*
X74091059Y-125133855D01*
X73960115Y-124868327D01*
X73795633Y-124622162D01*
X73600427Y-124399573D01*
X73463751Y-124279711D01*
X73425725Y-124219758D01*
X73426147Y-124148763D01*
X73464886Y-124089266D01*
X73529641Y-124060158D01*
X73546830Y-124058980D01*
X76648398Y-124058980D01*
X76716519Y-124078982D01*
X76737493Y-124095885D01*
X77083908Y-124442300D01*
X77114646Y-124492458D01*
X77135472Y-124556554D01*
X77135476Y-124556561D01*
X77230958Y-124721941D01*
X77230965Y-124721951D01*
X77358744Y-124863864D01*
X77419999Y-124908368D01*
X77513248Y-124976118D01*
X77687712Y-125053794D01*
X77874513Y-125093500D01*
X78065487Y-125093500D01*
X78252288Y-125053794D01*
X78426752Y-124976118D01*
X78581253Y-124863866D01*
X78596003Y-124847485D01*
X78709034Y-124721951D01*
X78709035Y-124721949D01*
X78709040Y-124721944D01*
X78804527Y-124556556D01*
X78863542Y-124374928D01*
X78883504Y-124185000D01*
X78863542Y-123995072D01*
X78804527Y-123813444D01*
X78709040Y-123648056D01*
X78709038Y-123648054D01*
X78709034Y-123648048D01*
X78581255Y-123506135D01*
X78426752Y-123393882D01*
X78377597Y-123371997D01*
X78259757Y-123319531D01*
X78221912Y-123293520D01*
X77550871Y-122622479D01*
X77550869Y-122622477D01*
X77418448Y-122533996D01*
X77332083Y-122498223D01*
X77332080Y-122498221D01*
X77271317Y-122473052D01*
X77271314Y-122473051D01*
X77271311Y-122473050D01*
X77193210Y-122457515D01*
X77115112Y-122441980D01*
X77115110Y-122441980D01*
X65335383Y-122441980D01*
X65335363Y-122441979D01*
X65329150Y-122441979D01*
X65169890Y-122441979D01*
X65169889Y-122441979D01*
X65039605Y-122467894D01*
X65039605Y-122467895D01*
X65026647Y-122470472D01*
X65013688Y-122473050D01*
X65013684Y-122473051D01*
X64973578Y-122489663D01*
X64973579Y-122489664D01*
X64866552Y-122533996D01*
X64734135Y-122622474D01*
X64734128Y-122622479D01*
X64152013Y-123204595D01*
X64089701Y-123238621D01*
X64062918Y-123241500D01*
X63131278Y-123241500D01*
X62896759Y-123278644D01*
X62896753Y-123278645D01*
X62670941Y-123352016D01*
X62670935Y-123352019D01*
X62459369Y-123459817D01*
X62267275Y-123599382D01*
X62267272Y-123599384D01*
X62099384Y-123767272D01*
X62099382Y-123767275D01*
X61959817Y-123959369D01*
X61958669Y-123961623D01*
X61863317Y-124148763D01*
X61862267Y-124150823D01*
X61813519Y-124202438D01*
X61744604Y-124219504D01*
X61677402Y-124196603D01*
X61637733Y-124150823D01*
X61540185Y-123959373D01*
X61400620Y-123767278D01*
X61400617Y-123767275D01*
X61400615Y-123767272D01*
X61232727Y-123599384D01*
X61232724Y-123599382D01*
X61232722Y-123599380D01*
X61040627Y-123459815D01*
X60829063Y-123352018D01*
X60829060Y-123352017D01*
X60829058Y-123352016D01*
X60603246Y-123278645D01*
X60603242Y-123278644D01*
X60603241Y-123278644D01*
X60368722Y-123241500D01*
X59131278Y-123241500D01*
X58896759Y-123278644D01*
X58896753Y-123278645D01*
X58670941Y-123352016D01*
X58670935Y-123352019D01*
X58459369Y-123459817D01*
X58267275Y-123599382D01*
X58267272Y-123599384D01*
X58099384Y-123767272D01*
X58099382Y-123767275D01*
X57959817Y-123959369D01*
X57852019Y-124170935D01*
X57852016Y-124170941D01*
X57778645Y-124396753D01*
X57778644Y-124396758D01*
X57778644Y-124396759D01*
X57742943Y-124622172D01*
X57741500Y-124631281D01*
X57741500Y-124868721D01*
X57744591Y-124888239D01*
X57735491Y-124958650D01*
X57689768Y-125012963D01*
X57621939Y-125033935D01*
X57553540Y-125014907D01*
X57507136Y-124963676D01*
X57460116Y-124868329D01*
X57452109Y-124856346D01*
X57295633Y-124622162D01*
X57100427Y-124399573D01*
X56877838Y-124204367D01*
X56877830Y-124204361D01*
X56877827Y-124204359D01*
X56631670Y-124039883D01*
X56366151Y-123908944D01*
X56366145Y-123908941D01*
X56366140Y-123908939D01*
X56366137Y-123908938D01*
X56085805Y-123813778D01*
X56085799Y-123813776D01*
X56085797Y-123813776D01*
X55974161Y-123791570D01*
X55795435Y-123756018D01*
X55795421Y-123756016D01*
X55500003Y-123736654D01*
X55499997Y-123736654D01*
X55204578Y-123756016D01*
X55204564Y-123756018D01*
X54962818Y-123804105D01*
X54914203Y-123813776D01*
X54914201Y-123813776D01*
X54914194Y-123813778D01*
X54633862Y-123908938D01*
X54633848Y-123908944D01*
X54368329Y-124039883D01*
X54122172Y-124204359D01*
X54122165Y-124204364D01*
X54122162Y-124204367D01*
X53899573Y-124399573D01*
X53704367Y-124622162D01*
X53704364Y-124622165D01*
X53704359Y-124622172D01*
X53539883Y-124868329D01*
X53408944Y-125133848D01*
X53408938Y-125133862D01*
X53313778Y-125414194D01*
X53313776Y-125414201D01*
X53313776Y-125414203D01*
X53309088Y-125437773D01*
X53256018Y-125704564D01*
X53256016Y-125704578D01*
X53236654Y-125999996D01*
X40039948Y-125999996D01*
X40044971Y-123051350D01*
X42011500Y-123051350D01*
X42011500Y-124948649D01*
X42018009Y-125009196D01*
X42018011Y-125009204D01*
X42069110Y-125146202D01*
X42069112Y-125146207D01*
X42156738Y-125263261D01*
X42273792Y-125350887D01*
X42273794Y-125350888D01*
X42273796Y-125350889D01*
X42325243Y-125370078D01*
X42410795Y-125401988D01*
X42410803Y-125401990D01*
X42471350Y-125408499D01*
X42471355Y-125408499D01*
X42471362Y-125408500D01*
X42471368Y-125408500D01*
X44368632Y-125408500D01*
X44368638Y-125408500D01*
X44368645Y-125408499D01*
X44368649Y-125408499D01*
X44429196Y-125401990D01*
X44429199Y-125401989D01*
X44429201Y-125401989D01*
X44566204Y-125350889D01*
X44617199Y-125312715D01*
X44683261Y-125263261D01*
X44764401Y-125154871D01*
X44770889Y-125146204D01*
X44794258Y-125083547D01*
X44836804Y-125026715D01*
X44903325Y-125001904D01*
X44972699Y-125016996D01*
X44998294Y-125036996D01*
X44998946Y-125036289D01*
X45002778Y-125039817D01*
X45056155Y-125081362D01*
X45186983Y-125183190D01*
X45392273Y-125294287D01*
X45613049Y-125370080D01*
X45843288Y-125408500D01*
X45843292Y-125408500D01*
X46076708Y-125408500D01*
X46076712Y-125408500D01*
X46306951Y-125370080D01*
X46527727Y-125294287D01*
X46733017Y-125183190D01*
X46917220Y-125039818D01*
X46918687Y-125038225D01*
X46932775Y-125022921D01*
X46993627Y-124986348D01*
X47064591Y-124988481D01*
X47123138Y-125028641D01*
X47143533Y-125064223D01*
X47174110Y-125146202D01*
X47174112Y-125146207D01*
X47261738Y-125263261D01*
X47378792Y-125350887D01*
X47378794Y-125350888D01*
X47378796Y-125350889D01*
X47430243Y-125370078D01*
X47515795Y-125401988D01*
X47515803Y-125401990D01*
X47576350Y-125408499D01*
X47576355Y-125408499D01*
X47576362Y-125408500D01*
X47576368Y-125408500D01*
X49473632Y-125408500D01*
X49473638Y-125408500D01*
X49473645Y-125408499D01*
X49473649Y-125408499D01*
X49534196Y-125401990D01*
X49534199Y-125401989D01*
X49534201Y-125401989D01*
X49671204Y-125350889D01*
X49722199Y-125312715D01*
X49788261Y-125263261D01*
X49869401Y-125154871D01*
X49875889Y-125146204D01*
X49899258Y-125083547D01*
X49941804Y-125026715D01*
X50008325Y-125001904D01*
X50077699Y-125016996D01*
X50103294Y-125036996D01*
X50103946Y-125036289D01*
X50107778Y-125039817D01*
X50161155Y-125081362D01*
X50291983Y-125183190D01*
X50497273Y-125294287D01*
X50718049Y-125370080D01*
X50948288Y-125408500D01*
X50948292Y-125408500D01*
X51181708Y-125408500D01*
X51181712Y-125408500D01*
X51411951Y-125370080D01*
X51632727Y-125294287D01*
X51838017Y-125183190D01*
X52022220Y-125039818D01*
X52023687Y-125038225D01*
X52180314Y-124868083D01*
X52193774Y-124847481D01*
X52307984Y-124672669D01*
X52401749Y-124458907D01*
X52459051Y-124232626D01*
X52478327Y-124000000D01*
X52459051Y-123767374D01*
X52447015Y-123719844D01*
X52401750Y-123541096D01*
X52401747Y-123541089D01*
X52391350Y-123517387D01*
X52307984Y-123327331D01*
X52282424Y-123288208D01*
X52180314Y-123131916D01*
X52022225Y-122960186D01*
X52022221Y-122960182D01*
X51878849Y-122848591D01*
X51838017Y-122816810D01*
X51739529Y-122763511D01*
X51689140Y-122713498D01*
X51673500Y-122652698D01*
X51673500Y-122081917D01*
X51693502Y-122013796D01*
X51695807Y-122010337D01*
X51696953Y-122008676D01*
X51696952Y-122008676D01*
X51696954Y-122008675D01*
X51757965Y-121847801D01*
X51768483Y-121761177D01*
X51778704Y-121677003D01*
X51778704Y-121676996D01*
X51757965Y-121506200D01*
X51696954Y-121345326D01*
X51696954Y-121345325D01*
X51599215Y-121203727D01*
X51470430Y-121089633D01*
X51470429Y-121089632D01*
X51470426Y-121089630D01*
X51318087Y-121009677D01*
X51318079Y-121009673D01*
X51151031Y-120968500D01*
X51151028Y-120968500D01*
X50978972Y-120968500D01*
X50978968Y-120968500D01*
X50811920Y-121009673D01*
X50811912Y-121009677D01*
X50659573Y-121089630D01*
X50659568Y-121089634D01*
X50530785Y-121203727D01*
X50433045Y-121345326D01*
X50372034Y-121506200D01*
X50351296Y-121676996D01*
X50351296Y-121677003D01*
X50372034Y-121847799D01*
X50433046Y-122008676D01*
X50434193Y-122010337D01*
X50434658Y-122011748D01*
X50436589Y-122015427D01*
X50435977Y-122015747D01*
X50456431Y-122077760D01*
X50456500Y-122081917D01*
X50456500Y-122652698D01*
X50436498Y-122720819D01*
X50390471Y-122763511D01*
X50308439Y-122807904D01*
X50291981Y-122816811D01*
X50107778Y-122960182D01*
X50103946Y-122963711D01*
X50102581Y-122962228D01*
X50049129Y-122994333D01*
X49978165Y-122992180D01*
X49919630Y-122952003D01*
X49899258Y-122916449D01*
X49875889Y-122853797D01*
X49875887Y-122853792D01*
X49788261Y-122736738D01*
X49671207Y-122649112D01*
X49671202Y-122649110D01*
X49534204Y-122598011D01*
X49534196Y-122598009D01*
X49473649Y-122591500D01*
X49473638Y-122591500D01*
X47576362Y-122591500D01*
X47576350Y-122591500D01*
X47515803Y-122598009D01*
X47515795Y-122598011D01*
X47378797Y-122649110D01*
X47378792Y-122649112D01*
X47261738Y-122736738D01*
X47174112Y-122853792D01*
X47174111Y-122853795D01*
X47143533Y-122935777D01*
X47100986Y-122992612D01*
X47034466Y-123017422D01*
X46965092Y-123002330D01*
X46932777Y-122977080D01*
X46917225Y-122960186D01*
X46917221Y-122960182D01*
X46825118Y-122888496D01*
X46733017Y-122816810D01*
X46527727Y-122705713D01*
X46527724Y-122705712D01*
X46527723Y-122705711D01*
X46306955Y-122629921D01*
X46306948Y-122629919D01*
X46208411Y-122613476D01*
X46076712Y-122591500D01*
X45843288Y-122591500D01*
X45728066Y-122610727D01*
X45613051Y-122629919D01*
X45613044Y-122629921D01*
X45392276Y-122705711D01*
X45392273Y-122705713D01*
X45285470Y-122763512D01*
X45186985Y-122816809D01*
X45186983Y-122816810D01*
X45002778Y-122960182D01*
X44998946Y-122963711D01*
X44997581Y-122962228D01*
X44944129Y-122994333D01*
X44873165Y-122992180D01*
X44814630Y-122952003D01*
X44794258Y-122916449D01*
X44770889Y-122853797D01*
X44770887Y-122853792D01*
X44683261Y-122736738D01*
X44566207Y-122649112D01*
X44566202Y-122649110D01*
X44429204Y-122598011D01*
X44429196Y-122598009D01*
X44368649Y-122591500D01*
X44368638Y-122591500D01*
X42471362Y-122591500D01*
X42471350Y-122591500D01*
X42410803Y-122598009D01*
X42410795Y-122598011D01*
X42273797Y-122649110D01*
X42273792Y-122649112D01*
X42156738Y-122736738D01*
X42069112Y-122853792D01*
X42069110Y-122853797D01*
X42018011Y-122990795D01*
X42018009Y-122990803D01*
X42011500Y-123051350D01*
X40044971Y-123051350D01*
X40049785Y-120225725D01*
X40069903Y-120157642D01*
X40123638Y-120111240D01*
X40175725Y-120099943D01*
X105978503Y-120070382D01*
X106046632Y-120090353D01*
X106093149Y-120143988D01*
X106103285Y-120214258D01*
X106073821Y-120278852D01*
X106037117Y-120307948D01*
X106020571Y-120316632D01*
X106020568Y-120316634D01*
X105891785Y-120430727D01*
X105794045Y-120572326D01*
X105733034Y-120733200D01*
X105712296Y-120903996D01*
X105712296Y-120904003D01*
X105733034Y-121074799D01*
X105794046Y-121235676D01*
X105795193Y-121237337D01*
X105795658Y-121238748D01*
X105797589Y-121242427D01*
X105796977Y-121242747D01*
X105817431Y-121304760D01*
X105817500Y-121308917D01*
X105817500Y-124817082D01*
X105797498Y-124885203D01*
X105795195Y-124888659D01*
X105794050Y-124890317D01*
X105794046Y-124890324D01*
X105733034Y-125051200D01*
X105712296Y-125221996D01*
X105712296Y-125222003D01*
X105733034Y-125392799D01*
X105793894Y-125553273D01*
X105794046Y-125553675D01*
X105891785Y-125695273D01*
X106020570Y-125809367D01*
X106020571Y-125809367D01*
X106020573Y-125809369D01*
X106088823Y-125845189D01*
X106172917Y-125889325D01*
X106172918Y-125889325D01*
X106172920Y-125889326D01*
X106319301Y-125925405D01*
X106339972Y-125930500D01*
X106339975Y-125930500D01*
X106512025Y-125930500D01*
X106512028Y-125930500D01*
X106679083Y-125889325D01*
X106702946Y-125876800D01*
X106772556Y-125862854D01*
X106838659Y-125888756D01*
X106880264Y-125946285D01*
X106887500Y-125988368D01*
X106887500Y-128256917D01*
X106867498Y-128325038D01*
X106850595Y-128346012D01*
X105386305Y-129810301D01*
X105323993Y-129844327D01*
X105276477Y-129845489D01*
X105268451Y-129844150D01*
X105252569Y-129841500D01*
X105027431Y-129841500D01*
X104879211Y-129866233D01*
X104805369Y-129878555D01*
X104805360Y-129878557D01*
X104592428Y-129951656D01*
X104592426Y-129951658D01*
X104394735Y-130058643D01*
X104394426Y-130058810D01*
X104394424Y-130058811D01*
X104216762Y-130197091D01*
X104064279Y-130362729D01*
X103975483Y-130498643D01*
X103921479Y-130544731D01*
X103851131Y-130554306D01*
X103786774Y-130524329D01*
X103764517Y-130498643D01*
X103675720Y-130362729D01*
X103559570Y-130236559D01*
X103523240Y-130197094D01*
X103523239Y-130197093D01*
X103523237Y-130197091D01*
X103409942Y-130108910D01*
X103345576Y-130058811D01*
X103147574Y-129951658D01*
X103147572Y-129951657D01*
X103147571Y-129951656D01*
X102934639Y-129878557D01*
X102934630Y-129878555D01*
X102890476Y-129871187D01*
X102712569Y-129841500D01*
X102487431Y-129841500D01*
X102339211Y-129866233D01*
X102265369Y-129878555D01*
X102265360Y-129878557D01*
X102052428Y-129951656D01*
X102052426Y-129951658D01*
X101854735Y-130058643D01*
X101854426Y-130058810D01*
X101854424Y-130058811D01*
X101676762Y-130197091D01*
X101524279Y-130362729D01*
X101435483Y-130498643D01*
X101381479Y-130544731D01*
X101311131Y-130554306D01*
X101246774Y-130524329D01*
X101224517Y-130498643D01*
X101135720Y-130362729D01*
X101019570Y-130236559D01*
X100983240Y-130197094D01*
X100983239Y-130197093D01*
X100983237Y-130197091D01*
X100869942Y-130108910D01*
X100805576Y-130058811D01*
X100607574Y-129951658D01*
X100607572Y-129951657D01*
X100607571Y-129951656D01*
X100394639Y-129878557D01*
X100394630Y-129878555D01*
X100350476Y-129871187D01*
X100172569Y-129841500D01*
X99947431Y-129841500D01*
X99799211Y-129866233D01*
X99725369Y-129878555D01*
X99725360Y-129878557D01*
X99512428Y-129951656D01*
X99512426Y-129951658D01*
X99314735Y-130058643D01*
X99314426Y-130058810D01*
X99314424Y-130058811D01*
X99136762Y-130197091D01*
X98984279Y-130362729D01*
X98895483Y-130498643D01*
X98841479Y-130544731D01*
X98771131Y-130554306D01*
X98706774Y-130524329D01*
X98684517Y-130498643D01*
X98595720Y-130362729D01*
X98479570Y-130236559D01*
X98443240Y-130197094D01*
X98443239Y-130197093D01*
X98443237Y-130197091D01*
X98329942Y-130108910D01*
X98265576Y-130058811D01*
X98067574Y-129951658D01*
X98067572Y-129951657D01*
X98067571Y-129951656D01*
X97854639Y-129878557D01*
X97854630Y-129878555D01*
X97810476Y-129871187D01*
X97632569Y-129841500D01*
X97407431Y-129841500D01*
X97259211Y-129866233D01*
X97185369Y-129878555D01*
X97185360Y-129878557D01*
X96972428Y-129951656D01*
X96972426Y-129951658D01*
X96774735Y-130058643D01*
X96774426Y-130058810D01*
X96774424Y-130058811D01*
X96596762Y-130197091D01*
X96444279Y-130362729D01*
X96355483Y-130498643D01*
X96301479Y-130544731D01*
X96231131Y-130554306D01*
X96166774Y-130524329D01*
X96144517Y-130498643D01*
X96055720Y-130362729D01*
X95939570Y-130236559D01*
X95903240Y-130197094D01*
X95903239Y-130197093D01*
X95903237Y-130197091D01*
X95789942Y-130108910D01*
X95725576Y-130058811D01*
X95527574Y-129951658D01*
X95527572Y-129951657D01*
X95527571Y-129951656D01*
X95314639Y-129878557D01*
X95314630Y-129878555D01*
X95270476Y-129871187D01*
X95092569Y-129841500D01*
X94867431Y-129841500D01*
X94719211Y-129866233D01*
X94645369Y-129878555D01*
X94645360Y-129878557D01*
X94432428Y-129951656D01*
X94432426Y-129951658D01*
X94234735Y-130058643D01*
X94234426Y-130058810D01*
X94234424Y-130058811D01*
X94056762Y-130197091D01*
X93904279Y-130362729D01*
X93815483Y-130498643D01*
X93761479Y-130544731D01*
X93691131Y-130554306D01*
X93626774Y-130524329D01*
X93604517Y-130498643D01*
X93515720Y-130362729D01*
X93363246Y-130197100D01*
X93363243Y-130197098D01*
X93363240Y-130197094D01*
X93313107Y-130158073D01*
X93271637Y-130100448D01*
X93264500Y-130058643D01*
X93264500Y-129590397D01*
X93281381Y-129527397D01*
X93281564Y-129527078D01*
X93290527Y-129511556D01*
X93349542Y-129329928D01*
X93369504Y-129140000D01*
X93349542Y-128950072D01*
X93290527Y-128768444D01*
X93195040Y-128603056D01*
X93195038Y-128603054D01*
X93195034Y-128603048D01*
X93067255Y-128461135D01*
X92912752Y-128348882D01*
X92738288Y-128271206D01*
X92551487Y-128231500D01*
X92360513Y-128231500D01*
X92173709Y-128271206D01*
X92075748Y-128314821D01*
X92005381Y-128324255D01*
X91941084Y-128294148D01*
X91903271Y-128234059D01*
X91898500Y-128199714D01*
X91898500Y-124142312D01*
X91900921Y-124117731D01*
X91901767Y-124113473D01*
X91908500Y-124079630D01*
X91908500Y-124052483D01*
X91909292Y-124038376D01*
X91910706Y-124025826D01*
X91913616Y-124000000D01*
X91909292Y-123961623D01*
X91909201Y-123960000D01*
X92346844Y-123960000D01*
X92364323Y-124170941D01*
X92365437Y-124184375D01*
X92420702Y-124402612D01*
X92420703Y-124402613D01*
X92420704Y-124402616D01*
X92473461Y-124522891D01*
X92511141Y-124608793D01*
X92634275Y-124797265D01*
X92634279Y-124797270D01*
X92695586Y-124863866D01*
X92786760Y-124962906D01*
X92852892Y-125014379D01*
X92894362Y-125072002D01*
X92901500Y-125113809D01*
X92901500Y-125346190D01*
X92881498Y-125414311D01*
X92852893Y-125445619D01*
X92793288Y-125492013D01*
X92786760Y-125497094D01*
X92634279Y-125662729D01*
X92634275Y-125662734D01*
X92511141Y-125851206D01*
X92420703Y-126057386D01*
X92420702Y-126057387D01*
X92365437Y-126275624D01*
X92365436Y-126275630D01*
X92365436Y-126275632D01*
X92346844Y-126500000D01*
X92364646Y-126714840D01*
X92365437Y-126724375D01*
X92420702Y-126942612D01*
X92420703Y-126942613D01*
X92420704Y-126942616D01*
X92508153Y-127141981D01*
X92511141Y-127148793D01*
X92634275Y-127337265D01*
X92634279Y-127337270D01*
X92786762Y-127502908D01*
X92825907Y-127533376D01*
X92964424Y-127641189D01*
X93162426Y-127748342D01*
X93162427Y-127748342D01*
X93162428Y-127748343D01*
X93271966Y-127785947D01*
X93375365Y-127821444D01*
X93597431Y-127858500D01*
X93597435Y-127858500D01*
X93822565Y-127858500D01*
X93822569Y-127858500D01*
X94044635Y-127821444D01*
X94257574Y-127748342D01*
X94455576Y-127641189D01*
X94633240Y-127502906D01*
X94785722Y-127337268D01*
X94785927Y-127336955D01*
X94822111Y-127281570D01*
X94874816Y-127200898D01*
X94928819Y-127154810D01*
X94999167Y-127145235D01*
X95063524Y-127175212D01*
X95085782Y-127200898D01*
X95174674Y-127336958D01*
X95327097Y-127502534D01*
X95504698Y-127640767D01*
X95504699Y-127640768D01*
X95702628Y-127747882D01*
X95702630Y-127747883D01*
X95915483Y-127820955D01*
X95915492Y-127820957D01*
X95996000Y-127834391D01*
X95996000Y-126930702D01*
X96057007Y-126965925D01*
X96184174Y-127000000D01*
X96315826Y-127000000D01*
X96442993Y-126965925D01*
X96504000Y-126930702D01*
X96504000Y-127834390D01*
X96584507Y-127820957D01*
X96584516Y-127820955D01*
X96797369Y-127747883D01*
X96797371Y-127747882D01*
X96995300Y-127640768D01*
X96995301Y-127640767D01*
X97172902Y-127502534D01*
X97325327Y-127336955D01*
X97414517Y-127200441D01*
X97468521Y-127154352D01*
X97538868Y-127144777D01*
X97603226Y-127174754D01*
X97625483Y-127200441D01*
X97714672Y-127336955D01*
X97867097Y-127502534D01*
X98044698Y-127640767D01*
X98044699Y-127640768D01*
X98242628Y-127747882D01*
X98242630Y-127747883D01*
X98455483Y-127820955D01*
X98455492Y-127820957D01*
X98536000Y-127834391D01*
X98536000Y-126930702D01*
X98597007Y-126965925D01*
X98724174Y-127000000D01*
X98855826Y-127000000D01*
X98982993Y-126965925D01*
X99044000Y-126930702D01*
X99044000Y-127834390D01*
X99124507Y-127820957D01*
X99124516Y-127820955D01*
X99337369Y-127747883D01*
X99337371Y-127747882D01*
X99535300Y-127640768D01*
X99535301Y-127640767D01*
X99712902Y-127502534D01*
X99865327Y-127336955D01*
X99954517Y-127200441D01*
X100008521Y-127154352D01*
X100078868Y-127144777D01*
X100143226Y-127174754D01*
X100165483Y-127200441D01*
X100254672Y-127336955D01*
X100407097Y-127502534D01*
X100584698Y-127640767D01*
X100584699Y-127640768D01*
X100782628Y-127747882D01*
X100782630Y-127747883D01*
X100995483Y-127820955D01*
X100995492Y-127820957D01*
X101076000Y-127834391D01*
X101076000Y-126930702D01*
X101137007Y-126965925D01*
X101264174Y-127000000D01*
X101395826Y-127000000D01*
X101522993Y-126965925D01*
X101584000Y-126930702D01*
X101584000Y-127834390D01*
X101664507Y-127820957D01*
X101664516Y-127820955D01*
X101877369Y-127747883D01*
X101877371Y-127747882D01*
X102075300Y-127640768D01*
X102075301Y-127640767D01*
X102252905Y-127502532D01*
X102314047Y-127436113D01*
X102374899Y-127399541D01*
X102445863Y-127401674D01*
X102504409Y-127441835D01*
X102524804Y-127477415D01*
X102569111Y-127596204D01*
X102569112Y-127596207D01*
X102656738Y-127713261D01*
X102773792Y-127800887D01*
X102773794Y-127800888D01*
X102773796Y-127800889D01*
X102827600Y-127820957D01*
X102910795Y-127851988D01*
X102910803Y-127851990D01*
X102971350Y-127858499D01*
X102971355Y-127858499D01*
X102971362Y-127858500D01*
X102971368Y-127858500D01*
X104768632Y-127858500D01*
X104768638Y-127858500D01*
X104768645Y-127858499D01*
X104768649Y-127858499D01*
X104829196Y-127851990D01*
X104829199Y-127851989D01*
X104829201Y-127851989D01*
X104966204Y-127800889D01*
X105036399Y-127748342D01*
X105083261Y-127713261D01*
X105170887Y-127596207D01*
X105170887Y-127596206D01*
X105170889Y-127596204D01*
X105215195Y-127477415D01*
X105221988Y-127459204D01*
X105221990Y-127459196D01*
X105228499Y-127398649D01*
X105228500Y-127398632D01*
X105228500Y-125601367D01*
X105228499Y-125601350D01*
X105221990Y-125540803D01*
X105221988Y-125540795D01*
X105186489Y-125445621D01*
X105170889Y-125403796D01*
X105170888Y-125403794D01*
X105170887Y-125403792D01*
X105083261Y-125286738D01*
X104966207Y-125199112D01*
X104966203Y-125199110D01*
X104851192Y-125156213D01*
X104794356Y-125113667D01*
X104769546Y-125047146D01*
X104784638Y-124977772D01*
X104802525Y-124952820D01*
X104945714Y-124797277D01*
X104945724Y-124797265D01*
X104952441Y-124786983D01*
X105068860Y-124608791D01*
X105159296Y-124402616D01*
X105214564Y-124184368D01*
X105233156Y-123960000D01*
X105214564Y-123735632D01*
X105197845Y-123669610D01*
X105159297Y-123517387D01*
X105159296Y-123517386D01*
X105159296Y-123517384D01*
X105068860Y-123311209D01*
X105053833Y-123288208D01*
X104945724Y-123122734D01*
X104945720Y-123122729D01*
X104824264Y-122990795D01*
X104793240Y-122957094D01*
X104793239Y-122957093D01*
X104793237Y-122957091D01*
X104711382Y-122893381D01*
X104615576Y-122818811D01*
X104417574Y-122711658D01*
X104417572Y-122711657D01*
X104417571Y-122711656D01*
X104204639Y-122638557D01*
X104204630Y-122638555D01*
X104127029Y-122625606D01*
X103982569Y-122601500D01*
X103757431Y-122601500D01*
X103631740Y-122622474D01*
X103535369Y-122638555D01*
X103535360Y-122638557D01*
X103322428Y-122711656D01*
X103322426Y-122711658D01*
X103128124Y-122816809D01*
X103124426Y-122818810D01*
X103124424Y-122818811D01*
X102946762Y-122957091D01*
X102794279Y-123122729D01*
X102705183Y-123259101D01*
X102651179Y-123305189D01*
X102580831Y-123314764D01*
X102516474Y-123284786D01*
X102494217Y-123259100D01*
X102405327Y-123123044D01*
X102252902Y-122957465D01*
X102075301Y-122819232D01*
X102075300Y-122819231D01*
X101877371Y-122712117D01*
X101877369Y-122712116D01*
X101664512Y-122639043D01*
X101664501Y-122639040D01*
X101584000Y-122625606D01*
X101584000Y-123529297D01*
X101522993Y-123494075D01*
X101395826Y-123460000D01*
X101264174Y-123460000D01*
X101137007Y-123494075D01*
X101076000Y-123529297D01*
X101076000Y-122625607D01*
X101075999Y-122625606D01*
X100995498Y-122639040D01*
X100995487Y-122639043D01*
X100782630Y-122712116D01*
X100782628Y-122712117D01*
X100584699Y-122819231D01*
X100584698Y-122819232D01*
X100407097Y-122957465D01*
X100254674Y-123123042D01*
X100165483Y-123259559D01*
X100111479Y-123305647D01*
X100041131Y-123315222D01*
X99976774Y-123285244D01*
X99954517Y-123259559D01*
X99865325Y-123123042D01*
X99712902Y-122957465D01*
X99535301Y-122819232D01*
X99535300Y-122819231D01*
X99337371Y-122712117D01*
X99337369Y-122712116D01*
X99124512Y-122639043D01*
X99124501Y-122639040D01*
X99044000Y-122625606D01*
X99044000Y-123529297D01*
X98982993Y-123494075D01*
X98855826Y-123460000D01*
X98724174Y-123460000D01*
X98597007Y-123494075D01*
X98536000Y-123529297D01*
X98536000Y-122625607D01*
X98535999Y-122625606D01*
X98455498Y-122639040D01*
X98455487Y-122639043D01*
X98242630Y-122712116D01*
X98242628Y-122712117D01*
X98044699Y-122819231D01*
X98044698Y-122819232D01*
X97867097Y-122957465D01*
X97714674Y-123123042D01*
X97625483Y-123259559D01*
X97571479Y-123305647D01*
X97501131Y-123315222D01*
X97436774Y-123285244D01*
X97414517Y-123259559D01*
X97325325Y-123123042D01*
X97172902Y-122957465D01*
X96995301Y-122819232D01*
X96995300Y-122819231D01*
X96797371Y-122712117D01*
X96797369Y-122712116D01*
X96584512Y-122639043D01*
X96584501Y-122639040D01*
X96504000Y-122625606D01*
X96504000Y-123529297D01*
X96442993Y-123494075D01*
X96315826Y-123460000D01*
X96184174Y-123460000D01*
X96057007Y-123494075D01*
X95996000Y-123529297D01*
X95996000Y-122625607D01*
X95995999Y-122625606D01*
X95915498Y-122639040D01*
X95915487Y-122639043D01*
X95702630Y-122712116D01*
X95702628Y-122712117D01*
X95504699Y-122819231D01*
X95504698Y-122819232D01*
X95327097Y-122957465D01*
X95174670Y-123123045D01*
X95085780Y-123259101D01*
X95031776Y-123305189D01*
X94961428Y-123314764D01*
X94897071Y-123284786D01*
X94874816Y-123259101D01*
X94827308Y-123186384D01*
X94785724Y-123122734D01*
X94785720Y-123122729D01*
X94664264Y-122990795D01*
X94633240Y-122957094D01*
X94633239Y-122957093D01*
X94633237Y-122957091D01*
X94551382Y-122893381D01*
X94455576Y-122818811D01*
X94257574Y-122711658D01*
X94257572Y-122711657D01*
X94257571Y-122711656D01*
X94044639Y-122638557D01*
X94044630Y-122638555D01*
X93967029Y-122625606D01*
X93822569Y-122601500D01*
X93597431Y-122601500D01*
X93471740Y-122622474D01*
X93375369Y-122638555D01*
X93375360Y-122638557D01*
X93162428Y-122711656D01*
X93162426Y-122711658D01*
X92968124Y-122816809D01*
X92964426Y-122818810D01*
X92964424Y-122818811D01*
X92786762Y-122957091D01*
X92634279Y-123122729D01*
X92634275Y-123122734D01*
X92511141Y-123311206D01*
X92420703Y-123517386D01*
X92420702Y-123517387D01*
X92365437Y-123735624D01*
X92365436Y-123735630D01*
X92365436Y-123735632D01*
X92346844Y-123960000D01*
X91909201Y-123960000D01*
X91908500Y-123947516D01*
X91908500Y-123920374D01*
X91908500Y-123920370D01*
X91900635Y-123880835D01*
X91899014Y-123870409D01*
X91893217Y-123818953D01*
X91884805Y-123794915D01*
X91880155Y-123777877D01*
X91879418Y-123774170D01*
X91877429Y-123764169D01*
X91874053Y-123756018D01*
X91856992Y-123714828D01*
X91854477Y-123708242D01*
X91833043Y-123646985D01*
X91829655Y-123641594D01*
X91826516Y-123636598D01*
X91816789Y-123617767D01*
X91816486Y-123617036D01*
X91816485Y-123617034D01*
X91804692Y-123599384D01*
X91779497Y-123561676D01*
X91777603Y-123558753D01*
X91736111Y-123492719D01*
X91736110Y-123492718D01*
X91736107Y-123492714D01*
X91607282Y-123363889D01*
X91541236Y-123322389D01*
X91538273Y-123320469D01*
X91482970Y-123283517D01*
X91482968Y-123283516D01*
X91482963Y-123283514D01*
X91482217Y-123283205D01*
X91463405Y-123273486D01*
X91453015Y-123266957D01*
X91453013Y-123266956D01*
X91453011Y-123266955D01*
X91391759Y-123245522D01*
X91385160Y-123243003D01*
X91335831Y-123222571D01*
X91335826Y-123222569D01*
X91322109Y-123219841D01*
X91305080Y-123215192D01*
X91281047Y-123206783D01*
X91281044Y-123206782D01*
X91229602Y-123200985D01*
X91219132Y-123199357D01*
X91179634Y-123191500D01*
X91179630Y-123191500D01*
X91152484Y-123191500D01*
X91138377Y-123190708D01*
X91100000Y-123186384D01*
X91061623Y-123190708D01*
X91047516Y-123191500D01*
X91020368Y-123191500D01*
X90980865Y-123199357D01*
X90970400Y-123200984D01*
X90918959Y-123206782D01*
X90918954Y-123206782D01*
X90918953Y-123206783D01*
X90918952Y-123206783D01*
X90918943Y-123206785D01*
X90894911Y-123215194D01*
X90877891Y-123219840D01*
X90864178Y-123222568D01*
X90864169Y-123222571D01*
X90814828Y-123243007D01*
X90808231Y-123245525D01*
X90746986Y-123266956D01*
X90736589Y-123273489D01*
X90717791Y-123283201D01*
X90717035Y-123283514D01*
X90661732Y-123320465D01*
X90658770Y-123322384D01*
X90592721Y-123363886D01*
X90588668Y-123367940D01*
X90584611Y-123371997D01*
X90461999Y-123494608D01*
X90461994Y-123494615D01*
X90373515Y-123627033D01*
X90355881Y-123669608D01*
X90355880Y-123669610D01*
X90314644Y-123769161D01*
X90312570Y-123774169D01*
X90304802Y-123813219D01*
X90281500Y-123930367D01*
X90281500Y-132469632D01*
X90293668Y-132530802D01*
X90307631Y-132601003D01*
X90312570Y-132625829D01*
X90312572Y-132625837D01*
X90316827Y-132636108D01*
X90334815Y-132679535D01*
X90336115Y-132682672D01*
X90336115Y-132682674D01*
X90336116Y-132682674D01*
X90336116Y-132682675D01*
X90373516Y-132772968D01*
X90461997Y-132905389D01*
X90461999Y-132905391D01*
X91044595Y-133487987D01*
X91078621Y-133550299D01*
X91081500Y-133577082D01*
X91081500Y-134638649D01*
X91088009Y-134699196D01*
X91088011Y-134699204D01*
X91139110Y-134836202D01*
X91139112Y-134836207D01*
X91226738Y-134953261D01*
X91343792Y-135040887D01*
X91343794Y-135040888D01*
X91343796Y-135040889D01*
X91398900Y-135061442D01*
X91480795Y-135091988D01*
X91480803Y-135091990D01*
X91541350Y-135098499D01*
X91541355Y-135098499D01*
X91541362Y-135098500D01*
X92315339Y-135098500D01*
X92383460Y-135118502D01*
X92429953Y-135172158D01*
X92440057Y-135242432D01*
X92410563Y-135307012D01*
X92404447Y-135313581D01*
X92292232Y-135425797D01*
X92159671Y-135558357D01*
X92082135Y-135674398D01*
X92072582Y-135697462D01*
X92069506Y-135704889D01*
X92029565Y-135801317D01*
X92029098Y-135802443D01*
X92028726Y-135803340D01*
X92004583Y-135924723D01*
X92004582Y-135924727D01*
X92001500Y-135940216D01*
X92001500Y-137559624D01*
X91982188Y-137626658D01*
X91976959Y-137634979D01*
X91976957Y-137634984D01*
X91960270Y-137682675D01*
X91916783Y-137806953D01*
X91896384Y-137988000D01*
X91916783Y-138169047D01*
X91916783Y-138169049D01*
X91916784Y-138169050D01*
X91976957Y-138341015D01*
X91976958Y-138341018D01*
X92073887Y-138495279D01*
X92073888Y-138495281D01*
X92202718Y-138624111D01*
X92202720Y-138624112D01*
X92356981Y-138721041D01*
X92356982Y-138721041D01*
X92356985Y-138721043D01*
X92373246Y-138726733D01*
X92430938Y-138768110D01*
X92453938Y-138824438D01*
X92455209Y-138824148D01*
X92456784Y-138831052D01*
X92516957Y-139003015D01*
X92516958Y-139003018D01*
X92613887Y-139157279D01*
X92613888Y-139157281D01*
X92742718Y-139286111D01*
X92742720Y-139286112D01*
X92896981Y-139383041D01*
X92896982Y-139383041D01*
X92896985Y-139383043D01*
X93068953Y-139443217D01*
X93250000Y-139463616D01*
X93431047Y-139443217D01*
X93603015Y-139383043D01*
X93660110Y-139347168D01*
X93748464Y-139291652D01*
X93816785Y-139272346D01*
X93884698Y-139293041D01*
X93930642Y-139347168D01*
X93941500Y-139398339D01*
X93941500Y-140798649D01*
X93948009Y-140859196D01*
X93948011Y-140859204D01*
X93999110Y-140996202D01*
X93999112Y-140996207D01*
X94086737Y-141113259D01*
X94086738Y-141113259D01*
X94086739Y-141113261D01*
X94118090Y-141136730D01*
X94160636Y-141193566D01*
X94165700Y-141264382D01*
X94144517Y-141311657D01*
X94123637Y-141340396D01*
X94033703Y-141516901D01*
X94033702Y-141516903D01*
X93984505Y-141668317D01*
X93972488Y-141705300D01*
X93941500Y-141900954D01*
X93941500Y-142099046D01*
X93972488Y-142294700D01*
X94033702Y-142483097D01*
X94122119Y-142656624D01*
X94123636Y-142659601D01*
X94240071Y-142819860D01*
X94331116Y-142910905D01*
X94365142Y-142973217D01*
X94360077Y-143044032D01*
X94331116Y-143089095D01*
X94240074Y-143180136D01*
X94240071Y-143180139D01*
X94123636Y-143340398D01*
X94123634Y-143340402D01*
X94033702Y-143516903D01*
X93972488Y-143705300D01*
X93941500Y-143900954D01*
X93941500Y-144099046D01*
X93972488Y-144294700D01*
X94033702Y-144483097D01*
X94033703Y-144483098D01*
X94123636Y-144659601D01*
X94240071Y-144819860D01*
X94380139Y-144959928D01*
X94380142Y-144959930D01*
X94540402Y-145076366D01*
X94716903Y-145166298D01*
X94819926Y-145199772D01*
X94878531Y-145239846D01*
X94906168Y-145305243D01*
X94894061Y-145375199D01*
X94878386Y-145399541D01*
X94875250Y-145403362D01*
X94853365Y-145424292D01*
X94836738Y-145436739D01*
X94749112Y-145553792D01*
X94749110Y-145553797D01*
X94698011Y-145690795D01*
X94694542Y-145723059D01*
X94685675Y-145757798D01*
X94682179Y-145766237D01*
X94682176Y-145766249D01*
X94641500Y-145970741D01*
X94641500Y-146729258D01*
X94682175Y-146933749D01*
X94682177Y-146933755D01*
X94685676Y-146942203D01*
X94694542Y-146976940D01*
X94698011Y-147009204D01*
X94749110Y-147146202D01*
X94749112Y-147146207D01*
X94836738Y-147263260D01*
X94853360Y-147275703D01*
X94875251Y-147296638D01*
X94877809Y-147299755D01*
X95025245Y-147447191D01*
X95198612Y-147563031D01*
X95391247Y-147642823D01*
X95595747Y-147683500D01*
X95595748Y-147683500D01*
X95804252Y-147683500D01*
X95804253Y-147683500D01*
X96008753Y-147642823D01*
X96201388Y-147563031D01*
X96374755Y-147447191D01*
X96522191Y-147299755D01*
X96522201Y-147299739D01*
X96524745Y-147296641D01*
X96546642Y-147275701D01*
X96563261Y-147263261D01*
X96650886Y-147146208D01*
X96650885Y-147146208D01*
X96650889Y-147146204D01*
X96701989Y-147009201D01*
X96705457Y-146976940D01*
X96714329Y-146942187D01*
X96717821Y-146933758D01*
X96717822Y-146933755D01*
X96717823Y-146933753D01*
X96758500Y-146729253D01*
X96758500Y-146501350D01*
X108021500Y-146501350D01*
X108021500Y-148398649D01*
X108028009Y-148459196D01*
X108028011Y-148459204D01*
X108079110Y-148596202D01*
X108079112Y-148596207D01*
X108166738Y-148713261D01*
X108283792Y-148800887D01*
X108283794Y-148800888D01*
X108283796Y-148800889D01*
X108335243Y-148820078D01*
X108420795Y-148851988D01*
X108420803Y-148851990D01*
X108481350Y-148858499D01*
X108481355Y-148858499D01*
X108481362Y-148858500D01*
X108481368Y-148858500D01*
X110378632Y-148858500D01*
X110378638Y-148858500D01*
X110378645Y-148858499D01*
X110378649Y-148858499D01*
X110439196Y-148851990D01*
X110439199Y-148851989D01*
X110439201Y-148851989D01*
X110576204Y-148800889D01*
X110693261Y-148713261D01*
X110780889Y-148596204D01*
X110804258Y-148533547D01*
X110846804Y-148476715D01*
X110913325Y-148451904D01*
X110982699Y-148466996D01*
X111008294Y-148486996D01*
X111008946Y-148486289D01*
X111012778Y-148489817D01*
X111068966Y-148533550D01*
X111196983Y-148633190D01*
X111402273Y-148744287D01*
X111623049Y-148820080D01*
X111853288Y-148858500D01*
X111853292Y-148858500D01*
X112086708Y-148858500D01*
X112086712Y-148858500D01*
X112316951Y-148820080D01*
X112537727Y-148744287D01*
X112743017Y-148633190D01*
X112927220Y-148489818D01*
X112939283Y-148476715D01*
X113085314Y-148318083D01*
X113128770Y-148251568D01*
X113212984Y-148122669D01*
X113306749Y-147908907D01*
X113364051Y-147682626D01*
X113383327Y-147450000D01*
X113364051Y-147217374D01*
X113346787Y-147149199D01*
X113306750Y-146991096D01*
X113306747Y-146991089D01*
X113302429Y-146981246D01*
X113212984Y-146777331D01*
X113200681Y-146758500D01*
X113085314Y-146581916D01*
X112927225Y-146410186D01*
X112927221Y-146410182D01*
X112835118Y-146338496D01*
X112743017Y-146266810D01*
X112537727Y-146155713D01*
X112537724Y-146155712D01*
X112537723Y-146155711D01*
X112316955Y-146079921D01*
X112316948Y-146079919D01*
X112218411Y-146063476D01*
X112086712Y-146041500D01*
X111853288Y-146041500D01*
X111738066Y-146060727D01*
X111623051Y-146079919D01*
X111623044Y-146079921D01*
X111402276Y-146155711D01*
X111402273Y-146155713D01*
X111282001Y-146220801D01*
X111196985Y-146266809D01*
X111196983Y-146266810D01*
X111012778Y-146410182D01*
X111008946Y-146413711D01*
X111007581Y-146412228D01*
X110954129Y-146444333D01*
X110883165Y-146442180D01*
X110824630Y-146402003D01*
X110804258Y-146366449D01*
X110780889Y-146303797D01*
X110780887Y-146303792D01*
X110693261Y-146186738D01*
X110576207Y-146099112D01*
X110576202Y-146099110D01*
X110439204Y-146048011D01*
X110439196Y-146048009D01*
X110378649Y-146041500D01*
X110378638Y-146041500D01*
X108481362Y-146041500D01*
X108481350Y-146041500D01*
X108420803Y-146048009D01*
X108420795Y-146048011D01*
X108283797Y-146099110D01*
X108283792Y-146099112D01*
X108166738Y-146186738D01*
X108079112Y-146303792D01*
X108079110Y-146303797D01*
X108028011Y-146440795D01*
X108028009Y-146440803D01*
X108021500Y-146501350D01*
X96758500Y-146501350D01*
X96758500Y-145970747D01*
X96717823Y-145766247D01*
X96714327Y-145757806D01*
X96705456Y-145723049D01*
X96701990Y-145690805D01*
X96701990Y-145690804D01*
X96701989Y-145690802D01*
X96701989Y-145690799D01*
X96650889Y-145553796D01*
X96650886Y-145553792D01*
X96650886Y-145553791D01*
X96563261Y-145436738D01*
X96546637Y-145424294D01*
X96524749Y-145403362D01*
X96521613Y-145399541D01*
X96493858Y-145334195D01*
X96505837Y-145264216D01*
X96553748Y-145211823D01*
X96580072Y-145199772D01*
X96683097Y-145166298D01*
X96859598Y-145076366D01*
X97019858Y-144959930D01*
X97159930Y-144819858D01*
X97276366Y-144659598D01*
X97366298Y-144483097D01*
X97427512Y-144294700D01*
X97458500Y-144099046D01*
X97458500Y-143900954D01*
X97427512Y-143705300D01*
X97366298Y-143516903D01*
X97276366Y-143340402D01*
X97159930Y-143180142D01*
X97159928Y-143180139D01*
X97068884Y-143089095D01*
X97034858Y-143026783D01*
X97039923Y-142955968D01*
X97068884Y-142910905D01*
X97159925Y-142819863D01*
X97159928Y-142819860D01*
X97159930Y-142819858D01*
X97276366Y-142659598D01*
X97366298Y-142483097D01*
X97427512Y-142294700D01*
X97458500Y-142099046D01*
X97458500Y-142095661D01*
X97458864Y-142094419D01*
X97458889Y-142094108D01*
X97458954Y-142094113D01*
X97478502Y-142027540D01*
X97495405Y-142006566D01*
X100610323Y-138891648D01*
X100610328Y-138891643D01*
X100687865Y-138775601D01*
X100710463Y-138721043D01*
X100741273Y-138646662D01*
X100768500Y-138509781D01*
X100768500Y-134971644D01*
X100788502Y-134903523D01*
X100817109Y-134872213D01*
X100983234Y-134742911D01*
X100983237Y-134742908D01*
X100983240Y-134742906D01*
X101135722Y-134577268D01*
X101224518Y-134441354D01*
X101278520Y-134395268D01*
X101348868Y-134385692D01*
X101413225Y-134415669D01*
X101435480Y-134441353D01*
X101461710Y-134481500D01*
X101524275Y-134577265D01*
X101524279Y-134577270D01*
X101613006Y-134673651D01*
X101662580Y-134727503D01*
X101676765Y-134742911D01*
X101842891Y-134872213D01*
X101884362Y-134929838D01*
X101891500Y-134971644D01*
X101891500Y-144195679D01*
X101874619Y-144258679D01*
X101805476Y-144378438D01*
X101805473Y-144378445D01*
X101746457Y-144560072D01*
X101726496Y-144750000D01*
X101746457Y-144939927D01*
X101752956Y-144959928D01*
X101805473Y-145121556D01*
X101805476Y-145121561D01*
X101900958Y-145286941D01*
X101900965Y-145286951D01*
X102028744Y-145428864D01*
X102068252Y-145457568D01*
X102183248Y-145541118D01*
X102357712Y-145618794D01*
X102544513Y-145658500D01*
X102735487Y-145658500D01*
X102922288Y-145618794D01*
X103096752Y-145541118D01*
X103251253Y-145428866D01*
X103255370Y-145424294D01*
X103379034Y-145286951D01*
X103379035Y-145286949D01*
X103379040Y-145286944D01*
X103474527Y-145121556D01*
X103533542Y-144939928D01*
X103553504Y-144750000D01*
X103533542Y-144560072D01*
X103474527Y-144378444D01*
X103379040Y-144213056D01*
X103340862Y-144170655D01*
X103310146Y-144106648D01*
X103308500Y-144086346D01*
X103308500Y-140004594D01*
X104671500Y-140004594D01*
X104671500Y-141495406D01*
X104686783Y-141631047D01*
X104712764Y-141705296D01*
X104746957Y-141803015D01*
X104746958Y-141803018D01*
X104843887Y-141957279D01*
X104843888Y-141957281D01*
X104972718Y-142086111D01*
X104972720Y-142086112D01*
X105126981Y-142183041D01*
X105126982Y-142183041D01*
X105126985Y-142183043D01*
X105298953Y-142243217D01*
X105434594Y-142258500D01*
X106125406Y-142258500D01*
X106261047Y-142243217D01*
X106433015Y-142183043D01*
X106587281Y-142086111D01*
X106716111Y-141957281D01*
X106813043Y-141803015D01*
X106873217Y-141631047D01*
X106888500Y-141495406D01*
X106888500Y-140004594D01*
X112971500Y-140004594D01*
X112971500Y-141495406D01*
X112986783Y-141631047D01*
X113012764Y-141705296D01*
X113046957Y-141803015D01*
X113046958Y-141803018D01*
X113143887Y-141957279D01*
X113143888Y-141957281D01*
X113272718Y-142086111D01*
X113272720Y-142086112D01*
X113426981Y-142183041D01*
X113426982Y-142183041D01*
X113426985Y-142183043D01*
X113598953Y-142243217D01*
X113734594Y-142258500D01*
X114425406Y-142258500D01*
X114561047Y-142243217D01*
X114733015Y-142183043D01*
X114794464Y-142144431D01*
X114862784Y-142125126D01*
X114930698Y-142145821D01*
X114976641Y-142199948D01*
X114987500Y-142251119D01*
X114987500Y-147143082D01*
X114967498Y-147211203D01*
X114965195Y-147214659D01*
X114964050Y-147216317D01*
X114964046Y-147216324D01*
X114903034Y-147377200D01*
X114882296Y-147547996D01*
X114882296Y-147548003D01*
X114903034Y-147718799D01*
X114903035Y-147718801D01*
X114964046Y-147879675D01*
X115061785Y-148021273D01*
X115190570Y-148135367D01*
X115190571Y-148135367D01*
X115190573Y-148135369D01*
X115271465Y-148177824D01*
X115342917Y-148215325D01*
X115342918Y-148215325D01*
X115342920Y-148215326D01*
X115488655Y-148251246D01*
X115509972Y-148256500D01*
X115509975Y-148256500D01*
X115682025Y-148256500D01*
X115682028Y-148256500D01*
X115849083Y-148215325D01*
X116001430Y-148135367D01*
X116130215Y-148021273D01*
X116227954Y-147879675D01*
X116288965Y-147718801D01*
X116309704Y-147548000D01*
X116301079Y-147476970D01*
X116288965Y-147377200D01*
X116288965Y-147377199D01*
X116227954Y-147216325D01*
X116227951Y-147216321D01*
X116227949Y-147216317D01*
X116226805Y-147214659D01*
X116226340Y-147213250D01*
X116224408Y-147209568D01*
X116225020Y-147209246D01*
X116204568Y-147147235D01*
X116204500Y-147143082D01*
X116204500Y-142145639D01*
X116224502Y-142077518D01*
X116278158Y-142031025D01*
X116348432Y-142020921D01*
X116413012Y-142050415D01*
X116419595Y-142056544D01*
X116458181Y-142095130D01*
X116458184Y-142095132D01*
X116599278Y-142197643D01*
X116754674Y-142276822D01*
X116754680Y-142276825D01*
X116920534Y-142330714D01*
X116926000Y-142331580D01*
X116926000Y-141410060D01*
X116939940Y-141434205D01*
X116995795Y-141490060D01*
X117064204Y-141529556D01*
X117140504Y-141550000D01*
X117219496Y-141550000D01*
X117295796Y-141529556D01*
X117364205Y-141490060D01*
X117420060Y-141434205D01*
X117434000Y-141410060D01*
X117434000Y-142331580D01*
X117439465Y-142330714D01*
X117605319Y-142276825D01*
X117605325Y-142276822D01*
X117760721Y-142197643D01*
X117901815Y-142095132D01*
X117901818Y-142095130D01*
X118025130Y-141971818D01*
X118035563Y-141957459D01*
X118091785Y-141914105D01*
X118162521Y-141908028D01*
X118225313Y-141941159D01*
X118260225Y-142002979D01*
X118263500Y-142031519D01*
X118263500Y-145391082D01*
X118243498Y-145459203D01*
X118241195Y-145462659D01*
X118240050Y-145464317D01*
X118240046Y-145464324D01*
X118179034Y-145625200D01*
X118158296Y-145795996D01*
X118158296Y-145796003D01*
X118179034Y-145966799D01*
X118229214Y-146099112D01*
X118240046Y-146127675D01*
X118337785Y-146269273D01*
X118466570Y-146383367D01*
X118466571Y-146383367D01*
X118466573Y-146383369D01*
X118547465Y-146425824D01*
X118618917Y-146463325D01*
X118618918Y-146463325D01*
X118618920Y-146463326D01*
X118777394Y-146502385D01*
X118785972Y-146504500D01*
X118785975Y-146504500D01*
X118958025Y-146504500D01*
X118958028Y-146504500D01*
X119125083Y-146463325D01*
X119277430Y-146383367D01*
X119406215Y-146269273D01*
X119503954Y-146127675D01*
X119564965Y-145966801D01*
X119585704Y-145796000D01*
X119582091Y-145766247D01*
X119564965Y-145625200D01*
X119562536Y-145618794D01*
X119503954Y-145464325D01*
X119503951Y-145464321D01*
X119503949Y-145464317D01*
X119502805Y-145462659D01*
X119502340Y-145461250D01*
X119500408Y-145457568D01*
X119501020Y-145457246D01*
X119480568Y-145395235D01*
X119480500Y-145391082D01*
X119480500Y-139201350D01*
X122641500Y-139201350D01*
X122641500Y-140798649D01*
X122648009Y-140859196D01*
X122648011Y-140859204D01*
X122699110Y-140996202D01*
X122699112Y-140996207D01*
X122786737Y-141113259D01*
X122786738Y-141113259D01*
X122786739Y-141113261D01*
X122818090Y-141136730D01*
X122860636Y-141193566D01*
X122865700Y-141264382D01*
X122844517Y-141311657D01*
X122823637Y-141340396D01*
X122733703Y-141516901D01*
X122733702Y-141516903D01*
X122684505Y-141668317D01*
X122672488Y-141705300D01*
X122641500Y-141900954D01*
X122641500Y-142099046D01*
X122672488Y-142294700D01*
X122733702Y-142483097D01*
X122822119Y-142656624D01*
X122823636Y-142659601D01*
X122940071Y-142819860D01*
X123031116Y-142910905D01*
X123065142Y-142973217D01*
X123060077Y-143044032D01*
X123031116Y-143089095D01*
X122940074Y-143180136D01*
X122940071Y-143180139D01*
X122823636Y-143340398D01*
X122823634Y-143340402D01*
X122733702Y-143516903D01*
X122672488Y-143705300D01*
X122641500Y-143900954D01*
X122641500Y-144099046D01*
X122672488Y-144294700D01*
X122733702Y-144483097D01*
X122733703Y-144483098D01*
X122823636Y-144659601D01*
X122940071Y-144819860D01*
X123080139Y-144959928D01*
X123080142Y-144959930D01*
X123240402Y-145076366D01*
X123416903Y-145166298D01*
X123519926Y-145199772D01*
X123578531Y-145239846D01*
X123606168Y-145305243D01*
X123594061Y-145375199D01*
X123578386Y-145399541D01*
X123575250Y-145403362D01*
X123553365Y-145424292D01*
X123536738Y-145436739D01*
X123449112Y-145553792D01*
X123449110Y-145553797D01*
X123398011Y-145690795D01*
X123394542Y-145723059D01*
X123385675Y-145757798D01*
X123382179Y-145766237D01*
X123382176Y-145766249D01*
X123341500Y-145970741D01*
X123341500Y-146729258D01*
X123382175Y-146933749D01*
X123382177Y-146933755D01*
X123385676Y-146942203D01*
X123394542Y-146976940D01*
X123398011Y-147009204D01*
X123449110Y-147146202D01*
X123449112Y-147146207D01*
X123536738Y-147263260D01*
X123553360Y-147275703D01*
X123575251Y-147296638D01*
X123577809Y-147299755D01*
X123725245Y-147447191D01*
X123898612Y-147563031D01*
X124091247Y-147642823D01*
X124295747Y-147683500D01*
X124295748Y-147683500D01*
X124504252Y-147683500D01*
X124504253Y-147683500D01*
X124708753Y-147642823D01*
X124901388Y-147563031D01*
X125074755Y-147447191D01*
X125222191Y-147299755D01*
X125222201Y-147299739D01*
X125224745Y-147296641D01*
X125246642Y-147275701D01*
X125263261Y-147263261D01*
X125350886Y-147146208D01*
X125350885Y-147146208D01*
X125350889Y-147146204D01*
X125401989Y-147009201D01*
X125405457Y-146976940D01*
X125414329Y-146942187D01*
X125417821Y-146933758D01*
X125417822Y-146933755D01*
X125417823Y-146933753D01*
X125458500Y-146729253D01*
X125458500Y-145970747D01*
X125417823Y-145766247D01*
X125414327Y-145757806D01*
X125405456Y-145723049D01*
X125401990Y-145690805D01*
X125401990Y-145690804D01*
X125401989Y-145690802D01*
X125401989Y-145690799D01*
X125350889Y-145553796D01*
X125350886Y-145553792D01*
X125350886Y-145553791D01*
X125263261Y-145436738D01*
X125246637Y-145424294D01*
X125224749Y-145403362D01*
X125221613Y-145399541D01*
X125193858Y-145334195D01*
X125205837Y-145264216D01*
X125253748Y-145211823D01*
X125280072Y-145199772D01*
X125383097Y-145166298D01*
X125559598Y-145076366D01*
X125719858Y-144959930D01*
X125859930Y-144819858D01*
X125976366Y-144659598D01*
X126066298Y-144483097D01*
X126127512Y-144294700D01*
X126158500Y-144099046D01*
X126158500Y-143900954D01*
X126127512Y-143705300D01*
X126066298Y-143516903D01*
X125976366Y-143340402D01*
X125859930Y-143180142D01*
X125859928Y-143180139D01*
X125768884Y-143089095D01*
X125734858Y-143026783D01*
X125739923Y-142955968D01*
X125768884Y-142910905D01*
X125859925Y-142819863D01*
X125859928Y-142819860D01*
X125859930Y-142819858D01*
X125976366Y-142659598D01*
X125976365Y-142659598D01*
X125979276Y-142655593D01*
X125980695Y-142656624D01*
X126027704Y-142614079D01*
X126097744Y-142602459D01*
X126141062Y-142615966D01*
X126238917Y-142667325D01*
X126238918Y-142667325D01*
X126238920Y-142667326D01*
X126397394Y-142706385D01*
X126405972Y-142708500D01*
X126405975Y-142708500D01*
X126578025Y-142708500D01*
X126578028Y-142708500D01*
X126745083Y-142667325D01*
X126897430Y-142587367D01*
X127026215Y-142473273D01*
X127123954Y-142331675D01*
X127184965Y-142170801D01*
X127204907Y-142006566D01*
X127205704Y-142000003D01*
X127205704Y-141999996D01*
X127184965Y-141829200D01*
X127175036Y-141803018D01*
X127123954Y-141668325D01*
X127123951Y-141668321D01*
X127123949Y-141668317D01*
X127122805Y-141666659D01*
X127122340Y-141665250D01*
X127120408Y-141661568D01*
X127121020Y-141661246D01*
X127100568Y-141599235D01*
X127100500Y-141595082D01*
X127100500Y-136802917D01*
X127120502Y-136734796D01*
X127122807Y-136731337D01*
X127123953Y-136729676D01*
X127123952Y-136729676D01*
X127123954Y-136729675D01*
X127184965Y-136568801D01*
X127196347Y-136475064D01*
X127205704Y-136398003D01*
X127205704Y-136397996D01*
X127184965Y-136227200D01*
X127184570Y-136226157D01*
X127123954Y-136066325D01*
X127026215Y-135924727D01*
X126897430Y-135810633D01*
X126897429Y-135810632D01*
X126897426Y-135810630D01*
X126745087Y-135730677D01*
X126745079Y-135730673D01*
X126578031Y-135689500D01*
X126578028Y-135689500D01*
X126405972Y-135689500D01*
X126405970Y-135689500D01*
X126405961Y-135689501D01*
X126398566Y-135691324D01*
X126327638Y-135688202D01*
X126269658Y-135647229D01*
X126243034Y-135581413D01*
X126250606Y-135524308D01*
X126287965Y-135425801D01*
X126287965Y-135425798D01*
X126287966Y-135425797D01*
X126308704Y-135255003D01*
X126308704Y-135254996D01*
X126287965Y-135084200D01*
X126273023Y-135044799D01*
X126226954Y-134923325D01*
X126129215Y-134781727D01*
X126000430Y-134667633D01*
X126000429Y-134667632D01*
X126000426Y-134667630D01*
X125848087Y-134587677D01*
X125848079Y-134587673D01*
X125681031Y-134546500D01*
X125681028Y-134546500D01*
X125508972Y-134546500D01*
X125508968Y-134546500D01*
X125341920Y-134587673D01*
X125341912Y-134587677D01*
X125189573Y-134667630D01*
X125189568Y-134667634D01*
X125060785Y-134781727D01*
X124963045Y-134923326D01*
X124902034Y-135084200D01*
X124881296Y-135254996D01*
X124881296Y-135255003D01*
X124902034Y-135425799D01*
X124963046Y-135586676D01*
X124964193Y-135588337D01*
X124964658Y-135589748D01*
X124966589Y-135593427D01*
X124965977Y-135593747D01*
X124986431Y-135655760D01*
X124986500Y-135659917D01*
X124986500Y-136283651D01*
X124966498Y-136351772D01*
X124912842Y-136398265D01*
X124842568Y-136408369D01*
X124812282Y-136400060D01*
X124708758Y-136357179D01*
X124708753Y-136357177D01*
X124504256Y-136316500D01*
X124504253Y-136316500D01*
X124295747Y-136316500D01*
X124295743Y-136316500D01*
X124091246Y-136357177D01*
X124091241Y-136357179D01*
X123898611Y-136436969D01*
X123725249Y-136552806D01*
X123725247Y-136552807D01*
X123577806Y-136700247D01*
X123575247Y-136703366D01*
X123553365Y-136724292D01*
X123536738Y-136736739D01*
X123449112Y-136853792D01*
X123449110Y-136853797D01*
X123398011Y-136990795D01*
X123394542Y-137023059D01*
X123385675Y-137057798D01*
X123382179Y-137066237D01*
X123382176Y-137066249D01*
X123341500Y-137270741D01*
X123341500Y-138029258D01*
X123382175Y-138233749D01*
X123382177Y-138233755D01*
X123385676Y-138242203D01*
X123394542Y-138276940D01*
X123398011Y-138309204D01*
X123449110Y-138446202D01*
X123449112Y-138446207D01*
X123519319Y-138539991D01*
X123544130Y-138606511D01*
X123529039Y-138675885D01*
X123478837Y-138726087D01*
X123418451Y-138741500D01*
X123101350Y-138741500D01*
X123040803Y-138748009D01*
X123040795Y-138748011D01*
X122903797Y-138799110D01*
X122903792Y-138799112D01*
X122786738Y-138886738D01*
X122699112Y-139003792D01*
X122699110Y-139003797D01*
X122648011Y-139140795D01*
X122648009Y-139140803D01*
X122641500Y-139201350D01*
X119480500Y-139201350D01*
X119480500Y-137350996D01*
X121143296Y-137350996D01*
X121143296Y-137351003D01*
X121164034Y-137521799D01*
X121206960Y-137634985D01*
X121225046Y-137682675D01*
X121322785Y-137824273D01*
X121451570Y-137938367D01*
X121451571Y-137938367D01*
X121451573Y-137938369D01*
X121532465Y-137980824D01*
X121603917Y-138018325D01*
X121603918Y-138018325D01*
X121603920Y-138018326D01*
X121648274Y-138029258D01*
X121770972Y-138059500D01*
X121770975Y-138059500D01*
X121943025Y-138059500D01*
X121943028Y-138059500D01*
X122110083Y-138018325D01*
X122262430Y-137938367D01*
X122391215Y-137824273D01*
X122488954Y-137682675D01*
X122549965Y-137521801D01*
X122551640Y-137507997D01*
X122567602Y-137460184D01*
X122592032Y-137417873D01*
X122615711Y-137329500D01*
X122633500Y-137263111D01*
X122633500Y-136189917D01*
X122653502Y-136121796D01*
X122655807Y-136118337D01*
X122656953Y-136116676D01*
X122656952Y-136116676D01*
X122656954Y-136116675D01*
X122717965Y-135955801D01*
X122726260Y-135887480D01*
X122738704Y-135785003D01*
X122738704Y-135784996D01*
X122717965Y-135614200D01*
X122710209Y-135593747D01*
X122656954Y-135453325D01*
X122559215Y-135311727D01*
X122430430Y-135197633D01*
X122430429Y-135197632D01*
X122430426Y-135197630D01*
X122278087Y-135117677D01*
X122278079Y-135117673D01*
X122111031Y-135076500D01*
X122111028Y-135076500D01*
X121938972Y-135076500D01*
X121938968Y-135076500D01*
X121771920Y-135117673D01*
X121771912Y-135117677D01*
X121619573Y-135197630D01*
X121619568Y-135197634D01*
X121490785Y-135311727D01*
X121393045Y-135453326D01*
X121332034Y-135614200D01*
X121311296Y-135784996D01*
X121311296Y-135785003D01*
X121332034Y-135955799D01*
X121393046Y-136116676D01*
X121394193Y-136118337D01*
X121394658Y-136119748D01*
X121396589Y-136123427D01*
X121395977Y-136123747D01*
X121416431Y-136185760D01*
X121416500Y-136189917D01*
X121416500Y-136737994D01*
X121396498Y-136806115D01*
X121374055Y-136832305D01*
X121322786Y-136877726D01*
X121225045Y-137019326D01*
X121164034Y-137180200D01*
X121143296Y-137350996D01*
X119480500Y-137350996D01*
X119480500Y-136194239D01*
X119500502Y-136126118D01*
X119517400Y-136105148D01*
X120036807Y-135585740D01*
X120095748Y-135552498D01*
X120141083Y-135541325D01*
X120293430Y-135461367D01*
X120422215Y-135347273D01*
X120519954Y-135205675D01*
X120580965Y-135044801D01*
X120592080Y-134953261D01*
X120601704Y-134874003D01*
X120601704Y-134873996D01*
X120583916Y-134727503D01*
X120580965Y-134703199D01*
X120519954Y-134542325D01*
X120422215Y-134400727D01*
X120293430Y-134286633D01*
X120293429Y-134286632D01*
X120293426Y-134286630D01*
X120141087Y-134206677D01*
X120141079Y-134206673D01*
X119974031Y-134165500D01*
X119974028Y-134165500D01*
X119801972Y-134165500D01*
X119801968Y-134165500D01*
X119634920Y-134206673D01*
X119634912Y-134206677D01*
X119482573Y-134286630D01*
X119482568Y-134286634D01*
X119353785Y-134400727D01*
X119256045Y-134542326D01*
X119202662Y-134683088D01*
X119173946Y-134727503D01*
X118385080Y-135516370D01*
X118385075Y-135516376D01*
X118304967Y-135655127D01*
X118304968Y-135655128D01*
X118265795Y-135801326D01*
X118263500Y-135809890D01*
X118263500Y-139468480D01*
X118243498Y-139536601D01*
X118189842Y-139583094D01*
X118119568Y-139593198D01*
X118054988Y-139563704D01*
X118035565Y-139542542D01*
X118025135Y-139528187D01*
X118025130Y-139528181D01*
X117901818Y-139404869D01*
X117901815Y-139404867D01*
X117760721Y-139302356D01*
X117605325Y-139223177D01*
X117605319Y-139223174D01*
X117439461Y-139169284D01*
X117439449Y-139169281D01*
X117434000Y-139168417D01*
X117434000Y-140089939D01*
X117420060Y-140065795D01*
X117364205Y-140009940D01*
X117295796Y-139970444D01*
X117219496Y-139950000D01*
X117140504Y-139950000D01*
X117064204Y-139970444D01*
X116995795Y-140009940D01*
X116939940Y-140065795D01*
X116926000Y-140089939D01*
X116926000Y-139168417D01*
X116920550Y-139169281D01*
X116920538Y-139169284D01*
X116754680Y-139223174D01*
X116754674Y-139223177D01*
X116599278Y-139302356D01*
X116458184Y-139404867D01*
X116458181Y-139404869D01*
X116419595Y-139443456D01*
X116357283Y-139477482D01*
X116286468Y-139472417D01*
X116229632Y-139429870D01*
X116204821Y-139363350D01*
X116204500Y-139354361D01*
X116204500Y-132966917D01*
X116224502Y-132898796D01*
X116226807Y-132895337D01*
X116227294Y-132894630D01*
X116227954Y-132893675D01*
X116288965Y-132732801D01*
X116300674Y-132636367D01*
X116309704Y-132562003D01*
X116309704Y-132561996D01*
X116288965Y-132391200D01*
X116288204Y-132389192D01*
X116227954Y-132230325D01*
X116130215Y-132088727D01*
X116001430Y-131974633D01*
X116001429Y-131974632D01*
X116001426Y-131974630D01*
X115849087Y-131894677D01*
X115849079Y-131894673D01*
X115682031Y-131853500D01*
X115682028Y-131853500D01*
X115509972Y-131853500D01*
X115509968Y-131853500D01*
X115342920Y-131894673D01*
X115342912Y-131894677D01*
X115190573Y-131974630D01*
X115190568Y-131974634D01*
X115061785Y-132088727D01*
X114964046Y-132230325D01*
X114933881Y-132309863D01*
X114891022Y-132366464D01*
X114824366Y-132390909D01*
X114755076Y-132375436D01*
X114705151Y-132324958D01*
X114698257Y-132309861D01*
X114691399Y-132291778D01*
X114677954Y-132256325D01*
X114580215Y-132114727D01*
X114451430Y-132000633D01*
X114451429Y-132000632D01*
X114451426Y-132000630D01*
X114299087Y-131920677D01*
X114299079Y-131920673D01*
X114132031Y-131879500D01*
X114132028Y-131879500D01*
X113959972Y-131879500D01*
X113959968Y-131879500D01*
X113792920Y-131920673D01*
X113792912Y-131920677D01*
X113640573Y-132000630D01*
X113640568Y-132000634D01*
X113511785Y-132114727D01*
X113414045Y-132256326D01*
X113353034Y-132417200D01*
X113332296Y-132587996D01*
X113332296Y-132588003D01*
X113353034Y-132758799D01*
X113407619Y-132902729D01*
X113414045Y-132919673D01*
X113414048Y-132919678D01*
X113415395Y-132921629D01*
X113415940Y-132923282D01*
X113417588Y-132926422D01*
X113417066Y-132926695D01*
X113437631Y-132989054D01*
X113437699Y-132993143D01*
X113440770Y-139238594D01*
X113420801Y-139306725D01*
X113381807Y-139345343D01*
X113272717Y-139413889D01*
X113143888Y-139542718D01*
X113143887Y-139542720D01*
X113046958Y-139696981D01*
X113046957Y-139696984D01*
X113046957Y-139696985D01*
X112986783Y-139868953D01*
X112971500Y-140004594D01*
X106888500Y-140004594D01*
X106873217Y-139868953D01*
X106813043Y-139696985D01*
X106813041Y-139696982D01*
X106813041Y-139696981D01*
X106716112Y-139542720D01*
X106716111Y-139542718D01*
X106587281Y-139413888D01*
X106587279Y-139413887D01*
X106433018Y-139316958D01*
X106433015Y-139316957D01*
X106419192Y-139312120D01*
X106261047Y-139256783D01*
X106125406Y-139241500D01*
X105434594Y-139241500D01*
X105298953Y-139256783D01*
X105298950Y-139256783D01*
X105298950Y-139256784D01*
X105126984Y-139316957D01*
X105126981Y-139316958D01*
X104972720Y-139413887D01*
X104972718Y-139413888D01*
X104843888Y-139542718D01*
X104843887Y-139542720D01*
X104746958Y-139696981D01*
X104746957Y-139696984D01*
X104746957Y-139696985D01*
X104686783Y-139868953D01*
X104671500Y-140004594D01*
X103308500Y-140004594D01*
X103308500Y-134971644D01*
X103328502Y-134903523D01*
X103357109Y-134872213D01*
X103523234Y-134742911D01*
X103523237Y-134742908D01*
X103523240Y-134742906D01*
X103675722Y-134577268D01*
X103764518Y-134441354D01*
X103818520Y-134395268D01*
X103888868Y-134385692D01*
X103953225Y-134415669D01*
X103975480Y-134441353D01*
X104001710Y-134481500D01*
X104064275Y-134577265D01*
X104064279Y-134577270D01*
X104216762Y-134742908D01*
X104216766Y-134742911D01*
X104394424Y-134881189D01*
X104592426Y-134988342D01*
X104592427Y-134988342D01*
X104592428Y-134988343D01*
X104704227Y-135026723D01*
X104805365Y-135061444D01*
X105027431Y-135098500D01*
X105027435Y-135098500D01*
X105252565Y-135098500D01*
X105252569Y-135098500D01*
X105474635Y-135061444D01*
X105687574Y-134988342D01*
X105885576Y-134881189D01*
X106063240Y-134742906D01*
X106215722Y-134577268D01*
X106338860Y-134388791D01*
X106429296Y-134182616D01*
X106484564Y-133964368D01*
X106503156Y-133740000D01*
X106484564Y-133515632D01*
X106434435Y-133317677D01*
X106429297Y-133297387D01*
X106429296Y-133297386D01*
X106429296Y-133297384D01*
X106338860Y-133091209D01*
X106321500Y-133064637D01*
X106215724Y-132902734D01*
X106215720Y-132902729D01*
X106095190Y-132771801D01*
X106063240Y-132737094D01*
X106063239Y-132737093D01*
X106063237Y-132737091D01*
X105940422Y-132641500D01*
X105885576Y-132598811D01*
X105852319Y-132580813D01*
X105801929Y-132530802D01*
X105786576Y-132461485D01*
X105811136Y-132394872D01*
X105852320Y-132359186D01*
X105885576Y-132341189D01*
X106063240Y-132202906D01*
X106215722Y-132037268D01*
X106338860Y-131848791D01*
X106429296Y-131642616D01*
X106484564Y-131424368D01*
X106503156Y-131200000D01*
X106491161Y-131055251D01*
X106505469Y-130985715D01*
X106527630Y-130955760D01*
X108324003Y-129159389D01*
X108412484Y-129026968D01*
X108444335Y-128950072D01*
X108444336Y-128950071D01*
X108473427Y-128879838D01*
X108473426Y-128879838D01*
X108473430Y-128879831D01*
X108504500Y-128723630D01*
X108504500Y-125200500D01*
X109676384Y-125200500D01*
X109679933Y-125231994D01*
X109680708Y-125238876D01*
X109681500Y-125252983D01*
X109681500Y-133551516D01*
X109680708Y-133565623D01*
X109676384Y-133603999D01*
X109680708Y-133642376D01*
X109681500Y-133656483D01*
X109681500Y-133683635D01*
X109689358Y-133723138D01*
X109690986Y-133733609D01*
X109696782Y-133785042D01*
X109696783Y-133785047D01*
X109705191Y-133809076D01*
X109709839Y-133826103D01*
X109712569Y-133839827D01*
X109712572Y-133839836D01*
X109733009Y-133889175D01*
X109735529Y-133895778D01*
X109756956Y-133957014D01*
X109763488Y-133967409D01*
X109773208Y-133986221D01*
X109773518Y-133986971D01*
X109810449Y-134042243D01*
X109812369Y-134045205D01*
X109853889Y-134111281D01*
X109853892Y-134111285D01*
X109982715Y-134240108D01*
X109982717Y-134240109D01*
X109982719Y-134240111D01*
X110048775Y-134281617D01*
X110051728Y-134283531D01*
X110101330Y-134316673D01*
X110107032Y-134320483D01*
X110107773Y-134320790D01*
X110126594Y-134330514D01*
X110136981Y-134337041D01*
X110136982Y-134337041D01*
X110136985Y-134337043D01*
X110198252Y-134358481D01*
X110204836Y-134360995D01*
X110229896Y-134371375D01*
X110254166Y-134381429D01*
X110254167Y-134381429D01*
X110254169Y-134381430D01*
X110267884Y-134384157D01*
X110284921Y-134388807D01*
X110308953Y-134397217D01*
X110360385Y-134403011D01*
X110370841Y-134404636D01*
X110410370Y-134412500D01*
X110437516Y-134412500D01*
X110451623Y-134413292D01*
X110490000Y-134417616D01*
X110528377Y-134413292D01*
X110542484Y-134412500D01*
X110569626Y-134412500D01*
X110569630Y-134412500D01*
X110609154Y-134404637D01*
X110619616Y-134403011D01*
X110671047Y-134397217D01*
X110695079Y-134388806D01*
X110712100Y-134384160D01*
X110725831Y-134381430D01*
X110775166Y-134360993D01*
X110781754Y-134358478D01*
X110843015Y-134337043D01*
X110853407Y-134330513D01*
X110872234Y-134320786D01*
X110872968Y-134320483D01*
X110928324Y-134283495D01*
X110931120Y-134281682D01*
X110997281Y-134240111D01*
X111126111Y-134111281D01*
X111167682Y-134045120D01*
X111169495Y-134042324D01*
X111206483Y-133986968D01*
X111206786Y-133986234D01*
X111216513Y-133967407D01*
X111223040Y-133957019D01*
X111223043Y-133957015D01*
X111244478Y-133895754D01*
X111246996Y-133889160D01*
X111248680Y-133885096D01*
X111267430Y-133839831D01*
X111270160Y-133826100D01*
X111274808Y-133809076D01*
X111283217Y-133785047D01*
X111289012Y-133733609D01*
X111290639Y-133723144D01*
X111298500Y-133683630D01*
X111298500Y-133656483D01*
X111299292Y-133642376D01*
X111299779Y-133638051D01*
X111303616Y-133604000D01*
X111299292Y-133565623D01*
X111298500Y-133551516D01*
X111298500Y-131063999D01*
X119836384Y-131063999D01*
X119836384Y-131064001D01*
X119840442Y-131100026D01*
X119841232Y-131114765D01*
X119841107Y-131139534D01*
X119841107Y-131139537D01*
X119849215Y-131181406D01*
X119850721Y-131191251D01*
X119856782Y-131245044D01*
X119856782Y-131245045D01*
X119859090Y-131251641D01*
X119864408Y-131266840D01*
X119869177Y-131284486D01*
X119871386Y-131295893D01*
X119892474Y-131347542D01*
X119894751Y-131353554D01*
X119916956Y-131417014D01*
X119916957Y-131417015D01*
X119922219Y-131425390D01*
X119928638Y-131437893D01*
X119928696Y-131437863D01*
X119931585Y-131443334D01*
X119931587Y-131443337D01*
X119969564Y-131500802D01*
X119971113Y-131503206D01*
X120005668Y-131558198D01*
X120013889Y-131571281D01*
X120076891Y-131634283D01*
X120101384Y-131659025D01*
X120132494Y-131690452D01*
X120138847Y-131696239D01*
X120142719Y-131700111D01*
X120201881Y-131737285D01*
X120206759Y-131740350D01*
X120210252Y-131742626D01*
X120263410Y-131778535D01*
X120266344Y-131779768D01*
X120284570Y-131789242D01*
X120296985Y-131797043D01*
X120355997Y-131817692D01*
X120363191Y-131820459D01*
X120410234Y-131840225D01*
X120410235Y-131840225D01*
X120410237Y-131840226D01*
X120426271Y-131843499D01*
X120442672Y-131848020D01*
X120468953Y-131857217D01*
X120468960Y-131857217D01*
X120468961Y-131857218D01*
X120477524Y-131858182D01*
X120518036Y-131862746D01*
X120529104Y-131864496D01*
X120566278Y-131872087D01*
X120595804Y-131872235D01*
X120609264Y-131873025D01*
X120613978Y-131873557D01*
X120649997Y-131877616D01*
X120650000Y-131877616D01*
X120650004Y-131877616D01*
X120686022Y-131873557D01*
X120700766Y-131872766D01*
X120725300Y-131872890D01*
X120725536Y-131872892D01*
X120725536Y-131872891D01*
X120725537Y-131872892D01*
X120767416Y-131864781D01*
X120777250Y-131863277D01*
X120831047Y-131857217D01*
X120852841Y-131849590D01*
X120870494Y-131844821D01*
X120881892Y-131842614D01*
X120933527Y-131821531D01*
X120939530Y-131819256D01*
X121003015Y-131797043D01*
X121011384Y-131791783D01*
X121023891Y-131785363D01*
X121023861Y-131785305D01*
X121029333Y-131782415D01*
X121029334Y-131782414D01*
X121029337Y-131782413D01*
X121086868Y-131744390D01*
X121089148Y-131742920D01*
X121157281Y-131700111D01*
X121157285Y-131700107D01*
X121162815Y-131695698D01*
X121162973Y-131695896D01*
X121174549Y-131686443D01*
X121773365Y-131290697D01*
X121780729Y-131286311D01*
X121830107Y-131253317D01*
X121846180Y-131242577D01*
X121846536Y-131242339D01*
X121911203Y-131199604D01*
X121911206Y-131199600D01*
X121911286Y-131199548D01*
X121912579Y-131198487D01*
X121913110Y-131198053D01*
X121914326Y-131197065D01*
X121914385Y-131197005D01*
X121914389Y-131197003D01*
X121969233Y-131142158D01*
X122024387Y-131087561D01*
X122024390Y-131087556D01*
X122024443Y-131087504D01*
X122025376Y-131086368D01*
X122025799Y-131085855D01*
X122026948Y-131084468D01*
X122026996Y-131084395D01*
X122027003Y-131084389D01*
X122070038Y-131019980D01*
X122113536Y-130955590D01*
X122113537Y-130955586D01*
X122113585Y-130955516D01*
X122114278Y-130954221D01*
X122114574Y-130953670D01*
X122115443Y-130952061D01*
X122115479Y-130951973D01*
X122115483Y-130951968D01*
X122145123Y-130880410D01*
X122175227Y-130808763D01*
X122175227Y-130808761D01*
X122175257Y-130808691D01*
X122175684Y-130807285D01*
X122175862Y-130806704D01*
X122176412Y-130804922D01*
X122183359Y-130769994D01*
X122191543Y-130728849D01*
X122207087Y-130652722D01*
X122207087Y-130652718D01*
X122207105Y-130652630D01*
X122207247Y-130651193D01*
X122207311Y-130650553D01*
X122207500Y-130648729D01*
X122207500Y-130571359D01*
X122207502Y-130570720D01*
X122207901Y-130491991D01*
X122207500Y-130483384D01*
X122207500Y-127547483D01*
X122208292Y-127533376D01*
X122210206Y-127516389D01*
X122212616Y-127495000D01*
X122208292Y-127456623D01*
X122207500Y-127442516D01*
X122207500Y-127415373D01*
X122207500Y-127415370D01*
X122199636Y-127375841D01*
X122198010Y-127365377D01*
X122194843Y-127337268D01*
X122192217Y-127313953D01*
X122183807Y-127289920D01*
X122179157Y-127272882D01*
X122176430Y-127259169D01*
X122155995Y-127209836D01*
X122153481Y-127203252D01*
X122132043Y-127141985D01*
X122132041Y-127141982D01*
X122132041Y-127141981D01*
X122125514Y-127131594D01*
X122115790Y-127112773D01*
X122115483Y-127112032D01*
X122078538Y-127056739D01*
X122076617Y-127053775D01*
X122076607Y-127053759D01*
X122035111Y-126987719D01*
X122035109Y-126987717D01*
X122035108Y-126987715D01*
X121906285Y-126858892D01*
X121906281Y-126858889D01*
X121840205Y-126817369D01*
X121837243Y-126815449D01*
X121781970Y-126778518D01*
X121781971Y-126778518D01*
X121781704Y-126778407D01*
X121781216Y-126778205D01*
X121762409Y-126768488D01*
X121752014Y-126761956D01*
X121690778Y-126740529D01*
X121684175Y-126738009D01*
X121634836Y-126717572D01*
X121634835Y-126717571D01*
X121634831Y-126717570D01*
X121634828Y-126717569D01*
X121634827Y-126717569D01*
X121621103Y-126714839D01*
X121604076Y-126710191D01*
X121580047Y-126701783D01*
X121580042Y-126701782D01*
X121528609Y-126695986D01*
X121518138Y-126694358D01*
X121478635Y-126686500D01*
X121478630Y-126686500D01*
X121451484Y-126686500D01*
X121437377Y-126685708D01*
X121399000Y-126681384D01*
X121360623Y-126685708D01*
X121346516Y-126686500D01*
X121319364Y-126686500D01*
X121279862Y-126694358D01*
X121269391Y-126695986D01*
X121217954Y-126701782D01*
X121217949Y-126701783D01*
X121193920Y-126710192D01*
X121176891Y-126714840D01*
X121163173Y-126717568D01*
X121163161Y-126717572D01*
X121113827Y-126738007D01*
X121107225Y-126740527D01*
X121045985Y-126761957D01*
X121045983Y-126761957D01*
X121045983Y-126761958D01*
X121035582Y-126768493D01*
X121016787Y-126778203D01*
X121016045Y-126778510D01*
X121016027Y-126778520D01*
X120960721Y-126815472D01*
X120957759Y-126817391D01*
X120891722Y-126858885D01*
X120891716Y-126858890D01*
X120762890Y-126987716D01*
X120762885Y-126987722D01*
X120721391Y-127053759D01*
X120719472Y-127056721D01*
X120682520Y-127112027D01*
X120682510Y-127112045D01*
X120682203Y-127112787D01*
X120672493Y-127131582D01*
X120665958Y-127141983D01*
X120665957Y-127141985D01*
X120654330Y-127175212D01*
X120644527Y-127203227D01*
X120642007Y-127209827D01*
X120621572Y-127259161D01*
X120621568Y-127259173D01*
X120618840Y-127272891D01*
X120614192Y-127289920D01*
X120605783Y-127313949D01*
X120605782Y-127313954D01*
X120599986Y-127365391D01*
X120598358Y-127375862D01*
X120590500Y-127415364D01*
X120590500Y-127442516D01*
X120589708Y-127456623D01*
X120585384Y-127494999D01*
X120589708Y-127533376D01*
X120590500Y-127547483D01*
X120590500Y-130066453D01*
X120570498Y-130134574D01*
X120533970Y-130171571D01*
X120213212Y-130383553D01*
X120210781Y-130385121D01*
X120142716Y-130427890D01*
X120079867Y-130490739D01*
X120079417Y-130491186D01*
X120024614Y-130545439D01*
X120024612Y-130545440D01*
X120023557Y-130546486D01*
X120017784Y-130552822D01*
X120013894Y-130556712D01*
X120013888Y-130556719D01*
X119991239Y-130592765D01*
X119973627Y-130620793D01*
X119971373Y-130624252D01*
X119935466Y-130677408D01*
X119935458Y-130677423D01*
X119934227Y-130680353D01*
X119924759Y-130698567D01*
X119916956Y-130710985D01*
X119896307Y-130769994D01*
X119893544Y-130777179D01*
X119873772Y-130824239D01*
X119870497Y-130840278D01*
X119865977Y-130856672D01*
X119856784Y-130882947D01*
X119856782Y-130882953D01*
X119851252Y-130932031D01*
X119849498Y-130943126D01*
X119841913Y-130980273D01*
X119841912Y-130980284D01*
X119841763Y-131009797D01*
X119840973Y-131023263D01*
X119836384Y-131063999D01*
X111298500Y-131063999D01*
X111298500Y-125252983D01*
X111299292Y-125238876D01*
X111300067Y-125231994D01*
X111303616Y-125200500D01*
X111299292Y-125162123D01*
X111298500Y-125148016D01*
X111298500Y-125120873D01*
X111298500Y-125120870D01*
X111290636Y-125081341D01*
X111289010Y-125070877D01*
X111288407Y-125065527D01*
X111283217Y-125019453D01*
X111274807Y-124995420D01*
X111270157Y-124978382D01*
X111269707Y-124976117D01*
X111267430Y-124964669D01*
X111266699Y-124962905D01*
X111246998Y-124915344D01*
X111244481Y-124908752D01*
X111223043Y-124847485D01*
X111223041Y-124847482D01*
X111223041Y-124847481D01*
X111216514Y-124837094D01*
X111206790Y-124818273D01*
X111206483Y-124817532D01*
X111169538Y-124762239D01*
X111167617Y-124759275D01*
X111160737Y-124748325D01*
X111126111Y-124693219D01*
X111126109Y-124693217D01*
X111126108Y-124693215D01*
X110997285Y-124564392D01*
X110997281Y-124564389D01*
X110931205Y-124522869D01*
X110928243Y-124520949D01*
X110872970Y-124484018D01*
X110872971Y-124484018D01*
X110872704Y-124483907D01*
X110872216Y-124483705D01*
X110853409Y-124473988D01*
X110843014Y-124467456D01*
X110781778Y-124446029D01*
X110775175Y-124443509D01*
X110725836Y-124423072D01*
X110725835Y-124423071D01*
X110725831Y-124423070D01*
X110725828Y-124423069D01*
X110725827Y-124423069D01*
X110712103Y-124420339D01*
X110695076Y-124415691D01*
X110671047Y-124407283D01*
X110671042Y-124407282D01*
X110619609Y-124401486D01*
X110609138Y-124399858D01*
X110569635Y-124392000D01*
X110569630Y-124392000D01*
X110542484Y-124392000D01*
X110528377Y-124391208D01*
X110490000Y-124386884D01*
X110451623Y-124391208D01*
X110437516Y-124392000D01*
X110410364Y-124392000D01*
X110370862Y-124399858D01*
X110360391Y-124401486D01*
X110308954Y-124407282D01*
X110308949Y-124407283D01*
X110284920Y-124415692D01*
X110267891Y-124420340D01*
X110254173Y-124423068D01*
X110254161Y-124423072D01*
X110204827Y-124443507D01*
X110198225Y-124446027D01*
X110136985Y-124467457D01*
X110136983Y-124467457D01*
X110136983Y-124467458D01*
X110126582Y-124473993D01*
X110107787Y-124483703D01*
X110107045Y-124484010D01*
X110107027Y-124484020D01*
X110051721Y-124520972D01*
X110048759Y-124522891D01*
X109982722Y-124564385D01*
X109982716Y-124564390D01*
X109853890Y-124693216D01*
X109853885Y-124693222D01*
X109812391Y-124759259D01*
X109810472Y-124762221D01*
X109773520Y-124817527D01*
X109773510Y-124817545D01*
X109773203Y-124818287D01*
X109763493Y-124837082D01*
X109756958Y-124847483D01*
X109756957Y-124847485D01*
X109741969Y-124890317D01*
X109735527Y-124908727D01*
X109733007Y-124915327D01*
X109712572Y-124964661D01*
X109712568Y-124964673D01*
X109709840Y-124978391D01*
X109705192Y-124995420D01*
X109696783Y-125019449D01*
X109696782Y-125019454D01*
X109690986Y-125070891D01*
X109689358Y-125081362D01*
X109681500Y-125120864D01*
X109681500Y-125148016D01*
X109680708Y-125162123D01*
X109676541Y-125199111D01*
X109676384Y-125200500D01*
X108504500Y-125200500D01*
X108504500Y-122920000D01*
X122694807Y-122920000D01*
X122713542Y-123134142D01*
X122743074Y-123244357D01*
X122769177Y-123341774D01*
X122769179Y-123341780D01*
X122860024Y-123536597D01*
X122940816Y-123651981D01*
X122983319Y-123712681D01*
X123135319Y-123864681D01*
X123311403Y-123987976D01*
X123463672Y-124058980D01*
X123499753Y-124075805D01*
X123553038Y-124122722D01*
X123572499Y-124191000D01*
X123551957Y-124258959D01*
X123499753Y-124304195D01*
X123311400Y-124392025D01*
X123135323Y-124515314D01*
X123135313Y-124515323D01*
X122983323Y-124667313D01*
X122983314Y-124667323D01*
X122860025Y-124843400D01*
X122769179Y-125038220D01*
X122769177Y-125038225D01*
X122730334Y-125183189D01*
X122713542Y-125245858D01*
X122694807Y-125460000D01*
X122713542Y-125674142D01*
X122736780Y-125760865D01*
X122769177Y-125881774D01*
X122769179Y-125881780D01*
X122825385Y-126002314D01*
X122860024Y-126076597D01*
X122983319Y-126252681D01*
X123135319Y-126404681D01*
X123311403Y-126527976D01*
X123500345Y-126616081D01*
X123553629Y-126662997D01*
X123573090Y-126731274D01*
X123552548Y-126799234D01*
X123500345Y-126844469D01*
X123311656Y-126932457D01*
X123311654Y-126932458D01*
X123257550Y-126970341D01*
X123887209Y-127600000D01*
X123875339Y-127600000D01*
X123773606Y-127627259D01*
X123682394Y-127679920D01*
X123607920Y-127754394D01*
X123555259Y-127845606D01*
X123528000Y-127947339D01*
X123528000Y-127959209D01*
X122898341Y-127329550D01*
X122860459Y-127383653D01*
X122769650Y-127578392D01*
X122769648Y-127578396D01*
X122714036Y-127785947D01*
X122695309Y-128000000D01*
X122714036Y-128214052D01*
X122769648Y-128421603D01*
X122769650Y-128421608D01*
X122860457Y-128616345D01*
X122898341Y-128670447D01*
X123528000Y-128040788D01*
X123528000Y-128052661D01*
X123555259Y-128154394D01*
X123607920Y-128245606D01*
X123682394Y-128320080D01*
X123773606Y-128372741D01*
X123875339Y-128400000D01*
X123887210Y-128400000D01*
X123257551Y-129029657D01*
X123257551Y-129029658D01*
X123311655Y-129067542D01*
X123311654Y-129067542D01*
X123506391Y-129158349D01*
X123506396Y-129158351D01*
X123713947Y-129213963D01*
X123928000Y-129232690D01*
X124142052Y-129213963D01*
X124349603Y-129158351D01*
X124349608Y-129158349D01*
X124544346Y-129067541D01*
X124598447Y-129029657D01*
X124598447Y-129029656D01*
X123968791Y-128400000D01*
X123980661Y-128400000D01*
X124082394Y-128372741D01*
X124173606Y-128320080D01*
X124248080Y-128245606D01*
X124300741Y-128154394D01*
X124328000Y-128052661D01*
X124328000Y-128040791D01*
X124957656Y-128670447D01*
X124957657Y-128670447D01*
X124995541Y-128616346D01*
X125086349Y-128421608D01*
X125086351Y-128421603D01*
X125141963Y-128214052D01*
X125160690Y-128000000D01*
X125141963Y-127785947D01*
X125086351Y-127578396D01*
X125086349Y-127578392D01*
X124995541Y-127383654D01*
X124957658Y-127329551D01*
X124957657Y-127329551D01*
X124328000Y-127959208D01*
X124328000Y-127947339D01*
X124300741Y-127845606D01*
X124248080Y-127754394D01*
X124173606Y-127679920D01*
X124082394Y-127627259D01*
X123980661Y-127600000D01*
X123968790Y-127600000D01*
X124598447Y-126970341D01*
X124598447Y-126970340D01*
X124544344Y-126932457D01*
X124544345Y-126932457D01*
X124355655Y-126844470D01*
X124302370Y-126797553D01*
X124282909Y-126729275D01*
X124303451Y-126661316D01*
X124355654Y-126616081D01*
X124544597Y-126527976D01*
X124720681Y-126404681D01*
X124872681Y-126252681D01*
X124995976Y-126076597D01*
X125086822Y-125881777D01*
X125142458Y-125674142D01*
X125161193Y-125460000D01*
X125142458Y-125245858D01*
X125086822Y-125038223D01*
X124995976Y-124843404D01*
X124995975Y-124843403D01*
X124995974Y-124843400D01*
X124872685Y-124667323D01*
X124872682Y-124667320D01*
X124810139Y-124604777D01*
X124720681Y-124515319D01*
X124688283Y-124492634D01*
X124544597Y-124392024D01*
X124507932Y-124374927D01*
X124356244Y-124304194D01*
X124302961Y-124257278D01*
X124283500Y-124189001D01*
X124304042Y-124121041D01*
X124356244Y-124075805D01*
X124544597Y-123987976D01*
X124720681Y-123864681D01*
X124872681Y-123712681D01*
X124995976Y-123536597D01*
X125086822Y-123341777D01*
X125142458Y-123134142D01*
X125161193Y-122920000D01*
X144844807Y-122920000D01*
X144863542Y-123134142D01*
X144893074Y-123244357D01*
X144919177Y-123341774D01*
X144919179Y-123341780D01*
X145010024Y-123536597D01*
X145090816Y-123651981D01*
X145133319Y-123712681D01*
X145285319Y-123864681D01*
X145461403Y-123987976D01*
X145613672Y-124058980D01*
X145649753Y-124075805D01*
X145703038Y-124122722D01*
X145722499Y-124191000D01*
X145701957Y-124258959D01*
X145649753Y-124304195D01*
X145461400Y-124392025D01*
X145285323Y-124515314D01*
X145285313Y-124515323D01*
X145133323Y-124667313D01*
X145133314Y-124667323D01*
X145010025Y-124843400D01*
X144919179Y-125038220D01*
X144919177Y-125038225D01*
X144880334Y-125183189D01*
X144863542Y-125245858D01*
X144844807Y-125460000D01*
X144863542Y-125674142D01*
X144886780Y-125760865D01*
X144919177Y-125881774D01*
X144919179Y-125881780D01*
X144975385Y-126002314D01*
X145010024Y-126076597D01*
X145133319Y-126252681D01*
X145285319Y-126404681D01*
X145461403Y-126527976D01*
X145650345Y-126616081D01*
X145703629Y-126662997D01*
X145723090Y-126731274D01*
X145702548Y-126799234D01*
X145650345Y-126844469D01*
X145461656Y-126932457D01*
X145461654Y-126932458D01*
X145407550Y-126970341D01*
X146037209Y-127600000D01*
X146025339Y-127600000D01*
X145923606Y-127627259D01*
X145832394Y-127679920D01*
X145757920Y-127754394D01*
X145705259Y-127845606D01*
X145678000Y-127947339D01*
X145678000Y-127959209D01*
X145048341Y-127329550D01*
X145010459Y-127383653D01*
X144919650Y-127578392D01*
X144919648Y-127578396D01*
X144864036Y-127785947D01*
X144845309Y-128000000D01*
X144864036Y-128214052D01*
X144919648Y-128421603D01*
X144919650Y-128421608D01*
X145010457Y-128616345D01*
X145048341Y-128670447D01*
X145678000Y-128040788D01*
X145678000Y-128052661D01*
X145705259Y-128154394D01*
X145757920Y-128245606D01*
X145832394Y-128320080D01*
X145923606Y-128372741D01*
X146025339Y-128400000D01*
X146037210Y-128400000D01*
X145407551Y-129029657D01*
X145407551Y-129029658D01*
X145461655Y-129067542D01*
X145461654Y-129067542D01*
X145656391Y-129158349D01*
X145656396Y-129158351D01*
X145863947Y-129213963D01*
X146078000Y-129232690D01*
X146292052Y-129213963D01*
X146499603Y-129158351D01*
X146499608Y-129158349D01*
X146694346Y-129067541D01*
X146748447Y-129029657D01*
X146748447Y-129029656D01*
X146118791Y-128400000D01*
X146130661Y-128400000D01*
X146232394Y-128372741D01*
X146323606Y-128320080D01*
X146398080Y-128245606D01*
X146450741Y-128154394D01*
X146478000Y-128052661D01*
X146478000Y-128040791D01*
X147107656Y-128670447D01*
X147107657Y-128670447D01*
X147145541Y-128616346D01*
X147236349Y-128421608D01*
X147236351Y-128421603D01*
X147291963Y-128214052D01*
X147310690Y-128000000D01*
X147291963Y-127785947D01*
X147236351Y-127578396D01*
X147236349Y-127578392D01*
X147145541Y-127383654D01*
X147107658Y-127329551D01*
X147107657Y-127329551D01*
X146478000Y-127959208D01*
X146478000Y-127947339D01*
X146450741Y-127845606D01*
X146398080Y-127754394D01*
X146323606Y-127679920D01*
X146232394Y-127627259D01*
X146130661Y-127600000D01*
X146118790Y-127600000D01*
X146748447Y-126970341D01*
X146748447Y-126970340D01*
X146694344Y-126932457D01*
X146694345Y-126932457D01*
X146505655Y-126844470D01*
X146452370Y-126797553D01*
X146432909Y-126729275D01*
X146453451Y-126661316D01*
X146505654Y-126616081D01*
X146694597Y-126527976D01*
X146870681Y-126404681D01*
X147022681Y-126252681D01*
X147145976Y-126076597D01*
X147236822Y-125881777D01*
X147292458Y-125674142D01*
X147311193Y-125460000D01*
X147292458Y-125245858D01*
X147236822Y-125038223D01*
X147145976Y-124843404D01*
X147145975Y-124843403D01*
X147145974Y-124843400D01*
X147022685Y-124667323D01*
X147022682Y-124667320D01*
X146960139Y-124604777D01*
X146870681Y-124515319D01*
X146838283Y-124492634D01*
X146694597Y-124392024D01*
X146657932Y-124374927D01*
X146506244Y-124304194D01*
X146452961Y-124257278D01*
X146433500Y-124189001D01*
X146454042Y-124121041D01*
X146506244Y-124075805D01*
X146694597Y-123987976D01*
X146870681Y-123864681D01*
X147022681Y-123712681D01*
X147145976Y-123536597D01*
X147236822Y-123341777D01*
X147292458Y-123134142D01*
X147311193Y-122920000D01*
X147292458Y-122705858D01*
X147236822Y-122498223D01*
X147145976Y-122303404D01*
X147145975Y-122303403D01*
X147145974Y-122303400D01*
X147022685Y-122127323D01*
X147022682Y-122127320D01*
X146973122Y-122077760D01*
X146870681Y-121975319D01*
X146694597Y-121852024D01*
X146685536Y-121847799D01*
X146499780Y-121761179D01*
X146499774Y-121761177D01*
X146412019Y-121737663D01*
X146292142Y-121705542D01*
X146078000Y-121686807D01*
X145863858Y-121705542D01*
X145656225Y-121761177D01*
X145656220Y-121761179D01*
X145461400Y-121852025D01*
X145285323Y-121975314D01*
X145285313Y-121975323D01*
X145133323Y-122127313D01*
X145133314Y-122127323D01*
X145010025Y-122303400D01*
X144923169Y-122489664D01*
X144919178Y-122498223D01*
X144863542Y-122705858D01*
X144844807Y-122920000D01*
X125161193Y-122920000D01*
X125142458Y-122705858D01*
X125086822Y-122498223D01*
X124995976Y-122303404D01*
X124995975Y-122303403D01*
X124995974Y-122303400D01*
X124872685Y-122127323D01*
X124872682Y-122127320D01*
X124823122Y-122077760D01*
X124720681Y-121975319D01*
X124544597Y-121852024D01*
X124535536Y-121847799D01*
X124349780Y-121761179D01*
X124349774Y-121761177D01*
X124262019Y-121737663D01*
X124142142Y-121705542D01*
X123928000Y-121686807D01*
X123713858Y-121705542D01*
X123506225Y-121761177D01*
X123506220Y-121761179D01*
X123311400Y-121852025D01*
X123135323Y-121975314D01*
X123135313Y-121975323D01*
X122983323Y-122127313D01*
X122983314Y-122127323D01*
X122860025Y-122303400D01*
X122773169Y-122489664D01*
X122769178Y-122498223D01*
X122713542Y-122705858D01*
X122694807Y-122920000D01*
X108504500Y-122920000D01*
X108504500Y-120956483D01*
X108505292Y-120942376D01*
X108505325Y-120942077D01*
X108509616Y-120904000D01*
X108505292Y-120865623D01*
X108504500Y-120851516D01*
X108504500Y-120824373D01*
X108504500Y-120824370D01*
X108496636Y-120784841D01*
X108495010Y-120774377D01*
X108489217Y-120722954D01*
X108480809Y-120698927D01*
X108476157Y-120681882D01*
X108473429Y-120668166D01*
X108452998Y-120618844D01*
X108450481Y-120612252D01*
X108429043Y-120550985D01*
X108429041Y-120550982D01*
X108429041Y-120550981D01*
X108422514Y-120540594D01*
X108412790Y-120521773D01*
X108412483Y-120521032D01*
X108375538Y-120465739D01*
X108373617Y-120462775D01*
X108332108Y-120396715D01*
X108219823Y-120284430D01*
X108185797Y-120222118D01*
X108190862Y-120151303D01*
X108233409Y-120094467D01*
X108299929Y-120069656D01*
X108308842Y-120069335D01*
X151224158Y-120050056D01*
X151292287Y-120070027D01*
G37*
%TD.AperFunction*%
%TD*%
M02*
