%TF.GenerationSoftware,KiCad,Pcbnew,8.0.5*%
%TF.CreationDate,2025-01-25T11:58:12-08:00*%
%TF.ProjectId,sub,7375622e-6b69-4636-9164-5f7063625858,3.1*%
%TF.SameCoordinates,Original*%
%TF.FileFunction,Legend,Top*%
%TF.FilePolarity,Positive*%
%FSLAX46Y46*%
G04 Gerber Fmt 4.6, Leading zero omitted, Abs format (unit mm)*
G04 Created by KiCad (PCBNEW 8.0.5) date 2025-01-25 11:58:12*
%MOMM*%
%LPD*%
G01*
G04 APERTURE LIST*
%ADD10C,0.150000*%
%ADD11C,0.200000*%
%ADD12C,0.120000*%
%ADD13C,0.010000*%
G04 APERTURE END LIST*
D10*
X58654819Y-138583333D02*
X59369104Y-138583333D01*
X59369104Y-138583333D02*
X59511961Y-138630952D01*
X59511961Y-138630952D02*
X59607200Y-138726190D01*
X59607200Y-138726190D02*
X59654819Y-138869047D01*
X59654819Y-138869047D02*
X59654819Y-138964285D01*
X59654819Y-137583333D02*
X59654819Y-138154761D01*
X59654819Y-137869047D02*
X58654819Y-137869047D01*
X58654819Y-137869047D02*
X58797676Y-137964285D01*
X58797676Y-137964285D02*
X58892914Y-138059523D01*
X58892914Y-138059523D02*
X58940533Y-138154761D01*
X70397200Y-145323332D02*
X70444819Y-145180475D01*
X70444819Y-145180475D02*
X70444819Y-144942380D01*
X70444819Y-144942380D02*
X70397200Y-144847142D01*
X70397200Y-144847142D02*
X70349580Y-144799523D01*
X70349580Y-144799523D02*
X70254342Y-144751904D01*
X70254342Y-144751904D02*
X70159104Y-144751904D01*
X70159104Y-144751904D02*
X70063866Y-144799523D01*
X70063866Y-144799523D02*
X70016247Y-144847142D01*
X70016247Y-144847142D02*
X69968628Y-144942380D01*
X69968628Y-144942380D02*
X69921009Y-145132856D01*
X69921009Y-145132856D02*
X69873390Y-145228094D01*
X69873390Y-145228094D02*
X69825771Y-145275713D01*
X69825771Y-145275713D02*
X69730533Y-145323332D01*
X69730533Y-145323332D02*
X69635295Y-145323332D01*
X69635295Y-145323332D02*
X69540057Y-145275713D01*
X69540057Y-145275713D02*
X69492438Y-145228094D01*
X69492438Y-145228094D02*
X69444819Y-145132856D01*
X69444819Y-145132856D02*
X69444819Y-144894761D01*
X69444819Y-144894761D02*
X69492438Y-144751904D01*
X69444819Y-144418570D02*
X70444819Y-144180475D01*
X70444819Y-144180475D02*
X69730533Y-143989999D01*
X69730533Y-143989999D02*
X70444819Y-143799523D01*
X70444819Y-143799523D02*
X69444819Y-143561428D01*
X69540057Y-143228094D02*
X69492438Y-143180475D01*
X69492438Y-143180475D02*
X69444819Y-143085237D01*
X69444819Y-143085237D02*
X69444819Y-142847142D01*
X69444819Y-142847142D02*
X69492438Y-142751904D01*
X69492438Y-142751904D02*
X69540057Y-142704285D01*
X69540057Y-142704285D02*
X69635295Y-142656666D01*
X69635295Y-142656666D02*
X69730533Y-142656666D01*
X69730533Y-142656666D02*
X69873390Y-142704285D01*
X69873390Y-142704285D02*
X70444819Y-143275713D01*
X70444819Y-143275713D02*
X70444819Y-142656666D01*
X89564819Y-132803333D02*
X90279104Y-132803333D01*
X90279104Y-132803333D02*
X90421961Y-132850952D01*
X90421961Y-132850952D02*
X90517200Y-132946190D01*
X90517200Y-132946190D02*
X90564819Y-133089047D01*
X90564819Y-133089047D02*
X90564819Y-133184285D01*
X89564819Y-131850952D02*
X89564819Y-132327142D01*
X89564819Y-132327142D02*
X90041009Y-132374761D01*
X90041009Y-132374761D02*
X89993390Y-132327142D01*
X89993390Y-132327142D02*
X89945771Y-132231904D01*
X89945771Y-132231904D02*
X89945771Y-131993809D01*
X89945771Y-131993809D02*
X89993390Y-131898571D01*
X89993390Y-131898571D02*
X90041009Y-131850952D01*
X90041009Y-131850952D02*
X90136247Y-131803333D01*
X90136247Y-131803333D02*
X90374342Y-131803333D01*
X90374342Y-131803333D02*
X90469580Y-131850952D01*
X90469580Y-131850952D02*
X90517200Y-131898571D01*
X90517200Y-131898571D02*
X90564819Y-131993809D01*
X90564819Y-131993809D02*
X90564819Y-132231904D01*
X90564819Y-132231904D02*
X90517200Y-132327142D01*
X90517200Y-132327142D02*
X90469580Y-132374761D01*
X48291905Y-147904819D02*
X48291905Y-146904819D01*
X48291905Y-146904819D02*
X48530000Y-146904819D01*
X48530000Y-146904819D02*
X48672857Y-146952438D01*
X48672857Y-146952438D02*
X48768095Y-147047676D01*
X48768095Y-147047676D02*
X48815714Y-147142914D01*
X48815714Y-147142914D02*
X48863333Y-147333390D01*
X48863333Y-147333390D02*
X48863333Y-147476247D01*
X48863333Y-147476247D02*
X48815714Y-147666723D01*
X48815714Y-147666723D02*
X48768095Y-147761961D01*
X48768095Y-147761961D02*
X48672857Y-147857200D01*
X48672857Y-147857200D02*
X48530000Y-147904819D01*
X48530000Y-147904819D02*
X48291905Y-147904819D01*
X49815714Y-147904819D02*
X49244286Y-147904819D01*
X49530000Y-147904819D02*
X49530000Y-146904819D01*
X49530000Y-146904819D02*
X49434762Y-147047676D01*
X49434762Y-147047676D02*
X49339524Y-147142914D01*
X49339524Y-147142914D02*
X49244286Y-147190533D01*
X146532819Y-132675238D02*
X146056628Y-133008571D01*
X146532819Y-133246666D02*
X145532819Y-133246666D01*
X145532819Y-133246666D02*
X145532819Y-132865714D01*
X145532819Y-132865714D02*
X145580438Y-132770476D01*
X145580438Y-132770476D02*
X145628057Y-132722857D01*
X145628057Y-132722857D02*
X145723295Y-132675238D01*
X145723295Y-132675238D02*
X145866152Y-132675238D01*
X145866152Y-132675238D02*
X145961390Y-132722857D01*
X145961390Y-132722857D02*
X146009009Y-132770476D01*
X146009009Y-132770476D02*
X146056628Y-132865714D01*
X146056628Y-132865714D02*
X146056628Y-133246666D01*
X145532819Y-132389523D02*
X146532819Y-132056190D01*
X146532819Y-132056190D02*
X145532819Y-131722857D01*
X145628057Y-131437142D02*
X145580438Y-131389523D01*
X145580438Y-131389523D02*
X145532819Y-131294285D01*
X145532819Y-131294285D02*
X145532819Y-131056190D01*
X145532819Y-131056190D02*
X145580438Y-130960952D01*
X145580438Y-130960952D02*
X145628057Y-130913333D01*
X145628057Y-130913333D02*
X145723295Y-130865714D01*
X145723295Y-130865714D02*
X145818533Y-130865714D01*
X145818533Y-130865714D02*
X145961390Y-130913333D01*
X145961390Y-130913333D02*
X146532819Y-131484761D01*
X146532819Y-131484761D02*
X146532819Y-130865714D01*
X48605714Y-127144819D02*
X48605714Y-126144819D01*
X48605714Y-126144819D02*
X48843809Y-126144819D01*
X48843809Y-126144819D02*
X48986666Y-126192438D01*
X48986666Y-126192438D02*
X49081904Y-126287676D01*
X49081904Y-126287676D02*
X49129523Y-126382914D01*
X49129523Y-126382914D02*
X49177142Y-126573390D01*
X49177142Y-126573390D02*
X49177142Y-126716247D01*
X49177142Y-126716247D02*
X49129523Y-126906723D01*
X49129523Y-126906723D02*
X49081904Y-127001961D01*
X49081904Y-127001961D02*
X48986666Y-127097200D01*
X48986666Y-127097200D02*
X48843809Y-127144819D01*
X48843809Y-127144819D02*
X48605714Y-127144819D01*
X50129523Y-127144819D02*
X49558095Y-127144819D01*
X49843809Y-127144819D02*
X49843809Y-126144819D01*
X49843809Y-126144819D02*
X49748571Y-126287676D01*
X49748571Y-126287676D02*
X49653333Y-126382914D01*
X49653333Y-126382914D02*
X49558095Y-126430533D01*
X50510476Y-126240057D02*
X50558095Y-126192438D01*
X50558095Y-126192438D02*
X50653333Y-126144819D01*
X50653333Y-126144819D02*
X50891428Y-126144819D01*
X50891428Y-126144819D02*
X50986666Y-126192438D01*
X50986666Y-126192438D02*
X51034285Y-126240057D01*
X51034285Y-126240057D02*
X51081904Y-126335295D01*
X51081904Y-126335295D02*
X51081904Y-126430533D01*
X51081904Y-126430533D02*
X51034285Y-126573390D01*
X51034285Y-126573390D02*
X50462857Y-127144819D01*
X50462857Y-127144819D02*
X51081904Y-127144819D01*
X48580714Y-121494819D02*
X48580714Y-120494819D01*
X48580714Y-120494819D02*
X48818809Y-120494819D01*
X48818809Y-120494819D02*
X48961666Y-120542438D01*
X48961666Y-120542438D02*
X49056904Y-120637676D01*
X49056904Y-120637676D02*
X49104523Y-120732914D01*
X49104523Y-120732914D02*
X49152142Y-120923390D01*
X49152142Y-120923390D02*
X49152142Y-121066247D01*
X49152142Y-121066247D02*
X49104523Y-121256723D01*
X49104523Y-121256723D02*
X49056904Y-121351961D01*
X49056904Y-121351961D02*
X48961666Y-121447200D01*
X48961666Y-121447200D02*
X48818809Y-121494819D01*
X48818809Y-121494819D02*
X48580714Y-121494819D01*
X50104523Y-121494819D02*
X49533095Y-121494819D01*
X49818809Y-121494819D02*
X49818809Y-120494819D01*
X49818809Y-120494819D02*
X49723571Y-120637676D01*
X49723571Y-120637676D02*
X49628333Y-120732914D01*
X49628333Y-120732914D02*
X49533095Y-120780533D01*
X50723571Y-120494819D02*
X50818809Y-120494819D01*
X50818809Y-120494819D02*
X50914047Y-120542438D01*
X50914047Y-120542438D02*
X50961666Y-120590057D01*
X50961666Y-120590057D02*
X51009285Y-120685295D01*
X51009285Y-120685295D02*
X51056904Y-120875771D01*
X51056904Y-120875771D02*
X51056904Y-121113866D01*
X51056904Y-121113866D02*
X51009285Y-121304342D01*
X51009285Y-121304342D02*
X50961666Y-121399580D01*
X50961666Y-121399580D02*
X50914047Y-121447200D01*
X50914047Y-121447200D02*
X50818809Y-121494819D01*
X50818809Y-121494819D02*
X50723571Y-121494819D01*
X50723571Y-121494819D02*
X50628333Y-121447200D01*
X50628333Y-121447200D02*
X50580714Y-121399580D01*
X50580714Y-121399580D02*
X50533095Y-121304342D01*
X50533095Y-121304342D02*
X50485476Y-121113866D01*
X50485476Y-121113866D02*
X50485476Y-120875771D01*
X50485476Y-120875771D02*
X50533095Y-120685295D01*
X50533095Y-120685295D02*
X50580714Y-120590057D01*
X50580714Y-120590057D02*
X50628333Y-120542438D01*
X50628333Y-120542438D02*
X50723571Y-120494819D01*
X43520714Y-127144819D02*
X43520714Y-126144819D01*
X43520714Y-126144819D02*
X43758809Y-126144819D01*
X43758809Y-126144819D02*
X43901666Y-126192438D01*
X43901666Y-126192438D02*
X43996904Y-126287676D01*
X43996904Y-126287676D02*
X44044523Y-126382914D01*
X44044523Y-126382914D02*
X44092142Y-126573390D01*
X44092142Y-126573390D02*
X44092142Y-126716247D01*
X44092142Y-126716247D02*
X44044523Y-126906723D01*
X44044523Y-126906723D02*
X43996904Y-127001961D01*
X43996904Y-127001961D02*
X43901666Y-127097200D01*
X43901666Y-127097200D02*
X43758809Y-127144819D01*
X43758809Y-127144819D02*
X43520714Y-127144819D01*
X45044523Y-127144819D02*
X44473095Y-127144819D01*
X44758809Y-127144819D02*
X44758809Y-126144819D01*
X44758809Y-126144819D02*
X44663571Y-126287676D01*
X44663571Y-126287676D02*
X44568333Y-126382914D01*
X44568333Y-126382914D02*
X44473095Y-126430533D01*
X45996904Y-127144819D02*
X45425476Y-127144819D01*
X45711190Y-127144819D02*
X45711190Y-126144819D01*
X45711190Y-126144819D02*
X45615952Y-126287676D01*
X45615952Y-126287676D02*
X45520714Y-126382914D01*
X45520714Y-126382914D02*
X45425476Y-126430533D01*
X103354819Y-143583333D02*
X104069104Y-143583333D01*
X104069104Y-143583333D02*
X104211961Y-143630952D01*
X104211961Y-143630952D02*
X104307200Y-143726190D01*
X104307200Y-143726190D02*
X104354819Y-143869047D01*
X104354819Y-143869047D02*
X104354819Y-143964285D01*
X103354819Y-143202380D02*
X103354819Y-142583333D01*
X103354819Y-142583333D02*
X103735771Y-142916666D01*
X103735771Y-142916666D02*
X103735771Y-142773809D01*
X103735771Y-142773809D02*
X103783390Y-142678571D01*
X103783390Y-142678571D02*
X103831009Y-142630952D01*
X103831009Y-142630952D02*
X103926247Y-142583333D01*
X103926247Y-142583333D02*
X104164342Y-142583333D01*
X104164342Y-142583333D02*
X104259580Y-142630952D01*
X104259580Y-142630952D02*
X104307200Y-142678571D01*
X104307200Y-142678571D02*
X104354819Y-142773809D01*
X104354819Y-142773809D02*
X104354819Y-143059523D01*
X104354819Y-143059523D02*
X104307200Y-143154761D01*
X104307200Y-143154761D02*
X104259580Y-143202380D01*
X86954819Y-138583333D02*
X87669104Y-138583333D01*
X87669104Y-138583333D02*
X87811961Y-138630952D01*
X87811961Y-138630952D02*
X87907200Y-138726190D01*
X87907200Y-138726190D02*
X87954819Y-138869047D01*
X87954819Y-138869047D02*
X87954819Y-138964285D01*
X87050057Y-138154761D02*
X87002438Y-138107142D01*
X87002438Y-138107142D02*
X86954819Y-138011904D01*
X86954819Y-138011904D02*
X86954819Y-137773809D01*
X86954819Y-137773809D02*
X87002438Y-137678571D01*
X87002438Y-137678571D02*
X87050057Y-137630952D01*
X87050057Y-137630952D02*
X87145295Y-137583333D01*
X87145295Y-137583333D02*
X87240533Y-137583333D01*
X87240533Y-137583333D02*
X87383390Y-137630952D01*
X87383390Y-137630952D02*
X87954819Y-138202380D01*
X87954819Y-138202380D02*
X87954819Y-137583333D01*
X127797200Y-145323332D02*
X127844819Y-145180475D01*
X127844819Y-145180475D02*
X127844819Y-144942380D01*
X127844819Y-144942380D02*
X127797200Y-144847142D01*
X127797200Y-144847142D02*
X127749580Y-144799523D01*
X127749580Y-144799523D02*
X127654342Y-144751904D01*
X127654342Y-144751904D02*
X127559104Y-144751904D01*
X127559104Y-144751904D02*
X127463866Y-144799523D01*
X127463866Y-144799523D02*
X127416247Y-144847142D01*
X127416247Y-144847142D02*
X127368628Y-144942380D01*
X127368628Y-144942380D02*
X127321009Y-145132856D01*
X127321009Y-145132856D02*
X127273390Y-145228094D01*
X127273390Y-145228094D02*
X127225771Y-145275713D01*
X127225771Y-145275713D02*
X127130533Y-145323332D01*
X127130533Y-145323332D02*
X127035295Y-145323332D01*
X127035295Y-145323332D02*
X126940057Y-145275713D01*
X126940057Y-145275713D02*
X126892438Y-145228094D01*
X126892438Y-145228094D02*
X126844819Y-145132856D01*
X126844819Y-145132856D02*
X126844819Y-144894761D01*
X126844819Y-144894761D02*
X126892438Y-144751904D01*
X126844819Y-144418570D02*
X127844819Y-144180475D01*
X127844819Y-144180475D02*
X127130533Y-143989999D01*
X127130533Y-143989999D02*
X127844819Y-143799523D01*
X127844819Y-143799523D02*
X126844819Y-143561428D01*
X126844819Y-143275713D02*
X126844819Y-142656666D01*
X126844819Y-142656666D02*
X127225771Y-142989999D01*
X127225771Y-142989999D02*
X127225771Y-142847142D01*
X127225771Y-142847142D02*
X127273390Y-142751904D01*
X127273390Y-142751904D02*
X127321009Y-142704285D01*
X127321009Y-142704285D02*
X127416247Y-142656666D01*
X127416247Y-142656666D02*
X127654342Y-142656666D01*
X127654342Y-142656666D02*
X127749580Y-142704285D01*
X127749580Y-142704285D02*
X127797200Y-142751904D01*
X127797200Y-142751904D02*
X127844819Y-142847142D01*
X127844819Y-142847142D02*
X127844819Y-143132856D01*
X127844819Y-143132856D02*
X127797200Y-143228094D01*
X127797200Y-143228094D02*
X127749580Y-143275713D01*
X131654819Y-143583333D02*
X132369104Y-143583333D01*
X132369104Y-143583333D02*
X132511961Y-143630952D01*
X132511961Y-143630952D02*
X132607200Y-143726190D01*
X132607200Y-143726190D02*
X132654819Y-143869047D01*
X132654819Y-143869047D02*
X132654819Y-143964285D01*
X131988152Y-142678571D02*
X132654819Y-142678571D01*
X131607200Y-142916666D02*
X132321485Y-143154761D01*
X132321485Y-143154761D02*
X132321485Y-142535714D01*
X127962819Y-122261238D02*
X127486628Y-122594571D01*
X127962819Y-122832666D02*
X126962819Y-122832666D01*
X126962819Y-122832666D02*
X126962819Y-122451714D01*
X126962819Y-122451714D02*
X127010438Y-122356476D01*
X127010438Y-122356476D02*
X127058057Y-122308857D01*
X127058057Y-122308857D02*
X127153295Y-122261238D01*
X127153295Y-122261238D02*
X127296152Y-122261238D01*
X127296152Y-122261238D02*
X127391390Y-122308857D01*
X127391390Y-122308857D02*
X127439009Y-122356476D01*
X127439009Y-122356476D02*
X127486628Y-122451714D01*
X127486628Y-122451714D02*
X127486628Y-122832666D01*
X126962819Y-121975523D02*
X127962819Y-121642190D01*
X127962819Y-121642190D02*
X126962819Y-121308857D01*
X127962819Y-120451714D02*
X127962819Y-121023142D01*
X127962819Y-120737428D02*
X126962819Y-120737428D01*
X126962819Y-120737428D02*
X127105676Y-120832666D01*
X127105676Y-120832666D02*
X127200914Y-120927904D01*
X127200914Y-120927904D02*
X127248533Y-121023142D01*
X99097200Y-145323332D02*
X99144819Y-145180475D01*
X99144819Y-145180475D02*
X99144819Y-144942380D01*
X99144819Y-144942380D02*
X99097200Y-144847142D01*
X99097200Y-144847142D02*
X99049580Y-144799523D01*
X99049580Y-144799523D02*
X98954342Y-144751904D01*
X98954342Y-144751904D02*
X98859104Y-144751904D01*
X98859104Y-144751904D02*
X98763866Y-144799523D01*
X98763866Y-144799523D02*
X98716247Y-144847142D01*
X98716247Y-144847142D02*
X98668628Y-144942380D01*
X98668628Y-144942380D02*
X98621009Y-145132856D01*
X98621009Y-145132856D02*
X98573390Y-145228094D01*
X98573390Y-145228094D02*
X98525771Y-145275713D01*
X98525771Y-145275713D02*
X98430533Y-145323332D01*
X98430533Y-145323332D02*
X98335295Y-145323332D01*
X98335295Y-145323332D02*
X98240057Y-145275713D01*
X98240057Y-145275713D02*
X98192438Y-145228094D01*
X98192438Y-145228094D02*
X98144819Y-145132856D01*
X98144819Y-145132856D02*
X98144819Y-144894761D01*
X98144819Y-144894761D02*
X98192438Y-144751904D01*
X98144819Y-144418570D02*
X99144819Y-144180475D01*
X99144819Y-144180475D02*
X98430533Y-143989999D01*
X98430533Y-143989999D02*
X99144819Y-143799523D01*
X99144819Y-143799523D02*
X98144819Y-143561428D01*
X99144819Y-142656666D02*
X99144819Y-143228094D01*
X99144819Y-142942380D02*
X98144819Y-142942380D01*
X98144819Y-142942380D02*
X98287676Y-143037618D01*
X98287676Y-143037618D02*
X98382914Y-143132856D01*
X98382914Y-143132856D02*
X98430533Y-143228094D01*
X43951905Y-121494819D02*
X43951905Y-120494819D01*
X43951905Y-120494819D02*
X44190000Y-120494819D01*
X44190000Y-120494819D02*
X44332857Y-120542438D01*
X44332857Y-120542438D02*
X44428095Y-120637676D01*
X44428095Y-120637676D02*
X44475714Y-120732914D01*
X44475714Y-120732914D02*
X44523333Y-120923390D01*
X44523333Y-120923390D02*
X44523333Y-121066247D01*
X44523333Y-121066247D02*
X44475714Y-121256723D01*
X44475714Y-121256723D02*
X44428095Y-121351961D01*
X44428095Y-121351961D02*
X44332857Y-121447200D01*
X44332857Y-121447200D02*
X44190000Y-121494819D01*
X44190000Y-121494819D02*
X43951905Y-121494819D01*
X44999524Y-121494819D02*
X45190000Y-121494819D01*
X45190000Y-121494819D02*
X45285238Y-121447200D01*
X45285238Y-121447200D02*
X45332857Y-121399580D01*
X45332857Y-121399580D02*
X45428095Y-121256723D01*
X45428095Y-121256723D02*
X45475714Y-121066247D01*
X45475714Y-121066247D02*
X45475714Y-120685295D01*
X45475714Y-120685295D02*
X45428095Y-120590057D01*
X45428095Y-120590057D02*
X45380476Y-120542438D01*
X45380476Y-120542438D02*
X45285238Y-120494819D01*
X45285238Y-120494819D02*
X45094762Y-120494819D01*
X45094762Y-120494819D02*
X44999524Y-120542438D01*
X44999524Y-120542438D02*
X44951905Y-120590057D01*
X44951905Y-120590057D02*
X44904286Y-120685295D01*
X44904286Y-120685295D02*
X44904286Y-120923390D01*
X44904286Y-120923390D02*
X44951905Y-121018628D01*
X44951905Y-121018628D02*
X44999524Y-121066247D01*
X44999524Y-121066247D02*
X45094762Y-121113866D01*
X45094762Y-121113866D02*
X45285238Y-121113866D01*
X45285238Y-121113866D02*
X45380476Y-121066247D01*
X45380476Y-121066247D02*
X45428095Y-121018628D01*
X45428095Y-121018628D02*
X45475714Y-120923390D01*
X134841905Y-147904819D02*
X134841905Y-146904819D01*
X134841905Y-146904819D02*
X135080000Y-146904819D01*
X135080000Y-146904819D02*
X135222857Y-146952438D01*
X135222857Y-146952438D02*
X135318095Y-147047676D01*
X135318095Y-147047676D02*
X135365714Y-147142914D01*
X135365714Y-147142914D02*
X135413333Y-147333390D01*
X135413333Y-147333390D02*
X135413333Y-147476247D01*
X135413333Y-147476247D02*
X135365714Y-147666723D01*
X135365714Y-147666723D02*
X135318095Y-147761961D01*
X135318095Y-147761961D02*
X135222857Y-147857200D01*
X135222857Y-147857200D02*
X135080000Y-147904819D01*
X135080000Y-147904819D02*
X134841905Y-147904819D01*
X135746667Y-146904819D02*
X136413333Y-146904819D01*
X136413333Y-146904819D02*
X135984762Y-147904819D01*
X53007200Y-127333332D02*
X53054819Y-127190475D01*
X53054819Y-127190475D02*
X53054819Y-126952380D01*
X53054819Y-126952380D02*
X53007200Y-126857142D01*
X53007200Y-126857142D02*
X52959580Y-126809523D01*
X52959580Y-126809523D02*
X52864342Y-126761904D01*
X52864342Y-126761904D02*
X52769104Y-126761904D01*
X52769104Y-126761904D02*
X52673866Y-126809523D01*
X52673866Y-126809523D02*
X52626247Y-126857142D01*
X52626247Y-126857142D02*
X52578628Y-126952380D01*
X52578628Y-126952380D02*
X52531009Y-127142856D01*
X52531009Y-127142856D02*
X52483390Y-127238094D01*
X52483390Y-127238094D02*
X52435771Y-127285713D01*
X52435771Y-127285713D02*
X52340533Y-127333332D01*
X52340533Y-127333332D02*
X52245295Y-127333332D01*
X52245295Y-127333332D02*
X52150057Y-127285713D01*
X52150057Y-127285713D02*
X52102438Y-127238094D01*
X52102438Y-127238094D02*
X52054819Y-127142856D01*
X52054819Y-127142856D02*
X52054819Y-126904761D01*
X52054819Y-126904761D02*
X52102438Y-126761904D01*
X52054819Y-126428570D02*
X53054819Y-126190475D01*
X53054819Y-126190475D02*
X52340533Y-125999999D01*
X52340533Y-125999999D02*
X53054819Y-125809523D01*
X53054819Y-125809523D02*
X52054819Y-125571428D01*
X52388152Y-124761904D02*
X53054819Y-124761904D01*
X52007200Y-124999999D02*
X52721485Y-125238094D01*
X52721485Y-125238094D02*
X52721485Y-124619047D01*
X76541905Y-147904819D02*
X76541905Y-146904819D01*
X76541905Y-146904819D02*
X76780000Y-146904819D01*
X76780000Y-146904819D02*
X76922857Y-146952438D01*
X76922857Y-146952438D02*
X77018095Y-147047676D01*
X77018095Y-147047676D02*
X77065714Y-147142914D01*
X77065714Y-147142914D02*
X77113333Y-147333390D01*
X77113333Y-147333390D02*
X77113333Y-147476247D01*
X77113333Y-147476247D02*
X77065714Y-147666723D01*
X77065714Y-147666723D02*
X77018095Y-147761961D01*
X77018095Y-147761961D02*
X76922857Y-147857200D01*
X76922857Y-147857200D02*
X76780000Y-147904819D01*
X76780000Y-147904819D02*
X76541905Y-147904819D01*
X77446667Y-146904819D02*
X78065714Y-146904819D01*
X78065714Y-146904819D02*
X77732381Y-147285771D01*
X77732381Y-147285771D02*
X77875238Y-147285771D01*
X77875238Y-147285771D02*
X77970476Y-147333390D01*
X77970476Y-147333390D02*
X78018095Y-147381009D01*
X78018095Y-147381009D02*
X78065714Y-147476247D01*
X78065714Y-147476247D02*
X78065714Y-147714342D01*
X78065714Y-147714342D02*
X78018095Y-147809580D01*
X78018095Y-147809580D02*
X77970476Y-147857200D01*
X77970476Y-147857200D02*
X77875238Y-147904819D01*
X77875238Y-147904819D02*
X77589524Y-147904819D01*
X77589524Y-147904819D02*
X77494286Y-147857200D01*
X77494286Y-147857200D02*
X77446667Y-147809580D01*
X106541905Y-147854819D02*
X106541905Y-146854819D01*
X106541905Y-146854819D02*
X106780000Y-146854819D01*
X106780000Y-146854819D02*
X106922857Y-146902438D01*
X106922857Y-146902438D02*
X107018095Y-146997676D01*
X107018095Y-146997676D02*
X107065714Y-147092914D01*
X107065714Y-147092914D02*
X107113333Y-147283390D01*
X107113333Y-147283390D02*
X107113333Y-147426247D01*
X107113333Y-147426247D02*
X107065714Y-147616723D01*
X107065714Y-147616723D02*
X107018095Y-147711961D01*
X107018095Y-147711961D02*
X106922857Y-147807200D01*
X106922857Y-147807200D02*
X106780000Y-147854819D01*
X106780000Y-147854819D02*
X106541905Y-147854819D01*
X108018095Y-146854819D02*
X107541905Y-146854819D01*
X107541905Y-146854819D02*
X107494286Y-147331009D01*
X107494286Y-147331009D02*
X107541905Y-147283390D01*
X107541905Y-147283390D02*
X107637143Y-147235771D01*
X107637143Y-147235771D02*
X107875238Y-147235771D01*
X107875238Y-147235771D02*
X107970476Y-147283390D01*
X107970476Y-147283390D02*
X108018095Y-147331009D01*
X108018095Y-147331009D02*
X108065714Y-147426247D01*
X108065714Y-147426247D02*
X108065714Y-147664342D01*
X108065714Y-147664342D02*
X108018095Y-147759580D01*
X108018095Y-147759580D02*
X107970476Y-147807200D01*
X107970476Y-147807200D02*
X107875238Y-147854819D01*
X107875238Y-147854819D02*
X107637143Y-147854819D01*
X107637143Y-147854819D02*
X107541905Y-147807200D01*
X107541905Y-147807200D02*
X107494286Y-147759580D01*
D11*
%TO.C,J1*%
X47900000Y-136250000D02*
X47900000Y-139250000D01*
X47900000Y-136250000D02*
X58400000Y-136250000D01*
X47900000Y-142250000D02*
X47900000Y-145250000D01*
X47900000Y-145250000D02*
X58400000Y-145250000D01*
X58400000Y-136250000D02*
X58400000Y-139150000D01*
X58400000Y-142350000D02*
X58400000Y-145250000D01*
D12*
X49811423Y-139453737D02*
G75*
G02*
X55295001Y-140750000I2588577J-1296263D01*
G01*
X55295000Y-140750000D02*
G75*
G02*
X49811424Y-142046263I-2895000J0D01*
G01*
%TO.C,SW2*%
X64740000Y-137590000D02*
X65050000Y-137590000D01*
X64740000Y-146410000D02*
X64740000Y-137590000D01*
X64740000Y-146410000D02*
X65050000Y-146410000D01*
X68950000Y-137590000D02*
X69260000Y-137590000D01*
X69260000Y-137590000D02*
X69260000Y-146410000D01*
X69260000Y-146410000D02*
X68950000Y-146410000D01*
X69460000Y-140000000D02*
X69960000Y-140500000D01*
X69960000Y-139500000D02*
X69460000Y-140000000D01*
X69960000Y-140500000D02*
X69960000Y-139500000D01*
D13*
%TO.C,GR2*%
X117616807Y-129636782D02*
X117640161Y-129646988D01*
X117695902Y-129691134D01*
X117743569Y-129754967D01*
X117773048Y-129823087D01*
X117777846Y-129856670D01*
X117761760Y-129903556D01*
X117726475Y-129928365D01*
X117688644Y-129943387D01*
X117671321Y-129946155D01*
X117662886Y-129926066D01*
X117646230Y-129882351D01*
X117638923Y-129862598D01*
X117597948Y-129794271D01*
X117538622Y-129760191D01*
X117462552Y-129761239D01*
X117456918Y-129762581D01*
X117416305Y-129781836D01*
X117386448Y-129819375D01*
X117366055Y-129879809D01*
X117353836Y-129967751D01*
X117348500Y-130087813D01*
X117348000Y-130151698D01*
X117347752Y-130252403D01*
X117346126Y-130321054D01*
X117341801Y-130364673D01*
X117333454Y-130390282D01*
X117319765Y-130404903D01*
X117299411Y-130415558D01*
X117298234Y-130416095D01*
X117259038Y-130432667D01*
X117239619Y-130438769D01*
X117236635Y-130420319D01*
X117234081Y-130369323D01*
X117232140Y-130292308D01*
X117230997Y-130195805D01*
X117230769Y-130125184D01*
X117231932Y-129988525D01*
X117236479Y-129884851D01*
X117245999Y-129808108D01*
X117262081Y-129752246D01*
X117286313Y-129711212D01*
X117320286Y-129678954D01*
X117353833Y-129656440D01*
X117434499Y-129626476D01*
X117528381Y-129619718D01*
X117616807Y-129636782D01*
G36*
X117616807Y-129636782D02*
G01*
X117640161Y-129646988D01*
X117695902Y-129691134D01*
X117743569Y-129754967D01*
X117773048Y-129823087D01*
X117777846Y-129856670D01*
X117761760Y-129903556D01*
X117726475Y-129928365D01*
X117688644Y-129943387D01*
X117671321Y-129946155D01*
X117662886Y-129926066D01*
X117646230Y-129882351D01*
X117638923Y-129862598D01*
X117597948Y-129794271D01*
X117538622Y-129760191D01*
X117462552Y-129761239D01*
X117456918Y-129762581D01*
X117416305Y-129781836D01*
X117386448Y-129819375D01*
X117366055Y-129879809D01*
X117353836Y-129967751D01*
X117348500Y-130087813D01*
X117348000Y-130151698D01*
X117347752Y-130252403D01*
X117346126Y-130321054D01*
X117341801Y-130364673D01*
X117333454Y-130390282D01*
X117319765Y-130404903D01*
X117299411Y-130415558D01*
X117298234Y-130416095D01*
X117259038Y-130432667D01*
X117239619Y-130438769D01*
X117236635Y-130420319D01*
X117234081Y-130369323D01*
X117232140Y-130292308D01*
X117230997Y-130195805D01*
X117230769Y-130125184D01*
X117231932Y-129988525D01*
X117236479Y-129884851D01*
X117245999Y-129808108D01*
X117262081Y-129752246D01*
X117286313Y-129711212D01*
X117320286Y-129678954D01*
X117353833Y-129656440D01*
X117434499Y-129626476D01*
X117528381Y-129619718D01*
X117616807Y-129636782D01*
G37*
X112317664Y-129595089D02*
X112380367Y-129631358D01*
X112423961Y-129667358D01*
X112455845Y-129705075D01*
X112477810Y-129751199D01*
X112491649Y-129812421D01*
X112499153Y-129895431D01*
X112502117Y-130006919D01*
X112502461Y-130087062D01*
X112502461Y-130382065D01*
X112336385Y-130456515D01*
X112326615Y-130133402D01*
X112322579Y-130012729D01*
X112318344Y-129925141D01*
X112313097Y-129864650D01*
X112306025Y-129825268D01*
X112296311Y-129801007D01*
X112283144Y-129785880D01*
X112278919Y-129782606D01*
X112214909Y-129757034D01*
X112150208Y-129767153D01*
X112111692Y-129794000D01*
X112096025Y-129813024D01*
X112085180Y-129837988D01*
X112078288Y-129875834D01*
X112074479Y-129933502D01*
X112072883Y-130017935D01*
X112072615Y-130105928D01*
X112072563Y-130216323D01*
X112070672Y-130294463D01*
X112064345Y-130347165D01*
X112050983Y-130381242D01*
X112027985Y-130403511D01*
X111992754Y-130420787D01*
X111945697Y-130438738D01*
X111894303Y-130458278D01*
X111900421Y-130111485D01*
X111902884Y-129986468D01*
X111905767Y-129894082D01*
X111909898Y-129827881D01*
X111916107Y-129781420D01*
X111925226Y-129748256D01*
X111938083Y-129721944D01*
X111953584Y-129698729D01*
X112028371Y-129624569D01*
X112119628Y-129581684D01*
X112218883Y-129571412D01*
X112317664Y-129595089D01*
G36*
X112317664Y-129595089D02*
G01*
X112380367Y-129631358D01*
X112423961Y-129667358D01*
X112455845Y-129705075D01*
X112477810Y-129751199D01*
X112491649Y-129812421D01*
X112499153Y-129895431D01*
X112502117Y-130006919D01*
X112502461Y-130087062D01*
X112502461Y-130382065D01*
X112336385Y-130456515D01*
X112326615Y-130133402D01*
X112322579Y-130012729D01*
X112318344Y-129925141D01*
X112313097Y-129864650D01*
X112306025Y-129825268D01*
X112296311Y-129801007D01*
X112283144Y-129785880D01*
X112278919Y-129782606D01*
X112214909Y-129757034D01*
X112150208Y-129767153D01*
X112111692Y-129794000D01*
X112096025Y-129813024D01*
X112085180Y-129837988D01*
X112078288Y-129875834D01*
X112074479Y-129933502D01*
X112072883Y-130017935D01*
X112072615Y-130105928D01*
X112072563Y-130216323D01*
X112070672Y-130294463D01*
X112064345Y-130347165D01*
X112050983Y-130381242D01*
X112027985Y-130403511D01*
X111992754Y-130420787D01*
X111945697Y-130438738D01*
X111894303Y-130458278D01*
X111900421Y-130111485D01*
X111902884Y-129986468D01*
X111905767Y-129894082D01*
X111909898Y-129827881D01*
X111916107Y-129781420D01*
X111925226Y-129748256D01*
X111938083Y-129721944D01*
X111953584Y-129698729D01*
X112028371Y-129624569D01*
X112119628Y-129581684D01*
X112218883Y-129571412D01*
X112317664Y-129595089D01*
G37*
X114759362Y-129624670D02*
X114848117Y-129657421D01*
X114920022Y-129715350D01*
X114948144Y-129756128D01*
X114978802Y-129830954D01*
X114978165Y-129885058D01*
X114945987Y-129921446D01*
X114934081Y-129927633D01*
X114882675Y-129946925D01*
X114856422Y-129941982D01*
X114847530Y-129909587D01*
X114847077Y-129891692D01*
X114830797Y-129825859D01*
X114788365Y-129779807D01*
X114729388Y-129757564D01*
X114663475Y-129763161D01*
X114609895Y-129792229D01*
X114591798Y-129808810D01*
X114578971Y-129828925D01*
X114570306Y-129859332D01*
X114564696Y-129906788D01*
X114561035Y-129978050D01*
X114558215Y-130079875D01*
X114557484Y-130112115D01*
X114554820Y-130222410D01*
X114551792Y-130300036D01*
X114547250Y-130351396D01*
X114540046Y-130382890D01*
X114529033Y-130400920D01*
X114513060Y-130411888D01*
X114502834Y-130416733D01*
X114459406Y-130433301D01*
X114433842Y-130438769D01*
X114425395Y-130420507D01*
X114420239Y-130365296D01*
X114418346Y-130272499D01*
X114419689Y-130141478D01*
X114420107Y-130121269D01*
X114423058Y-130001733D01*
X114426548Y-129914449D01*
X114431514Y-129852591D01*
X114438893Y-129809336D01*
X114449624Y-129777860D01*
X114464645Y-129751339D01*
X114472502Y-129739975D01*
X114517553Y-129689692D01*
X114567940Y-129650581D01*
X114574108Y-129647167D01*
X114664458Y-129620212D01*
X114759362Y-129624670D01*
G36*
X114759362Y-129624670D02*
G01*
X114848117Y-129657421D01*
X114920022Y-129715350D01*
X114948144Y-129756128D01*
X114978802Y-129830954D01*
X114978165Y-129885058D01*
X114945987Y-129921446D01*
X114934081Y-129927633D01*
X114882675Y-129946925D01*
X114856422Y-129941982D01*
X114847530Y-129909587D01*
X114847077Y-129891692D01*
X114830797Y-129825859D01*
X114788365Y-129779807D01*
X114729388Y-129757564D01*
X114663475Y-129763161D01*
X114609895Y-129792229D01*
X114591798Y-129808810D01*
X114578971Y-129828925D01*
X114570306Y-129859332D01*
X114564696Y-129906788D01*
X114561035Y-129978050D01*
X114558215Y-130079875D01*
X114557484Y-130112115D01*
X114554820Y-130222410D01*
X114551792Y-130300036D01*
X114547250Y-130351396D01*
X114540046Y-130382890D01*
X114529033Y-130400920D01*
X114513060Y-130411888D01*
X114502834Y-130416733D01*
X114459406Y-130433301D01*
X114433842Y-130438769D01*
X114425395Y-130420507D01*
X114420239Y-130365296D01*
X114418346Y-130272499D01*
X114419689Y-130141478D01*
X114420107Y-130121269D01*
X114423058Y-130001733D01*
X114426548Y-129914449D01*
X114431514Y-129852591D01*
X114438893Y-129809336D01*
X114449624Y-129777860D01*
X114464645Y-129751339D01*
X114472502Y-129739975D01*
X114517553Y-129689692D01*
X114567940Y-129650581D01*
X114574108Y-129647167D01*
X114664458Y-129620212D01*
X114759362Y-129624670D01*
G37*
X113205846Y-129492120D02*
X113211572Y-129571980D01*
X113218149Y-129619039D01*
X113227262Y-129639566D01*
X113240598Y-129639829D01*
X113244923Y-129637378D01*
X113302444Y-129619636D01*
X113377268Y-129620672D01*
X113453339Y-129638910D01*
X113500918Y-129662505D01*
X113549702Y-129700198D01*
X113585364Y-129742855D01*
X113609845Y-129797057D01*
X113625087Y-129869384D01*
X113633030Y-129966419D01*
X113635616Y-130094742D01*
X113635662Y-130119358D01*
X113635692Y-130395870D01*
X113574161Y-130417320D01*
X113530459Y-130431912D01*
X113506482Y-130438706D01*
X113505777Y-130438769D01*
X113503415Y-130420345D01*
X113501406Y-130369526D01*
X113499901Y-130292993D01*
X113499053Y-130197430D01*
X113498923Y-130139329D01*
X113498651Y-130024771D01*
X113497252Y-129942667D01*
X113493849Y-129886393D01*
X113487567Y-129849326D01*
X113477529Y-129824844D01*
X113462861Y-129806325D01*
X113453702Y-129797406D01*
X113390789Y-129761466D01*
X113322136Y-129758775D01*
X113259848Y-129789170D01*
X113248329Y-129800144D01*
X113231433Y-129820779D01*
X113219714Y-129845256D01*
X113212233Y-129880647D01*
X113208054Y-129934026D01*
X113206237Y-130012466D01*
X113205846Y-130120617D01*
X113205846Y-130395870D01*
X113144315Y-130417320D01*
X113100613Y-130431912D01*
X113076636Y-130438706D01*
X113075930Y-130438769D01*
X113074126Y-130420069D01*
X113072500Y-130367322D01*
X113071117Y-130285557D01*
X113070042Y-130179805D01*
X113069340Y-130055094D01*
X113069077Y-129916455D01*
X113069077Y-129381806D01*
X113196077Y-129328236D01*
X113205846Y-129492120D01*
G36*
X113205846Y-129492120D02*
G01*
X113211572Y-129571980D01*
X113218149Y-129619039D01*
X113227262Y-129639566D01*
X113240598Y-129639829D01*
X113244923Y-129637378D01*
X113302444Y-129619636D01*
X113377268Y-129620672D01*
X113453339Y-129638910D01*
X113500918Y-129662505D01*
X113549702Y-129700198D01*
X113585364Y-129742855D01*
X113609845Y-129797057D01*
X113625087Y-129869384D01*
X113633030Y-129966419D01*
X113635616Y-130094742D01*
X113635662Y-130119358D01*
X113635692Y-130395870D01*
X113574161Y-130417320D01*
X113530459Y-130431912D01*
X113506482Y-130438706D01*
X113505777Y-130438769D01*
X113503415Y-130420345D01*
X113501406Y-130369526D01*
X113499901Y-130292993D01*
X113499053Y-130197430D01*
X113498923Y-130139329D01*
X113498651Y-130024771D01*
X113497252Y-129942667D01*
X113493849Y-129886393D01*
X113487567Y-129849326D01*
X113477529Y-129824844D01*
X113462861Y-129806325D01*
X113453702Y-129797406D01*
X113390789Y-129761466D01*
X113322136Y-129758775D01*
X113259848Y-129789170D01*
X113248329Y-129800144D01*
X113231433Y-129820779D01*
X113219714Y-129845256D01*
X113212233Y-129880647D01*
X113208054Y-129934026D01*
X113206237Y-130012466D01*
X113205846Y-130120617D01*
X113205846Y-130395870D01*
X113144315Y-130417320D01*
X113100613Y-130431912D01*
X113076636Y-130438706D01*
X113075930Y-130438769D01*
X113074126Y-130420069D01*
X113072500Y-130367322D01*
X113071117Y-130285557D01*
X113070042Y-130179805D01*
X113069340Y-130055094D01*
X113069077Y-129916455D01*
X113069077Y-129381806D01*
X113196077Y-129328236D01*
X113205846Y-129492120D01*
G37*
X116441929Y-129636662D02*
X116444911Y-129688068D01*
X116447247Y-129766192D01*
X116448749Y-129864857D01*
X116449231Y-129968343D01*
X116449231Y-130318533D01*
X116387401Y-130380363D01*
X116344793Y-130418462D01*
X116307390Y-130433895D01*
X116256270Y-130432918D01*
X116235978Y-130430433D01*
X116172554Y-130423200D01*
X116120095Y-130419055D01*
X116107308Y-130418672D01*
X116064199Y-130421176D01*
X116002544Y-130427462D01*
X115978638Y-130430433D01*
X115919922Y-130435028D01*
X115880464Y-130425046D01*
X115841338Y-130394228D01*
X115827215Y-130380363D01*
X115765385Y-130318533D01*
X115765385Y-129663503D01*
X115815150Y-129640829D01*
X115858002Y-129624034D01*
X115883073Y-129618154D01*
X115889501Y-129636736D01*
X115895509Y-129688655D01*
X115900697Y-129768172D01*
X115904664Y-129869546D01*
X115906577Y-129955192D01*
X115911923Y-130292231D01*
X115958560Y-130298825D01*
X116000976Y-130294214D01*
X116021760Y-130279287D01*
X116027570Y-130251377D01*
X116032530Y-130191925D01*
X116036246Y-130108466D01*
X116038324Y-130008532D01*
X116038624Y-129957104D01*
X116038923Y-129661054D01*
X116100454Y-129639604D01*
X116144004Y-129625020D01*
X116167694Y-129618219D01*
X116168377Y-129618154D01*
X116170754Y-129636642D01*
X116173366Y-129687906D01*
X116175995Y-129765649D01*
X116178421Y-129863574D01*
X116180115Y-129955192D01*
X116185461Y-130292231D01*
X116302692Y-130292231D01*
X116308072Y-129984746D01*
X116313451Y-129677261D01*
X116370601Y-129647707D01*
X116412797Y-129627413D01*
X116437770Y-129618204D01*
X116438491Y-129618154D01*
X116441929Y-129636662D01*
G36*
X116441929Y-129636662D02*
G01*
X116444911Y-129688068D01*
X116447247Y-129766192D01*
X116448749Y-129864857D01*
X116449231Y-129968343D01*
X116449231Y-130318533D01*
X116387401Y-130380363D01*
X116344793Y-130418462D01*
X116307390Y-130433895D01*
X116256270Y-130432918D01*
X116235978Y-130430433D01*
X116172554Y-130423200D01*
X116120095Y-130419055D01*
X116107308Y-130418672D01*
X116064199Y-130421176D01*
X116002544Y-130427462D01*
X115978638Y-130430433D01*
X115919922Y-130435028D01*
X115880464Y-130425046D01*
X115841338Y-130394228D01*
X115827215Y-130380363D01*
X115765385Y-130318533D01*
X115765385Y-129663503D01*
X115815150Y-129640829D01*
X115858002Y-129624034D01*
X115883073Y-129618154D01*
X115889501Y-129636736D01*
X115895509Y-129688655D01*
X115900697Y-129768172D01*
X115904664Y-129869546D01*
X115906577Y-129955192D01*
X115911923Y-130292231D01*
X115958560Y-130298825D01*
X116000976Y-130294214D01*
X116021760Y-130279287D01*
X116027570Y-130251377D01*
X116032530Y-130191925D01*
X116036246Y-130108466D01*
X116038324Y-130008532D01*
X116038624Y-129957104D01*
X116038923Y-129661054D01*
X116100454Y-129639604D01*
X116144004Y-129625020D01*
X116167694Y-129618219D01*
X116168377Y-129618154D01*
X116170754Y-129636642D01*
X116173366Y-129687906D01*
X116175995Y-129765649D01*
X116178421Y-129863574D01*
X116180115Y-129955192D01*
X116185461Y-130292231D01*
X116302692Y-130292231D01*
X116308072Y-129984746D01*
X116313451Y-129677261D01*
X116370601Y-129647707D01*
X116412797Y-129627413D01*
X116437770Y-129618204D01*
X116438491Y-129618154D01*
X116441929Y-129636662D01*
G37*
X110062886Y-129587256D02*
X110154464Y-129635409D01*
X110222049Y-129712905D01*
X110246057Y-129762727D01*
X110264738Y-129837533D01*
X110274301Y-129932052D01*
X110275208Y-130035210D01*
X110267921Y-130135935D01*
X110252903Y-130223153D01*
X110230615Y-130285791D01*
X110223765Y-130296579D01*
X110142632Y-130377105D01*
X110046266Y-130425336D01*
X109941701Y-130439450D01*
X109835968Y-130417629D01*
X109806543Y-130404547D01*
X109749241Y-130364231D01*
X109698950Y-130310775D01*
X109694197Y-130303995D01*
X109674878Y-130271321D01*
X109662108Y-130236394D01*
X109654564Y-130190414D01*
X109650924Y-130124584D01*
X109649865Y-130030105D01*
X109649846Y-130008923D01*
X109649894Y-130002182D01*
X109845231Y-130002182D01*
X109846368Y-130091349D01*
X109850841Y-130150520D01*
X109860246Y-130188741D01*
X109876176Y-130215053D01*
X109884308Y-130223846D01*
X109931058Y-130257261D01*
X109976447Y-130255737D01*
X110022340Y-130226752D01*
X110049712Y-130195809D01*
X110065923Y-130150643D01*
X110075026Y-130079420D01*
X110075651Y-130071114D01*
X110077204Y-129942037D01*
X110060965Y-129846172D01*
X110027152Y-129784107D01*
X109975984Y-129756432D01*
X109957720Y-129754923D01*
X109909760Y-129762513D01*
X109876953Y-129788808D01*
X109856895Y-129839095D01*
X109847178Y-129918664D01*
X109845231Y-130002182D01*
X109649894Y-130002182D01*
X109650574Y-129908249D01*
X109653629Y-129837906D01*
X109660322Y-129789163D01*
X109671960Y-129753288D01*
X109689853Y-129721548D01*
X109693808Y-129715648D01*
X109760267Y-129636104D01*
X109832685Y-129589929D01*
X109920849Y-129571599D01*
X109950787Y-129570703D01*
X110062886Y-129587256D01*
G36*
X110062886Y-129587256D02*
G01*
X110154464Y-129635409D01*
X110222049Y-129712905D01*
X110246057Y-129762727D01*
X110264738Y-129837533D01*
X110274301Y-129932052D01*
X110275208Y-130035210D01*
X110267921Y-130135935D01*
X110252903Y-130223153D01*
X110230615Y-130285791D01*
X110223765Y-130296579D01*
X110142632Y-130377105D01*
X110046266Y-130425336D01*
X109941701Y-130439450D01*
X109835968Y-130417629D01*
X109806543Y-130404547D01*
X109749241Y-130364231D01*
X109698950Y-130310775D01*
X109694197Y-130303995D01*
X109674878Y-130271321D01*
X109662108Y-130236394D01*
X109654564Y-130190414D01*
X109650924Y-130124584D01*
X109649865Y-130030105D01*
X109649846Y-130008923D01*
X109649894Y-130002182D01*
X109845231Y-130002182D01*
X109846368Y-130091349D01*
X109850841Y-130150520D01*
X109860246Y-130188741D01*
X109876176Y-130215053D01*
X109884308Y-130223846D01*
X109931058Y-130257261D01*
X109976447Y-130255737D01*
X110022340Y-130226752D01*
X110049712Y-130195809D01*
X110065923Y-130150643D01*
X110075026Y-130079420D01*
X110075651Y-130071114D01*
X110077204Y-129942037D01*
X110060965Y-129846172D01*
X110027152Y-129784107D01*
X109975984Y-129756432D01*
X109957720Y-129754923D01*
X109909760Y-129762513D01*
X109876953Y-129788808D01*
X109856895Y-129839095D01*
X109847178Y-129918664D01*
X109845231Y-130002182D01*
X109649894Y-130002182D01*
X109650574Y-129908249D01*
X109653629Y-129837906D01*
X109660322Y-129789163D01*
X109671960Y-129753288D01*
X109689853Y-129721548D01*
X109693808Y-129715648D01*
X109760267Y-129636104D01*
X109832685Y-129589929D01*
X109920849Y-129571599D01*
X109950787Y-129570703D01*
X110062886Y-129587256D01*
G37*
X118291224Y-129647838D02*
X118368528Y-129698361D01*
X118405814Y-129743590D01*
X118435353Y-129825663D01*
X118437699Y-129890607D01*
X118432385Y-129977445D01*
X118232115Y-130065103D01*
X118134739Y-130109887D01*
X118071113Y-130145913D01*
X118038029Y-130177117D01*
X118032280Y-130207436D01*
X118050658Y-130240805D01*
X118070923Y-130262923D01*
X118129889Y-130298393D01*
X118194024Y-130300879D01*
X118252926Y-130273235D01*
X118296197Y-130218320D01*
X118303936Y-130198928D01*
X118341006Y-130138364D01*
X118383654Y-130112552D01*
X118442154Y-130090471D01*
X118442154Y-130174184D01*
X118436982Y-130231150D01*
X118416723Y-130279189D01*
X118374262Y-130334346D01*
X118367951Y-130341514D01*
X118320720Y-130390585D01*
X118280121Y-130416920D01*
X118229328Y-130429035D01*
X118187220Y-130433003D01*
X118111902Y-130433991D01*
X118058286Y-130421466D01*
X118024838Y-130402869D01*
X117972268Y-130361975D01*
X117935879Y-130317748D01*
X117912850Y-130262126D01*
X117900359Y-130187047D01*
X117895587Y-130084449D01*
X117895206Y-130032376D01*
X117896501Y-129969948D01*
X118014471Y-129969948D01*
X118015839Y-130003438D01*
X118019249Y-130008923D01*
X118041753Y-130001472D01*
X118090182Y-129981753D01*
X118154908Y-129953718D01*
X118168443Y-129947692D01*
X118250244Y-129906096D01*
X118295312Y-129869538D01*
X118305217Y-129835296D01*
X118281526Y-129800648D01*
X118261960Y-129785339D01*
X118191360Y-129754721D01*
X118125280Y-129759780D01*
X118069959Y-129797151D01*
X118031636Y-129863473D01*
X118019349Y-129916116D01*
X118014471Y-129969948D01*
X117896501Y-129969948D01*
X117897730Y-129910720D01*
X117907032Y-129820710D01*
X117925460Y-129755167D01*
X117955360Y-129706912D01*
X117999080Y-129668767D01*
X118018141Y-129656440D01*
X118104726Y-129624336D01*
X118199522Y-129622316D01*
X118291224Y-129647838D01*
G36*
X118291224Y-129647838D02*
G01*
X118368528Y-129698361D01*
X118405814Y-129743590D01*
X118435353Y-129825663D01*
X118437699Y-129890607D01*
X118432385Y-129977445D01*
X118232115Y-130065103D01*
X118134739Y-130109887D01*
X118071113Y-130145913D01*
X118038029Y-130177117D01*
X118032280Y-130207436D01*
X118050658Y-130240805D01*
X118070923Y-130262923D01*
X118129889Y-130298393D01*
X118194024Y-130300879D01*
X118252926Y-130273235D01*
X118296197Y-130218320D01*
X118303936Y-130198928D01*
X118341006Y-130138364D01*
X118383654Y-130112552D01*
X118442154Y-130090471D01*
X118442154Y-130174184D01*
X118436982Y-130231150D01*
X118416723Y-130279189D01*
X118374262Y-130334346D01*
X118367951Y-130341514D01*
X118320720Y-130390585D01*
X118280121Y-130416920D01*
X118229328Y-130429035D01*
X118187220Y-130433003D01*
X118111902Y-130433991D01*
X118058286Y-130421466D01*
X118024838Y-130402869D01*
X117972268Y-130361975D01*
X117935879Y-130317748D01*
X117912850Y-130262126D01*
X117900359Y-130187047D01*
X117895587Y-130084449D01*
X117895206Y-130032376D01*
X117896501Y-129969948D01*
X118014471Y-129969948D01*
X118015839Y-130003438D01*
X118019249Y-130008923D01*
X118041753Y-130001472D01*
X118090182Y-129981753D01*
X118154908Y-129953718D01*
X118168443Y-129947692D01*
X118250244Y-129906096D01*
X118295312Y-129869538D01*
X118305217Y-129835296D01*
X118281526Y-129800648D01*
X118261960Y-129785339D01*
X118191360Y-129754721D01*
X118125280Y-129759780D01*
X118069959Y-129797151D01*
X118031636Y-129863473D01*
X118019349Y-129916116D01*
X118014471Y-129969948D01*
X117896501Y-129969948D01*
X117897730Y-129910720D01*
X117907032Y-129820710D01*
X117925460Y-129755167D01*
X117955360Y-129706912D01*
X117999080Y-129668767D01*
X118018141Y-129656440D01*
X118104726Y-129624336D01*
X118199522Y-129622316D01*
X118291224Y-129647838D01*
G37*
X115648081Y-129780289D02*
X115647833Y-129926320D01*
X115646872Y-130038655D01*
X115644794Y-130122678D01*
X115641193Y-130183769D01*
X115635665Y-130227309D01*
X115627804Y-130258679D01*
X115617207Y-130283262D01*
X115609182Y-130297294D01*
X115542728Y-130373388D01*
X115458470Y-130421084D01*
X115365249Y-130438199D01*
X115271900Y-130422546D01*
X115216312Y-130394418D01*
X115157957Y-130345760D01*
X115118186Y-130286333D01*
X115094190Y-130208507D01*
X115083161Y-130104652D01*
X115081599Y-130028462D01*
X115081809Y-130022986D01*
X115218308Y-130022986D01*
X115219141Y-130110355D01*
X115222961Y-130168192D01*
X115231746Y-130206029D01*
X115247474Y-130233398D01*
X115266266Y-130254042D01*
X115329375Y-130293890D01*
X115397137Y-130297295D01*
X115461179Y-130264025D01*
X115466164Y-130259517D01*
X115487439Y-130236067D01*
X115500779Y-130208166D01*
X115508001Y-130166641D01*
X115510923Y-130102316D01*
X115511385Y-130031200D01*
X115510383Y-129941858D01*
X115506238Y-129882258D01*
X115497236Y-129843089D01*
X115481667Y-129815040D01*
X115468902Y-129800144D01*
X115409600Y-129762575D01*
X115341301Y-129758057D01*
X115276110Y-129786753D01*
X115263528Y-129797406D01*
X115242111Y-129821063D01*
X115228744Y-129849251D01*
X115221566Y-129891245D01*
X115218719Y-129956319D01*
X115218308Y-130022986D01*
X115081809Y-130022986D01*
X115086322Y-129905765D01*
X115102362Y-129813577D01*
X115132528Y-129744269D01*
X115179629Y-129690211D01*
X115216312Y-129662505D01*
X115282990Y-129632572D01*
X115360272Y-129618678D01*
X115432110Y-129622397D01*
X115472308Y-129637400D01*
X115488082Y-129641670D01*
X115498550Y-129625750D01*
X115505856Y-129583089D01*
X115511385Y-129518106D01*
X115517437Y-129445732D01*
X115525844Y-129402187D01*
X115541141Y-129377287D01*
X115567864Y-129360845D01*
X115584654Y-129353564D01*
X115648154Y-129326963D01*
X115648081Y-129780289D01*
G36*
X115648081Y-129780289D02*
G01*
X115647833Y-129926320D01*
X115646872Y-130038655D01*
X115644794Y-130122678D01*
X115641193Y-130183769D01*
X115635665Y-130227309D01*
X115627804Y-130258679D01*
X115617207Y-130283262D01*
X115609182Y-130297294D01*
X115542728Y-130373388D01*
X115458470Y-130421084D01*
X115365249Y-130438199D01*
X115271900Y-130422546D01*
X115216312Y-130394418D01*
X115157957Y-130345760D01*
X115118186Y-130286333D01*
X115094190Y-130208507D01*
X115083161Y-130104652D01*
X115081599Y-130028462D01*
X115081809Y-130022986D01*
X115218308Y-130022986D01*
X115219141Y-130110355D01*
X115222961Y-130168192D01*
X115231746Y-130206029D01*
X115247474Y-130233398D01*
X115266266Y-130254042D01*
X115329375Y-130293890D01*
X115397137Y-130297295D01*
X115461179Y-130264025D01*
X115466164Y-130259517D01*
X115487439Y-130236067D01*
X115500779Y-130208166D01*
X115508001Y-130166641D01*
X115510923Y-130102316D01*
X115511385Y-130031200D01*
X115510383Y-129941858D01*
X115506238Y-129882258D01*
X115497236Y-129843089D01*
X115481667Y-129815040D01*
X115468902Y-129800144D01*
X115409600Y-129762575D01*
X115341301Y-129758057D01*
X115276110Y-129786753D01*
X115263528Y-129797406D01*
X115242111Y-129821063D01*
X115228744Y-129849251D01*
X115221566Y-129891245D01*
X115218719Y-129956319D01*
X115218308Y-130022986D01*
X115081809Y-130022986D01*
X115086322Y-129905765D01*
X115102362Y-129813577D01*
X115132528Y-129744269D01*
X115179629Y-129690211D01*
X115216312Y-129662505D01*
X115282990Y-129632572D01*
X115360272Y-129618678D01*
X115432110Y-129622397D01*
X115472308Y-129637400D01*
X115488082Y-129641670D01*
X115498550Y-129625750D01*
X115505856Y-129583089D01*
X115511385Y-129518106D01*
X115517437Y-129445732D01*
X115525844Y-129402187D01*
X115541141Y-129377287D01*
X115567864Y-129360845D01*
X115584654Y-129353564D01*
X115648154Y-129326963D01*
X115648081Y-129780289D01*
G37*
X111580254Y-129599745D02*
X111657286Y-129651567D01*
X111716816Y-129726412D01*
X111752378Y-129821654D01*
X111759571Y-129891756D01*
X111758754Y-129921009D01*
X111751914Y-129943407D01*
X111733112Y-129963474D01*
X111696408Y-129985733D01*
X111635862Y-130014709D01*
X111545534Y-130054927D01*
X111545077Y-130055129D01*
X111461933Y-130093210D01*
X111393753Y-130127025D01*
X111347505Y-130152933D01*
X111330158Y-130167295D01*
X111330154Y-130167411D01*
X111345443Y-130198685D01*
X111381196Y-130233157D01*
X111422242Y-130257990D01*
X111443037Y-130262923D01*
X111499770Y-130245862D01*
X111548627Y-130203133D01*
X111572465Y-130156155D01*
X111595397Y-130121522D01*
X111640318Y-130082081D01*
X111693123Y-130048009D01*
X111739710Y-130029480D01*
X111749452Y-130028462D01*
X111760418Y-130045215D01*
X111761079Y-130088039D01*
X111753020Y-130145781D01*
X111737827Y-130207289D01*
X111717086Y-130261409D01*
X111716038Y-130263510D01*
X111653621Y-130350660D01*
X111572726Y-130409939D01*
X111480856Y-130439034D01*
X111385513Y-130435634D01*
X111294198Y-130397428D01*
X111290138Y-130394741D01*
X111218306Y-130329642D01*
X111171073Y-130244705D01*
X111144934Y-130133021D01*
X111141426Y-130101643D01*
X111135213Y-129953536D01*
X111142661Y-129884468D01*
X111330154Y-129884468D01*
X111332590Y-129927552D01*
X111345914Y-129940126D01*
X111379132Y-129930719D01*
X111431494Y-129908483D01*
X111490024Y-129880610D01*
X111491479Y-129879872D01*
X111541089Y-129853777D01*
X111561000Y-129836363D01*
X111556090Y-129818107D01*
X111535416Y-129794120D01*
X111482819Y-129759406D01*
X111426177Y-129756856D01*
X111375369Y-129782119D01*
X111340276Y-129830847D01*
X111330154Y-129884468D01*
X111142661Y-129884468D01*
X111147992Y-129835036D01*
X111180778Y-129741055D01*
X111226421Y-129675215D01*
X111308802Y-129608681D01*
X111399546Y-129575676D01*
X111492185Y-129573573D01*
X111580254Y-129599745D01*
G36*
X111580254Y-129599745D02*
G01*
X111657286Y-129651567D01*
X111716816Y-129726412D01*
X111752378Y-129821654D01*
X111759571Y-129891756D01*
X111758754Y-129921009D01*
X111751914Y-129943407D01*
X111733112Y-129963474D01*
X111696408Y-129985733D01*
X111635862Y-130014709D01*
X111545534Y-130054927D01*
X111545077Y-130055129D01*
X111461933Y-130093210D01*
X111393753Y-130127025D01*
X111347505Y-130152933D01*
X111330158Y-130167295D01*
X111330154Y-130167411D01*
X111345443Y-130198685D01*
X111381196Y-130233157D01*
X111422242Y-130257990D01*
X111443037Y-130262923D01*
X111499770Y-130245862D01*
X111548627Y-130203133D01*
X111572465Y-130156155D01*
X111595397Y-130121522D01*
X111640318Y-130082081D01*
X111693123Y-130048009D01*
X111739710Y-130029480D01*
X111749452Y-130028462D01*
X111760418Y-130045215D01*
X111761079Y-130088039D01*
X111753020Y-130145781D01*
X111737827Y-130207289D01*
X111717086Y-130261409D01*
X111716038Y-130263510D01*
X111653621Y-130350660D01*
X111572726Y-130409939D01*
X111480856Y-130439034D01*
X111385513Y-130435634D01*
X111294198Y-130397428D01*
X111290138Y-130394741D01*
X111218306Y-130329642D01*
X111171073Y-130244705D01*
X111144934Y-130133021D01*
X111141426Y-130101643D01*
X111135213Y-129953536D01*
X111142661Y-129884468D01*
X111330154Y-129884468D01*
X111332590Y-129927552D01*
X111345914Y-129940126D01*
X111379132Y-129930719D01*
X111431494Y-129908483D01*
X111490024Y-129880610D01*
X111491479Y-129879872D01*
X111541089Y-129853777D01*
X111561000Y-129836363D01*
X111556090Y-129818107D01*
X111535416Y-129794120D01*
X111482819Y-129759406D01*
X111426177Y-129756856D01*
X111375369Y-129782119D01*
X111340276Y-129830847D01*
X111330154Y-129884468D01*
X111142661Y-129884468D01*
X111147992Y-129835036D01*
X111180778Y-129741055D01*
X111226421Y-129675215D01*
X111308802Y-129608681D01*
X111399546Y-129575676D01*
X111492185Y-129573573D01*
X111580254Y-129599745D01*
G37*
X114099501Y-129626303D02*
X114176060Y-129654733D01*
X114176936Y-129655279D01*
X114224285Y-129690127D01*
X114259241Y-129730852D01*
X114283825Y-129783925D01*
X114300062Y-129855814D01*
X114309975Y-129952992D01*
X114315586Y-130081928D01*
X114316077Y-130100298D01*
X114323141Y-130377287D01*
X114263695Y-130408028D01*
X114220681Y-130428802D01*
X114194710Y-130438646D01*
X114193509Y-130438769D01*
X114189014Y-130420606D01*
X114185444Y-130371612D01*
X114183248Y-130300031D01*
X114182769Y-130242068D01*
X114182758Y-130148170D01*
X114178466Y-130089203D01*
X114163503Y-130061079D01*
X114131482Y-130059706D01*
X114076014Y-130080998D01*
X113992269Y-130120136D01*
X113930689Y-130152643D01*
X113899017Y-130180845D01*
X113889706Y-130211582D01*
X113889692Y-130213104D01*
X113905057Y-130266054D01*
X113950547Y-130294660D01*
X114020166Y-130298803D01*
X114070313Y-130298084D01*
X114096754Y-130312527D01*
X114113243Y-130347218D01*
X114122733Y-130391416D01*
X114109057Y-130416493D01*
X114103907Y-130420082D01*
X114055425Y-130434496D01*
X113987531Y-130436537D01*
X113917612Y-130426983D01*
X113868068Y-130409522D01*
X113799570Y-130351364D01*
X113760634Y-130270408D01*
X113752923Y-130207160D01*
X113758807Y-130150111D01*
X113780101Y-130103542D01*
X113822265Y-130062181D01*
X113890759Y-130020755D01*
X113991044Y-129973993D01*
X113997154Y-129971350D01*
X114087490Y-129929617D01*
X114143235Y-129895391D01*
X114167129Y-129864635D01*
X114161913Y-129833311D01*
X114130328Y-129797383D01*
X114120883Y-129789116D01*
X114057617Y-129757058D01*
X113992064Y-129758407D01*
X113934972Y-129789838D01*
X113897093Y-129848024D01*
X113893574Y-129859446D01*
X113859300Y-129914837D01*
X113815809Y-129941518D01*
X113752923Y-129967960D01*
X113752923Y-129899548D01*
X113772052Y-129800110D01*
X113828831Y-129708902D01*
X113858378Y-129678389D01*
X113925542Y-129639228D01*
X114010956Y-129621500D01*
X114099501Y-129626303D01*
G36*
X114099501Y-129626303D02*
G01*
X114176060Y-129654733D01*
X114176936Y-129655279D01*
X114224285Y-129690127D01*
X114259241Y-129730852D01*
X114283825Y-129783925D01*
X114300062Y-129855814D01*
X114309975Y-129952992D01*
X114315586Y-130081928D01*
X114316077Y-130100298D01*
X114323141Y-130377287D01*
X114263695Y-130408028D01*
X114220681Y-130428802D01*
X114194710Y-130438646D01*
X114193509Y-130438769D01*
X114189014Y-130420606D01*
X114185444Y-130371612D01*
X114183248Y-130300031D01*
X114182769Y-130242068D01*
X114182758Y-130148170D01*
X114178466Y-130089203D01*
X114163503Y-130061079D01*
X114131482Y-130059706D01*
X114076014Y-130080998D01*
X113992269Y-130120136D01*
X113930689Y-130152643D01*
X113899017Y-130180845D01*
X113889706Y-130211582D01*
X113889692Y-130213104D01*
X113905057Y-130266054D01*
X113950547Y-130294660D01*
X114020166Y-130298803D01*
X114070313Y-130298084D01*
X114096754Y-130312527D01*
X114113243Y-130347218D01*
X114122733Y-130391416D01*
X114109057Y-130416493D01*
X114103907Y-130420082D01*
X114055425Y-130434496D01*
X113987531Y-130436537D01*
X113917612Y-130426983D01*
X113868068Y-130409522D01*
X113799570Y-130351364D01*
X113760634Y-130270408D01*
X113752923Y-130207160D01*
X113758807Y-130150111D01*
X113780101Y-130103542D01*
X113822265Y-130062181D01*
X113890759Y-130020755D01*
X113991044Y-129973993D01*
X113997154Y-129971350D01*
X114087490Y-129929617D01*
X114143235Y-129895391D01*
X114167129Y-129864635D01*
X114161913Y-129833311D01*
X114130328Y-129797383D01*
X114120883Y-129789116D01*
X114057617Y-129757058D01*
X113992064Y-129758407D01*
X113934972Y-129789838D01*
X113897093Y-129848024D01*
X113893574Y-129859446D01*
X113859300Y-129914837D01*
X113815809Y-129941518D01*
X113752923Y-129967960D01*
X113752923Y-129899548D01*
X113772052Y-129800110D01*
X113828831Y-129708902D01*
X113858378Y-129678389D01*
X113925542Y-129639228D01*
X114010956Y-129621500D01*
X114099501Y-129626303D01*
G37*
X110814886Y-129584505D02*
X110889539Y-129621727D01*
X110955431Y-129690261D01*
X110973577Y-129715648D01*
X110993345Y-129748866D01*
X111006172Y-129784945D01*
X111013510Y-129833098D01*
X111016813Y-129902536D01*
X111017538Y-129994206D01*
X111014263Y-130119830D01*
X111002877Y-130214154D01*
X110981041Y-130284523D01*
X110946419Y-130338286D01*
X110896670Y-130382788D01*
X110893014Y-130385423D01*
X110843985Y-130412377D01*
X110784945Y-130425712D01*
X110709859Y-130429000D01*
X110587795Y-130429000D01*
X110587744Y-130547497D01*
X110586608Y-130613492D01*
X110579686Y-130652202D01*
X110561598Y-130675419D01*
X110526962Y-130694933D01*
X110518645Y-130698920D01*
X110479720Y-130717603D01*
X110449583Y-130729403D01*
X110427174Y-130730422D01*
X110411433Y-130716761D01*
X110401302Y-130684522D01*
X110395723Y-130629804D01*
X110393635Y-130548711D01*
X110393981Y-130437344D01*
X110395700Y-130291802D01*
X110396237Y-130248269D01*
X110398172Y-130098205D01*
X110399904Y-130000042D01*
X110587692Y-130000042D01*
X110588748Y-130083364D01*
X110593438Y-130137880D01*
X110604051Y-130173837D01*
X110622872Y-130201482D01*
X110635650Y-130214965D01*
X110687890Y-130254417D01*
X110734142Y-130257628D01*
X110781867Y-130225049D01*
X110783077Y-130223846D01*
X110802494Y-130198668D01*
X110814307Y-130164447D01*
X110820265Y-130111748D01*
X110822120Y-130031131D01*
X110822154Y-130013271D01*
X110817670Y-129902175D01*
X110803074Y-129825161D01*
X110776650Y-129778147D01*
X110736683Y-129757050D01*
X110713584Y-129754923D01*
X110658762Y-129764900D01*
X110621158Y-129797752D01*
X110598523Y-129857857D01*
X110588606Y-129949598D01*
X110587692Y-130000042D01*
X110399904Y-130000042D01*
X110400222Y-129982060D01*
X110402873Y-129894679D01*
X110406606Y-129830905D01*
X110411907Y-129785582D01*
X110419258Y-129753555D01*
X110429143Y-129729668D01*
X110442046Y-129708764D01*
X110447579Y-129700898D01*
X110520969Y-129626595D01*
X110613760Y-129584467D01*
X110721096Y-129572722D01*
X110814886Y-129584505D01*
G36*
X110814886Y-129584505D02*
G01*
X110889539Y-129621727D01*
X110955431Y-129690261D01*
X110973577Y-129715648D01*
X110993345Y-129748866D01*
X111006172Y-129784945D01*
X111013510Y-129833098D01*
X111016813Y-129902536D01*
X111017538Y-129994206D01*
X111014263Y-130119830D01*
X111002877Y-130214154D01*
X110981041Y-130284523D01*
X110946419Y-130338286D01*
X110896670Y-130382788D01*
X110893014Y-130385423D01*
X110843985Y-130412377D01*
X110784945Y-130425712D01*
X110709859Y-130429000D01*
X110587795Y-130429000D01*
X110587744Y-130547497D01*
X110586608Y-130613492D01*
X110579686Y-130652202D01*
X110561598Y-130675419D01*
X110526962Y-130694933D01*
X110518645Y-130698920D01*
X110479720Y-130717603D01*
X110449583Y-130729403D01*
X110427174Y-130730422D01*
X110411433Y-130716761D01*
X110401302Y-130684522D01*
X110395723Y-130629804D01*
X110393635Y-130548711D01*
X110393981Y-130437344D01*
X110395700Y-130291802D01*
X110396237Y-130248269D01*
X110398172Y-130098205D01*
X110399904Y-130000042D01*
X110587692Y-130000042D01*
X110588748Y-130083364D01*
X110593438Y-130137880D01*
X110604051Y-130173837D01*
X110622872Y-130201482D01*
X110635650Y-130214965D01*
X110687890Y-130254417D01*
X110734142Y-130257628D01*
X110781867Y-130225049D01*
X110783077Y-130223846D01*
X110802494Y-130198668D01*
X110814307Y-130164447D01*
X110820265Y-130111748D01*
X110822120Y-130031131D01*
X110822154Y-130013271D01*
X110817670Y-129902175D01*
X110803074Y-129825161D01*
X110776650Y-129778147D01*
X110736683Y-129757050D01*
X110713584Y-129754923D01*
X110658762Y-129764900D01*
X110621158Y-129797752D01*
X110598523Y-129857857D01*
X110588606Y-129949598D01*
X110587692Y-130000042D01*
X110399904Y-130000042D01*
X110400222Y-129982060D01*
X110402873Y-129894679D01*
X110406606Y-129830905D01*
X110411907Y-129785582D01*
X110419258Y-129753555D01*
X110429143Y-129729668D01*
X110442046Y-129708764D01*
X110447579Y-129700898D01*
X110520969Y-129626595D01*
X110613760Y-129584467D01*
X110721096Y-129572722D01*
X110814886Y-129584505D01*
G37*
X116933333Y-129633528D02*
X116989590Y-129659117D01*
X117033747Y-129690124D01*
X117066101Y-129724795D01*
X117088438Y-129769520D01*
X117102546Y-129830692D01*
X117110211Y-129914701D01*
X117113220Y-130027940D01*
X117113538Y-130102509D01*
X117113538Y-130393420D01*
X117063773Y-130416095D01*
X117024576Y-130432667D01*
X117005157Y-130438769D01*
X117001442Y-130420610D01*
X116998495Y-130371648D01*
X116996691Y-130300153D01*
X116996308Y-130243385D01*
X116994661Y-130161371D01*
X116990222Y-130096309D01*
X116983740Y-130056467D01*
X116978590Y-130048000D01*
X116943977Y-130056646D01*
X116889640Y-130078823D01*
X116826722Y-130108886D01*
X116766368Y-130141192D01*
X116719721Y-130170098D01*
X116697926Y-130189961D01*
X116697839Y-130190175D01*
X116699714Y-130226935D01*
X116716525Y-130262026D01*
X116746039Y-130290528D01*
X116789116Y-130300061D01*
X116825932Y-130298950D01*
X116878074Y-130298133D01*
X116905444Y-130310349D01*
X116921882Y-130342624D01*
X116923955Y-130348710D01*
X116931081Y-130394739D01*
X116912024Y-130422687D01*
X116862353Y-130436007D01*
X116808697Y-130438470D01*
X116712142Y-130420210D01*
X116662159Y-130394131D01*
X116600429Y-130332868D01*
X116567690Y-130257670D01*
X116564753Y-130178211D01*
X116592424Y-130104167D01*
X116634047Y-130057769D01*
X116675604Y-130031793D01*
X116740922Y-129998907D01*
X116817038Y-129965557D01*
X116829726Y-129960461D01*
X116913333Y-129923565D01*
X116961530Y-129891046D01*
X116977030Y-129858718D01*
X116962550Y-129822394D01*
X116937692Y-129794000D01*
X116878939Y-129759039D01*
X116814293Y-129756417D01*
X116755008Y-129783358D01*
X116712339Y-129837088D01*
X116706739Y-129850950D01*
X116674133Y-129901936D01*
X116626530Y-129939787D01*
X116566461Y-129970850D01*
X116566461Y-129882768D01*
X116569997Y-129828951D01*
X116585156Y-129786534D01*
X116618768Y-129741279D01*
X116651035Y-129706420D01*
X116701209Y-129657062D01*
X116740193Y-129630547D01*
X116782064Y-129619911D01*
X116829460Y-129618154D01*
X116933333Y-129633528D01*
G36*
X116933333Y-129633528D02*
G01*
X116989590Y-129659117D01*
X117033747Y-129690124D01*
X117066101Y-129724795D01*
X117088438Y-129769520D01*
X117102546Y-129830692D01*
X117110211Y-129914701D01*
X117113220Y-130027940D01*
X117113538Y-130102509D01*
X117113538Y-130393420D01*
X117063773Y-130416095D01*
X117024576Y-130432667D01*
X117005157Y-130438769D01*
X117001442Y-130420610D01*
X116998495Y-130371648D01*
X116996691Y-130300153D01*
X116996308Y-130243385D01*
X116994661Y-130161371D01*
X116990222Y-130096309D01*
X116983740Y-130056467D01*
X116978590Y-130048000D01*
X116943977Y-130056646D01*
X116889640Y-130078823D01*
X116826722Y-130108886D01*
X116766368Y-130141192D01*
X116719721Y-130170098D01*
X116697926Y-130189961D01*
X116697839Y-130190175D01*
X116699714Y-130226935D01*
X116716525Y-130262026D01*
X116746039Y-130290528D01*
X116789116Y-130300061D01*
X116825932Y-130298950D01*
X116878074Y-130298133D01*
X116905444Y-130310349D01*
X116921882Y-130342624D01*
X116923955Y-130348710D01*
X116931081Y-130394739D01*
X116912024Y-130422687D01*
X116862353Y-130436007D01*
X116808697Y-130438470D01*
X116712142Y-130420210D01*
X116662159Y-130394131D01*
X116600429Y-130332868D01*
X116567690Y-130257670D01*
X116564753Y-130178211D01*
X116592424Y-130104167D01*
X116634047Y-130057769D01*
X116675604Y-130031793D01*
X116740922Y-129998907D01*
X116817038Y-129965557D01*
X116829726Y-129960461D01*
X116913333Y-129923565D01*
X116961530Y-129891046D01*
X116977030Y-129858718D01*
X116962550Y-129822394D01*
X116937692Y-129794000D01*
X116878939Y-129759039D01*
X116814293Y-129756417D01*
X116755008Y-129783358D01*
X116712339Y-129837088D01*
X116706739Y-129850950D01*
X116674133Y-129901936D01*
X116626530Y-129939787D01*
X116566461Y-129970850D01*
X116566461Y-129882768D01*
X116569997Y-129828951D01*
X116585156Y-129786534D01*
X116618768Y-129741279D01*
X116651035Y-129706420D01*
X116701209Y-129657062D01*
X116740193Y-129630547D01*
X116782064Y-129619911D01*
X116829460Y-129618154D01*
X116933333Y-129633528D01*
G37*
X114185878Y-123287776D02*
X114291612Y-123288355D01*
X114368132Y-123289922D01*
X114420372Y-123292972D01*
X114453263Y-123297996D01*
X114471737Y-123305489D01*
X114480727Y-123315944D01*
X114485163Y-123329853D01*
X114485594Y-123331654D01*
X114492333Y-123364145D01*
X114504808Y-123428252D01*
X114521719Y-123517151D01*
X114541771Y-123624019D01*
X114563664Y-123742033D01*
X114564429Y-123746178D01*
X114586359Y-123861831D01*
X114606877Y-123964014D01*
X114624659Y-124046598D01*
X114638381Y-124103456D01*
X114646718Y-124128458D01*
X114647116Y-124128901D01*
X114671677Y-124141110D01*
X114722315Y-124161456D01*
X114788095Y-124185545D01*
X114788461Y-124185674D01*
X114871317Y-124216818D01*
X114969000Y-124256491D01*
X115061077Y-124296381D01*
X115065434Y-124298353D01*
X115215407Y-124366420D01*
X115547498Y-124139639D01*
X115649374Y-124070504D01*
X115741657Y-124008697D01*
X115819003Y-123957733D01*
X115876064Y-123921127D01*
X115907495Y-123902394D01*
X115910479Y-123901004D01*
X115933321Y-123907190D01*
X115975982Y-123937035D01*
X116040128Y-123991947D01*
X116127421Y-124073334D01*
X116216535Y-124159922D01*
X116302441Y-124245247D01*
X116379327Y-124323108D01*
X116442564Y-124388697D01*
X116487523Y-124437205D01*
X116509576Y-124463825D01*
X116510396Y-124465195D01*
X116512834Y-124483463D01*
X116503650Y-124513295D01*
X116480574Y-124558721D01*
X116441337Y-124623770D01*
X116383670Y-124712470D01*
X116306795Y-124826657D01*
X116238570Y-124927162D01*
X116177582Y-125017303D01*
X116127356Y-125091849D01*
X116091416Y-125145565D01*
X116073287Y-125173218D01*
X116072146Y-125175095D01*
X116074359Y-125201590D01*
X116091138Y-125253086D01*
X116119142Y-125319851D01*
X116129122Y-125341172D01*
X116172672Y-125436159D01*
X116219134Y-125543937D01*
X116256877Y-125637192D01*
X116284073Y-125706406D01*
X116305675Y-125759006D01*
X116318158Y-125786497D01*
X116319709Y-125788616D01*
X116342668Y-125792124D01*
X116396786Y-125801738D01*
X116474868Y-125816089D01*
X116569719Y-125833807D01*
X116674143Y-125853525D01*
X116780944Y-125873874D01*
X116882926Y-125893486D01*
X116972894Y-125910991D01*
X117043653Y-125925022D01*
X117088006Y-125934209D01*
X117098885Y-125936807D01*
X117110122Y-125943218D01*
X117118605Y-125957697D01*
X117124714Y-125985133D01*
X117128832Y-126030411D01*
X117131341Y-126098420D01*
X117132621Y-126194047D01*
X117133054Y-126322180D01*
X117133077Y-126374701D01*
X117133077Y-126801845D01*
X117030500Y-126822091D01*
X116973431Y-126833070D01*
X116888269Y-126849095D01*
X116785372Y-126868233D01*
X116675096Y-126888551D01*
X116644615Y-126894132D01*
X116542855Y-126913917D01*
X116454205Y-126933373D01*
X116386108Y-126950697D01*
X116346004Y-126964088D01*
X116339323Y-126968079D01*
X116322919Y-126996342D01*
X116299399Y-127051109D01*
X116273316Y-127121588D01*
X116268142Y-127136769D01*
X116233956Y-127230896D01*
X116191523Y-127337101D01*
X116149997Y-127432473D01*
X116149792Y-127432916D01*
X116080640Y-127582525D01*
X116535512Y-128251617D01*
X116243500Y-128544116D01*
X116155180Y-128631170D01*
X116074625Y-128707909D01*
X116006360Y-128770237D01*
X115954908Y-128814056D01*
X115924794Y-128835270D01*
X115920474Y-128836616D01*
X115895111Y-128826016D01*
X115843358Y-128796547D01*
X115770868Y-128751705D01*
X115683294Y-128694984D01*
X115588612Y-128631462D01*
X115492516Y-128566668D01*
X115406837Y-128510287D01*
X115337016Y-128465788D01*
X115288494Y-128436639D01*
X115266782Y-128426308D01*
X115240293Y-128435050D01*
X115190062Y-128458087D01*
X115126451Y-128490631D01*
X115119708Y-128494249D01*
X115034046Y-128537210D01*
X114975306Y-128558279D01*
X114938772Y-128558503D01*
X114919731Y-128538928D01*
X114919620Y-128538654D01*
X114910102Y-128515472D01*
X114887403Y-128460441D01*
X114853282Y-128377822D01*
X114809500Y-128271872D01*
X114757816Y-128146852D01*
X114699992Y-128007020D01*
X114643991Y-127871637D01*
X114582447Y-127722234D01*
X114525939Y-127583832D01*
X114476161Y-127460673D01*
X114434806Y-127357002D01*
X114403568Y-127277059D01*
X114384141Y-127225088D01*
X114378154Y-127205692D01*
X114393168Y-127183443D01*
X114432439Y-127147982D01*
X114484807Y-127108887D01*
X114633941Y-126985245D01*
X114750511Y-126843522D01*
X114833118Y-126686704D01*
X114880366Y-126517775D01*
X114890857Y-126339722D01*
X114883231Y-126257539D01*
X114841682Y-126087031D01*
X114770123Y-125936459D01*
X114672995Y-125807309D01*
X114554734Y-125701064D01*
X114419780Y-125619210D01*
X114272571Y-125563232D01*
X114117544Y-125534615D01*
X113959139Y-125534844D01*
X113801794Y-125565405D01*
X113649946Y-125627782D01*
X113508035Y-125723460D01*
X113448803Y-125777572D01*
X113335203Y-125916520D01*
X113256106Y-126068361D01*
X113210986Y-126228667D01*
X113199316Y-126393012D01*
X113220569Y-126556971D01*
X113274220Y-126716118D01*
X113359740Y-126866025D01*
X113476605Y-127002267D01*
X113607193Y-127108887D01*
X113661588Y-127149642D01*
X113700014Y-127184718D01*
X113713846Y-127205726D01*
X113706603Y-127228635D01*
X113686005Y-127283365D01*
X113653746Y-127365672D01*
X113611521Y-127471315D01*
X113561023Y-127596050D01*
X113503948Y-127735636D01*
X113447854Y-127871670D01*
X113385967Y-128021201D01*
X113328644Y-128159767D01*
X113277644Y-128283107D01*
X113234727Y-128386964D01*
X113201653Y-128467080D01*
X113180181Y-128519195D01*
X113172225Y-128538654D01*
X113153429Y-128558423D01*
X113117074Y-128558365D01*
X113058479Y-128537441D01*
X112972968Y-128494613D01*
X112972292Y-128494249D01*
X112907907Y-128461012D01*
X112855861Y-128436802D01*
X112826512Y-128426404D01*
X112825217Y-128426308D01*
X112803124Y-128436855D01*
X112754348Y-128466184D01*
X112684331Y-128510827D01*
X112598514Y-128567314D01*
X112503388Y-128631462D01*
X112406540Y-128696411D01*
X112319253Y-128752896D01*
X112247181Y-128797421D01*
X112195977Y-128826490D01*
X112171526Y-128836616D01*
X112149010Y-128823307D01*
X112103742Y-128786112D01*
X112040244Y-128729128D01*
X111963039Y-128656449D01*
X111876651Y-128572171D01*
X111848399Y-128544016D01*
X111556287Y-128251416D01*
X111778631Y-127925104D01*
X111846202Y-127824897D01*
X111905507Y-127734963D01*
X111953217Y-127660510D01*
X111986007Y-127606751D01*
X112000548Y-127578894D01*
X112000974Y-127576912D01*
X111993308Y-127550655D01*
X111972689Y-127497837D01*
X111942685Y-127427310D01*
X111921625Y-127380093D01*
X111882248Y-127289694D01*
X111845165Y-127198366D01*
X111816415Y-127121200D01*
X111808605Y-127097692D01*
X111786417Y-127034916D01*
X111764727Y-126986411D01*
X111752813Y-126968079D01*
X111726523Y-126956859D01*
X111669142Y-126940954D01*
X111588118Y-126922167D01*
X111490895Y-126902299D01*
X111447385Y-126894132D01*
X111336896Y-126873829D01*
X111230916Y-126854170D01*
X111139801Y-126837088D01*
X111073908Y-126824518D01*
X111061500Y-126822091D01*
X110958923Y-126801845D01*
X110958923Y-126374701D01*
X110959153Y-126234246D01*
X110960099Y-126127979D01*
X110962141Y-126051013D01*
X110965662Y-125998460D01*
X110971043Y-125965433D01*
X110978666Y-125947045D01*
X110988912Y-125938408D01*
X110993115Y-125936807D01*
X111018470Y-125931127D01*
X111074484Y-125919795D01*
X111153964Y-125904179D01*
X111249712Y-125885647D01*
X111354533Y-125865569D01*
X111461232Y-125845312D01*
X111562613Y-125826246D01*
X111651479Y-125809739D01*
X111720637Y-125797159D01*
X111762889Y-125789875D01*
X111772290Y-125788616D01*
X111780807Y-125771763D01*
X111799660Y-125726870D01*
X111825324Y-125662430D01*
X111835123Y-125637192D01*
X111874648Y-125539686D01*
X111921192Y-125431959D01*
X111962877Y-125341172D01*
X111993550Y-125271753D01*
X112013956Y-125214710D01*
X112020768Y-125179777D01*
X112019682Y-125175095D01*
X112005285Y-125152991D01*
X111972412Y-125103831D01*
X111924590Y-125032848D01*
X111865348Y-124945278D01*
X111798215Y-124846357D01*
X111784941Y-124826830D01*
X111707046Y-124711140D01*
X111649787Y-124623044D01*
X111610881Y-124558486D01*
X111588044Y-124513411D01*
X111578994Y-124483763D01*
X111581448Y-124465485D01*
X111581511Y-124465369D01*
X111600827Y-124441361D01*
X111643551Y-124394947D01*
X111705051Y-124330937D01*
X111780698Y-124254145D01*
X111865861Y-124169382D01*
X111875465Y-124159922D01*
X111982790Y-124055989D01*
X112065615Y-123979675D01*
X112125605Y-123929571D01*
X112164423Y-123904270D01*
X112181520Y-123901004D01*
X112206473Y-123915250D01*
X112258255Y-123948156D01*
X112331520Y-123996208D01*
X112420920Y-124055890D01*
X112521111Y-124123688D01*
X112544501Y-124139639D01*
X112876593Y-124366420D01*
X113026565Y-124298353D01*
X113117770Y-124258685D01*
X113215669Y-124218791D01*
X113299831Y-124186983D01*
X113303538Y-124185674D01*
X113369369Y-124161576D01*
X113420116Y-124141200D01*
X113444842Y-124128936D01*
X113444884Y-124128901D01*
X113452729Y-124106734D01*
X113466066Y-124052217D01*
X113483570Y-123971480D01*
X113503917Y-123870650D01*
X113525782Y-123755856D01*
X113527571Y-123746178D01*
X113549504Y-123627904D01*
X113569640Y-123520542D01*
X113586680Y-123430917D01*
X113599328Y-123365851D01*
X113606284Y-123332168D01*
X113606406Y-123331654D01*
X113610639Y-123317325D01*
X113618871Y-123306507D01*
X113636033Y-123298706D01*
X113667058Y-123293429D01*
X113716878Y-123290182D01*
X113790424Y-123288472D01*
X113892629Y-123287807D01*
X114028425Y-123287693D01*
X114046000Y-123287692D01*
X114185878Y-123287776D01*
G36*
X114185878Y-123287776D02*
G01*
X114291612Y-123288355D01*
X114368132Y-123289922D01*
X114420372Y-123292972D01*
X114453263Y-123297996D01*
X114471737Y-123305489D01*
X114480727Y-123315944D01*
X114485163Y-123329853D01*
X114485594Y-123331654D01*
X114492333Y-123364145D01*
X114504808Y-123428252D01*
X114521719Y-123517151D01*
X114541771Y-123624019D01*
X114563664Y-123742033D01*
X114564429Y-123746178D01*
X114586359Y-123861831D01*
X114606877Y-123964014D01*
X114624659Y-124046598D01*
X114638381Y-124103456D01*
X114646718Y-124128458D01*
X114647116Y-124128901D01*
X114671677Y-124141110D01*
X114722315Y-124161456D01*
X114788095Y-124185545D01*
X114788461Y-124185674D01*
X114871317Y-124216818D01*
X114969000Y-124256491D01*
X115061077Y-124296381D01*
X115065434Y-124298353D01*
X115215407Y-124366420D01*
X115547498Y-124139639D01*
X115649374Y-124070504D01*
X115741657Y-124008697D01*
X115819003Y-123957733D01*
X115876064Y-123921127D01*
X115907495Y-123902394D01*
X115910479Y-123901004D01*
X115933321Y-123907190D01*
X115975982Y-123937035D01*
X116040128Y-123991947D01*
X116127421Y-124073334D01*
X116216535Y-124159922D01*
X116302441Y-124245247D01*
X116379327Y-124323108D01*
X116442564Y-124388697D01*
X116487523Y-124437205D01*
X116509576Y-124463825D01*
X116510396Y-124465195D01*
X116512834Y-124483463D01*
X116503650Y-124513295D01*
X116480574Y-124558721D01*
X116441337Y-124623770D01*
X116383670Y-124712470D01*
X116306795Y-124826657D01*
X116238570Y-124927162D01*
X116177582Y-125017303D01*
X116127356Y-125091849D01*
X116091416Y-125145565D01*
X116073287Y-125173218D01*
X116072146Y-125175095D01*
X116074359Y-125201590D01*
X116091138Y-125253086D01*
X116119142Y-125319851D01*
X116129122Y-125341172D01*
X116172672Y-125436159D01*
X116219134Y-125543937D01*
X116256877Y-125637192D01*
X116284073Y-125706406D01*
X116305675Y-125759006D01*
X116318158Y-125786497D01*
X116319709Y-125788616D01*
X116342668Y-125792124D01*
X116396786Y-125801738D01*
X116474868Y-125816089D01*
X116569719Y-125833807D01*
X116674143Y-125853525D01*
X116780944Y-125873874D01*
X116882926Y-125893486D01*
X116972894Y-125910991D01*
X117043653Y-125925022D01*
X117088006Y-125934209D01*
X117098885Y-125936807D01*
X117110122Y-125943218D01*
X117118605Y-125957697D01*
X117124714Y-125985133D01*
X117128832Y-126030411D01*
X117131341Y-126098420D01*
X117132621Y-126194047D01*
X117133054Y-126322180D01*
X117133077Y-126374701D01*
X117133077Y-126801845D01*
X117030500Y-126822091D01*
X116973431Y-126833070D01*
X116888269Y-126849095D01*
X116785372Y-126868233D01*
X116675096Y-126888551D01*
X116644615Y-126894132D01*
X116542855Y-126913917D01*
X116454205Y-126933373D01*
X116386108Y-126950697D01*
X116346004Y-126964088D01*
X116339323Y-126968079D01*
X116322919Y-126996342D01*
X116299399Y-127051109D01*
X116273316Y-127121588D01*
X116268142Y-127136769D01*
X116233956Y-127230896D01*
X116191523Y-127337101D01*
X116149997Y-127432473D01*
X116149792Y-127432916D01*
X116080640Y-127582525D01*
X116535512Y-128251617D01*
X116243500Y-128544116D01*
X116155180Y-128631170D01*
X116074625Y-128707909D01*
X116006360Y-128770237D01*
X115954908Y-128814056D01*
X115924794Y-128835270D01*
X115920474Y-128836616D01*
X115895111Y-128826016D01*
X115843358Y-128796547D01*
X115770868Y-128751705D01*
X115683294Y-128694984D01*
X115588612Y-128631462D01*
X115492516Y-128566668D01*
X115406837Y-128510287D01*
X115337016Y-128465788D01*
X115288494Y-128436639D01*
X115266782Y-128426308D01*
X115240293Y-128435050D01*
X115190062Y-128458087D01*
X115126451Y-128490631D01*
X115119708Y-128494249D01*
X115034046Y-128537210D01*
X114975306Y-128558279D01*
X114938772Y-128558503D01*
X114919731Y-128538928D01*
X114919620Y-128538654D01*
X114910102Y-128515472D01*
X114887403Y-128460441D01*
X114853282Y-128377822D01*
X114809500Y-128271872D01*
X114757816Y-128146852D01*
X114699992Y-128007020D01*
X114643991Y-127871637D01*
X114582447Y-127722234D01*
X114525939Y-127583832D01*
X114476161Y-127460673D01*
X114434806Y-127357002D01*
X114403568Y-127277059D01*
X114384141Y-127225088D01*
X114378154Y-127205692D01*
X114393168Y-127183443D01*
X114432439Y-127147982D01*
X114484807Y-127108887D01*
X114633941Y-126985245D01*
X114750511Y-126843522D01*
X114833118Y-126686704D01*
X114880366Y-126517775D01*
X114890857Y-126339722D01*
X114883231Y-126257539D01*
X114841682Y-126087031D01*
X114770123Y-125936459D01*
X114672995Y-125807309D01*
X114554734Y-125701064D01*
X114419780Y-125619210D01*
X114272571Y-125563232D01*
X114117544Y-125534615D01*
X113959139Y-125534844D01*
X113801794Y-125565405D01*
X113649946Y-125627782D01*
X113508035Y-125723460D01*
X113448803Y-125777572D01*
X113335203Y-125916520D01*
X113256106Y-126068361D01*
X113210986Y-126228667D01*
X113199316Y-126393012D01*
X113220569Y-126556971D01*
X113274220Y-126716118D01*
X113359740Y-126866025D01*
X113476605Y-127002267D01*
X113607193Y-127108887D01*
X113661588Y-127149642D01*
X113700014Y-127184718D01*
X113713846Y-127205726D01*
X113706603Y-127228635D01*
X113686005Y-127283365D01*
X113653746Y-127365672D01*
X113611521Y-127471315D01*
X113561023Y-127596050D01*
X113503948Y-127735636D01*
X113447854Y-127871670D01*
X113385967Y-128021201D01*
X113328644Y-128159767D01*
X113277644Y-128283107D01*
X113234727Y-128386964D01*
X113201653Y-128467080D01*
X113180181Y-128519195D01*
X113172225Y-128538654D01*
X113153429Y-128558423D01*
X113117074Y-128558365D01*
X113058479Y-128537441D01*
X112972968Y-128494613D01*
X112972292Y-128494249D01*
X112907907Y-128461012D01*
X112855861Y-128436802D01*
X112826512Y-128426404D01*
X112825217Y-128426308D01*
X112803124Y-128436855D01*
X112754348Y-128466184D01*
X112684331Y-128510827D01*
X112598514Y-128567314D01*
X112503388Y-128631462D01*
X112406540Y-128696411D01*
X112319253Y-128752896D01*
X112247181Y-128797421D01*
X112195977Y-128826490D01*
X112171526Y-128836616D01*
X112149010Y-128823307D01*
X112103742Y-128786112D01*
X112040244Y-128729128D01*
X111963039Y-128656449D01*
X111876651Y-128572171D01*
X111848399Y-128544016D01*
X111556287Y-128251416D01*
X111778631Y-127925104D01*
X111846202Y-127824897D01*
X111905507Y-127734963D01*
X111953217Y-127660510D01*
X111986007Y-127606751D01*
X112000548Y-127578894D01*
X112000974Y-127576912D01*
X111993308Y-127550655D01*
X111972689Y-127497837D01*
X111942685Y-127427310D01*
X111921625Y-127380093D01*
X111882248Y-127289694D01*
X111845165Y-127198366D01*
X111816415Y-127121200D01*
X111808605Y-127097692D01*
X111786417Y-127034916D01*
X111764727Y-126986411D01*
X111752813Y-126968079D01*
X111726523Y-126956859D01*
X111669142Y-126940954D01*
X111588118Y-126922167D01*
X111490895Y-126902299D01*
X111447385Y-126894132D01*
X111336896Y-126873829D01*
X111230916Y-126854170D01*
X111139801Y-126837088D01*
X111073908Y-126824518D01*
X111061500Y-126822091D01*
X110958923Y-126801845D01*
X110958923Y-126374701D01*
X110959153Y-126234246D01*
X110960099Y-126127979D01*
X110962141Y-126051013D01*
X110965662Y-125998460D01*
X110971043Y-125965433D01*
X110978666Y-125947045D01*
X110988912Y-125938408D01*
X110993115Y-125936807D01*
X111018470Y-125931127D01*
X111074484Y-125919795D01*
X111153964Y-125904179D01*
X111249712Y-125885647D01*
X111354533Y-125865569D01*
X111461232Y-125845312D01*
X111562613Y-125826246D01*
X111651479Y-125809739D01*
X111720637Y-125797159D01*
X111762889Y-125789875D01*
X111772290Y-125788616D01*
X111780807Y-125771763D01*
X111799660Y-125726870D01*
X111825324Y-125662430D01*
X111835123Y-125637192D01*
X111874648Y-125539686D01*
X111921192Y-125431959D01*
X111962877Y-125341172D01*
X111993550Y-125271753D01*
X112013956Y-125214710D01*
X112020768Y-125179777D01*
X112019682Y-125175095D01*
X112005285Y-125152991D01*
X111972412Y-125103831D01*
X111924590Y-125032848D01*
X111865348Y-124945278D01*
X111798215Y-124846357D01*
X111784941Y-124826830D01*
X111707046Y-124711140D01*
X111649787Y-124623044D01*
X111610881Y-124558486D01*
X111588044Y-124513411D01*
X111578994Y-124483763D01*
X111581448Y-124465485D01*
X111581511Y-124465369D01*
X111600827Y-124441361D01*
X111643551Y-124394947D01*
X111705051Y-124330937D01*
X111780698Y-124254145D01*
X111865861Y-124169382D01*
X111875465Y-124159922D01*
X111982790Y-124055989D01*
X112065615Y-123979675D01*
X112125605Y-123929571D01*
X112164423Y-123904270D01*
X112181520Y-123901004D01*
X112206473Y-123915250D01*
X112258255Y-123948156D01*
X112331520Y-123996208D01*
X112420920Y-124055890D01*
X112521111Y-124123688D01*
X112544501Y-124139639D01*
X112876593Y-124366420D01*
X113026565Y-124298353D01*
X113117770Y-124258685D01*
X113215669Y-124218791D01*
X113299831Y-124186983D01*
X113303538Y-124185674D01*
X113369369Y-124161576D01*
X113420116Y-124141200D01*
X113444842Y-124128936D01*
X113444884Y-124128901D01*
X113452729Y-124106734D01*
X113466066Y-124052217D01*
X113483570Y-123971480D01*
X113503917Y-123870650D01*
X113525782Y-123755856D01*
X113527571Y-123746178D01*
X113549504Y-123627904D01*
X113569640Y-123520542D01*
X113586680Y-123430917D01*
X113599328Y-123365851D01*
X113606284Y-123332168D01*
X113606406Y-123331654D01*
X113610639Y-123317325D01*
X113618871Y-123306507D01*
X113636033Y-123298706D01*
X113667058Y-123293429D01*
X113716878Y-123290182D01*
X113790424Y-123288472D01*
X113892629Y-123287807D01*
X114028425Y-123287693D01*
X114046000Y-123287692D01*
X114185878Y-123287776D01*
G37*
D12*
%TO.C,J5*%
X91110000Y-129870000D02*
X106470000Y-129870000D01*
X91110000Y-132470000D02*
X91110000Y-129870000D01*
X91110000Y-135070000D02*
X91110000Y-133740000D01*
X92440000Y-135070000D02*
X91110000Y-135070000D01*
X93710000Y-132470000D02*
X91110000Y-132470000D01*
X93710000Y-135070000D02*
X93710000Y-132470000D01*
X93710000Y-135070000D02*
X106470000Y-135070000D01*
X106470000Y-135070000D02*
X106470000Y-129870000D01*
%TO.C,D1*%
X50840000Y-146214000D02*
X50840000Y-146370000D01*
X50840000Y-148530000D02*
X50840000Y-148686000D01*
X50840000Y-146214484D02*
G75*
G02*
X54072335Y-146371392I1560000J-1235516D01*
G01*
X51359039Y-146370000D02*
G75*
G02*
X53441130Y-146370163I1040961J-1080000D01*
G01*
X53441130Y-148529837D02*
G75*
G02*
X51359039Y-148530000I-1041130J1079837D01*
G01*
X54072335Y-148528608D02*
G75*
G02*
X50840000Y-148685516I-1672335J1078608D01*
G01*
%TO.C,RV2*%
X143538000Y-120575000D02*
X143538000Y-130345000D01*
X148608000Y-120575000D02*
X143538000Y-120575000D01*
X148608000Y-120575000D02*
X148608000Y-130345000D01*
X148608000Y-130345000D02*
X143538000Y-130345000D01*
%TO.C,D12*%
X48260000Y-128414000D02*
X48260000Y-128570000D01*
X48260000Y-130730000D02*
X48260000Y-130886000D01*
X48260000Y-128414484D02*
G75*
G02*
X51492335Y-128571392I1560000J-1235516D01*
G01*
X48779039Y-128570000D02*
G75*
G02*
X50861130Y-128570163I1040961J-1080000D01*
G01*
X50861130Y-130729837D02*
G75*
G02*
X48779039Y-130730000I-1041130J1079837D01*
G01*
X51492335Y-130728608D02*
G75*
G02*
X48260000Y-130885516I-1672335J1078608D01*
G01*
%TO.C,D10*%
X48235000Y-122764000D02*
X48235000Y-122920000D01*
X48235000Y-125080000D02*
X48235000Y-125236000D01*
X48235000Y-122764484D02*
G75*
G02*
X51467335Y-122921392I1560000J-1235516D01*
G01*
X48754039Y-122920000D02*
G75*
G02*
X50836130Y-122920163I1040961J-1080000D01*
G01*
X50836130Y-125079837D02*
G75*
G02*
X48754039Y-125080000I-1041130J1079837D01*
G01*
X51467335Y-125078608D02*
G75*
G02*
X48235000Y-125235516I-1672335J1078608D01*
G01*
%TO.C,D11*%
X43175000Y-128414000D02*
X43175000Y-128570000D01*
X43175000Y-130730000D02*
X43175000Y-130886000D01*
X43175000Y-128414484D02*
G75*
G02*
X46407335Y-128571392I1560000J-1235516D01*
G01*
X43694039Y-128570000D02*
G75*
G02*
X45776130Y-128570163I1040961J-1080000D01*
G01*
X45776130Y-130729837D02*
G75*
G02*
X43694039Y-130730000I-1041130J1079837D01*
G01*
X46407335Y-130728608D02*
G75*
G02*
X43175000Y-130885516I-1672335J1078608D01*
G01*
D11*
%TO.C,J3*%
X104700000Y-139150000D02*
X104700000Y-136250000D01*
X104700000Y-145250000D02*
X104700000Y-142350000D01*
X115200000Y-136250000D02*
X104700000Y-136250000D01*
X115200000Y-139250000D02*
X115200000Y-136250000D01*
X115200000Y-145250000D02*
X104700000Y-145250000D01*
X115200000Y-145250000D02*
X115200000Y-142250000D01*
D12*
X107805000Y-140750000D02*
G75*
G02*
X113288576Y-139453737I2895000J0D01*
G01*
X113288577Y-142046263D02*
G75*
G02*
X107804999Y-140750000I-2588577J1296263D01*
G01*
D11*
%TO.C,J2*%
X76200000Y-136250000D02*
X76200000Y-139250000D01*
X76200000Y-136250000D02*
X86700000Y-136250000D01*
X76200000Y-142250000D02*
X76200000Y-145250000D01*
X76200000Y-145250000D02*
X86700000Y-145250000D01*
X86700000Y-136250000D02*
X86700000Y-139150000D01*
X86700000Y-142350000D02*
X86700000Y-145250000D01*
D12*
X78111423Y-139453737D02*
G75*
G02*
X83595001Y-140750000I2588577J-1296263D01*
G01*
X83595000Y-140750000D02*
G75*
G02*
X78111424Y-142046263I-2895000J0D01*
G01*
%TO.C,SW3*%
X122140000Y-137590000D02*
X122450000Y-137590000D01*
X122140000Y-146410000D02*
X122140000Y-137590000D01*
X122140000Y-146410000D02*
X122450000Y-146410000D01*
X126350000Y-137590000D02*
X126660000Y-137590000D01*
X126660000Y-137590000D02*
X126660000Y-146410000D01*
X126660000Y-146410000D02*
X126350000Y-146410000D01*
X126860000Y-140000000D02*
X127360000Y-140500000D01*
X127360000Y-139500000D02*
X126860000Y-140000000D01*
X127360000Y-140500000D02*
X127360000Y-139500000D01*
D11*
%TO.C,J4*%
X133000000Y-139150000D02*
X133000000Y-136250000D01*
X133000000Y-145250000D02*
X133000000Y-142350000D01*
X143500000Y-136250000D02*
X133000000Y-136250000D01*
X143500000Y-139250000D02*
X143500000Y-136250000D01*
X143500000Y-145250000D02*
X133000000Y-145250000D01*
X143500000Y-145250000D02*
X143500000Y-142250000D01*
D12*
X136105000Y-140750000D02*
G75*
G02*
X141588576Y-139453737I2895000J0D01*
G01*
X141588577Y-142046263D02*
G75*
G02*
X136104999Y-140750000I-2588577J1296263D01*
G01*
%TO.C,RV1*%
X121388000Y-120575000D02*
X121388000Y-130345000D01*
X126458000Y-120575000D02*
X121388000Y-120575000D01*
X126458000Y-120575000D02*
X126458000Y-130345000D01*
X126458000Y-130345000D02*
X121388000Y-130345000D01*
%TO.C,SW1*%
X93440000Y-137590000D02*
X93750000Y-137590000D01*
X93440000Y-146410000D02*
X93440000Y-137590000D01*
X93440000Y-146410000D02*
X93750000Y-146410000D01*
X97650000Y-137590000D02*
X97960000Y-137590000D01*
X97960000Y-137590000D02*
X97960000Y-146410000D01*
X97960000Y-146410000D02*
X97650000Y-146410000D01*
X98160000Y-140000000D02*
X98660000Y-140500000D01*
X98660000Y-139500000D02*
X98160000Y-140000000D01*
X98660000Y-140500000D02*
X98660000Y-139500000D01*
%TO.C,D9*%
X43130000Y-122764000D02*
X43130000Y-122920000D01*
X43130000Y-125080000D02*
X43130000Y-125236000D01*
X43130000Y-122764484D02*
G75*
G02*
X46362335Y-122921392I1560000J-1235516D01*
G01*
X43649039Y-122920000D02*
G75*
G02*
X45731130Y-122920163I1040961J-1080000D01*
G01*
X45731130Y-125079837D02*
G75*
G02*
X43649039Y-125080000I-1041130J1079837D01*
G01*
X46362335Y-125078608D02*
G75*
G02*
X43130000Y-125235516I-1672335J1078608D01*
G01*
%TO.C,D7*%
X137440000Y-146214000D02*
X137440000Y-146370000D01*
X137440000Y-148530000D02*
X137440000Y-148686000D01*
X137440000Y-146214484D02*
G75*
G02*
X140672335Y-146371392I1560000J-1235516D01*
G01*
X137959039Y-146370000D02*
G75*
G02*
X140041130Y-146370163I1040961J-1080000D01*
G01*
X140041130Y-148529837D02*
G75*
G02*
X137959039Y-148530000I-1041130J1079837D01*
G01*
X140672335Y-148528608D02*
G75*
G02*
X137440000Y-148685516I-1672335J1078608D01*
G01*
%TO.C,SW4*%
X53450000Y-123246666D02*
X53450000Y-125080000D01*
X53450000Y-125080000D02*
X53450000Y-126913332D01*
X53450000Y-126913332D02*
X53450000Y-128746665D01*
X53450000Y-128749999D02*
X74050000Y-128750000D01*
X74050000Y-123250001D02*
X53450000Y-123250000D01*
X74050000Y-128750000D02*
X74050000Y-123250001D01*
%TO.C,D3*%
X79140000Y-146214000D02*
X79140000Y-146370000D01*
X79140000Y-148530000D02*
X79140000Y-148686000D01*
X79140000Y-146214484D02*
G75*
G02*
X82372335Y-146371392I1560000J-1235516D01*
G01*
X79659039Y-146370000D02*
G75*
G02*
X81741130Y-146370163I1040961J-1080000D01*
G01*
X81741130Y-148529837D02*
G75*
G02*
X79659039Y-148530000I-1041130J1079837D01*
G01*
X82372335Y-148528608D02*
G75*
G02*
X79140000Y-148685516I-1672335J1078608D01*
G01*
D13*
%TO.C,GR1*%
X135537081Y-131074800D02*
X135627021Y-131103035D01*
X135716885Y-131140178D01*
X135903357Y-131211425D01*
X136130752Y-131269300D01*
X136401926Y-131314394D01*
X136715500Y-131346963D01*
X136968653Y-131361166D01*
X137186703Y-131359208D01*
X137383097Y-131339877D01*
X137571284Y-131301959D01*
X137731150Y-131255416D01*
X137838155Y-131222663D01*
X137911034Y-131207031D01*
X137962802Y-131206709D01*
X138001610Y-131217812D01*
X138071460Y-131271733D01*
X138110717Y-131353251D01*
X138111717Y-131444634D01*
X138106958Y-131461624D01*
X138059554Y-131528471D01*
X137967760Y-131589340D01*
X137837757Y-131643051D01*
X137675729Y-131688423D01*
X137487856Y-131724279D01*
X137280323Y-131749438D01*
X137059310Y-131762721D01*
X136831000Y-131762948D01*
X136601576Y-131748940D01*
X136601200Y-131748905D01*
X136368317Y-131720406D01*
X136139262Y-131680305D01*
X135922395Y-131630900D01*
X135726079Y-131574491D01*
X135558673Y-131513377D01*
X135428540Y-131449857D01*
X135370570Y-131410537D01*
X135312483Y-131338041D01*
X135292709Y-131255171D01*
X135307587Y-131174434D01*
X135353459Y-131108337D01*
X135426663Y-131069386D01*
X135471984Y-131064000D01*
X135537081Y-131074800D01*
G36*
X135537081Y-131074800D02*
G01*
X135627021Y-131103035D01*
X135716885Y-131140178D01*
X135903357Y-131211425D01*
X136130752Y-131269300D01*
X136401926Y-131314394D01*
X136715500Y-131346963D01*
X136968653Y-131361166D01*
X137186703Y-131359208D01*
X137383097Y-131339877D01*
X137571284Y-131301959D01*
X137731150Y-131255416D01*
X137838155Y-131222663D01*
X137911034Y-131207031D01*
X137962802Y-131206709D01*
X138001610Y-131217812D01*
X138071460Y-131271733D01*
X138110717Y-131353251D01*
X138111717Y-131444634D01*
X138106958Y-131461624D01*
X138059554Y-131528471D01*
X137967760Y-131589340D01*
X137837757Y-131643051D01*
X137675729Y-131688423D01*
X137487856Y-131724279D01*
X137280323Y-131749438D01*
X137059310Y-131762721D01*
X136831000Y-131762948D01*
X136601576Y-131748940D01*
X136601200Y-131748905D01*
X136368317Y-131720406D01*
X136139262Y-131680305D01*
X135922395Y-131630900D01*
X135726079Y-131574491D01*
X135558673Y-131513377D01*
X135428540Y-131449857D01*
X135370570Y-131410537D01*
X135312483Y-131338041D01*
X135292709Y-131255171D01*
X135307587Y-131174434D01*
X135353459Y-131108337D01*
X135426663Y-131069386D01*
X135471984Y-131064000D01*
X135537081Y-131074800D01*
G37*
X136032068Y-123969822D02*
X136095614Y-123977064D01*
X136140125Y-123990174D01*
X136176183Y-124010559D01*
X136186556Y-124018023D01*
X136244628Y-124086767D01*
X136268895Y-124171206D01*
X136256999Y-124254076D01*
X136225391Y-124302408D01*
X136198194Y-124322871D01*
X136158010Y-124337836D01*
X136095848Y-124348774D01*
X136002716Y-124357152D01*
X135869623Y-124364441D01*
X135836594Y-124365933D01*
X135628705Y-124379409D01*
X135456442Y-124401795D01*
X135304921Y-124436579D01*
X135159259Y-124487248D01*
X135004572Y-124557289D01*
X134990779Y-124564124D01*
X134762290Y-124695286D01*
X134542997Y-124854005D01*
X134339920Y-125033025D01*
X134160081Y-125225090D01*
X134010502Y-125422944D01*
X133898203Y-125619334D01*
X133847685Y-125745341D01*
X133796316Y-125854199D01*
X133728632Y-125915058D01*
X133644859Y-125927807D01*
X133548594Y-125894185D01*
X133480717Y-125833169D01*
X133452751Y-125745023D01*
X133464860Y-125629117D01*
X133517207Y-125484819D01*
X133609956Y-125311500D01*
X133743271Y-125108527D01*
X133757370Y-125088635D01*
X133953159Y-124850126D01*
X134187738Y-124624627D01*
X134449237Y-124421381D01*
X134725785Y-124249628D01*
X135001000Y-124120367D01*
X135195830Y-124051026D01*
X135372250Y-124005200D01*
X135551370Y-123978872D01*
X135754305Y-123968025D01*
X135805556Y-123967306D01*
X135938909Y-123967039D01*
X136032068Y-123969822D01*
G36*
X136032068Y-123969822D02*
G01*
X136095614Y-123977064D01*
X136140125Y-123990174D01*
X136176183Y-124010559D01*
X136186556Y-124018023D01*
X136244628Y-124086767D01*
X136268895Y-124171206D01*
X136256999Y-124254076D01*
X136225391Y-124302408D01*
X136198194Y-124322871D01*
X136158010Y-124337836D01*
X136095848Y-124348774D01*
X136002716Y-124357152D01*
X135869623Y-124364441D01*
X135836594Y-124365933D01*
X135628705Y-124379409D01*
X135456442Y-124401795D01*
X135304921Y-124436579D01*
X135159259Y-124487248D01*
X135004572Y-124557289D01*
X134990779Y-124564124D01*
X134762290Y-124695286D01*
X134542997Y-124854005D01*
X134339920Y-125033025D01*
X134160081Y-125225090D01*
X134010502Y-125422944D01*
X133898203Y-125619334D01*
X133847685Y-125745341D01*
X133796316Y-125854199D01*
X133728632Y-125915058D01*
X133644859Y-125927807D01*
X133548594Y-125894185D01*
X133480717Y-125833169D01*
X133452751Y-125745023D01*
X133464860Y-125629117D01*
X133517207Y-125484819D01*
X133609956Y-125311500D01*
X133743271Y-125108527D01*
X133757370Y-125088635D01*
X133953159Y-124850126D01*
X134187738Y-124624627D01*
X134449237Y-124421381D01*
X134725785Y-124249628D01*
X135001000Y-124120367D01*
X135195830Y-124051026D01*
X135372250Y-124005200D01*
X135551370Y-123978872D01*
X135754305Y-123968025D01*
X135805556Y-123967306D01*
X135938909Y-123967039D01*
X136032068Y-123969822D01*
G37*
X136435850Y-120327564D02*
X136475001Y-120347964D01*
X136496324Y-120367324D01*
X136539317Y-120442678D01*
X136548749Y-120535627D01*
X136523324Y-120624532D01*
X136512739Y-120641664D01*
X136470233Y-120677884D01*
X136394547Y-120705833D01*
X136303189Y-120724904D01*
X136030894Y-120786631D01*
X135802148Y-120871619D01*
X135614659Y-120981237D01*
X135466135Y-121116854D01*
X135354284Y-121279839D01*
X135345442Y-121296875D01*
X135286481Y-121457373D01*
X135253247Y-121648234D01*
X135248103Y-121854712D01*
X135250249Y-121891105D01*
X135257032Y-121959482D01*
X135271687Y-121989079D01*
X135305423Y-121991808D01*
X135339149Y-121985571D01*
X135612553Y-121940310D01*
X135913536Y-121907690D01*
X136227109Y-121888290D01*
X136538283Y-121882688D01*
X136832068Y-121891462D01*
X137093475Y-121915190D01*
X137109200Y-121917293D01*
X137523307Y-121990996D01*
X137936922Y-122097091D01*
X138333559Y-122230812D01*
X138638187Y-122359422D01*
X138751255Y-122410816D01*
X138827623Y-122441126D01*
X138875615Y-122452792D01*
X138903556Y-122448256D01*
X138913139Y-122440049D01*
X138950235Y-122412225D01*
X139022900Y-122369997D01*
X139119973Y-122318877D01*
X139230290Y-122264378D01*
X139342689Y-122212013D01*
X139446006Y-122167293D01*
X139529079Y-122135731D01*
X139530011Y-122135420D01*
X139671431Y-122095478D01*
X139833025Y-122060921D01*
X139994341Y-122035376D01*
X140134925Y-122022469D01*
X140172134Y-122021600D01*
X140268700Y-122027870D01*
X140331529Y-122049503D01*
X140359753Y-122071753D01*
X140417333Y-122156761D01*
X140427044Y-122244665D01*
X140392873Y-122322051D01*
X140361726Y-122357373D01*
X140322807Y-122383806D01*
X140266578Y-122404367D01*
X140183498Y-122422075D01*
X140064027Y-122439949D01*
X139989621Y-122449643D01*
X139838678Y-122476255D01*
X139679148Y-122516835D01*
X139527307Y-122566301D01*
X139399428Y-122619572D01*
X139337936Y-122653150D01*
X139261948Y-122701262D01*
X139423824Y-122810123D01*
X139524514Y-122880502D01*
X139628018Y-122957065D01*
X139705543Y-123018082D01*
X139825386Y-123117179D01*
X139973510Y-123030366D01*
X140278945Y-122878422D01*
X140593730Y-122775841D01*
X140921601Y-122721496D01*
X141021117Y-122714526D01*
X141228026Y-122713131D01*
X141406959Y-122734032D01*
X141577336Y-122781256D01*
X141758583Y-122858827D01*
X141788332Y-122873542D01*
X142042974Y-123029332D01*
X142271860Y-123226485D01*
X142471889Y-123460896D01*
X142639958Y-123728457D01*
X142772967Y-124025063D01*
X142852473Y-124282200D01*
X142875747Y-124419557D01*
X142887734Y-124590117D01*
X142888801Y-124777637D01*
X142879315Y-124965874D01*
X142859643Y-125138586D01*
X142830153Y-125279529D01*
X142829903Y-125280399D01*
X142718820Y-125583369D01*
X142566870Y-125858967D01*
X142371158Y-126111866D01*
X142219239Y-126266169D01*
X142128278Y-126353002D01*
X142070679Y-126414366D01*
X142040935Y-126457505D01*
X142033539Y-126489660D01*
X142037142Y-126505661D01*
X142049526Y-126549666D01*
X142069149Y-126631993D01*
X142093381Y-126741130D01*
X142119591Y-126865566D01*
X142121311Y-126873961D01*
X142203796Y-127391692D01*
X142236906Y-127898029D01*
X142220496Y-128394106D01*
X142154422Y-128881057D01*
X142038539Y-129360017D01*
X141872703Y-129832121D01*
X141694533Y-130224537D01*
X141457943Y-130640478D01*
X141176808Y-131035850D01*
X140854080Y-131408100D01*
X140492715Y-131754672D01*
X140095665Y-132073012D01*
X139665884Y-132360565D01*
X139206325Y-132614776D01*
X138719942Y-132833091D01*
X138644417Y-132862753D01*
X138361666Y-132967667D01*
X138106142Y-133052655D01*
X137860674Y-133122484D01*
X137608093Y-133181919D01*
X137331230Y-133235726D01*
X137248900Y-133250110D01*
X137063891Y-133275104D01*
X136841772Y-133294402D01*
X136595949Y-133307694D01*
X136339826Y-133314672D01*
X136086807Y-133315025D01*
X135850296Y-133308445D01*
X135643698Y-133294621D01*
X135585200Y-133288514D01*
X135069515Y-133204653D01*
X134565514Y-133075061D01*
X134080359Y-132901843D01*
X133732742Y-132744352D01*
X133324169Y-132519455D01*
X132945376Y-132264972D01*
X132588969Y-131975090D01*
X132247556Y-131643998D01*
X132034965Y-131409473D01*
X131975862Y-131343336D01*
X131938328Y-131310715D01*
X131911735Y-131305831D01*
X131885456Y-131322907D01*
X131881779Y-131326193D01*
X131822669Y-131366383D01*
X131727617Y-131416370D01*
X131609126Y-131470661D01*
X131479699Y-131523761D01*
X131351837Y-131570177D01*
X131265491Y-131597016D01*
X131101583Y-131632868D01*
X130914769Y-131657181D01*
X130722953Y-131668850D01*
X130544040Y-131666771D01*
X130399311Y-131650486D01*
X130120451Y-131576378D01*
X129869123Y-131463490D01*
X129638460Y-131307989D01*
X129421596Y-131106038D01*
X129418554Y-131102787D01*
X129246578Y-130891371D01*
X129121057Y-130672861D01*
X129037659Y-130439158D01*
X129018004Y-130354181D01*
X128987948Y-130083304D01*
X128995630Y-129981158D01*
X129396157Y-129981158D01*
X129397672Y-130190774D01*
X129442327Y-130400547D01*
X129533235Y-130605303D01*
X129544460Y-130624422D01*
X129660192Y-130780686D01*
X129810125Y-130928666D01*
X129981815Y-131059207D01*
X130162816Y-131163153D01*
X130340684Y-131231350D01*
X130383719Y-131241850D01*
X130514176Y-131257945D01*
X130675569Y-131260757D01*
X130850149Y-131251516D01*
X131020169Y-131231449D01*
X131167881Y-131201787D01*
X131229100Y-131183293D01*
X131408763Y-131116500D01*
X131543275Y-131059423D01*
X131631080Y-131012770D01*
X131665474Y-130984891D01*
X131675154Y-130956317D01*
X131663263Y-130910942D01*
X131626435Y-130839357D01*
X131593822Y-130784570D01*
X131534278Y-130682943D01*
X131464906Y-130558237D01*
X131398180Y-130433017D01*
X131380613Y-130398863D01*
X131328400Y-130297783D01*
X131291893Y-130234596D01*
X131264152Y-130201721D01*
X131238235Y-130191579D01*
X131207205Y-130196588D01*
X131197905Y-130199298D01*
X131077737Y-130241048D01*
X130993059Y-130285710D01*
X130945334Y-130324101D01*
X130886456Y-130398990D01*
X130872691Y-130476335D01*
X130902294Y-130568781D01*
X130909565Y-130583199D01*
X130955074Y-130700657D01*
X130957166Y-130794258D01*
X130915889Y-130862812D01*
X130897859Y-130876517D01*
X130825305Y-130902531D01*
X130756879Y-130881073D01*
X130690488Y-130810931D01*
X130642211Y-130728494D01*
X130584576Y-130566172D01*
X130576318Y-130409171D01*
X130616131Y-130262480D01*
X130702705Y-130131088D01*
X130826511Y-130025353D01*
X130895068Y-129982060D01*
X130946608Y-129953382D01*
X130965101Y-129946400D01*
X131000915Y-129938139D01*
X131053571Y-129920136D01*
X131122649Y-129893872D01*
X131048874Y-129815408D01*
X130948619Y-129732554D01*
X130831226Y-129684782D01*
X130684071Y-129667305D01*
X130657571Y-129667000D01*
X130479948Y-129690561D01*
X130323292Y-129758993D01*
X130192675Y-129868917D01*
X130093168Y-130016955D01*
X130075864Y-130054515D01*
X130017730Y-130156336D01*
X129951771Y-130209207D01*
X129879091Y-130212509D01*
X129833140Y-130190717D01*
X129782932Y-130130974D01*
X129769955Y-130048112D01*
X129790329Y-129948849D01*
X129840172Y-129839906D01*
X129915604Y-129728003D01*
X130012744Y-129619859D01*
X130127711Y-129522194D01*
X130256624Y-129441727D01*
X130269487Y-129435205D01*
X130329572Y-129408311D01*
X130388926Y-129390743D01*
X130460642Y-129380592D01*
X130557813Y-129375949D01*
X130683000Y-129374900D01*
X130975100Y-129374900D01*
X130924300Y-129166865D01*
X130899120Y-129067525D01*
X130874473Y-129000939D01*
X130840324Y-128960538D01*
X130786634Y-128939756D01*
X130703370Y-128932023D01*
X130580494Y-128930771D01*
X130563505Y-128930746D01*
X130331971Y-128952846D01*
X130118672Y-129016495D01*
X129926722Y-129116517D01*
X129759233Y-129247740D01*
X129619319Y-129404990D01*
X129510093Y-129583092D01*
X129434668Y-129776872D01*
X129396157Y-129981158D01*
X128995630Y-129981158D01*
X129007872Y-129818386D01*
X129077088Y-129561713D01*
X129194910Y-129315566D01*
X129360649Y-129082231D01*
X129421591Y-129012921D01*
X129587746Y-128862311D01*
X129784541Y-128732518D01*
X129888005Y-128682820D01*
X131231092Y-128682820D01*
X131240413Y-128755355D01*
X131260831Y-128860122D01*
X131290540Y-128988925D01*
X131327736Y-129133566D01*
X131370612Y-129285851D01*
X131385826Y-129336800D01*
X131558719Y-129823846D01*
X131772318Y-130281816D01*
X132024689Y-130709058D01*
X132313898Y-131103920D01*
X132638008Y-131464752D01*
X132995085Y-131789902D01*
X133383193Y-132077719D01*
X133800399Y-132326552D01*
X134244766Y-132534750D01*
X134714360Y-132700660D01*
X135207245Y-132822633D01*
X135534400Y-132876926D01*
X135716667Y-132895391D01*
X135934447Y-132907631D01*
X136172827Y-132913600D01*
X136416898Y-132913255D01*
X136651748Y-132906554D01*
X136862467Y-132893453D01*
X136982200Y-132881139D01*
X137516788Y-132790194D01*
X138038538Y-132654094D01*
X138543390Y-132474775D01*
X139027288Y-132254176D01*
X139486172Y-131994234D01*
X139915985Y-131696886D01*
X140312669Y-131364072D01*
X140464039Y-131218569D01*
X140782438Y-130871943D01*
X141054887Y-130513354D01*
X141286017Y-130135526D01*
X141480462Y-129731182D01*
X141589228Y-129451100D01*
X141704464Y-129059546D01*
X141782693Y-128641781D01*
X141823491Y-128206837D01*
X141826436Y-127763750D01*
X141791104Y-127321553D01*
X141717072Y-126889280D01*
X141710583Y-126860300D01*
X141689045Y-126766220D01*
X141668905Y-126705288D01*
X141640466Y-126673494D01*
X141594032Y-126666828D01*
X141519905Y-126681280D01*
X141408388Y-126712840D01*
X141376400Y-126722106D01*
X141265890Y-126749367D01*
X141150763Y-126766867D01*
X141014973Y-126776424D01*
X140868400Y-126779686D01*
X140735334Y-126779839D01*
X140630642Y-126776262D01*
X140538862Y-126766695D01*
X140444533Y-126748881D01*
X140332194Y-126720561D01*
X140190578Y-126680682D01*
X140179761Y-126685965D01*
X140188074Y-126715332D01*
X140217400Y-126772036D01*
X140269624Y-126859327D01*
X140346629Y-126980455D01*
X140450300Y-127138672D01*
X140495628Y-127207013D01*
X140669958Y-127474810D01*
X140819148Y-127715736D01*
X140942003Y-127927563D01*
X141037323Y-128108065D01*
X141103913Y-128255016D01*
X141140575Y-128366189D01*
X141147800Y-128419918D01*
X141123012Y-128520460D01*
X141049536Y-128611699D01*
X140928702Y-128693209D01*
X140761838Y-128764565D01*
X140550275Y-128825341D01*
X140295343Y-128875114D01*
X139998371Y-128913457D01*
X139660690Y-128939946D01*
X139496800Y-128947845D01*
X139351625Y-128953119D01*
X139248096Y-128955019D01*
X139177126Y-128952778D01*
X139129625Y-128945631D01*
X139096507Y-128932814D01*
X139068685Y-128913562D01*
X139066269Y-128911602D01*
X139016757Y-128841523D01*
X139002715Y-128753625D01*
X139024771Y-128667061D01*
X139056784Y-128622527D01*
X139082005Y-128602117D01*
X139116506Y-128586667D01*
X139168592Y-128574801D01*
X139246564Y-128565145D01*
X139358725Y-128556321D01*
X139512714Y-128546993D01*
X139740851Y-128531267D01*
X139959215Y-128510858D01*
X140161820Y-128486743D01*
X140342684Y-128459897D01*
X140495821Y-128431297D01*
X140615249Y-128401919D01*
X140694983Y-128372740D01*
X140727067Y-128348841D01*
X140721247Y-128313947D01*
X140686230Y-128240485D01*
X140623372Y-128130470D01*
X140534034Y-127985916D01*
X140419573Y-127808837D01*
X140281348Y-127601248D01*
X140120717Y-127365163D01*
X139939040Y-127102597D01*
X139737674Y-126815565D01*
X139517978Y-126506080D01*
X139281311Y-126176157D01*
X139029031Y-125827811D01*
X138999462Y-125787186D01*
X138912495Y-125668252D01*
X138848935Y-125584303D01*
X138802305Y-125529243D01*
X138766127Y-125496980D01*
X138733922Y-125481417D01*
X138699215Y-125476460D01*
X138668760Y-125476036D01*
X138551138Y-125500118D01*
X138435535Y-125567980D01*
X138329683Y-125672927D01*
X138241314Y-125808260D01*
X138211436Y-125872157D01*
X138194691Y-125915638D01*
X138188133Y-125953115D01*
X138194256Y-125995967D01*
X138215555Y-126055571D01*
X138254526Y-126143305D01*
X138285566Y-126210180D01*
X138411246Y-126536084D01*
X138488317Y-126866141D01*
X138517492Y-127196303D01*
X138499488Y-127522524D01*
X138435016Y-127840755D01*
X138324792Y-128146950D01*
X138169529Y-128437062D01*
X137969942Y-128707044D01*
X137816224Y-128870357D01*
X137554133Y-129091314D01*
X137272247Y-129265507D01*
X136970073Y-129393149D01*
X136647115Y-129474459D01*
X136359787Y-129507089D01*
X136011398Y-129504326D01*
X135684020Y-129455514D01*
X135375939Y-129360005D01*
X135085439Y-129217147D01*
X134810808Y-129026292D01*
X134604293Y-128841500D01*
X134375000Y-128584939D01*
X134194552Y-128315970D01*
X134062059Y-128032543D01*
X133976633Y-127732607D01*
X133937386Y-127414112D01*
X133934429Y-127297199D01*
X134340975Y-127297199D01*
X134345552Y-127472182D01*
X134362674Y-127620503D01*
X134396491Y-127759713D01*
X134451156Y-127907361D01*
X134522093Y-128062970D01*
X134590996Y-128198501D01*
X134655593Y-128304645D01*
X134728759Y-128399823D01*
X134823368Y-128502453D01*
X134843932Y-128523405D01*
X134942262Y-128617514D01*
X135044819Y-128706513D01*
X135142717Y-128783601D01*
X135227069Y-128841979D01*
X135288988Y-128874847D01*
X135309476Y-128879600D01*
X135313162Y-128859204D01*
X135298549Y-128808521D01*
X135291803Y-128791515D01*
X135257311Y-128647377D01*
X135267491Y-128500739D01*
X135317602Y-128360896D01*
X135402905Y-128237144D01*
X135518659Y-128138780D01*
X135656578Y-128076116D01*
X135822081Y-128049599D01*
X135973086Y-128071488D01*
X136112329Y-128142491D01*
X136198473Y-128215957D01*
X136302780Y-128349044D01*
X136357980Y-128492719D01*
X136365232Y-128650217D01*
X136362415Y-128674080D01*
X136329240Y-128796455D01*
X136269056Y-128915401D01*
X136192265Y-129013264D01*
X136135646Y-129058896D01*
X136055100Y-129108010D01*
X136258300Y-129107664D01*
X136387102Y-129102189D01*
X136525737Y-129088211D01*
X136638571Y-129069809D01*
X136867816Y-129000999D01*
X137101128Y-128894519D01*
X137323326Y-128759124D01*
X137519232Y-128603567D01*
X137616184Y-128506047D01*
X137782838Y-128288302D01*
X137922533Y-128041169D01*
X138029266Y-127778101D01*
X138097034Y-127512550D01*
X138113668Y-127391222D01*
X138118190Y-127216496D01*
X138103568Y-127017136D01*
X138072315Y-126814463D01*
X138026943Y-126629794D01*
X138022120Y-126614370D01*
X137933746Y-126393954D01*
X137812212Y-126171807D01*
X137667047Y-125962187D01*
X137507777Y-125779347D01*
X137395907Y-125677288D01*
X137162546Y-125518566D01*
X136912646Y-125407065D01*
X136648975Y-125343018D01*
X136374307Y-125326659D01*
X136091411Y-125358222D01*
X135803059Y-125437942D01*
X135593989Y-125525115D01*
X135385974Y-125631606D01*
X135211497Y-125739029D01*
X135054251Y-125858118D01*
X134954015Y-125946443D01*
X134737291Y-126178385D01*
X134566996Y-126429385D01*
X134443767Y-126698041D01*
X134368240Y-126982950D01*
X134341053Y-127282711D01*
X134340975Y-127297199D01*
X133934429Y-127297199D01*
X133934391Y-127295732D01*
X133932698Y-127203736D01*
X133926281Y-127153138D01*
X133912751Y-127134590D01*
X133893835Y-127137054D01*
X133865126Y-127152072D01*
X133797235Y-127189545D01*
X133694896Y-127246776D01*
X133562844Y-127321070D01*
X133405813Y-127409734D01*
X133228540Y-127510070D01*
X133035758Y-127619384D01*
X132832202Y-127734982D01*
X132622608Y-127854167D01*
X132411709Y-127974245D01*
X132204241Y-128092520D01*
X132004938Y-128206298D01*
X131818536Y-128312882D01*
X131649768Y-128409579D01*
X131503371Y-128493692D01*
X131384078Y-128562527D01*
X131296624Y-128613389D01*
X131245745Y-128643582D01*
X131234675Y-128650712D01*
X131231092Y-128682820D01*
X129888005Y-128682820D01*
X129999434Y-128629297D01*
X130219883Y-128558401D01*
X130433344Y-128525585D01*
X130487330Y-128524000D01*
X130588004Y-128516784D01*
X130676627Y-128498069D01*
X130710598Y-128484762D01*
X130759589Y-128454301D01*
X130775837Y-128419437D01*
X130768283Y-128358928D01*
X130766723Y-128351412D01*
X130757215Y-128274880D01*
X130750714Y-128156934D01*
X130747059Y-128006859D01*
X130746089Y-127833944D01*
X130746711Y-127759238D01*
X131139938Y-127759238D01*
X131142542Y-127904615D01*
X131148553Y-128029773D01*
X131157826Y-128127321D01*
X131170217Y-128189868D01*
X131185582Y-128210023D01*
X131187742Y-128209172D01*
X131212111Y-128195273D01*
X131276722Y-128158456D01*
X131377674Y-128100943D01*
X131511067Y-128024956D01*
X131672998Y-127932718D01*
X131859567Y-127826450D01*
X132066873Y-127708375D01*
X132291015Y-127580715D01*
X132511800Y-127454970D01*
X132751888Y-127318293D01*
X132981766Y-127187543D01*
X133197115Y-127065169D01*
X133393616Y-126953620D01*
X133566952Y-126855345D01*
X133712803Y-126772792D01*
X133826851Y-126708410D01*
X133904777Y-126664648D01*
X133939493Y-126645435D01*
X134021421Y-126592460D01*
X134072481Y-126531786D01*
X134102530Y-126466600D01*
X134189035Y-126284875D01*
X134312055Y-126090540D01*
X134462872Y-125894106D01*
X134632769Y-125706086D01*
X134813027Y-125536991D01*
X134981862Y-125406252D01*
X135291402Y-125218213D01*
X135605212Y-125076462D01*
X135920162Y-124980938D01*
X136233122Y-124931582D01*
X136540962Y-124928330D01*
X136840549Y-124971123D01*
X137128755Y-125059899D01*
X137402448Y-125194597D01*
X137658498Y-125375156D01*
X137755462Y-125460380D01*
X137820762Y-125519421D01*
X137871264Y-125561533D01*
X137896034Y-125577599D01*
X137896036Y-125577600D01*
X137917691Y-125558021D01*
X137950825Y-125510133D01*
X137955326Y-125502640D01*
X138070625Y-125354360D01*
X138221898Y-125230422D01*
X138397299Y-125138021D01*
X138584983Y-125084350D01*
X138658626Y-125075493D01*
X138834486Y-125062911D01*
X138834567Y-124887255D01*
X139233045Y-124887255D01*
X139242923Y-125052410D01*
X139267000Y-125192563D01*
X139279567Y-125234700D01*
X139363369Y-125440992D01*
X139462086Y-125626536D01*
X139568118Y-125777310D01*
X139583336Y-125795098D01*
X139692081Y-125918678D01*
X139690022Y-125767140D01*
X139703252Y-125625149D01*
X139751590Y-125508217D01*
X139841527Y-125402956D01*
X139884539Y-125365985D01*
X140006431Y-125297966D01*
X140142657Y-125272350D01*
X140282238Y-125287496D01*
X140414193Y-125341764D01*
X140527542Y-125433514D01*
X140554768Y-125466114D01*
X140598944Y-125536784D01*
X140623630Y-125615758D01*
X140635345Y-125719509D01*
X140638066Y-125818224D01*
X140627834Y-125889735D01*
X140599975Y-125956960D01*
X140579430Y-125993649D01*
X140480414Y-126115653D01*
X140351348Y-126197107D01*
X140258800Y-126225986D01*
X140201891Y-126239258D01*
X140190455Y-126249496D01*
X140220211Y-126263943D01*
X140233400Y-126268991D01*
X140494614Y-126345499D01*
X140763684Y-126381985D01*
X141029522Y-126378096D01*
X141281038Y-126333478D01*
X141372002Y-126305262D01*
X141642785Y-126184291D01*
X141882014Y-126024454D01*
X142087062Y-125828568D01*
X142255302Y-125599447D01*
X142384106Y-125339910D01*
X142446129Y-125153719D01*
X142482938Y-124950123D01*
X142491937Y-124723587D01*
X142473882Y-124493181D01*
X142429526Y-124277972D01*
X142408874Y-124212472D01*
X142291603Y-123938532D01*
X142143251Y-123696535D01*
X141967178Y-123490544D01*
X141766745Y-123324623D01*
X141591036Y-123223427D01*
X141488261Y-123176969D01*
X141404913Y-123147580D01*
X141321264Y-123130610D01*
X141217589Y-123121410D01*
X141143444Y-123117918D01*
X141008998Y-123115285D01*
X140901099Y-123121767D01*
X140795885Y-123140181D01*
X140669495Y-123173345D01*
X140666432Y-123174222D01*
X140370009Y-123282035D01*
X140097114Y-123426784D01*
X139852365Y-123604317D01*
X139640378Y-123810481D01*
X139465771Y-124041125D01*
X139333160Y-124292097D01*
X139287036Y-124414732D01*
X139255259Y-124551119D01*
X139237210Y-124714392D01*
X139233045Y-124887255D01*
X138834567Y-124887255D01*
X138834600Y-124818605D01*
X138856478Y-124533912D01*
X138919305Y-124254768D01*
X138977800Y-124091420D01*
X139039076Y-123969357D01*
X139126548Y-123827655D01*
X139229732Y-123681822D01*
X139338145Y-123547365D01*
X139368951Y-123512839D01*
X139424995Y-123453342D01*
X139461801Y-123410504D01*
X139476053Y-123376510D01*
X139464432Y-123343544D01*
X139423620Y-123303791D01*
X139350301Y-123249436D01*
X139241157Y-123172664D01*
X139217400Y-123155824D01*
X139100941Y-123073413D01*
X139017678Y-123017732D01*
X138959198Y-122986365D01*
X138917088Y-122976898D01*
X138882937Y-122986915D01*
X138848331Y-123014000D01*
X138819561Y-123041601D01*
X138705643Y-123174835D01*
X138604846Y-123335114D01*
X138542997Y-123469400D01*
X138485559Y-123582927D01*
X138415455Y-123649611D01*
X138329359Y-123672546D01*
X138324431Y-123672600D01*
X138247939Y-123652108D01*
X138179130Y-123600583D01*
X138134228Y-123532951D01*
X138125510Y-123489604D01*
X138138584Y-123422467D01*
X138173277Y-123325467D01*
X138223561Y-123211358D01*
X138283408Y-123092895D01*
X138346788Y-122982832D01*
X138406110Y-122895942D01*
X138458005Y-122825681D01*
X138492922Y-122772549D01*
X138503674Y-122747530D01*
X138503437Y-122747203D01*
X138467822Y-122726260D01*
X138395564Y-122692949D01*
X138297906Y-122651853D01*
X138186092Y-122607559D01*
X138071366Y-122564651D01*
X137966495Y-122528218D01*
X137483933Y-122395280D01*
X136995475Y-122312648D01*
X136501932Y-122280272D01*
X136004115Y-122298102D01*
X135502834Y-122366088D01*
X134998899Y-122484182D01*
X134493123Y-122652333D01*
X134236223Y-122756704D01*
X133819634Y-122963207D01*
X133418596Y-123215565D01*
X133037230Y-123510135D01*
X132679655Y-123843276D01*
X132349990Y-124211345D01*
X132052355Y-124610699D01*
X131935340Y-124790981D01*
X131720766Y-125178175D01*
X131535171Y-125599662D01*
X131381661Y-126046019D01*
X131263342Y-126507823D01*
X131183323Y-126975648D01*
X131166487Y-127123341D01*
X131154016Y-127275692D01*
X131145530Y-127437385D01*
X131140886Y-127601031D01*
X131139938Y-127759238D01*
X130746711Y-127759238D01*
X130747644Y-127647475D01*
X130751561Y-127456739D01*
X130757679Y-127271022D01*
X130765838Y-127099611D01*
X130775876Y-126951793D01*
X130787632Y-126836854D01*
X130793711Y-126796800D01*
X130840290Y-126551895D01*
X130889683Y-126322223D01*
X130939283Y-126119099D01*
X130986480Y-125953839D01*
X130991793Y-125937292D01*
X131015343Y-125853017D01*
X131026257Y-125788129D01*
X131022372Y-125757161D01*
X130987070Y-125741741D01*
X130918750Y-125721891D01*
X130856757Y-125707314D01*
X130639529Y-125639002D01*
X130423580Y-125531088D01*
X130221250Y-125392034D01*
X130044877Y-125230303D01*
X129908424Y-125056900D01*
X129818315Y-124899468D01*
X129758218Y-124748628D01*
X129723329Y-124587350D01*
X129708846Y-124398604D01*
X129707856Y-124345700D01*
X129708320Y-124209612D01*
X129714644Y-124105056D01*
X129729541Y-124012857D01*
X129755727Y-123913843D01*
X129779777Y-123837700D01*
X129840741Y-123677671D01*
X129904514Y-123565218D01*
X129973610Y-123497116D01*
X130050542Y-123470143D01*
X130067018Y-123469400D01*
X130148402Y-123492136D01*
X130198802Y-123531199D01*
X130231675Y-123579337D01*
X130245277Y-123639389D01*
X130238949Y-123719856D01*
X130212031Y-123829241D01*
X130164450Y-123974374D01*
X130108394Y-124200786D01*
X130100500Y-124418365D01*
X130139939Y-124623514D01*
X130225883Y-124812638D01*
X130357505Y-124982141D01*
X130407539Y-125030218D01*
X130559795Y-125146629D01*
X130729480Y-125241905D01*
X130902957Y-125310023D01*
X131066590Y-125344959D01*
X131127500Y-125348292D01*
X131162667Y-125345308D01*
X131191208Y-125331004D01*
X131219398Y-125297187D01*
X131253515Y-125235662D01*
X131299835Y-125138236D01*
X131316975Y-125100943D01*
X131530564Y-124688306D01*
X131789537Y-124284742D01*
X132096083Y-123886992D01*
X132257239Y-123701104D01*
X132350763Y-123595951D01*
X132413727Y-123521747D01*
X132450191Y-123472264D01*
X132464217Y-123441274D01*
X132459867Y-123422550D01*
X132445692Y-123412117D01*
X132385684Y-123368723D01*
X132305260Y-123294670D01*
X132213856Y-123200406D01*
X132120907Y-123096376D01*
X132035847Y-122993026D01*
X131968112Y-122900805D01*
X131935239Y-122846919D01*
X131825492Y-122588339D01*
X131764286Y-122326111D01*
X131750995Y-122064817D01*
X131784996Y-121809037D01*
X131865665Y-121563352D01*
X131992378Y-121332344D01*
X132164510Y-121120594D01*
X132171387Y-121113550D01*
X132279787Y-121011040D01*
X132367059Y-120948965D01*
X132439955Y-120925296D01*
X132505225Y-120938001D01*
X132569624Y-120985051D01*
X132576454Y-120991745D01*
X132622379Y-121050220D01*
X132636906Y-121109065D01*
X132617889Y-121176141D01*
X132563181Y-121259307D01*
X132475604Y-121361020D01*
X132318515Y-121559914D01*
X132211627Y-121760857D01*
X132154344Y-121966472D01*
X132146068Y-122179383D01*
X132186204Y-122402213D01*
X132217067Y-122498592D01*
X132297866Y-122666496D01*
X132414441Y-122833110D01*
X132553988Y-122983054D01*
X132703703Y-123100949D01*
X132733998Y-123119479D01*
X132809466Y-123163258D01*
X132997183Y-123022299D01*
X133429076Y-122729352D01*
X133889970Y-122476482D01*
X134374243Y-122266592D01*
X134643623Y-122172102D01*
X134857747Y-122103027D01*
X134852123Y-121827363D01*
X134866511Y-121540594D01*
X134922254Y-121283188D01*
X135019752Y-121054450D01*
X135159406Y-120853687D01*
X135341615Y-120680205D01*
X135566781Y-120533310D01*
X135612831Y-120509169D01*
X135722997Y-120463200D01*
X135866395Y-120417309D01*
X136025660Y-120376104D01*
X136183426Y-120344192D01*
X136292120Y-120328939D01*
X136380536Y-120322284D01*
X136435850Y-120327564D01*
G36*
X136435850Y-120327564D02*
G01*
X136475001Y-120347964D01*
X136496324Y-120367324D01*
X136539317Y-120442678D01*
X136548749Y-120535627D01*
X136523324Y-120624532D01*
X136512739Y-120641664D01*
X136470233Y-120677884D01*
X136394547Y-120705833D01*
X136303189Y-120724904D01*
X136030894Y-120786631D01*
X135802148Y-120871619D01*
X135614659Y-120981237D01*
X135466135Y-121116854D01*
X135354284Y-121279839D01*
X135345442Y-121296875D01*
X135286481Y-121457373D01*
X135253247Y-121648234D01*
X135248103Y-121854712D01*
X135250249Y-121891105D01*
X135257032Y-121959482D01*
X135271687Y-121989079D01*
X135305423Y-121991808D01*
X135339149Y-121985571D01*
X135612553Y-121940310D01*
X135913536Y-121907690D01*
X136227109Y-121888290D01*
X136538283Y-121882688D01*
X136832068Y-121891462D01*
X137093475Y-121915190D01*
X137109200Y-121917293D01*
X137523307Y-121990996D01*
X137936922Y-122097091D01*
X138333559Y-122230812D01*
X138638187Y-122359422D01*
X138751255Y-122410816D01*
X138827623Y-122441126D01*
X138875615Y-122452792D01*
X138903556Y-122448256D01*
X138913139Y-122440049D01*
X138950235Y-122412225D01*
X139022900Y-122369997D01*
X139119973Y-122318877D01*
X139230290Y-122264378D01*
X139342689Y-122212013D01*
X139446006Y-122167293D01*
X139529079Y-122135731D01*
X139530011Y-122135420D01*
X139671431Y-122095478D01*
X139833025Y-122060921D01*
X139994341Y-122035376D01*
X140134925Y-122022469D01*
X140172134Y-122021600D01*
X140268700Y-122027870D01*
X140331529Y-122049503D01*
X140359753Y-122071753D01*
X140417333Y-122156761D01*
X140427044Y-122244665D01*
X140392873Y-122322051D01*
X140361726Y-122357373D01*
X140322807Y-122383806D01*
X140266578Y-122404367D01*
X140183498Y-122422075D01*
X140064027Y-122439949D01*
X139989621Y-122449643D01*
X139838678Y-122476255D01*
X139679148Y-122516835D01*
X139527307Y-122566301D01*
X139399428Y-122619572D01*
X139337936Y-122653150D01*
X139261948Y-122701262D01*
X139423824Y-122810123D01*
X139524514Y-122880502D01*
X139628018Y-122957065D01*
X139705543Y-123018082D01*
X139825386Y-123117179D01*
X139973510Y-123030366D01*
X140278945Y-122878422D01*
X140593730Y-122775841D01*
X140921601Y-122721496D01*
X141021117Y-122714526D01*
X141228026Y-122713131D01*
X141406959Y-122734032D01*
X141577336Y-122781256D01*
X141758583Y-122858827D01*
X141788332Y-122873542D01*
X142042974Y-123029332D01*
X142271860Y-123226485D01*
X142471889Y-123460896D01*
X142639958Y-123728457D01*
X142772967Y-124025063D01*
X142852473Y-124282200D01*
X142875747Y-124419557D01*
X142887734Y-124590117D01*
X142888801Y-124777637D01*
X142879315Y-124965874D01*
X142859643Y-125138586D01*
X142830153Y-125279529D01*
X142829903Y-125280399D01*
X142718820Y-125583369D01*
X142566870Y-125858967D01*
X142371158Y-126111866D01*
X142219239Y-126266169D01*
X142128278Y-126353002D01*
X142070679Y-126414366D01*
X142040935Y-126457505D01*
X142033539Y-126489660D01*
X142037142Y-126505661D01*
X142049526Y-126549666D01*
X142069149Y-126631993D01*
X142093381Y-126741130D01*
X142119591Y-126865566D01*
X142121311Y-126873961D01*
X142203796Y-127391692D01*
X142236906Y-127898029D01*
X142220496Y-128394106D01*
X142154422Y-128881057D01*
X142038539Y-129360017D01*
X141872703Y-129832121D01*
X141694533Y-130224537D01*
X141457943Y-130640478D01*
X141176808Y-131035850D01*
X140854080Y-131408100D01*
X140492715Y-131754672D01*
X140095665Y-132073012D01*
X139665884Y-132360565D01*
X139206325Y-132614776D01*
X138719942Y-132833091D01*
X138644417Y-132862753D01*
X138361666Y-132967667D01*
X138106142Y-133052655D01*
X137860674Y-133122484D01*
X137608093Y-133181919D01*
X137331230Y-133235726D01*
X137248900Y-133250110D01*
X137063891Y-133275104D01*
X136841772Y-133294402D01*
X136595949Y-133307694D01*
X136339826Y-133314672D01*
X136086807Y-133315025D01*
X135850296Y-133308445D01*
X135643698Y-133294621D01*
X135585200Y-133288514D01*
X135069515Y-133204653D01*
X134565514Y-133075061D01*
X134080359Y-132901843D01*
X133732742Y-132744352D01*
X133324169Y-132519455D01*
X132945376Y-132264972D01*
X132588969Y-131975090D01*
X132247556Y-131643998D01*
X132034965Y-131409473D01*
X131975862Y-131343336D01*
X131938328Y-131310715D01*
X131911735Y-131305831D01*
X131885456Y-131322907D01*
X131881779Y-131326193D01*
X131822669Y-131366383D01*
X131727617Y-131416370D01*
X131609126Y-131470661D01*
X131479699Y-131523761D01*
X131351837Y-131570177D01*
X131265491Y-131597016D01*
X131101583Y-131632868D01*
X130914769Y-131657181D01*
X130722953Y-131668850D01*
X130544040Y-131666771D01*
X130399311Y-131650486D01*
X130120451Y-131576378D01*
X129869123Y-131463490D01*
X129638460Y-131307989D01*
X129421596Y-131106038D01*
X129418554Y-131102787D01*
X129246578Y-130891371D01*
X129121057Y-130672861D01*
X129037659Y-130439158D01*
X129018004Y-130354181D01*
X128987948Y-130083304D01*
X128995630Y-129981158D01*
X129396157Y-129981158D01*
X129397672Y-130190774D01*
X129442327Y-130400547D01*
X129533235Y-130605303D01*
X129544460Y-130624422D01*
X129660192Y-130780686D01*
X129810125Y-130928666D01*
X129981815Y-131059207D01*
X130162816Y-131163153D01*
X130340684Y-131231350D01*
X130383719Y-131241850D01*
X130514176Y-131257945D01*
X130675569Y-131260757D01*
X130850149Y-131251516D01*
X131020169Y-131231449D01*
X131167881Y-131201787D01*
X131229100Y-131183293D01*
X131408763Y-131116500D01*
X131543275Y-131059423D01*
X131631080Y-131012770D01*
X131665474Y-130984891D01*
X131675154Y-130956317D01*
X131663263Y-130910942D01*
X131626435Y-130839357D01*
X131593822Y-130784570D01*
X131534278Y-130682943D01*
X131464906Y-130558237D01*
X131398180Y-130433017D01*
X131380613Y-130398863D01*
X131328400Y-130297783D01*
X131291893Y-130234596D01*
X131264152Y-130201721D01*
X131238235Y-130191579D01*
X131207205Y-130196588D01*
X131197905Y-130199298D01*
X131077737Y-130241048D01*
X130993059Y-130285710D01*
X130945334Y-130324101D01*
X130886456Y-130398990D01*
X130872691Y-130476335D01*
X130902294Y-130568781D01*
X130909565Y-130583199D01*
X130955074Y-130700657D01*
X130957166Y-130794258D01*
X130915889Y-130862812D01*
X130897859Y-130876517D01*
X130825305Y-130902531D01*
X130756879Y-130881073D01*
X130690488Y-130810931D01*
X130642211Y-130728494D01*
X130584576Y-130566172D01*
X130576318Y-130409171D01*
X130616131Y-130262480D01*
X130702705Y-130131088D01*
X130826511Y-130025353D01*
X130895068Y-129982060D01*
X130946608Y-129953382D01*
X130965101Y-129946400D01*
X131000915Y-129938139D01*
X131053571Y-129920136D01*
X131122649Y-129893872D01*
X131048874Y-129815408D01*
X130948619Y-129732554D01*
X130831226Y-129684782D01*
X130684071Y-129667305D01*
X130657571Y-129667000D01*
X130479948Y-129690561D01*
X130323292Y-129758993D01*
X130192675Y-129868917D01*
X130093168Y-130016955D01*
X130075864Y-130054515D01*
X130017730Y-130156336D01*
X129951771Y-130209207D01*
X129879091Y-130212509D01*
X129833140Y-130190717D01*
X129782932Y-130130974D01*
X129769955Y-130048112D01*
X129790329Y-129948849D01*
X129840172Y-129839906D01*
X129915604Y-129728003D01*
X130012744Y-129619859D01*
X130127711Y-129522194D01*
X130256624Y-129441727D01*
X130269487Y-129435205D01*
X130329572Y-129408311D01*
X130388926Y-129390743D01*
X130460642Y-129380592D01*
X130557813Y-129375949D01*
X130683000Y-129374900D01*
X130975100Y-129374900D01*
X130924300Y-129166865D01*
X130899120Y-129067525D01*
X130874473Y-129000939D01*
X130840324Y-128960538D01*
X130786634Y-128939756D01*
X130703370Y-128932023D01*
X130580494Y-128930771D01*
X130563505Y-128930746D01*
X130331971Y-128952846D01*
X130118672Y-129016495D01*
X129926722Y-129116517D01*
X129759233Y-129247740D01*
X129619319Y-129404990D01*
X129510093Y-129583092D01*
X129434668Y-129776872D01*
X129396157Y-129981158D01*
X128995630Y-129981158D01*
X129007872Y-129818386D01*
X129077088Y-129561713D01*
X129194910Y-129315566D01*
X129360649Y-129082231D01*
X129421591Y-129012921D01*
X129587746Y-128862311D01*
X129784541Y-128732518D01*
X129888005Y-128682820D01*
X131231092Y-128682820D01*
X131240413Y-128755355D01*
X131260831Y-128860122D01*
X131290540Y-128988925D01*
X131327736Y-129133566D01*
X131370612Y-129285851D01*
X131385826Y-129336800D01*
X131558719Y-129823846D01*
X131772318Y-130281816D01*
X132024689Y-130709058D01*
X132313898Y-131103920D01*
X132638008Y-131464752D01*
X132995085Y-131789902D01*
X133383193Y-132077719D01*
X133800399Y-132326552D01*
X134244766Y-132534750D01*
X134714360Y-132700660D01*
X135207245Y-132822633D01*
X135534400Y-132876926D01*
X135716667Y-132895391D01*
X135934447Y-132907631D01*
X136172827Y-132913600D01*
X136416898Y-132913255D01*
X136651748Y-132906554D01*
X136862467Y-132893453D01*
X136982200Y-132881139D01*
X137516788Y-132790194D01*
X138038538Y-132654094D01*
X138543390Y-132474775D01*
X139027288Y-132254176D01*
X139486172Y-131994234D01*
X139915985Y-131696886D01*
X140312669Y-131364072D01*
X140464039Y-131218569D01*
X140782438Y-130871943D01*
X141054887Y-130513354D01*
X141286017Y-130135526D01*
X141480462Y-129731182D01*
X141589228Y-129451100D01*
X141704464Y-129059546D01*
X141782693Y-128641781D01*
X141823491Y-128206837D01*
X141826436Y-127763750D01*
X141791104Y-127321553D01*
X141717072Y-126889280D01*
X141710583Y-126860300D01*
X141689045Y-126766220D01*
X141668905Y-126705288D01*
X141640466Y-126673494D01*
X141594032Y-126666828D01*
X141519905Y-126681280D01*
X141408388Y-126712840D01*
X141376400Y-126722106D01*
X141265890Y-126749367D01*
X141150763Y-126766867D01*
X141014973Y-126776424D01*
X140868400Y-126779686D01*
X140735334Y-126779839D01*
X140630642Y-126776262D01*
X140538862Y-126766695D01*
X140444533Y-126748881D01*
X140332194Y-126720561D01*
X140190578Y-126680682D01*
X140179761Y-126685965D01*
X140188074Y-126715332D01*
X140217400Y-126772036D01*
X140269624Y-126859327D01*
X140346629Y-126980455D01*
X140450300Y-127138672D01*
X140495628Y-127207013D01*
X140669958Y-127474810D01*
X140819148Y-127715736D01*
X140942003Y-127927563D01*
X141037323Y-128108065D01*
X141103913Y-128255016D01*
X141140575Y-128366189D01*
X141147800Y-128419918D01*
X141123012Y-128520460D01*
X141049536Y-128611699D01*
X140928702Y-128693209D01*
X140761838Y-128764565D01*
X140550275Y-128825341D01*
X140295343Y-128875114D01*
X139998371Y-128913457D01*
X139660690Y-128939946D01*
X139496800Y-128947845D01*
X139351625Y-128953119D01*
X139248096Y-128955019D01*
X139177126Y-128952778D01*
X139129625Y-128945631D01*
X139096507Y-128932814D01*
X139068685Y-128913562D01*
X139066269Y-128911602D01*
X139016757Y-128841523D01*
X139002715Y-128753625D01*
X139024771Y-128667061D01*
X139056784Y-128622527D01*
X139082005Y-128602117D01*
X139116506Y-128586667D01*
X139168592Y-128574801D01*
X139246564Y-128565145D01*
X139358725Y-128556321D01*
X139512714Y-128546993D01*
X139740851Y-128531267D01*
X139959215Y-128510858D01*
X140161820Y-128486743D01*
X140342684Y-128459897D01*
X140495821Y-128431297D01*
X140615249Y-128401919D01*
X140694983Y-128372740D01*
X140727067Y-128348841D01*
X140721247Y-128313947D01*
X140686230Y-128240485D01*
X140623372Y-128130470D01*
X140534034Y-127985916D01*
X140419573Y-127808837D01*
X140281348Y-127601248D01*
X140120717Y-127365163D01*
X139939040Y-127102597D01*
X139737674Y-126815565D01*
X139517978Y-126506080D01*
X139281311Y-126176157D01*
X139029031Y-125827811D01*
X138999462Y-125787186D01*
X138912495Y-125668252D01*
X138848935Y-125584303D01*
X138802305Y-125529243D01*
X138766127Y-125496980D01*
X138733922Y-125481417D01*
X138699215Y-125476460D01*
X138668760Y-125476036D01*
X138551138Y-125500118D01*
X138435535Y-125567980D01*
X138329683Y-125672927D01*
X138241314Y-125808260D01*
X138211436Y-125872157D01*
X138194691Y-125915638D01*
X138188133Y-125953115D01*
X138194256Y-125995967D01*
X138215555Y-126055571D01*
X138254526Y-126143305D01*
X138285566Y-126210180D01*
X138411246Y-126536084D01*
X138488317Y-126866141D01*
X138517492Y-127196303D01*
X138499488Y-127522524D01*
X138435016Y-127840755D01*
X138324792Y-128146950D01*
X138169529Y-128437062D01*
X137969942Y-128707044D01*
X137816224Y-128870357D01*
X137554133Y-129091314D01*
X137272247Y-129265507D01*
X136970073Y-129393149D01*
X136647115Y-129474459D01*
X136359787Y-129507089D01*
X136011398Y-129504326D01*
X135684020Y-129455514D01*
X135375939Y-129360005D01*
X135085439Y-129217147D01*
X134810808Y-129026292D01*
X134604293Y-128841500D01*
X134375000Y-128584939D01*
X134194552Y-128315970D01*
X134062059Y-128032543D01*
X133976633Y-127732607D01*
X133937386Y-127414112D01*
X133934429Y-127297199D01*
X134340975Y-127297199D01*
X134345552Y-127472182D01*
X134362674Y-127620503D01*
X134396491Y-127759713D01*
X134451156Y-127907361D01*
X134522093Y-128062970D01*
X134590996Y-128198501D01*
X134655593Y-128304645D01*
X134728759Y-128399823D01*
X134823368Y-128502453D01*
X134843932Y-128523405D01*
X134942262Y-128617514D01*
X135044819Y-128706513D01*
X135142717Y-128783601D01*
X135227069Y-128841979D01*
X135288988Y-128874847D01*
X135309476Y-128879600D01*
X135313162Y-128859204D01*
X135298549Y-128808521D01*
X135291803Y-128791515D01*
X135257311Y-128647377D01*
X135267491Y-128500739D01*
X135317602Y-128360896D01*
X135402905Y-128237144D01*
X135518659Y-128138780D01*
X135656578Y-128076116D01*
X135822081Y-128049599D01*
X135973086Y-128071488D01*
X136112329Y-128142491D01*
X136198473Y-128215957D01*
X136302780Y-128349044D01*
X136357980Y-128492719D01*
X136365232Y-128650217D01*
X136362415Y-128674080D01*
X136329240Y-128796455D01*
X136269056Y-128915401D01*
X136192265Y-129013264D01*
X136135646Y-129058896D01*
X136055100Y-129108010D01*
X136258300Y-129107664D01*
X136387102Y-129102189D01*
X136525737Y-129088211D01*
X136638571Y-129069809D01*
X136867816Y-129000999D01*
X137101128Y-128894519D01*
X137323326Y-128759124D01*
X137519232Y-128603567D01*
X137616184Y-128506047D01*
X137782838Y-128288302D01*
X137922533Y-128041169D01*
X138029266Y-127778101D01*
X138097034Y-127512550D01*
X138113668Y-127391222D01*
X138118190Y-127216496D01*
X138103568Y-127017136D01*
X138072315Y-126814463D01*
X138026943Y-126629794D01*
X138022120Y-126614370D01*
X137933746Y-126393954D01*
X137812212Y-126171807D01*
X137667047Y-125962187D01*
X137507777Y-125779347D01*
X137395907Y-125677288D01*
X137162546Y-125518566D01*
X136912646Y-125407065D01*
X136648975Y-125343018D01*
X136374307Y-125326659D01*
X136091411Y-125358222D01*
X135803059Y-125437942D01*
X135593989Y-125525115D01*
X135385974Y-125631606D01*
X135211497Y-125739029D01*
X135054251Y-125858118D01*
X134954015Y-125946443D01*
X134737291Y-126178385D01*
X134566996Y-126429385D01*
X134443767Y-126698041D01*
X134368240Y-126982950D01*
X134341053Y-127282711D01*
X134340975Y-127297199D01*
X133934429Y-127297199D01*
X133934391Y-127295732D01*
X133932698Y-127203736D01*
X133926281Y-127153138D01*
X133912751Y-127134590D01*
X133893835Y-127137054D01*
X133865126Y-127152072D01*
X133797235Y-127189545D01*
X133694896Y-127246776D01*
X133562844Y-127321070D01*
X133405813Y-127409734D01*
X133228540Y-127510070D01*
X133035758Y-127619384D01*
X132832202Y-127734982D01*
X132622608Y-127854167D01*
X132411709Y-127974245D01*
X132204241Y-128092520D01*
X132004938Y-128206298D01*
X131818536Y-128312882D01*
X131649768Y-128409579D01*
X131503371Y-128493692D01*
X131384078Y-128562527D01*
X131296624Y-128613389D01*
X131245745Y-128643582D01*
X131234675Y-128650712D01*
X131231092Y-128682820D01*
X129888005Y-128682820D01*
X129999434Y-128629297D01*
X130219883Y-128558401D01*
X130433344Y-128525585D01*
X130487330Y-128524000D01*
X130588004Y-128516784D01*
X130676627Y-128498069D01*
X130710598Y-128484762D01*
X130759589Y-128454301D01*
X130775837Y-128419437D01*
X130768283Y-128358928D01*
X130766723Y-128351412D01*
X130757215Y-128274880D01*
X130750714Y-128156934D01*
X130747059Y-128006859D01*
X130746089Y-127833944D01*
X130746711Y-127759238D01*
X131139938Y-127759238D01*
X131142542Y-127904615D01*
X131148553Y-128029773D01*
X131157826Y-128127321D01*
X131170217Y-128189868D01*
X131185582Y-128210023D01*
X131187742Y-128209172D01*
X131212111Y-128195273D01*
X131276722Y-128158456D01*
X131377674Y-128100943D01*
X131511067Y-128024956D01*
X131672998Y-127932718D01*
X131859567Y-127826450D01*
X132066873Y-127708375D01*
X132291015Y-127580715D01*
X132511800Y-127454970D01*
X132751888Y-127318293D01*
X132981766Y-127187543D01*
X133197115Y-127065169D01*
X133393616Y-126953620D01*
X133566952Y-126855345D01*
X133712803Y-126772792D01*
X133826851Y-126708410D01*
X133904777Y-126664648D01*
X133939493Y-126645435D01*
X134021421Y-126592460D01*
X134072481Y-126531786D01*
X134102530Y-126466600D01*
X134189035Y-126284875D01*
X134312055Y-126090540D01*
X134462872Y-125894106D01*
X134632769Y-125706086D01*
X134813027Y-125536991D01*
X134981862Y-125406252D01*
X135291402Y-125218213D01*
X135605212Y-125076462D01*
X135920162Y-124980938D01*
X136233122Y-124931582D01*
X136540962Y-124928330D01*
X136840549Y-124971123D01*
X137128755Y-125059899D01*
X137402448Y-125194597D01*
X137658498Y-125375156D01*
X137755462Y-125460380D01*
X137820762Y-125519421D01*
X137871264Y-125561533D01*
X137896034Y-125577599D01*
X137896036Y-125577600D01*
X137917691Y-125558021D01*
X137950825Y-125510133D01*
X137955326Y-125502640D01*
X138070625Y-125354360D01*
X138221898Y-125230422D01*
X138397299Y-125138021D01*
X138584983Y-125084350D01*
X138658626Y-125075493D01*
X138834486Y-125062911D01*
X138834567Y-124887255D01*
X139233045Y-124887255D01*
X139242923Y-125052410D01*
X139267000Y-125192563D01*
X139279567Y-125234700D01*
X139363369Y-125440992D01*
X139462086Y-125626536D01*
X139568118Y-125777310D01*
X139583336Y-125795098D01*
X139692081Y-125918678D01*
X139690022Y-125767140D01*
X139703252Y-125625149D01*
X139751590Y-125508217D01*
X139841527Y-125402956D01*
X139884539Y-125365985D01*
X140006431Y-125297966D01*
X140142657Y-125272350D01*
X140282238Y-125287496D01*
X140414193Y-125341764D01*
X140527542Y-125433514D01*
X140554768Y-125466114D01*
X140598944Y-125536784D01*
X140623630Y-125615758D01*
X140635345Y-125719509D01*
X140638066Y-125818224D01*
X140627834Y-125889735D01*
X140599975Y-125956960D01*
X140579430Y-125993649D01*
X140480414Y-126115653D01*
X140351348Y-126197107D01*
X140258800Y-126225986D01*
X140201891Y-126239258D01*
X140190455Y-126249496D01*
X140220211Y-126263943D01*
X140233400Y-126268991D01*
X140494614Y-126345499D01*
X140763684Y-126381985D01*
X141029522Y-126378096D01*
X141281038Y-126333478D01*
X141372002Y-126305262D01*
X141642785Y-126184291D01*
X141882014Y-126024454D01*
X142087062Y-125828568D01*
X142255302Y-125599447D01*
X142384106Y-125339910D01*
X142446129Y-125153719D01*
X142482938Y-124950123D01*
X142491937Y-124723587D01*
X142473882Y-124493181D01*
X142429526Y-124277972D01*
X142408874Y-124212472D01*
X142291603Y-123938532D01*
X142143251Y-123696535D01*
X141967178Y-123490544D01*
X141766745Y-123324623D01*
X141591036Y-123223427D01*
X141488261Y-123176969D01*
X141404913Y-123147580D01*
X141321264Y-123130610D01*
X141217589Y-123121410D01*
X141143444Y-123117918D01*
X141008998Y-123115285D01*
X140901099Y-123121767D01*
X140795885Y-123140181D01*
X140669495Y-123173345D01*
X140666432Y-123174222D01*
X140370009Y-123282035D01*
X140097114Y-123426784D01*
X139852365Y-123604317D01*
X139640378Y-123810481D01*
X139465771Y-124041125D01*
X139333160Y-124292097D01*
X139287036Y-124414732D01*
X139255259Y-124551119D01*
X139237210Y-124714392D01*
X139233045Y-124887255D01*
X138834567Y-124887255D01*
X138834600Y-124818605D01*
X138856478Y-124533912D01*
X138919305Y-124254768D01*
X138977800Y-124091420D01*
X139039076Y-123969357D01*
X139126548Y-123827655D01*
X139229732Y-123681822D01*
X139338145Y-123547365D01*
X139368951Y-123512839D01*
X139424995Y-123453342D01*
X139461801Y-123410504D01*
X139476053Y-123376510D01*
X139464432Y-123343544D01*
X139423620Y-123303791D01*
X139350301Y-123249436D01*
X139241157Y-123172664D01*
X139217400Y-123155824D01*
X139100941Y-123073413D01*
X139017678Y-123017732D01*
X138959198Y-122986365D01*
X138917088Y-122976898D01*
X138882937Y-122986915D01*
X138848331Y-123014000D01*
X138819561Y-123041601D01*
X138705643Y-123174835D01*
X138604846Y-123335114D01*
X138542997Y-123469400D01*
X138485559Y-123582927D01*
X138415455Y-123649611D01*
X138329359Y-123672546D01*
X138324431Y-123672600D01*
X138247939Y-123652108D01*
X138179130Y-123600583D01*
X138134228Y-123532951D01*
X138125510Y-123489604D01*
X138138584Y-123422467D01*
X138173277Y-123325467D01*
X138223561Y-123211358D01*
X138283408Y-123092895D01*
X138346788Y-122982832D01*
X138406110Y-122895942D01*
X138458005Y-122825681D01*
X138492922Y-122772549D01*
X138503674Y-122747530D01*
X138503437Y-122747203D01*
X138467822Y-122726260D01*
X138395564Y-122692949D01*
X138297906Y-122651853D01*
X138186092Y-122607559D01*
X138071366Y-122564651D01*
X137966495Y-122528218D01*
X137483933Y-122395280D01*
X136995475Y-122312648D01*
X136501932Y-122280272D01*
X136004115Y-122298102D01*
X135502834Y-122366088D01*
X134998899Y-122484182D01*
X134493123Y-122652333D01*
X134236223Y-122756704D01*
X133819634Y-122963207D01*
X133418596Y-123215565D01*
X133037230Y-123510135D01*
X132679655Y-123843276D01*
X132349990Y-124211345D01*
X132052355Y-124610699D01*
X131935340Y-124790981D01*
X131720766Y-125178175D01*
X131535171Y-125599662D01*
X131381661Y-126046019D01*
X131263342Y-126507823D01*
X131183323Y-126975648D01*
X131166487Y-127123341D01*
X131154016Y-127275692D01*
X131145530Y-127437385D01*
X131140886Y-127601031D01*
X131139938Y-127759238D01*
X130746711Y-127759238D01*
X130747644Y-127647475D01*
X130751561Y-127456739D01*
X130757679Y-127271022D01*
X130765838Y-127099611D01*
X130775876Y-126951793D01*
X130787632Y-126836854D01*
X130793711Y-126796800D01*
X130840290Y-126551895D01*
X130889683Y-126322223D01*
X130939283Y-126119099D01*
X130986480Y-125953839D01*
X130991793Y-125937292D01*
X131015343Y-125853017D01*
X131026257Y-125788129D01*
X131022372Y-125757161D01*
X130987070Y-125741741D01*
X130918750Y-125721891D01*
X130856757Y-125707314D01*
X130639529Y-125639002D01*
X130423580Y-125531088D01*
X130221250Y-125392034D01*
X130044877Y-125230303D01*
X129908424Y-125056900D01*
X129818315Y-124899468D01*
X129758218Y-124748628D01*
X129723329Y-124587350D01*
X129708846Y-124398604D01*
X129707856Y-124345700D01*
X129708320Y-124209612D01*
X129714644Y-124105056D01*
X129729541Y-124012857D01*
X129755727Y-123913843D01*
X129779777Y-123837700D01*
X129840741Y-123677671D01*
X129904514Y-123565218D01*
X129973610Y-123497116D01*
X130050542Y-123470143D01*
X130067018Y-123469400D01*
X130148402Y-123492136D01*
X130198802Y-123531199D01*
X130231675Y-123579337D01*
X130245277Y-123639389D01*
X130238949Y-123719856D01*
X130212031Y-123829241D01*
X130164450Y-123974374D01*
X130108394Y-124200786D01*
X130100500Y-124418365D01*
X130139939Y-124623514D01*
X130225883Y-124812638D01*
X130357505Y-124982141D01*
X130407539Y-125030218D01*
X130559795Y-125146629D01*
X130729480Y-125241905D01*
X130902957Y-125310023D01*
X131066590Y-125344959D01*
X131127500Y-125348292D01*
X131162667Y-125345308D01*
X131191208Y-125331004D01*
X131219398Y-125297187D01*
X131253515Y-125235662D01*
X131299835Y-125138236D01*
X131316975Y-125100943D01*
X131530564Y-124688306D01*
X131789537Y-124284742D01*
X132096083Y-123886992D01*
X132257239Y-123701104D01*
X132350763Y-123595951D01*
X132413727Y-123521747D01*
X132450191Y-123472264D01*
X132464217Y-123441274D01*
X132459867Y-123422550D01*
X132445692Y-123412117D01*
X132385684Y-123368723D01*
X132305260Y-123294670D01*
X132213856Y-123200406D01*
X132120907Y-123096376D01*
X132035847Y-122993026D01*
X131968112Y-122900805D01*
X131935239Y-122846919D01*
X131825492Y-122588339D01*
X131764286Y-122326111D01*
X131750995Y-122064817D01*
X131784996Y-121809037D01*
X131865665Y-121563352D01*
X131992378Y-121332344D01*
X132164510Y-121120594D01*
X132171387Y-121113550D01*
X132279787Y-121011040D01*
X132367059Y-120948965D01*
X132439955Y-120925296D01*
X132505225Y-120938001D01*
X132569624Y-120985051D01*
X132576454Y-120991745D01*
X132622379Y-121050220D01*
X132636906Y-121109065D01*
X132617889Y-121176141D01*
X132563181Y-121259307D01*
X132475604Y-121361020D01*
X132318515Y-121559914D01*
X132211627Y-121760857D01*
X132154344Y-121966472D01*
X132146068Y-122179383D01*
X132186204Y-122402213D01*
X132217067Y-122498592D01*
X132297866Y-122666496D01*
X132414441Y-122833110D01*
X132553988Y-122983054D01*
X132703703Y-123100949D01*
X132733998Y-123119479D01*
X132809466Y-123163258D01*
X132997183Y-123022299D01*
X133429076Y-122729352D01*
X133889970Y-122476482D01*
X134374243Y-122266592D01*
X134643623Y-122172102D01*
X134857747Y-122103027D01*
X134852123Y-121827363D01*
X134866511Y-121540594D01*
X134922254Y-121283188D01*
X135019752Y-121054450D01*
X135159406Y-120853687D01*
X135341615Y-120680205D01*
X135566781Y-120533310D01*
X135612831Y-120509169D01*
X135722997Y-120463200D01*
X135866395Y-120417309D01*
X136025660Y-120376104D01*
X136183426Y-120344192D01*
X136292120Y-120328939D01*
X136380536Y-120322284D01*
X136435850Y-120327564D01*
G37*
D12*
%TO.C,D5*%
X109140000Y-146214000D02*
X109140000Y-146370000D01*
X109140000Y-148530000D02*
X109140000Y-148686000D01*
X109140000Y-146214484D02*
G75*
G02*
X112372335Y-146371392I1560000J-1235516D01*
G01*
X109659039Y-146370000D02*
G75*
G02*
X111741130Y-146370163I1040961J-1080000D01*
G01*
X111741130Y-148529837D02*
G75*
G02*
X109659039Y-148530000I-1041130J1079837D01*
G01*
X112372335Y-148528608D02*
G75*
G02*
X109140000Y-148685516I-1672335J1078608D01*
G01*
%TD*%
M02*
