%TF.GenerationSoftware,KiCad,Pcbnew,8.0.5*%
%TF.CreationDate,2025-02-12T17:57:21-08:00*%
%TF.ProjectId,sub,7375622e-6b69-4636-9164-5f7063625858,3.2*%
%TF.SameCoordinates,Original*%
%TF.FileFunction,Legend,Bot*%
%TF.FilePolarity,Positive*%
%FSLAX46Y46*%
G04 Gerber Fmt 4.6, Leading zero omitted, Abs format (unit mm)*
G04 Created by KiCad (PCBNEW 8.0.5) date 2025-02-12 17:57:21*
%MOMM*%
%LPD*%
G01*
G04 APERTURE LIST*
%ADD10C,0.120000*%
%ADD11C,0.100000*%
%ADD12C,0.500000*%
%ADD13C,0.300000*%
%ADD14C,0.250000*%
%ADD15C,0.150000*%
G04 APERTURE END LIST*
D10*
X94270000Y-122130000D02*
X95680000Y-122130000D01*
X95680000Y-128300000D01*
X94270000Y-128300000D01*
X94270000Y-122130000D01*
G36*
X94270000Y-122130000D02*
G01*
X95680000Y-122130000D01*
X95680000Y-128300000D01*
X94270000Y-128300000D01*
X94270000Y-122130000D01*
G37*
D11*
X143606088Y-137614055D02*
X134874000Y-137668000D01*
X134883713Y-133249644D01*
X143615801Y-133195699D01*
X143606088Y-137614055D01*
G36*
X143606088Y-137614055D02*
G01*
X134874000Y-137668000D01*
X134883713Y-133249644D01*
X143615801Y-133195699D01*
X143606088Y-137614055D01*
G37*
D12*
X150534285Y-134266547D02*
X148986666Y-134266547D01*
X148986666Y-134266547D02*
X149819999Y-135218928D01*
X149819999Y-135218928D02*
X149462856Y-135218928D01*
X149462856Y-135218928D02*
X149224761Y-135337976D01*
X149224761Y-135337976D02*
X149105713Y-135457023D01*
X149105713Y-135457023D02*
X148986666Y-135695119D01*
X148986666Y-135695119D02*
X148986666Y-136290357D01*
X148986666Y-136290357D02*
X149105713Y-136528452D01*
X149105713Y-136528452D02*
X149224761Y-136647500D01*
X149224761Y-136647500D02*
X149462856Y-136766547D01*
X149462856Y-136766547D02*
X150177142Y-136766547D01*
X150177142Y-136766547D02*
X150415237Y-136647500D01*
X150415237Y-136647500D02*
X150534285Y-136528452D01*
X147915237Y-136528452D02*
X147796190Y-136647500D01*
X147796190Y-136647500D02*
X147915237Y-136766547D01*
X147915237Y-136766547D02*
X148034285Y-136647500D01*
X148034285Y-136647500D02*
X147915237Y-136528452D01*
X147915237Y-136528452D02*
X147915237Y-136766547D01*
X146843809Y-134504642D02*
X146724761Y-134385595D01*
X146724761Y-134385595D02*
X146486666Y-134266547D01*
X146486666Y-134266547D02*
X145891428Y-134266547D01*
X145891428Y-134266547D02*
X145653333Y-134385595D01*
X145653333Y-134385595D02*
X145534285Y-134504642D01*
X145534285Y-134504642D02*
X145415238Y-134742738D01*
X145415238Y-134742738D02*
X145415238Y-134980833D01*
X145415238Y-134980833D02*
X145534285Y-135337976D01*
X145534285Y-135337976D02*
X146962857Y-136766547D01*
X146962857Y-136766547D02*
X145415238Y-136766547D01*
X144343809Y-136528452D02*
X144224762Y-136647500D01*
X144224762Y-136647500D02*
X144343809Y-136766547D01*
X144343809Y-136766547D02*
X144462857Y-136647500D01*
X144462857Y-136647500D02*
X144343809Y-136528452D01*
X144343809Y-136528452D02*
X144343809Y-136766547D01*
D13*
X105024286Y-124830870D02*
X105024286Y-123330870D01*
X105024286Y-123330870D02*
X104452857Y-123330870D01*
X104452857Y-123330870D02*
X104310000Y-123402299D01*
X104310000Y-123402299D02*
X104238571Y-123473727D01*
X104238571Y-123473727D02*
X104167143Y-123616584D01*
X104167143Y-123616584D02*
X104167143Y-123830870D01*
X104167143Y-123830870D02*
X104238571Y-123973727D01*
X104238571Y-123973727D02*
X104310000Y-124045156D01*
X104310000Y-124045156D02*
X104452857Y-124116584D01*
X104452857Y-124116584D02*
X105024286Y-124116584D01*
X103238571Y-123330870D02*
X102952857Y-123330870D01*
X102952857Y-123330870D02*
X102810000Y-123402299D01*
X102810000Y-123402299D02*
X102667143Y-123545156D01*
X102667143Y-123545156D02*
X102595714Y-123830870D01*
X102595714Y-123830870D02*
X102595714Y-124330870D01*
X102595714Y-124330870D02*
X102667143Y-124616584D01*
X102667143Y-124616584D02*
X102810000Y-124759442D01*
X102810000Y-124759442D02*
X102952857Y-124830870D01*
X102952857Y-124830870D02*
X103238571Y-124830870D01*
X103238571Y-124830870D02*
X103381429Y-124759442D01*
X103381429Y-124759442D02*
X103524286Y-124616584D01*
X103524286Y-124616584D02*
X103595714Y-124330870D01*
X103595714Y-124330870D02*
X103595714Y-123830870D01*
X103595714Y-123830870D02*
X103524286Y-123545156D01*
X103524286Y-123545156D02*
X103381429Y-123402299D01*
X103381429Y-123402299D02*
X103238571Y-123330870D01*
X102095714Y-123330870D02*
X101738571Y-124830870D01*
X101738571Y-124830870D02*
X101452857Y-123759442D01*
X101452857Y-123759442D02*
X101167142Y-124830870D01*
X101167142Y-124830870D02*
X100810000Y-123330870D01*
X100238571Y-124045156D02*
X99738571Y-124045156D01*
X99524285Y-124830870D02*
X100238571Y-124830870D01*
X100238571Y-124830870D02*
X100238571Y-123330870D01*
X100238571Y-123330870D02*
X99524285Y-123330870D01*
X98024285Y-124830870D02*
X98524285Y-124116584D01*
X98881428Y-124830870D02*
X98881428Y-123330870D01*
X98881428Y-123330870D02*
X98309999Y-123330870D01*
X98309999Y-123330870D02*
X98167142Y-123402299D01*
X98167142Y-123402299D02*
X98095713Y-123473727D01*
X98095713Y-123473727D02*
X98024285Y-123616584D01*
X98024285Y-123616584D02*
X98024285Y-123830870D01*
X98024285Y-123830870D02*
X98095713Y-123973727D01*
X98095713Y-123973727D02*
X98167142Y-124045156D01*
X98167142Y-124045156D02*
X98309999Y-124116584D01*
X98309999Y-124116584D02*
X98881428Y-124116584D01*
X102345714Y-127245786D02*
X102345714Y-125745786D01*
X101631428Y-127245786D02*
X101631428Y-125745786D01*
X101631428Y-125745786D02*
X100774285Y-127245786D01*
X100774285Y-127245786D02*
X100774285Y-125745786D01*
X105755239Y-147014876D02*
X105945715Y-146919638D01*
X105945715Y-146919638D02*
X106231429Y-146919638D01*
X106231429Y-146919638D02*
X106517144Y-147014876D01*
X106517144Y-147014876D02*
X106707620Y-147205352D01*
X106707620Y-147205352D02*
X106802858Y-147395828D01*
X106802858Y-147395828D02*
X106898096Y-147776780D01*
X106898096Y-147776780D02*
X106898096Y-148062495D01*
X106898096Y-148062495D02*
X106802858Y-148443447D01*
X106802858Y-148443447D02*
X106707620Y-148633923D01*
X106707620Y-148633923D02*
X106517144Y-148824400D01*
X106517144Y-148824400D02*
X106231429Y-148919638D01*
X106231429Y-148919638D02*
X106040953Y-148919638D01*
X106040953Y-148919638D02*
X105755239Y-148824400D01*
X105755239Y-148824400D02*
X105660001Y-148729161D01*
X105660001Y-148729161D02*
X105660001Y-148062495D01*
X105660001Y-148062495D02*
X106040953Y-148062495D01*
X104802858Y-148919638D02*
X104802858Y-147586304D01*
X104802858Y-147967257D02*
X104707620Y-147776780D01*
X104707620Y-147776780D02*
X104612382Y-147681542D01*
X104612382Y-147681542D02*
X104421906Y-147586304D01*
X104421906Y-147586304D02*
X104231429Y-147586304D01*
X102802858Y-148824400D02*
X102993334Y-148919638D01*
X102993334Y-148919638D02*
X103374287Y-148919638D01*
X103374287Y-148919638D02*
X103564763Y-148824400D01*
X103564763Y-148824400D02*
X103660001Y-148633923D01*
X103660001Y-148633923D02*
X103660001Y-147872019D01*
X103660001Y-147872019D02*
X103564763Y-147681542D01*
X103564763Y-147681542D02*
X103374287Y-147586304D01*
X103374287Y-147586304D02*
X102993334Y-147586304D01*
X102993334Y-147586304D02*
X102802858Y-147681542D01*
X102802858Y-147681542D02*
X102707620Y-147872019D01*
X102707620Y-147872019D02*
X102707620Y-148062495D01*
X102707620Y-148062495D02*
X103660001Y-148252971D01*
X101088572Y-148824400D02*
X101279048Y-148919638D01*
X101279048Y-148919638D02*
X101660001Y-148919638D01*
X101660001Y-148919638D02*
X101850477Y-148824400D01*
X101850477Y-148824400D02*
X101945715Y-148633923D01*
X101945715Y-148633923D02*
X101945715Y-147872019D01*
X101945715Y-147872019D02*
X101850477Y-147681542D01*
X101850477Y-147681542D02*
X101660001Y-147586304D01*
X101660001Y-147586304D02*
X101279048Y-147586304D01*
X101279048Y-147586304D02*
X101088572Y-147681542D01*
X101088572Y-147681542D02*
X100993334Y-147872019D01*
X100993334Y-147872019D02*
X100993334Y-148062495D01*
X100993334Y-148062495D02*
X101945715Y-148252971D01*
X100136191Y-147586304D02*
X100136191Y-148919638D01*
X100136191Y-147776780D02*
X100040953Y-147681542D01*
X100040953Y-147681542D02*
X99850477Y-147586304D01*
X99850477Y-147586304D02*
X99564762Y-147586304D01*
X99564762Y-147586304D02*
X99374286Y-147681542D01*
X99374286Y-147681542D02*
X99279048Y-147872019D01*
X99279048Y-147872019D02*
X99279048Y-148919638D01*
X98612381Y-147586304D02*
X97850477Y-147586304D01*
X98326667Y-148919638D02*
X98326667Y-147205352D01*
X98326667Y-147205352D02*
X98231429Y-147014876D01*
X98231429Y-147014876D02*
X98040953Y-146919638D01*
X98040953Y-146919638D02*
X97850477Y-146919638D01*
X96326667Y-148919638D02*
X96326667Y-147872019D01*
X96326667Y-147872019D02*
X96421905Y-147681542D01*
X96421905Y-147681542D02*
X96612381Y-147586304D01*
X96612381Y-147586304D02*
X96993334Y-147586304D01*
X96993334Y-147586304D02*
X97183810Y-147681542D01*
X96326667Y-148824400D02*
X96517143Y-148919638D01*
X96517143Y-148919638D02*
X96993334Y-148919638D01*
X96993334Y-148919638D02*
X97183810Y-148824400D01*
X97183810Y-148824400D02*
X97279048Y-148633923D01*
X97279048Y-148633923D02*
X97279048Y-148443447D01*
X97279048Y-148443447D02*
X97183810Y-148252971D01*
X97183810Y-148252971D02*
X96993334Y-148157733D01*
X96993334Y-148157733D02*
X96517143Y-148157733D01*
X96517143Y-148157733D02*
X96326667Y-148062495D01*
X94517143Y-148824400D02*
X94707619Y-148919638D01*
X94707619Y-148919638D02*
X95088572Y-148919638D01*
X95088572Y-148919638D02*
X95279048Y-148824400D01*
X95279048Y-148824400D02*
X95374286Y-148729161D01*
X95374286Y-148729161D02*
X95469524Y-148538685D01*
X95469524Y-148538685D02*
X95469524Y-147967257D01*
X95469524Y-147967257D02*
X95374286Y-147776780D01*
X95374286Y-147776780D02*
X95279048Y-147681542D01*
X95279048Y-147681542D02*
X95088572Y-147586304D01*
X95088572Y-147586304D02*
X94707619Y-147586304D01*
X94707619Y-147586304D02*
X94517143Y-147681542D01*
X92898095Y-148824400D02*
X93088571Y-148919638D01*
X93088571Y-148919638D02*
X93469524Y-148919638D01*
X93469524Y-148919638D02*
X93660000Y-148824400D01*
X93660000Y-148824400D02*
X93755238Y-148633923D01*
X93755238Y-148633923D02*
X93755238Y-147872019D01*
X93755238Y-147872019D02*
X93660000Y-147681542D01*
X93660000Y-147681542D02*
X93469524Y-147586304D01*
X93469524Y-147586304D02*
X93088571Y-147586304D01*
X93088571Y-147586304D02*
X92898095Y-147681542D01*
X92898095Y-147681542D02*
X92802857Y-147872019D01*
X92802857Y-147872019D02*
X92802857Y-148062495D01*
X92802857Y-148062495D02*
X93755238Y-148252971D01*
X89469523Y-148919638D02*
X90421904Y-148919638D01*
X90421904Y-148919638D02*
X90421904Y-146919638D01*
X87945713Y-148919638D02*
X87945713Y-147872019D01*
X87945713Y-147872019D02*
X88040951Y-147681542D01*
X88040951Y-147681542D02*
X88231427Y-147586304D01*
X88231427Y-147586304D02*
X88612380Y-147586304D01*
X88612380Y-147586304D02*
X88802856Y-147681542D01*
X87945713Y-148824400D02*
X88136189Y-148919638D01*
X88136189Y-148919638D02*
X88612380Y-148919638D01*
X88612380Y-148919638D02*
X88802856Y-148824400D01*
X88802856Y-148824400D02*
X88898094Y-148633923D01*
X88898094Y-148633923D02*
X88898094Y-148443447D01*
X88898094Y-148443447D02*
X88802856Y-148252971D01*
X88802856Y-148252971D02*
X88612380Y-148157733D01*
X88612380Y-148157733D02*
X88136189Y-148157733D01*
X88136189Y-148157733D02*
X87945713Y-148062495D01*
X86993332Y-148919638D02*
X86993332Y-146919638D01*
X86993332Y-147681542D02*
X86802856Y-147586304D01*
X86802856Y-147586304D02*
X86421903Y-147586304D01*
X86421903Y-147586304D02*
X86231427Y-147681542D01*
X86231427Y-147681542D02*
X86136189Y-147776780D01*
X86136189Y-147776780D02*
X86040951Y-147967257D01*
X86040951Y-147967257D02*
X86040951Y-148538685D01*
X86040951Y-148538685D02*
X86136189Y-148729161D01*
X86136189Y-148729161D02*
X86231427Y-148824400D01*
X86231427Y-148824400D02*
X86421903Y-148919638D01*
X86421903Y-148919638D02*
X86802856Y-148919638D01*
X86802856Y-148919638D02*
X86993332Y-148824400D01*
X85279046Y-148824400D02*
X85088570Y-148919638D01*
X85088570Y-148919638D02*
X84707618Y-148919638D01*
X84707618Y-148919638D02*
X84517141Y-148824400D01*
X84517141Y-148824400D02*
X84421903Y-148633923D01*
X84421903Y-148633923D02*
X84421903Y-148538685D01*
X84421903Y-148538685D02*
X84517141Y-148348209D01*
X84517141Y-148348209D02*
X84707618Y-148252971D01*
X84707618Y-148252971D02*
X84993332Y-148252971D01*
X84993332Y-148252971D02*
X85183808Y-148157733D01*
X85183808Y-148157733D02*
X85279046Y-147967257D01*
X85279046Y-147967257D02*
X85279046Y-147872019D01*
X85279046Y-147872019D02*
X85183808Y-147681542D01*
X85183808Y-147681542D02*
X84993332Y-147586304D01*
X84993332Y-147586304D02*
X84707618Y-147586304D01*
X84707618Y-147586304D02*
X84517141Y-147681542D01*
D14*
X143691428Y-143743470D02*
X143691428Y-142243470D01*
X143691428Y-142243470D02*
X143119999Y-142243470D01*
X143119999Y-142243470D02*
X142977142Y-142314899D01*
X142977142Y-142314899D02*
X142905713Y-142386327D01*
X142905713Y-142386327D02*
X142834285Y-142529184D01*
X142834285Y-142529184D02*
X142834285Y-142743470D01*
X142834285Y-142743470D02*
X142905713Y-142886327D01*
X142905713Y-142886327D02*
X142977142Y-142957756D01*
X142977142Y-142957756D02*
X143119999Y-143029184D01*
X143119999Y-143029184D02*
X143691428Y-143029184D01*
X141691428Y-142957756D02*
X141477142Y-143029184D01*
X141477142Y-143029184D02*
X141405713Y-143100613D01*
X141405713Y-143100613D02*
X141334285Y-143243470D01*
X141334285Y-143243470D02*
X141334285Y-143457756D01*
X141334285Y-143457756D02*
X141405713Y-143600613D01*
X141405713Y-143600613D02*
X141477142Y-143672042D01*
X141477142Y-143672042D02*
X141619999Y-143743470D01*
X141619999Y-143743470D02*
X142191428Y-143743470D01*
X142191428Y-143743470D02*
X142191428Y-142243470D01*
X142191428Y-142243470D02*
X141691428Y-142243470D01*
X141691428Y-142243470D02*
X141548571Y-142314899D01*
X141548571Y-142314899D02*
X141477142Y-142386327D01*
X141477142Y-142386327D02*
X141405713Y-142529184D01*
X141405713Y-142529184D02*
X141405713Y-142672042D01*
X141405713Y-142672042D02*
X141477142Y-142814899D01*
X141477142Y-142814899D02*
X141548571Y-142886327D01*
X141548571Y-142886327D02*
X141691428Y-142957756D01*
X141691428Y-142957756D02*
X142191428Y-142957756D01*
X140262856Y-142243470D02*
X140262856Y-143314899D01*
X140262856Y-143314899D02*
X140334285Y-143529184D01*
X140334285Y-143529184D02*
X140477142Y-143672042D01*
X140477142Y-143672042D02*
X140691428Y-143743470D01*
X140691428Y-143743470D02*
X140834285Y-143743470D01*
X138405714Y-142957756D02*
X137905714Y-142957756D01*
X137691428Y-143743470D02*
X138405714Y-143743470D01*
X138405714Y-143743470D02*
X138405714Y-142243470D01*
X138405714Y-142243470D02*
X137691428Y-142243470D01*
X137048571Y-142243470D02*
X137048571Y-143457756D01*
X137048571Y-143457756D02*
X136977142Y-143600613D01*
X136977142Y-143600613D02*
X136905714Y-143672042D01*
X136905714Y-143672042D02*
X136762856Y-143743470D01*
X136762856Y-143743470D02*
X136477142Y-143743470D01*
X136477142Y-143743470D02*
X136334285Y-143672042D01*
X136334285Y-143672042D02*
X136262856Y-143600613D01*
X136262856Y-143600613D02*
X136191428Y-143457756D01*
X136191428Y-143457756D02*
X136191428Y-142243470D01*
X144977142Y-146086958D02*
X144762857Y-146158386D01*
X144762857Y-146158386D02*
X144405714Y-146158386D01*
X144405714Y-146158386D02*
X144262857Y-146086958D01*
X144262857Y-146086958D02*
X144191428Y-146015529D01*
X144191428Y-146015529D02*
X144119999Y-145872672D01*
X144119999Y-145872672D02*
X144119999Y-145729815D01*
X144119999Y-145729815D02*
X144191428Y-145586958D01*
X144191428Y-145586958D02*
X144262857Y-145515529D01*
X144262857Y-145515529D02*
X144405714Y-145444100D01*
X144405714Y-145444100D02*
X144691428Y-145372672D01*
X144691428Y-145372672D02*
X144834285Y-145301243D01*
X144834285Y-145301243D02*
X144905714Y-145229815D01*
X144905714Y-145229815D02*
X144977142Y-145086958D01*
X144977142Y-145086958D02*
X144977142Y-144944100D01*
X144977142Y-144944100D02*
X144905714Y-144801243D01*
X144905714Y-144801243D02*
X144834285Y-144729815D01*
X144834285Y-144729815D02*
X144691428Y-144658386D01*
X144691428Y-144658386D02*
X144334285Y-144658386D01*
X144334285Y-144658386D02*
X144119999Y-144729815D01*
X142834286Y-145158386D02*
X142834286Y-146158386D01*
X143477143Y-145158386D02*
X143477143Y-145944100D01*
X143477143Y-145944100D02*
X143405714Y-146086958D01*
X143405714Y-146086958D02*
X143262857Y-146158386D01*
X143262857Y-146158386D02*
X143048571Y-146158386D01*
X143048571Y-146158386D02*
X142905714Y-146086958D01*
X142905714Y-146086958D02*
X142834286Y-146015529D01*
X142120000Y-146158386D02*
X142120000Y-144658386D01*
X142120000Y-145229815D02*
X141977143Y-145158386D01*
X141977143Y-145158386D02*
X141691428Y-145158386D01*
X141691428Y-145158386D02*
X141548571Y-145229815D01*
X141548571Y-145229815D02*
X141477143Y-145301243D01*
X141477143Y-145301243D02*
X141405714Y-145444100D01*
X141405714Y-145444100D02*
X141405714Y-145872672D01*
X141405714Y-145872672D02*
X141477143Y-146015529D01*
X141477143Y-146015529D02*
X141548571Y-146086958D01*
X141548571Y-146086958D02*
X141691428Y-146158386D01*
X141691428Y-146158386D02*
X141977143Y-146158386D01*
X141977143Y-146158386D02*
X142120000Y-146086958D01*
X139120000Y-145372672D02*
X138905714Y-145444100D01*
X138905714Y-145444100D02*
X138834285Y-145515529D01*
X138834285Y-145515529D02*
X138762857Y-145658386D01*
X138762857Y-145658386D02*
X138762857Y-145872672D01*
X138762857Y-145872672D02*
X138834285Y-146015529D01*
X138834285Y-146015529D02*
X138905714Y-146086958D01*
X138905714Y-146086958D02*
X139048571Y-146158386D01*
X139048571Y-146158386D02*
X139620000Y-146158386D01*
X139620000Y-146158386D02*
X139620000Y-144658386D01*
X139620000Y-144658386D02*
X139120000Y-144658386D01*
X139120000Y-144658386D02*
X138977143Y-144729815D01*
X138977143Y-144729815D02*
X138905714Y-144801243D01*
X138905714Y-144801243D02*
X138834285Y-144944100D01*
X138834285Y-144944100D02*
X138834285Y-145086958D01*
X138834285Y-145086958D02*
X138905714Y-145229815D01*
X138905714Y-145229815D02*
X138977143Y-145301243D01*
X138977143Y-145301243D02*
X139120000Y-145372672D01*
X139120000Y-145372672D02*
X139620000Y-145372672D01*
X137905714Y-146158386D02*
X138048571Y-146086958D01*
X138048571Y-146086958D02*
X138120000Y-146015529D01*
X138120000Y-146015529D02*
X138191428Y-145872672D01*
X138191428Y-145872672D02*
X138191428Y-145444100D01*
X138191428Y-145444100D02*
X138120000Y-145301243D01*
X138120000Y-145301243D02*
X138048571Y-145229815D01*
X138048571Y-145229815D02*
X137905714Y-145158386D01*
X137905714Y-145158386D02*
X137691428Y-145158386D01*
X137691428Y-145158386D02*
X137548571Y-145229815D01*
X137548571Y-145229815D02*
X137477143Y-145301243D01*
X137477143Y-145301243D02*
X137405714Y-145444100D01*
X137405714Y-145444100D02*
X137405714Y-145872672D01*
X137405714Y-145872672D02*
X137477143Y-146015529D01*
X137477143Y-146015529D02*
X137548571Y-146086958D01*
X137548571Y-146086958D02*
X137691428Y-146158386D01*
X137691428Y-146158386D02*
X137905714Y-146158386D01*
X136120000Y-146158386D02*
X136120000Y-145372672D01*
X136120000Y-145372672D02*
X136191428Y-145229815D01*
X136191428Y-145229815D02*
X136334285Y-145158386D01*
X136334285Y-145158386D02*
X136620000Y-145158386D01*
X136620000Y-145158386D02*
X136762857Y-145229815D01*
X136120000Y-146086958D02*
X136262857Y-146158386D01*
X136262857Y-146158386D02*
X136620000Y-146158386D01*
X136620000Y-146158386D02*
X136762857Y-146086958D01*
X136762857Y-146086958D02*
X136834285Y-145944100D01*
X136834285Y-145944100D02*
X136834285Y-145801243D01*
X136834285Y-145801243D02*
X136762857Y-145658386D01*
X136762857Y-145658386D02*
X136620000Y-145586958D01*
X136620000Y-145586958D02*
X136262857Y-145586958D01*
X136262857Y-145586958D02*
X136120000Y-145515529D01*
X135405714Y-146158386D02*
X135405714Y-145158386D01*
X135405714Y-145444100D02*
X135334285Y-145301243D01*
X135334285Y-145301243D02*
X135262857Y-145229815D01*
X135262857Y-145229815D02*
X135119999Y-145158386D01*
X135119999Y-145158386D02*
X134977142Y-145158386D01*
X133834286Y-146158386D02*
X133834286Y-144658386D01*
X133834286Y-146086958D02*
X133977143Y-146158386D01*
X133977143Y-146158386D02*
X134262857Y-146158386D01*
X134262857Y-146158386D02*
X134405714Y-146086958D01*
X134405714Y-146086958D02*
X134477143Y-146015529D01*
X134477143Y-146015529D02*
X134548571Y-145872672D01*
X134548571Y-145872672D02*
X134548571Y-145444100D01*
X134548571Y-145444100D02*
X134477143Y-145301243D01*
X134477143Y-145301243D02*
X134405714Y-145229815D01*
X134405714Y-145229815D02*
X134262857Y-145158386D01*
X134262857Y-145158386D02*
X133977143Y-145158386D01*
X133977143Y-145158386D02*
X133834286Y-145229815D01*
D15*
X135071857Y-132788819D02*
X135405190Y-132312628D01*
X135643285Y-132788819D02*
X135643285Y-131788819D01*
X135643285Y-131788819D02*
X135262333Y-131788819D01*
X135262333Y-131788819D02*
X135167095Y-131836438D01*
X135167095Y-131836438D02*
X135119476Y-131884057D01*
X135119476Y-131884057D02*
X135071857Y-131979295D01*
X135071857Y-131979295D02*
X135071857Y-132122152D01*
X135071857Y-132122152D02*
X135119476Y-132217390D01*
X135119476Y-132217390D02*
X135167095Y-132265009D01*
X135167095Y-132265009D02*
X135262333Y-132312628D01*
X135262333Y-132312628D02*
X135643285Y-132312628D01*
X134119476Y-132788819D02*
X134690904Y-132788819D01*
X134405190Y-132788819D02*
X134405190Y-131788819D01*
X134405190Y-131788819D02*
X134500428Y-131931676D01*
X134500428Y-131931676D02*
X134595666Y-132026914D01*
X134595666Y-132026914D02*
X134690904Y-132074533D01*
X133214714Y-131788819D02*
X133690904Y-131788819D01*
X133690904Y-131788819D02*
X133738523Y-132265009D01*
X133738523Y-132265009D02*
X133690904Y-132217390D01*
X133690904Y-132217390D02*
X133595666Y-132169771D01*
X133595666Y-132169771D02*
X133357571Y-132169771D01*
X133357571Y-132169771D02*
X133262333Y-132217390D01*
X133262333Y-132217390D02*
X133214714Y-132265009D01*
X133214714Y-132265009D02*
X133167095Y-132360247D01*
X133167095Y-132360247D02*
X133167095Y-132598342D01*
X133167095Y-132598342D02*
X133214714Y-132693580D01*
X133214714Y-132693580D02*
X133262333Y-132741200D01*
X133262333Y-132741200D02*
X133357571Y-132788819D01*
X133357571Y-132788819D02*
X133595666Y-132788819D01*
X133595666Y-132788819D02*
X133690904Y-132741200D01*
X133690904Y-132741200D02*
X133738523Y-132693580D01*
X54970819Y-121499333D02*
X54494628Y-121166000D01*
X54970819Y-120927905D02*
X53970819Y-120927905D01*
X53970819Y-120927905D02*
X53970819Y-121308857D01*
X53970819Y-121308857D02*
X54018438Y-121404095D01*
X54018438Y-121404095D02*
X54066057Y-121451714D01*
X54066057Y-121451714D02*
X54161295Y-121499333D01*
X54161295Y-121499333D02*
X54304152Y-121499333D01*
X54304152Y-121499333D02*
X54399390Y-121451714D01*
X54399390Y-121451714D02*
X54447009Y-121404095D01*
X54447009Y-121404095D02*
X54494628Y-121308857D01*
X54494628Y-121308857D02*
X54494628Y-120927905D01*
X54066057Y-121880286D02*
X54018438Y-121927905D01*
X54018438Y-121927905D02*
X53970819Y-122023143D01*
X53970819Y-122023143D02*
X53970819Y-122261238D01*
X53970819Y-122261238D02*
X54018438Y-122356476D01*
X54018438Y-122356476D02*
X54066057Y-122404095D01*
X54066057Y-122404095D02*
X54161295Y-122451714D01*
X54161295Y-122451714D02*
X54256533Y-122451714D01*
X54256533Y-122451714D02*
X54399390Y-122404095D01*
X54399390Y-122404095D02*
X54970819Y-121832667D01*
X54970819Y-121832667D02*
X54970819Y-122451714D01*
X69382819Y-137370142D02*
X68906628Y-137036809D01*
X69382819Y-136798714D02*
X68382819Y-136798714D01*
X68382819Y-136798714D02*
X68382819Y-137179666D01*
X68382819Y-137179666D02*
X68430438Y-137274904D01*
X68430438Y-137274904D02*
X68478057Y-137322523D01*
X68478057Y-137322523D02*
X68573295Y-137370142D01*
X68573295Y-137370142D02*
X68716152Y-137370142D01*
X68716152Y-137370142D02*
X68811390Y-137322523D01*
X68811390Y-137322523D02*
X68859009Y-137274904D01*
X68859009Y-137274904D02*
X68906628Y-137179666D01*
X68906628Y-137179666D02*
X68906628Y-136798714D01*
X69382819Y-138322523D02*
X69382819Y-137751095D01*
X69382819Y-138036809D02*
X68382819Y-138036809D01*
X68382819Y-138036809D02*
X68525676Y-137941571D01*
X68525676Y-137941571D02*
X68620914Y-137846333D01*
X68620914Y-137846333D02*
X68668533Y-137751095D01*
X68716152Y-139179666D02*
X69382819Y-139179666D01*
X68335200Y-138941571D02*
X69049485Y-138703476D01*
X69049485Y-138703476D02*
X69049485Y-139322523D01*
X137969904Y-120154819D02*
X137969904Y-120964342D01*
X137969904Y-120964342D02*
X137922285Y-121059580D01*
X137922285Y-121059580D02*
X137874666Y-121107200D01*
X137874666Y-121107200D02*
X137779428Y-121154819D01*
X137779428Y-121154819D02*
X137588952Y-121154819D01*
X137588952Y-121154819D02*
X137493714Y-121107200D01*
X137493714Y-121107200D02*
X137446095Y-121059580D01*
X137446095Y-121059580D02*
X137398476Y-120964342D01*
X137398476Y-120964342D02*
X137398476Y-120154819D01*
X137017523Y-120154819D02*
X136398476Y-120154819D01*
X136398476Y-120154819D02*
X136731809Y-120535771D01*
X136731809Y-120535771D02*
X136588952Y-120535771D01*
X136588952Y-120535771D02*
X136493714Y-120583390D01*
X136493714Y-120583390D02*
X136446095Y-120631009D01*
X136446095Y-120631009D02*
X136398476Y-120726247D01*
X136398476Y-120726247D02*
X136398476Y-120964342D01*
X136398476Y-120964342D02*
X136446095Y-121059580D01*
X136446095Y-121059580D02*
X136493714Y-121107200D01*
X136493714Y-121107200D02*
X136588952Y-121154819D01*
X136588952Y-121154819D02*
X136874666Y-121154819D01*
X136874666Y-121154819D02*
X136969904Y-121107200D01*
X136969904Y-121107200D02*
X137017523Y-121059580D01*
X142853580Y-130643333D02*
X142901200Y-130595714D01*
X142901200Y-130595714D02*
X142948819Y-130452857D01*
X142948819Y-130452857D02*
X142948819Y-130357619D01*
X142948819Y-130357619D02*
X142901200Y-130214762D01*
X142901200Y-130214762D02*
X142805961Y-130119524D01*
X142805961Y-130119524D02*
X142710723Y-130071905D01*
X142710723Y-130071905D02*
X142520247Y-130024286D01*
X142520247Y-130024286D02*
X142377390Y-130024286D01*
X142377390Y-130024286D02*
X142186914Y-130071905D01*
X142186914Y-130071905D02*
X142091676Y-130119524D01*
X142091676Y-130119524D02*
X141996438Y-130214762D01*
X141996438Y-130214762D02*
X141948819Y-130357619D01*
X141948819Y-130357619D02*
X141948819Y-130452857D01*
X141948819Y-130452857D02*
X141996438Y-130595714D01*
X141996438Y-130595714D02*
X142044057Y-130643333D01*
X142282152Y-131500476D02*
X142948819Y-131500476D01*
X141901200Y-131262381D02*
X142615485Y-131024286D01*
X142615485Y-131024286D02*
X142615485Y-131643333D01*
X116752666Y-135990819D02*
X117085999Y-135514628D01*
X117324094Y-135990819D02*
X117324094Y-134990819D01*
X117324094Y-134990819D02*
X116943142Y-134990819D01*
X116943142Y-134990819D02*
X116847904Y-135038438D01*
X116847904Y-135038438D02*
X116800285Y-135086057D01*
X116800285Y-135086057D02*
X116752666Y-135181295D01*
X116752666Y-135181295D02*
X116752666Y-135324152D01*
X116752666Y-135324152D02*
X116800285Y-135419390D01*
X116800285Y-135419390D02*
X116847904Y-135467009D01*
X116847904Y-135467009D02*
X116943142Y-135514628D01*
X116943142Y-135514628D02*
X117324094Y-135514628D01*
X116276475Y-135990819D02*
X116085999Y-135990819D01*
X116085999Y-135990819D02*
X115990761Y-135943200D01*
X115990761Y-135943200D02*
X115943142Y-135895580D01*
X115943142Y-135895580D02*
X115847904Y-135752723D01*
X115847904Y-135752723D02*
X115800285Y-135562247D01*
X115800285Y-135562247D02*
X115800285Y-135181295D01*
X115800285Y-135181295D02*
X115847904Y-135086057D01*
X115847904Y-135086057D02*
X115895523Y-135038438D01*
X115895523Y-135038438D02*
X115990761Y-134990819D01*
X115990761Y-134990819D02*
X116181237Y-134990819D01*
X116181237Y-134990819D02*
X116276475Y-135038438D01*
X116276475Y-135038438D02*
X116324094Y-135086057D01*
X116324094Y-135086057D02*
X116371713Y-135181295D01*
X116371713Y-135181295D02*
X116371713Y-135419390D01*
X116371713Y-135419390D02*
X116324094Y-135514628D01*
X116324094Y-135514628D02*
X116276475Y-135562247D01*
X116276475Y-135562247D02*
X116181237Y-135609866D01*
X116181237Y-135609866D02*
X115990761Y-135609866D01*
X115990761Y-135609866D02*
X115895523Y-135562247D01*
X115895523Y-135562247D02*
X115847904Y-135514628D01*
X115847904Y-135514628D02*
X115800285Y-135419390D01*
X107899580Y-126071333D02*
X107947200Y-126023714D01*
X107947200Y-126023714D02*
X107994819Y-125880857D01*
X107994819Y-125880857D02*
X107994819Y-125785619D01*
X107994819Y-125785619D02*
X107947200Y-125642762D01*
X107947200Y-125642762D02*
X107851961Y-125547524D01*
X107851961Y-125547524D02*
X107756723Y-125499905D01*
X107756723Y-125499905D02*
X107566247Y-125452286D01*
X107566247Y-125452286D02*
X107423390Y-125452286D01*
X107423390Y-125452286D02*
X107232914Y-125499905D01*
X107232914Y-125499905D02*
X107137676Y-125547524D01*
X107137676Y-125547524D02*
X107042438Y-125642762D01*
X107042438Y-125642762D02*
X106994819Y-125785619D01*
X106994819Y-125785619D02*
X106994819Y-125880857D01*
X106994819Y-125880857D02*
X107042438Y-126023714D01*
X107042438Y-126023714D02*
X107090057Y-126071333D01*
X106994819Y-126404667D02*
X106994819Y-127023714D01*
X106994819Y-127023714D02*
X107375771Y-126690381D01*
X107375771Y-126690381D02*
X107375771Y-126833238D01*
X107375771Y-126833238D02*
X107423390Y-126928476D01*
X107423390Y-126928476D02*
X107471009Y-126976095D01*
X107471009Y-126976095D02*
X107566247Y-127023714D01*
X107566247Y-127023714D02*
X107804342Y-127023714D01*
X107804342Y-127023714D02*
X107899580Y-126976095D01*
X107899580Y-126976095D02*
X107947200Y-126928476D01*
X107947200Y-126928476D02*
X107994819Y-126833238D01*
X107994819Y-126833238D02*
X107994819Y-126547524D01*
X107994819Y-126547524D02*
X107947200Y-126452286D01*
X107947200Y-126452286D02*
X107899580Y-126404667D01*
X41804819Y-122473333D02*
X41328628Y-122140000D01*
X41804819Y-121901905D02*
X40804819Y-121901905D01*
X40804819Y-121901905D02*
X40804819Y-122282857D01*
X40804819Y-122282857D02*
X40852438Y-122378095D01*
X40852438Y-122378095D02*
X40900057Y-122425714D01*
X40900057Y-122425714D02*
X40995295Y-122473333D01*
X40995295Y-122473333D02*
X41138152Y-122473333D01*
X41138152Y-122473333D02*
X41233390Y-122425714D01*
X41233390Y-122425714D02*
X41281009Y-122378095D01*
X41281009Y-122378095D02*
X41328628Y-122282857D01*
X41328628Y-122282857D02*
X41328628Y-121901905D01*
X41804819Y-123425714D02*
X41804819Y-122854286D01*
X41804819Y-123140000D02*
X40804819Y-123140000D01*
X40804819Y-123140000D02*
X40947676Y-123044762D01*
X40947676Y-123044762D02*
X41042914Y-122949524D01*
X41042914Y-122949524D02*
X41090533Y-122854286D01*
X120755580Y-125817333D02*
X120803200Y-125769714D01*
X120803200Y-125769714D02*
X120850819Y-125626857D01*
X120850819Y-125626857D02*
X120850819Y-125531619D01*
X120850819Y-125531619D02*
X120803200Y-125388762D01*
X120803200Y-125388762D02*
X120707961Y-125293524D01*
X120707961Y-125293524D02*
X120612723Y-125245905D01*
X120612723Y-125245905D02*
X120422247Y-125198286D01*
X120422247Y-125198286D02*
X120279390Y-125198286D01*
X120279390Y-125198286D02*
X120088914Y-125245905D01*
X120088914Y-125245905D02*
X119993676Y-125293524D01*
X119993676Y-125293524D02*
X119898438Y-125388762D01*
X119898438Y-125388762D02*
X119850819Y-125531619D01*
X119850819Y-125531619D02*
X119850819Y-125626857D01*
X119850819Y-125626857D02*
X119898438Y-125769714D01*
X119898438Y-125769714D02*
X119946057Y-125817333D01*
X120850819Y-126769714D02*
X120850819Y-126198286D01*
X120850819Y-126484000D02*
X119850819Y-126484000D01*
X119850819Y-126484000D02*
X119993676Y-126388762D01*
X119993676Y-126388762D02*
X120088914Y-126293524D01*
X120088914Y-126293524D02*
X120136533Y-126198286D01*
X53540819Y-132929333D02*
X53064628Y-132596000D01*
X53540819Y-132357905D02*
X52540819Y-132357905D01*
X52540819Y-132357905D02*
X52540819Y-132738857D01*
X52540819Y-132738857D02*
X52588438Y-132834095D01*
X52588438Y-132834095D02*
X52636057Y-132881714D01*
X52636057Y-132881714D02*
X52731295Y-132929333D01*
X52731295Y-132929333D02*
X52874152Y-132929333D01*
X52874152Y-132929333D02*
X52969390Y-132881714D01*
X52969390Y-132881714D02*
X53017009Y-132834095D01*
X53017009Y-132834095D02*
X53064628Y-132738857D01*
X53064628Y-132738857D02*
X53064628Y-132357905D01*
X52874152Y-133786476D02*
X53540819Y-133786476D01*
X52493200Y-133548381D02*
X53207485Y-133310286D01*
X53207485Y-133310286D02*
X53207485Y-133929333D01*
X133484857Y-136090819D02*
X133818190Y-135614628D01*
X134056285Y-136090819D02*
X134056285Y-135090819D01*
X134056285Y-135090819D02*
X133675333Y-135090819D01*
X133675333Y-135090819D02*
X133580095Y-135138438D01*
X133580095Y-135138438D02*
X133532476Y-135186057D01*
X133532476Y-135186057D02*
X133484857Y-135281295D01*
X133484857Y-135281295D02*
X133484857Y-135424152D01*
X133484857Y-135424152D02*
X133532476Y-135519390D01*
X133532476Y-135519390D02*
X133580095Y-135567009D01*
X133580095Y-135567009D02*
X133675333Y-135614628D01*
X133675333Y-135614628D02*
X134056285Y-135614628D01*
X132532476Y-136090819D02*
X133103904Y-136090819D01*
X132818190Y-136090819D02*
X132818190Y-135090819D01*
X132818190Y-135090819D02*
X132913428Y-135233676D01*
X132913428Y-135233676D02*
X133008666Y-135328914D01*
X133008666Y-135328914D02*
X133103904Y-135376533D01*
X131675333Y-135090819D02*
X131865809Y-135090819D01*
X131865809Y-135090819D02*
X131961047Y-135138438D01*
X131961047Y-135138438D02*
X132008666Y-135186057D01*
X132008666Y-135186057D02*
X132103904Y-135328914D01*
X132103904Y-135328914D02*
X132151523Y-135519390D01*
X132151523Y-135519390D02*
X132151523Y-135900342D01*
X132151523Y-135900342D02*
X132103904Y-135995580D01*
X132103904Y-135995580D02*
X132056285Y-136043200D01*
X132056285Y-136043200D02*
X131961047Y-136090819D01*
X131961047Y-136090819D02*
X131770571Y-136090819D01*
X131770571Y-136090819D02*
X131675333Y-136043200D01*
X131675333Y-136043200D02*
X131627714Y-135995580D01*
X131627714Y-135995580D02*
X131580095Y-135900342D01*
X131580095Y-135900342D02*
X131580095Y-135662247D01*
X131580095Y-135662247D02*
X131627714Y-135567009D01*
X131627714Y-135567009D02*
X131675333Y-135519390D01*
X131675333Y-135519390D02*
X131770571Y-135471771D01*
X131770571Y-135471771D02*
X131961047Y-135471771D01*
X131961047Y-135471771D02*
X132056285Y-135519390D01*
X132056285Y-135519390D02*
X132103904Y-135567009D01*
X132103904Y-135567009D02*
X132151523Y-135662247D01*
X131931580Y-123277333D02*
X131979200Y-123229714D01*
X131979200Y-123229714D02*
X132026819Y-123086857D01*
X132026819Y-123086857D02*
X132026819Y-122991619D01*
X132026819Y-122991619D02*
X131979200Y-122848762D01*
X131979200Y-122848762D02*
X131883961Y-122753524D01*
X131883961Y-122753524D02*
X131788723Y-122705905D01*
X131788723Y-122705905D02*
X131598247Y-122658286D01*
X131598247Y-122658286D02*
X131455390Y-122658286D01*
X131455390Y-122658286D02*
X131264914Y-122705905D01*
X131264914Y-122705905D02*
X131169676Y-122753524D01*
X131169676Y-122753524D02*
X131074438Y-122848762D01*
X131074438Y-122848762D02*
X131026819Y-122991619D01*
X131026819Y-122991619D02*
X131026819Y-123086857D01*
X131026819Y-123086857D02*
X131074438Y-123229714D01*
X131074438Y-123229714D02*
X131122057Y-123277333D01*
X131455390Y-123848762D02*
X131407771Y-123753524D01*
X131407771Y-123753524D02*
X131360152Y-123705905D01*
X131360152Y-123705905D02*
X131264914Y-123658286D01*
X131264914Y-123658286D02*
X131217295Y-123658286D01*
X131217295Y-123658286D02*
X131122057Y-123705905D01*
X131122057Y-123705905D02*
X131074438Y-123753524D01*
X131074438Y-123753524D02*
X131026819Y-123848762D01*
X131026819Y-123848762D02*
X131026819Y-124039238D01*
X131026819Y-124039238D02*
X131074438Y-124134476D01*
X131074438Y-124134476D02*
X131122057Y-124182095D01*
X131122057Y-124182095D02*
X131217295Y-124229714D01*
X131217295Y-124229714D02*
X131264914Y-124229714D01*
X131264914Y-124229714D02*
X131360152Y-124182095D01*
X131360152Y-124182095D02*
X131407771Y-124134476D01*
X131407771Y-124134476D02*
X131455390Y-124039238D01*
X131455390Y-124039238D02*
X131455390Y-123848762D01*
X131455390Y-123848762D02*
X131503009Y-123753524D01*
X131503009Y-123753524D02*
X131550628Y-123705905D01*
X131550628Y-123705905D02*
X131645866Y-123658286D01*
X131645866Y-123658286D02*
X131836342Y-123658286D01*
X131836342Y-123658286D02*
X131931580Y-123705905D01*
X131931580Y-123705905D02*
X131979200Y-123753524D01*
X131979200Y-123753524D02*
X132026819Y-123848762D01*
X132026819Y-123848762D02*
X132026819Y-124039238D01*
X132026819Y-124039238D02*
X131979200Y-124134476D01*
X131979200Y-124134476D02*
X131931580Y-124182095D01*
X131931580Y-124182095D02*
X131836342Y-124229714D01*
X131836342Y-124229714D02*
X131645866Y-124229714D01*
X131645866Y-124229714D02*
X131550628Y-124182095D01*
X131550628Y-124182095D02*
X131503009Y-124134476D01*
X131503009Y-124134476D02*
X131455390Y-124039238D01*
X64208819Y-140041333D02*
X63732628Y-139708000D01*
X64208819Y-139469905D02*
X63208819Y-139469905D01*
X63208819Y-139469905D02*
X63208819Y-139850857D01*
X63208819Y-139850857D02*
X63256438Y-139946095D01*
X63256438Y-139946095D02*
X63304057Y-139993714D01*
X63304057Y-139993714D02*
X63399295Y-140041333D01*
X63399295Y-140041333D02*
X63542152Y-140041333D01*
X63542152Y-140041333D02*
X63637390Y-139993714D01*
X63637390Y-139993714D02*
X63685009Y-139946095D01*
X63685009Y-139946095D02*
X63732628Y-139850857D01*
X63732628Y-139850857D02*
X63732628Y-139469905D01*
X63637390Y-140612762D02*
X63589771Y-140517524D01*
X63589771Y-140517524D02*
X63542152Y-140469905D01*
X63542152Y-140469905D02*
X63446914Y-140422286D01*
X63446914Y-140422286D02*
X63399295Y-140422286D01*
X63399295Y-140422286D02*
X63304057Y-140469905D01*
X63304057Y-140469905D02*
X63256438Y-140517524D01*
X63256438Y-140517524D02*
X63208819Y-140612762D01*
X63208819Y-140612762D02*
X63208819Y-140803238D01*
X63208819Y-140803238D02*
X63256438Y-140898476D01*
X63256438Y-140898476D02*
X63304057Y-140946095D01*
X63304057Y-140946095D02*
X63399295Y-140993714D01*
X63399295Y-140993714D02*
X63446914Y-140993714D01*
X63446914Y-140993714D02*
X63542152Y-140946095D01*
X63542152Y-140946095D02*
X63589771Y-140898476D01*
X63589771Y-140898476D02*
X63637390Y-140803238D01*
X63637390Y-140803238D02*
X63637390Y-140612762D01*
X63637390Y-140612762D02*
X63685009Y-140517524D01*
X63685009Y-140517524D02*
X63732628Y-140469905D01*
X63732628Y-140469905D02*
X63827866Y-140422286D01*
X63827866Y-140422286D02*
X64018342Y-140422286D01*
X64018342Y-140422286D02*
X64113580Y-140469905D01*
X64113580Y-140469905D02*
X64161200Y-140517524D01*
X64161200Y-140517524D02*
X64208819Y-140612762D01*
X64208819Y-140612762D02*
X64208819Y-140803238D01*
X64208819Y-140803238D02*
X64161200Y-140898476D01*
X64161200Y-140898476D02*
X64113580Y-140946095D01*
X64113580Y-140946095D02*
X64018342Y-140993714D01*
X64018342Y-140993714D02*
X63827866Y-140993714D01*
X63827866Y-140993714D02*
X63732628Y-140946095D01*
X63732628Y-140946095D02*
X63685009Y-140898476D01*
X63685009Y-140898476D02*
X63637390Y-140803238D01*
X115564354Y-120204819D02*
X115564354Y-121014342D01*
X115564354Y-121014342D02*
X115516735Y-121109580D01*
X115516735Y-121109580D02*
X115469116Y-121157200D01*
X115469116Y-121157200D02*
X115373878Y-121204819D01*
X115373878Y-121204819D02*
X115183402Y-121204819D01*
X115183402Y-121204819D02*
X115088164Y-121157200D01*
X115088164Y-121157200D02*
X115040545Y-121109580D01*
X115040545Y-121109580D02*
X114992926Y-121014342D01*
X114992926Y-121014342D02*
X114992926Y-120204819D01*
X113992926Y-121204819D02*
X114564354Y-121204819D01*
X114278640Y-121204819D02*
X114278640Y-120204819D01*
X114278640Y-120204819D02*
X114373878Y-120347676D01*
X114373878Y-120347676D02*
X114469116Y-120442914D01*
X114469116Y-120442914D02*
X114564354Y-120490533D01*
X79903333Y-124704819D02*
X79903333Y-125419104D01*
X79903333Y-125419104D02*
X79950952Y-125561961D01*
X79950952Y-125561961D02*
X80046190Y-125657200D01*
X80046190Y-125657200D02*
X80189047Y-125704819D01*
X80189047Y-125704819D02*
X80284285Y-125704819D01*
X78998571Y-124704819D02*
X79189047Y-124704819D01*
X79189047Y-124704819D02*
X79284285Y-124752438D01*
X79284285Y-124752438D02*
X79331904Y-124800057D01*
X79331904Y-124800057D02*
X79427142Y-124942914D01*
X79427142Y-124942914D02*
X79474761Y-125133390D01*
X79474761Y-125133390D02*
X79474761Y-125514342D01*
X79474761Y-125514342D02*
X79427142Y-125609580D01*
X79427142Y-125609580D02*
X79379523Y-125657200D01*
X79379523Y-125657200D02*
X79284285Y-125704819D01*
X79284285Y-125704819D02*
X79093809Y-125704819D01*
X79093809Y-125704819D02*
X78998571Y-125657200D01*
X78998571Y-125657200D02*
X78950952Y-125609580D01*
X78950952Y-125609580D02*
X78903333Y-125514342D01*
X78903333Y-125514342D02*
X78903333Y-125276247D01*
X78903333Y-125276247D02*
X78950952Y-125181009D01*
X78950952Y-125181009D02*
X78998571Y-125133390D01*
X78998571Y-125133390D02*
X79093809Y-125085771D01*
X79093809Y-125085771D02*
X79284285Y-125085771D01*
X79284285Y-125085771D02*
X79379523Y-125133390D01*
X79379523Y-125133390D02*
X79427142Y-125181009D01*
X79427142Y-125181009D02*
X79474761Y-125276247D01*
X74842666Y-135841580D02*
X74890285Y-135889200D01*
X74890285Y-135889200D02*
X75033142Y-135936819D01*
X75033142Y-135936819D02*
X75128380Y-135936819D01*
X75128380Y-135936819D02*
X75271237Y-135889200D01*
X75271237Y-135889200D02*
X75366475Y-135793961D01*
X75366475Y-135793961D02*
X75414094Y-135698723D01*
X75414094Y-135698723D02*
X75461713Y-135508247D01*
X75461713Y-135508247D02*
X75461713Y-135365390D01*
X75461713Y-135365390D02*
X75414094Y-135174914D01*
X75414094Y-135174914D02*
X75366475Y-135079676D01*
X75366475Y-135079676D02*
X75271237Y-134984438D01*
X75271237Y-134984438D02*
X75128380Y-134936819D01*
X75128380Y-134936819D02*
X75033142Y-134936819D01*
X75033142Y-134936819D02*
X74890285Y-134984438D01*
X74890285Y-134984438D02*
X74842666Y-135032057D01*
X74509332Y-134936819D02*
X73842666Y-134936819D01*
X73842666Y-134936819D02*
X74271237Y-135936819D01*
X62301857Y-137614819D02*
X62635190Y-137138628D01*
X62873285Y-137614819D02*
X62873285Y-136614819D01*
X62873285Y-136614819D02*
X62492333Y-136614819D01*
X62492333Y-136614819D02*
X62397095Y-136662438D01*
X62397095Y-136662438D02*
X62349476Y-136710057D01*
X62349476Y-136710057D02*
X62301857Y-136805295D01*
X62301857Y-136805295D02*
X62301857Y-136948152D01*
X62301857Y-136948152D02*
X62349476Y-137043390D01*
X62349476Y-137043390D02*
X62397095Y-137091009D01*
X62397095Y-137091009D02*
X62492333Y-137138628D01*
X62492333Y-137138628D02*
X62873285Y-137138628D01*
X61349476Y-137614819D02*
X61920904Y-137614819D01*
X61635190Y-137614819D02*
X61635190Y-136614819D01*
X61635190Y-136614819D02*
X61730428Y-136757676D01*
X61730428Y-136757676D02*
X61825666Y-136852914D01*
X61825666Y-136852914D02*
X61920904Y-136900533D01*
X60397095Y-137614819D02*
X60968523Y-137614819D01*
X60682809Y-137614819D02*
X60682809Y-136614819D01*
X60682809Y-136614819D02*
X60778047Y-136757676D01*
X60778047Y-136757676D02*
X60873285Y-136852914D01*
X60873285Y-136852914D02*
X60968523Y-136900533D01*
X67563904Y-129404819D02*
X67563904Y-130214342D01*
X67563904Y-130214342D02*
X67516285Y-130309580D01*
X67516285Y-130309580D02*
X67468666Y-130357200D01*
X67468666Y-130357200D02*
X67373428Y-130404819D01*
X67373428Y-130404819D02*
X67182952Y-130404819D01*
X67182952Y-130404819D02*
X67087714Y-130357200D01*
X67087714Y-130357200D02*
X67040095Y-130309580D01*
X67040095Y-130309580D02*
X66992476Y-130214342D01*
X66992476Y-130214342D02*
X66992476Y-129404819D01*
X66563904Y-129500057D02*
X66516285Y-129452438D01*
X66516285Y-129452438D02*
X66421047Y-129404819D01*
X66421047Y-129404819D02*
X66182952Y-129404819D01*
X66182952Y-129404819D02*
X66087714Y-129452438D01*
X66087714Y-129452438D02*
X66040095Y-129500057D01*
X66040095Y-129500057D02*
X65992476Y-129595295D01*
X65992476Y-129595295D02*
X65992476Y-129690533D01*
X65992476Y-129690533D02*
X66040095Y-129833390D01*
X66040095Y-129833390D02*
X66611523Y-130404819D01*
X66611523Y-130404819D02*
X65992476Y-130404819D01*
X128129580Y-140227142D02*
X128177200Y-140179523D01*
X128177200Y-140179523D02*
X128224819Y-140036666D01*
X128224819Y-140036666D02*
X128224819Y-139941428D01*
X128224819Y-139941428D02*
X128177200Y-139798571D01*
X128177200Y-139798571D02*
X128081961Y-139703333D01*
X128081961Y-139703333D02*
X127986723Y-139655714D01*
X127986723Y-139655714D02*
X127796247Y-139608095D01*
X127796247Y-139608095D02*
X127653390Y-139608095D01*
X127653390Y-139608095D02*
X127462914Y-139655714D01*
X127462914Y-139655714D02*
X127367676Y-139703333D01*
X127367676Y-139703333D02*
X127272438Y-139798571D01*
X127272438Y-139798571D02*
X127224819Y-139941428D01*
X127224819Y-139941428D02*
X127224819Y-140036666D01*
X127224819Y-140036666D02*
X127272438Y-140179523D01*
X127272438Y-140179523D02*
X127320057Y-140227142D01*
X128224819Y-141179523D02*
X128224819Y-140608095D01*
X128224819Y-140893809D02*
X127224819Y-140893809D01*
X127224819Y-140893809D02*
X127367676Y-140798571D01*
X127367676Y-140798571D02*
X127462914Y-140703333D01*
X127462914Y-140703333D02*
X127510533Y-140608095D01*
X127320057Y-141560476D02*
X127272438Y-141608095D01*
X127272438Y-141608095D02*
X127224819Y-141703333D01*
X127224819Y-141703333D02*
X127224819Y-141941428D01*
X127224819Y-141941428D02*
X127272438Y-142036666D01*
X127272438Y-142036666D02*
X127320057Y-142084285D01*
X127320057Y-142084285D02*
X127415295Y-142131904D01*
X127415295Y-142131904D02*
X127510533Y-142131904D01*
X127510533Y-142131904D02*
X127653390Y-142084285D01*
X127653390Y-142084285D02*
X128224819Y-141512857D01*
X128224819Y-141512857D02*
X128224819Y-142131904D01*
X60618666Y-132947580D02*
X60666285Y-132995200D01*
X60666285Y-132995200D02*
X60809142Y-133042819D01*
X60809142Y-133042819D02*
X60904380Y-133042819D01*
X60904380Y-133042819D02*
X61047237Y-132995200D01*
X61047237Y-132995200D02*
X61142475Y-132899961D01*
X61142475Y-132899961D02*
X61190094Y-132804723D01*
X61190094Y-132804723D02*
X61237713Y-132614247D01*
X61237713Y-132614247D02*
X61237713Y-132471390D01*
X61237713Y-132471390D02*
X61190094Y-132280914D01*
X61190094Y-132280914D02*
X61142475Y-132185676D01*
X61142475Y-132185676D02*
X61047237Y-132090438D01*
X61047237Y-132090438D02*
X60904380Y-132042819D01*
X60904380Y-132042819D02*
X60809142Y-132042819D01*
X60809142Y-132042819D02*
X60666285Y-132090438D01*
X60666285Y-132090438D02*
X60618666Y-132138057D01*
X60142475Y-133042819D02*
X59951999Y-133042819D01*
X59951999Y-133042819D02*
X59856761Y-132995200D01*
X59856761Y-132995200D02*
X59809142Y-132947580D01*
X59809142Y-132947580D02*
X59713904Y-132804723D01*
X59713904Y-132804723D02*
X59666285Y-132614247D01*
X59666285Y-132614247D02*
X59666285Y-132233295D01*
X59666285Y-132233295D02*
X59713904Y-132138057D01*
X59713904Y-132138057D02*
X59761523Y-132090438D01*
X59761523Y-132090438D02*
X59856761Y-132042819D01*
X59856761Y-132042819D02*
X60047237Y-132042819D01*
X60047237Y-132042819D02*
X60142475Y-132090438D01*
X60142475Y-132090438D02*
X60190094Y-132138057D01*
X60190094Y-132138057D02*
X60237713Y-132233295D01*
X60237713Y-132233295D02*
X60237713Y-132471390D01*
X60237713Y-132471390D02*
X60190094Y-132566628D01*
X60190094Y-132566628D02*
X60142475Y-132614247D01*
X60142475Y-132614247D02*
X60047237Y-132661866D01*
X60047237Y-132661866D02*
X59856761Y-132661866D01*
X59856761Y-132661866D02*
X59761523Y-132614247D01*
X59761523Y-132614247D02*
X59713904Y-132566628D01*
X59713904Y-132566628D02*
X59666285Y-132471390D01*
X77096857Y-133042819D02*
X77430190Y-132566628D01*
X77668285Y-133042819D02*
X77668285Y-132042819D01*
X77668285Y-132042819D02*
X77287333Y-132042819D01*
X77287333Y-132042819D02*
X77192095Y-132090438D01*
X77192095Y-132090438D02*
X77144476Y-132138057D01*
X77144476Y-132138057D02*
X77096857Y-132233295D01*
X77096857Y-132233295D02*
X77096857Y-132376152D01*
X77096857Y-132376152D02*
X77144476Y-132471390D01*
X77144476Y-132471390D02*
X77192095Y-132519009D01*
X77192095Y-132519009D02*
X77287333Y-132566628D01*
X77287333Y-132566628D02*
X77668285Y-132566628D01*
X76144476Y-133042819D02*
X76715904Y-133042819D01*
X76430190Y-133042819D02*
X76430190Y-132042819D01*
X76430190Y-132042819D02*
X76525428Y-132185676D01*
X76525428Y-132185676D02*
X76620666Y-132280914D01*
X76620666Y-132280914D02*
X76715904Y-132328533D01*
X75811142Y-132042819D02*
X75192095Y-132042819D01*
X75192095Y-132042819D02*
X75525428Y-132423771D01*
X75525428Y-132423771D02*
X75382571Y-132423771D01*
X75382571Y-132423771D02*
X75287333Y-132471390D01*
X75287333Y-132471390D02*
X75239714Y-132519009D01*
X75239714Y-132519009D02*
X75192095Y-132614247D01*
X75192095Y-132614247D02*
X75192095Y-132852342D01*
X75192095Y-132852342D02*
X75239714Y-132947580D01*
X75239714Y-132947580D02*
X75287333Y-132995200D01*
X75287333Y-132995200D02*
X75382571Y-133042819D01*
X75382571Y-133042819D02*
X75668285Y-133042819D01*
X75668285Y-133042819D02*
X75763523Y-132995200D01*
X75763523Y-132995200D02*
X75811142Y-132947580D01*
X142948819Y-120991333D02*
X142472628Y-120658000D01*
X142948819Y-120419905D02*
X141948819Y-120419905D01*
X141948819Y-120419905D02*
X141948819Y-120800857D01*
X141948819Y-120800857D02*
X141996438Y-120896095D01*
X141996438Y-120896095D02*
X142044057Y-120943714D01*
X142044057Y-120943714D02*
X142139295Y-120991333D01*
X142139295Y-120991333D02*
X142282152Y-120991333D01*
X142282152Y-120991333D02*
X142377390Y-120943714D01*
X142377390Y-120943714D02*
X142425009Y-120896095D01*
X142425009Y-120896095D02*
X142472628Y-120800857D01*
X142472628Y-120800857D02*
X142472628Y-120419905D01*
X141948819Y-121848476D02*
X141948819Y-121658000D01*
X141948819Y-121658000D02*
X141996438Y-121562762D01*
X141996438Y-121562762D02*
X142044057Y-121515143D01*
X142044057Y-121515143D02*
X142186914Y-121419905D01*
X142186914Y-121419905D02*
X142377390Y-121372286D01*
X142377390Y-121372286D02*
X142758342Y-121372286D01*
X142758342Y-121372286D02*
X142853580Y-121419905D01*
X142853580Y-121419905D02*
X142901200Y-121467524D01*
X142901200Y-121467524D02*
X142948819Y-121562762D01*
X142948819Y-121562762D02*
X142948819Y-121753238D01*
X142948819Y-121753238D02*
X142901200Y-121848476D01*
X142901200Y-121848476D02*
X142853580Y-121896095D01*
X142853580Y-121896095D02*
X142758342Y-121943714D01*
X142758342Y-121943714D02*
X142520247Y-121943714D01*
X142520247Y-121943714D02*
X142425009Y-121896095D01*
X142425009Y-121896095D02*
X142377390Y-121848476D01*
X142377390Y-121848476D02*
X142329771Y-121753238D01*
X142329771Y-121753238D02*
X142329771Y-121562762D01*
X142329771Y-121562762D02*
X142377390Y-121467524D01*
X142377390Y-121467524D02*
X142425009Y-121419905D01*
X142425009Y-121419905D02*
X142520247Y-121372286D01*
X61621666Y-129993580D02*
X61669285Y-130041200D01*
X61669285Y-130041200D02*
X61812142Y-130088819D01*
X61812142Y-130088819D02*
X61907380Y-130088819D01*
X61907380Y-130088819D02*
X62050237Y-130041200D01*
X62050237Y-130041200D02*
X62145475Y-129945961D01*
X62145475Y-129945961D02*
X62193094Y-129850723D01*
X62193094Y-129850723D02*
X62240713Y-129660247D01*
X62240713Y-129660247D02*
X62240713Y-129517390D01*
X62240713Y-129517390D02*
X62193094Y-129326914D01*
X62193094Y-129326914D02*
X62145475Y-129231676D01*
X62145475Y-129231676D02*
X62050237Y-129136438D01*
X62050237Y-129136438D02*
X61907380Y-129088819D01*
X61907380Y-129088819D02*
X61812142Y-129088819D01*
X61812142Y-129088819D02*
X61669285Y-129136438D01*
X61669285Y-129136438D02*
X61621666Y-129184057D01*
X60764523Y-129088819D02*
X60954999Y-129088819D01*
X60954999Y-129088819D02*
X61050237Y-129136438D01*
X61050237Y-129136438D02*
X61097856Y-129184057D01*
X61097856Y-129184057D02*
X61193094Y-129326914D01*
X61193094Y-129326914D02*
X61240713Y-129517390D01*
X61240713Y-129517390D02*
X61240713Y-129898342D01*
X61240713Y-129898342D02*
X61193094Y-129993580D01*
X61193094Y-129993580D02*
X61145475Y-130041200D01*
X61145475Y-130041200D02*
X61050237Y-130088819D01*
X61050237Y-130088819D02*
X60859761Y-130088819D01*
X60859761Y-130088819D02*
X60764523Y-130041200D01*
X60764523Y-130041200D02*
X60716904Y-129993580D01*
X60716904Y-129993580D02*
X60669285Y-129898342D01*
X60669285Y-129898342D02*
X60669285Y-129660247D01*
X60669285Y-129660247D02*
X60716904Y-129565009D01*
X60716904Y-129565009D02*
X60764523Y-129517390D01*
X60764523Y-129517390D02*
X60859761Y-129469771D01*
X60859761Y-129469771D02*
X61050237Y-129469771D01*
X61050237Y-129469771D02*
X61145475Y-129517390D01*
X61145475Y-129517390D02*
X61193094Y-129565009D01*
X61193094Y-129565009D02*
X61240713Y-129660247D01*
X57570666Y-134820819D02*
X57903999Y-134344628D01*
X58142094Y-134820819D02*
X58142094Y-133820819D01*
X58142094Y-133820819D02*
X57761142Y-133820819D01*
X57761142Y-133820819D02*
X57665904Y-133868438D01*
X57665904Y-133868438D02*
X57618285Y-133916057D01*
X57618285Y-133916057D02*
X57570666Y-134011295D01*
X57570666Y-134011295D02*
X57570666Y-134154152D01*
X57570666Y-134154152D02*
X57618285Y-134249390D01*
X57618285Y-134249390D02*
X57665904Y-134297009D01*
X57665904Y-134297009D02*
X57761142Y-134344628D01*
X57761142Y-134344628D02*
X58142094Y-134344628D01*
X57237332Y-133820819D02*
X56570666Y-133820819D01*
X56570666Y-133820819D02*
X56999237Y-134820819D01*
X116720857Y-131323580D02*
X116768476Y-131371200D01*
X116768476Y-131371200D02*
X116911333Y-131418819D01*
X116911333Y-131418819D02*
X117006571Y-131418819D01*
X117006571Y-131418819D02*
X117149428Y-131371200D01*
X117149428Y-131371200D02*
X117244666Y-131275961D01*
X117244666Y-131275961D02*
X117292285Y-131180723D01*
X117292285Y-131180723D02*
X117339904Y-130990247D01*
X117339904Y-130990247D02*
X117339904Y-130847390D01*
X117339904Y-130847390D02*
X117292285Y-130656914D01*
X117292285Y-130656914D02*
X117244666Y-130561676D01*
X117244666Y-130561676D02*
X117149428Y-130466438D01*
X117149428Y-130466438D02*
X117006571Y-130418819D01*
X117006571Y-130418819D02*
X116911333Y-130418819D01*
X116911333Y-130418819D02*
X116768476Y-130466438D01*
X116768476Y-130466438D02*
X116720857Y-130514057D01*
X115768476Y-131418819D02*
X116339904Y-131418819D01*
X116054190Y-131418819D02*
X116054190Y-130418819D01*
X116054190Y-130418819D02*
X116149428Y-130561676D01*
X116149428Y-130561676D02*
X116244666Y-130656914D01*
X116244666Y-130656914D02*
X116339904Y-130704533D01*
X114816095Y-131418819D02*
X115387523Y-131418819D01*
X115101809Y-131418819D02*
X115101809Y-130418819D01*
X115101809Y-130418819D02*
X115197047Y-130561676D01*
X115197047Y-130561676D02*
X115292285Y-130656914D01*
X115292285Y-130656914D02*
X115387523Y-130704533D01*
X120088819Y-140581142D02*
X119612628Y-140247809D01*
X120088819Y-140009714D02*
X119088819Y-140009714D01*
X119088819Y-140009714D02*
X119088819Y-140390666D01*
X119088819Y-140390666D02*
X119136438Y-140485904D01*
X119136438Y-140485904D02*
X119184057Y-140533523D01*
X119184057Y-140533523D02*
X119279295Y-140581142D01*
X119279295Y-140581142D02*
X119422152Y-140581142D01*
X119422152Y-140581142D02*
X119517390Y-140533523D01*
X119517390Y-140533523D02*
X119565009Y-140485904D01*
X119565009Y-140485904D02*
X119612628Y-140390666D01*
X119612628Y-140390666D02*
X119612628Y-140009714D01*
X120088819Y-141533523D02*
X120088819Y-140962095D01*
X120088819Y-141247809D02*
X119088819Y-141247809D01*
X119088819Y-141247809D02*
X119231676Y-141152571D01*
X119231676Y-141152571D02*
X119326914Y-141057333D01*
X119326914Y-141057333D02*
X119374533Y-140962095D01*
X119184057Y-141914476D02*
X119136438Y-141962095D01*
X119136438Y-141962095D02*
X119088819Y-142057333D01*
X119088819Y-142057333D02*
X119088819Y-142295428D01*
X119088819Y-142295428D02*
X119136438Y-142390666D01*
X119136438Y-142390666D02*
X119184057Y-142438285D01*
X119184057Y-142438285D02*
X119279295Y-142485904D01*
X119279295Y-142485904D02*
X119374533Y-142485904D01*
X119374533Y-142485904D02*
X119517390Y-142438285D01*
X119517390Y-142438285D02*
X120088819Y-141866857D01*
X120088819Y-141866857D02*
X120088819Y-142485904D01*
X75826857Y-134666819D02*
X76160190Y-134190628D01*
X76398285Y-134666819D02*
X76398285Y-133666819D01*
X76398285Y-133666819D02*
X76017333Y-133666819D01*
X76017333Y-133666819D02*
X75922095Y-133714438D01*
X75922095Y-133714438D02*
X75874476Y-133762057D01*
X75874476Y-133762057D02*
X75826857Y-133857295D01*
X75826857Y-133857295D02*
X75826857Y-134000152D01*
X75826857Y-134000152D02*
X75874476Y-134095390D01*
X75874476Y-134095390D02*
X75922095Y-134143009D01*
X75922095Y-134143009D02*
X76017333Y-134190628D01*
X76017333Y-134190628D02*
X76398285Y-134190628D01*
X74874476Y-134666819D02*
X75445904Y-134666819D01*
X75160190Y-134666819D02*
X75160190Y-133666819D01*
X75160190Y-133666819D02*
X75255428Y-133809676D01*
X75255428Y-133809676D02*
X75350666Y-133904914D01*
X75350666Y-133904914D02*
X75445904Y-133952533D01*
X74541142Y-133666819D02*
X73874476Y-133666819D01*
X73874476Y-133666819D02*
X74303047Y-134666819D01*
X131960857Y-131169580D02*
X132008476Y-131217200D01*
X132008476Y-131217200D02*
X132151333Y-131264819D01*
X132151333Y-131264819D02*
X132246571Y-131264819D01*
X132246571Y-131264819D02*
X132389428Y-131217200D01*
X132389428Y-131217200D02*
X132484666Y-131121961D01*
X132484666Y-131121961D02*
X132532285Y-131026723D01*
X132532285Y-131026723D02*
X132579904Y-130836247D01*
X132579904Y-130836247D02*
X132579904Y-130693390D01*
X132579904Y-130693390D02*
X132532285Y-130502914D01*
X132532285Y-130502914D02*
X132484666Y-130407676D01*
X132484666Y-130407676D02*
X132389428Y-130312438D01*
X132389428Y-130312438D02*
X132246571Y-130264819D01*
X132246571Y-130264819D02*
X132151333Y-130264819D01*
X132151333Y-130264819D02*
X132008476Y-130312438D01*
X132008476Y-130312438D02*
X131960857Y-130360057D01*
X131008476Y-131264819D02*
X131579904Y-131264819D01*
X131294190Y-131264819D02*
X131294190Y-130264819D01*
X131294190Y-130264819D02*
X131389428Y-130407676D01*
X131389428Y-130407676D02*
X131484666Y-130502914D01*
X131484666Y-130502914D02*
X131579904Y-130550533D01*
X130151333Y-130598152D02*
X130151333Y-131264819D01*
X130389428Y-130217200D02*
X130627523Y-130931485D01*
X130627523Y-130931485D02*
X130008476Y-130931485D01*
X120850819Y-120991333D02*
X120374628Y-120658000D01*
X120850819Y-120419905D02*
X119850819Y-120419905D01*
X119850819Y-120419905D02*
X119850819Y-120800857D01*
X119850819Y-120800857D02*
X119898438Y-120896095D01*
X119898438Y-120896095D02*
X119946057Y-120943714D01*
X119946057Y-120943714D02*
X120041295Y-120991333D01*
X120041295Y-120991333D02*
X120184152Y-120991333D01*
X120184152Y-120991333D02*
X120279390Y-120943714D01*
X120279390Y-120943714D02*
X120327009Y-120896095D01*
X120327009Y-120896095D02*
X120374628Y-120800857D01*
X120374628Y-120800857D02*
X120374628Y-120419905D01*
X119850819Y-121896095D02*
X119850819Y-121419905D01*
X119850819Y-121419905D02*
X120327009Y-121372286D01*
X120327009Y-121372286D02*
X120279390Y-121419905D01*
X120279390Y-121419905D02*
X120231771Y-121515143D01*
X120231771Y-121515143D02*
X120231771Y-121753238D01*
X120231771Y-121753238D02*
X120279390Y-121848476D01*
X120279390Y-121848476D02*
X120327009Y-121896095D01*
X120327009Y-121896095D02*
X120422247Y-121943714D01*
X120422247Y-121943714D02*
X120660342Y-121943714D01*
X120660342Y-121943714D02*
X120755580Y-121896095D01*
X120755580Y-121896095D02*
X120803200Y-121848476D01*
X120803200Y-121848476D02*
X120850819Y-121753238D01*
X120850819Y-121753238D02*
X120850819Y-121515143D01*
X120850819Y-121515143D02*
X120803200Y-121419905D01*
X120803200Y-121419905D02*
X120755580Y-121372286D01*
X118244857Y-132847580D02*
X118292476Y-132895200D01*
X118292476Y-132895200D02*
X118435333Y-132942819D01*
X118435333Y-132942819D02*
X118530571Y-132942819D01*
X118530571Y-132942819D02*
X118673428Y-132895200D01*
X118673428Y-132895200D02*
X118768666Y-132799961D01*
X118768666Y-132799961D02*
X118816285Y-132704723D01*
X118816285Y-132704723D02*
X118863904Y-132514247D01*
X118863904Y-132514247D02*
X118863904Y-132371390D01*
X118863904Y-132371390D02*
X118816285Y-132180914D01*
X118816285Y-132180914D02*
X118768666Y-132085676D01*
X118768666Y-132085676D02*
X118673428Y-131990438D01*
X118673428Y-131990438D02*
X118530571Y-131942819D01*
X118530571Y-131942819D02*
X118435333Y-131942819D01*
X118435333Y-131942819D02*
X118292476Y-131990438D01*
X118292476Y-131990438D02*
X118244857Y-132038057D01*
X117292476Y-132942819D02*
X117863904Y-132942819D01*
X117578190Y-132942819D02*
X117578190Y-131942819D01*
X117578190Y-131942819D02*
X117673428Y-132085676D01*
X117673428Y-132085676D02*
X117768666Y-132180914D01*
X117768666Y-132180914D02*
X117863904Y-132228533D01*
X116673428Y-131942819D02*
X116578190Y-131942819D01*
X116578190Y-131942819D02*
X116482952Y-131990438D01*
X116482952Y-131990438D02*
X116435333Y-132038057D01*
X116435333Y-132038057D02*
X116387714Y-132133295D01*
X116387714Y-132133295D02*
X116340095Y-132323771D01*
X116340095Y-132323771D02*
X116340095Y-132561866D01*
X116340095Y-132561866D02*
X116387714Y-132752342D01*
X116387714Y-132752342D02*
X116435333Y-132847580D01*
X116435333Y-132847580D02*
X116482952Y-132895200D01*
X116482952Y-132895200D02*
X116578190Y-132942819D01*
X116578190Y-132942819D02*
X116673428Y-132942819D01*
X116673428Y-132942819D02*
X116768666Y-132895200D01*
X116768666Y-132895200D02*
X116816285Y-132847580D01*
X116816285Y-132847580D02*
X116863904Y-132752342D01*
X116863904Y-132752342D02*
X116911523Y-132561866D01*
X116911523Y-132561866D02*
X116911523Y-132323771D01*
X116911523Y-132323771D02*
X116863904Y-132133295D01*
X116863904Y-132133295D02*
X116816285Y-132038057D01*
X116816285Y-132038057D02*
X116768666Y-131990438D01*
X116768666Y-131990438D02*
X116673428Y-131942819D01*
X125261904Y-129404819D02*
X125261904Y-130214342D01*
X125261904Y-130214342D02*
X125214285Y-130309580D01*
X125214285Y-130309580D02*
X125166666Y-130357200D01*
X125166666Y-130357200D02*
X125071428Y-130404819D01*
X125071428Y-130404819D02*
X124880952Y-130404819D01*
X124880952Y-130404819D02*
X124785714Y-130357200D01*
X124785714Y-130357200D02*
X124738095Y-130309580D01*
X124738095Y-130309580D02*
X124690476Y-130214342D01*
X124690476Y-130214342D02*
X124690476Y-129404819D01*
X123785714Y-129738152D02*
X123785714Y-130404819D01*
X124023809Y-129357200D02*
X124261904Y-130071485D01*
X124261904Y-130071485D02*
X123642857Y-130071485D01*
X74302857Y-131269580D02*
X74350476Y-131317200D01*
X74350476Y-131317200D02*
X74493333Y-131364819D01*
X74493333Y-131364819D02*
X74588571Y-131364819D01*
X74588571Y-131364819D02*
X74731428Y-131317200D01*
X74731428Y-131317200D02*
X74826666Y-131221961D01*
X74826666Y-131221961D02*
X74874285Y-131126723D01*
X74874285Y-131126723D02*
X74921904Y-130936247D01*
X74921904Y-130936247D02*
X74921904Y-130793390D01*
X74921904Y-130793390D02*
X74874285Y-130602914D01*
X74874285Y-130602914D02*
X74826666Y-130507676D01*
X74826666Y-130507676D02*
X74731428Y-130412438D01*
X74731428Y-130412438D02*
X74588571Y-130364819D01*
X74588571Y-130364819D02*
X74493333Y-130364819D01*
X74493333Y-130364819D02*
X74350476Y-130412438D01*
X74350476Y-130412438D02*
X74302857Y-130460057D01*
X73350476Y-131364819D02*
X73921904Y-131364819D01*
X73636190Y-131364819D02*
X73636190Y-130364819D01*
X73636190Y-130364819D02*
X73731428Y-130507676D01*
X73731428Y-130507676D02*
X73826666Y-130602914D01*
X73826666Y-130602914D02*
X73921904Y-130650533D01*
X73017142Y-130364819D02*
X72398095Y-130364819D01*
X72398095Y-130364819D02*
X72731428Y-130745771D01*
X72731428Y-130745771D02*
X72588571Y-130745771D01*
X72588571Y-130745771D02*
X72493333Y-130793390D01*
X72493333Y-130793390D02*
X72445714Y-130841009D01*
X72445714Y-130841009D02*
X72398095Y-130936247D01*
X72398095Y-130936247D02*
X72398095Y-131174342D01*
X72398095Y-131174342D02*
X72445714Y-131269580D01*
X72445714Y-131269580D02*
X72493333Y-131317200D01*
X72493333Y-131317200D02*
X72588571Y-131364819D01*
X72588571Y-131364819D02*
X72874285Y-131364819D01*
X72874285Y-131364819D02*
X72969523Y-131317200D01*
X72969523Y-131317200D02*
X73017142Y-131269580D01*
X150223580Y-129373333D02*
X150271200Y-129325714D01*
X150271200Y-129325714D02*
X150318819Y-129182857D01*
X150318819Y-129182857D02*
X150318819Y-129087619D01*
X150318819Y-129087619D02*
X150271200Y-128944762D01*
X150271200Y-128944762D02*
X150175961Y-128849524D01*
X150175961Y-128849524D02*
X150080723Y-128801905D01*
X150080723Y-128801905D02*
X149890247Y-128754286D01*
X149890247Y-128754286D02*
X149747390Y-128754286D01*
X149747390Y-128754286D02*
X149556914Y-128801905D01*
X149556914Y-128801905D02*
X149461676Y-128849524D01*
X149461676Y-128849524D02*
X149366438Y-128944762D01*
X149366438Y-128944762D02*
X149318819Y-129087619D01*
X149318819Y-129087619D02*
X149318819Y-129182857D01*
X149318819Y-129182857D02*
X149366438Y-129325714D01*
X149366438Y-129325714D02*
X149414057Y-129373333D01*
X149318819Y-130278095D02*
X149318819Y-129801905D01*
X149318819Y-129801905D02*
X149795009Y-129754286D01*
X149795009Y-129754286D02*
X149747390Y-129801905D01*
X149747390Y-129801905D02*
X149699771Y-129897143D01*
X149699771Y-129897143D02*
X149699771Y-130135238D01*
X149699771Y-130135238D02*
X149747390Y-130230476D01*
X149747390Y-130230476D02*
X149795009Y-130278095D01*
X149795009Y-130278095D02*
X149890247Y-130325714D01*
X149890247Y-130325714D02*
X150128342Y-130325714D01*
X150128342Y-130325714D02*
X150223580Y-130278095D01*
X150223580Y-130278095D02*
X150271200Y-130230476D01*
X150271200Y-130230476D02*
X150318819Y-130135238D01*
X150318819Y-130135238D02*
X150318819Y-129897143D01*
X150318819Y-129897143D02*
X150271200Y-129801905D01*
X150271200Y-129801905D02*
X150223580Y-129754286D01*
X133484857Y-134566819D02*
X133818190Y-134090628D01*
X134056285Y-134566819D02*
X134056285Y-133566819D01*
X134056285Y-133566819D02*
X133675333Y-133566819D01*
X133675333Y-133566819D02*
X133580095Y-133614438D01*
X133580095Y-133614438D02*
X133532476Y-133662057D01*
X133532476Y-133662057D02*
X133484857Y-133757295D01*
X133484857Y-133757295D02*
X133484857Y-133900152D01*
X133484857Y-133900152D02*
X133532476Y-133995390D01*
X133532476Y-133995390D02*
X133580095Y-134043009D01*
X133580095Y-134043009D02*
X133675333Y-134090628D01*
X133675333Y-134090628D02*
X134056285Y-134090628D01*
X132532476Y-134566819D02*
X133103904Y-134566819D01*
X132818190Y-134566819D02*
X132818190Y-133566819D01*
X132818190Y-133566819D02*
X132913428Y-133709676D01*
X132913428Y-133709676D02*
X133008666Y-133804914D01*
X133008666Y-133804914D02*
X133103904Y-133852533D01*
X131961047Y-133995390D02*
X132056285Y-133947771D01*
X132056285Y-133947771D02*
X132103904Y-133900152D01*
X132103904Y-133900152D02*
X132151523Y-133804914D01*
X132151523Y-133804914D02*
X132151523Y-133757295D01*
X132151523Y-133757295D02*
X132103904Y-133662057D01*
X132103904Y-133662057D02*
X132056285Y-133614438D01*
X132056285Y-133614438D02*
X131961047Y-133566819D01*
X131961047Y-133566819D02*
X131770571Y-133566819D01*
X131770571Y-133566819D02*
X131675333Y-133614438D01*
X131675333Y-133614438D02*
X131627714Y-133662057D01*
X131627714Y-133662057D02*
X131580095Y-133757295D01*
X131580095Y-133757295D02*
X131580095Y-133804914D01*
X131580095Y-133804914D02*
X131627714Y-133900152D01*
X131627714Y-133900152D02*
X131675333Y-133947771D01*
X131675333Y-133947771D02*
X131770571Y-133995390D01*
X131770571Y-133995390D02*
X131961047Y-133995390D01*
X131961047Y-133995390D02*
X132056285Y-134043009D01*
X132056285Y-134043009D02*
X132103904Y-134090628D01*
X132103904Y-134090628D02*
X132151523Y-134185866D01*
X132151523Y-134185866D02*
X132151523Y-134376342D01*
X132151523Y-134376342D02*
X132103904Y-134471580D01*
X132103904Y-134471580D02*
X132056285Y-134519200D01*
X132056285Y-134519200D02*
X131961047Y-134566819D01*
X131961047Y-134566819D02*
X131770571Y-134566819D01*
X131770571Y-134566819D02*
X131675333Y-134519200D01*
X131675333Y-134519200D02*
X131627714Y-134471580D01*
X131627714Y-134471580D02*
X131580095Y-134376342D01*
X131580095Y-134376342D02*
X131580095Y-134185866D01*
X131580095Y-134185866D02*
X131627714Y-134090628D01*
X131627714Y-134090628D02*
X131675333Y-134043009D01*
X131675333Y-134043009D02*
X131770571Y-133995390D01*
X41856819Y-133437333D02*
X41380628Y-133104000D01*
X41856819Y-132865905D02*
X40856819Y-132865905D01*
X40856819Y-132865905D02*
X40856819Y-133246857D01*
X40856819Y-133246857D02*
X40904438Y-133342095D01*
X40904438Y-133342095D02*
X40952057Y-133389714D01*
X40952057Y-133389714D02*
X41047295Y-133437333D01*
X41047295Y-133437333D02*
X41190152Y-133437333D01*
X41190152Y-133437333D02*
X41285390Y-133389714D01*
X41285390Y-133389714D02*
X41333009Y-133342095D01*
X41333009Y-133342095D02*
X41380628Y-133246857D01*
X41380628Y-133246857D02*
X41380628Y-132865905D01*
X40856819Y-133770667D02*
X40856819Y-134389714D01*
X40856819Y-134389714D02*
X41237771Y-134056381D01*
X41237771Y-134056381D02*
X41237771Y-134199238D01*
X41237771Y-134199238D02*
X41285390Y-134294476D01*
X41285390Y-134294476D02*
X41333009Y-134342095D01*
X41333009Y-134342095D02*
X41428247Y-134389714D01*
X41428247Y-134389714D02*
X41666342Y-134389714D01*
X41666342Y-134389714D02*
X41761580Y-134342095D01*
X41761580Y-134342095D02*
X41809200Y-134294476D01*
X41809200Y-134294476D02*
X41856819Y-134199238D01*
X41856819Y-134199238D02*
X41856819Y-133913524D01*
X41856819Y-133913524D02*
X41809200Y-133818286D01*
X41809200Y-133818286D02*
X41761580Y-133770667D01*
X128121580Y-123531333D02*
X128169200Y-123483714D01*
X128169200Y-123483714D02*
X128216819Y-123340857D01*
X128216819Y-123340857D02*
X128216819Y-123245619D01*
X128216819Y-123245619D02*
X128169200Y-123102762D01*
X128169200Y-123102762D02*
X128073961Y-123007524D01*
X128073961Y-123007524D02*
X127978723Y-122959905D01*
X127978723Y-122959905D02*
X127788247Y-122912286D01*
X127788247Y-122912286D02*
X127645390Y-122912286D01*
X127645390Y-122912286D02*
X127454914Y-122959905D01*
X127454914Y-122959905D02*
X127359676Y-123007524D01*
X127359676Y-123007524D02*
X127264438Y-123102762D01*
X127264438Y-123102762D02*
X127216819Y-123245619D01*
X127216819Y-123245619D02*
X127216819Y-123340857D01*
X127216819Y-123340857D02*
X127264438Y-123483714D01*
X127264438Y-123483714D02*
X127312057Y-123531333D01*
X127312057Y-123912286D02*
X127264438Y-123959905D01*
X127264438Y-123959905D02*
X127216819Y-124055143D01*
X127216819Y-124055143D02*
X127216819Y-124293238D01*
X127216819Y-124293238D02*
X127264438Y-124388476D01*
X127264438Y-124388476D02*
X127312057Y-124436095D01*
X127312057Y-124436095D02*
X127407295Y-124483714D01*
X127407295Y-124483714D02*
X127502533Y-124483714D01*
X127502533Y-124483714D02*
X127645390Y-124436095D01*
X127645390Y-124436095D02*
X128216819Y-123864667D01*
X128216819Y-123864667D02*
X128216819Y-124483714D01*
X121612819Y-140327142D02*
X121136628Y-139993809D01*
X121612819Y-139755714D02*
X120612819Y-139755714D01*
X120612819Y-139755714D02*
X120612819Y-140136666D01*
X120612819Y-140136666D02*
X120660438Y-140231904D01*
X120660438Y-140231904D02*
X120708057Y-140279523D01*
X120708057Y-140279523D02*
X120803295Y-140327142D01*
X120803295Y-140327142D02*
X120946152Y-140327142D01*
X120946152Y-140327142D02*
X121041390Y-140279523D01*
X121041390Y-140279523D02*
X121089009Y-140231904D01*
X121089009Y-140231904D02*
X121136628Y-140136666D01*
X121136628Y-140136666D02*
X121136628Y-139755714D01*
X121612819Y-141279523D02*
X121612819Y-140708095D01*
X121612819Y-140993809D02*
X120612819Y-140993809D01*
X120612819Y-140993809D02*
X120755676Y-140898571D01*
X120755676Y-140898571D02*
X120850914Y-140803333D01*
X120850914Y-140803333D02*
X120898533Y-140708095D01*
X120612819Y-141898571D02*
X120612819Y-141993809D01*
X120612819Y-141993809D02*
X120660438Y-142089047D01*
X120660438Y-142089047D02*
X120708057Y-142136666D01*
X120708057Y-142136666D02*
X120803295Y-142184285D01*
X120803295Y-142184285D02*
X120993771Y-142231904D01*
X120993771Y-142231904D02*
X121231866Y-142231904D01*
X121231866Y-142231904D02*
X121422342Y-142184285D01*
X121422342Y-142184285D02*
X121517580Y-142136666D01*
X121517580Y-142136666D02*
X121565200Y-142089047D01*
X121565200Y-142089047D02*
X121612819Y-141993809D01*
X121612819Y-141993809D02*
X121612819Y-141898571D01*
X121612819Y-141898571D02*
X121565200Y-141803333D01*
X121565200Y-141803333D02*
X121517580Y-141755714D01*
X121517580Y-141755714D02*
X121422342Y-141708095D01*
X121422342Y-141708095D02*
X121231866Y-141660476D01*
X121231866Y-141660476D02*
X120993771Y-141660476D01*
X120993771Y-141660476D02*
X120803295Y-141708095D01*
X120803295Y-141708095D02*
X120708057Y-141755714D01*
X120708057Y-141755714D02*
X120660438Y-141803333D01*
X120660438Y-141803333D02*
X120612819Y-141898571D01*
D10*
%TO.C,R15*%
X131080742Y-132065500D02*
X131555258Y-132065500D01*
X131080742Y-133110500D02*
X131555258Y-133110500D01*
%TO.C,R2*%
X52563500Y-121428742D02*
X52563500Y-121903258D01*
X53608500Y-121428742D02*
X53608500Y-121903258D01*
%TO.C,R14*%
X69835500Y-138250258D02*
X69835500Y-137775742D01*
X70880500Y-138250258D02*
X70880500Y-137775742D01*
%TO.C,U3*%
X135298000Y-121790000D02*
X139058000Y-121790000D01*
X135298000Y-123050000D02*
X135298000Y-121790000D01*
X135298000Y-127350000D02*
X135298000Y-128610000D01*
X135298000Y-128610000D02*
X139058000Y-128610000D01*
X140338000Y-121890000D02*
X140098000Y-121560000D01*
X140578000Y-121560000D01*
X140338000Y-121890000D01*
G36*
X140338000Y-121890000D02*
G01*
X140098000Y-121560000D01*
X140578000Y-121560000D01*
X140338000Y-121890000D01*
G37*
%TO.C,C4*%
X141984000Y-128410580D02*
X141984000Y-128129420D01*
X143004000Y-128410580D02*
X143004000Y-128129420D01*
%TO.C,R9*%
X119426258Y-135013500D02*
X118951742Y-135013500D01*
X119426258Y-136058500D02*
X118951742Y-136058500D01*
%TO.C,C3*%
X108485000Y-126499252D02*
X108485000Y-125976748D01*
X109955000Y-126499252D02*
X109955000Y-125976748D01*
%TO.C,R1*%
X40879500Y-124730742D02*
X40879500Y-125205258D01*
X41924500Y-124730742D02*
X41924500Y-125205258D01*
%TO.C,C1*%
X119886000Y-128410580D02*
X119886000Y-128129420D01*
X120906000Y-128410580D02*
X120906000Y-128129420D01*
%TO.C,R4*%
X52563500Y-130793258D02*
X52563500Y-130318742D01*
X53608500Y-130793258D02*
X53608500Y-130318742D01*
%TO.C,R16*%
X130031258Y-135113500D02*
X129556742Y-135113500D01*
X130031258Y-136158500D02*
X129556742Y-136158500D01*
%TO.C,C8*%
X130837000Y-126499252D02*
X130837000Y-125976748D01*
X132307000Y-126499252D02*
X132307000Y-125976748D01*
%TO.C,R8*%
X63231500Y-137968258D02*
X63231500Y-137493742D01*
X64276500Y-137968258D02*
X64276500Y-137493742D01*
%TO.C,U1*%
X113152000Y-121790000D02*
X116912000Y-121790000D01*
X113152000Y-123050000D02*
X113152000Y-121790000D01*
X113152000Y-127350000D02*
X113152000Y-128610000D01*
X113152000Y-128610000D02*
X116912000Y-128610000D01*
X118192000Y-121890000D02*
X117952000Y-121560000D01*
X118432000Y-121560000D01*
X118192000Y-121890000D01*
G36*
X118192000Y-121890000D02*
G01*
X117952000Y-121560000D01*
X118432000Y-121560000D01*
X118192000Y-121890000D01*
G37*
%TO.C,J6*%
X93770000Y-127830000D02*
X92440000Y-127830000D01*
X93770000Y-126500000D02*
X93770000Y-127830000D01*
X93770000Y-125230000D02*
X91170000Y-125230000D01*
X93770000Y-122630000D02*
X93770000Y-125230000D01*
X91170000Y-125230000D02*
X91170000Y-127830000D01*
X80950000Y-127830000D02*
X91170000Y-127830000D01*
X80950000Y-122630000D02*
X93770000Y-122630000D01*
X80950000Y-122630000D02*
X80950000Y-127830000D01*
%TO.C,C7*%
X72008420Y-134972000D02*
X72289580Y-134972000D01*
X72008420Y-135992000D02*
X72289580Y-135992000D01*
%TO.C,R11*%
X61230742Y-135113500D02*
X61705258Y-135113500D01*
X61230742Y-136158500D02*
X61705258Y-136158500D01*
%TO.C,U2*%
X64852000Y-130790000D02*
X66802000Y-130790000D01*
X64852000Y-135910000D02*
X66802000Y-135910000D01*
X68752000Y-130790000D02*
X66802000Y-130790000D01*
X68752000Y-135910000D02*
X66802000Y-135910000D01*
X69502000Y-130885000D02*
X69262000Y-130555000D01*
X69742000Y-130555000D01*
X69502000Y-130885000D01*
G36*
X69502000Y-130885000D02*
G01*
X69262000Y-130555000D01*
X69742000Y-130555000D01*
X69502000Y-130885000D01*
G37*
%TO.C,C12*%
X127252000Y-137781420D02*
X127252000Y-138062580D01*
X128272000Y-137781420D02*
X128272000Y-138062580D01*
%TO.C,C9*%
X61720000Y-133209420D02*
X61720000Y-133490580D01*
X62740000Y-133209420D02*
X62740000Y-133490580D01*
%TO.C,R13*%
X73359742Y-131811500D02*
X73834258Y-131811500D01*
X73359742Y-132856500D02*
X73834258Y-132856500D01*
%TO.C,R6*%
X141975500Y-123460742D02*
X141975500Y-123935258D01*
X143020500Y-123460742D02*
X143020500Y-123935258D01*
%TO.C,C6*%
X61314420Y-130554000D02*
X61595580Y-130554000D01*
X61314420Y-131574000D02*
X61595580Y-131574000D01*
%TO.C,R7*%
X60118258Y-133589500D02*
X59643742Y-133589500D01*
X60118258Y-134634500D02*
X59643742Y-134634500D01*
%TO.C,C11*%
X118972420Y-130454000D02*
X119253580Y-130454000D01*
X118972420Y-131474000D02*
X119253580Y-131474000D01*
%TO.C,R12*%
X119111500Y-138413258D02*
X119111500Y-137938742D01*
X120156500Y-138413258D02*
X120156500Y-137938742D01*
%TO.C,R17*%
X72436258Y-133435500D02*
X71961742Y-133435500D01*
X72436258Y-134480500D02*
X71961742Y-134480500D01*
%TO.C,C14*%
X128522000Y-131685420D02*
X128522000Y-131966580D01*
X129542000Y-131685420D02*
X129542000Y-131966580D01*
%TO.C,R5*%
X119873500Y-123460742D02*
X119873500Y-123935258D01*
X120918500Y-123460742D02*
X120918500Y-123935258D01*
%TO.C,C10*%
X119378000Y-133096420D02*
X119378000Y-133377580D01*
X120398000Y-133096420D02*
X120398000Y-133377580D01*
%TO.C,U4*%
X122550000Y-130790000D02*
X124500000Y-130790000D01*
X122550000Y-135910000D02*
X124500000Y-135910000D01*
X126450000Y-130790000D02*
X124500000Y-130790000D01*
X126450000Y-135910000D02*
X124500000Y-135910000D01*
X127200000Y-130885000D02*
X126960000Y-130555000D01*
X127440000Y-130555000D01*
X127200000Y-130885000D01*
G36*
X127200000Y-130885000D02*
G01*
X126960000Y-130555000D01*
X127440000Y-130555000D01*
X127200000Y-130885000D01*
G37*
%TO.C,C13*%
X70864000Y-131531420D02*
X70864000Y-131812580D01*
X71884000Y-131531420D02*
X71884000Y-131812580D01*
%TO.C,C5*%
X149153000Y-126753252D02*
X149153000Y-126230748D01*
X150623000Y-126753252D02*
X150623000Y-126230748D01*
%TO.C,R18*%
X130031258Y-133589500D02*
X129556742Y-133589500D01*
X130031258Y-134634500D02*
X129556742Y-134634500D01*
%TO.C,R3*%
X40879500Y-130793258D02*
X40879500Y-130318742D01*
X41924500Y-130793258D02*
X41924500Y-130318742D01*
%TO.C,C2*%
X127027000Y-126774752D02*
X127027000Y-126252248D01*
X128497000Y-126774752D02*
X128497000Y-126252248D01*
%TO.C,R10*%
X120635500Y-138413258D02*
X120635500Y-137938742D01*
X121680500Y-138413258D02*
X121680500Y-137938742D01*
%TD*%
M02*
