%TF.GenerationSoftware,KiCad,Pcbnew,8.0.8*%
%TF.CreationDate,2025-07-21T08:19:39-07:00*%
%TF.ProjectId,sub,7375622e-6b69-4636-9164-5f7063625858,3.2*%
%TF.SameCoordinates,Original*%
%TF.FileFunction,Copper,L2,Bot*%
%TF.FilePolarity,Positive*%
%FSLAX46Y46*%
G04 Gerber Fmt 4.6, Leading zero omitted, Abs format (unit mm)*
G04 Created by KiCad (PCBNEW 8.0.8) date 2025-07-21 08:19:39*
%MOMM*%
%LPD*%
G01*
G04 APERTURE LIST*
G04 Aperture macros list*
%AMRoundRect*
0 Rectangle with rounded corners*
0 $1 Rounding radius*
0 $2 $3 $4 $5 $6 $7 $8 $9 X,Y pos of 4 corners*
0 Add a 4 corners polygon primitive as box body*
4,1,4,$2,$3,$4,$5,$6,$7,$8,$9,$2,$3,0*
0 Add four circle primitives for the rounded corners*
1,1,$1+$1,$2,$3*
1,1,$1+$1,$4,$5*
1,1,$1+$1,$6,$7*
1,1,$1+$1,$8,$9*
0 Add four rect primitives between the rounded corners*
20,1,$1+$1,$2,$3,$4,$5,0*
20,1,$1+$1,$4,$5,$6,$7,0*
20,1,$1+$1,$6,$7,$8,$9,0*
20,1,$1+$1,$8,$9,$2,$3,0*%
G04 Aperture macros list end*
%TA.AperFunction,ComponentPad*%
%ADD10O,1.200000X2.200000*%
%TD*%
%TA.AperFunction,ComponentPad*%
%ADD11RoundRect,0.300000X-0.300000X0.700000X-0.300000X-0.700000X0.300000X-0.700000X0.300000X0.700000X0*%
%TD*%
%TA.AperFunction,ComponentPad*%
%ADD12R,1.000000X1.100000*%
%TD*%
%TA.AperFunction,ComponentPad*%
%ADD13R,2.500000X1.500000*%
%TD*%
%TA.AperFunction,ComponentPad*%
%ADD14O,2.500000X1.500000*%
%TD*%
%TA.AperFunction,ComponentPad*%
%ADD15R,1.700000X1.700000*%
%TD*%
%TA.AperFunction,ComponentPad*%
%ADD16O,1.700000X1.700000*%
%TD*%
%TA.AperFunction,ComponentPad*%
%ADD17R,1.800000X1.800000*%
%TD*%
%TA.AperFunction,ComponentPad*%
%ADD18C,1.800000*%
%TD*%
%TA.AperFunction,ComponentPad*%
%ADD19C,1.440000*%
%TD*%
%TA.AperFunction,ComponentPad*%
%ADD20RoundRect,0.300000X0.300000X-0.700000X0.300000X0.700000X-0.300000X0.700000X-0.300000X-0.700000X0*%
%TD*%
%TA.AperFunction,ComponentPad*%
%ADD21O,3.000000X2.000000*%
%TD*%
%TA.AperFunction,ComponentPad*%
%ADD22C,3.500000*%
%TD*%
%TA.AperFunction,SMDPad,CuDef*%
%ADD23RoundRect,0.200000X0.200000X0.275000X-0.200000X0.275000X-0.200000X-0.275000X0.200000X-0.275000X0*%
%TD*%
%TA.AperFunction,SMDPad,CuDef*%
%ADD24RoundRect,0.200000X0.275000X-0.200000X0.275000X0.200000X-0.275000X0.200000X-0.275000X-0.200000X0*%
%TD*%
%TA.AperFunction,SMDPad,CuDef*%
%ADD25RoundRect,0.250000X-0.475000X0.337500X-0.475000X-0.337500X0.475000X-0.337500X0.475000X0.337500X0*%
%TD*%
%TA.AperFunction,SMDPad,CuDef*%
%ADD26RoundRect,0.200000X-0.275000X0.200000X-0.275000X-0.200000X0.275000X-0.200000X0.275000X0.200000X0*%
%TD*%
%TA.AperFunction,SMDPad,CuDef*%
%ADD27RoundRect,0.375000X0.625000X0.375000X-0.625000X0.375000X-0.625000X-0.375000X0.625000X-0.375000X0*%
%TD*%
%TA.AperFunction,SMDPad,CuDef*%
%ADD28RoundRect,0.500000X0.500000X1.400000X-0.500000X1.400000X-0.500000X-1.400000X0.500000X-1.400000X0*%
%TD*%
%TA.AperFunction,SMDPad,CuDef*%
%ADD29RoundRect,0.225000X-0.250000X0.225000X-0.250000X-0.225000X0.250000X-0.225000X0.250000X0.225000X0*%
%TD*%
%TA.AperFunction,SMDPad,CuDef*%
%ADD30RoundRect,0.200000X-0.200000X-0.275000X0.200000X-0.275000X0.200000X0.275000X-0.200000X0.275000X0*%
%TD*%
%TA.AperFunction,SMDPad,CuDef*%
%ADD31RoundRect,0.112500X-0.187500X-0.112500X0.187500X-0.112500X0.187500X0.112500X-0.187500X0.112500X0*%
%TD*%
%TA.AperFunction,SMDPad,CuDef*%
%ADD32RoundRect,0.225000X0.225000X0.250000X-0.225000X0.250000X-0.225000X-0.250000X0.225000X-0.250000X0*%
%TD*%
%TA.AperFunction,SMDPad,CuDef*%
%ADD33RoundRect,0.150000X0.825000X0.150000X-0.825000X0.150000X-0.825000X-0.150000X0.825000X-0.150000X0*%
%TD*%
%TA.AperFunction,SMDPad,CuDef*%
%ADD34RoundRect,0.225000X0.250000X-0.225000X0.250000X0.225000X-0.250000X0.225000X-0.250000X-0.225000X0*%
%TD*%
%TA.AperFunction,SMDPad,CuDef*%
%ADD35RoundRect,0.112500X0.187500X0.112500X-0.187500X0.112500X-0.187500X-0.112500X0.187500X-0.112500X0*%
%TD*%
%TA.AperFunction,ViaPad*%
%ADD36C,0.400000*%
%TD*%
%TA.AperFunction,ViaPad*%
%ADD37C,0.600000*%
%TD*%
%TA.AperFunction,ViaPad*%
%ADD38C,0.800000*%
%TD*%
%TA.AperFunction,Conductor*%
%ADD39C,0.200000*%
%TD*%
%TA.AperFunction,Conductor*%
%ADD40C,0.600000*%
%TD*%
%TA.AperFunction,Conductor*%
%ADD41C,0.400000*%
%TD*%
G04 APERTURE END LIST*
D10*
%TO.P,J1,S*%
%TO.N,GND*%
X45920000Y-140750000D03*
D11*
%TO.P,J1,T*%
%TO.N,Tip1*%
X57320000Y-140750000D03*
%TO.P,J1,TN*%
%TO.N,SW1*%
X49020000Y-140750000D03*
%TD*%
D12*
%TO.P,SW2,*%
%TO.N,*%
X67000000Y-137650000D03*
X67000000Y-146350000D03*
D13*
%TO.P,SW2,1,A*%
%TO.N,Tip1*%
X67000000Y-140000000D03*
D14*
%TO.P,SW2,2,B*%
%TO.N,Tip2*%
X67000000Y-142000000D03*
%TO.P,SW2,3,C*%
%TO.N,unconnected-(SW2-C-Pad3)*%
X67000000Y-144000000D03*
%TD*%
D15*
%TO.P,J5,1,Pin_1*%
%TO.N,-12V*%
X92440000Y-133740000D03*
D16*
%TO.P,J5,2,Pin_2*%
%TO.N,+12V*%
X92440000Y-131200000D03*
%TO.P,J5,3,Pin_3*%
%TO.N,Tip1*%
X94980000Y-133740000D03*
%TO.P,J5,4,Pin_4*%
%TO.N,SW1*%
X94980000Y-131200000D03*
%TO.P,J5,5,Pin_5*%
%TO.N,Tip2*%
X97520000Y-133740000D03*
%TO.P,J5,6,Pin_6*%
%TO.N,SW2*%
X97520000Y-131200000D03*
%TO.P,J5,7,Pin_7*%
%TO.N,Tip3*%
X100060000Y-133740000D03*
%TO.P,J5,8,Pin_8*%
%TO.N,SW3*%
X100060000Y-131200000D03*
%TO.P,J5,9,Pin_9*%
%TO.N,Tip4*%
X102600000Y-133740000D03*
%TO.P,J5,10,Pin_10*%
%TO.N,SW4*%
X102600000Y-131200000D03*
%TO.P,J5,11,Pin_11*%
%TO.N,A Rail*%
X105140000Y-133740000D03*
%TO.P,J5,12,Pin_12*%
%TO.N,B Rail*%
X105140000Y-131200000D03*
%TD*%
D17*
%TO.P,D1,1,KA*%
%TO.N,Net-(D1-KA)*%
X51130000Y-147450000D03*
D18*
%TO.P,D1,2,AK*%
%TO.N,Net-(D1-AK)*%
X53670000Y-147450000D03*
%TD*%
D19*
%TO.P,RV2,1,1*%
%TO.N,GND*%
X146078000Y-128000000D03*
%TO.P,RV2,2,2*%
%TO.N,Net-(U3-ADJ)*%
X146078000Y-125460000D03*
%TO.P,RV2,3,3*%
X146078000Y-122920000D03*
%TD*%
D17*
%TO.P,D12,1,K*%
%TO.N,-12V*%
X48550000Y-129650000D03*
D18*
%TO.P,D12,2,A*%
%TO.N,Net-(D12-A)*%
X51090000Y-129650000D03*
%TD*%
D17*
%TO.P,D10,1,K*%
%TO.N,Net-(D10-K)*%
X48525000Y-124000000D03*
D18*
%TO.P,D10,2,A*%
%TO.N,B Rail*%
X51065000Y-124000000D03*
%TD*%
D17*
%TO.P,D11,1,K*%
%TO.N,Net-(D11-K)*%
X43465000Y-129650000D03*
D18*
%TO.P,D11,2,A*%
%TO.N,+12V*%
X46005000Y-129650000D03*
%TD*%
D10*
%TO.P,J3,S*%
%TO.N,GND*%
X117180000Y-140750000D03*
D20*
%TO.P,J3,T*%
%TO.N,Tip3*%
X105780000Y-140750000D03*
%TO.P,J3,TN*%
%TO.N,SW3*%
X114080000Y-140750000D03*
%TD*%
D10*
%TO.P,J2,S*%
%TO.N,GND*%
X74220000Y-140750000D03*
D11*
%TO.P,J2,T*%
%TO.N,Tip2*%
X85620000Y-140750000D03*
%TO.P,J2,TN*%
%TO.N,SW2*%
X77320000Y-140750000D03*
%TD*%
D12*
%TO.P,SW3,*%
%TO.N,*%
X124400000Y-137650000D03*
X124400000Y-146350000D03*
D13*
%TO.P,SW3,1,A*%
%TO.N,Tip3*%
X124400000Y-140000000D03*
D14*
%TO.P,SW3,2,B*%
%TO.N,Tip4*%
X124400000Y-142000000D03*
%TO.P,SW3,3,C*%
%TO.N,unconnected-(SW3-C-Pad3)*%
X124400000Y-144000000D03*
%TD*%
D10*
%TO.P,J4,S*%
%TO.N,GND*%
X145480000Y-140750000D03*
D20*
%TO.P,J4,T*%
%TO.N,Tip4*%
X134080000Y-140750000D03*
%TO.P,J4,TN*%
%TO.N,SW4*%
X142380000Y-140750000D03*
%TD*%
D19*
%TO.P,RV1,1,1*%
%TO.N,GND*%
X123928000Y-128000000D03*
%TO.P,RV1,2,2*%
%TO.N,Net-(U1-ADJ)*%
X123928000Y-125460000D03*
%TO.P,RV1,3,3*%
X123928000Y-122920000D03*
%TD*%
D12*
%TO.P,SW1,*%
%TO.N,*%
X95700000Y-137650000D03*
X95700000Y-146350000D03*
D13*
%TO.P,SW1,1,A*%
%TO.N,Tip2*%
X95700000Y-140000000D03*
D14*
%TO.P,SW1,2,B*%
%TO.N,Tip3*%
X95700000Y-142000000D03*
%TO.P,SW1,3,C*%
%TO.N,unconnected-(SW1-C-Pad3)*%
X95700000Y-144000000D03*
%TD*%
D17*
%TO.P,D9,1,K*%
%TO.N,Net-(D9-K)*%
X43420000Y-124000000D03*
D18*
%TO.P,D9,2,A*%
%TO.N,A Rail*%
X45960000Y-124000000D03*
%TD*%
D17*
%TO.P,D7,1,KA*%
%TO.N,Net-(D7-KA)*%
X137730000Y-147450000D03*
D18*
%TO.P,D7,2,AK*%
%TO.N,Net-(D7-AK)*%
X140270000Y-147450000D03*
%TD*%
D21*
%TO.P,SW4,1,A*%
%TO.N,unconnected-(SW4A-A-Pad1)*%
X59750000Y-124750000D03*
%TO.P,SW4,2,B*%
%TO.N,Net-(D4-K)*%
X63750000Y-124750000D03*
%TO.P,SW4,3,C*%
%TO.N,Net-(J6-Pin_1)*%
X67750000Y-124750000D03*
%TO.P,SW4,4,A*%
%TO.N,unconnected-(SW4B-A-Pad4)*%
X59750000Y-127250000D03*
%TO.P,SW4,5,B*%
%TO.N,Net-(D2-A)*%
X63750000Y-127250000D03*
%TO.P,SW4,6,C*%
%TO.N,Net-(J6-Pin_10)*%
X67750000Y-127250000D03*
D22*
%TO.P,SW4,7*%
%TO.N,N/C*%
X55500000Y-126000000D03*
%TO.P,SW4,8*%
X72000000Y-126000000D03*
%TD*%
D17*
%TO.P,D3,1,KA*%
%TO.N,Net-(D3-KA)*%
X79430000Y-147450000D03*
D18*
%TO.P,D3,2,AK*%
%TO.N,Net-(D3-AK)*%
X81970000Y-147450000D03*
%TD*%
D17*
%TO.P,D5,1,KA*%
%TO.N,Net-(D5-KA)*%
X109430000Y-147450000D03*
D18*
%TO.P,D5,2,AK*%
%TO.N,Net-(D5-AK)*%
X111970000Y-147450000D03*
%TD*%
D23*
%TO.P,R15,1*%
%TO.N,GND*%
X132143000Y-132588000D03*
%TO.P,R15,2*%
%TO.N,Net-(D7-KA)*%
X130493000Y-132588000D03*
%TD*%
D24*
%TO.P,R2,1*%
%TO.N,Net-(D10-K)*%
X53086000Y-122491000D03*
%TO.P,R2,2*%
%TO.N,GND*%
X53086000Y-120841000D03*
%TD*%
D25*
%TO.P,C15,1*%
%TO.N,-12V*%
X89210000Y-134112500D03*
%TO.P,C15,2*%
%TO.N,GND*%
X89210000Y-136187500D03*
%TD*%
D26*
%TO.P,R14,1*%
%TO.N,Net-(U2A-+)*%
X70358000Y-137188000D03*
%TO.P,R14,2*%
%TO.N,Tip2*%
X70358000Y-138838000D03*
%TD*%
D27*
%TO.P,U3,1,ADJ*%
%TO.N,Net-(U3-ADJ)*%
X140358000Y-122900000D03*
%TO.P,U3,2,VO*%
%TO.N,B Rail*%
X140358000Y-125200000D03*
D28*
X134058000Y-125200000D03*
D27*
%TO.P,U3,3,VI*%
%TO.N,+12V*%
X140358000Y-127500000D03*
%TD*%
D29*
%TO.P,C4,1*%
%TO.N,+12V*%
X142494000Y-127495000D03*
%TO.P,C4,2*%
%TO.N,GND*%
X142494000Y-129045000D03*
%TD*%
D30*
%TO.P,R9,1*%
%TO.N,GND*%
X118364000Y-135536000D03*
%TO.P,R9,2*%
%TO.N,Net-(D5-KA)*%
X120014000Y-135536000D03*
%TD*%
D25*
%TO.P,C3,1*%
%TO.N,A Rail*%
X109220000Y-125200500D03*
%TO.P,C3,2*%
%TO.N,GND*%
X109220000Y-127275500D03*
%TD*%
D31*
%TO.P,D4,1,K*%
%TO.N,Net-(D4-K)*%
X63742500Y-122550000D03*
%TO.P,D4,2,A*%
%TO.N,-12V*%
X65842500Y-122550000D03*
%TD*%
D24*
%TO.P,R1,1*%
%TO.N,GND*%
X41402000Y-125793000D03*
%TO.P,R1,2*%
%TO.N,Net-(D9-K)*%
X41402000Y-124143000D03*
%TD*%
D29*
%TO.P,C1,1*%
%TO.N,+12V*%
X120396000Y-127495000D03*
%TO.P,C1,2*%
%TO.N,GND*%
X120396000Y-129045000D03*
%TD*%
D26*
%TO.P,R4,1*%
%TO.N,Net-(D12-A)*%
X53086000Y-129731000D03*
%TO.P,R4,2*%
%TO.N,GND*%
X53086000Y-131381000D03*
%TD*%
D25*
%TO.P,C16,1*%
%TO.N,GND*%
X103180000Y-125742500D03*
%TO.P,C16,2*%
%TO.N,+12V*%
X103180000Y-127817500D03*
%TD*%
D30*
%TO.P,R16,1*%
%TO.N,Net-(U4A-+)*%
X128969000Y-135636000D03*
%TO.P,R16,2*%
%TO.N,Tip4*%
X130619000Y-135636000D03*
%TD*%
D25*
%TO.P,C8,1*%
%TO.N,B Rail*%
X131572000Y-125200500D03*
%TO.P,C8,2*%
%TO.N,GND*%
X131572000Y-127275500D03*
%TD*%
D26*
%TO.P,R8,1*%
%TO.N,Net-(U2B-+)*%
X63754000Y-136906000D03*
%TO.P,R8,2*%
%TO.N,Tip1*%
X63754000Y-138556000D03*
%TD*%
D27*
%TO.P,U1,1,ADJ*%
%TO.N,Net-(U1-ADJ)*%
X118212000Y-122900000D03*
%TO.P,U1,2,VO*%
%TO.N,A Rail*%
X118212000Y-125200000D03*
D28*
X111912000Y-125200000D03*
D27*
%TO.P,U1,3,VI*%
%TO.N,+12V*%
X118212000Y-127500000D03*
%TD*%
D15*
%TO.P,J6,1,Pin_1*%
%TO.N,Net-(J6-Pin_1)*%
X92440000Y-126500000D03*
D16*
%TO.P,J6,2,Pin_2*%
X92440000Y-123960000D03*
%TO.P,J6,3,Pin_3*%
%TO.N,GND*%
X89900000Y-126500000D03*
%TO.P,J6,4,Pin_4*%
X89900000Y-123960000D03*
%TO.P,J6,5,Pin_5*%
X87360000Y-126500000D03*
%TO.P,J6,6,Pin_6*%
X87360000Y-123960000D03*
%TO.P,J6,7,Pin_7*%
X84820000Y-126500000D03*
%TO.P,J6,8,Pin_8*%
X84820000Y-123960000D03*
%TO.P,J6,9,Pin_9*%
%TO.N,Net-(J6-Pin_10)*%
X82280000Y-126500000D03*
%TO.P,J6,10,Pin_10*%
X82280000Y-123960000D03*
%TD*%
D32*
%TO.P,C7,1*%
%TO.N,GND*%
X72924000Y-135482000D03*
%TO.P,C7,2*%
%TO.N,-12V*%
X71374000Y-135482000D03*
%TD*%
D23*
%TO.P,R11,1*%
%TO.N,Net-(U2B-+)*%
X62293000Y-135636000D03*
%TO.P,R11,2*%
%TO.N,GND*%
X60643000Y-135636000D03*
%TD*%
D33*
%TO.P,U2,1*%
%TO.N,Net-(D3-AK)*%
X69277000Y-131445000D03*
%TO.P,U2,2,-*%
%TO.N,Net-(D3-KA)*%
X69277000Y-132715000D03*
%TO.P,U2,3,+*%
%TO.N,Net-(U2A-+)*%
X69277000Y-133985000D03*
%TO.P,U2,4,V-*%
%TO.N,-12V*%
X69277000Y-135255000D03*
%TO.P,U2,5,+*%
%TO.N,Net-(U2B-+)*%
X64327000Y-135255000D03*
%TO.P,U2,6,-*%
%TO.N,Net-(D1-KA)*%
X64327000Y-133985000D03*
%TO.P,U2,7*%
%TO.N,Net-(D1-AK)*%
X64327000Y-132715000D03*
%TO.P,U2,8,V+*%
%TO.N,+12V*%
X64327000Y-131445000D03*
%TD*%
D34*
%TO.P,C12,1*%
%TO.N,GND*%
X127762000Y-138697000D03*
%TO.P,C12,2*%
%TO.N,-12V*%
X127762000Y-137147000D03*
%TD*%
%TO.P,C9,1*%
%TO.N,Net-(D1-KA)*%
X62230000Y-134125000D03*
%TO.P,C9,2*%
%TO.N,Net-(D1-AK)*%
X62230000Y-132575000D03*
%TD*%
D23*
%TO.P,R13,1*%
%TO.N,GND*%
X74422000Y-132334000D03*
%TO.P,R13,2*%
%TO.N,Net-(D3-KA)*%
X72772000Y-132334000D03*
%TD*%
D35*
%TO.P,D2,1,K*%
%TO.N,+12V*%
X65857500Y-129540000D03*
%TO.P,D2,2,A*%
%TO.N,Net-(D2-A)*%
X63757500Y-129540000D03*
%TD*%
D24*
%TO.P,R6,1*%
%TO.N,B Rail*%
X142498000Y-124523000D03*
%TO.P,R6,2*%
%TO.N,Net-(U3-ADJ)*%
X142498000Y-122873000D03*
%TD*%
D32*
%TO.P,C6,1*%
%TO.N,+12V*%
X62230000Y-131064000D03*
%TO.P,C6,2*%
%TO.N,GND*%
X60680000Y-131064000D03*
%TD*%
D30*
%TO.P,R7,1*%
%TO.N,GND*%
X59056000Y-134112000D03*
%TO.P,R7,2*%
%TO.N,Net-(D1-KA)*%
X60706000Y-134112000D03*
%TD*%
D32*
%TO.P,C11,1*%
%TO.N,+12V*%
X119888000Y-130964000D03*
%TO.P,C11,2*%
%TO.N,GND*%
X118338000Y-130964000D03*
%TD*%
D26*
%TO.P,R12,1*%
%TO.N,Net-(U4B-+)*%
X119634000Y-137351000D03*
%TO.P,R12,2*%
%TO.N,GND*%
X119634000Y-139001000D03*
%TD*%
D30*
%TO.P,R17,1*%
%TO.N,Net-(U2A-+)*%
X71374000Y-133958000D03*
%TO.P,R17,2*%
%TO.N,GND*%
X73024000Y-133958000D03*
%TD*%
D34*
%TO.P,C14,1*%
%TO.N,Net-(D7-KA)*%
X129032000Y-132601000D03*
%TO.P,C14,2*%
%TO.N,Net-(D7-AK)*%
X129032000Y-131051000D03*
%TD*%
D24*
%TO.P,R5,1*%
%TO.N,A Rail*%
X120396000Y-124523000D03*
%TO.P,R5,2*%
%TO.N,Net-(U1-ADJ)*%
X120396000Y-122873000D03*
%TD*%
D34*
%TO.P,C10,1*%
%TO.N,Net-(D5-KA)*%
X119888000Y-134012000D03*
%TO.P,C10,2*%
%TO.N,Net-(D5-AK)*%
X119888000Y-132462000D03*
%TD*%
D33*
%TO.P,U4,1*%
%TO.N,Net-(D7-AK)*%
X126975000Y-131445000D03*
%TO.P,U4,2,-*%
%TO.N,Net-(D7-KA)*%
X126975000Y-132715000D03*
%TO.P,U4,3,+*%
%TO.N,Net-(U4A-+)*%
X126975000Y-133985000D03*
%TO.P,U4,4,V-*%
%TO.N,-12V*%
X126975000Y-135255000D03*
%TO.P,U4,5,+*%
%TO.N,Net-(U4B-+)*%
X122025000Y-135255000D03*
%TO.P,U4,6,-*%
%TO.N,Net-(D5-KA)*%
X122025000Y-133985000D03*
%TO.P,U4,7*%
%TO.N,Net-(D5-AK)*%
X122025000Y-132715000D03*
%TO.P,U4,8,V+*%
%TO.N,+12V*%
X122025000Y-131445000D03*
%TD*%
D34*
%TO.P,C13,1*%
%TO.N,Net-(D3-KA)*%
X71374000Y-132447000D03*
%TO.P,C13,2*%
%TO.N,Net-(D3-AK)*%
X71374000Y-130897000D03*
%TD*%
D25*
%TO.P,C5,1*%
%TO.N,Net-(U3-ADJ)*%
X149888000Y-125454500D03*
%TO.P,C5,2*%
%TO.N,GND*%
X149888000Y-127529500D03*
%TD*%
D30*
%TO.P,R18,1*%
%TO.N,Net-(U4A-+)*%
X128969000Y-134112000D03*
%TO.P,R18,2*%
%TO.N,GND*%
X130619000Y-134112000D03*
%TD*%
D26*
%TO.P,R3,1*%
%TO.N,Net-(D11-K)*%
X41402000Y-129731000D03*
%TO.P,R3,2*%
%TO.N,GND*%
X41402000Y-131381000D03*
%TD*%
D25*
%TO.P,C2,1*%
%TO.N,Net-(U1-ADJ)*%
X127762000Y-125476000D03*
%TO.P,C2,2*%
%TO.N,GND*%
X127762000Y-127551000D03*
%TD*%
D26*
%TO.P,R10,1*%
%TO.N,Net-(U4B-+)*%
X121158000Y-137351000D03*
%TO.P,R10,2*%
%TO.N,Tip3*%
X121158000Y-139001000D03*
%TD*%
D36*
%TO.N,GND*%
X131318000Y-134112000D03*
D37*
X108966000Y-123190000D03*
X142494000Y-130048000D03*
D36*
X41402000Y-132334000D03*
D37*
X119393000Y-129045000D03*
D36*
X41402000Y-126746000D03*
D38*
X73914000Y-135128000D03*
D36*
X54039000Y-131381000D03*
D38*
X59690000Y-131064000D03*
D37*
X105410000Y-122428000D03*
X117348000Y-131064000D03*
X105410000Y-123952000D03*
X117475000Y-135636000D03*
D36*
X127762000Y-139700000D03*
D37*
X131572000Y-128270000D03*
X149888000Y-128750000D03*
D36*
X60643000Y-136589000D03*
D37*
X109220000Y-128270000D03*
X127762000Y-128524000D03*
X105410000Y-123190000D03*
X108966000Y-123952000D03*
X106426000Y-128270000D03*
D36*
X52133000Y-120841000D03*
D37*
X90760000Y-136180000D03*
D36*
X132842000Y-132588000D03*
D37*
X108966000Y-122428000D03*
%TO.N,Tip1*%
X92710000Y-137988000D03*
D36*
%TO.N,SW1*%
X49784000Y-131318000D03*
D37*
%TO.N,SW2*%
X93250000Y-138650000D03*
D36*
%TO.N,SW3*%
X114046000Y-132588000D03*
%TO.N,Tip4*%
X126492000Y-136398000D03*
X126492000Y-142000000D03*
D38*
X102640000Y-144750000D03*
D36*
%TO.N,Net-(D1-KA)*%
X61468000Y-134112000D03*
X61468000Y-145542000D03*
%TO.N,Net-(D1-AK)*%
X62992000Y-132575000D03*
X62992000Y-147320000D03*
D37*
%TO.N,A Rail*%
X110490000Y-133604000D03*
X110490000Y-125200500D03*
D36*
X106426000Y-125222000D03*
X106426000Y-120904000D03*
%TO.N,Net-(D5-AK)*%
X115596000Y-132562000D03*
X115596000Y-147548000D03*
D37*
%TO.N,B Rail*%
X107696000Y-120904000D03*
D36*
X51065000Y-121677000D03*
%TO.N,Net-(D5-KA)*%
X118872000Y-145796000D03*
X119888000Y-134874000D03*
%TO.N,+12V*%
X46005000Y-132049000D03*
D37*
X120650000Y-131064000D03*
D38*
X92456000Y-129140000D03*
D37*
X121399000Y-127495000D03*
D36*
%TO.N,-12V*%
X125600000Y-138775000D03*
X125595000Y-135255000D03*
X48550000Y-133060000D03*
D38*
X66750000Y-122550000D03*
D37*
X79840000Y-132000000D03*
D36*
%TO.N,Net-(D3-KA)*%
X72136000Y-147320000D03*
X72136000Y-133350000D03*
%TO.N,Net-(D3-AK)*%
X69342000Y-146050000D03*
X66802000Y-132031471D03*
%TO.N,Net-(D7-AK)*%
X128270000Y-131445000D03*
X128270000Y-148590000D03*
%TO.N,Net-(D7-KA)*%
X129794000Y-132601000D03*
X129794000Y-147320000D03*
%TO.N,Net-(U4B-+)*%
X122025000Y-135785000D03*
X121857000Y-137351000D03*
%TO.N,Net-(U2A-+)*%
X70612000Y-133985000D03*
X70358000Y-136398000D03*
%TD*%
D39*
%TO.N,GND*%
X59056000Y-134112000D02*
X59119000Y-134112000D01*
D40*
X118338000Y-131064000D02*
X117348000Y-131064000D01*
D39*
X149888000Y-127529500D02*
X149888000Y-128750000D01*
D40*
X105410000Y-123190000D02*
X108966000Y-123190000D01*
D39*
X74168000Y-132814000D02*
X73024000Y-133958000D01*
D40*
X60680000Y-131064000D02*
X59690000Y-131064000D01*
X120396000Y-129045000D02*
X119393000Y-129045000D01*
X89210000Y-136187500D02*
X90752500Y-136187500D01*
D39*
X53086000Y-131381000D02*
X54039000Y-131381000D01*
D40*
X131572000Y-127275500D02*
X131572000Y-128270000D01*
D39*
X119634000Y-139001000D02*
X118929000Y-139001000D01*
X118929000Y-139001000D02*
X117180000Y-140750000D01*
D40*
X109220000Y-127275500D02*
X109220000Y-128270000D01*
X117475000Y-135636000D02*
X118364000Y-135636000D01*
D39*
X59119000Y-134112000D02*
X60643000Y-135636000D01*
D40*
X90752500Y-136187500D02*
X90760000Y-136180000D01*
D39*
X72924000Y-135482000D02*
X72924000Y-134058000D01*
D40*
X127762000Y-127551000D02*
X127762000Y-128524000D01*
D39*
X132143000Y-132588000D02*
X132842000Y-132588000D01*
X41402000Y-125793000D02*
X41402000Y-126746000D01*
X74168000Y-132588000D02*
X74168000Y-132814000D01*
D40*
X103180000Y-125742500D02*
X103619500Y-125742500D01*
X73178000Y-135128000D02*
X73914000Y-135128000D01*
D39*
X74422000Y-132334000D02*
X74168000Y-132588000D01*
X41402000Y-131381000D02*
X41402000Y-132334000D01*
X130619000Y-134112000D02*
X131318000Y-134112000D01*
D40*
X109220000Y-128270000D02*
X106426000Y-128270000D01*
D39*
X60643000Y-135636000D02*
X60643000Y-136589000D01*
X53086000Y-120841000D02*
X52133000Y-120841000D01*
D40*
X103619500Y-125742500D02*
X105410000Y-123952000D01*
X142494000Y-129045000D02*
X142494000Y-130048000D01*
X105410000Y-123952000D02*
X108966000Y-123952000D01*
X105410000Y-122428000D02*
X108966000Y-122428000D01*
X72924000Y-135382000D02*
X73178000Y-135128000D01*
D39*
X127762000Y-138697000D02*
X127762000Y-139700000D01*
X72924000Y-134058000D02*
X73024000Y-133958000D01*
D41*
%TO.N,Tip1*%
X92710000Y-137988000D02*
X69012000Y-137988000D01*
D39*
X57305000Y-140765000D02*
X57320000Y-140750000D01*
D41*
X58070000Y-140000000D02*
X67000000Y-140000000D01*
X56902500Y-140332500D02*
X57320000Y-140750000D01*
X69012000Y-137988000D02*
X67000000Y-140000000D01*
D39*
X65556000Y-138556000D02*
X67000000Y-140000000D01*
X63754000Y-138556000D02*
X65556000Y-138556000D01*
D41*
X57320000Y-140750000D02*
X58070000Y-140000000D01*
D39*
%TO.N,SW1*%
X55457893Y-130065000D02*
X66473314Y-130065000D01*
X54882893Y-130640000D02*
X55457893Y-130065000D01*
X49020000Y-140750000D02*
X49020000Y-140580000D01*
X75027843Y-129742157D02*
X75125686Y-129840000D01*
X51797057Y-130640000D02*
X54882893Y-130640000D01*
X66796157Y-129742157D02*
X75027843Y-129742157D01*
X49784000Y-131318000D02*
X51119057Y-131318000D01*
X66473314Y-130065000D02*
X66796157Y-129742157D01*
X51119057Y-131318000D02*
X51797057Y-130640000D01*
X93620000Y-129840000D02*
X94980000Y-131200000D01*
X75125686Y-129840000D02*
X93620000Y-129840000D01*
%TO.N,Tip2*%
X67000000Y-142000000D02*
X67696000Y-142000000D01*
D41*
X85620000Y-140750000D02*
X86370000Y-140000000D01*
X67000000Y-142000000D02*
X67250000Y-142250000D01*
X81012500Y-142250000D02*
X82620000Y-140642500D01*
X85512500Y-140642500D02*
X85620000Y-140750000D01*
X67250000Y-142250000D02*
X81012500Y-142250000D01*
D39*
X67696000Y-142000000D02*
X70358000Y-139338000D01*
X70358000Y-139338000D02*
X70358000Y-138938000D01*
D41*
X86370000Y-140000000D02*
X95700000Y-140000000D01*
X82620000Y-140642500D02*
X85512500Y-140642500D01*
D39*
%TO.N,SW2*%
X93250000Y-138650000D02*
X93270489Y-138629511D01*
X79420000Y-138650000D02*
X93250000Y-138650000D01*
X77320000Y-140750000D02*
X79420000Y-138650000D01*
D41*
%TO.N,Tip3*%
X123900000Y-140000000D02*
X124400000Y-140000000D01*
X104530000Y-142000000D02*
X105780000Y-140750000D01*
X110690000Y-142740000D02*
X121160000Y-142740000D01*
D39*
X122157000Y-140000000D02*
X121158000Y-139001000D01*
X124400000Y-140000000D02*
X122157000Y-140000000D01*
D41*
X107770000Y-142740000D02*
X110690000Y-142740000D01*
X121160000Y-142740000D02*
X123900000Y-140000000D01*
X105780000Y-140750000D02*
X107770000Y-142740000D01*
X95700000Y-142000000D02*
X104530000Y-142000000D01*
D39*
%TO.N,SW3*%
X99500000Y-131200000D02*
X100890489Y-132590489D01*
X100890489Y-132590489D02*
X114046000Y-132588000D01*
X114050000Y-140720000D02*
X114080000Y-140750000D01*
%TO.N,Tip4*%
X128542352Y-136397000D02*
X128556352Y-136411000D01*
X126492000Y-136398000D02*
X126493000Y-136397000D01*
D41*
X121000000Y-144750000D02*
X123750000Y-142000000D01*
D39*
X129844000Y-136411000D02*
X130619000Y-135636000D01*
D41*
X123750000Y-142000000D02*
X124400000Y-142000000D01*
D39*
X128556352Y-136411000D02*
X129844000Y-136411000D01*
D41*
X132830000Y-142000000D02*
X134080000Y-140750000D01*
D39*
X126492000Y-142000000D02*
X126504500Y-141987500D01*
X126493000Y-136397000D02*
X128542352Y-136397000D01*
D41*
X102640000Y-144750000D02*
X121000000Y-144750000D01*
D39*
X134085000Y-140755000D02*
X134080000Y-140750000D01*
D41*
X124400000Y-142000000D02*
X132830000Y-142000000D01*
D39*
%TO.N,SW4*%
X102040000Y-130860000D02*
X102040000Y-131200000D01*
X133682733Y-130050489D02*
X102849511Y-130050489D01*
X142380000Y-138747756D02*
X133682733Y-130050489D01*
X142380000Y-140750000D02*
X142380000Y-138747756D01*
X102849511Y-130050489D02*
X102040000Y-130860000D01*
%TO.N,Net-(U1-ADJ)*%
X123928000Y-125460000D02*
X123936000Y-125460000D01*
X120369000Y-122900000D02*
X120396000Y-122873000D01*
X120888000Y-122920000D02*
X123928000Y-122920000D01*
X120841000Y-122873000D02*
X120888000Y-122920000D01*
X123928000Y-122920000D02*
X123928000Y-125460000D01*
X118212000Y-122900000D02*
X120369000Y-122900000D01*
X123936000Y-125460000D02*
X123952000Y-125476000D01*
X123952000Y-125476000D02*
X127762000Y-125476000D01*
X120396000Y-122873000D02*
X120841000Y-122873000D01*
%TO.N,Net-(U3-ADJ)*%
X146078000Y-125460000D02*
X146078000Y-122920000D01*
X142498000Y-122873000D02*
X146031000Y-122873000D01*
X142471000Y-122900000D02*
X142498000Y-122873000D01*
X146078000Y-125460000D02*
X149882500Y-125460000D01*
X146031000Y-122873000D02*
X146078000Y-122920000D01*
X149882500Y-125460000D02*
X149888000Y-125454500D01*
X140358000Y-122900000D02*
X142471000Y-122900000D01*
%TO.N,Net-(D1-KA)*%
X61468000Y-134112000D02*
X62217000Y-134112000D01*
X53038000Y-145542000D02*
X61468000Y-145542000D01*
X62217000Y-134112000D02*
X62230000Y-134125000D01*
X60706000Y-134112000D02*
X61468000Y-134112000D01*
X51130000Y-147450000D02*
X53038000Y-145542000D01*
X62230000Y-134125000D02*
X64187000Y-134125000D01*
X64187000Y-134125000D02*
X64327000Y-133985000D01*
%TO.N,Net-(D1-AK)*%
X53670000Y-147450000D02*
X62862000Y-147450000D01*
X62230000Y-132575000D02*
X62992000Y-132575000D01*
X62992000Y-132575000D02*
X64187000Y-132575000D01*
X62862000Y-147450000D02*
X62992000Y-147320000D01*
X64187000Y-132575000D02*
X64327000Y-132715000D01*
%TO.N,A Rail*%
X120396000Y-124523000D02*
X118889000Y-124523000D01*
D40*
X105276000Y-133604000D02*
X105140000Y-133740000D01*
X110490000Y-125200500D02*
X111911500Y-125200500D01*
D39*
X45960000Y-124000000D02*
X49819000Y-120141000D01*
D40*
X109220000Y-125200500D02*
X110490000Y-125200500D01*
X111912000Y-125200000D02*
X118212000Y-125200000D01*
D39*
X49819000Y-120141000D02*
X105663000Y-120141000D01*
X106447500Y-125200500D02*
X109220000Y-125200500D01*
D40*
X110490000Y-133604000D02*
X105276000Y-133604000D01*
D39*
X105663000Y-120141000D02*
X106426000Y-120904000D01*
X118889000Y-124523000D02*
X118212000Y-125200000D01*
X106426000Y-125222000D02*
X106447500Y-125200500D01*
D40*
X111911500Y-125200500D02*
X111912000Y-125200000D01*
D39*
%TO.N,Net-(D5-AK)*%
X115498000Y-147450000D02*
X115596000Y-147548000D01*
X111970000Y-147450000D02*
X115498000Y-147450000D01*
X119888000Y-132562000D02*
X115596000Y-132562000D01*
X121872000Y-132562000D02*
X122025000Y-132715000D01*
X119888000Y-132562000D02*
X121872000Y-132562000D01*
D40*
%TO.N,B Rail*%
X134058000Y-125200000D02*
X131572500Y-125200000D01*
D39*
X106934000Y-121666000D02*
X107696000Y-120904000D01*
X51076000Y-121666000D02*
X106934000Y-121666000D01*
X51065000Y-121677000D02*
X51076000Y-121666000D01*
D40*
X131572500Y-125200000D02*
X131572000Y-125200500D01*
X129762000Y-120904000D02*
X134058000Y-125200000D01*
X107696000Y-120904000D02*
X129762000Y-120904000D01*
D39*
X142498000Y-124523000D02*
X141035000Y-124523000D01*
D40*
X134058000Y-125200000D02*
X140358000Y-125200000D01*
D39*
X141035000Y-124523000D02*
X140358000Y-125200000D01*
%TO.N,Net-(D5-KA)*%
X111084000Y-145796000D02*
X109430000Y-147450000D01*
X118872000Y-145796000D02*
X111084000Y-145796000D01*
X119888000Y-134112000D02*
X119888000Y-134874000D01*
X119888000Y-134112000D02*
X121898000Y-134112000D01*
X119888000Y-135510000D02*
X120014000Y-135636000D01*
X119888000Y-134874000D02*
X119888000Y-135510000D01*
X121898000Y-134112000D02*
X122025000Y-133985000D01*
%TO.N,+12V*%
X62230000Y-131064000D02*
X63946000Y-131064000D01*
X46037000Y-132081000D02*
X46005000Y-132049000D01*
D40*
X121644000Y-131064000D02*
X122025000Y-131445000D01*
X121399000Y-127495000D02*
X123228000Y-129324000D01*
X140358000Y-127500000D02*
X142489000Y-127500000D01*
D39*
X63946000Y-131064000D02*
X64327000Y-131445000D01*
D40*
X75370000Y-129140000D02*
X66380000Y-129140000D01*
D39*
X75980000Y-131200000D02*
X74867000Y-130147000D01*
D40*
X66380000Y-129140000D02*
X66182500Y-129140000D01*
X103180000Y-128820000D02*
X103180000Y-127817500D01*
X119888000Y-131064000D02*
X121644000Y-131064000D01*
D39*
X75980000Y-131200000D02*
X92440000Y-131200000D01*
D40*
X118212000Y-127500000D02*
X120391000Y-127500000D01*
X138534000Y-129324000D02*
X140358000Y-127500000D01*
D39*
X74867000Y-130147000D02*
X66957000Y-130147000D01*
D40*
X103160000Y-129140000D02*
X116572000Y-129140000D01*
X142489000Y-127500000D02*
X142494000Y-127495000D01*
X103160000Y-128840000D02*
X103180000Y-128820000D01*
D39*
X62230000Y-131064000D02*
X61213000Y-132081000D01*
D40*
X116572000Y-129140000D02*
X118212000Y-127500000D01*
D39*
X66957000Y-130147000D02*
X65659000Y-131445000D01*
D40*
X66182500Y-129140000D02*
X65857500Y-129465000D01*
X103160000Y-129140000D02*
X103160000Y-128840000D01*
X123228000Y-129324000D02*
X133370000Y-129324000D01*
X133370000Y-129324000D02*
X138534000Y-129324000D01*
X92456000Y-129140000D02*
X75370000Y-129140000D01*
D39*
X65659000Y-131445000D02*
X64327000Y-131445000D01*
D40*
X92456000Y-129140000D02*
X103160000Y-129140000D01*
D39*
X61213000Y-132081000D02*
X46037000Y-132081000D01*
D40*
X120396000Y-127495000D02*
X121399000Y-127495000D01*
X120391000Y-127500000D02*
X120396000Y-127495000D01*
%TO.N,-12V*%
X71247000Y-135255000D02*
X71374000Y-135382000D01*
X89210000Y-134112500D02*
X89210000Y-132050000D01*
X92440000Y-133730000D02*
X90720000Y-132010000D01*
X90720000Y-132020000D02*
X89180000Y-132020000D01*
D39*
X69277000Y-135255000D02*
X71247000Y-135255000D01*
X123522918Y-138250000D02*
X124047918Y-138775000D01*
X126134000Y-138775000D02*
X125600000Y-138775000D01*
D40*
X79860000Y-132020000D02*
X79840000Y-132000000D01*
D39*
X68302001Y-135255000D02*
X66372001Y-133325000D01*
X93590000Y-134890000D02*
X103184314Y-134890000D01*
X69277000Y-135255000D02*
X68302001Y-135255000D01*
X72149000Y-136257000D02*
X75583000Y-136257000D01*
D40*
X89210000Y-132050000D02*
X89180000Y-132020000D01*
D39*
X127762000Y-137387000D02*
X127762000Y-137147000D01*
X105112990Y-136818676D02*
X117914028Y-136818676D01*
D40*
X89180000Y-132020000D02*
X79860000Y-132020000D01*
D39*
X66372001Y-133325000D02*
X48815000Y-133325000D01*
X92440000Y-133740000D02*
X93590000Y-134890000D01*
X117914028Y-136818676D02*
X119345352Y-138250000D01*
X127762000Y-137147000D02*
X126134000Y-138775000D01*
X48815000Y-133325000D02*
X48550000Y-133060000D01*
D40*
X65842500Y-122550000D02*
X66750000Y-122550000D01*
D39*
X126975000Y-135255000D02*
X125595000Y-135255000D01*
X103184314Y-134890000D02*
X105112990Y-136818676D01*
X119345352Y-138250000D02*
X123522918Y-138250000D01*
X71374000Y-135482000D02*
X72149000Y-136257000D01*
X124047918Y-138775000D02*
X125600000Y-138775000D01*
X75583000Y-136257000D02*
X79840000Y-132000000D01*
%TO.N,Net-(D3-KA)*%
X71106000Y-132715000D02*
X71374000Y-132447000D01*
X72136000Y-147320000D02*
X72390000Y-147320000D01*
X69277000Y-132715000D02*
X71106000Y-132715000D01*
X71374000Y-132447000D02*
X72659000Y-132447000D01*
X72520000Y-147450000D02*
X79430000Y-147450000D01*
X72136000Y-132970000D02*
X72136000Y-133350000D01*
X72659000Y-132447000D02*
X72772000Y-132334000D01*
X72772000Y-132334000D02*
X72136000Y-132970000D01*
X72390000Y-147320000D02*
X72520000Y-147450000D01*
%TO.N,Net-(D3-AK)*%
X69277000Y-131445000D02*
X70826000Y-131445000D01*
X69277000Y-131445000D02*
X67388471Y-131445000D01*
X80570000Y-146050000D02*
X81970000Y-147450000D01*
X67388471Y-131445000D02*
X66802000Y-132031471D01*
X70826000Y-131445000D02*
X71374000Y-130897000D01*
X69342000Y-146050000D02*
X80570000Y-146050000D01*
%TO.N,Net-(D7-AK)*%
X128270000Y-148590000D02*
X128330000Y-148650000D01*
X128330000Y-148650000D02*
X139070000Y-148650000D01*
X128270000Y-131445000D02*
X128638000Y-131445000D01*
X128638000Y-131445000D02*
X129032000Y-131051000D01*
X126975000Y-131445000D02*
X128270000Y-131445000D01*
X139070000Y-148650000D02*
X140270000Y-147450000D01*
%TO.N,Net-(D7-KA)*%
X129924000Y-147450000D02*
X137730000Y-147450000D01*
X130480000Y-132601000D02*
X130493000Y-132588000D01*
X129794000Y-132601000D02*
X130480000Y-132601000D01*
X129794000Y-147320000D02*
X129924000Y-147450000D01*
X126975000Y-132715000D02*
X128918000Y-132715000D01*
X129032000Y-132601000D02*
X129794000Y-132601000D01*
X128918000Y-132715000D02*
X129032000Y-132601000D01*
%TO.N,Net-(D9-K)*%
X41402000Y-124143000D02*
X43277000Y-124143000D01*
X43277000Y-124143000D02*
X43420000Y-124000000D01*
%TO.N,Net-(D10-K)*%
X53086000Y-122491000D02*
X50034000Y-122491000D01*
X50034000Y-122491000D02*
X48525000Y-124000000D01*
%TO.N,Net-(D11-K)*%
X43384000Y-129731000D02*
X43465000Y-129650000D01*
X41402000Y-129731000D02*
X43384000Y-129731000D01*
%TO.N,Net-(D12-A)*%
X53086000Y-129731000D02*
X51171000Y-129731000D01*
X51171000Y-129731000D02*
X51090000Y-129650000D01*
D40*
%TO.N,Net-(J6-Pin_10)*%
X68750000Y-128250000D02*
X80040000Y-128250000D01*
X82280000Y-126500000D02*
X80530000Y-128250000D01*
X67750000Y-127250000D02*
X68750000Y-128250000D01*
X80530000Y-128250000D02*
X80040000Y-128250000D01*
%TO.N,Net-(J6-Pin_1)*%
X92440000Y-123960000D02*
X91080000Y-122600000D01*
X91080000Y-122600000D02*
X90840000Y-122600000D01*
X69900000Y-122600000D02*
X67750000Y-124750000D01*
X90840000Y-122600000D02*
X69900000Y-122600000D01*
D39*
%TO.N,Net-(U2B-+)*%
X63754000Y-135828000D02*
X64327000Y-135255000D01*
X63754000Y-136906000D02*
X63754000Y-135828000D01*
X62293000Y-135636000D02*
X63946000Y-135636000D01*
X63946000Y-135636000D02*
X64327000Y-135255000D01*
%TO.N,Net-(U4B-+)*%
X122025000Y-135255000D02*
X122025000Y-135785000D01*
X121158000Y-137351000D02*
X121857000Y-137351000D01*
X119634000Y-137351000D02*
X121158000Y-137351000D01*
%TO.N,Net-(U2A-+)*%
X70358000Y-136398000D02*
X70358000Y-137288000D01*
X71347000Y-133985000D02*
X71374000Y-133958000D01*
X70612000Y-133985000D02*
X71347000Y-133985000D01*
X69277000Y-133985000D02*
X70612000Y-133985000D01*
%TO.N,Net-(U4A-+)*%
X126975000Y-133985000D02*
X128842000Y-133985000D01*
X128969000Y-135636000D02*
X128969000Y-134112000D01*
X128842000Y-133985000D02*
X128969000Y-134112000D01*
D40*
%TO.N,Net-(D2-A)*%
X63750000Y-128780000D02*
X63750000Y-129457500D01*
X63750000Y-129457500D02*
X63757500Y-129465000D01*
X63750000Y-127250000D02*
X63750000Y-128780000D01*
%TO.N,Net-(D4-K)*%
X63742500Y-124742500D02*
X63750000Y-124750000D01*
X63742500Y-123240000D02*
X63742500Y-124742500D01*
X63742500Y-122550000D02*
X63742500Y-123240000D01*
%TD*%
M02*
