G04 #@! TF.GenerationSoftware,KiCad,Pcbnew,8.0.8*
G04 #@! TF.CreationDate,2025-08-03T15:09:02-07:00*
G04 #@! TF.ProjectId,sidecar,73696465-6361-4722-9e6b-696361645f70,0.1*
G04 #@! TF.SameCoordinates,Original*
G04 #@! TF.FileFunction,Legend,Top*
G04 #@! TF.FilePolarity,Positive*
%FSLAX46Y46*%
G04 Gerber Fmt 4.6, Leading zero omitted, Abs format (unit mm)*
G04 Created by KiCad (PCBNEW 8.0.8) date 2025-08-03 15:09:02*
%MOMM*%
%LPD*%
G01*
G04 APERTURE LIST*
%ADD10C,0.200000*%
%ADD11C,0.250000*%
%ADD12C,0.300000*%
%ADD13C,0.150000*%
%ADD14C,0.120000*%
%ADD15C,0.010000*%
G04 APERTURE END LIST*
D10*
X40610000Y-43890000D02*
X59450000Y-43890000D01*
X59450000Y-68390000D01*
X40610000Y-68390000D01*
X40610000Y-43890000D01*
X40530000Y-125410000D02*
X59370000Y-125410000D01*
X59370000Y-149910000D01*
X40530000Y-149910000D01*
X40530000Y-125410000D01*
X40750000Y-71180000D02*
X59590000Y-71180000D01*
X59590000Y-95680000D01*
X40750000Y-95680000D01*
X40750000Y-71180000D01*
X40530000Y-98100000D02*
X59370000Y-98100000D01*
X59370000Y-122600000D01*
X40530000Y-122600000D01*
X40530000Y-98100000D01*
D11*
X42448572Y-37202357D02*
X42305715Y-37130928D01*
X42305715Y-37130928D02*
X42091429Y-37130928D01*
X42091429Y-37130928D02*
X41877143Y-37202357D01*
X41877143Y-37202357D02*
X41734286Y-37345214D01*
X41734286Y-37345214D02*
X41662857Y-37488071D01*
X41662857Y-37488071D02*
X41591429Y-37773785D01*
X41591429Y-37773785D02*
X41591429Y-37988071D01*
X41591429Y-37988071D02*
X41662857Y-38273785D01*
X41662857Y-38273785D02*
X41734286Y-38416642D01*
X41734286Y-38416642D02*
X41877143Y-38559500D01*
X41877143Y-38559500D02*
X42091429Y-38630928D01*
X42091429Y-38630928D02*
X42234286Y-38630928D01*
X42234286Y-38630928D02*
X42448572Y-38559500D01*
X42448572Y-38559500D02*
X42520000Y-38488071D01*
X42520000Y-38488071D02*
X42520000Y-37988071D01*
X42520000Y-37988071D02*
X42234286Y-37988071D01*
X43162857Y-38630928D02*
X43162857Y-37630928D01*
X43162857Y-37916642D02*
X43234286Y-37773785D01*
X43234286Y-37773785D02*
X43305715Y-37702357D01*
X43305715Y-37702357D02*
X43448572Y-37630928D01*
X43448572Y-37630928D02*
X43591429Y-37630928D01*
X44662857Y-38559500D02*
X44520000Y-38630928D01*
X44520000Y-38630928D02*
X44234286Y-38630928D01*
X44234286Y-38630928D02*
X44091428Y-38559500D01*
X44091428Y-38559500D02*
X44020000Y-38416642D01*
X44020000Y-38416642D02*
X44020000Y-37845214D01*
X44020000Y-37845214D02*
X44091428Y-37702357D01*
X44091428Y-37702357D02*
X44234286Y-37630928D01*
X44234286Y-37630928D02*
X44520000Y-37630928D01*
X44520000Y-37630928D02*
X44662857Y-37702357D01*
X44662857Y-37702357D02*
X44734286Y-37845214D01*
X44734286Y-37845214D02*
X44734286Y-37988071D01*
X44734286Y-37988071D02*
X44020000Y-38130928D01*
X45948571Y-38559500D02*
X45805714Y-38630928D01*
X45805714Y-38630928D02*
X45520000Y-38630928D01*
X45520000Y-38630928D02*
X45377142Y-38559500D01*
X45377142Y-38559500D02*
X45305714Y-38416642D01*
X45305714Y-38416642D02*
X45305714Y-37845214D01*
X45305714Y-37845214D02*
X45377142Y-37702357D01*
X45377142Y-37702357D02*
X45520000Y-37630928D01*
X45520000Y-37630928D02*
X45805714Y-37630928D01*
X45805714Y-37630928D02*
X45948571Y-37702357D01*
X45948571Y-37702357D02*
X46020000Y-37845214D01*
X46020000Y-37845214D02*
X46020000Y-37988071D01*
X46020000Y-37988071D02*
X45305714Y-38130928D01*
X46662856Y-37630928D02*
X46662856Y-38630928D01*
X46662856Y-37773785D02*
X46734285Y-37702357D01*
X46734285Y-37702357D02*
X46877142Y-37630928D01*
X46877142Y-37630928D02*
X47091428Y-37630928D01*
X47091428Y-37630928D02*
X47234285Y-37702357D01*
X47234285Y-37702357D02*
X47305714Y-37845214D01*
X47305714Y-37845214D02*
X47305714Y-38630928D01*
X47805714Y-37630928D02*
X48377142Y-37630928D01*
X48019999Y-38630928D02*
X48019999Y-37345214D01*
X48019999Y-37345214D02*
X48091428Y-37202357D01*
X48091428Y-37202357D02*
X48234285Y-37130928D01*
X48234285Y-37130928D02*
X48377142Y-37130928D01*
X49520000Y-38630928D02*
X49520000Y-37845214D01*
X49520000Y-37845214D02*
X49448571Y-37702357D01*
X49448571Y-37702357D02*
X49305714Y-37630928D01*
X49305714Y-37630928D02*
X49020000Y-37630928D01*
X49020000Y-37630928D02*
X48877142Y-37702357D01*
X49520000Y-38559500D02*
X49377142Y-38630928D01*
X49377142Y-38630928D02*
X49020000Y-38630928D01*
X49020000Y-38630928D02*
X48877142Y-38559500D01*
X48877142Y-38559500D02*
X48805714Y-38416642D01*
X48805714Y-38416642D02*
X48805714Y-38273785D01*
X48805714Y-38273785D02*
X48877142Y-38130928D01*
X48877142Y-38130928D02*
X49020000Y-38059500D01*
X49020000Y-38059500D02*
X49377142Y-38059500D01*
X49377142Y-38059500D02*
X49520000Y-37988071D01*
X50877143Y-38559500D02*
X50734285Y-38630928D01*
X50734285Y-38630928D02*
X50448571Y-38630928D01*
X50448571Y-38630928D02*
X50305714Y-38559500D01*
X50305714Y-38559500D02*
X50234285Y-38488071D01*
X50234285Y-38488071D02*
X50162857Y-38345214D01*
X50162857Y-38345214D02*
X50162857Y-37916642D01*
X50162857Y-37916642D02*
X50234285Y-37773785D01*
X50234285Y-37773785D02*
X50305714Y-37702357D01*
X50305714Y-37702357D02*
X50448571Y-37630928D01*
X50448571Y-37630928D02*
X50734285Y-37630928D01*
X50734285Y-37630928D02*
X50877143Y-37702357D01*
X52091428Y-38559500D02*
X51948571Y-38630928D01*
X51948571Y-38630928D02*
X51662857Y-38630928D01*
X51662857Y-38630928D02*
X51519999Y-38559500D01*
X51519999Y-38559500D02*
X51448571Y-38416642D01*
X51448571Y-38416642D02*
X51448571Y-37845214D01*
X51448571Y-37845214D02*
X51519999Y-37702357D01*
X51519999Y-37702357D02*
X51662857Y-37630928D01*
X51662857Y-37630928D02*
X51948571Y-37630928D01*
X51948571Y-37630928D02*
X52091428Y-37702357D01*
X52091428Y-37702357D02*
X52162857Y-37845214D01*
X52162857Y-37845214D02*
X52162857Y-37988071D01*
X52162857Y-37988071D02*
X51448571Y-38130928D01*
X54662856Y-38630928D02*
X53948570Y-38630928D01*
X53948570Y-38630928D02*
X53948570Y-37130928D01*
X55805714Y-38630928D02*
X55805714Y-37845214D01*
X55805714Y-37845214D02*
X55734285Y-37702357D01*
X55734285Y-37702357D02*
X55591428Y-37630928D01*
X55591428Y-37630928D02*
X55305714Y-37630928D01*
X55305714Y-37630928D02*
X55162856Y-37702357D01*
X55805714Y-38559500D02*
X55662856Y-38630928D01*
X55662856Y-38630928D02*
X55305714Y-38630928D01*
X55305714Y-38630928D02*
X55162856Y-38559500D01*
X55162856Y-38559500D02*
X55091428Y-38416642D01*
X55091428Y-38416642D02*
X55091428Y-38273785D01*
X55091428Y-38273785D02*
X55162856Y-38130928D01*
X55162856Y-38130928D02*
X55305714Y-38059500D01*
X55305714Y-38059500D02*
X55662856Y-38059500D01*
X55662856Y-38059500D02*
X55805714Y-37988071D01*
X56519999Y-38630928D02*
X56519999Y-37130928D01*
X56519999Y-37702357D02*
X56662857Y-37630928D01*
X56662857Y-37630928D02*
X56948571Y-37630928D01*
X56948571Y-37630928D02*
X57091428Y-37702357D01*
X57091428Y-37702357D02*
X57162857Y-37773785D01*
X57162857Y-37773785D02*
X57234285Y-37916642D01*
X57234285Y-37916642D02*
X57234285Y-38345214D01*
X57234285Y-38345214D02*
X57162857Y-38488071D01*
X57162857Y-38488071D02*
X57091428Y-38559500D01*
X57091428Y-38559500D02*
X56948571Y-38630928D01*
X56948571Y-38630928D02*
X56662857Y-38630928D01*
X56662857Y-38630928D02*
X56519999Y-38559500D01*
X57805714Y-38559500D02*
X57948571Y-38630928D01*
X57948571Y-38630928D02*
X58234285Y-38630928D01*
X58234285Y-38630928D02*
X58377142Y-38559500D01*
X58377142Y-38559500D02*
X58448571Y-38416642D01*
X58448571Y-38416642D02*
X58448571Y-38345214D01*
X58448571Y-38345214D02*
X58377142Y-38202357D01*
X58377142Y-38202357D02*
X58234285Y-38130928D01*
X58234285Y-38130928D02*
X58020000Y-38130928D01*
X58020000Y-38130928D02*
X57877142Y-38059500D01*
X57877142Y-38059500D02*
X57805714Y-37916642D01*
X57805714Y-37916642D02*
X57805714Y-37845214D01*
X57805714Y-37845214D02*
X57877142Y-37702357D01*
X57877142Y-37702357D02*
X58020000Y-37630928D01*
X58020000Y-37630928D02*
X58234285Y-37630928D01*
X58234285Y-37630928D02*
X58377142Y-37702357D01*
D12*
X56054510Y-117908447D02*
X57602129Y-117908447D01*
X57602129Y-117908447D02*
X56768796Y-118860828D01*
X56768796Y-118860828D02*
X57125939Y-118860828D01*
X57125939Y-118860828D02*
X57364034Y-118979876D01*
X57364034Y-118979876D02*
X57483082Y-119098923D01*
X57483082Y-119098923D02*
X57602129Y-119337019D01*
X57602129Y-119337019D02*
X57602129Y-119932257D01*
X57602129Y-119932257D02*
X57483082Y-120170352D01*
X57483082Y-120170352D02*
X57364034Y-120289400D01*
X57364034Y-120289400D02*
X57125939Y-120408447D01*
X57125939Y-120408447D02*
X56411653Y-120408447D01*
X56411653Y-120408447D02*
X56173558Y-120289400D01*
X56173558Y-120289400D02*
X56054510Y-120170352D01*
X56173558Y-91156542D02*
X56292606Y-91037495D01*
X56292606Y-91037495D02*
X56530701Y-90918447D01*
X56530701Y-90918447D02*
X57125939Y-90918447D01*
X57125939Y-90918447D02*
X57364034Y-91037495D01*
X57364034Y-91037495D02*
X57483082Y-91156542D01*
X57483082Y-91156542D02*
X57602129Y-91394638D01*
X57602129Y-91394638D02*
X57602129Y-91632733D01*
X57602129Y-91632733D02*
X57483082Y-91989876D01*
X57483082Y-91989876D02*
X56054510Y-93418447D01*
X56054510Y-93418447D02*
X57602129Y-93418447D01*
X44799523Y-41181400D02*
X45074523Y-41267114D01*
X45074523Y-41267114D02*
X45550713Y-41267114D01*
X45550713Y-41267114D02*
X45751904Y-41181400D01*
X45751904Y-41181400D02*
X45857856Y-41095685D01*
X45857856Y-41095685D02*
X45974523Y-40924257D01*
X45974523Y-40924257D02*
X45995951Y-40752828D01*
X45995951Y-40752828D02*
X45922142Y-40581400D01*
X45922142Y-40581400D02*
X45837618Y-40495685D01*
X45837618Y-40495685D02*
X45657856Y-40409971D01*
X45657856Y-40409971D02*
X45287618Y-40324257D01*
X45287618Y-40324257D02*
X45107856Y-40238542D01*
X45107856Y-40238542D02*
X45023332Y-40152828D01*
X45023332Y-40152828D02*
X44949523Y-39981400D01*
X44949523Y-39981400D02*
X44970951Y-39809971D01*
X44970951Y-39809971D02*
X45087618Y-39638542D01*
X45087618Y-39638542D02*
X45193571Y-39552828D01*
X45193571Y-39552828D02*
X45394761Y-39467114D01*
X45394761Y-39467114D02*
X45870951Y-39467114D01*
X45870951Y-39467114D02*
X46145951Y-39552828D01*
X46788809Y-41267114D02*
X46938809Y-40067114D01*
X47013809Y-39467114D02*
X46907856Y-39552828D01*
X46907856Y-39552828D02*
X46992380Y-39638542D01*
X46992380Y-39638542D02*
X47098333Y-39552828D01*
X47098333Y-39552828D02*
X47013809Y-39467114D01*
X47013809Y-39467114D02*
X46992380Y-39638542D01*
X48598333Y-41267114D02*
X48823333Y-39467114D01*
X48609047Y-41181400D02*
X48407856Y-41267114D01*
X48407856Y-41267114D02*
X48026904Y-41267114D01*
X48026904Y-41267114D02*
X47847142Y-41181400D01*
X47847142Y-41181400D02*
X47762618Y-41095685D01*
X47762618Y-41095685D02*
X47688809Y-40924257D01*
X47688809Y-40924257D02*
X47753094Y-40409971D01*
X47753094Y-40409971D02*
X47869761Y-40238542D01*
X47869761Y-40238542D02*
X47975714Y-40152828D01*
X47975714Y-40152828D02*
X48176904Y-40067114D01*
X48176904Y-40067114D02*
X48557856Y-40067114D01*
X48557856Y-40067114D02*
X48737618Y-40152828D01*
X50323333Y-41181400D02*
X50122142Y-41267114D01*
X50122142Y-41267114D02*
X49741190Y-41267114D01*
X49741190Y-41267114D02*
X49561428Y-41181400D01*
X49561428Y-41181400D02*
X49487618Y-41009971D01*
X49487618Y-41009971D02*
X49573333Y-40324257D01*
X49573333Y-40324257D02*
X49689999Y-40152828D01*
X49689999Y-40152828D02*
X49891190Y-40067114D01*
X49891190Y-40067114D02*
X50272142Y-40067114D01*
X50272142Y-40067114D02*
X50451904Y-40152828D01*
X50451904Y-40152828D02*
X50525714Y-40324257D01*
X50525714Y-40324257D02*
X50504285Y-40495685D01*
X50504285Y-40495685D02*
X49530476Y-40667114D01*
X52132857Y-41181400D02*
X51931666Y-41267114D01*
X51931666Y-41267114D02*
X51550714Y-41267114D01*
X51550714Y-41267114D02*
X51370952Y-41181400D01*
X51370952Y-41181400D02*
X51286428Y-41095685D01*
X51286428Y-41095685D02*
X51212619Y-40924257D01*
X51212619Y-40924257D02*
X51276904Y-40409971D01*
X51276904Y-40409971D02*
X51393571Y-40238542D01*
X51393571Y-40238542D02*
X51499524Y-40152828D01*
X51499524Y-40152828D02*
X51700714Y-40067114D01*
X51700714Y-40067114D02*
X52081666Y-40067114D01*
X52081666Y-40067114D02*
X52261428Y-40152828D01*
X53836429Y-41267114D02*
X53954286Y-40324257D01*
X53954286Y-40324257D02*
X53880476Y-40152828D01*
X53880476Y-40152828D02*
X53700714Y-40067114D01*
X53700714Y-40067114D02*
X53319762Y-40067114D01*
X53319762Y-40067114D02*
X53118571Y-40152828D01*
X53847143Y-41181400D02*
X53645952Y-41267114D01*
X53645952Y-41267114D02*
X53169762Y-41267114D01*
X53169762Y-41267114D02*
X52990000Y-41181400D01*
X52990000Y-41181400D02*
X52916190Y-41009971D01*
X52916190Y-41009971D02*
X52937619Y-40838542D01*
X52937619Y-40838542D02*
X53054286Y-40667114D01*
X53054286Y-40667114D02*
X53255476Y-40581400D01*
X53255476Y-40581400D02*
X53731667Y-40581400D01*
X53731667Y-40581400D02*
X53932857Y-40495685D01*
X54788810Y-41267114D02*
X54938810Y-40067114D01*
X54895953Y-40409971D02*
X55012619Y-40238542D01*
X55012619Y-40238542D02*
X55118572Y-40152828D01*
X55118572Y-40152828D02*
X55319762Y-40067114D01*
X55319762Y-40067114D02*
X55510238Y-40067114D01*
X57364034Y-146061780D02*
X57364034Y-147728447D01*
X56768796Y-145109400D02*
X56173558Y-146895114D01*
X56173558Y-146895114D02*
X57721177Y-146895114D01*
D13*
X47975714Y-151308152D02*
X47975714Y-151974819D01*
X47737619Y-150927200D02*
X47499524Y-151641485D01*
X47499524Y-151641485D02*
X48118571Y-151641485D01*
X49261429Y-151974819D02*
X49261429Y-150974819D01*
X49261429Y-151451009D02*
X49832857Y-151451009D01*
X49832857Y-151974819D02*
X49832857Y-150974819D01*
X50309048Y-151974819D02*
X50309048Y-150974819D01*
X50309048Y-150974819D02*
X50690000Y-150974819D01*
X50690000Y-150974819D02*
X50785238Y-151022438D01*
X50785238Y-151022438D02*
X50832857Y-151070057D01*
X50832857Y-151070057D02*
X50880476Y-151165295D01*
X50880476Y-151165295D02*
X50880476Y-151308152D01*
X50880476Y-151308152D02*
X50832857Y-151403390D01*
X50832857Y-151403390D02*
X50785238Y-151451009D01*
X50785238Y-151451009D02*
X50690000Y-151498628D01*
X50690000Y-151498628D02*
X50309048Y-151498628D01*
D12*
X57602129Y-65958447D02*
X56173558Y-65958447D01*
X56887844Y-65958447D02*
X56887844Y-63458447D01*
X56887844Y-63458447D02*
X56649748Y-63815590D01*
X56649748Y-63815590D02*
X56411653Y-64053685D01*
X56411653Y-64053685D02*
X56173558Y-64172733D01*
D14*
X46130000Y-116280000D02*
X47460000Y-116280000D01*
X46130000Y-117610000D02*
X46130000Y-116280000D01*
X46130000Y-118880000D02*
X48730000Y-118880000D01*
X46130000Y-121480000D02*
X46130000Y-118880000D01*
X46130000Y-121480000D02*
X53870000Y-121480000D01*
X48730000Y-116280000D02*
X53870000Y-116280000D01*
X48730000Y-118880000D02*
X48730000Y-116280000D01*
X53870000Y-121480000D02*
X53870000Y-116280000D01*
X46050000Y-143220000D02*
X47380000Y-143220000D01*
X46050000Y-144550000D02*
X46050000Y-143220000D01*
X46050000Y-145820000D02*
X48650000Y-145820000D01*
X46050000Y-148420000D02*
X46050000Y-145820000D01*
X46050000Y-148420000D02*
X53790000Y-148420000D01*
X48650000Y-143220000D02*
X53790000Y-143220000D01*
X48650000Y-145820000D02*
X48650000Y-143220000D01*
X53790000Y-148420000D02*
X53790000Y-143220000D01*
D15*
X57459460Y-156708030D02*
X57502711Y-156721245D01*
X57530558Y-156737941D01*
X57539629Y-156751145D01*
X57537132Y-156766797D01*
X57520931Y-156791385D01*
X57507232Y-156808800D01*
X57478992Y-156840283D01*
X57457775Y-156853529D01*
X57439688Y-156852664D01*
X57386035Y-156839010D01*
X57346630Y-156839630D01*
X57314632Y-156855104D01*
X57303890Y-156864161D01*
X57269505Y-156896027D01*
X57269505Y-157312179D01*
X57131188Y-157312179D01*
X57131188Y-156708614D01*
X57200347Y-156708614D01*
X57241869Y-156710256D01*
X57263291Y-156716087D01*
X57269502Y-156727461D01*
X57269505Y-156727798D01*
X57272439Y-156739713D01*
X57285704Y-156738159D01*
X57304084Y-156729563D01*
X57342046Y-156713568D01*
X57372872Y-156703945D01*
X57412536Y-156701478D01*
X57459460Y-156708030D01*
G36*
X57459460Y-156708030D02*
G01*
X57502711Y-156721245D01*
X57530558Y-156737941D01*
X57539629Y-156751145D01*
X57537132Y-156766797D01*
X57520931Y-156791385D01*
X57507232Y-156808800D01*
X57478992Y-156840283D01*
X57457775Y-156853529D01*
X57439688Y-156852664D01*
X57386035Y-156839010D01*
X57346630Y-156839630D01*
X57314632Y-156855104D01*
X57303890Y-156864161D01*
X57269505Y-156896027D01*
X57269505Y-157312179D01*
X57131188Y-157312179D01*
X57131188Y-156708614D01*
X57200347Y-156708614D01*
X57241869Y-156710256D01*
X57263291Y-156716087D01*
X57269502Y-156727461D01*
X57269505Y-156727798D01*
X57272439Y-156739713D01*
X57285704Y-156738159D01*
X57304084Y-156729563D01*
X57342046Y-156713568D01*
X57372872Y-156703945D01*
X57412536Y-156701478D01*
X57459460Y-156708030D01*
G37*
X57295255Y-157651486D02*
X57343595Y-157661015D01*
X57371114Y-157675125D01*
X57400064Y-157698568D01*
X57358876Y-157750571D01*
X57333482Y-157782064D01*
X57316238Y-157797428D01*
X57299102Y-157799776D01*
X57274027Y-157792217D01*
X57262257Y-157787941D01*
X57214270Y-157781631D01*
X57170324Y-157795156D01*
X57138060Y-157825710D01*
X57132819Y-157835452D01*
X57127112Y-157861258D01*
X57122706Y-157908817D01*
X57119811Y-157974758D01*
X57118631Y-158055710D01*
X57118614Y-158067226D01*
X57118614Y-158267822D01*
X56980297Y-158267822D01*
X56980297Y-157651683D01*
X57049456Y-157651683D01*
X57089333Y-157652725D01*
X57110107Y-157657358D01*
X57117789Y-157667849D01*
X57118614Y-157677745D01*
X57118614Y-157703806D01*
X57151745Y-157677745D01*
X57189735Y-157659965D01*
X57240770Y-157651174D01*
X57295255Y-157651486D01*
G36*
X57295255Y-157651486D02*
G01*
X57343595Y-157661015D01*
X57371114Y-157675125D01*
X57400064Y-157698568D01*
X57358876Y-157750571D01*
X57333482Y-157782064D01*
X57316238Y-157797428D01*
X57299102Y-157799776D01*
X57274027Y-157792217D01*
X57262257Y-157787941D01*
X57214270Y-157781631D01*
X57170324Y-157795156D01*
X57138060Y-157825710D01*
X57132819Y-157835452D01*
X57127112Y-157861258D01*
X57122706Y-157908817D01*
X57119811Y-157974758D01*
X57118631Y-158055710D01*
X57118614Y-158067226D01*
X57118614Y-158267822D01*
X56980297Y-158267822D01*
X56980297Y-157651683D01*
X57049456Y-157651683D01*
X57089333Y-157652725D01*
X57110107Y-157657358D01*
X57117789Y-157667849D01*
X57118614Y-157677745D01*
X57118614Y-157703806D01*
X57151745Y-157677745D01*
X57189735Y-157659965D01*
X57240770Y-157651174D01*
X57295255Y-157651486D01*
G37*
X54666644Y-157653020D02*
X54685461Y-157658660D01*
X54691527Y-157671053D01*
X54691782Y-157676647D01*
X54692871Y-157692230D01*
X54700368Y-157694676D01*
X54720619Y-157683993D01*
X54732649Y-157676694D01*
X54770600Y-157661063D01*
X54815928Y-157653334D01*
X54863456Y-157652740D01*
X54908005Y-157658513D01*
X54944398Y-157669884D01*
X54967457Y-157686088D01*
X54972004Y-157706355D01*
X54969709Y-157711843D01*
X54952980Y-157734626D01*
X54927037Y-157762647D01*
X54922345Y-157767177D01*
X54897617Y-157788005D01*
X54876282Y-157794735D01*
X54846445Y-157790038D01*
X54834492Y-157786917D01*
X54797295Y-157779421D01*
X54771141Y-157782792D01*
X54749054Y-157794681D01*
X54728822Y-157810635D01*
X54713921Y-157830700D01*
X54703566Y-157858702D01*
X54696971Y-157898467D01*
X54693351Y-157953823D01*
X54691922Y-158028594D01*
X54691782Y-158073740D01*
X54691782Y-158267822D01*
X54566040Y-158267822D01*
X54566040Y-157651683D01*
X54628911Y-157651683D01*
X54666644Y-157653020D01*
G36*
X54666644Y-157653020D02*
G01*
X54685461Y-157658660D01*
X54691527Y-157671053D01*
X54691782Y-157676647D01*
X54692871Y-157692230D01*
X54700368Y-157694676D01*
X54720619Y-157683993D01*
X54732649Y-157676694D01*
X54770600Y-157661063D01*
X54815928Y-157653334D01*
X54863456Y-157652740D01*
X54908005Y-157658513D01*
X54944398Y-157669884D01*
X54967457Y-157686088D01*
X54972004Y-157706355D01*
X54969709Y-157711843D01*
X54952980Y-157734626D01*
X54927037Y-157762647D01*
X54922345Y-157767177D01*
X54897617Y-157788005D01*
X54876282Y-157794735D01*
X54846445Y-157790038D01*
X54834492Y-157786917D01*
X54797295Y-157779421D01*
X54771141Y-157782792D01*
X54749054Y-157794681D01*
X54728822Y-157810635D01*
X54713921Y-157830700D01*
X54703566Y-157858702D01*
X54696971Y-157898467D01*
X54693351Y-157953823D01*
X54691922Y-158028594D01*
X54691782Y-158073740D01*
X54691782Y-158267822D01*
X54566040Y-158267822D01*
X54566040Y-157651683D01*
X54628911Y-157651683D01*
X54666644Y-157653020D01*
G37*
X56653367Y-156904342D02*
X56654555Y-156996563D01*
X56658897Y-157066610D01*
X56667558Y-157117381D01*
X56681704Y-157151772D01*
X56702500Y-157172679D01*
X56731110Y-157183000D01*
X56766535Y-157185636D01*
X56803636Y-157182682D01*
X56831818Y-157171889D01*
X56852243Y-157150360D01*
X56866079Y-157115199D01*
X56874491Y-157063510D01*
X56878643Y-156992394D01*
X56879703Y-156904342D01*
X56879703Y-156708614D01*
X57018020Y-156708614D01*
X57018020Y-157312179D01*
X56948862Y-157312179D01*
X56907170Y-157310489D01*
X56885701Y-157304556D01*
X56879703Y-157293293D01*
X56876091Y-157283261D01*
X56861714Y-157285383D01*
X56832736Y-157299580D01*
X56766319Y-157321480D01*
X56695875Y-157319928D01*
X56628377Y-157296147D01*
X56596233Y-157277362D01*
X56571715Y-157257022D01*
X56553804Y-157231573D01*
X56541479Y-157197458D01*
X56533723Y-157151121D01*
X56529516Y-157089007D01*
X56527840Y-157007561D01*
X56527624Y-156944578D01*
X56527624Y-156708614D01*
X56653367Y-156708614D01*
X56653367Y-156904342D01*
G36*
X56653367Y-156904342D02*
G01*
X56654555Y-156996563D01*
X56658897Y-157066610D01*
X56667558Y-157117381D01*
X56681704Y-157151772D01*
X56702500Y-157172679D01*
X56731110Y-157183000D01*
X56766535Y-157185636D01*
X56803636Y-157182682D01*
X56831818Y-157171889D01*
X56852243Y-157150360D01*
X56866079Y-157115199D01*
X56874491Y-157063510D01*
X56878643Y-156992394D01*
X56879703Y-156904342D01*
X56879703Y-156708614D01*
X57018020Y-156708614D01*
X57018020Y-157312179D01*
X56948862Y-157312179D01*
X56907170Y-157310489D01*
X56885701Y-157304556D01*
X56879703Y-157293293D01*
X56876091Y-157283261D01*
X56861714Y-157285383D01*
X56832736Y-157299580D01*
X56766319Y-157321480D01*
X56695875Y-157319928D01*
X56628377Y-157296147D01*
X56596233Y-157277362D01*
X56571715Y-157257022D01*
X56553804Y-157231573D01*
X56541479Y-157197458D01*
X56533723Y-157151121D01*
X56529516Y-157089007D01*
X56527840Y-157007561D01*
X56527624Y-156944578D01*
X56527624Y-156708614D01*
X56653367Y-156708614D01*
X56653367Y-156904342D01*
G37*
X54905988Y-156719002D02*
X54937283Y-156733950D01*
X54967591Y-156755541D01*
X54990682Y-156780391D01*
X55007500Y-156812087D01*
X55018994Y-156854214D01*
X55026109Y-156910358D01*
X55029793Y-156984106D01*
X55030992Y-157079044D01*
X55031011Y-157088985D01*
X55031287Y-157312179D01*
X54892970Y-157312179D01*
X54892970Y-157106418D01*
X54892872Y-157030189D01*
X54892191Y-156974939D01*
X54890349Y-156936501D01*
X54886767Y-156910706D01*
X54880868Y-156893384D01*
X54872073Y-156880368D01*
X54859820Y-156867507D01*
X54816953Y-156839873D01*
X54770157Y-156834745D01*
X54725576Y-156852217D01*
X54710072Y-156865221D01*
X54698690Y-156877447D01*
X54690519Y-156890540D01*
X54685026Y-156908615D01*
X54681680Y-156935787D01*
X54679949Y-156976170D01*
X54679303Y-157033879D01*
X54679208Y-157104132D01*
X54679208Y-157312179D01*
X54540891Y-157312179D01*
X54540891Y-156708614D01*
X54610050Y-156708614D01*
X54651572Y-156710256D01*
X54672994Y-156716087D01*
X54679205Y-156727461D01*
X54679208Y-156727798D01*
X54682090Y-156738938D01*
X54694801Y-156737674D01*
X54720074Y-156725434D01*
X54777395Y-156707424D01*
X54842963Y-156705421D01*
X54905988Y-156719002D01*
G36*
X54905988Y-156719002D02*
G01*
X54937283Y-156733950D01*
X54967591Y-156755541D01*
X54990682Y-156780391D01*
X55007500Y-156812087D01*
X55018994Y-156854214D01*
X55026109Y-156910358D01*
X55029793Y-156984106D01*
X55030992Y-157079044D01*
X55031011Y-157088985D01*
X55031287Y-157312179D01*
X54892970Y-157312179D01*
X54892970Y-157106418D01*
X54892872Y-157030189D01*
X54892191Y-156974939D01*
X54890349Y-156936501D01*
X54886767Y-156910706D01*
X54880868Y-156893384D01*
X54872073Y-156880368D01*
X54859820Y-156867507D01*
X54816953Y-156839873D01*
X54770157Y-156834745D01*
X54725576Y-156852217D01*
X54710072Y-156865221D01*
X54698690Y-156877447D01*
X54690519Y-156890540D01*
X54685026Y-156908615D01*
X54681680Y-156935787D01*
X54679949Y-156976170D01*
X54679303Y-157033879D01*
X54679208Y-157104132D01*
X54679208Y-157312179D01*
X54540891Y-157312179D01*
X54540891Y-156708614D01*
X54610050Y-156708614D01*
X54651572Y-156710256D01*
X54672994Y-156716087D01*
X54679205Y-156727461D01*
X54679208Y-156727798D01*
X54682090Y-156738938D01*
X54694801Y-156737674D01*
X54720074Y-156725434D01*
X54777395Y-156707424D01*
X54842963Y-156705421D01*
X54905988Y-156719002D01*
G37*
X57877226Y-156713880D02*
X57950080Y-156744830D01*
X57973027Y-156759895D01*
X58002354Y-156783048D01*
X58020764Y-156801253D01*
X58023961Y-156807183D01*
X58014935Y-156820340D01*
X57991837Y-156842667D01*
X57973344Y-156858250D01*
X57922728Y-156898926D01*
X57882760Y-156865295D01*
X57851874Y-156843584D01*
X57821759Y-156836090D01*
X57787292Y-156837920D01*
X57732561Y-156851528D01*
X57694886Y-156879772D01*
X57671991Y-156925433D01*
X57661597Y-156991289D01*
X57661595Y-156991331D01*
X57662494Y-157064939D01*
X57676463Y-157118946D01*
X57704328Y-157155716D01*
X57723325Y-157168168D01*
X57773776Y-157183673D01*
X57827663Y-157183683D01*
X57874546Y-157168638D01*
X57885644Y-157161287D01*
X57913476Y-157142511D01*
X57935236Y-157139434D01*
X57958704Y-157153409D01*
X57984649Y-157178510D01*
X58025716Y-157220880D01*
X57980121Y-157258464D01*
X57909674Y-157300882D01*
X57830233Y-157321785D01*
X57747215Y-157320272D01*
X57692694Y-157306411D01*
X57628970Y-157272135D01*
X57578005Y-157218212D01*
X57554851Y-157180149D01*
X57536099Y-157125536D01*
X57526715Y-157056369D01*
X57526643Y-156981407D01*
X57535824Y-156909409D01*
X57554199Y-156849137D01*
X57557093Y-156842958D01*
X57599952Y-156782351D01*
X57657979Y-156738224D01*
X57726591Y-156711493D01*
X57801201Y-156703073D01*
X57877226Y-156713880D01*
G36*
X57877226Y-156713880D02*
G01*
X57950080Y-156744830D01*
X57973027Y-156759895D01*
X58002354Y-156783048D01*
X58020764Y-156801253D01*
X58023961Y-156807183D01*
X58014935Y-156820340D01*
X57991837Y-156842667D01*
X57973344Y-156858250D01*
X57922728Y-156898926D01*
X57882760Y-156865295D01*
X57851874Y-156843584D01*
X57821759Y-156836090D01*
X57787292Y-156837920D01*
X57732561Y-156851528D01*
X57694886Y-156879772D01*
X57671991Y-156925433D01*
X57661597Y-156991289D01*
X57661595Y-156991331D01*
X57662494Y-157064939D01*
X57676463Y-157118946D01*
X57704328Y-157155716D01*
X57723325Y-157168168D01*
X57773776Y-157183673D01*
X57827663Y-157183683D01*
X57874546Y-157168638D01*
X57885644Y-157161287D01*
X57913476Y-157142511D01*
X57935236Y-157139434D01*
X57958704Y-157153409D01*
X57984649Y-157178510D01*
X58025716Y-157220880D01*
X57980121Y-157258464D01*
X57909674Y-157300882D01*
X57830233Y-157321785D01*
X57747215Y-157320272D01*
X57692694Y-157306411D01*
X57628970Y-157272135D01*
X57578005Y-157218212D01*
X57554851Y-157180149D01*
X57536099Y-157125536D01*
X57526715Y-157056369D01*
X57526643Y-156981407D01*
X57535824Y-156909409D01*
X57554199Y-156849137D01*
X57557093Y-156842958D01*
X57599952Y-156782351D01*
X57657979Y-156738224D01*
X57726591Y-156711493D01*
X57801201Y-156703073D01*
X57877226Y-156713880D01*
G37*
X56270762Y-156716055D02*
X56334363Y-156750692D01*
X56384123Y-156805372D01*
X56407568Y-156849842D01*
X56417634Y-156889121D01*
X56424156Y-156945116D01*
X56426951Y-157009621D01*
X56425836Y-157074429D01*
X56420626Y-157131334D01*
X56414541Y-157161727D01*
X56394014Y-157203306D01*
X56358463Y-157247468D01*
X56315619Y-157286087D01*
X56273211Y-157311034D01*
X56272177Y-157311430D01*
X56219553Y-157322331D01*
X56157188Y-157322601D01*
X56097924Y-157312676D01*
X56075040Y-157304722D01*
X56016102Y-157271300D01*
X55973890Y-157227511D01*
X55946156Y-157169538D01*
X55930651Y-157093565D01*
X55927143Y-157053771D01*
X55927590Y-157003766D01*
X56062376Y-157003766D01*
X56066917Y-157076732D01*
X56079986Y-157132334D01*
X56100756Y-157167861D01*
X56115552Y-157178020D01*
X56153464Y-157185104D01*
X56198527Y-157183007D01*
X56237487Y-157172812D01*
X56247704Y-157167204D01*
X56274659Y-157134538D01*
X56292451Y-157084545D01*
X56300024Y-157023705D01*
X56296325Y-156958497D01*
X56288057Y-156919253D01*
X56264320Y-156873805D01*
X56226849Y-156845396D01*
X56181720Y-156835573D01*
X56135011Y-156845887D01*
X56099132Y-156871112D01*
X56080277Y-156891925D01*
X56069272Y-156912439D01*
X56064026Y-156940203D01*
X56062449Y-156982762D01*
X56062376Y-157003766D01*
X55927590Y-157003766D01*
X55928094Y-156947580D01*
X55945388Y-156860501D01*
X55979029Y-156792530D01*
X56029018Y-156743664D01*
X56095356Y-156713899D01*
X56109601Y-156710448D01*
X56195210Y-156702345D01*
X56270762Y-156716055D01*
G36*
X56270762Y-156716055D02*
G01*
X56334363Y-156750692D01*
X56384123Y-156805372D01*
X56407568Y-156849842D01*
X56417634Y-156889121D01*
X56424156Y-156945116D01*
X56426951Y-157009621D01*
X56425836Y-157074429D01*
X56420626Y-157131334D01*
X56414541Y-157161727D01*
X56394014Y-157203306D01*
X56358463Y-157247468D01*
X56315619Y-157286087D01*
X56273211Y-157311034D01*
X56272177Y-157311430D01*
X56219553Y-157322331D01*
X56157188Y-157322601D01*
X56097924Y-157312676D01*
X56075040Y-157304722D01*
X56016102Y-157271300D01*
X55973890Y-157227511D01*
X55946156Y-157169538D01*
X55930651Y-157093565D01*
X55927143Y-157053771D01*
X55927590Y-157003766D01*
X56062376Y-157003766D01*
X56066917Y-157076732D01*
X56079986Y-157132334D01*
X56100756Y-157167861D01*
X56115552Y-157178020D01*
X56153464Y-157185104D01*
X56198527Y-157183007D01*
X56237487Y-157172812D01*
X56247704Y-157167204D01*
X56274659Y-157134538D01*
X56292451Y-157084545D01*
X56300024Y-157023705D01*
X56296325Y-156958497D01*
X56288057Y-156919253D01*
X56264320Y-156873805D01*
X56226849Y-156845396D01*
X56181720Y-156835573D01*
X56135011Y-156845887D01*
X56099132Y-156871112D01*
X56080277Y-156891925D01*
X56069272Y-156912439D01*
X56064026Y-156940203D01*
X56062449Y-156982762D01*
X56062376Y-157003766D01*
X55927590Y-157003766D01*
X55928094Y-156947580D01*
X55945388Y-156860501D01*
X55979029Y-156792530D01*
X56029018Y-156743664D01*
X56095356Y-156713899D01*
X56109601Y-156710448D01*
X56195210Y-156702345D01*
X56270762Y-156716055D01*
G37*
X55941524Y-157654237D02*
X55991255Y-157657971D01*
X56121291Y-158047773D01*
X56141678Y-157978614D01*
X56153946Y-157935874D01*
X56170085Y-157878115D01*
X56187512Y-157814625D01*
X56196726Y-157780570D01*
X56231388Y-157651683D01*
X56374391Y-157651683D01*
X56331646Y-157786857D01*
X56310596Y-157853342D01*
X56285167Y-157933539D01*
X56258610Y-158017193D01*
X56234902Y-158091782D01*
X56180902Y-158261535D01*
X56122598Y-158265328D01*
X56064295Y-158269122D01*
X56032679Y-158164734D01*
X56013182Y-158099889D01*
X55991904Y-158028400D01*
X55973308Y-157965263D01*
X55972574Y-157962750D01*
X55958684Y-157919969D01*
X55946429Y-157890779D01*
X55937846Y-157879741D01*
X55936082Y-157881018D01*
X55929891Y-157898130D01*
X55918128Y-157934787D01*
X55902225Y-157986378D01*
X55883614Y-158048294D01*
X55873543Y-158082352D01*
X55819007Y-158267822D01*
X55703264Y-158267822D01*
X55610737Y-157975471D01*
X55584744Y-157893462D01*
X55561066Y-157818987D01*
X55540820Y-157755544D01*
X55525126Y-157706632D01*
X55515102Y-157675749D01*
X55512055Y-157666726D01*
X55514467Y-157657487D01*
X55533408Y-157653441D01*
X55572823Y-157653846D01*
X55578993Y-157654152D01*
X55652086Y-157657971D01*
X55699957Y-157834010D01*
X55717553Y-157898211D01*
X55733277Y-157954649D01*
X55745746Y-157998422D01*
X55753574Y-158024630D01*
X55755020Y-158028903D01*
X55761014Y-158023990D01*
X55773101Y-157998532D01*
X55789893Y-157955997D01*
X55810003Y-157899850D01*
X55827003Y-157849130D01*
X55891794Y-157650504D01*
X55941524Y-157654237D01*
G36*
X55941524Y-157654237D02*
G01*
X55991255Y-157657971D01*
X56121291Y-158047773D01*
X56141678Y-157978614D01*
X56153946Y-157935874D01*
X56170085Y-157878115D01*
X56187512Y-157814625D01*
X56196726Y-157780570D01*
X56231388Y-157651683D01*
X56374391Y-157651683D01*
X56331646Y-157786857D01*
X56310596Y-157853342D01*
X56285167Y-157933539D01*
X56258610Y-158017193D01*
X56234902Y-158091782D01*
X56180902Y-158261535D01*
X56122598Y-158265328D01*
X56064295Y-158269122D01*
X56032679Y-158164734D01*
X56013182Y-158099889D01*
X55991904Y-158028400D01*
X55973308Y-157965263D01*
X55972574Y-157962750D01*
X55958684Y-157919969D01*
X55946429Y-157890779D01*
X55937846Y-157879741D01*
X55936082Y-157881018D01*
X55929891Y-157898130D01*
X55918128Y-157934787D01*
X55902225Y-157986378D01*
X55883614Y-158048294D01*
X55873543Y-158082352D01*
X55819007Y-158267822D01*
X55703264Y-158267822D01*
X55610737Y-157975471D01*
X55584744Y-157893462D01*
X55561066Y-157818987D01*
X55540820Y-157755544D01*
X55525126Y-157706632D01*
X55515102Y-157675749D01*
X55512055Y-157666726D01*
X55514467Y-157657487D01*
X55533408Y-157653441D01*
X55572823Y-157653846D01*
X55578993Y-157654152D01*
X55652086Y-157657971D01*
X55699957Y-157834010D01*
X55717553Y-157898211D01*
X55733277Y-157954649D01*
X55745746Y-157998422D01*
X55753574Y-158024630D01*
X55755020Y-158028903D01*
X55761014Y-158023990D01*
X55773101Y-157998532D01*
X55789893Y-157955997D01*
X55810003Y-157899850D01*
X55827003Y-157849130D01*
X55891794Y-157650504D01*
X55941524Y-157654237D01*
G37*
X53121739Y-156715148D02*
X53187521Y-156744231D01*
X53237460Y-156792793D01*
X53271626Y-156860908D01*
X53290093Y-156948651D01*
X53291417Y-156962351D01*
X53292454Y-157058939D01*
X53279007Y-157143602D01*
X53251892Y-157212221D01*
X53237373Y-157234294D01*
X53186799Y-157281011D01*
X53122391Y-157311268D01*
X53050334Y-157323824D01*
X52976815Y-157317439D01*
X52920928Y-157297772D01*
X52872868Y-157264629D01*
X52833588Y-157221175D01*
X52832908Y-157220158D01*
X52816956Y-157193338D01*
X52806590Y-157166368D01*
X52800312Y-157132332D01*
X52796627Y-157084310D01*
X52795003Y-157044931D01*
X52794328Y-157009219D01*
X52920045Y-157009219D01*
X52921274Y-157044770D01*
X52925734Y-157092094D01*
X52933603Y-157122465D01*
X52947793Y-157144072D01*
X52961083Y-157156694D01*
X53008198Y-157183122D01*
X53057495Y-157186653D01*
X53103407Y-157167639D01*
X53126362Y-157146331D01*
X53142904Y-157124859D01*
X53152579Y-157104313D01*
X53156826Y-157077574D01*
X53157080Y-157037523D01*
X53155772Y-157000638D01*
X53152957Y-156947947D01*
X53148495Y-156913772D01*
X53140452Y-156891480D01*
X53126897Y-156874442D01*
X53116155Y-156864703D01*
X53071223Y-156839123D01*
X53022751Y-156837847D01*
X52982106Y-156852999D01*
X52947433Y-156884642D01*
X52926776Y-156936620D01*
X52920045Y-157009219D01*
X52794328Y-157009219D01*
X52793521Y-156966621D01*
X52796052Y-156908056D01*
X52803638Y-156864007D01*
X52817319Y-156829248D01*
X52838135Y-156798551D01*
X52845853Y-156789436D01*
X52894111Y-156744021D01*
X52945872Y-156717493D01*
X53009172Y-156706379D01*
X53040039Y-156705471D01*
X53121739Y-156715148D01*
G36*
X53121739Y-156715148D02*
G01*
X53187521Y-156744231D01*
X53237460Y-156792793D01*
X53271626Y-156860908D01*
X53290093Y-156948651D01*
X53291417Y-156962351D01*
X53292454Y-157058939D01*
X53279007Y-157143602D01*
X53251892Y-157212221D01*
X53237373Y-157234294D01*
X53186799Y-157281011D01*
X53122391Y-157311268D01*
X53050334Y-157323824D01*
X52976815Y-157317439D01*
X52920928Y-157297772D01*
X52872868Y-157264629D01*
X52833588Y-157221175D01*
X52832908Y-157220158D01*
X52816956Y-157193338D01*
X52806590Y-157166368D01*
X52800312Y-157132332D01*
X52796627Y-157084310D01*
X52795003Y-157044931D01*
X52794328Y-157009219D01*
X52920045Y-157009219D01*
X52921274Y-157044770D01*
X52925734Y-157092094D01*
X52933603Y-157122465D01*
X52947793Y-157144072D01*
X52961083Y-157156694D01*
X53008198Y-157183122D01*
X53057495Y-157186653D01*
X53103407Y-157167639D01*
X53126362Y-157146331D01*
X53142904Y-157124859D01*
X53152579Y-157104313D01*
X53156826Y-157077574D01*
X53157080Y-157037523D01*
X53155772Y-157000638D01*
X53152957Y-156947947D01*
X53148495Y-156913772D01*
X53140452Y-156891480D01*
X53126897Y-156874442D01*
X53116155Y-156864703D01*
X53071223Y-156839123D01*
X53022751Y-156837847D01*
X52982106Y-156852999D01*
X52947433Y-156884642D01*
X52926776Y-156936620D01*
X52920045Y-157009219D01*
X52794328Y-157009219D01*
X52793521Y-156966621D01*
X52796052Y-156908056D01*
X52803638Y-156864007D01*
X52817319Y-156829248D01*
X52838135Y-156798551D01*
X52845853Y-156789436D01*
X52894111Y-156744021D01*
X52945872Y-156717493D01*
X53009172Y-156706379D01*
X53040039Y-156705471D01*
X53121739Y-156715148D01*
G37*
X55458812Y-158267822D02*
X55389654Y-158267822D01*
X55349512Y-158266645D01*
X55328606Y-158261772D01*
X55321078Y-158251186D01*
X55320495Y-158244029D01*
X55319226Y-158229676D01*
X55311221Y-158226923D01*
X55290185Y-158235771D01*
X55273827Y-158244029D01*
X55211023Y-158263597D01*
X55142752Y-158264729D01*
X55087248Y-158250135D01*
X55035562Y-158214877D01*
X54996162Y-158162835D01*
X54974587Y-158101450D01*
X54974038Y-158098018D01*
X54970833Y-158060571D01*
X54969239Y-158006813D01*
X54969367Y-157966155D01*
X55106721Y-157966155D01*
X55109903Y-158020194D01*
X55117141Y-158064735D01*
X55126940Y-158089888D01*
X55164011Y-158124260D01*
X55208026Y-158136582D01*
X55253416Y-158126618D01*
X55292203Y-158096895D01*
X55306892Y-158076905D01*
X55315481Y-158053050D01*
X55319504Y-158018230D01*
X55320495Y-157965930D01*
X55318722Y-157914139D01*
X55314037Y-157868634D01*
X55307397Y-157838181D01*
X55306290Y-157835452D01*
X55279509Y-157803000D01*
X55240421Y-157785183D01*
X55196685Y-157782306D01*
X55155962Y-157794674D01*
X55125913Y-157822593D01*
X55122796Y-157828148D01*
X55113039Y-157862022D01*
X55107723Y-157910728D01*
X55106721Y-157966155D01*
X54969367Y-157966155D01*
X54969432Y-157945540D01*
X54970336Y-157912563D01*
X54976486Y-157830981D01*
X54989267Y-157769730D01*
X55010529Y-157724449D01*
X55042122Y-157690779D01*
X55072793Y-157671014D01*
X55115646Y-157657120D01*
X55168944Y-157652354D01*
X55223520Y-157656236D01*
X55270208Y-157668282D01*
X55294876Y-157682693D01*
X55320495Y-157705878D01*
X55320495Y-157412773D01*
X55458812Y-157412773D01*
X55458812Y-158267822D01*
G36*
X55458812Y-158267822D02*
G01*
X55389654Y-158267822D01*
X55349512Y-158266645D01*
X55328606Y-158261772D01*
X55321078Y-158251186D01*
X55320495Y-158244029D01*
X55319226Y-158229676D01*
X55311221Y-158226923D01*
X55290185Y-158235771D01*
X55273827Y-158244029D01*
X55211023Y-158263597D01*
X55142752Y-158264729D01*
X55087248Y-158250135D01*
X55035562Y-158214877D01*
X54996162Y-158162835D01*
X54974587Y-158101450D01*
X54974038Y-158098018D01*
X54970833Y-158060571D01*
X54969239Y-158006813D01*
X54969367Y-157966155D01*
X55106721Y-157966155D01*
X55109903Y-158020194D01*
X55117141Y-158064735D01*
X55126940Y-158089888D01*
X55164011Y-158124260D01*
X55208026Y-158136582D01*
X55253416Y-158126618D01*
X55292203Y-158096895D01*
X55306892Y-158076905D01*
X55315481Y-158053050D01*
X55319504Y-158018230D01*
X55320495Y-157965930D01*
X55318722Y-157914139D01*
X55314037Y-157868634D01*
X55307397Y-157838181D01*
X55306290Y-157835452D01*
X55279509Y-157803000D01*
X55240421Y-157785183D01*
X55196685Y-157782306D01*
X55155962Y-157794674D01*
X55125913Y-157822593D01*
X55122796Y-157828148D01*
X55113039Y-157862022D01*
X55107723Y-157910728D01*
X55106721Y-157966155D01*
X54969367Y-157966155D01*
X54969432Y-157945540D01*
X54970336Y-157912563D01*
X54976486Y-157830981D01*
X54989267Y-157769730D01*
X55010529Y-157724449D01*
X55042122Y-157690779D01*
X55072793Y-157671014D01*
X55115646Y-157657120D01*
X55168944Y-157652354D01*
X55223520Y-157656236D01*
X55270208Y-157668282D01*
X55294876Y-157682693D01*
X55320495Y-157705878D01*
X55320495Y-157412773D01*
X55458812Y-157412773D01*
X55458812Y-158267822D01*
G37*
X58337898Y-156706457D02*
X58370096Y-156714279D01*
X58431825Y-156742921D01*
X58484610Y-156786667D01*
X58521141Y-156839117D01*
X58526160Y-156850893D01*
X58533045Y-156881740D01*
X58537864Y-156927371D01*
X58539505Y-156973492D01*
X58539505Y-157060693D01*
X58357178Y-157060693D01*
X58281979Y-157060978D01*
X58229003Y-157062704D01*
X58195325Y-157067181D01*
X58178020Y-157075720D01*
X58174163Y-157089630D01*
X58180829Y-157110222D01*
X58192770Y-157134315D01*
X58226080Y-157174525D01*
X58272368Y-157194558D01*
X58328944Y-157193905D01*
X58393031Y-157172101D01*
X58448417Y-157145193D01*
X58494375Y-157181532D01*
X58540333Y-157217872D01*
X58497096Y-157257819D01*
X58439374Y-157295563D01*
X58368386Y-157318320D01*
X58292029Y-157324688D01*
X58218199Y-157313268D01*
X58206287Y-157309393D01*
X58141399Y-157275506D01*
X58093130Y-157224986D01*
X58060465Y-157156325D01*
X58042385Y-157068014D01*
X58042175Y-157066121D01*
X58040556Y-156969878D01*
X58047100Y-156935542D01*
X58174852Y-156935542D01*
X58186584Y-156940822D01*
X58218438Y-156944867D01*
X58265397Y-156947176D01*
X58295154Y-156947525D01*
X58350648Y-156947306D01*
X58385346Y-156945916D01*
X58403601Y-156942251D01*
X58409766Y-156935210D01*
X58408195Y-156923690D01*
X58406878Y-156919233D01*
X58384382Y-156877355D01*
X58349003Y-156843604D01*
X58317780Y-156828773D01*
X58276301Y-156829668D01*
X58234269Y-156848164D01*
X58199012Y-156878786D01*
X58177854Y-156916062D01*
X58174852Y-156935542D01*
X58047100Y-156935542D01*
X58056690Y-156885229D01*
X58088698Y-156814191D01*
X58134701Y-156758779D01*
X58192821Y-156721009D01*
X58261180Y-156702896D01*
X58337898Y-156706457D01*
G36*
X58337898Y-156706457D02*
G01*
X58370096Y-156714279D01*
X58431825Y-156742921D01*
X58484610Y-156786667D01*
X58521141Y-156839117D01*
X58526160Y-156850893D01*
X58533045Y-156881740D01*
X58537864Y-156927371D01*
X58539505Y-156973492D01*
X58539505Y-157060693D01*
X58357178Y-157060693D01*
X58281979Y-157060978D01*
X58229003Y-157062704D01*
X58195325Y-157067181D01*
X58178020Y-157075720D01*
X58174163Y-157089630D01*
X58180829Y-157110222D01*
X58192770Y-157134315D01*
X58226080Y-157174525D01*
X58272368Y-157194558D01*
X58328944Y-157193905D01*
X58393031Y-157172101D01*
X58448417Y-157145193D01*
X58494375Y-157181532D01*
X58540333Y-157217872D01*
X58497096Y-157257819D01*
X58439374Y-157295563D01*
X58368386Y-157318320D01*
X58292029Y-157324688D01*
X58218199Y-157313268D01*
X58206287Y-157309393D01*
X58141399Y-157275506D01*
X58093130Y-157224986D01*
X58060465Y-157156325D01*
X58042385Y-157068014D01*
X58042175Y-157066121D01*
X58040556Y-156969878D01*
X58047100Y-156935542D01*
X58174852Y-156935542D01*
X58186584Y-156940822D01*
X58218438Y-156944867D01*
X58265397Y-156947176D01*
X58295154Y-156947525D01*
X58350648Y-156947306D01*
X58385346Y-156945916D01*
X58403601Y-156942251D01*
X58409766Y-156935210D01*
X58408195Y-156923690D01*
X58406878Y-156919233D01*
X58384382Y-156877355D01*
X58349003Y-156843604D01*
X58317780Y-156828773D01*
X58276301Y-156829668D01*
X58234269Y-156848164D01*
X58199012Y-156878786D01*
X58177854Y-156916062D01*
X58174852Y-156935542D01*
X58047100Y-156935542D01*
X58056690Y-156885229D01*
X58088698Y-156814191D01*
X58134701Y-156758779D01*
X58192821Y-156721009D01*
X58261180Y-156702896D01*
X58337898Y-156706457D01*
G37*
X55674017Y-156706452D02*
X55721634Y-156715482D01*
X55771034Y-156734370D01*
X55776312Y-156736777D01*
X55813774Y-156756476D01*
X55839717Y-156774781D01*
X55848103Y-156786508D01*
X55840117Y-156805632D01*
X55820720Y-156833850D01*
X55812110Y-156844384D01*
X55776628Y-156885847D01*
X55730885Y-156858858D01*
X55687350Y-156840878D01*
X55637050Y-156831267D01*
X55588812Y-156830660D01*
X55551467Y-156839691D01*
X55542505Y-156845327D01*
X55525437Y-156871171D01*
X55523363Y-156900941D01*
X55536134Y-156924197D01*
X55543688Y-156928708D01*
X55566325Y-156934309D01*
X55606115Y-156940892D01*
X55655166Y-156947183D01*
X55664215Y-156948170D01*
X55742996Y-156961798D01*
X55800136Y-156984946D01*
X55838030Y-157019752D01*
X55859079Y-157068354D01*
X55865635Y-157127718D01*
X55856577Y-157195198D01*
X55827164Y-157248188D01*
X55777278Y-157286783D01*
X55706800Y-157311081D01*
X55628565Y-157320667D01*
X55564766Y-157320552D01*
X55513016Y-157311845D01*
X55477673Y-157299825D01*
X55433017Y-157278880D01*
X55391747Y-157254574D01*
X55377079Y-157243876D01*
X55339357Y-157213084D01*
X55384852Y-157167049D01*
X55430347Y-157121013D01*
X55482072Y-157155243D01*
X55533952Y-157180952D01*
X55589351Y-157194399D01*
X55642605Y-157195818D01*
X55688049Y-157185443D01*
X55720016Y-157163507D01*
X55730338Y-157144998D01*
X55728789Y-157115314D01*
X55703140Y-157092615D01*
X55653460Y-157076940D01*
X55599031Y-157069695D01*
X55515264Y-157055873D01*
X55453033Y-157029796D01*
X55411507Y-156990699D01*
X55389853Y-156937820D01*
X55386853Y-156875126D01*
X55401671Y-156809642D01*
X55435454Y-156760144D01*
X55488505Y-156726408D01*
X55561126Y-156708207D01*
X55614928Y-156704639D01*
X55674017Y-156706452D01*
G36*
X55674017Y-156706452D02*
G01*
X55721634Y-156715482D01*
X55771034Y-156734370D01*
X55776312Y-156736777D01*
X55813774Y-156756476D01*
X55839717Y-156774781D01*
X55848103Y-156786508D01*
X55840117Y-156805632D01*
X55820720Y-156833850D01*
X55812110Y-156844384D01*
X55776628Y-156885847D01*
X55730885Y-156858858D01*
X55687350Y-156840878D01*
X55637050Y-156831267D01*
X55588812Y-156830660D01*
X55551467Y-156839691D01*
X55542505Y-156845327D01*
X55525437Y-156871171D01*
X55523363Y-156900941D01*
X55536134Y-156924197D01*
X55543688Y-156928708D01*
X55566325Y-156934309D01*
X55606115Y-156940892D01*
X55655166Y-156947183D01*
X55664215Y-156948170D01*
X55742996Y-156961798D01*
X55800136Y-156984946D01*
X55838030Y-157019752D01*
X55859079Y-157068354D01*
X55865635Y-157127718D01*
X55856577Y-157195198D01*
X55827164Y-157248188D01*
X55777278Y-157286783D01*
X55706800Y-157311081D01*
X55628565Y-157320667D01*
X55564766Y-157320552D01*
X55513016Y-157311845D01*
X55477673Y-157299825D01*
X55433017Y-157278880D01*
X55391747Y-157254574D01*
X55377079Y-157243876D01*
X55339357Y-157213084D01*
X55384852Y-157167049D01*
X55430347Y-157121013D01*
X55482072Y-157155243D01*
X55533952Y-157180952D01*
X55589351Y-157194399D01*
X55642605Y-157195818D01*
X55688049Y-157185443D01*
X55720016Y-157163507D01*
X55730338Y-157144998D01*
X55728789Y-157115314D01*
X55703140Y-157092615D01*
X55653460Y-157076940D01*
X55599031Y-157069695D01*
X55515264Y-157055873D01*
X55453033Y-157029796D01*
X55411507Y-156990699D01*
X55389853Y-156937820D01*
X55386853Y-156875126D01*
X55401671Y-156809642D01*
X55435454Y-156760144D01*
X55488505Y-156726408D01*
X55561126Y-156708207D01*
X55614928Y-156704639D01*
X55674017Y-156706452D01*
G37*
X57692581Y-157654970D02*
X57752685Y-157670597D01*
X57803021Y-157702848D01*
X57827393Y-157726940D01*
X57867345Y-157783895D01*
X57890242Y-157849965D01*
X57898108Y-157931182D01*
X57898148Y-157937748D01*
X57898218Y-158003763D01*
X57518264Y-158003763D01*
X57526363Y-158038342D01*
X57540987Y-158069659D01*
X57566581Y-158102291D01*
X57571935Y-158107500D01*
X57617943Y-158135694D01*
X57670410Y-158140475D01*
X57730803Y-158121926D01*
X57741040Y-158116931D01*
X57772439Y-158101745D01*
X57793470Y-158093094D01*
X57797139Y-158092293D01*
X57809948Y-158100063D01*
X57834378Y-158119072D01*
X57846779Y-158129460D01*
X57872476Y-158153321D01*
X57880915Y-158169077D01*
X57875058Y-158183571D01*
X57871928Y-158187534D01*
X57850725Y-158204879D01*
X57815738Y-158225959D01*
X57791337Y-158238265D01*
X57722072Y-158259946D01*
X57645388Y-158266971D01*
X57572765Y-158258647D01*
X57552426Y-158252686D01*
X57489476Y-158218952D01*
X57442815Y-158167045D01*
X57412173Y-158096459D01*
X57397282Y-158006692D01*
X57395647Y-157959753D01*
X57400421Y-157891413D01*
X57520990Y-157891413D01*
X57532652Y-157896465D01*
X57563998Y-157900429D01*
X57609571Y-157902768D01*
X57640446Y-157903169D01*
X57695981Y-157902783D01*
X57731033Y-157900975D01*
X57750262Y-157896773D01*
X57758330Y-157889203D01*
X57759901Y-157878218D01*
X57749121Y-157844381D01*
X57721980Y-157810940D01*
X57686277Y-157785272D01*
X57650560Y-157774772D01*
X57602048Y-157784086D01*
X57560053Y-157811013D01*
X57530936Y-157849827D01*
X57520990Y-157891413D01*
X57400421Y-157891413D01*
X57402599Y-157860236D01*
X57424055Y-157780949D01*
X57460470Y-157721263D01*
X57512297Y-157680549D01*
X57579990Y-157658179D01*
X57616662Y-157653871D01*
X57692581Y-157654970D01*
G36*
X57692581Y-157654970D02*
G01*
X57752685Y-157670597D01*
X57803021Y-157702848D01*
X57827393Y-157726940D01*
X57867345Y-157783895D01*
X57890242Y-157849965D01*
X57898108Y-157931182D01*
X57898148Y-157937748D01*
X57898218Y-158003763D01*
X57518264Y-158003763D01*
X57526363Y-158038342D01*
X57540987Y-158069659D01*
X57566581Y-158102291D01*
X57571935Y-158107500D01*
X57617943Y-158135694D01*
X57670410Y-158140475D01*
X57730803Y-158121926D01*
X57741040Y-158116931D01*
X57772439Y-158101745D01*
X57793470Y-158093094D01*
X57797139Y-158092293D01*
X57809948Y-158100063D01*
X57834378Y-158119072D01*
X57846779Y-158129460D01*
X57872476Y-158153321D01*
X57880915Y-158169077D01*
X57875058Y-158183571D01*
X57871928Y-158187534D01*
X57850725Y-158204879D01*
X57815738Y-158225959D01*
X57791337Y-158238265D01*
X57722072Y-158259946D01*
X57645388Y-158266971D01*
X57572765Y-158258647D01*
X57552426Y-158252686D01*
X57489476Y-158218952D01*
X57442815Y-158167045D01*
X57412173Y-158096459D01*
X57397282Y-158006692D01*
X57395647Y-157959753D01*
X57400421Y-157891413D01*
X57520990Y-157891413D01*
X57532652Y-157896465D01*
X57563998Y-157900429D01*
X57609571Y-157902768D01*
X57640446Y-157903169D01*
X57695981Y-157902783D01*
X57731033Y-157900975D01*
X57750262Y-157896773D01*
X57758330Y-157889203D01*
X57759901Y-157878218D01*
X57749121Y-157844381D01*
X57721980Y-157810940D01*
X57686277Y-157785272D01*
X57650560Y-157774772D01*
X57602048Y-157784086D01*
X57560053Y-157811013D01*
X57530936Y-157849827D01*
X57520990Y-157891413D01*
X57400421Y-157891413D01*
X57402599Y-157860236D01*
X57424055Y-157780949D01*
X57460470Y-157721263D01*
X57512297Y-157680549D01*
X57579990Y-157658179D01*
X57616662Y-157653871D01*
X57692581Y-157654970D01*
G37*
X54303301Y-156722614D02*
X54315832Y-156728514D01*
X54359201Y-156760283D01*
X54400210Y-156806646D01*
X54430832Y-156857696D01*
X54439541Y-156881166D01*
X54447488Y-156923091D01*
X54452226Y-156973757D01*
X54452801Y-156994679D01*
X54452871Y-157060693D01*
X54072917Y-157060693D01*
X54081017Y-157095273D01*
X54100896Y-157136170D01*
X54135653Y-157171514D01*
X54177002Y-157194282D01*
X54203351Y-157199010D01*
X54239084Y-157193273D01*
X54281718Y-157178882D01*
X54296201Y-157172262D01*
X54349760Y-157145513D01*
X54395467Y-157180376D01*
X54421842Y-157203955D01*
X54435876Y-157223417D01*
X54436586Y-157229129D01*
X54424049Y-157242973D01*
X54396572Y-157264012D01*
X54371634Y-157280425D01*
X54304336Y-157309930D01*
X54228890Y-157323284D01*
X54154112Y-157319812D01*
X54094505Y-157301663D01*
X54033059Y-157262784D01*
X53989392Y-157211595D01*
X53962074Y-157145367D01*
X53949678Y-157061371D01*
X53948579Y-157022936D01*
X53952978Y-156934861D01*
X53953518Y-156932299D01*
X54079418Y-156932299D01*
X54082885Y-156940558D01*
X54097137Y-156945113D01*
X54126530Y-156947065D01*
X54175425Y-156947517D01*
X54194252Y-156947525D01*
X54251533Y-156946843D01*
X54287859Y-156944364D01*
X54307396Y-156939443D01*
X54314310Y-156931434D01*
X54314555Y-156928862D01*
X54306664Y-156908423D01*
X54286915Y-156879789D01*
X54278425Y-156869763D01*
X54246906Y-156841408D01*
X54214051Y-156830259D01*
X54196349Y-156829327D01*
X54148461Y-156840981D01*
X54108301Y-156872285D01*
X54082827Y-156917752D01*
X54082375Y-156919233D01*
X54079418Y-156932299D01*
X53953518Y-156932299D01*
X53967608Y-156865510D01*
X53993962Y-156810025D01*
X54026193Y-156770639D01*
X54085783Y-156727931D01*
X54155832Y-156705109D01*
X54230339Y-156703046D01*
X54303301Y-156722614D01*
G36*
X54303301Y-156722614D02*
G01*
X54315832Y-156728514D01*
X54359201Y-156760283D01*
X54400210Y-156806646D01*
X54430832Y-156857696D01*
X54439541Y-156881166D01*
X54447488Y-156923091D01*
X54452226Y-156973757D01*
X54452801Y-156994679D01*
X54452871Y-157060693D01*
X54072917Y-157060693D01*
X54081017Y-157095273D01*
X54100896Y-157136170D01*
X54135653Y-157171514D01*
X54177002Y-157194282D01*
X54203351Y-157199010D01*
X54239084Y-157193273D01*
X54281718Y-157178882D01*
X54296201Y-157172262D01*
X54349760Y-157145513D01*
X54395467Y-157180376D01*
X54421842Y-157203955D01*
X54435876Y-157223417D01*
X54436586Y-157229129D01*
X54424049Y-157242973D01*
X54396572Y-157264012D01*
X54371634Y-157280425D01*
X54304336Y-157309930D01*
X54228890Y-157323284D01*
X54154112Y-157319812D01*
X54094505Y-157301663D01*
X54033059Y-157262784D01*
X53989392Y-157211595D01*
X53962074Y-157145367D01*
X53949678Y-157061371D01*
X53948579Y-157022936D01*
X53952978Y-156934861D01*
X53953518Y-156932299D01*
X54079418Y-156932299D01*
X54082885Y-156940558D01*
X54097137Y-156945113D01*
X54126530Y-156947065D01*
X54175425Y-156947517D01*
X54194252Y-156947525D01*
X54251533Y-156946843D01*
X54287859Y-156944364D01*
X54307396Y-156939443D01*
X54314310Y-156931434D01*
X54314555Y-156928862D01*
X54306664Y-156908423D01*
X54286915Y-156879789D01*
X54278425Y-156869763D01*
X54246906Y-156841408D01*
X54214051Y-156830259D01*
X54196349Y-156829327D01*
X54148461Y-156840981D01*
X54108301Y-156872285D01*
X54082827Y-156917752D01*
X54082375Y-156919233D01*
X54079418Y-156932299D01*
X53953518Y-156932299D01*
X53967608Y-156865510D01*
X53993962Y-156810025D01*
X54026193Y-156770639D01*
X54085783Y-156727931D01*
X54155832Y-156705109D01*
X54230339Y-156703046D01*
X54303301Y-156722614D01*
G37*
X56698411Y-157655417D02*
X56751411Y-157668290D01*
X56766731Y-157675110D01*
X56796428Y-157692974D01*
X56819220Y-157713093D01*
X56836083Y-157738962D01*
X56847998Y-157774073D01*
X56855942Y-157821920D01*
X56860894Y-157885996D01*
X56863831Y-157969794D01*
X56864947Y-158025768D01*
X56869052Y-158267822D01*
X56798932Y-158267822D01*
X56756393Y-158266038D01*
X56734476Y-158259942D01*
X56728812Y-158249706D01*
X56725821Y-158238637D01*
X56712451Y-158240754D01*
X56694233Y-158249629D01*
X56648624Y-158263233D01*
X56590007Y-158266899D01*
X56528354Y-158260903D01*
X56473638Y-158245521D01*
X56468730Y-158243386D01*
X56418723Y-158208255D01*
X56385756Y-158159419D01*
X56370587Y-158102333D01*
X56371746Y-158081824D01*
X56495508Y-158081824D01*
X56506413Y-158109425D01*
X56538745Y-158129204D01*
X56590910Y-158139819D01*
X56618787Y-158141228D01*
X56665247Y-158137620D01*
X56696129Y-158123597D01*
X56703664Y-158116931D01*
X56724076Y-158080666D01*
X56728812Y-158047773D01*
X56728812Y-158003763D01*
X56667513Y-158003763D01*
X56596256Y-158007395D01*
X56546276Y-158018818D01*
X56514696Y-158038824D01*
X56507626Y-158047743D01*
X56495508Y-158081824D01*
X56371746Y-158081824D01*
X56373971Y-158042456D01*
X56396663Y-157985244D01*
X56427624Y-157946580D01*
X56446376Y-157929864D01*
X56464733Y-157918878D01*
X56488619Y-157912180D01*
X56523957Y-157908326D01*
X56576669Y-157905873D01*
X56597577Y-157905168D01*
X56728812Y-157900879D01*
X56728620Y-157861158D01*
X56723537Y-157819405D01*
X56705162Y-157794158D01*
X56668039Y-157778030D01*
X56667043Y-157777742D01*
X56614410Y-157771400D01*
X56562906Y-157779684D01*
X56524630Y-157799827D01*
X56509272Y-157809773D01*
X56492730Y-157808397D01*
X56467275Y-157793987D01*
X56452328Y-157783817D01*
X56423091Y-157762088D01*
X56404980Y-157745800D01*
X56402074Y-157741137D01*
X56414040Y-157717005D01*
X56449396Y-157688185D01*
X56464753Y-157678461D01*
X56508901Y-157661714D01*
X56568398Y-157652227D01*
X56634487Y-157650095D01*
X56698411Y-157655417D01*
G36*
X56698411Y-157655417D02*
G01*
X56751411Y-157668290D01*
X56766731Y-157675110D01*
X56796428Y-157692974D01*
X56819220Y-157713093D01*
X56836083Y-157738962D01*
X56847998Y-157774073D01*
X56855942Y-157821920D01*
X56860894Y-157885996D01*
X56863831Y-157969794D01*
X56864947Y-158025768D01*
X56869052Y-158267822D01*
X56798932Y-158267822D01*
X56756393Y-158266038D01*
X56734476Y-158259942D01*
X56728812Y-158249706D01*
X56725821Y-158238637D01*
X56712451Y-158240754D01*
X56694233Y-158249629D01*
X56648624Y-158263233D01*
X56590007Y-158266899D01*
X56528354Y-158260903D01*
X56473638Y-158245521D01*
X56468730Y-158243386D01*
X56418723Y-158208255D01*
X56385756Y-158159419D01*
X56370587Y-158102333D01*
X56371746Y-158081824D01*
X56495508Y-158081824D01*
X56506413Y-158109425D01*
X56538745Y-158129204D01*
X56590910Y-158139819D01*
X56618787Y-158141228D01*
X56665247Y-158137620D01*
X56696129Y-158123597D01*
X56703664Y-158116931D01*
X56724076Y-158080666D01*
X56728812Y-158047773D01*
X56728812Y-158003763D01*
X56667513Y-158003763D01*
X56596256Y-158007395D01*
X56546276Y-158018818D01*
X56514696Y-158038824D01*
X56507626Y-158047743D01*
X56495508Y-158081824D01*
X56371746Y-158081824D01*
X56373971Y-158042456D01*
X56396663Y-157985244D01*
X56427624Y-157946580D01*
X56446376Y-157929864D01*
X56464733Y-157918878D01*
X56488619Y-157912180D01*
X56523957Y-157908326D01*
X56576669Y-157905873D01*
X56597577Y-157905168D01*
X56728812Y-157900879D01*
X56728620Y-157861158D01*
X56723537Y-157819405D01*
X56705162Y-157794158D01*
X56668039Y-157778030D01*
X56667043Y-157777742D01*
X56614410Y-157771400D01*
X56562906Y-157779684D01*
X56524630Y-157799827D01*
X56509272Y-157809773D01*
X56492730Y-157808397D01*
X56467275Y-157793987D01*
X56452328Y-157783817D01*
X56423091Y-157762088D01*
X56404980Y-157745800D01*
X56402074Y-157741137D01*
X56414040Y-157717005D01*
X56449396Y-157688185D01*
X56464753Y-157678461D01*
X56508901Y-157661714D01*
X56568398Y-157652227D01*
X56634487Y-157650095D01*
X56698411Y-157655417D01*
G37*
X54275790Y-157656555D02*
X54334945Y-157672339D01*
X54379977Y-157700948D01*
X54411754Y-157738419D01*
X54421634Y-157754411D01*
X54428927Y-157771163D01*
X54434026Y-157792592D01*
X54437321Y-157822616D01*
X54439203Y-157865154D01*
X54440063Y-157924122D01*
X54440293Y-158003440D01*
X54440297Y-158024484D01*
X54440297Y-158267822D01*
X54379941Y-158267822D01*
X54341443Y-158265126D01*
X54312977Y-158258295D01*
X54305845Y-158254083D01*
X54286348Y-158246813D01*
X54266434Y-158254083D01*
X54233647Y-158263160D01*
X54186022Y-158266813D01*
X54133236Y-158265228D01*
X54084964Y-158258589D01*
X54056782Y-158250072D01*
X54002247Y-158215063D01*
X53968165Y-158166479D01*
X53952843Y-158101882D01*
X53952701Y-158100223D01*
X53954045Y-158071566D01*
X54075644Y-158071566D01*
X54086274Y-158104161D01*
X54103590Y-158122505D01*
X54138348Y-158136379D01*
X54184227Y-158141917D01*
X54231012Y-158139191D01*
X54268486Y-158128274D01*
X54278985Y-158121269D01*
X54297332Y-158088904D01*
X54301980Y-158052111D01*
X54301980Y-158003763D01*
X54232418Y-158003763D01*
X54166333Y-158008850D01*
X54116236Y-158023263D01*
X54085071Y-158045729D01*
X54075644Y-158071566D01*
X53954045Y-158071566D01*
X53956013Y-158029647D01*
X53979290Y-157973845D01*
X54023052Y-157931647D01*
X54029101Y-157927808D01*
X54055093Y-157915309D01*
X54087265Y-157907740D01*
X54132240Y-157904061D01*
X54185669Y-157903216D01*
X54301980Y-157903169D01*
X54301980Y-157854411D01*
X54297047Y-157816581D01*
X54284457Y-157791236D01*
X54282983Y-157789887D01*
X54254966Y-157778800D01*
X54212674Y-157774503D01*
X54165936Y-157776615D01*
X54124582Y-157784756D01*
X54100043Y-157796965D01*
X54086747Y-157806746D01*
X54072706Y-157808613D01*
X54053329Y-157800600D01*
X54024024Y-157780739D01*
X53980197Y-157747063D01*
X53976175Y-157743909D01*
X53978236Y-157732236D01*
X53995432Y-157712822D01*
X54021567Y-157691248D01*
X54050448Y-157673096D01*
X54059522Y-157668809D01*
X54092620Y-157660256D01*
X54141120Y-157654155D01*
X54195305Y-157651708D01*
X54197839Y-157651703D01*
X54275790Y-157656555D01*
G36*
X54275790Y-157656555D02*
G01*
X54334945Y-157672339D01*
X54379977Y-157700948D01*
X54411754Y-157738419D01*
X54421634Y-157754411D01*
X54428927Y-157771163D01*
X54434026Y-157792592D01*
X54437321Y-157822616D01*
X54439203Y-157865154D01*
X54440063Y-157924122D01*
X54440293Y-158003440D01*
X54440297Y-158024484D01*
X54440297Y-158267822D01*
X54379941Y-158267822D01*
X54341443Y-158265126D01*
X54312977Y-158258295D01*
X54305845Y-158254083D01*
X54286348Y-158246813D01*
X54266434Y-158254083D01*
X54233647Y-158263160D01*
X54186022Y-158266813D01*
X54133236Y-158265228D01*
X54084964Y-158258589D01*
X54056782Y-158250072D01*
X54002247Y-158215063D01*
X53968165Y-158166479D01*
X53952843Y-158101882D01*
X53952701Y-158100223D01*
X53954045Y-158071566D01*
X54075644Y-158071566D01*
X54086274Y-158104161D01*
X54103590Y-158122505D01*
X54138348Y-158136379D01*
X54184227Y-158141917D01*
X54231012Y-158139191D01*
X54268486Y-158128274D01*
X54278985Y-158121269D01*
X54297332Y-158088904D01*
X54301980Y-158052111D01*
X54301980Y-158003763D01*
X54232418Y-158003763D01*
X54166333Y-158008850D01*
X54116236Y-158023263D01*
X54085071Y-158045729D01*
X54075644Y-158071566D01*
X53954045Y-158071566D01*
X53956013Y-158029647D01*
X53979290Y-157973845D01*
X54023052Y-157931647D01*
X54029101Y-157927808D01*
X54055093Y-157915309D01*
X54087265Y-157907740D01*
X54132240Y-157904061D01*
X54185669Y-157903216D01*
X54301980Y-157903169D01*
X54301980Y-157854411D01*
X54297047Y-157816581D01*
X54284457Y-157791236D01*
X54282983Y-157789887D01*
X54254966Y-157778800D01*
X54212674Y-157774503D01*
X54165936Y-157776615D01*
X54124582Y-157784756D01*
X54100043Y-157796965D01*
X54086747Y-157806746D01*
X54072706Y-157808613D01*
X54053329Y-157800600D01*
X54024024Y-157780739D01*
X53980197Y-157747063D01*
X53976175Y-157743909D01*
X53978236Y-157732236D01*
X53995432Y-157712822D01*
X54021567Y-157691248D01*
X54050448Y-157673096D01*
X54059522Y-157668809D01*
X54092620Y-157660256D01*
X54141120Y-157654155D01*
X54195305Y-157651708D01*
X54197839Y-157651703D01*
X54275790Y-157656555D01*
G37*
X53751241Y-156719184D02*
X53777753Y-156732282D01*
X53810447Y-156755106D01*
X53834275Y-156779996D01*
X53850594Y-156811249D01*
X53860760Y-156853166D01*
X53866128Y-156910044D01*
X53868056Y-156986184D01*
X53868169Y-157018917D01*
X53867839Y-157090656D01*
X53866473Y-157141927D01*
X53863500Y-157177404D01*
X53858351Y-157201763D01*
X53850457Y-157219680D01*
X53842243Y-157231902D01*
X53789813Y-157283905D01*
X53728070Y-157315184D01*
X53661464Y-157324592D01*
X53594442Y-157310980D01*
X53573208Y-157301354D01*
X53522376Y-157274859D01*
X53522376Y-157690052D01*
X53559475Y-157670868D01*
X53608357Y-157656025D01*
X53668439Y-157652222D01*
X53728436Y-157659243D01*
X53773744Y-157675013D01*
X53811325Y-157705047D01*
X53843436Y-157748024D01*
X53845850Y-157752436D01*
X53856033Y-157773221D01*
X53863470Y-157794170D01*
X53868589Y-157819548D01*
X53871819Y-157853618D01*
X53873587Y-157900641D01*
X53874323Y-157964882D01*
X53874456Y-158037176D01*
X53874456Y-158267822D01*
X53736139Y-158267822D01*
X53736139Y-157842533D01*
X53697451Y-157809979D01*
X53657262Y-157783940D01*
X53619203Y-157779205D01*
X53580934Y-157791389D01*
X53560538Y-157803320D01*
X53545358Y-157820313D01*
X53534562Y-157845995D01*
X53527317Y-157883991D01*
X53522792Y-157937926D01*
X53520156Y-158011425D01*
X53519228Y-158060347D01*
X53516089Y-158261535D01*
X53450074Y-158265336D01*
X53384060Y-158269136D01*
X53384060Y-157020650D01*
X53522376Y-157020650D01*
X53525903Y-157090254D01*
X53537785Y-157138569D01*
X53559980Y-157168631D01*
X53594441Y-157183471D01*
X53629258Y-157186436D01*
X53668671Y-157183028D01*
X53694829Y-157169617D01*
X53711186Y-157151896D01*
X53724063Y-157132835D01*
X53731728Y-157111601D01*
X53735139Y-157081849D01*
X53735251Y-157037236D01*
X53734103Y-156999880D01*
X53731468Y-156943604D01*
X53727544Y-156906658D01*
X53720937Y-156883223D01*
X53710251Y-156867480D01*
X53700167Y-156858380D01*
X53658030Y-156838537D01*
X53608160Y-156835332D01*
X53579524Y-156842168D01*
X53551172Y-156866464D01*
X53532391Y-156913728D01*
X53523288Y-156983624D01*
X53522376Y-157020650D01*
X53384060Y-157020650D01*
X53384060Y-156708614D01*
X53453218Y-156708614D01*
X53494740Y-156710256D01*
X53516162Y-156716087D01*
X53522374Y-156727461D01*
X53522376Y-156727798D01*
X53525258Y-156738938D01*
X53537970Y-156737673D01*
X53563243Y-156725433D01*
X53622131Y-156706707D01*
X53688385Y-156704739D01*
X53751241Y-156719184D01*
G36*
X53751241Y-156719184D02*
G01*
X53777753Y-156732282D01*
X53810447Y-156755106D01*
X53834275Y-156779996D01*
X53850594Y-156811249D01*
X53860760Y-156853166D01*
X53866128Y-156910044D01*
X53868056Y-156986184D01*
X53868169Y-157018917D01*
X53867839Y-157090656D01*
X53866473Y-157141927D01*
X53863500Y-157177404D01*
X53858351Y-157201763D01*
X53850457Y-157219680D01*
X53842243Y-157231902D01*
X53789813Y-157283905D01*
X53728070Y-157315184D01*
X53661464Y-157324592D01*
X53594442Y-157310980D01*
X53573208Y-157301354D01*
X53522376Y-157274859D01*
X53522376Y-157690052D01*
X53559475Y-157670868D01*
X53608357Y-157656025D01*
X53668439Y-157652222D01*
X53728436Y-157659243D01*
X53773744Y-157675013D01*
X53811325Y-157705047D01*
X53843436Y-157748024D01*
X53845850Y-157752436D01*
X53856033Y-157773221D01*
X53863470Y-157794170D01*
X53868589Y-157819548D01*
X53871819Y-157853618D01*
X53873587Y-157900641D01*
X53874323Y-157964882D01*
X53874456Y-158037176D01*
X53874456Y-158267822D01*
X53736139Y-158267822D01*
X53736139Y-157842533D01*
X53697451Y-157809979D01*
X53657262Y-157783940D01*
X53619203Y-157779205D01*
X53580934Y-157791389D01*
X53560538Y-157803320D01*
X53545358Y-157820313D01*
X53534562Y-157845995D01*
X53527317Y-157883991D01*
X53522792Y-157937926D01*
X53520156Y-158011425D01*
X53519228Y-158060347D01*
X53516089Y-158261535D01*
X53450074Y-158265336D01*
X53384060Y-158269136D01*
X53384060Y-157020650D01*
X53522376Y-157020650D01*
X53525903Y-157090254D01*
X53537785Y-157138569D01*
X53559980Y-157168631D01*
X53594441Y-157183471D01*
X53629258Y-157186436D01*
X53668671Y-157183028D01*
X53694829Y-157169617D01*
X53711186Y-157151896D01*
X53724063Y-157132835D01*
X53731728Y-157111601D01*
X53735139Y-157081849D01*
X53735251Y-157037236D01*
X53734103Y-156999880D01*
X53731468Y-156943604D01*
X53727544Y-156906658D01*
X53720937Y-156883223D01*
X53710251Y-156867480D01*
X53700167Y-156858380D01*
X53658030Y-156838537D01*
X53608160Y-156835332D01*
X53579524Y-156842168D01*
X53551172Y-156866464D01*
X53532391Y-156913728D01*
X53523288Y-156983624D01*
X53522376Y-157020650D01*
X53384060Y-157020650D01*
X53384060Y-156708614D01*
X53453218Y-156708614D01*
X53494740Y-156710256D01*
X53516162Y-156716087D01*
X53522374Y-156727461D01*
X53522376Y-156727798D01*
X53525258Y-156738938D01*
X53537970Y-156737673D01*
X53563243Y-156725433D01*
X53622131Y-156706707D01*
X53688385Y-156704739D01*
X53751241Y-156719184D01*
G37*
X56036964Y-152540018D02*
X56093812Y-152841570D01*
X56513338Y-153014512D01*
X56764984Y-152843395D01*
X56835458Y-152795750D01*
X56899163Y-152753210D01*
X56953126Y-152717715D01*
X56994373Y-152691210D01*
X57019934Y-152675636D01*
X57026895Y-152672278D01*
X57039435Y-152680914D01*
X57066231Y-152704792D01*
X57104280Y-152740859D01*
X57150579Y-152786067D01*
X57202123Y-152837364D01*
X57255909Y-152891701D01*
X57308935Y-152946028D01*
X57358195Y-152997295D01*
X57400687Y-153042451D01*
X57433407Y-153078446D01*
X57453351Y-153102230D01*
X57458119Y-153110190D01*
X57451257Y-153124865D01*
X57432020Y-153157014D01*
X57402430Y-153203492D01*
X57364510Y-153261156D01*
X57320282Y-153326860D01*
X57294654Y-153364336D01*
X57247941Y-153432768D01*
X57206432Y-153494520D01*
X57172140Y-153546519D01*
X57147080Y-153585692D01*
X57133264Y-153608965D01*
X57131188Y-153613855D01*
X57135895Y-153627755D01*
X57148723Y-153660150D01*
X57167738Y-153706485D01*
X57191003Y-153762206D01*
X57216584Y-153822758D01*
X57242545Y-153883586D01*
X57266950Y-153940136D01*
X57287863Y-153987852D01*
X57303349Y-154022181D01*
X57311472Y-154038568D01*
X57311952Y-154039212D01*
X57324707Y-154042341D01*
X57358677Y-154049321D01*
X57410340Y-154059467D01*
X57476176Y-154072092D01*
X57552664Y-154086509D01*
X57597290Y-154094823D01*
X57679021Y-154110384D01*
X57752843Y-154125192D01*
X57815021Y-154138436D01*
X57861822Y-154149305D01*
X57889509Y-154156989D01*
X57895074Y-154159427D01*
X57900526Y-154175930D01*
X57904924Y-154213200D01*
X57908272Y-154266880D01*
X57910574Y-154332612D01*
X57911832Y-154406037D01*
X57912048Y-154482796D01*
X57911227Y-154558532D01*
X57909371Y-154628886D01*
X57906482Y-154689500D01*
X57902565Y-154736016D01*
X57897622Y-154764075D01*
X57894657Y-154769916D01*
X57876934Y-154776917D01*
X57839381Y-154786927D01*
X57786964Y-154798769D01*
X57724652Y-154811267D01*
X57702900Y-154815310D01*
X57598024Y-154834520D01*
X57515180Y-154849991D01*
X57451630Y-154862337D01*
X57404637Y-154872173D01*
X57371463Y-154880114D01*
X57349371Y-154886776D01*
X57335624Y-154892773D01*
X57327484Y-154898719D01*
X57326345Y-154899894D01*
X57314977Y-154918826D01*
X57297635Y-154955669D01*
X57276050Y-155005913D01*
X57251954Y-155065046D01*
X57227079Y-155128556D01*
X57203157Y-155191932D01*
X57181919Y-155250662D01*
X57165097Y-155300235D01*
X57154422Y-155336139D01*
X57151627Y-155353862D01*
X57151860Y-155354483D01*
X57161331Y-155368970D01*
X57182818Y-155400844D01*
X57214063Y-155446789D01*
X57252807Y-155503485D01*
X57296793Y-155567617D01*
X57309319Y-155585842D01*
X57353984Y-155651914D01*
X57393288Y-155712200D01*
X57425088Y-155763235D01*
X57447245Y-155801560D01*
X57457617Y-155823711D01*
X57458119Y-155826432D01*
X57449405Y-155840736D01*
X57425325Y-155869072D01*
X57388976Y-155908396D01*
X57343453Y-155955661D01*
X57291852Y-156007823D01*
X57237267Y-156061835D01*
X57182794Y-156114653D01*
X57131529Y-156163231D01*
X57086567Y-156204523D01*
X57051004Y-156235485D01*
X57027935Y-156253070D01*
X57021554Y-156255941D01*
X57006699Y-156249178D01*
X56976286Y-156230939D01*
X56935268Y-156204297D01*
X56903709Y-156182852D01*
X56846525Y-156143503D01*
X56778806Y-156097171D01*
X56710880Y-156050913D01*
X56674361Y-156026155D01*
X56550752Y-155942547D01*
X56446991Y-155998650D01*
X56399720Y-156023228D01*
X56359523Y-156042331D01*
X56332326Y-156053227D01*
X56325402Y-156054743D01*
X56317077Y-156043549D01*
X56300654Y-156011917D01*
X56277357Y-155962765D01*
X56248414Y-155899010D01*
X56215050Y-155823571D01*
X56178491Y-155739364D01*
X56139964Y-155649308D01*
X56100694Y-155556321D01*
X56061908Y-155463320D01*
X56024830Y-155373223D01*
X55990689Y-155288948D01*
X55960708Y-155213413D01*
X55936116Y-155149534D01*
X55918136Y-155100231D01*
X55907997Y-155068421D01*
X55906366Y-155057496D01*
X55919291Y-155043561D01*
X55947589Y-155020940D01*
X55985346Y-154994333D01*
X55988515Y-154992228D01*
X56086100Y-154914114D01*
X56164786Y-154822982D01*
X56223891Y-154721745D01*
X56262732Y-154613318D01*
X56280628Y-154500614D01*
X56276897Y-154386548D01*
X56250857Y-154274034D01*
X56201825Y-154165985D01*
X56187400Y-154142345D01*
X56112369Y-154046887D01*
X56023730Y-153970232D01*
X55924549Y-153912780D01*
X55817895Y-153874929D01*
X55706836Y-153857078D01*
X55594439Y-153859625D01*
X55483773Y-153882970D01*
X55377906Y-153927510D01*
X55279905Y-153993645D01*
X55249590Y-154020487D01*
X55172438Y-154104512D01*
X55116218Y-154192966D01*
X55077653Y-154292115D01*
X55056174Y-154390303D01*
X55050872Y-154500697D01*
X55068552Y-154611640D01*
X55107419Y-154719381D01*
X55165677Y-154820169D01*
X55241531Y-154910256D01*
X55333183Y-154985892D01*
X55345228Y-154993864D01*
X55383389Y-155019974D01*
X55412399Y-155042595D01*
X55426268Y-155057039D01*
X55426469Y-155057496D01*
X55423492Y-155073121D01*
X55411689Y-155108582D01*
X55392286Y-155160962D01*
X55366512Y-155227345D01*
X55335591Y-155304814D01*
X55300751Y-155390450D01*
X55263217Y-155481337D01*
X55224217Y-155574559D01*
X55184977Y-155667197D01*
X55146724Y-155756335D01*
X55110683Y-155839055D01*
X55078083Y-155912441D01*
X55050148Y-155973575D01*
X55028105Y-156019541D01*
X55013182Y-156047421D01*
X55007172Y-156054743D01*
X54988809Y-156049041D01*
X54954448Y-156033749D01*
X54910016Y-156011599D01*
X54885583Y-155998650D01*
X54781822Y-155942547D01*
X54658213Y-156026155D01*
X54595114Y-156068987D01*
X54526030Y-156116122D01*
X54461293Y-156160503D01*
X54428866Y-156182852D01*
X54383259Y-156213477D01*
X54344640Y-156237747D01*
X54318048Y-156252587D01*
X54309410Y-156255724D01*
X54296839Y-156247261D01*
X54269016Y-156223636D01*
X54228639Y-156187302D01*
X54178405Y-156140711D01*
X54121012Y-156086317D01*
X54084714Y-156051392D01*
X54021210Y-155988996D01*
X53966327Y-155933188D01*
X53922286Y-155886354D01*
X53891305Y-155850882D01*
X53875602Y-155829161D01*
X53874095Y-155824752D01*
X53881086Y-155807985D01*
X53900406Y-155774082D01*
X53929909Y-155726476D01*
X53967455Y-155668599D01*
X54010900Y-155603884D01*
X54023255Y-155585842D01*
X54068273Y-155520267D01*
X54108660Y-155461228D01*
X54142160Y-155412042D01*
X54166514Y-155376028D01*
X54179464Y-155356502D01*
X54180715Y-155354483D01*
X54178844Y-155338922D01*
X54168913Y-155304709D01*
X54152653Y-155256355D01*
X54131795Y-155198371D01*
X54108073Y-155135270D01*
X54083216Y-155071563D01*
X54058958Y-155011761D01*
X54037029Y-154960376D01*
X54019162Y-154921919D01*
X54007087Y-154900902D01*
X54006229Y-154899894D01*
X53998846Y-154893888D01*
X53986375Y-154887948D01*
X53966080Y-154881460D01*
X53935222Y-154873809D01*
X53891066Y-154864380D01*
X53830874Y-154852559D01*
X53751907Y-154837729D01*
X53651430Y-154819277D01*
X53629675Y-154815310D01*
X53565198Y-154802853D01*
X53508989Y-154790666D01*
X53466013Y-154779926D01*
X53441240Y-154771809D01*
X53437918Y-154769916D01*
X53432444Y-154753138D01*
X53427994Y-154715645D01*
X53424572Y-154661794D01*
X53422181Y-154595944D01*
X53420823Y-154522453D01*
X53420501Y-154445680D01*
X53421219Y-154369983D01*
X53422979Y-154299720D01*
X53425784Y-154239250D01*
X53429638Y-154192930D01*
X53434543Y-154165119D01*
X53437500Y-154159427D01*
X53453963Y-154153686D01*
X53491449Y-154144345D01*
X53546225Y-154132215D01*
X53614555Y-154118107D01*
X53692706Y-154102830D01*
X53735284Y-154094823D01*
X53816071Y-154079721D01*
X53888113Y-154066040D01*
X53947889Y-154054467D01*
X53991879Y-154045687D01*
X54016561Y-154040387D01*
X54020623Y-154039212D01*
X54027489Y-154025965D01*
X54042002Y-153994057D01*
X54062229Y-153948047D01*
X54086234Y-153892492D01*
X54112082Y-153831953D01*
X54137840Y-153770986D01*
X54161573Y-153714151D01*
X54181346Y-153666006D01*
X54195224Y-153631110D01*
X54201274Y-153614021D01*
X54201386Y-153613274D01*
X54194528Y-153599793D01*
X54175302Y-153568770D01*
X54145728Y-153523289D01*
X54107827Y-153466432D01*
X54063620Y-153401283D01*
X54037921Y-153363862D01*
X53991093Y-153295247D01*
X53949501Y-153232952D01*
X53915175Y-153180129D01*
X53890143Y-153139927D01*
X53876435Y-153115500D01*
X53874456Y-153110024D01*
X53882966Y-153097278D01*
X53906493Y-153070063D01*
X53942032Y-153031428D01*
X53986577Y-152984423D01*
X54037123Y-152932095D01*
X54090664Y-152877495D01*
X54144195Y-152823670D01*
X54194711Y-152773670D01*
X54239206Y-152730543D01*
X54274675Y-152697339D01*
X54298113Y-152677106D01*
X54305954Y-152672278D01*
X54318720Y-152679067D01*
X54349256Y-152698142D01*
X54394590Y-152727561D01*
X54451756Y-152765381D01*
X54517784Y-152809661D01*
X54567590Y-152843395D01*
X54819236Y-153014512D01*
X55028999Y-152928041D01*
X55238763Y-152841570D01*
X55295611Y-152540018D01*
X55352460Y-152238466D01*
X55980115Y-152238466D01*
X56036964Y-152540018D01*
G36*
X56036964Y-152540018D02*
G01*
X56093812Y-152841570D01*
X56513338Y-153014512D01*
X56764984Y-152843395D01*
X56835458Y-152795750D01*
X56899163Y-152753210D01*
X56953126Y-152717715D01*
X56994373Y-152691210D01*
X57019934Y-152675636D01*
X57026895Y-152672278D01*
X57039435Y-152680914D01*
X57066231Y-152704792D01*
X57104280Y-152740859D01*
X57150579Y-152786067D01*
X57202123Y-152837364D01*
X57255909Y-152891701D01*
X57308935Y-152946028D01*
X57358195Y-152997295D01*
X57400687Y-153042451D01*
X57433407Y-153078446D01*
X57453351Y-153102230D01*
X57458119Y-153110190D01*
X57451257Y-153124865D01*
X57432020Y-153157014D01*
X57402430Y-153203492D01*
X57364510Y-153261156D01*
X57320282Y-153326860D01*
X57294654Y-153364336D01*
X57247941Y-153432768D01*
X57206432Y-153494520D01*
X57172140Y-153546519D01*
X57147080Y-153585692D01*
X57133264Y-153608965D01*
X57131188Y-153613855D01*
X57135895Y-153627755D01*
X57148723Y-153660150D01*
X57167738Y-153706485D01*
X57191003Y-153762206D01*
X57216584Y-153822758D01*
X57242545Y-153883586D01*
X57266950Y-153940136D01*
X57287863Y-153987852D01*
X57303349Y-154022181D01*
X57311472Y-154038568D01*
X57311952Y-154039212D01*
X57324707Y-154042341D01*
X57358677Y-154049321D01*
X57410340Y-154059467D01*
X57476176Y-154072092D01*
X57552664Y-154086509D01*
X57597290Y-154094823D01*
X57679021Y-154110384D01*
X57752843Y-154125192D01*
X57815021Y-154138436D01*
X57861822Y-154149305D01*
X57889509Y-154156989D01*
X57895074Y-154159427D01*
X57900526Y-154175930D01*
X57904924Y-154213200D01*
X57908272Y-154266880D01*
X57910574Y-154332612D01*
X57911832Y-154406037D01*
X57912048Y-154482796D01*
X57911227Y-154558532D01*
X57909371Y-154628886D01*
X57906482Y-154689500D01*
X57902565Y-154736016D01*
X57897622Y-154764075D01*
X57894657Y-154769916D01*
X57876934Y-154776917D01*
X57839381Y-154786927D01*
X57786964Y-154798769D01*
X57724652Y-154811267D01*
X57702900Y-154815310D01*
X57598024Y-154834520D01*
X57515180Y-154849991D01*
X57451630Y-154862337D01*
X57404637Y-154872173D01*
X57371463Y-154880114D01*
X57349371Y-154886776D01*
X57335624Y-154892773D01*
X57327484Y-154898719D01*
X57326345Y-154899894D01*
X57314977Y-154918826D01*
X57297635Y-154955669D01*
X57276050Y-155005913D01*
X57251954Y-155065046D01*
X57227079Y-155128556D01*
X57203157Y-155191932D01*
X57181919Y-155250662D01*
X57165097Y-155300235D01*
X57154422Y-155336139D01*
X57151627Y-155353862D01*
X57151860Y-155354483D01*
X57161331Y-155368970D01*
X57182818Y-155400844D01*
X57214063Y-155446789D01*
X57252807Y-155503485D01*
X57296793Y-155567617D01*
X57309319Y-155585842D01*
X57353984Y-155651914D01*
X57393288Y-155712200D01*
X57425088Y-155763235D01*
X57447245Y-155801560D01*
X57457617Y-155823711D01*
X57458119Y-155826432D01*
X57449405Y-155840736D01*
X57425325Y-155869072D01*
X57388976Y-155908396D01*
X57343453Y-155955661D01*
X57291852Y-156007823D01*
X57237267Y-156061835D01*
X57182794Y-156114653D01*
X57131529Y-156163231D01*
X57086567Y-156204523D01*
X57051004Y-156235485D01*
X57027935Y-156253070D01*
X57021554Y-156255941D01*
X57006699Y-156249178D01*
X56976286Y-156230939D01*
X56935268Y-156204297D01*
X56903709Y-156182852D01*
X56846525Y-156143503D01*
X56778806Y-156097171D01*
X56710880Y-156050913D01*
X56674361Y-156026155D01*
X56550752Y-155942547D01*
X56446991Y-155998650D01*
X56399720Y-156023228D01*
X56359523Y-156042331D01*
X56332326Y-156053227D01*
X56325402Y-156054743D01*
X56317077Y-156043549D01*
X56300654Y-156011917D01*
X56277357Y-155962765D01*
X56248414Y-155899010D01*
X56215050Y-155823571D01*
X56178491Y-155739364D01*
X56139964Y-155649308D01*
X56100694Y-155556321D01*
X56061908Y-155463320D01*
X56024830Y-155373223D01*
X55990689Y-155288948D01*
X55960708Y-155213413D01*
X55936116Y-155149534D01*
X55918136Y-155100231D01*
X55907997Y-155068421D01*
X55906366Y-155057496D01*
X55919291Y-155043561D01*
X55947589Y-155020940D01*
X55985346Y-154994333D01*
X55988515Y-154992228D01*
X56086100Y-154914114D01*
X56164786Y-154822982D01*
X56223891Y-154721745D01*
X56262732Y-154613318D01*
X56280628Y-154500614D01*
X56276897Y-154386548D01*
X56250857Y-154274034D01*
X56201825Y-154165985D01*
X56187400Y-154142345D01*
X56112369Y-154046887D01*
X56023730Y-153970232D01*
X55924549Y-153912780D01*
X55817895Y-153874929D01*
X55706836Y-153857078D01*
X55594439Y-153859625D01*
X55483773Y-153882970D01*
X55377906Y-153927510D01*
X55279905Y-153993645D01*
X55249590Y-154020487D01*
X55172438Y-154104512D01*
X55116218Y-154192966D01*
X55077653Y-154292115D01*
X55056174Y-154390303D01*
X55050872Y-154500697D01*
X55068552Y-154611640D01*
X55107419Y-154719381D01*
X55165677Y-154820169D01*
X55241531Y-154910256D01*
X55333183Y-154985892D01*
X55345228Y-154993864D01*
X55383389Y-155019974D01*
X55412399Y-155042595D01*
X55426268Y-155057039D01*
X55426469Y-155057496D01*
X55423492Y-155073121D01*
X55411689Y-155108582D01*
X55392286Y-155160962D01*
X55366512Y-155227345D01*
X55335591Y-155304814D01*
X55300751Y-155390450D01*
X55263217Y-155481337D01*
X55224217Y-155574559D01*
X55184977Y-155667197D01*
X55146724Y-155756335D01*
X55110683Y-155839055D01*
X55078083Y-155912441D01*
X55050148Y-155973575D01*
X55028105Y-156019541D01*
X55013182Y-156047421D01*
X55007172Y-156054743D01*
X54988809Y-156049041D01*
X54954448Y-156033749D01*
X54910016Y-156011599D01*
X54885583Y-155998650D01*
X54781822Y-155942547D01*
X54658213Y-156026155D01*
X54595114Y-156068987D01*
X54526030Y-156116122D01*
X54461293Y-156160503D01*
X54428866Y-156182852D01*
X54383259Y-156213477D01*
X54344640Y-156237747D01*
X54318048Y-156252587D01*
X54309410Y-156255724D01*
X54296839Y-156247261D01*
X54269016Y-156223636D01*
X54228639Y-156187302D01*
X54178405Y-156140711D01*
X54121012Y-156086317D01*
X54084714Y-156051392D01*
X54021210Y-155988996D01*
X53966327Y-155933188D01*
X53922286Y-155886354D01*
X53891305Y-155850882D01*
X53875602Y-155829161D01*
X53874095Y-155824752D01*
X53881086Y-155807985D01*
X53900406Y-155774082D01*
X53929909Y-155726476D01*
X53967455Y-155668599D01*
X54010900Y-155603884D01*
X54023255Y-155585842D01*
X54068273Y-155520267D01*
X54108660Y-155461228D01*
X54142160Y-155412042D01*
X54166514Y-155376028D01*
X54179464Y-155356502D01*
X54180715Y-155354483D01*
X54178844Y-155338922D01*
X54168913Y-155304709D01*
X54152653Y-155256355D01*
X54131795Y-155198371D01*
X54108073Y-155135270D01*
X54083216Y-155071563D01*
X54058958Y-155011761D01*
X54037029Y-154960376D01*
X54019162Y-154921919D01*
X54007087Y-154900902D01*
X54006229Y-154899894D01*
X53998846Y-154893888D01*
X53986375Y-154887948D01*
X53966080Y-154881460D01*
X53935222Y-154873809D01*
X53891066Y-154864380D01*
X53830874Y-154852559D01*
X53751907Y-154837729D01*
X53651430Y-154819277D01*
X53629675Y-154815310D01*
X53565198Y-154802853D01*
X53508989Y-154790666D01*
X53466013Y-154779926D01*
X53441240Y-154771809D01*
X53437918Y-154769916D01*
X53432444Y-154753138D01*
X53427994Y-154715645D01*
X53424572Y-154661794D01*
X53422181Y-154595944D01*
X53420823Y-154522453D01*
X53420501Y-154445680D01*
X53421219Y-154369983D01*
X53422979Y-154299720D01*
X53425784Y-154239250D01*
X53429638Y-154192930D01*
X53434543Y-154165119D01*
X53437500Y-154159427D01*
X53453963Y-154153686D01*
X53491449Y-154144345D01*
X53546225Y-154132215D01*
X53614555Y-154118107D01*
X53692706Y-154102830D01*
X53735284Y-154094823D01*
X53816071Y-154079721D01*
X53888113Y-154066040D01*
X53947889Y-154054467D01*
X53991879Y-154045687D01*
X54016561Y-154040387D01*
X54020623Y-154039212D01*
X54027489Y-154025965D01*
X54042002Y-153994057D01*
X54062229Y-153948047D01*
X54086234Y-153892492D01*
X54112082Y-153831953D01*
X54137840Y-153770986D01*
X54161573Y-153714151D01*
X54181346Y-153666006D01*
X54195224Y-153631110D01*
X54201274Y-153614021D01*
X54201386Y-153613274D01*
X54194528Y-153599793D01*
X54175302Y-153568770D01*
X54145728Y-153523289D01*
X54107827Y-153466432D01*
X54063620Y-153401283D01*
X54037921Y-153363862D01*
X53991093Y-153295247D01*
X53949501Y-153232952D01*
X53915175Y-153180129D01*
X53890143Y-153139927D01*
X53876435Y-153115500D01*
X53874456Y-153110024D01*
X53882966Y-153097278D01*
X53906493Y-153070063D01*
X53942032Y-153031428D01*
X53986577Y-152984423D01*
X54037123Y-152932095D01*
X54090664Y-152877495D01*
X54144195Y-152823670D01*
X54194711Y-152773670D01*
X54239206Y-152730543D01*
X54274675Y-152697339D01*
X54298113Y-152677106D01*
X54305954Y-152672278D01*
X54318720Y-152679067D01*
X54349256Y-152698142D01*
X54394590Y-152727561D01*
X54451756Y-152765381D01*
X54517784Y-152809661D01*
X54567590Y-152843395D01*
X54819236Y-153014512D01*
X55028999Y-152928041D01*
X55238763Y-152841570D01*
X55295611Y-152540018D01*
X55352460Y-152238466D01*
X55980115Y-152238466D01*
X56036964Y-152540018D01*
G37*
D14*
X46130000Y-89160000D02*
X47460000Y-89160000D01*
X46130000Y-90490000D02*
X46130000Y-89160000D01*
X46130000Y-91760000D02*
X48730000Y-91760000D01*
X46130000Y-94360000D02*
X46130000Y-91760000D01*
X46130000Y-94360000D02*
X53870000Y-94360000D01*
X48730000Y-89160000D02*
X53870000Y-89160000D01*
X48730000Y-91760000D02*
X48730000Y-89160000D01*
X53870000Y-94360000D02*
X53870000Y-89160000D01*
X46130000Y-61970000D02*
X47460000Y-61970000D01*
X46130000Y-63300000D02*
X46130000Y-61970000D01*
X46130000Y-64570000D02*
X48730000Y-64570000D01*
X46130000Y-67170000D02*
X46130000Y-64570000D01*
X46130000Y-67170000D02*
X53870000Y-67170000D01*
X48730000Y-61970000D02*
X53870000Y-61970000D01*
X48730000Y-64570000D02*
X48730000Y-61970000D01*
X53870000Y-67170000D02*
X53870000Y-61970000D01*
M02*
