M48
; DRILL file {KiCad 8.0.8} date 2025-08-03T15:08:59-0700
; FORMAT={-:-/ absolute / inch / decimal}
; #@! TF.CreationDate,2025-08-03T15:08:59-07:00
; #@! TF.GenerationSoftware,Kicad,Pcbnew,8.0.8
; #@! TF.FileFunction,Plated,1,2,PTH
FMAT,2
INCH
; #@! TA.AperFunction,Plated,PTH,ComponentDrill
T1C0.0394
; #@! TA.AperFunction,Plated,PTH,ComponentDrill
T2C0.0433
; #@! TA.AperFunction,Plated,PTH,ComponentDrill
T3C0.1260
%
G90
G05
T1
X1.8654Y-5.6909
X1.8654Y-5.7909
X1.8685Y-2.4921
X1.8685Y-2.5921
X1.8685Y-3.5626
X1.8685Y-3.6626
X1.8685Y-4.6303
X1.8685Y-4.7303
X1.9654Y-5.6909
X1.9654Y-5.7909
X1.9685Y-2.4921
X1.9685Y-2.5921
X1.9685Y-3.5626
X1.9685Y-3.6626
X1.9685Y-4.6303
X1.9685Y-4.7303
X2.0654Y-5.6909
X2.0654Y-5.7909
X2.0685Y-2.4921
X2.0685Y-2.5921
X2.0685Y-3.5626
X2.0685Y-3.6626
X2.0685Y-4.6303
X2.0685Y-4.7303
T2
X1.7717Y-2.2677
X1.7717Y-2.3661
X1.7717Y-3.3346
X1.7717Y-3.4331
X1.7717Y-4.4028
X1.7717Y-4.5012
X1.7717Y-5.4665
X1.7717Y-5.565
X1.9685Y-2.2677
X1.9685Y-2.3661
X1.9685Y-3.3346
X1.9685Y-3.4331
X1.9685Y-4.4028
X1.9685Y-4.5012
X1.9685Y-5.4665
X1.9685Y-5.565
X2.1654Y-2.2677
X2.1654Y-2.3661
X2.1654Y-3.3346
X2.1654Y-3.4331
X2.1654Y-4.4028
X2.1654Y-4.5012
X2.1654Y-5.4665
X2.1654Y-5.565
T3
G00X1.815Y-1.3287
M15
G01X1.9252Y-1.3287
M16
G05
G00X1.815Y-6.1476
M15
G01X1.9252Y-6.1476
M16
G05
M30
