G04 #@! TF.GenerationSoftware,KiCad,Pcbnew,8.0.8*
G04 #@! TF.CreationDate,2025-08-03T15:09:01-07:00*
G04 #@! TF.ProjectId,sidecar,73696465-6361-4722-9e6b-696361645f70,0.1*
G04 #@! TF.SameCoordinates,Original*
G04 #@! TF.FileFunction,Copper,L1,Top*
G04 #@! TF.FilePolarity,Positive*
%FSLAX46Y46*%
G04 Gerber Fmt 4.6, Leading zero omitted, Abs format (unit mm)*
G04 Created by KiCad (PCBNEW 8.0.8) date 2025-08-03 15:09:01*
%MOMM*%
%LPD*%
G01*
G04 APERTURE LIST*
G04 #@! TA.AperFunction,ComponentPad*
%ADD10O,8.000000X5.000000*%
G04 #@! TD*
G04 #@! TA.AperFunction,ComponentPad*
%ADD11C,1.700000*%
G04 #@! TD*
G04 #@! TA.AperFunction,ComponentPad*
%ADD12R,1.700000X1.700000*%
G04 #@! TD*
G04 #@! TA.AperFunction,ComponentPad*
%ADD13O,1.700000X1.700000*%
G04 #@! TD*
G04 APERTURE END LIST*
D10*
X47500000Y-33750000D03*
X47500000Y-156150000D03*
D11*
X45000000Y-60100000D03*
X50000000Y-60100000D03*
X55000000Y-60100000D03*
X45000000Y-57600000D03*
X50000000Y-57600000D03*
X55000000Y-57600000D03*
D12*
X47460000Y-117610000D03*
D13*
X47460000Y-120150000D03*
X50000000Y-117610000D03*
X50000000Y-120150000D03*
X52540000Y-117610000D03*
X52540000Y-120150000D03*
D12*
X47380000Y-144550000D03*
D13*
X47380000Y-147090000D03*
X49920000Y-144550000D03*
X49920000Y-147090000D03*
X52460000Y-144550000D03*
X52460000Y-147090000D03*
D11*
X45000000Y-87200000D03*
X50000000Y-87200000D03*
X55000000Y-87200000D03*
X45000000Y-84700000D03*
X50000000Y-84700000D03*
X55000000Y-84700000D03*
D12*
X47460000Y-90490000D03*
D13*
X47460000Y-93030000D03*
X50000000Y-90490000D03*
X50000000Y-93030000D03*
X52540000Y-90490000D03*
X52540000Y-93030000D03*
D12*
X47460000Y-63300000D03*
D13*
X47460000Y-65840000D03*
X50000000Y-63300000D03*
X50000000Y-65840000D03*
X52540000Y-63300000D03*
X52540000Y-65840000D03*
D11*
X45000000Y-141350000D03*
X50000000Y-141350000D03*
X55000000Y-141350000D03*
X45000000Y-138850000D03*
X50000000Y-138850000D03*
X55000000Y-138850000D03*
X45000000Y-114330000D03*
X50000000Y-114330000D03*
X55000000Y-114330000D03*
X45000000Y-111830000D03*
X50000000Y-111830000D03*
X55000000Y-111830000D03*
G04 #@! TA.AperFunction,Conductor*
G36*
X44759958Y-30795502D02*
G01*
X44806451Y-30849158D01*
X44816555Y-30919432D01*
X44787061Y-30984012D01*
X44746506Y-31015022D01*
X44542677Y-31113180D01*
X44256613Y-31292927D01*
X43992467Y-31503576D01*
X43753576Y-31742467D01*
X43542927Y-32006613D01*
X43363180Y-32292677D01*
X43216595Y-32597064D01*
X43216584Y-32597091D01*
X43105007Y-32915960D01*
X43029827Y-33245344D01*
X43001586Y-33496000D01*
X44520285Y-33496000D01*
X44500000Y-33624077D01*
X44500000Y-33875923D01*
X44520285Y-34004000D01*
X43001586Y-34004000D01*
X43029827Y-34254655D01*
X43105008Y-34584039D01*
X43105007Y-34584039D01*
X43216584Y-34902908D01*
X43216595Y-34902935D01*
X43363180Y-35207322D01*
X43542927Y-35493386D01*
X43753576Y-35757532D01*
X43992467Y-35996423D01*
X44256613Y-36207072D01*
X44542677Y-36386819D01*
X44847064Y-36533404D01*
X44847091Y-36533415D01*
X45165960Y-36644992D01*
X45495342Y-36720172D01*
X45831073Y-36758000D01*
X47246000Y-36758000D01*
X47246000Y-35350000D01*
X47754000Y-35350000D01*
X47754000Y-36758000D01*
X49168927Y-36758000D01*
X49504657Y-36720172D01*
X49834039Y-36644992D01*
X50152908Y-36533415D01*
X50152935Y-36533404D01*
X50457322Y-36386819D01*
X50743386Y-36207072D01*
X51007532Y-35996423D01*
X51246423Y-35757532D01*
X51457072Y-35493386D01*
X51636819Y-35207322D01*
X51783404Y-34902935D01*
X51783415Y-34902908D01*
X51894992Y-34584039D01*
X51970172Y-34254655D01*
X51998414Y-34004000D01*
X50479715Y-34004000D01*
X50500000Y-33875923D01*
X50500000Y-33624077D01*
X50479715Y-33496000D01*
X51998414Y-33496000D01*
X51970172Y-33245344D01*
X51894991Y-32915960D01*
X51894992Y-32915960D01*
X51783415Y-32597091D01*
X51783404Y-32597064D01*
X51636819Y-32292677D01*
X51457072Y-32006613D01*
X51246423Y-31742467D01*
X51007532Y-31503576D01*
X50743386Y-31292927D01*
X50457322Y-31113180D01*
X50253494Y-31015022D01*
X50200797Y-30967444D01*
X50182189Y-30898930D01*
X50203577Y-30831231D01*
X50258170Y-30785842D01*
X50308163Y-30775500D01*
X59848500Y-30775500D01*
X59916621Y-30795502D01*
X59963114Y-30849158D01*
X59974500Y-30901500D01*
X59974500Y-158998500D01*
X59954498Y-159066621D01*
X59900842Y-159113114D01*
X59848500Y-159124500D01*
X50308163Y-159124500D01*
X50240042Y-159104498D01*
X50193549Y-159050842D01*
X50183445Y-158980568D01*
X50212939Y-158915988D01*
X50253494Y-158884978D01*
X50457322Y-158786819D01*
X50743386Y-158607072D01*
X51007532Y-158396423D01*
X51246423Y-158157532D01*
X51457072Y-157893386D01*
X51636819Y-157607322D01*
X51783404Y-157302935D01*
X51783415Y-157302908D01*
X51894992Y-156984039D01*
X51970172Y-156654655D01*
X51998414Y-156404000D01*
X50479715Y-156404000D01*
X50500000Y-156275923D01*
X50500000Y-156024077D01*
X50479715Y-155896000D01*
X51998414Y-155896000D01*
X51970172Y-155645344D01*
X51894991Y-155315960D01*
X51894992Y-155315960D01*
X51783415Y-154997091D01*
X51783404Y-154997064D01*
X51636819Y-154692677D01*
X51457072Y-154406613D01*
X51246423Y-154142467D01*
X51007532Y-153903576D01*
X50743386Y-153692927D01*
X50457322Y-153513180D01*
X50152935Y-153366595D01*
X50152908Y-153366584D01*
X49834039Y-153255007D01*
X49504657Y-153179827D01*
X49168927Y-153142000D01*
X47754000Y-153142000D01*
X47754000Y-154550000D01*
X47246000Y-154550000D01*
X47246000Y-153142000D01*
X45831073Y-153142000D01*
X45495342Y-153179827D01*
X45165960Y-153255007D01*
X44847091Y-153366584D01*
X44847064Y-153366595D01*
X44542677Y-153513180D01*
X44256613Y-153692927D01*
X43992467Y-153903576D01*
X43753576Y-154142467D01*
X43542927Y-154406613D01*
X43363180Y-154692677D01*
X43216595Y-154997064D01*
X43216584Y-154997091D01*
X43105007Y-155315960D01*
X43029827Y-155645344D01*
X43001586Y-155896000D01*
X44520285Y-155896000D01*
X44500000Y-156024077D01*
X44500000Y-156275923D01*
X44520285Y-156404000D01*
X43001586Y-156404000D01*
X43029827Y-156654655D01*
X43105008Y-156984039D01*
X43105007Y-156984039D01*
X43216584Y-157302908D01*
X43216595Y-157302935D01*
X43363180Y-157607322D01*
X43542927Y-157893386D01*
X43753576Y-158157532D01*
X43992467Y-158396423D01*
X44256613Y-158607072D01*
X44542677Y-158786819D01*
X44746506Y-158884978D01*
X44799203Y-158932556D01*
X44817811Y-159001070D01*
X44796423Y-159068769D01*
X44741830Y-159114158D01*
X44691837Y-159124500D01*
X40151500Y-159124500D01*
X40083379Y-159104498D01*
X40036886Y-159050842D01*
X40025500Y-158998500D01*
X40025500Y-147090000D01*
X46016844Y-147090000D01*
X46035437Y-147314375D01*
X46090702Y-147532612D01*
X46090703Y-147532613D01*
X46181141Y-147738793D01*
X46304275Y-147927265D01*
X46304279Y-147927270D01*
X46456762Y-148092908D01*
X46511331Y-148135381D01*
X46634424Y-148231189D01*
X46832426Y-148338342D01*
X46832427Y-148338342D01*
X46832428Y-148338343D01*
X46944227Y-148376723D01*
X47045365Y-148411444D01*
X47267431Y-148448500D01*
X47267435Y-148448500D01*
X47492565Y-148448500D01*
X47492569Y-148448500D01*
X47714635Y-148411444D01*
X47927574Y-148338342D01*
X48125576Y-148231189D01*
X48303240Y-148092906D01*
X48455722Y-147927268D01*
X48544518Y-147791354D01*
X48598520Y-147745268D01*
X48668868Y-147735692D01*
X48733225Y-147765669D01*
X48755480Y-147791353D01*
X48788607Y-147842058D01*
X48844275Y-147927265D01*
X48844279Y-147927270D01*
X48996762Y-148092908D01*
X49051331Y-148135381D01*
X49174424Y-148231189D01*
X49372426Y-148338342D01*
X49372427Y-148338342D01*
X49372428Y-148338343D01*
X49484227Y-148376723D01*
X49585365Y-148411444D01*
X49807431Y-148448500D01*
X49807435Y-148448500D01*
X50032565Y-148448500D01*
X50032569Y-148448500D01*
X50254635Y-148411444D01*
X50467574Y-148338342D01*
X50665576Y-148231189D01*
X50843240Y-148092906D01*
X50995722Y-147927268D01*
X51084518Y-147791354D01*
X51138520Y-147745268D01*
X51208868Y-147735692D01*
X51273225Y-147765669D01*
X51295480Y-147791353D01*
X51328607Y-147842058D01*
X51384275Y-147927265D01*
X51384279Y-147927270D01*
X51536762Y-148092908D01*
X51591331Y-148135381D01*
X51714424Y-148231189D01*
X51912426Y-148338342D01*
X51912427Y-148338342D01*
X51912428Y-148338343D01*
X52024227Y-148376723D01*
X52125365Y-148411444D01*
X52347431Y-148448500D01*
X52347435Y-148448500D01*
X52572565Y-148448500D01*
X52572569Y-148448500D01*
X52794635Y-148411444D01*
X53007574Y-148338342D01*
X53205576Y-148231189D01*
X53383240Y-148092906D01*
X53535722Y-147927268D01*
X53658860Y-147738791D01*
X53749296Y-147532616D01*
X53804564Y-147314368D01*
X53823156Y-147090000D01*
X53804564Y-146865632D01*
X53749296Y-146647384D01*
X53658860Y-146441209D01*
X53652140Y-146430924D01*
X53535724Y-146252734D01*
X53535720Y-146252729D01*
X53383237Y-146087091D01*
X53275007Y-146002852D01*
X53205576Y-145948811D01*
X53172319Y-145930813D01*
X53121929Y-145880802D01*
X53106576Y-145811485D01*
X53131136Y-145744872D01*
X53172320Y-145709186D01*
X53205576Y-145691189D01*
X53383240Y-145552906D01*
X53535722Y-145387268D01*
X53658860Y-145198791D01*
X53749296Y-144992616D01*
X53804564Y-144774368D01*
X53823156Y-144550000D01*
X53804564Y-144325632D01*
X53749296Y-144107384D01*
X53658860Y-143901209D01*
X53641500Y-143874637D01*
X53535724Y-143712734D01*
X53535720Y-143712729D01*
X53383237Y-143547091D01*
X53263367Y-143453792D01*
X53205576Y-143408811D01*
X53007574Y-143301658D01*
X53007572Y-143301657D01*
X53007571Y-143301656D01*
X52794639Y-143228557D01*
X52794630Y-143228555D01*
X52750476Y-143221187D01*
X52572569Y-143191500D01*
X52347431Y-143191500D01*
X52199211Y-143216233D01*
X52125369Y-143228555D01*
X52125360Y-143228557D01*
X51912428Y-143301656D01*
X51912426Y-143301658D01*
X51714426Y-143408810D01*
X51714424Y-143408811D01*
X51536762Y-143547091D01*
X51384279Y-143712729D01*
X51295483Y-143848643D01*
X51241479Y-143894731D01*
X51171131Y-143904306D01*
X51106774Y-143874329D01*
X51084517Y-143848643D01*
X50995720Y-143712729D01*
X50843237Y-143547091D01*
X50723367Y-143453792D01*
X50665576Y-143408811D01*
X50467574Y-143301658D01*
X50467572Y-143301657D01*
X50467571Y-143301656D01*
X50254639Y-143228557D01*
X50254630Y-143228555D01*
X50210476Y-143221187D01*
X50032569Y-143191500D01*
X49807431Y-143191500D01*
X49659211Y-143216233D01*
X49585369Y-143228555D01*
X49585360Y-143228557D01*
X49372428Y-143301656D01*
X49372426Y-143301658D01*
X49174426Y-143408810D01*
X49174424Y-143408811D01*
X48996762Y-143547091D01*
X48935754Y-143613363D01*
X48874901Y-143649933D01*
X48803936Y-143647798D01*
X48745391Y-143607636D01*
X48724999Y-143572057D01*
X48680889Y-143453797D01*
X48680887Y-143453792D01*
X48593261Y-143336738D01*
X48476207Y-143249112D01*
X48476202Y-143249110D01*
X48339204Y-143198011D01*
X48339196Y-143198009D01*
X48278649Y-143191500D01*
X48278638Y-143191500D01*
X46481362Y-143191500D01*
X46481350Y-143191500D01*
X46420803Y-143198009D01*
X46420795Y-143198011D01*
X46283797Y-143249110D01*
X46283792Y-143249112D01*
X46166738Y-143336738D01*
X46079112Y-143453792D01*
X46079110Y-143453797D01*
X46028011Y-143590795D01*
X46028009Y-143590803D01*
X46021500Y-143651350D01*
X46021500Y-145448649D01*
X46028009Y-145509196D01*
X46028011Y-145509204D01*
X46079110Y-145646202D01*
X46079112Y-145646207D01*
X46166738Y-145763261D01*
X46283791Y-145850886D01*
X46283792Y-145850886D01*
X46283796Y-145850889D01*
X46398810Y-145893787D01*
X46455642Y-145936332D01*
X46480453Y-146002852D01*
X46465362Y-146072226D01*
X46447475Y-146097179D01*
X46304280Y-146252729D01*
X46304275Y-146252734D01*
X46181141Y-146441206D01*
X46090703Y-146647386D01*
X46090702Y-146647387D01*
X46035437Y-146865624D01*
X46016844Y-147090000D01*
X40025500Y-147090000D01*
X40025500Y-138850000D01*
X43636844Y-138850000D01*
X43655437Y-139074375D01*
X43710702Y-139292612D01*
X43710703Y-139292613D01*
X43801141Y-139498793D01*
X43924275Y-139687265D01*
X43924279Y-139687270D01*
X44076762Y-139852908D01*
X44131331Y-139895381D01*
X44254424Y-139991189D01*
X44254432Y-139991193D01*
X44258787Y-139994039D01*
X44257540Y-139995947D01*
X44301122Y-140039213D01*
X44316465Y-140108532D01*
X44291896Y-140175142D01*
X44257898Y-140204600D01*
X44258787Y-140205961D01*
X44254424Y-140208811D01*
X44076762Y-140347091D01*
X43924279Y-140512729D01*
X43924275Y-140512734D01*
X43801141Y-140701206D01*
X43710703Y-140907386D01*
X43710702Y-140907387D01*
X43655437Y-141125624D01*
X43636844Y-141350000D01*
X43655437Y-141574375D01*
X43710702Y-141792612D01*
X43710703Y-141792613D01*
X43801141Y-141998793D01*
X43924275Y-142187265D01*
X43924279Y-142187270D01*
X44076762Y-142352908D01*
X44131331Y-142395381D01*
X44254424Y-142491189D01*
X44452426Y-142598342D01*
X44452427Y-142598342D01*
X44452428Y-142598343D01*
X44564227Y-142636723D01*
X44665365Y-142671444D01*
X44887431Y-142708500D01*
X44887435Y-142708500D01*
X45112565Y-142708500D01*
X45112569Y-142708500D01*
X45334635Y-142671444D01*
X45547574Y-142598342D01*
X45745576Y-142491189D01*
X45923240Y-142352906D01*
X46075722Y-142187268D01*
X46198860Y-141998791D01*
X46289296Y-141792616D01*
X46344564Y-141574368D01*
X46363156Y-141350000D01*
X46344564Y-141125632D01*
X46289296Y-140907384D01*
X46198860Y-140701209D01*
X46192140Y-140690924D01*
X46075724Y-140512734D01*
X46075720Y-140512729D01*
X45923237Y-140347091D01*
X45841382Y-140283381D01*
X45745576Y-140208811D01*
X45745570Y-140208807D01*
X45741213Y-140205961D01*
X45742466Y-140204043D01*
X45698906Y-140160839D01*
X45683530Y-140091527D01*
X45708068Y-140024906D01*
X45742108Y-139995409D01*
X45741213Y-139994039D01*
X45745561Y-139991196D01*
X45745576Y-139991189D01*
X45923240Y-139852906D01*
X46075722Y-139687268D01*
X46198860Y-139498791D01*
X46289296Y-139292616D01*
X46344564Y-139074368D01*
X46363156Y-138850000D01*
X48636844Y-138850000D01*
X48655437Y-139074375D01*
X48710702Y-139292612D01*
X48710703Y-139292613D01*
X48801141Y-139498793D01*
X48924275Y-139687265D01*
X48924279Y-139687270D01*
X49076762Y-139852908D01*
X49131331Y-139895381D01*
X49254424Y-139991189D01*
X49254432Y-139991193D01*
X49258787Y-139994039D01*
X49257540Y-139995947D01*
X49301122Y-140039213D01*
X49316465Y-140108532D01*
X49291896Y-140175142D01*
X49257898Y-140204600D01*
X49258787Y-140205961D01*
X49254424Y-140208811D01*
X49076762Y-140347091D01*
X48924279Y-140512729D01*
X48924275Y-140512734D01*
X48801141Y-140701206D01*
X48710703Y-140907386D01*
X48710702Y-140907387D01*
X48655437Y-141125624D01*
X48636844Y-141350000D01*
X48655437Y-141574375D01*
X48710702Y-141792612D01*
X48710703Y-141792613D01*
X48801141Y-141998793D01*
X48924275Y-142187265D01*
X48924279Y-142187270D01*
X49076762Y-142352908D01*
X49131331Y-142395381D01*
X49254424Y-142491189D01*
X49452426Y-142598342D01*
X49452427Y-142598342D01*
X49452428Y-142598343D01*
X49564227Y-142636723D01*
X49665365Y-142671444D01*
X49887431Y-142708500D01*
X49887435Y-142708500D01*
X50112565Y-142708500D01*
X50112569Y-142708500D01*
X50334635Y-142671444D01*
X50547574Y-142598342D01*
X50745576Y-142491189D01*
X50923240Y-142352906D01*
X51075722Y-142187268D01*
X51198860Y-141998791D01*
X51289296Y-141792616D01*
X51344564Y-141574368D01*
X51363156Y-141350000D01*
X51344564Y-141125632D01*
X51289296Y-140907384D01*
X51198860Y-140701209D01*
X51192140Y-140690924D01*
X51075724Y-140512734D01*
X51075720Y-140512729D01*
X50923237Y-140347091D01*
X50841382Y-140283381D01*
X50745576Y-140208811D01*
X50745570Y-140208807D01*
X50741213Y-140205961D01*
X50742466Y-140204043D01*
X50698906Y-140160839D01*
X50683530Y-140091527D01*
X50708068Y-140024906D01*
X50742108Y-139995409D01*
X50741213Y-139994039D01*
X50745561Y-139991196D01*
X50745576Y-139991189D01*
X50923240Y-139852906D01*
X51075722Y-139687268D01*
X51198860Y-139498791D01*
X51289296Y-139292616D01*
X51344564Y-139074368D01*
X51363156Y-138850000D01*
X53636844Y-138850000D01*
X53655437Y-139074375D01*
X53710702Y-139292612D01*
X53710703Y-139292613D01*
X53801141Y-139498793D01*
X53924275Y-139687265D01*
X53924279Y-139687270D01*
X54076762Y-139852908D01*
X54131331Y-139895381D01*
X54254424Y-139991189D01*
X54254432Y-139991193D01*
X54258787Y-139994039D01*
X54257540Y-139995947D01*
X54301122Y-140039213D01*
X54316465Y-140108532D01*
X54291896Y-140175142D01*
X54257898Y-140204600D01*
X54258787Y-140205961D01*
X54254424Y-140208811D01*
X54076762Y-140347091D01*
X53924279Y-140512729D01*
X53924275Y-140512734D01*
X53801141Y-140701206D01*
X53710703Y-140907386D01*
X53710702Y-140907387D01*
X53655437Y-141125624D01*
X53636844Y-141350000D01*
X53655437Y-141574375D01*
X53710702Y-141792612D01*
X53710703Y-141792613D01*
X53801141Y-141998793D01*
X53924275Y-142187265D01*
X53924279Y-142187270D01*
X54076762Y-142352908D01*
X54131331Y-142395381D01*
X54254424Y-142491189D01*
X54452426Y-142598342D01*
X54452427Y-142598342D01*
X54452428Y-142598343D01*
X54564227Y-142636723D01*
X54665365Y-142671444D01*
X54887431Y-142708500D01*
X54887435Y-142708500D01*
X55112565Y-142708500D01*
X55112569Y-142708500D01*
X55334635Y-142671444D01*
X55547574Y-142598342D01*
X55745576Y-142491189D01*
X55923240Y-142352906D01*
X56075722Y-142187268D01*
X56198860Y-141998791D01*
X56289296Y-141792616D01*
X56344564Y-141574368D01*
X56363156Y-141350000D01*
X56344564Y-141125632D01*
X56289296Y-140907384D01*
X56198860Y-140701209D01*
X56192140Y-140690924D01*
X56075724Y-140512734D01*
X56075720Y-140512729D01*
X55923237Y-140347091D01*
X55841382Y-140283381D01*
X55745576Y-140208811D01*
X55745570Y-140208807D01*
X55741213Y-140205961D01*
X55742466Y-140204043D01*
X55698906Y-140160839D01*
X55683530Y-140091527D01*
X55708068Y-140024906D01*
X55742108Y-139995409D01*
X55741213Y-139994039D01*
X55745561Y-139991196D01*
X55745576Y-139991189D01*
X55923240Y-139852906D01*
X56075722Y-139687268D01*
X56198860Y-139498791D01*
X56289296Y-139292616D01*
X56344564Y-139074368D01*
X56363156Y-138850000D01*
X56344564Y-138625632D01*
X56289296Y-138407384D01*
X56198860Y-138201209D01*
X56192140Y-138190924D01*
X56075724Y-138012734D01*
X56075720Y-138012729D01*
X55923237Y-137847091D01*
X55841382Y-137783381D01*
X55745576Y-137708811D01*
X55547574Y-137601658D01*
X55547572Y-137601657D01*
X55547571Y-137601656D01*
X55334639Y-137528557D01*
X55334630Y-137528555D01*
X55290476Y-137521187D01*
X55112569Y-137491500D01*
X54887431Y-137491500D01*
X54739211Y-137516233D01*
X54665369Y-137528555D01*
X54665360Y-137528557D01*
X54452428Y-137601656D01*
X54452426Y-137601658D01*
X54254426Y-137708810D01*
X54254424Y-137708811D01*
X54076762Y-137847091D01*
X53924279Y-138012729D01*
X53924275Y-138012734D01*
X53801141Y-138201206D01*
X53710703Y-138407386D01*
X53710702Y-138407387D01*
X53655437Y-138625624D01*
X53636844Y-138850000D01*
X51363156Y-138850000D01*
X51344564Y-138625632D01*
X51289296Y-138407384D01*
X51198860Y-138201209D01*
X51192140Y-138190924D01*
X51075724Y-138012734D01*
X51075720Y-138012729D01*
X50923237Y-137847091D01*
X50841382Y-137783381D01*
X50745576Y-137708811D01*
X50547574Y-137601658D01*
X50547572Y-137601657D01*
X50547571Y-137601656D01*
X50334639Y-137528557D01*
X50334630Y-137528555D01*
X50290476Y-137521187D01*
X50112569Y-137491500D01*
X49887431Y-137491500D01*
X49739211Y-137516233D01*
X49665369Y-137528555D01*
X49665360Y-137528557D01*
X49452428Y-137601656D01*
X49452426Y-137601658D01*
X49254426Y-137708810D01*
X49254424Y-137708811D01*
X49076762Y-137847091D01*
X48924279Y-138012729D01*
X48924275Y-138012734D01*
X48801141Y-138201206D01*
X48710703Y-138407386D01*
X48710702Y-138407387D01*
X48655437Y-138625624D01*
X48636844Y-138850000D01*
X46363156Y-138850000D01*
X46344564Y-138625632D01*
X46289296Y-138407384D01*
X46198860Y-138201209D01*
X46192140Y-138190924D01*
X46075724Y-138012734D01*
X46075720Y-138012729D01*
X45923237Y-137847091D01*
X45841382Y-137783381D01*
X45745576Y-137708811D01*
X45547574Y-137601658D01*
X45547572Y-137601657D01*
X45547571Y-137601656D01*
X45334639Y-137528557D01*
X45334630Y-137528555D01*
X45290476Y-137521187D01*
X45112569Y-137491500D01*
X44887431Y-137491500D01*
X44739211Y-137516233D01*
X44665369Y-137528555D01*
X44665360Y-137528557D01*
X44452428Y-137601656D01*
X44452426Y-137601658D01*
X44254426Y-137708810D01*
X44254424Y-137708811D01*
X44076762Y-137847091D01*
X43924279Y-138012729D01*
X43924275Y-138012734D01*
X43801141Y-138201206D01*
X43710703Y-138407386D01*
X43710702Y-138407387D01*
X43655437Y-138625624D01*
X43636844Y-138850000D01*
X40025500Y-138850000D01*
X40025500Y-128339436D01*
X41474500Y-128339436D01*
X41474500Y-131360563D01*
X41489436Y-131375499D01*
X41489438Y-131375500D01*
X42810562Y-131375500D01*
X42825500Y-131360562D01*
X42825500Y-129663286D01*
X46199500Y-129663286D01*
X46199500Y-130036713D01*
X46236099Y-130408306D01*
X46236101Y-130408322D01*
X46308951Y-130774560D01*
X46417347Y-131131894D01*
X46417348Y-131131898D01*
X46560246Y-131476883D01*
X46736272Y-131806206D01*
X46943729Y-132116686D01*
X47172953Y-132395996D01*
X47180619Y-132405338D01*
X47180626Y-132405345D01*
X47180635Y-132405355D01*
X47444644Y-132669364D01*
X47444653Y-132669372D01*
X47444662Y-132669381D01*
X47444672Y-132669389D01*
X47733313Y-132906270D01*
X48043793Y-133113727D01*
X48043796Y-133113729D01*
X48373117Y-133289754D01*
X48718106Y-133432653D01*
X49075440Y-133541049D01*
X49441678Y-133613899D01*
X49813293Y-133650500D01*
X49813302Y-133650500D01*
X50186698Y-133650500D01*
X50186707Y-133650500D01*
X50558322Y-133613899D01*
X50924560Y-133541049D01*
X51281894Y-133432653D01*
X51626883Y-133289754D01*
X51956204Y-133113729D01*
X52266685Y-132906271D01*
X52555338Y-132669381D01*
X52819381Y-132405338D01*
X53056271Y-132116685D01*
X53263729Y-131806204D01*
X53439754Y-131476883D01*
X53582653Y-131131894D01*
X53691049Y-130774560D01*
X53763899Y-130408322D01*
X53800500Y-130036707D01*
X53800500Y-129663293D01*
X53763899Y-129291678D01*
X53691049Y-128925440D01*
X53582653Y-128568106D01*
X53439754Y-128223117D01*
X53263729Y-127893796D01*
X53056271Y-127583315D01*
X53056270Y-127583313D01*
X52819389Y-127294672D01*
X52819381Y-127294662D01*
X52819372Y-127294653D01*
X52819364Y-127294644D01*
X52555355Y-127030635D01*
X52555345Y-127030626D01*
X52555338Y-127030619D01*
X52545996Y-127022953D01*
X52266686Y-126793729D01*
X51956206Y-126586272D01*
X51626883Y-126410246D01*
X51281898Y-126267348D01*
X51281894Y-126267347D01*
X50924560Y-126158951D01*
X50680401Y-126110384D01*
X50558323Y-126086101D01*
X50558306Y-126086099D01*
X50186713Y-126049500D01*
X50186707Y-126049500D01*
X49813293Y-126049500D01*
X49813286Y-126049500D01*
X49441693Y-126086099D01*
X49441676Y-126086101D01*
X49197519Y-126134667D01*
X49075440Y-126158951D01*
X48896773Y-126213149D01*
X48718105Y-126267347D01*
X48718101Y-126267348D01*
X48373116Y-126410246D01*
X48043793Y-126586272D01*
X47733313Y-126793729D01*
X47444672Y-127030610D01*
X47444644Y-127030635D01*
X47180635Y-127294644D01*
X47180610Y-127294672D01*
X46943729Y-127583313D01*
X46736272Y-127893793D01*
X46560246Y-128223116D01*
X46417348Y-128568101D01*
X46417347Y-128568105D01*
X46308951Y-128925441D01*
X46236101Y-129291676D01*
X46236099Y-129291693D01*
X46199500Y-129663286D01*
X42825500Y-129663286D01*
X42825500Y-128339438D01*
X42825499Y-128339436D01*
X42810563Y-128324500D01*
X42810562Y-128324500D01*
X41510562Y-128324500D01*
X41489438Y-128324500D01*
X41489436Y-128324500D01*
X41474500Y-128339436D01*
X40025500Y-128339436D01*
X40025500Y-120150000D01*
X46096844Y-120150000D01*
X46115437Y-120374375D01*
X46170702Y-120592612D01*
X46170703Y-120592613D01*
X46261141Y-120798793D01*
X46384275Y-120987265D01*
X46384279Y-120987270D01*
X46536762Y-121152908D01*
X46591331Y-121195381D01*
X46714424Y-121291189D01*
X46912426Y-121398342D01*
X46912427Y-121398342D01*
X46912428Y-121398343D01*
X47024227Y-121436723D01*
X47125365Y-121471444D01*
X47347431Y-121508500D01*
X47347435Y-121508500D01*
X47572565Y-121508500D01*
X47572569Y-121508500D01*
X47794635Y-121471444D01*
X48007574Y-121398342D01*
X48205576Y-121291189D01*
X48383240Y-121152906D01*
X48535722Y-120987268D01*
X48624518Y-120851354D01*
X48678520Y-120805268D01*
X48748868Y-120795692D01*
X48813225Y-120825669D01*
X48835480Y-120851353D01*
X48868607Y-120902058D01*
X48924275Y-120987265D01*
X48924279Y-120987270D01*
X49076762Y-121152908D01*
X49131331Y-121195381D01*
X49254424Y-121291189D01*
X49452426Y-121398342D01*
X49452427Y-121398342D01*
X49452428Y-121398343D01*
X49564227Y-121436723D01*
X49665365Y-121471444D01*
X49887431Y-121508500D01*
X49887435Y-121508500D01*
X50112565Y-121508500D01*
X50112569Y-121508500D01*
X50334635Y-121471444D01*
X50547574Y-121398342D01*
X50745576Y-121291189D01*
X50923240Y-121152906D01*
X51075722Y-120987268D01*
X51164518Y-120851354D01*
X51218520Y-120805268D01*
X51288868Y-120795692D01*
X51353225Y-120825669D01*
X51375480Y-120851353D01*
X51408607Y-120902058D01*
X51464275Y-120987265D01*
X51464279Y-120987270D01*
X51616762Y-121152908D01*
X51671331Y-121195381D01*
X51794424Y-121291189D01*
X51992426Y-121398342D01*
X51992427Y-121398342D01*
X51992428Y-121398343D01*
X52104227Y-121436723D01*
X52205365Y-121471444D01*
X52427431Y-121508500D01*
X52427435Y-121508500D01*
X52652565Y-121508500D01*
X52652569Y-121508500D01*
X52874635Y-121471444D01*
X53087574Y-121398342D01*
X53285576Y-121291189D01*
X53463240Y-121152906D01*
X53615722Y-120987268D01*
X53738860Y-120798791D01*
X53829296Y-120592616D01*
X53884564Y-120374368D01*
X53903156Y-120150000D01*
X53884564Y-119925632D01*
X53829296Y-119707384D01*
X53738860Y-119501209D01*
X53732140Y-119490924D01*
X53615724Y-119312734D01*
X53615720Y-119312729D01*
X53463237Y-119147091D01*
X53355007Y-119062852D01*
X53285576Y-119008811D01*
X53252319Y-118990813D01*
X53201929Y-118940802D01*
X53186576Y-118871485D01*
X53211136Y-118804872D01*
X53252320Y-118769186D01*
X53285576Y-118751189D01*
X53463240Y-118612906D01*
X53615722Y-118447268D01*
X53738860Y-118258791D01*
X53829296Y-118052616D01*
X53884564Y-117834368D01*
X53903156Y-117610000D01*
X53884564Y-117385632D01*
X53829296Y-117167384D01*
X53738860Y-116961209D01*
X53721500Y-116934637D01*
X53615724Y-116772734D01*
X53615720Y-116772729D01*
X53463237Y-116607091D01*
X53343367Y-116513792D01*
X53285576Y-116468811D01*
X53087574Y-116361658D01*
X53087572Y-116361657D01*
X53087571Y-116361656D01*
X52874639Y-116288557D01*
X52874630Y-116288555D01*
X52830476Y-116281187D01*
X52652569Y-116251500D01*
X52427431Y-116251500D01*
X52279211Y-116276233D01*
X52205369Y-116288555D01*
X52205360Y-116288557D01*
X51992428Y-116361656D01*
X51992426Y-116361658D01*
X51794426Y-116468810D01*
X51794424Y-116468811D01*
X51616762Y-116607091D01*
X51464279Y-116772729D01*
X51375483Y-116908643D01*
X51321479Y-116954731D01*
X51251131Y-116964306D01*
X51186774Y-116934329D01*
X51164517Y-116908643D01*
X51075720Y-116772729D01*
X50923237Y-116607091D01*
X50803367Y-116513792D01*
X50745576Y-116468811D01*
X50547574Y-116361658D01*
X50547572Y-116361657D01*
X50547571Y-116361656D01*
X50334639Y-116288557D01*
X50334630Y-116288555D01*
X50290476Y-116281187D01*
X50112569Y-116251500D01*
X49887431Y-116251500D01*
X49739211Y-116276233D01*
X49665369Y-116288555D01*
X49665360Y-116288557D01*
X49452428Y-116361656D01*
X49452426Y-116361658D01*
X49254426Y-116468810D01*
X49254424Y-116468811D01*
X49076762Y-116607091D01*
X49015754Y-116673363D01*
X48954901Y-116709933D01*
X48883936Y-116707798D01*
X48825391Y-116667636D01*
X48804999Y-116632057D01*
X48760889Y-116513797D01*
X48760887Y-116513792D01*
X48673261Y-116396738D01*
X48556207Y-116309112D01*
X48556202Y-116309110D01*
X48419204Y-116258011D01*
X48419196Y-116258009D01*
X48358649Y-116251500D01*
X48358638Y-116251500D01*
X46561362Y-116251500D01*
X46561350Y-116251500D01*
X46500803Y-116258009D01*
X46500795Y-116258011D01*
X46363797Y-116309110D01*
X46363792Y-116309112D01*
X46246738Y-116396738D01*
X46159112Y-116513792D01*
X46159110Y-116513797D01*
X46108011Y-116650795D01*
X46108009Y-116650803D01*
X46101500Y-116711350D01*
X46101500Y-118508649D01*
X46108009Y-118569196D01*
X46108011Y-118569204D01*
X46159110Y-118706202D01*
X46159112Y-118706207D01*
X46246738Y-118823261D01*
X46363791Y-118910886D01*
X46363792Y-118910886D01*
X46363796Y-118910889D01*
X46478810Y-118953787D01*
X46535642Y-118996332D01*
X46560453Y-119062852D01*
X46545362Y-119132226D01*
X46527475Y-119157179D01*
X46384280Y-119312729D01*
X46384275Y-119312734D01*
X46261141Y-119501206D01*
X46170703Y-119707386D01*
X46170702Y-119707387D01*
X46115437Y-119925624D01*
X46096844Y-120150000D01*
X40025500Y-120150000D01*
X40025500Y-111830000D01*
X43636844Y-111830000D01*
X43655437Y-112054375D01*
X43710702Y-112272612D01*
X43710703Y-112272613D01*
X43801141Y-112478793D01*
X43924275Y-112667265D01*
X43924279Y-112667270D01*
X44076762Y-112832908D01*
X44131331Y-112875381D01*
X44254424Y-112971189D01*
X44254432Y-112971193D01*
X44258787Y-112974039D01*
X44257540Y-112975947D01*
X44301122Y-113019213D01*
X44316465Y-113088532D01*
X44291896Y-113155142D01*
X44257898Y-113184600D01*
X44258787Y-113185961D01*
X44254424Y-113188811D01*
X44076762Y-113327091D01*
X43924279Y-113492729D01*
X43924275Y-113492734D01*
X43801141Y-113681206D01*
X43710703Y-113887386D01*
X43710702Y-113887387D01*
X43655437Y-114105624D01*
X43636844Y-114330000D01*
X43655437Y-114554375D01*
X43710702Y-114772612D01*
X43710703Y-114772613D01*
X43801141Y-114978793D01*
X43924275Y-115167265D01*
X43924279Y-115167270D01*
X44076762Y-115332908D01*
X44131331Y-115375381D01*
X44254424Y-115471189D01*
X44452426Y-115578342D01*
X44452427Y-115578342D01*
X44452428Y-115578343D01*
X44564227Y-115616723D01*
X44665365Y-115651444D01*
X44887431Y-115688500D01*
X44887435Y-115688500D01*
X45112565Y-115688500D01*
X45112569Y-115688500D01*
X45334635Y-115651444D01*
X45547574Y-115578342D01*
X45745576Y-115471189D01*
X45923240Y-115332906D01*
X46075722Y-115167268D01*
X46198860Y-114978791D01*
X46289296Y-114772616D01*
X46344564Y-114554368D01*
X46363156Y-114330000D01*
X46344564Y-114105632D01*
X46289296Y-113887384D01*
X46198860Y-113681209D01*
X46192140Y-113670924D01*
X46075724Y-113492734D01*
X46075720Y-113492729D01*
X45923237Y-113327091D01*
X45841382Y-113263381D01*
X45745576Y-113188811D01*
X45745570Y-113188807D01*
X45741213Y-113185961D01*
X45742466Y-113184043D01*
X45698906Y-113140839D01*
X45683530Y-113071527D01*
X45708068Y-113004906D01*
X45742108Y-112975409D01*
X45741213Y-112974039D01*
X45745561Y-112971196D01*
X45745576Y-112971189D01*
X45923240Y-112832906D01*
X46075722Y-112667268D01*
X46198860Y-112478791D01*
X46289296Y-112272616D01*
X46344564Y-112054368D01*
X46363156Y-111830000D01*
X48636844Y-111830000D01*
X48655437Y-112054375D01*
X48710702Y-112272612D01*
X48710703Y-112272613D01*
X48801141Y-112478793D01*
X48924275Y-112667265D01*
X48924279Y-112667270D01*
X49076762Y-112832908D01*
X49131331Y-112875381D01*
X49254424Y-112971189D01*
X49254432Y-112971193D01*
X49258787Y-112974039D01*
X49257540Y-112975947D01*
X49301122Y-113019213D01*
X49316465Y-113088532D01*
X49291896Y-113155142D01*
X49257898Y-113184600D01*
X49258787Y-113185961D01*
X49254424Y-113188811D01*
X49076762Y-113327091D01*
X48924279Y-113492729D01*
X48924275Y-113492734D01*
X48801141Y-113681206D01*
X48710703Y-113887386D01*
X48710702Y-113887387D01*
X48655437Y-114105624D01*
X48636844Y-114330000D01*
X48655437Y-114554375D01*
X48710702Y-114772612D01*
X48710703Y-114772613D01*
X48801141Y-114978793D01*
X48924275Y-115167265D01*
X48924279Y-115167270D01*
X49076762Y-115332908D01*
X49131331Y-115375381D01*
X49254424Y-115471189D01*
X49452426Y-115578342D01*
X49452427Y-115578342D01*
X49452428Y-115578343D01*
X49564227Y-115616723D01*
X49665365Y-115651444D01*
X49887431Y-115688500D01*
X49887435Y-115688500D01*
X50112565Y-115688500D01*
X50112569Y-115688500D01*
X50334635Y-115651444D01*
X50547574Y-115578342D01*
X50745576Y-115471189D01*
X50923240Y-115332906D01*
X51075722Y-115167268D01*
X51198860Y-114978791D01*
X51289296Y-114772616D01*
X51344564Y-114554368D01*
X51363156Y-114330000D01*
X51344564Y-114105632D01*
X51289296Y-113887384D01*
X51198860Y-113681209D01*
X51192140Y-113670924D01*
X51075724Y-113492734D01*
X51075720Y-113492729D01*
X50923237Y-113327091D01*
X50841382Y-113263381D01*
X50745576Y-113188811D01*
X50745570Y-113188807D01*
X50741213Y-113185961D01*
X50742466Y-113184043D01*
X50698906Y-113140839D01*
X50683530Y-113071527D01*
X50708068Y-113004906D01*
X50742108Y-112975409D01*
X50741213Y-112974039D01*
X50745561Y-112971196D01*
X50745576Y-112971189D01*
X50923240Y-112832906D01*
X51075722Y-112667268D01*
X51198860Y-112478791D01*
X51289296Y-112272616D01*
X51344564Y-112054368D01*
X51363156Y-111830000D01*
X53636844Y-111830000D01*
X53655437Y-112054375D01*
X53710702Y-112272612D01*
X53710703Y-112272613D01*
X53801141Y-112478793D01*
X53924275Y-112667265D01*
X53924279Y-112667270D01*
X54076762Y-112832908D01*
X54131331Y-112875381D01*
X54254424Y-112971189D01*
X54254432Y-112971193D01*
X54258787Y-112974039D01*
X54257540Y-112975947D01*
X54301122Y-113019213D01*
X54316465Y-113088532D01*
X54291896Y-113155142D01*
X54257898Y-113184600D01*
X54258787Y-113185961D01*
X54254424Y-113188811D01*
X54076762Y-113327091D01*
X53924279Y-113492729D01*
X53924275Y-113492734D01*
X53801141Y-113681206D01*
X53710703Y-113887386D01*
X53710702Y-113887387D01*
X53655437Y-114105624D01*
X53636844Y-114330000D01*
X53655437Y-114554375D01*
X53710702Y-114772612D01*
X53710703Y-114772613D01*
X53801141Y-114978793D01*
X53924275Y-115167265D01*
X53924279Y-115167270D01*
X54076762Y-115332908D01*
X54131331Y-115375381D01*
X54254424Y-115471189D01*
X54452426Y-115578342D01*
X54452427Y-115578342D01*
X54452428Y-115578343D01*
X54564227Y-115616723D01*
X54665365Y-115651444D01*
X54887431Y-115688500D01*
X54887435Y-115688500D01*
X55112565Y-115688500D01*
X55112569Y-115688500D01*
X55334635Y-115651444D01*
X55547574Y-115578342D01*
X55745576Y-115471189D01*
X55923240Y-115332906D01*
X56075722Y-115167268D01*
X56198860Y-114978791D01*
X56289296Y-114772616D01*
X56344564Y-114554368D01*
X56363156Y-114330000D01*
X56344564Y-114105632D01*
X56289296Y-113887384D01*
X56198860Y-113681209D01*
X56192140Y-113670924D01*
X56075724Y-113492734D01*
X56075720Y-113492729D01*
X55923237Y-113327091D01*
X55841382Y-113263381D01*
X55745576Y-113188811D01*
X55745570Y-113188807D01*
X55741213Y-113185961D01*
X55742466Y-113184043D01*
X55698906Y-113140839D01*
X55683530Y-113071527D01*
X55708068Y-113004906D01*
X55742108Y-112975409D01*
X55741213Y-112974039D01*
X55745561Y-112971196D01*
X55745576Y-112971189D01*
X55923240Y-112832906D01*
X56075722Y-112667268D01*
X56198860Y-112478791D01*
X56289296Y-112272616D01*
X56344564Y-112054368D01*
X56363156Y-111830000D01*
X56344564Y-111605632D01*
X56289296Y-111387384D01*
X56198860Y-111181209D01*
X56192140Y-111170924D01*
X56075724Y-110992734D01*
X56075720Y-110992729D01*
X55923237Y-110827091D01*
X55841382Y-110763381D01*
X55745576Y-110688811D01*
X55547574Y-110581658D01*
X55547572Y-110581657D01*
X55547571Y-110581656D01*
X55334639Y-110508557D01*
X55334630Y-110508555D01*
X55290476Y-110501187D01*
X55112569Y-110471500D01*
X54887431Y-110471500D01*
X54739211Y-110496233D01*
X54665369Y-110508555D01*
X54665360Y-110508557D01*
X54452428Y-110581656D01*
X54452426Y-110581658D01*
X54254426Y-110688810D01*
X54254424Y-110688811D01*
X54076762Y-110827091D01*
X53924279Y-110992729D01*
X53924275Y-110992734D01*
X53801141Y-111181206D01*
X53710703Y-111387386D01*
X53710702Y-111387387D01*
X53655437Y-111605624D01*
X53636844Y-111830000D01*
X51363156Y-111830000D01*
X51344564Y-111605632D01*
X51289296Y-111387384D01*
X51198860Y-111181209D01*
X51192140Y-111170924D01*
X51075724Y-110992734D01*
X51075720Y-110992729D01*
X50923237Y-110827091D01*
X50841382Y-110763381D01*
X50745576Y-110688811D01*
X50547574Y-110581658D01*
X50547572Y-110581657D01*
X50547571Y-110581656D01*
X50334639Y-110508557D01*
X50334630Y-110508555D01*
X50290476Y-110501187D01*
X50112569Y-110471500D01*
X49887431Y-110471500D01*
X49739211Y-110496233D01*
X49665369Y-110508555D01*
X49665360Y-110508557D01*
X49452428Y-110581656D01*
X49452426Y-110581658D01*
X49254426Y-110688810D01*
X49254424Y-110688811D01*
X49076762Y-110827091D01*
X48924279Y-110992729D01*
X48924275Y-110992734D01*
X48801141Y-111181206D01*
X48710703Y-111387386D01*
X48710702Y-111387387D01*
X48655437Y-111605624D01*
X48636844Y-111830000D01*
X46363156Y-111830000D01*
X46344564Y-111605632D01*
X46289296Y-111387384D01*
X46198860Y-111181209D01*
X46192140Y-111170924D01*
X46075724Y-110992734D01*
X46075720Y-110992729D01*
X45923237Y-110827091D01*
X45841382Y-110763381D01*
X45745576Y-110688811D01*
X45547574Y-110581658D01*
X45547572Y-110581657D01*
X45547571Y-110581656D01*
X45334639Y-110508557D01*
X45334630Y-110508555D01*
X45290476Y-110501187D01*
X45112569Y-110471500D01*
X44887431Y-110471500D01*
X44739211Y-110496233D01*
X44665369Y-110508555D01*
X44665360Y-110508557D01*
X44452428Y-110581656D01*
X44452426Y-110581658D01*
X44254426Y-110688810D01*
X44254424Y-110688811D01*
X44076762Y-110827091D01*
X43924279Y-110992729D01*
X43924275Y-110992734D01*
X43801141Y-111181206D01*
X43710703Y-111387386D01*
X43710702Y-111387387D01*
X43655437Y-111605624D01*
X43636844Y-111830000D01*
X40025500Y-111830000D01*
X40025500Y-101319436D01*
X41474500Y-101319436D01*
X41474500Y-104340563D01*
X41489436Y-104355499D01*
X41489438Y-104355500D01*
X42810562Y-104355500D01*
X42825500Y-104340562D01*
X42825500Y-102643286D01*
X46199500Y-102643286D01*
X46199500Y-103016713D01*
X46236099Y-103388306D01*
X46236101Y-103388322D01*
X46308951Y-103754560D01*
X46417347Y-104111894D01*
X46417348Y-104111898D01*
X46560246Y-104456883D01*
X46736272Y-104786206D01*
X46943729Y-105096686D01*
X47172953Y-105375996D01*
X47180619Y-105385338D01*
X47180626Y-105385345D01*
X47180635Y-105385355D01*
X47444644Y-105649364D01*
X47444653Y-105649372D01*
X47444662Y-105649381D01*
X47444672Y-105649389D01*
X47733313Y-105886270D01*
X48043793Y-106093727D01*
X48043796Y-106093729D01*
X48373117Y-106269754D01*
X48718106Y-106412653D01*
X49075440Y-106521049D01*
X49441678Y-106593899D01*
X49813293Y-106630500D01*
X49813302Y-106630500D01*
X50186698Y-106630500D01*
X50186707Y-106630500D01*
X50558322Y-106593899D01*
X50924560Y-106521049D01*
X51281894Y-106412653D01*
X51626883Y-106269754D01*
X51956204Y-106093729D01*
X52266685Y-105886271D01*
X52555338Y-105649381D01*
X52819381Y-105385338D01*
X53056271Y-105096685D01*
X53263729Y-104786204D01*
X53439754Y-104456883D01*
X53582653Y-104111894D01*
X53691049Y-103754560D01*
X53763899Y-103388322D01*
X53800500Y-103016707D01*
X53800500Y-102643293D01*
X53763899Y-102271678D01*
X53691049Y-101905440D01*
X53582653Y-101548106D01*
X53439754Y-101203117D01*
X53263729Y-100873796D01*
X53056271Y-100563315D01*
X53056270Y-100563313D01*
X52819389Y-100274672D01*
X52819381Y-100274662D01*
X52819372Y-100274653D01*
X52819364Y-100274644D01*
X52555355Y-100010635D01*
X52555345Y-100010626D01*
X52555338Y-100010619D01*
X52545996Y-100002953D01*
X52266686Y-99773729D01*
X51956206Y-99566272D01*
X51626883Y-99390246D01*
X51281898Y-99247348D01*
X51281894Y-99247347D01*
X50924560Y-99138951D01*
X50680401Y-99090384D01*
X50558323Y-99066101D01*
X50558306Y-99066099D01*
X50186713Y-99029500D01*
X50186707Y-99029500D01*
X49813293Y-99029500D01*
X49813286Y-99029500D01*
X49441693Y-99066099D01*
X49441676Y-99066101D01*
X49197519Y-99114667D01*
X49075440Y-99138951D01*
X48896773Y-99193149D01*
X48718105Y-99247347D01*
X48718101Y-99247348D01*
X48373116Y-99390246D01*
X48043793Y-99566272D01*
X47733313Y-99773729D01*
X47444672Y-100010610D01*
X47444644Y-100010635D01*
X47180635Y-100274644D01*
X47180610Y-100274672D01*
X46943729Y-100563313D01*
X46736272Y-100873793D01*
X46560246Y-101203116D01*
X46417348Y-101548101D01*
X46417347Y-101548105D01*
X46308951Y-101905441D01*
X46236101Y-102271676D01*
X46236099Y-102271693D01*
X46199500Y-102643286D01*
X42825500Y-102643286D01*
X42825500Y-101319438D01*
X42825499Y-101319436D01*
X42810563Y-101304500D01*
X42810562Y-101304500D01*
X41510562Y-101304500D01*
X41489438Y-101304500D01*
X41489436Y-101304500D01*
X41474500Y-101319436D01*
X40025500Y-101319436D01*
X40025500Y-93030000D01*
X46096844Y-93030000D01*
X46115437Y-93254375D01*
X46170702Y-93472612D01*
X46170703Y-93472613D01*
X46261141Y-93678793D01*
X46384275Y-93867265D01*
X46384279Y-93867270D01*
X46536762Y-94032908D01*
X46591331Y-94075381D01*
X46714424Y-94171189D01*
X46912426Y-94278342D01*
X46912427Y-94278342D01*
X46912428Y-94278343D01*
X47024227Y-94316723D01*
X47125365Y-94351444D01*
X47347431Y-94388500D01*
X47347435Y-94388500D01*
X47572565Y-94388500D01*
X47572569Y-94388500D01*
X47794635Y-94351444D01*
X48007574Y-94278342D01*
X48205576Y-94171189D01*
X48383240Y-94032906D01*
X48535722Y-93867268D01*
X48624518Y-93731354D01*
X48678520Y-93685268D01*
X48748868Y-93675692D01*
X48813225Y-93705669D01*
X48835480Y-93731353D01*
X48868607Y-93782058D01*
X48924275Y-93867265D01*
X48924279Y-93867270D01*
X49076762Y-94032908D01*
X49131331Y-94075381D01*
X49254424Y-94171189D01*
X49452426Y-94278342D01*
X49452427Y-94278342D01*
X49452428Y-94278343D01*
X49564227Y-94316723D01*
X49665365Y-94351444D01*
X49887431Y-94388500D01*
X49887435Y-94388500D01*
X50112565Y-94388500D01*
X50112569Y-94388500D01*
X50334635Y-94351444D01*
X50547574Y-94278342D01*
X50745576Y-94171189D01*
X50923240Y-94032906D01*
X51075722Y-93867268D01*
X51164518Y-93731354D01*
X51218520Y-93685268D01*
X51288868Y-93675692D01*
X51353225Y-93705669D01*
X51375480Y-93731353D01*
X51408607Y-93782058D01*
X51464275Y-93867265D01*
X51464279Y-93867270D01*
X51616762Y-94032908D01*
X51671331Y-94075381D01*
X51794424Y-94171189D01*
X51992426Y-94278342D01*
X51992427Y-94278342D01*
X51992428Y-94278343D01*
X52104227Y-94316723D01*
X52205365Y-94351444D01*
X52427431Y-94388500D01*
X52427435Y-94388500D01*
X52652565Y-94388500D01*
X52652569Y-94388500D01*
X52874635Y-94351444D01*
X53087574Y-94278342D01*
X53285576Y-94171189D01*
X53463240Y-94032906D01*
X53615722Y-93867268D01*
X53738860Y-93678791D01*
X53829296Y-93472616D01*
X53884564Y-93254368D01*
X53903156Y-93030000D01*
X53884564Y-92805632D01*
X53829296Y-92587384D01*
X53738860Y-92381209D01*
X53732140Y-92370924D01*
X53615724Y-92192734D01*
X53615720Y-92192729D01*
X53463237Y-92027091D01*
X53355007Y-91942852D01*
X53285576Y-91888811D01*
X53252319Y-91870813D01*
X53201929Y-91820802D01*
X53186576Y-91751485D01*
X53211136Y-91684872D01*
X53252320Y-91649186D01*
X53285576Y-91631189D01*
X53463240Y-91492906D01*
X53615722Y-91327268D01*
X53738860Y-91138791D01*
X53829296Y-90932616D01*
X53884564Y-90714368D01*
X53903156Y-90490000D01*
X53884564Y-90265632D01*
X53829296Y-90047384D01*
X53738860Y-89841209D01*
X53721500Y-89814637D01*
X53615724Y-89652734D01*
X53615720Y-89652729D01*
X53463237Y-89487091D01*
X53343367Y-89393792D01*
X53285576Y-89348811D01*
X53087574Y-89241658D01*
X53087572Y-89241657D01*
X53087571Y-89241656D01*
X52874639Y-89168557D01*
X52874630Y-89168555D01*
X52830476Y-89161187D01*
X52652569Y-89131500D01*
X52427431Y-89131500D01*
X52279211Y-89156233D01*
X52205369Y-89168555D01*
X52205360Y-89168557D01*
X51992428Y-89241656D01*
X51992426Y-89241658D01*
X51794426Y-89348810D01*
X51794424Y-89348811D01*
X51616762Y-89487091D01*
X51464279Y-89652729D01*
X51375483Y-89788643D01*
X51321479Y-89834731D01*
X51251131Y-89844306D01*
X51186774Y-89814329D01*
X51164517Y-89788643D01*
X51075720Y-89652729D01*
X50923237Y-89487091D01*
X50803367Y-89393792D01*
X50745576Y-89348811D01*
X50547574Y-89241658D01*
X50547572Y-89241657D01*
X50547571Y-89241656D01*
X50334639Y-89168557D01*
X50334630Y-89168555D01*
X50290476Y-89161187D01*
X50112569Y-89131500D01*
X49887431Y-89131500D01*
X49739211Y-89156233D01*
X49665369Y-89168555D01*
X49665360Y-89168557D01*
X49452428Y-89241656D01*
X49452426Y-89241658D01*
X49254426Y-89348810D01*
X49254424Y-89348811D01*
X49076762Y-89487091D01*
X49015754Y-89553363D01*
X48954901Y-89589933D01*
X48883936Y-89587798D01*
X48825391Y-89547636D01*
X48804999Y-89512057D01*
X48760889Y-89393797D01*
X48760887Y-89393792D01*
X48673261Y-89276738D01*
X48556207Y-89189112D01*
X48556202Y-89189110D01*
X48419204Y-89138011D01*
X48419196Y-89138009D01*
X48358649Y-89131500D01*
X48358638Y-89131500D01*
X46561362Y-89131500D01*
X46561350Y-89131500D01*
X46500803Y-89138009D01*
X46500795Y-89138011D01*
X46363797Y-89189110D01*
X46363792Y-89189112D01*
X46246738Y-89276738D01*
X46159112Y-89393792D01*
X46159110Y-89393797D01*
X46108011Y-89530795D01*
X46108009Y-89530803D01*
X46101500Y-89591350D01*
X46101500Y-91388649D01*
X46108009Y-91449196D01*
X46108011Y-91449204D01*
X46159110Y-91586202D01*
X46159112Y-91586207D01*
X46246738Y-91703261D01*
X46363791Y-91790886D01*
X46363792Y-91790886D01*
X46363796Y-91790889D01*
X46478810Y-91833787D01*
X46535642Y-91876332D01*
X46560453Y-91942852D01*
X46545362Y-92012226D01*
X46527475Y-92037179D01*
X46384280Y-92192729D01*
X46384275Y-92192734D01*
X46261141Y-92381206D01*
X46170703Y-92587386D01*
X46170702Y-92587387D01*
X46115437Y-92805624D01*
X46096844Y-93030000D01*
X40025500Y-93030000D01*
X40025500Y-84700000D01*
X43636844Y-84700000D01*
X43655437Y-84924375D01*
X43710702Y-85142612D01*
X43710703Y-85142613D01*
X43801141Y-85348793D01*
X43924275Y-85537265D01*
X43924279Y-85537270D01*
X44076762Y-85702908D01*
X44131331Y-85745381D01*
X44254424Y-85841189D01*
X44254432Y-85841193D01*
X44258787Y-85844039D01*
X44257540Y-85845947D01*
X44301122Y-85889213D01*
X44316465Y-85958532D01*
X44291896Y-86025142D01*
X44257898Y-86054600D01*
X44258787Y-86055961D01*
X44254424Y-86058811D01*
X44076762Y-86197091D01*
X43924279Y-86362729D01*
X43924275Y-86362734D01*
X43801141Y-86551206D01*
X43710703Y-86757386D01*
X43710702Y-86757387D01*
X43655437Y-86975624D01*
X43636844Y-87200000D01*
X43655437Y-87424375D01*
X43710702Y-87642612D01*
X43710703Y-87642613D01*
X43801141Y-87848793D01*
X43924275Y-88037265D01*
X43924279Y-88037270D01*
X44076762Y-88202908D01*
X44131331Y-88245381D01*
X44254424Y-88341189D01*
X44452426Y-88448342D01*
X44452427Y-88448342D01*
X44452428Y-88448343D01*
X44564227Y-88486723D01*
X44665365Y-88521444D01*
X44887431Y-88558500D01*
X44887435Y-88558500D01*
X45112565Y-88558500D01*
X45112569Y-88558500D01*
X45334635Y-88521444D01*
X45547574Y-88448342D01*
X45745576Y-88341189D01*
X45923240Y-88202906D01*
X46075722Y-88037268D01*
X46198860Y-87848791D01*
X46289296Y-87642616D01*
X46344564Y-87424368D01*
X46363156Y-87200000D01*
X46344564Y-86975632D01*
X46289296Y-86757384D01*
X46198860Y-86551209D01*
X46192140Y-86540924D01*
X46075724Y-86362734D01*
X46075720Y-86362729D01*
X45923237Y-86197091D01*
X45841382Y-86133381D01*
X45745576Y-86058811D01*
X45745570Y-86058807D01*
X45741213Y-86055961D01*
X45742466Y-86054043D01*
X45698906Y-86010839D01*
X45683530Y-85941527D01*
X45708068Y-85874906D01*
X45742108Y-85845409D01*
X45741213Y-85844039D01*
X45745561Y-85841196D01*
X45745576Y-85841189D01*
X45923240Y-85702906D01*
X46075722Y-85537268D01*
X46198860Y-85348791D01*
X46289296Y-85142616D01*
X46344564Y-84924368D01*
X46363156Y-84700000D01*
X48636844Y-84700000D01*
X48655437Y-84924375D01*
X48710702Y-85142612D01*
X48710703Y-85142613D01*
X48801141Y-85348793D01*
X48924275Y-85537265D01*
X48924279Y-85537270D01*
X49076762Y-85702908D01*
X49131331Y-85745381D01*
X49254424Y-85841189D01*
X49254432Y-85841193D01*
X49258787Y-85844039D01*
X49257540Y-85845947D01*
X49301122Y-85889213D01*
X49316465Y-85958532D01*
X49291896Y-86025142D01*
X49257898Y-86054600D01*
X49258787Y-86055961D01*
X49254424Y-86058811D01*
X49076762Y-86197091D01*
X48924279Y-86362729D01*
X48924275Y-86362734D01*
X48801141Y-86551206D01*
X48710703Y-86757386D01*
X48710702Y-86757387D01*
X48655437Y-86975624D01*
X48636844Y-87200000D01*
X48655437Y-87424375D01*
X48710702Y-87642612D01*
X48710703Y-87642613D01*
X48801141Y-87848793D01*
X48924275Y-88037265D01*
X48924279Y-88037270D01*
X49076762Y-88202908D01*
X49131331Y-88245381D01*
X49254424Y-88341189D01*
X49452426Y-88448342D01*
X49452427Y-88448342D01*
X49452428Y-88448343D01*
X49564227Y-88486723D01*
X49665365Y-88521444D01*
X49887431Y-88558500D01*
X49887435Y-88558500D01*
X50112565Y-88558500D01*
X50112569Y-88558500D01*
X50334635Y-88521444D01*
X50547574Y-88448342D01*
X50745576Y-88341189D01*
X50923240Y-88202906D01*
X51075722Y-88037268D01*
X51198860Y-87848791D01*
X51289296Y-87642616D01*
X51344564Y-87424368D01*
X51363156Y-87200000D01*
X51344564Y-86975632D01*
X51289296Y-86757384D01*
X51198860Y-86551209D01*
X51192140Y-86540924D01*
X51075724Y-86362734D01*
X51075720Y-86362729D01*
X50923237Y-86197091D01*
X50841382Y-86133381D01*
X50745576Y-86058811D01*
X50745570Y-86058807D01*
X50741213Y-86055961D01*
X50742466Y-86054043D01*
X50698906Y-86010839D01*
X50683530Y-85941527D01*
X50708068Y-85874906D01*
X50742108Y-85845409D01*
X50741213Y-85844039D01*
X50745561Y-85841196D01*
X50745576Y-85841189D01*
X50923240Y-85702906D01*
X51075722Y-85537268D01*
X51198860Y-85348791D01*
X51289296Y-85142616D01*
X51344564Y-84924368D01*
X51363156Y-84700000D01*
X53636844Y-84700000D01*
X53655437Y-84924375D01*
X53710702Y-85142612D01*
X53710703Y-85142613D01*
X53801141Y-85348793D01*
X53924275Y-85537265D01*
X53924279Y-85537270D01*
X54076762Y-85702908D01*
X54131331Y-85745381D01*
X54254424Y-85841189D01*
X54254432Y-85841193D01*
X54258787Y-85844039D01*
X54257540Y-85845947D01*
X54301122Y-85889213D01*
X54316465Y-85958532D01*
X54291896Y-86025142D01*
X54257898Y-86054600D01*
X54258787Y-86055961D01*
X54254424Y-86058811D01*
X54076762Y-86197091D01*
X53924279Y-86362729D01*
X53924275Y-86362734D01*
X53801141Y-86551206D01*
X53710703Y-86757386D01*
X53710702Y-86757387D01*
X53655437Y-86975624D01*
X53636844Y-87200000D01*
X53655437Y-87424375D01*
X53710702Y-87642612D01*
X53710703Y-87642613D01*
X53801141Y-87848793D01*
X53924275Y-88037265D01*
X53924279Y-88037270D01*
X54076762Y-88202908D01*
X54131331Y-88245381D01*
X54254424Y-88341189D01*
X54452426Y-88448342D01*
X54452427Y-88448342D01*
X54452428Y-88448343D01*
X54564227Y-88486723D01*
X54665365Y-88521444D01*
X54887431Y-88558500D01*
X54887435Y-88558500D01*
X55112565Y-88558500D01*
X55112569Y-88558500D01*
X55334635Y-88521444D01*
X55547574Y-88448342D01*
X55745576Y-88341189D01*
X55923240Y-88202906D01*
X56075722Y-88037268D01*
X56198860Y-87848791D01*
X56289296Y-87642616D01*
X56344564Y-87424368D01*
X56363156Y-87200000D01*
X56344564Y-86975632D01*
X56289296Y-86757384D01*
X56198860Y-86551209D01*
X56192140Y-86540924D01*
X56075724Y-86362734D01*
X56075720Y-86362729D01*
X55923237Y-86197091D01*
X55841382Y-86133381D01*
X55745576Y-86058811D01*
X55745570Y-86058807D01*
X55741213Y-86055961D01*
X55742466Y-86054043D01*
X55698906Y-86010839D01*
X55683530Y-85941527D01*
X55708068Y-85874906D01*
X55742108Y-85845409D01*
X55741213Y-85844039D01*
X55745561Y-85841196D01*
X55745576Y-85841189D01*
X55923240Y-85702906D01*
X56075722Y-85537268D01*
X56198860Y-85348791D01*
X56289296Y-85142616D01*
X56344564Y-84924368D01*
X56363156Y-84700000D01*
X56344564Y-84475632D01*
X56289296Y-84257384D01*
X56198860Y-84051209D01*
X56192140Y-84040924D01*
X56075724Y-83862734D01*
X56075720Y-83862729D01*
X55923237Y-83697091D01*
X55841382Y-83633381D01*
X55745576Y-83558811D01*
X55547574Y-83451658D01*
X55547572Y-83451657D01*
X55547571Y-83451656D01*
X55334639Y-83378557D01*
X55334630Y-83378555D01*
X55290476Y-83371187D01*
X55112569Y-83341500D01*
X54887431Y-83341500D01*
X54739211Y-83366233D01*
X54665369Y-83378555D01*
X54665360Y-83378557D01*
X54452428Y-83451656D01*
X54452426Y-83451658D01*
X54254426Y-83558810D01*
X54254424Y-83558811D01*
X54076762Y-83697091D01*
X53924279Y-83862729D01*
X53924275Y-83862734D01*
X53801141Y-84051206D01*
X53710703Y-84257386D01*
X53710702Y-84257387D01*
X53655437Y-84475624D01*
X53636844Y-84700000D01*
X51363156Y-84700000D01*
X51344564Y-84475632D01*
X51289296Y-84257384D01*
X51198860Y-84051209D01*
X51192140Y-84040924D01*
X51075724Y-83862734D01*
X51075720Y-83862729D01*
X50923237Y-83697091D01*
X50841382Y-83633381D01*
X50745576Y-83558811D01*
X50547574Y-83451658D01*
X50547572Y-83451657D01*
X50547571Y-83451656D01*
X50334639Y-83378557D01*
X50334630Y-83378555D01*
X50290476Y-83371187D01*
X50112569Y-83341500D01*
X49887431Y-83341500D01*
X49739211Y-83366233D01*
X49665369Y-83378555D01*
X49665360Y-83378557D01*
X49452428Y-83451656D01*
X49452426Y-83451658D01*
X49254426Y-83558810D01*
X49254424Y-83558811D01*
X49076762Y-83697091D01*
X48924279Y-83862729D01*
X48924275Y-83862734D01*
X48801141Y-84051206D01*
X48710703Y-84257386D01*
X48710702Y-84257387D01*
X48655437Y-84475624D01*
X48636844Y-84700000D01*
X46363156Y-84700000D01*
X46344564Y-84475632D01*
X46289296Y-84257384D01*
X46198860Y-84051209D01*
X46192140Y-84040924D01*
X46075724Y-83862734D01*
X46075720Y-83862729D01*
X45923237Y-83697091D01*
X45841382Y-83633381D01*
X45745576Y-83558811D01*
X45547574Y-83451658D01*
X45547572Y-83451657D01*
X45547571Y-83451656D01*
X45334639Y-83378557D01*
X45334630Y-83378555D01*
X45290476Y-83371187D01*
X45112569Y-83341500D01*
X44887431Y-83341500D01*
X44739211Y-83366233D01*
X44665369Y-83378555D01*
X44665360Y-83378557D01*
X44452428Y-83451656D01*
X44452426Y-83451658D01*
X44254426Y-83558810D01*
X44254424Y-83558811D01*
X44076762Y-83697091D01*
X43924279Y-83862729D01*
X43924275Y-83862734D01*
X43801141Y-84051206D01*
X43710703Y-84257386D01*
X43710702Y-84257387D01*
X43655437Y-84475624D01*
X43636844Y-84700000D01*
X40025500Y-84700000D01*
X40025500Y-74189436D01*
X41474500Y-74189436D01*
X41474500Y-77210563D01*
X41489436Y-77225499D01*
X41489438Y-77225500D01*
X42810562Y-77225500D01*
X42825500Y-77210562D01*
X42825500Y-75513286D01*
X46199500Y-75513286D01*
X46199500Y-75886713D01*
X46236099Y-76258306D01*
X46236101Y-76258322D01*
X46308951Y-76624560D01*
X46417347Y-76981894D01*
X46417348Y-76981898D01*
X46560246Y-77326883D01*
X46736272Y-77656206D01*
X46943729Y-77966686D01*
X47172953Y-78245996D01*
X47180619Y-78255338D01*
X47180626Y-78255345D01*
X47180635Y-78255355D01*
X47444644Y-78519364D01*
X47444653Y-78519372D01*
X47444662Y-78519381D01*
X47444672Y-78519389D01*
X47733313Y-78756270D01*
X48043793Y-78963727D01*
X48043796Y-78963729D01*
X48373117Y-79139754D01*
X48718106Y-79282653D01*
X49075440Y-79391049D01*
X49441678Y-79463899D01*
X49813293Y-79500500D01*
X49813302Y-79500500D01*
X50186698Y-79500500D01*
X50186707Y-79500500D01*
X50558322Y-79463899D01*
X50924560Y-79391049D01*
X51281894Y-79282653D01*
X51626883Y-79139754D01*
X51956204Y-78963729D01*
X52266685Y-78756271D01*
X52555338Y-78519381D01*
X52819381Y-78255338D01*
X53056271Y-77966685D01*
X53263729Y-77656204D01*
X53439754Y-77326883D01*
X53582653Y-76981894D01*
X53691049Y-76624560D01*
X53763899Y-76258322D01*
X53800500Y-75886707D01*
X53800500Y-75513293D01*
X53763899Y-75141678D01*
X53691049Y-74775440D01*
X53582653Y-74418106D01*
X53439754Y-74073117D01*
X53263729Y-73743796D01*
X53056271Y-73433315D01*
X53056270Y-73433313D01*
X52819389Y-73144672D01*
X52819381Y-73144662D01*
X52819372Y-73144653D01*
X52819364Y-73144644D01*
X52555355Y-72880635D01*
X52555345Y-72880626D01*
X52555338Y-72880619D01*
X52545996Y-72872953D01*
X52266686Y-72643729D01*
X51956206Y-72436272D01*
X51626883Y-72260246D01*
X51281898Y-72117348D01*
X51281894Y-72117347D01*
X50924560Y-72008951D01*
X50680401Y-71960384D01*
X50558323Y-71936101D01*
X50558306Y-71936099D01*
X50186713Y-71899500D01*
X50186707Y-71899500D01*
X49813293Y-71899500D01*
X49813286Y-71899500D01*
X49441693Y-71936099D01*
X49441676Y-71936101D01*
X49197519Y-71984667D01*
X49075440Y-72008951D01*
X48896773Y-72063149D01*
X48718105Y-72117347D01*
X48718101Y-72117348D01*
X48373116Y-72260246D01*
X48043793Y-72436272D01*
X47733313Y-72643729D01*
X47444672Y-72880610D01*
X47444644Y-72880635D01*
X47180635Y-73144644D01*
X47180610Y-73144672D01*
X46943729Y-73433313D01*
X46736272Y-73743793D01*
X46560246Y-74073116D01*
X46417348Y-74418101D01*
X46417347Y-74418105D01*
X46308951Y-74775441D01*
X46236101Y-75141676D01*
X46236099Y-75141693D01*
X46199500Y-75513286D01*
X42825500Y-75513286D01*
X42825500Y-74189438D01*
X42825499Y-74189436D01*
X42810563Y-74174500D01*
X42810562Y-74174500D01*
X41510562Y-74174500D01*
X41489438Y-74174500D01*
X41489436Y-74174500D01*
X41474500Y-74189436D01*
X40025500Y-74189436D01*
X40025500Y-65840000D01*
X46096844Y-65840000D01*
X46115437Y-66064375D01*
X46170702Y-66282612D01*
X46170703Y-66282613D01*
X46261141Y-66488793D01*
X46384275Y-66677265D01*
X46384279Y-66677270D01*
X46536762Y-66842908D01*
X46591331Y-66885381D01*
X46714424Y-66981189D01*
X46912426Y-67088342D01*
X46912427Y-67088342D01*
X46912428Y-67088343D01*
X47024227Y-67126723D01*
X47125365Y-67161444D01*
X47347431Y-67198500D01*
X47347435Y-67198500D01*
X47572565Y-67198500D01*
X47572569Y-67198500D01*
X47794635Y-67161444D01*
X48007574Y-67088342D01*
X48205576Y-66981189D01*
X48383240Y-66842906D01*
X48535722Y-66677268D01*
X48624518Y-66541354D01*
X48678520Y-66495268D01*
X48748868Y-66485692D01*
X48813225Y-66515669D01*
X48835480Y-66541353D01*
X48868607Y-66592058D01*
X48924275Y-66677265D01*
X48924279Y-66677270D01*
X49076762Y-66842908D01*
X49131331Y-66885381D01*
X49254424Y-66981189D01*
X49452426Y-67088342D01*
X49452427Y-67088342D01*
X49452428Y-67088343D01*
X49564227Y-67126723D01*
X49665365Y-67161444D01*
X49887431Y-67198500D01*
X49887435Y-67198500D01*
X50112565Y-67198500D01*
X50112569Y-67198500D01*
X50334635Y-67161444D01*
X50547574Y-67088342D01*
X50745576Y-66981189D01*
X50923240Y-66842906D01*
X51075722Y-66677268D01*
X51164518Y-66541354D01*
X51218520Y-66495268D01*
X51288868Y-66485692D01*
X51353225Y-66515669D01*
X51375480Y-66541353D01*
X51408607Y-66592058D01*
X51464275Y-66677265D01*
X51464279Y-66677270D01*
X51616762Y-66842908D01*
X51671331Y-66885381D01*
X51794424Y-66981189D01*
X51992426Y-67088342D01*
X51992427Y-67088342D01*
X51992428Y-67088343D01*
X52104227Y-67126723D01*
X52205365Y-67161444D01*
X52427431Y-67198500D01*
X52427435Y-67198500D01*
X52652565Y-67198500D01*
X52652569Y-67198500D01*
X52874635Y-67161444D01*
X53087574Y-67088342D01*
X53285576Y-66981189D01*
X53463240Y-66842906D01*
X53615722Y-66677268D01*
X53738860Y-66488791D01*
X53829296Y-66282616D01*
X53884564Y-66064368D01*
X53903156Y-65840000D01*
X53884564Y-65615632D01*
X53829296Y-65397384D01*
X53738860Y-65191209D01*
X53732140Y-65180924D01*
X53615724Y-65002734D01*
X53615720Y-65002729D01*
X53463237Y-64837091D01*
X53355007Y-64752852D01*
X53285576Y-64698811D01*
X53252319Y-64680813D01*
X53201929Y-64630802D01*
X53186576Y-64561485D01*
X53211136Y-64494872D01*
X53252320Y-64459186D01*
X53285576Y-64441189D01*
X53463240Y-64302906D01*
X53615722Y-64137268D01*
X53738860Y-63948791D01*
X53829296Y-63742616D01*
X53884564Y-63524368D01*
X53903156Y-63300000D01*
X53884564Y-63075632D01*
X53829296Y-62857384D01*
X53738860Y-62651209D01*
X53721500Y-62624637D01*
X53615724Y-62462734D01*
X53615720Y-62462729D01*
X53463237Y-62297091D01*
X53343367Y-62203792D01*
X53285576Y-62158811D01*
X53087574Y-62051658D01*
X53087572Y-62051657D01*
X53087571Y-62051656D01*
X52874639Y-61978557D01*
X52874630Y-61978555D01*
X52830476Y-61971187D01*
X52652569Y-61941500D01*
X52427431Y-61941500D01*
X52279211Y-61966233D01*
X52205369Y-61978555D01*
X52205360Y-61978557D01*
X51992428Y-62051656D01*
X51992426Y-62051658D01*
X51794426Y-62158810D01*
X51794424Y-62158811D01*
X51616762Y-62297091D01*
X51464279Y-62462729D01*
X51375483Y-62598643D01*
X51321479Y-62644731D01*
X51251131Y-62654306D01*
X51186774Y-62624329D01*
X51164517Y-62598643D01*
X51075720Y-62462729D01*
X50923237Y-62297091D01*
X50803367Y-62203792D01*
X50745576Y-62158811D01*
X50547574Y-62051658D01*
X50547572Y-62051657D01*
X50547571Y-62051656D01*
X50334639Y-61978557D01*
X50334630Y-61978555D01*
X50290476Y-61971187D01*
X50112569Y-61941500D01*
X49887431Y-61941500D01*
X49739211Y-61966233D01*
X49665369Y-61978555D01*
X49665360Y-61978557D01*
X49452428Y-62051656D01*
X49452426Y-62051658D01*
X49254426Y-62158810D01*
X49254424Y-62158811D01*
X49076762Y-62297091D01*
X49015754Y-62363363D01*
X48954901Y-62399933D01*
X48883936Y-62397798D01*
X48825391Y-62357636D01*
X48804999Y-62322057D01*
X48760889Y-62203797D01*
X48760887Y-62203792D01*
X48673261Y-62086738D01*
X48556207Y-61999112D01*
X48556202Y-61999110D01*
X48419204Y-61948011D01*
X48419196Y-61948009D01*
X48358649Y-61941500D01*
X48358638Y-61941500D01*
X46561362Y-61941500D01*
X46561350Y-61941500D01*
X46500803Y-61948009D01*
X46500795Y-61948011D01*
X46363797Y-61999110D01*
X46363792Y-61999112D01*
X46246738Y-62086738D01*
X46159112Y-62203792D01*
X46159110Y-62203797D01*
X46108011Y-62340795D01*
X46108009Y-62340803D01*
X46101500Y-62401350D01*
X46101500Y-64198649D01*
X46108009Y-64259196D01*
X46108011Y-64259204D01*
X46159110Y-64396202D01*
X46159112Y-64396207D01*
X46246738Y-64513261D01*
X46363791Y-64600886D01*
X46363792Y-64600886D01*
X46363796Y-64600889D01*
X46478810Y-64643787D01*
X46535642Y-64686332D01*
X46560453Y-64752852D01*
X46545362Y-64822226D01*
X46527475Y-64847179D01*
X46384280Y-65002729D01*
X46384275Y-65002734D01*
X46261141Y-65191206D01*
X46170703Y-65397386D01*
X46170702Y-65397387D01*
X46115437Y-65615624D01*
X46096844Y-65840000D01*
X40025500Y-65840000D01*
X40025500Y-57600000D01*
X43636844Y-57600000D01*
X43655437Y-57824375D01*
X43710702Y-58042612D01*
X43710703Y-58042613D01*
X43801141Y-58248793D01*
X43924275Y-58437265D01*
X43924279Y-58437270D01*
X44076762Y-58602908D01*
X44131331Y-58645381D01*
X44254424Y-58741189D01*
X44254432Y-58741193D01*
X44258787Y-58744039D01*
X44257540Y-58745947D01*
X44301122Y-58789213D01*
X44316465Y-58858532D01*
X44291896Y-58925142D01*
X44257898Y-58954600D01*
X44258787Y-58955961D01*
X44254424Y-58958811D01*
X44076762Y-59097091D01*
X43924279Y-59262729D01*
X43924275Y-59262734D01*
X43801141Y-59451206D01*
X43710703Y-59657386D01*
X43710702Y-59657387D01*
X43655437Y-59875624D01*
X43636844Y-60100000D01*
X43655437Y-60324375D01*
X43710702Y-60542612D01*
X43710703Y-60542613D01*
X43801141Y-60748793D01*
X43924275Y-60937265D01*
X43924279Y-60937270D01*
X44076762Y-61102908D01*
X44131331Y-61145381D01*
X44254424Y-61241189D01*
X44452426Y-61348342D01*
X44452427Y-61348342D01*
X44452428Y-61348343D01*
X44564227Y-61386723D01*
X44665365Y-61421444D01*
X44887431Y-61458500D01*
X44887435Y-61458500D01*
X45112565Y-61458500D01*
X45112569Y-61458500D01*
X45334635Y-61421444D01*
X45547574Y-61348342D01*
X45745576Y-61241189D01*
X45923240Y-61102906D01*
X46075722Y-60937268D01*
X46198860Y-60748791D01*
X46289296Y-60542616D01*
X46344564Y-60324368D01*
X46363156Y-60100000D01*
X46344564Y-59875632D01*
X46289296Y-59657384D01*
X46198860Y-59451209D01*
X46192140Y-59440924D01*
X46075724Y-59262734D01*
X46075720Y-59262729D01*
X45923237Y-59097091D01*
X45841382Y-59033381D01*
X45745576Y-58958811D01*
X45745570Y-58958807D01*
X45741213Y-58955961D01*
X45742466Y-58954043D01*
X45698906Y-58910839D01*
X45683530Y-58841527D01*
X45708068Y-58774906D01*
X45742108Y-58745409D01*
X45741213Y-58744039D01*
X45745561Y-58741196D01*
X45745576Y-58741189D01*
X45923240Y-58602906D01*
X46075722Y-58437268D01*
X46198860Y-58248791D01*
X46289296Y-58042616D01*
X46344564Y-57824368D01*
X46363156Y-57600000D01*
X48636844Y-57600000D01*
X48655437Y-57824375D01*
X48710702Y-58042612D01*
X48710703Y-58042613D01*
X48801141Y-58248793D01*
X48924275Y-58437265D01*
X48924279Y-58437270D01*
X49076762Y-58602908D01*
X49131331Y-58645381D01*
X49254424Y-58741189D01*
X49254432Y-58741193D01*
X49258787Y-58744039D01*
X49257540Y-58745947D01*
X49301122Y-58789213D01*
X49316465Y-58858532D01*
X49291896Y-58925142D01*
X49257898Y-58954600D01*
X49258787Y-58955961D01*
X49254424Y-58958811D01*
X49076762Y-59097091D01*
X48924279Y-59262729D01*
X48924275Y-59262734D01*
X48801141Y-59451206D01*
X48710703Y-59657386D01*
X48710702Y-59657387D01*
X48655437Y-59875624D01*
X48636844Y-60100000D01*
X48655437Y-60324375D01*
X48710702Y-60542612D01*
X48710703Y-60542613D01*
X48801141Y-60748793D01*
X48924275Y-60937265D01*
X48924279Y-60937270D01*
X49076762Y-61102908D01*
X49131331Y-61145381D01*
X49254424Y-61241189D01*
X49452426Y-61348342D01*
X49452427Y-61348342D01*
X49452428Y-61348343D01*
X49564227Y-61386723D01*
X49665365Y-61421444D01*
X49887431Y-61458500D01*
X49887435Y-61458500D01*
X50112565Y-61458500D01*
X50112569Y-61458500D01*
X50334635Y-61421444D01*
X50547574Y-61348342D01*
X50745576Y-61241189D01*
X50923240Y-61102906D01*
X51075722Y-60937268D01*
X51198860Y-60748791D01*
X51289296Y-60542616D01*
X51344564Y-60324368D01*
X51363156Y-60100000D01*
X51344564Y-59875632D01*
X51289296Y-59657384D01*
X51198860Y-59451209D01*
X51192140Y-59440924D01*
X51075724Y-59262734D01*
X51075720Y-59262729D01*
X50923237Y-59097091D01*
X50841382Y-59033381D01*
X50745576Y-58958811D01*
X50745570Y-58958807D01*
X50741213Y-58955961D01*
X50742466Y-58954043D01*
X50698906Y-58910839D01*
X50683530Y-58841527D01*
X50708068Y-58774906D01*
X50742108Y-58745409D01*
X50741213Y-58744039D01*
X50745561Y-58741196D01*
X50745576Y-58741189D01*
X50923240Y-58602906D01*
X51075722Y-58437268D01*
X51198860Y-58248791D01*
X51289296Y-58042616D01*
X51344564Y-57824368D01*
X51363156Y-57600000D01*
X53636844Y-57600000D01*
X53655437Y-57824375D01*
X53710702Y-58042612D01*
X53710703Y-58042613D01*
X53801141Y-58248793D01*
X53924275Y-58437265D01*
X53924279Y-58437270D01*
X54076762Y-58602908D01*
X54131331Y-58645381D01*
X54254424Y-58741189D01*
X54254432Y-58741193D01*
X54258787Y-58744039D01*
X54257540Y-58745947D01*
X54301122Y-58789213D01*
X54316465Y-58858532D01*
X54291896Y-58925142D01*
X54257898Y-58954600D01*
X54258787Y-58955961D01*
X54254424Y-58958811D01*
X54076762Y-59097091D01*
X53924279Y-59262729D01*
X53924275Y-59262734D01*
X53801141Y-59451206D01*
X53710703Y-59657386D01*
X53710702Y-59657387D01*
X53655437Y-59875624D01*
X53636844Y-60100000D01*
X53655437Y-60324375D01*
X53710702Y-60542612D01*
X53710703Y-60542613D01*
X53801141Y-60748793D01*
X53924275Y-60937265D01*
X53924279Y-60937270D01*
X54076762Y-61102908D01*
X54131331Y-61145381D01*
X54254424Y-61241189D01*
X54452426Y-61348342D01*
X54452427Y-61348342D01*
X54452428Y-61348343D01*
X54564227Y-61386723D01*
X54665365Y-61421444D01*
X54887431Y-61458500D01*
X54887435Y-61458500D01*
X55112565Y-61458500D01*
X55112569Y-61458500D01*
X55334635Y-61421444D01*
X55547574Y-61348342D01*
X55745576Y-61241189D01*
X55923240Y-61102906D01*
X56075722Y-60937268D01*
X56198860Y-60748791D01*
X56289296Y-60542616D01*
X56344564Y-60324368D01*
X56363156Y-60100000D01*
X56344564Y-59875632D01*
X56289296Y-59657384D01*
X56198860Y-59451209D01*
X56192140Y-59440924D01*
X56075724Y-59262734D01*
X56075720Y-59262729D01*
X55923237Y-59097091D01*
X55841382Y-59033381D01*
X55745576Y-58958811D01*
X55745570Y-58958807D01*
X55741213Y-58955961D01*
X55742466Y-58954043D01*
X55698906Y-58910839D01*
X55683530Y-58841527D01*
X55708068Y-58774906D01*
X55742108Y-58745409D01*
X55741213Y-58744039D01*
X55745561Y-58741196D01*
X55745576Y-58741189D01*
X55923240Y-58602906D01*
X56075722Y-58437268D01*
X56198860Y-58248791D01*
X56289296Y-58042616D01*
X56344564Y-57824368D01*
X56363156Y-57600000D01*
X56344564Y-57375632D01*
X56289296Y-57157384D01*
X56198860Y-56951209D01*
X56192140Y-56940924D01*
X56075724Y-56762734D01*
X56075720Y-56762729D01*
X55923237Y-56597091D01*
X55841382Y-56533381D01*
X55745576Y-56458811D01*
X55547574Y-56351658D01*
X55547572Y-56351657D01*
X55547571Y-56351656D01*
X55334639Y-56278557D01*
X55334630Y-56278555D01*
X55290476Y-56271187D01*
X55112569Y-56241500D01*
X54887431Y-56241500D01*
X54739211Y-56266233D01*
X54665369Y-56278555D01*
X54665360Y-56278557D01*
X54452428Y-56351656D01*
X54452426Y-56351658D01*
X54254426Y-56458810D01*
X54254424Y-56458811D01*
X54076762Y-56597091D01*
X53924279Y-56762729D01*
X53924275Y-56762734D01*
X53801141Y-56951206D01*
X53710703Y-57157386D01*
X53710702Y-57157387D01*
X53655437Y-57375624D01*
X53636844Y-57600000D01*
X51363156Y-57600000D01*
X51344564Y-57375632D01*
X51289296Y-57157384D01*
X51198860Y-56951209D01*
X51192140Y-56940924D01*
X51075724Y-56762734D01*
X51075720Y-56762729D01*
X50923237Y-56597091D01*
X50841382Y-56533381D01*
X50745576Y-56458811D01*
X50547574Y-56351658D01*
X50547572Y-56351657D01*
X50547571Y-56351656D01*
X50334639Y-56278557D01*
X50334630Y-56278555D01*
X50290476Y-56271187D01*
X50112569Y-56241500D01*
X49887431Y-56241500D01*
X49739211Y-56266233D01*
X49665369Y-56278555D01*
X49665360Y-56278557D01*
X49452428Y-56351656D01*
X49452426Y-56351658D01*
X49254426Y-56458810D01*
X49254424Y-56458811D01*
X49076762Y-56597091D01*
X48924279Y-56762729D01*
X48924275Y-56762734D01*
X48801141Y-56951206D01*
X48710703Y-57157386D01*
X48710702Y-57157387D01*
X48655437Y-57375624D01*
X48636844Y-57600000D01*
X46363156Y-57600000D01*
X46344564Y-57375632D01*
X46289296Y-57157384D01*
X46198860Y-56951209D01*
X46192140Y-56940924D01*
X46075724Y-56762734D01*
X46075720Y-56762729D01*
X45923237Y-56597091D01*
X45841382Y-56533381D01*
X45745576Y-56458811D01*
X45547574Y-56351658D01*
X45547572Y-56351657D01*
X45547571Y-56351656D01*
X45334639Y-56278557D01*
X45334630Y-56278555D01*
X45290476Y-56271187D01*
X45112569Y-56241500D01*
X44887431Y-56241500D01*
X44739211Y-56266233D01*
X44665369Y-56278555D01*
X44665360Y-56278557D01*
X44452428Y-56351656D01*
X44452426Y-56351658D01*
X44254426Y-56458810D01*
X44254424Y-56458811D01*
X44076762Y-56597091D01*
X43924279Y-56762729D01*
X43924275Y-56762734D01*
X43801141Y-56951206D01*
X43710703Y-57157386D01*
X43710702Y-57157387D01*
X43655437Y-57375624D01*
X43636844Y-57600000D01*
X40025500Y-57600000D01*
X40025500Y-47089436D01*
X41474500Y-47089436D01*
X41474500Y-50110563D01*
X41489436Y-50125499D01*
X41489438Y-50125500D01*
X42810562Y-50125500D01*
X42825500Y-50110562D01*
X42825500Y-48413286D01*
X46199500Y-48413286D01*
X46199500Y-48786713D01*
X46236099Y-49158306D01*
X46236101Y-49158322D01*
X46308951Y-49524560D01*
X46417347Y-49881894D01*
X46417348Y-49881898D01*
X46560246Y-50226883D01*
X46736272Y-50556206D01*
X46943729Y-50866686D01*
X47172953Y-51145996D01*
X47180619Y-51155338D01*
X47180626Y-51155345D01*
X47180635Y-51155355D01*
X47444644Y-51419364D01*
X47444653Y-51419372D01*
X47444662Y-51419381D01*
X47444672Y-51419389D01*
X47733313Y-51656270D01*
X48043793Y-51863727D01*
X48043796Y-51863729D01*
X48373117Y-52039754D01*
X48718106Y-52182653D01*
X49075440Y-52291049D01*
X49441678Y-52363899D01*
X49813293Y-52400500D01*
X49813302Y-52400500D01*
X50186698Y-52400500D01*
X50186707Y-52400500D01*
X50558322Y-52363899D01*
X50924560Y-52291049D01*
X51281894Y-52182653D01*
X51626883Y-52039754D01*
X51956204Y-51863729D01*
X52266685Y-51656271D01*
X52555338Y-51419381D01*
X52819381Y-51155338D01*
X53056271Y-50866685D01*
X53263729Y-50556204D01*
X53439754Y-50226883D01*
X53582653Y-49881894D01*
X53691049Y-49524560D01*
X53763899Y-49158322D01*
X53800500Y-48786707D01*
X53800500Y-48413293D01*
X53763899Y-48041678D01*
X53691049Y-47675440D01*
X53582653Y-47318106D01*
X53439754Y-46973117D01*
X53263729Y-46643796D01*
X53056271Y-46333315D01*
X53056270Y-46333313D01*
X52819389Y-46044672D01*
X52819381Y-46044662D01*
X52819372Y-46044653D01*
X52819364Y-46044644D01*
X52555355Y-45780635D01*
X52555345Y-45780626D01*
X52555338Y-45780619D01*
X52545996Y-45772953D01*
X52266686Y-45543729D01*
X51956206Y-45336272D01*
X51626883Y-45160246D01*
X51281898Y-45017348D01*
X51281894Y-45017347D01*
X50924560Y-44908951D01*
X50680401Y-44860384D01*
X50558323Y-44836101D01*
X50558306Y-44836099D01*
X50186713Y-44799500D01*
X50186707Y-44799500D01*
X49813293Y-44799500D01*
X49813286Y-44799500D01*
X49441693Y-44836099D01*
X49441676Y-44836101D01*
X49197519Y-44884667D01*
X49075440Y-44908951D01*
X48896773Y-44963149D01*
X48718105Y-45017347D01*
X48718101Y-45017348D01*
X48373116Y-45160246D01*
X48043793Y-45336272D01*
X47733313Y-45543729D01*
X47444672Y-45780610D01*
X47444644Y-45780635D01*
X47180635Y-46044644D01*
X47180610Y-46044672D01*
X46943729Y-46333313D01*
X46736272Y-46643793D01*
X46560246Y-46973116D01*
X46417348Y-47318101D01*
X46417347Y-47318105D01*
X46308951Y-47675441D01*
X46236101Y-48041676D01*
X46236099Y-48041693D01*
X46199500Y-48413286D01*
X42825500Y-48413286D01*
X42825500Y-47089438D01*
X42825499Y-47089436D01*
X42810563Y-47074500D01*
X42810562Y-47074500D01*
X41510562Y-47074500D01*
X41489438Y-47074500D01*
X41489436Y-47074500D01*
X41474500Y-47089436D01*
X40025500Y-47089436D01*
X40025500Y-30901500D01*
X40045502Y-30833379D01*
X40099158Y-30786886D01*
X40151500Y-30775500D01*
X44691837Y-30775500D01*
X44759958Y-30795502D01*
G37*
G04 #@! TD.AperFunction*
M02*
